<?xml version="1.0" encoding="utf-8" standalone="no"?>
<!DOCTYPE svg PUBLIC "-//W3C//DTD SVG 1.1//EN"
  "http://www.w3.org/Graphics/SVG/1.1/DTD/svg11.dtd">
<!-- Created with matplotlib (https://matplotlib.org/) -->
<svg height="288pt" version="1.1" viewBox="0 0 432 288" width="432pt" xmlns="http://www.w3.org/2000/svg" xmlns:xlink="http://www.w3.org/1999/xlink">
 <metadata>
  <rdf:RDF xmlns:cc="http://creativecommons.org/ns#" xmlns:dc="http://purl.org/dc/elements/1.1/" xmlns:rdf="http://www.w3.org/1999/02/22-rdf-syntax-ns#">
   <cc:Work>
    <dc:type rdf:resource="http://purl.org/dc/dcmitype/StillImage"/>
    <dc:date>2021-03-14T15:13:46.881067</dc:date>
    <dc:format>image/svg+xml</dc:format>
    <dc:creator>
     <cc:Agent>
      <dc:title>Matplotlib v3.3.4, https://matplotlib.org/</dc:title>
     </cc:Agent>
    </dc:creator>
   </cc:Work>
  </rdf:RDF>
 </metadata>
 <defs>
  <style type="text/css">*{stroke-linecap:butt;stroke-linejoin:round;}</style>
 </defs>
 <g id="figure_1">
  <g id="patch_1">
   <path d="M 0 288 
L 432 288 
L 432 0 
L 0 0 
z
" style="fill:#ffffff;"/>
  </g>
  <g id="axes_1">
   <g id="patch_2">
    <path d="M 59.906697 234.782835 
L 409.322835 234.782835 
L 409.322835 39.297165 
L 59.906697 39.297165 
z
" style="fill:#ffffff;"/>
   </g>
   <g id="matplotlib.axis_1">
    <g id="xtick_1">
     <g id="line2d_1">
      <path clip-path="url(#pf71e5c0bae)" d="M 69.795833 234.782835 
L 69.795833 39.297165 
" style="fill:none;stroke:#000000;stroke-linecap:square;stroke-opacity:0.1;stroke-width:0.5;"/>
     </g>
     <g id="line2d_2">
      <defs>
       <path d="M 0 0 
L 0 -2.5 
" id="m1e296c28bb" style="stroke:#000000;stroke-width:0.5;"/>
      </defs>
      <g>
       <use style="stroke:#000000;stroke-width:0.5;" x="69.795833" xlink:href="#m1e296c28bb" y="234.782835"/>
      </g>
     </g>
     <g id="text_1">
      <!-- $\mathregular{0}$ -->
      <g transform="translate(66.795833 246.510335)scale(0.12 -0.12)">
       <defs>
        <path d="M 23.921875 1.8125 
Q 31.109375 1.8125 33.78125 9.671875 
Q 36.46875 17.53125 36.46875 32.421875 
Q 36.46875 44.28125 34.859375 51.375 
Q 31.84375 64.546875 23.53125 64.546875 
Q 15.234375 64.546875 12.15625 50.984375 
Q 10.546875 43.75 10.546875 31.9375 
Q 10.546875 20.84375 12.203125 14.203125 
Q 15.328125 1.8125 23.921875 1.8125 
z
M 23.78125 67.1875 
Q 35.015625 67.1875 41.21875 55.421875 
Q 46.140625 45.90625 46.140625 33.546875 
Q 46.140625 23.828125 43.109375 15.234375 
Q 37.40625 -0.921875 23.34375 -0.921875 
Q 13.71875 -0.921875 7.515625 7.8125 
Q 0.875 17.140625 0.875 33.15625 
Q 0.875 45.75 5.328125 54.828125 
Q 11.328125 67.1875 23.78125 67.1875 
z
" id="Times-Roman-48"/>
       </defs>
       <use transform="translate(0 0.8125)" xlink:href="#Times-Roman-48"/>
      </g>
     </g>
    </g>
    <g id="xtick_2">
     <g id="line2d_3">
      <path clip-path="url(#pf71e5c0bae)" d="M 144.713529 234.782835 
L 144.713529 39.297165 
" style="fill:none;stroke:#000000;stroke-linecap:square;stroke-opacity:0.1;stroke-width:0.5;"/>
     </g>
     <g id="line2d_4">
      <g>
       <use style="stroke:#000000;stroke-width:0.5;" x="144.713529" xlink:href="#m1e296c28bb" y="234.782835"/>
      </g>
     </g>
     <g id="text_2">
      <!-- $\mathregular{5}$ -->
      <g transform="translate(141.713529 246.510335)scale(0.12 -0.12)">
       <defs>
        <path d="M 7.46875 8.9375 
Q 10.25 8.9375 14.765625 5.78125 
Q 19.28125 2.640625 21.734375 2.640625 
Q 27.34375 2.640625 31.546875 7.59375 
Q 35.75 12.546875 35.75 19.78125 
Q 35.75 32.421875 22.265625 37.984375 
Q 14.796875 41.0625 8.34375 41.0625 
Q 7.28125 41.0625 7 41.140625 
Q 6.734375 41.21875 6.34375 41.65625 
Q 6.453125 42.046875 6.515625 42.3125 
Q 6.59375 42.578125 6.6875 42.828125 
L 17.328125 66.15625 
L 38.28125 66.15625 
Q 39.84375 66.15625 40.6875 66.6875 
Q 41.546875 67.234375 42.921875 68.703125 
L 43.703125 68.015625 
L 39.890625 58.984375 
Q 39.703125 58.546875 38.8125 58.421875 
Q 37.9375 58.296875 36.921875 58.296875 
L 18.015625 58.296875 
L 13.875 49.75 
Q 21.875 48.390625 25.59375 47.171875 
Q 31.6875 45.125 35.796875 41.109375 
Q 39.3125 37.640625 41.109375 33.3125 
Q 42.921875 29 42.921875 24.171875 
Q 42.921875 13.375 35.234375 6.140625 
Q 27.546875 -1.078125 15.765625 -1.078125 
Q 10.984375 -1.078125 8.0625 -0.140625 
Q 3.171875 1.375 3.171875 5.28125 
Q 3.171875 6.734375 4.21875 7.828125 
Q 5.28125 8.9375 7.46875 8.9375 
z
" id="Times-Roman-53"/>
       </defs>
       <use transform="translate(0 0.296875)" xlink:href="#Times-Roman-53"/>
      </g>
     </g>
    </g>
    <g id="xtick_3">
     <g id="line2d_5">
      <path clip-path="url(#pf71e5c0bae)" d="M 219.631226 234.782835 
L 219.631226 39.297165 
" style="fill:none;stroke:#000000;stroke-linecap:square;stroke-opacity:0.1;stroke-width:0.5;"/>
     </g>
     <g id="line2d_6">
      <g>
       <use style="stroke:#000000;stroke-width:0.5;" x="219.631226" xlink:href="#m1e296c28bb" y="234.782835"/>
      </g>
     </g>
     <g id="text_3">
      <!-- $\mathregular{10}$ -->
      <g transform="translate(213.631226 246.510335)scale(0.12 -0.12)">
       <defs>
        <path d="M 29.59375 67.09375 
Q 29.78125 66.84375 29.796875 66.71875 
Q 29.828125 66.609375 29.828125 66.15625 
L 29.828125 7.375 
Q 29.828125 3.609375 31.828125 2.578125 
Q 33.84375 1.5625 39.3125 1.375 
L 39.3125 0 
L 11.765625 0 
L 11.765625 1.46875 
Q 17.671875 1.765625 19.484375 3.078125 
Q 21.296875 4.390625 21.296875 8.796875 
L 21.296875 54 
Q 21.296875 56.34375 20.703125 57.5625 
Q 20.125 58.796875 18.171875 58.796875 
Q 16.890625 58.796875 14.859375 58.078125 
Q 12.84375 57.375 11.078125 56.59375 
L 11.078125 57.953125 
L 29 67.09375 
L 29.59375 67.09375 
z
" id="Times-Roman-49"/>
       </defs>
       <use transform="translate(0 0.8125)" xlink:href="#Times-Roman-49"/>
       <use transform="translate(50 0.8125)" xlink:href="#Times-Roman-48"/>
      </g>
     </g>
    </g>
    <g id="xtick_4">
     <g id="line2d_7">
      <path clip-path="url(#pf71e5c0bae)" d="M 294.548923 234.782835 
L 294.548923 39.297165 
" style="fill:none;stroke:#000000;stroke-linecap:square;stroke-opacity:0.1;stroke-width:0.5;"/>
     </g>
     <g id="line2d_8">
      <g>
       <use style="stroke:#000000;stroke-width:0.5;" x="294.548923" xlink:href="#m1e296c28bb" y="234.782835"/>
      </g>
     </g>
     <g id="text_4">
      <!-- $\mathregular{15}$ -->
      <g transform="translate(288.548923 246.510335)scale(0.12 -0.12)">
       <use transform="translate(0 0.296875)" xlink:href="#Times-Roman-49"/>
       <use transform="translate(50 0.296875)" xlink:href="#Times-Roman-53"/>
      </g>
     </g>
    </g>
    <g id="xtick_5">
     <g id="line2d_9">
      <path clip-path="url(#pf71e5c0bae)" d="M 369.46662 234.782835 
L 369.46662 39.297165 
" style="fill:none;stroke:#000000;stroke-linecap:square;stroke-opacity:0.1;stroke-width:0.5;"/>
     </g>
     <g id="line2d_10">
      <g>
       <use style="stroke:#000000;stroke-width:0.5;" x="369.46662" xlink:href="#m1e296c28bb" y="234.782835"/>
      </g>
     </g>
     <g id="text_5">
      <!-- $\mathregular{20}$ -->
      <g transform="translate(363.46662 246.510335)scale(0.12 -0.12)">
       <defs>
        <path d="M 2.984375 1.125 
Q 20.84375 19.671875 27.234375 28.359375 
Q 33.640625 37.0625 33.640625 45.3125 
Q 33.640625 52.546875 29.734375 56.328125 
Q 25.828125 60.109375 20.40625 60.109375 
Q 13.71875 60.109375 9.578125 55.21875 
Q 7.28125 52.546875 5.171875 46.96875 
L 3.078125 47.40625 
Q 5.515625 58.640625 11.34375 63.015625 
Q 17.1875 67.390625 23.875 67.390625 
Q 32.125 67.390625 37.21875 62.1875 
Q 42.328125 56.984375 42.328125 49.46875 
Q 42.328125 41.453125 36.8125 34.03125 
Q 31.296875 26.609375 12.84375 7.625 
L 35.25 7.625 
Q 39.9375 7.625 41.84375 8.734375 
Q 43.75 9.859375 46.140625 14.203125 
L 47.40625 13.625 
L 42 0 
L 2.984375 0 
z
" id="Times-Roman-50"/>
       </defs>
       <use transform="translate(0 0.609375)" xlink:href="#Times-Roman-50"/>
       <use transform="translate(50 0.609375)" xlink:href="#Times-Roman-48"/>
      </g>
     </g>
    </g>
    <g id="text_6">
     <!-- SD Start Time ts [days] -->
     <g transform="translate(164.898516 262.24221)scale(0.12 -0.12)">
      <defs>
       <path d="M 53.515625 70.515625 
L 53.515625 60.890625 
Q 47.90625 63.578125 42.921875 64.890625 
Q 37.9375 66.21875 33.296875 66.21875 
Q 25.25 66.21875 20.875 63.09375 
Q 16.5 59.96875 16.5 54.203125 
Q 16.5 49.359375 19.40625 46.890625 
Q 22.3125 44.4375 30.421875 42.921875 
L 36.375 41.703125 
Q 47.40625 39.59375 52.65625 34.296875 
Q 57.90625 29 57.90625 20.125 
Q 57.90625 9.515625 50.796875 4.046875 
Q 43.703125 -1.421875 29.984375 -1.421875 
Q 24.8125 -1.421875 18.96875 -0.25 
Q 13.140625 0.921875 6.890625 3.21875 
L 6.890625 13.375 
Q 12.890625 10.015625 18.65625 8.296875 
Q 24.421875 6.59375 29.984375 6.59375 
Q 38.421875 6.59375 43.015625 9.90625 
Q 47.609375 13.234375 47.609375 19.390625 
Q 47.609375 24.75 44.3125 27.78125 
Q 41.015625 30.8125 33.5 32.328125 
L 27.484375 33.5 
Q 16.453125 35.6875 11.515625 40.375 
Q 6.59375 45.0625 6.59375 53.421875 
Q 6.59375 63.09375 13.40625 68.65625 
Q 20.21875 74.21875 32.171875 74.21875 
Q 37.3125 74.21875 42.625 73.28125 
Q 47.953125 72.359375 53.515625 70.515625 
z
" id="DejaVuSans-83"/>
       <path d="M 19.671875 64.796875 
L 19.671875 8.109375 
L 31.59375 8.109375 
Q 46.6875 8.109375 53.6875 14.9375 
Q 60.6875 21.78125 60.6875 36.53125 
Q 60.6875 51.171875 53.6875 57.984375 
Q 46.6875 64.796875 31.59375 64.796875 
z
M 9.8125 72.90625 
L 30.078125 72.90625 
Q 51.265625 72.90625 61.171875 64.09375 
Q 71.09375 55.28125 71.09375 36.53125 
Q 71.09375 17.671875 61.125 8.828125 
Q 51.171875 0 30.078125 0 
L 9.8125 0 
z
" id="DejaVuSans-68"/>
       <path id="DejaVuSans-32"/>
       <path d="M 18.3125 70.21875 
L 18.3125 54.6875 
L 36.8125 54.6875 
L 36.8125 47.703125 
L 18.3125 47.703125 
L 18.3125 18.015625 
Q 18.3125 11.328125 20.140625 9.421875 
Q 21.96875 7.515625 27.59375 7.515625 
L 36.8125 7.515625 
L 36.8125 0 
L 27.59375 0 
Q 17.1875 0 13.234375 3.875 
Q 9.28125 7.765625 9.28125 18.015625 
L 9.28125 47.703125 
L 2.6875 47.703125 
L 2.6875 54.6875 
L 9.28125 54.6875 
L 9.28125 70.21875 
z
" id="DejaVuSans-116"/>
       <path d="M 34.28125 27.484375 
Q 23.390625 27.484375 19.1875 25 
Q 14.984375 22.515625 14.984375 16.5 
Q 14.984375 11.71875 18.140625 8.90625 
Q 21.296875 6.109375 26.703125 6.109375 
Q 34.1875 6.109375 38.703125 11.40625 
Q 43.21875 16.703125 43.21875 25.484375 
L 43.21875 27.484375 
z
M 52.203125 31.203125 
L 52.203125 0 
L 43.21875 0 
L 43.21875 8.296875 
Q 40.140625 3.328125 35.546875 0.953125 
Q 30.953125 -1.421875 24.3125 -1.421875 
Q 15.921875 -1.421875 10.953125 3.296875 
Q 6 8.015625 6 15.921875 
Q 6 25.140625 12.171875 29.828125 
Q 18.359375 34.515625 30.609375 34.515625 
L 43.21875 34.515625 
L 43.21875 35.40625 
Q 43.21875 41.609375 39.140625 45 
Q 35.0625 48.390625 27.6875 48.390625 
Q 23 48.390625 18.546875 47.265625 
Q 14.109375 46.140625 10.015625 43.890625 
L 10.015625 52.203125 
Q 14.9375 54.109375 19.578125 55.046875 
Q 24.21875 56 28.609375 56 
Q 40.484375 56 46.34375 49.84375 
Q 52.203125 43.703125 52.203125 31.203125 
z
" id="DejaVuSans-97"/>
       <path d="M 41.109375 46.296875 
Q 39.59375 47.171875 37.8125 47.578125 
Q 36.03125 48 33.890625 48 
Q 26.265625 48 22.1875 43.046875 
Q 18.109375 38.09375 18.109375 28.8125 
L 18.109375 0 
L 9.078125 0 
L 9.078125 54.6875 
L 18.109375 54.6875 
L 18.109375 46.1875 
Q 20.953125 51.171875 25.484375 53.578125 
Q 30.03125 56 36.53125 56 
Q 37.453125 56 38.578125 55.875 
Q 39.703125 55.765625 41.0625 55.515625 
z
" id="DejaVuSans-114"/>
       <path d="M -0.296875 72.90625 
L 61.375 72.90625 
L 61.375 64.59375 
L 35.5 64.59375 
L 35.5 0 
L 25.59375 0 
L 25.59375 64.59375 
L -0.296875 64.59375 
z
" id="DejaVuSans-84"/>
       <path d="M 9.421875 54.6875 
L 18.40625 54.6875 
L 18.40625 0 
L 9.421875 0 
z
M 9.421875 75.984375 
L 18.40625 75.984375 
L 18.40625 64.59375 
L 9.421875 64.59375 
z
" id="DejaVuSans-105"/>
       <path d="M 52 44.1875 
Q 55.375 50.25 60.0625 53.125 
Q 64.75 56 71.09375 56 
Q 79.640625 56 84.28125 50.015625 
Q 88.921875 44.046875 88.921875 33.015625 
L 88.921875 0 
L 79.890625 0 
L 79.890625 32.71875 
Q 79.890625 40.578125 77.09375 44.375 
Q 74.3125 48.1875 68.609375 48.1875 
Q 61.625 48.1875 57.5625 43.546875 
Q 53.515625 38.921875 53.515625 30.90625 
L 53.515625 0 
L 44.484375 0 
L 44.484375 32.71875 
Q 44.484375 40.625 41.703125 44.40625 
Q 38.921875 48.1875 33.109375 48.1875 
Q 26.21875 48.1875 22.15625 43.53125 
Q 18.109375 38.875 18.109375 30.90625 
L 18.109375 0 
L 9.078125 0 
L 9.078125 54.6875 
L 18.109375 54.6875 
L 18.109375 46.1875 
Q 21.1875 51.21875 25.484375 53.609375 
Q 29.78125 56 35.6875 56 
Q 41.65625 56 45.828125 52.96875 
Q 50 49.953125 52 44.1875 
z
" id="DejaVuSans-109"/>
       <path d="M 56.203125 29.59375 
L 56.203125 25.203125 
L 14.890625 25.203125 
Q 15.484375 15.921875 20.484375 11.0625 
Q 25.484375 6.203125 34.421875 6.203125 
Q 39.59375 6.203125 44.453125 7.46875 
Q 49.3125 8.734375 54.109375 11.28125 
L 54.109375 2.78125 
Q 49.265625 0.734375 44.1875 -0.34375 
Q 39.109375 -1.421875 33.890625 -1.421875 
Q 20.796875 -1.421875 13.15625 6.1875 
Q 5.515625 13.8125 5.515625 26.8125 
Q 5.515625 40.234375 12.765625 48.109375 
Q 20.015625 56 32.328125 56 
Q 43.359375 56 49.78125 48.890625 
Q 56.203125 41.796875 56.203125 29.59375 
z
M 47.21875 32.234375 
Q 47.125 39.59375 43.09375 43.984375 
Q 39.0625 48.390625 32.421875 48.390625 
Q 24.90625 48.390625 20.390625 44.140625 
Q 15.875 39.890625 15.1875 32.171875 
z
" id="DejaVuSans-101"/>
       <path d="M 44.28125 53.078125 
L 44.28125 44.578125 
Q 40.484375 46.53125 36.375 47.5 
Q 32.28125 48.484375 27.875 48.484375 
Q 21.1875 48.484375 17.84375 46.4375 
Q 14.5 44.390625 14.5 40.28125 
Q 14.5 37.15625 16.890625 35.375 
Q 19.28125 33.59375 26.515625 31.984375 
L 29.59375 31.296875 
Q 39.15625 29.25 43.1875 25.515625 
Q 47.21875 21.78125 47.21875 15.09375 
Q 47.21875 7.46875 41.1875 3.015625 
Q 35.15625 -1.421875 24.609375 -1.421875 
Q 20.21875 -1.421875 15.453125 -0.5625 
Q 10.6875 0.296875 5.421875 2 
L 5.421875 11.28125 
Q 10.40625 8.6875 15.234375 7.390625 
Q 20.0625 6.109375 24.8125 6.109375 
Q 31.15625 6.109375 34.5625 8.28125 
Q 37.984375 10.453125 37.984375 14.40625 
Q 37.984375 18.0625 35.515625 20.015625 
Q 33.0625 21.96875 24.703125 23.78125 
L 21.578125 24.515625 
Q 13.234375 26.265625 9.515625 29.90625 
Q 5.8125 33.546875 5.8125 39.890625 
Q 5.8125 47.609375 11.28125 51.796875 
Q 16.75 56 26.8125 56 
Q 31.78125 56 36.171875 55.265625 
Q 40.578125 54.546875 44.28125 53.078125 
z
" id="DejaVuSans-115"/>
       <path d="M 8.59375 75.984375 
L 29.296875 75.984375 
L 29.296875 69 
L 17.578125 69 
L 17.578125 -6.203125 
L 29.296875 -6.203125 
L 29.296875 -13.1875 
L 8.59375 -13.1875 
z
" id="DejaVuSans-91"/>
       <path d="M 45.40625 46.390625 
L 45.40625 75.984375 
L 54.390625 75.984375 
L 54.390625 0 
L 45.40625 0 
L 45.40625 8.203125 
Q 42.578125 3.328125 38.25 0.953125 
Q 33.9375 -1.421875 27.875 -1.421875 
Q 17.96875 -1.421875 11.734375 6.484375 
Q 5.515625 14.40625 5.515625 27.296875 
Q 5.515625 40.1875 11.734375 48.09375 
Q 17.96875 56 27.875 56 
Q 33.9375 56 38.25 53.625 
Q 42.578125 51.265625 45.40625 46.390625 
z
M 14.796875 27.296875 
Q 14.796875 17.390625 18.875 11.75 
Q 22.953125 6.109375 30.078125 6.109375 
Q 37.203125 6.109375 41.296875 11.75 
Q 45.40625 17.390625 45.40625 27.296875 
Q 45.40625 37.203125 41.296875 42.84375 
Q 37.203125 48.484375 30.078125 48.484375 
Q 22.953125 48.484375 18.875 42.84375 
Q 14.796875 37.203125 14.796875 27.296875 
z
" id="DejaVuSans-100"/>
       <path d="M 32.171875 -5.078125 
Q 28.375 -14.84375 24.75 -17.8125 
Q 21.140625 -20.796875 15.09375 -20.796875 
L 7.90625 -20.796875 
L 7.90625 -13.28125 
L 13.1875 -13.28125 
Q 16.890625 -13.28125 18.9375 -11.515625 
Q 21 -9.765625 23.484375 -3.21875 
L 25.09375 0.875 
L 2.984375 54.6875 
L 12.5 54.6875 
L 29.59375 11.921875 
L 46.6875 54.6875 
L 56.203125 54.6875 
z
" id="DejaVuSans-121"/>
       <path d="M 30.421875 75.984375 
L 30.421875 -13.1875 
L 9.71875 -13.1875 
L 9.71875 -6.203125 
L 21.390625 -6.203125 
L 21.390625 69 
L 9.71875 69 
L 9.71875 75.984375 
z
" id="DejaVuSans-93"/>
      </defs>
      <use xlink:href="#DejaVuSans-83"/>
      <use x="63.476562" xlink:href="#DejaVuSans-68"/>
      <use x="140.478516" xlink:href="#DejaVuSans-32"/>
      <use x="172.265625" xlink:href="#DejaVuSans-83"/>
      <use x="235.742188" xlink:href="#DejaVuSans-116"/>
      <use x="274.951172" xlink:href="#DejaVuSans-97"/>
      <use x="336.230469" xlink:href="#DejaVuSans-114"/>
      <use x="377.34375" xlink:href="#DejaVuSans-116"/>
      <use x="416.552734" xlink:href="#DejaVuSans-32"/>
      <use x="448.339844" xlink:href="#DejaVuSans-84"/>
      <use x="506.298828" xlink:href="#DejaVuSans-105"/>
      <use x="534.082031" xlink:href="#DejaVuSans-109"/>
      <use x="631.494141" xlink:href="#DejaVuSans-101"/>
      <use x="693.017578" xlink:href="#DejaVuSans-32"/>
      <use x="724.804688" xlink:href="#DejaVuSans-116"/>
      <use x="764.013672" xlink:href="#DejaVuSans-115"/>
      <use x="816.113281" xlink:href="#DejaVuSans-32"/>
      <use x="847.900391" xlink:href="#DejaVuSans-91"/>
      <use x="886.914062" xlink:href="#DejaVuSans-100"/>
      <use x="950.390625" xlink:href="#DejaVuSans-97"/>
      <use x="1011.669922" xlink:href="#DejaVuSans-121"/>
      <use x="1070.849609" xlink:href="#DejaVuSans-115"/>
      <use x="1122.949219" xlink:href="#DejaVuSans-93"/>
     </g>
    </g>
   </g>
   <g id="matplotlib.axis_2">
    <g id="ytick_1">
     <g id="line2d_11">
      <path clip-path="url(#pf71e5c0bae)" d="M 59.906697 229.250221 
L 409.322835 229.250221 
" style="fill:none;stroke:#000000;stroke-linecap:square;stroke-opacity:0.1;stroke-width:0.5;"/>
     </g>
     <g id="line2d_12">
      <defs>
       <path d="M 0 0 
L 2.5 0 
" id="mf4ad71e28b" style="stroke:#000000;stroke-width:0.5;"/>
      </defs>
      <g>
       <use style="stroke:#000000;stroke-width:0.5;" x="59.906697" xlink:href="#mf4ad71e28b" y="229.250221"/>
      </g>
     </g>
     <g id="text_7">
      <!-- $\mathregular{0}$ -->
      <g transform="translate(50.406697 233.363971)scale(0.12 -0.12)">
       <use transform="translate(0 0.8125)" xlink:href="#Times-Roman-48"/>
      </g>
     </g>
    </g>
    <g id="ytick_2">
     <g id="line2d_13">
      <path clip-path="url(#pf71e5c0bae)" d="M 59.906697 178.022321 
L 409.322835 178.022321 
" style="fill:none;stroke:#000000;stroke-linecap:square;stroke-opacity:0.1;stroke-width:0.5;"/>
     </g>
     <g id="line2d_14">
      <g>
       <use style="stroke:#000000;stroke-width:0.5;" x="59.906697" xlink:href="#mf4ad71e28b" y="178.022321"/>
      </g>
     </g>
     <g id="text_8">
      <!-- $\mathregular{50}$ -->
      <g transform="translate(44.406697 182.136071)scale(0.12 -0.12)">
       <use transform="translate(0 0.296875)" xlink:href="#Times-Roman-53"/>
       <use transform="translate(50 0.296875)" xlink:href="#Times-Roman-48"/>
      </g>
     </g>
    </g>
    <g id="ytick_3">
     <g id="line2d_15">
      <path clip-path="url(#pf71e5c0bae)" d="M 59.906697 126.79442 
L 409.322835 126.79442 
" style="fill:none;stroke:#000000;stroke-linecap:square;stroke-opacity:0.1;stroke-width:0.5;"/>
     </g>
     <g id="line2d_16">
      <g>
       <use style="stroke:#000000;stroke-width:0.5;" x="59.906697" xlink:href="#mf4ad71e28b" y="126.79442"/>
      </g>
     </g>
     <g id="text_9">
      <!-- $\mathregular{100}$ -->
      <g transform="translate(38.406697 130.90817)scale(0.12 -0.12)">
       <use transform="translate(0 0.8125)" xlink:href="#Times-Roman-49"/>
       <use transform="translate(50 0.8125)" xlink:href="#Times-Roman-48"/>
       <use transform="translate(100 0.8125)" xlink:href="#Times-Roman-48"/>
      </g>
     </g>
    </g>
    <g id="ytick_4">
     <g id="line2d_17">
      <path clip-path="url(#pf71e5c0bae)" d="M 59.906697 75.566519 
L 409.322835 75.566519 
" style="fill:none;stroke:#000000;stroke-linecap:square;stroke-opacity:0.1;stroke-width:0.5;"/>
     </g>
     <g id="line2d_18">
      <g>
       <use style="stroke:#000000;stroke-width:0.5;" x="59.906697" xlink:href="#mf4ad71e28b" y="75.566519"/>
      </g>
     </g>
     <g id="text_10">
      <!-- $\mathregular{150}$ -->
      <g transform="translate(38.406697 79.680269)scale(0.12 -0.12)">
       <use transform="translate(0 0.296875)" xlink:href="#Times-Roman-49"/>
       <use transform="translate(50 0.296875)" xlink:href="#Times-Roman-53"/>
       <use transform="translate(100 0.296875)" xlink:href="#Times-Roman-48"/>
      </g>
     </g>
    </g>
    <g id="text_11">
     <!-- SD Duration td [days] -->
     <g transform="translate(31.911072 202.254375)rotate(-90)scale(0.12 -0.12)">
      <defs>
       <path d="M 8.5 21.578125 
L 8.5 54.6875 
L 17.484375 54.6875 
L 17.484375 21.921875 
Q 17.484375 14.15625 20.5 10.265625 
Q 23.53125 6.390625 29.59375 6.390625 
Q 36.859375 6.390625 41.078125 11.03125 
Q 45.3125 15.671875 45.3125 23.6875 
L 45.3125 54.6875 
L 54.296875 54.6875 
L 54.296875 0 
L 45.3125 0 
L 45.3125 8.40625 
Q 42.046875 3.421875 37.71875 1 
Q 33.40625 -1.421875 27.6875 -1.421875 
Q 18.265625 -1.421875 13.375 4.4375 
Q 8.5 10.296875 8.5 21.578125 
z
M 31.109375 56 
z
" id="DejaVuSans-117"/>
       <path d="M 30.609375 48.390625 
Q 23.390625 48.390625 19.1875 42.75 
Q 14.984375 37.109375 14.984375 27.296875 
Q 14.984375 17.484375 19.15625 11.84375 
Q 23.34375 6.203125 30.609375 6.203125 
Q 37.796875 6.203125 41.984375 11.859375 
Q 46.1875 17.53125 46.1875 27.296875 
Q 46.1875 37.015625 41.984375 42.703125 
Q 37.796875 48.390625 30.609375 48.390625 
z
M 30.609375 56 
Q 42.328125 56 49.015625 48.375 
Q 55.71875 40.765625 55.71875 27.296875 
Q 55.71875 13.875 49.015625 6.21875 
Q 42.328125 -1.421875 30.609375 -1.421875 
Q 18.84375 -1.421875 12.171875 6.21875 
Q 5.515625 13.875 5.515625 27.296875 
Q 5.515625 40.765625 12.171875 48.375 
Q 18.84375 56 30.609375 56 
z
" id="DejaVuSans-111"/>
       <path d="M 54.890625 33.015625 
L 54.890625 0 
L 45.90625 0 
L 45.90625 32.71875 
Q 45.90625 40.484375 42.875 44.328125 
Q 39.84375 48.1875 33.796875 48.1875 
Q 26.515625 48.1875 22.3125 43.546875 
Q 18.109375 38.921875 18.109375 30.90625 
L 18.109375 0 
L 9.078125 0 
L 9.078125 54.6875 
L 18.109375 54.6875 
L 18.109375 46.1875 
Q 21.34375 51.125 25.703125 53.5625 
Q 30.078125 56 35.796875 56 
Q 45.21875 56 50.046875 50.171875 
Q 54.890625 44.34375 54.890625 33.015625 
z
" id="DejaVuSans-110"/>
      </defs>
      <use xlink:href="#DejaVuSans-83"/>
      <use x="63.476562" xlink:href="#DejaVuSans-68"/>
      <use x="140.478516" xlink:href="#DejaVuSans-32"/>
      <use x="172.265625" xlink:href="#DejaVuSans-68"/>
      <use x="249.267578" xlink:href="#DejaVuSans-117"/>
      <use x="312.646484" xlink:href="#DejaVuSans-114"/>
      <use x="353.759766" xlink:href="#DejaVuSans-97"/>
      <use x="415.039062" xlink:href="#DejaVuSans-116"/>
      <use x="454.248047" xlink:href="#DejaVuSans-105"/>
      <use x="482.03125" xlink:href="#DejaVuSans-111"/>
      <use x="543.212891" xlink:href="#DejaVuSans-110"/>
      <use x="606.591797" xlink:href="#DejaVuSans-32"/>
      <use x="638.378906" xlink:href="#DejaVuSans-116"/>
      <use x="677.587891" xlink:href="#DejaVuSans-100"/>
      <use x="741.064453" xlink:href="#DejaVuSans-32"/>
      <use x="772.851562" xlink:href="#DejaVuSans-91"/>
      <use x="811.865234" xlink:href="#DejaVuSans-100"/>
      <use x="875.341797" xlink:href="#DejaVuSans-97"/>
      <use x="936.621094" xlink:href="#DejaVuSans-121"/>
      <use x="995.800781" xlink:href="#DejaVuSans-115"/>
      <use x="1047.900391" xlink:href="#DejaVuSans-93"/>
     </g>
    </g>
   </g>
   <g id="LineCollection_1">
    <path clip-path="url(#pf71e5c0bae)" d="M 178.382726 44.829779 
L 178.382726 45.854337 
L 178.382726 46.878895 
L 178.382726 47.903453 
L 178.382726 48.928011 
L 178.382726 49.952569 
L 178.382726 50.977127 
L 178.382726 52.001685 
L 178.382726 53.026243 
L 178.382726 53.410452 
" style="fill:none;stroke:#fbfbff;"/>
    <path clip-path="url(#pf71e5c0bae)" d="M 178.382726 77.231426 
L 178.382726 208.759061 
L 177.208597 209.783619 
L 174.680608 209.882465 
L 174.276025 209.783619 
L 173.265541 208.759061 
L 164.620669 207.734503 
L 159.697069 207.559512 
L 157.64862 206.709945 
L 154.059892 205.685387 
L 144.713529 205.054992 
L 143.162618 204.660829 
L 141.037708 203.636271 
L 129.582137 202.611713 
L 127.144983 201.587155 
L 122.710122 200.562597 
L 114.746451 199.998663 
L 112.972243 199.538039 
L 110.668048 198.513481 
L 99.395052 197.488923 
L 96.86446 196.464365 
L 91.140915 195.439807 
L 84.779372 195.002045 
L 82.406048 194.415249 
L 78.805583 193.390691 
L 69.795833 192.715327 
L 69.795833 192.715327 
" style="fill:none;stroke:#fbfbff;"/>
   </g>
   <g id="LineCollection_2">
    <path clip-path="url(#pf71e5c0bae)" d="M 210.826853 44.829779 
L 210.826853 45.854337 
L 210.826853 46.878895 
L 210.826853 47.903453 
L 210.826853 48.928011 
L 210.826853 49.952569 
L 210.826853 50.977127 
L 210.826853 52.001685 
L 210.826853 53.026243 
L 210.826853 53.410452 
" style="fill:none;stroke:#dbdbff;"/>
    <path clip-path="url(#pf71e5c0bae)" d="M 210.826853 77.231426 
L 210.798405 214.906409 
L 208.485279 215.930967 
L 204.647687 216.44531 
L 201.205631 215.930967 
L 192.357897 214.906409 
L 189.664148 214.719116 
L 184.960353 213.881851 
L 178.387278 212.857293 
L 174.680608 212.400001 
L 165.774293 210.808177 
L 158.834632 209.783619 
L 153.357326 208.759061 
L 140.951212 206.709945 
L 135.184518 205.685387 
L 128.51396 204.660829 
L 123.020981 203.636271 
L 110.684632 201.587155 
L 104.868007 200.562597 
L 98.203072 199.538039 
L 92.474457 198.513481 
L 69.795833 195.035492 
L 69.795833 195.035492 
" style="fill:none;stroke:#dbdbff;"/>
   </g>
   <g id="LineCollection_3">
    <path clip-path="url(#pf71e5c0bae)" d="M 223.097318 44.829779 
L 223.097318 45.854337 
L 223.097318 46.878895 
L 223.097318 47.903453 
L 223.097318 48.928011 
L 223.097318 49.952569 
L 223.097318 50.977127 
L 223.097318 52.001685 
L 223.097318 53.026243 
L 223.097318 54.050801 
L 223.097318 55.075359 
L 223.097318 56.099917 
L 223.097318 57.124475 
L 223.097318 58.149033 
L 223.097318 59.173591 
L 223.097318 60.198149 
L 223.097318 61.222707 
L 223.097318 62.247265 
L 223.097318 63.271823 
L 223.097318 64.296381 
L 223.097318 65.320939 
L 223.097318 66.345497 
L 223.097318 67.370055 
L 223.097318 68.394613 
L 223.097318 69.419171 
L 223.097318 70.443729 
L 223.097318 71.468287 
L 223.097318 72.492845 
L 223.097318 73.517403 
L 223.097318 74.541961 
L 223.097318 75.566519 
L 223.097318 76.591077 
L 223.097318 77.615635 
L 223.097318 78.640193 
L 223.097318 79.664751 
L 223.097318 80.689309 
L 223.097318 81.713867 
L 223.097318 82.738425 
L 223.097318 83.762983 
L 223.097318 84.787541 
L 223.097318 85.812099 
L 223.097318 86.836657 
L 223.097318 87.861215 
L 223.097318 88.885773 
L 223.097318 89.910331 
L 223.097318 90.934889 
L 223.097318 91.959447 
L 223.097318 92.984005 
L 223.097318 94.008563 
L 223.097318 95.033121 
L 223.097318 95.417331 
" style="fill:none;stroke:#babaff;"/>
    <path clip-path="url(#pf71e5c0bae)" d="M 223.097318 119.238304 
L 223.097318 216.955525 
L 222.765708 217.980083 
L 220.32941 219.004641 
L 219.631226 219.152183 
L 217.500089 219.004641 
L 204.647687 218.382506 
L 194.526721 216.955525 
L 189.664148 216.380979 
L 180.723997 214.906409 
L 173.88458 213.881851 
L 161.719964 211.832735 
L 155.605609 210.808177 
L 131.305511 206.709945 
L 125.297527 205.685387 
L 99.762911 201.398093 
L 84.779372 198.940205 
L 69.795833 196.627023 
L 69.795833 196.627023 
" style="fill:none;stroke:#babaff;"/>
   </g>
   <g id="LineCollection_4">
    <path clip-path="url(#pf71e5c0bae)" d="M 231.937461 44.829779 
L 231.937461 45.854337 
L 231.937461 46.878895 
L 231.937461 47.903453 
L 231.937461 48.928011 
L 231.937461 49.952569 
L 231.937461 50.977127 
L 231.937461 52.001685 
L 231.937461 53.026243 
L 231.937461 54.050801 
L 231.937461 55.075359 
L 231.937461 56.099917 
L 231.937461 57.124475 
L 231.937461 58.149033 
L 231.937461 59.173591 
L 231.937461 60.198149 
L 231.937461 61.222707 
L 231.937461 62.247265 
L 231.937461 63.271823 
L 231.937461 64.296381 
L 231.937461 65.320939 
L 231.937461 66.345497 
L 231.937461 67.370055 
L 231.937461 68.394613 
L 231.937461 69.419171 
L 231.937461 70.443729 
L 231.937461 71.468287 
L 231.937461 72.492845 
L 231.937461 73.517403 
L 231.937461 74.541961 
L 231.937461 75.566519 
L 231.937461 76.591077 
L 231.937461 77.615635 
L 231.937461 78.640193 
L 231.937461 79.664751 
L 231.937461 80.689309 
L 231.937461 81.713867 
L 231.937461 82.738425 
L 231.937461 83.762983 
L 231.937461 84.787541 
L 231.937461 85.812099 
L 231.937461 86.836657 
L 231.937461 87.861215 
L 231.937461 88.885773 
L 231.937461 89.910331 
L 231.937461 90.934889 
L 231.937461 91.959447 
L 231.937461 92.984005 
L 231.937461 94.008563 
L 231.937461 95.033121 
L 231.937461 96.057679 
L 231.937461 97.082237 
L 231.937461 98.106795 
L 231.937461 99.131353 
L 231.937461 100.155911 
L 231.937461 101.180469 
L 231.937461 102.205027 
L 231.937461 103.229585 
L 231.937461 104.254144 
L 231.937461 105.278702 
L 231.937461 106.30326 
L 231.937461 107.327818 
L 231.937461 108.352376 
L 231.937461 109.376934 
L 231.937461 110.401492 
L 231.937461 111.42605 
L 231.937461 112.450608 
L 231.937461 113.475166 
L 231.937461 114.499724 
L 231.937461 115.524282 
L 231.937461 116.54884 
L 231.937461 117.573398 
L 231.937461 118.597956 
L 231.937461 119.622514 
L 231.937461 120.647072 
L 231.937461 121.67163 
L 231.937461 122.696188 
L 231.937461 123.720746 
L 231.937461 124.745304 
L 231.937461 125.769862 
L 231.937461 126.79442 
L 231.937461 127.818978 
L 231.937461 128.843536 
L 231.937461 129.868094 
L 231.937461 130.892652 
L 231.937461 131.91721 
L 231.937461 132.941768 
L 231.937461 133.966326 
L 231.937461 134.990884 
L 231.937461 136.015442 
L 231.937461 137.04 
L 231.937461 137.424209 
" style="fill:none;stroke:#9999ff;"/>
    <path clip-path="url(#pf71e5c0bae)" d="M 231.937461 161.245183 
L 231.937461 161.629392 
L 231.937461 162.65395 
L 231.937461 163.678508 
L 231.937461 164.703066 
L 231.937461 165.727624 
L 231.937461 166.752182 
L 231.937461 167.77674 
L 231.937461 168.801298 
L 231.937461 169.825856 
L 231.937461 170.850415 
L 231.937461 171.874973 
L 231.937461 172.899531 
L 231.937461 173.924089 
L 231.937461 174.948647 
L 231.937461 175.973205 
L 231.937461 176.997763 
L 231.937461 178.022321 
L 231.937461 179.046879 
L 231.937461 180.071437 
L 231.937461 181.095995 
L 231.937461 182.120553 
L 231.937461 183.145111 
L 231.937461 184.169669 
L 231.937461 185.194227 
L 231.937461 186.218785 
L 231.937461 187.243343 
L 231.937461 188.267901 
L 231.937461 189.292459 
L 231.937461 190.317017 
L 231.937461 191.341575 
L 231.937461 192.366133 
L 231.937461 193.390691 
L 231.937461 194.415249 
L 231.937461 195.439807 
L 231.937461 196.464365 
L 231.937461 197.488923 
L 231.937461 198.513481 
L 231.937461 199.538039 
L 231.937461 200.562597 
L 231.937461 201.587155 
L 231.937461 202.611713 
L 231.937461 203.636271 
L 231.937461 204.660829 
L 231.937461 205.685387 
L 231.937461 206.709945 
L 231.937461 207.734503 
L 231.937461 208.759061 
L 231.937461 209.783619 
L 231.937461 210.808177 
L 231.937461 211.832735 
L 231.937461 212.857293 
L 231.937461 213.881851 
L 231.937461 214.906409 
L 231.937461 215.930967 
L 231.937461 216.955525 
L 231.860377 217.980083 
L 231.294043 219.004641 
L 229.66757 220.029199 
L 221.575848 221.053757 
L 219.631226 221.165756 
L 218.439896 221.053757 
L 206.2692 220.029199 
L 204.647687 219.917438 
L 198.292546 219.004641 
L 190.78929 217.980083 
L 189.664148 217.835987 
L 184.201275 216.955525 
L 177.840346 215.930967 
L 174.680608 215.446493 
L 171.415209 214.906409 
L 165.372821 213.881851 
L 159.697069 212.955107 
L 159.104526 212.857293 
L 153.08596 211.832735 
L 147.051777 210.808177 
L 144.713529 210.426694 
L 140.892839 209.783619 
L 134.949137 208.759061 
L 129.72999 207.891412 
L 128.783441 207.734503 
L 122.790352 206.709945 
L 116.761408 205.685387 
L 114.746451 205.355718 
L 110.618682 204.660829 
L 104.663887 203.636271 
L 99.762911 202.823463 
L 98.449273 202.611713 
L 92.274079 201.587155 
L 86.018173 200.562597 
L 84.779372 200.366433 
L 79.428522 199.538039 
L 72.870687 198.513481 
L 69.795833 198.048837 
" style="fill:none;stroke:#9999ff;"/>
   </g>
   <g id="LineCollection_5">
    <path clip-path="url(#pf71e5c0bae)" d="M 240.601801 44.829779 
L 240.601801 45.854337 
L 240.601801 46.878895 
L 240.601801 47.903453 
L 240.601801 48.928011 
L 240.601801 49.952569 
L 240.601801 50.977127 
L 240.601801 52.001685 
L 240.601801 53.026243 
L 240.601801 53.410452 
" style="fill:none;stroke:#7878ff;"/>
    <path clip-path="url(#pf71e5c0bae)" d="M 240.601801 77.231426 
L 240.583735 220.029199 
L 239.69762 221.053757 
L 237.129797 222.078315 
L 234.614766 222.57103 
L 219.631226 222.738989 
L 202.537077 221.053757 
L 188.120191 219.004641 
L 168.982336 215.930967 
L 99.762911 204.224064 
L 69.795833 199.447038 
L 69.795833 199.447038 
" style="fill:none;stroke:#7878ff;"/>
   </g>
   <g id="LineCollection_6">
    <path clip-path="url(#pf71e5c0bae)" d="M 249.189767 44.829779 
L 249.189767 179.431088 
L 249.189767 179.431088 
" style="fill:none;stroke:#5757ff;"/>
    <path clip-path="url(#pf71e5c0bae)" d="M 249.189767 203.252062 
L 249.189767 203.636271 
L 249.189767 204.660829 
L 249.189767 205.685387 
L 249.189767 206.709945 
L 249.189767 207.734503 
L 249.189767 208.759061 
L 249.189767 209.783619 
L 249.189767 210.808177 
L 249.189767 211.832735 
L 249.189767 212.857293 
L 249.189767 213.881851 
L 249.189767 214.906409 
L 249.189767 215.930967 
L 249.189767 216.955525 
L 249.189767 217.980083 
L 249.189767 219.004641 
L 249.188946 220.029199 
L 249.148707 221.053757 
L 248.921974 222.078315 
L 246.644584 223.102873 
L 239.855087 224.127431 
L 234.614766 224.542313 
L 219.631226 224.215393 
L 218.666441 224.127431 
L 208.009486 223.102873 
L 204.647687 222.780293 
L 199.205003 222.078315 
L 192.086928 221.053757 
L 189.664148 220.70216 
L 185.016536 220.029199 
L 178.687135 219.004641 
L 174.680608 218.328525 
L 172.346136 217.980083 
L 166.008035 216.955525 
L 160.257126 215.930967 
L 159.697069 215.833732 
L 153.703233 214.906409 
L 147.856402 213.881851 
L 144.713529 213.319382 
L 141.693453 212.857293 
L 135.55871 211.832735 
L 129.93906 210.808177 
L 129.72999 210.771261 
L 123.383926 209.783619 
L 117.589291 208.759061 
L 114.746451 208.249585 
L 111.384431 207.734503 
L 105.287493 206.709945 
L 99.762911 205.70327 
L 99.641324 205.685387 
L 92.911846 204.660829 
L 86.965926 203.636271 
L 84.779372 203.2589 
L 80.251129 202.611713 
L 73.739885 201.587155 
L 69.795833 200.942136 
" style="fill:none;stroke:#5757ff;"/>
   </g>
   <g id="LineCollection_7">
    <path clip-path="url(#pf71e5c0bae)" d="M 261.334679 44.829779 
L 261.334679 45.854337 
L 261.334679 46.878895 
L 261.334679 47.903453 
L 261.334679 48.928011 
L 261.334679 49.952569 
L 261.334679 50.977127 
L 261.334679 52.001685 
L 261.334679 53.026243 
L 261.334679 54.050801 
L 261.334679 55.075359 
L 261.334679 56.099917 
L 261.334679 57.124475 
L 261.334679 58.149033 
L 261.334679 59.173591 
L 261.334679 60.198149 
L 261.334679 61.222707 
L 261.334679 62.247265 
L 261.334679 63.271823 
L 261.334679 64.296381 
L 261.334679 65.320939 
L 261.334679 66.345497 
L 261.334679 67.370055 
L 261.334679 68.394613 
L 261.334679 69.419171 
L 261.334679 70.443729 
L 261.334679 71.468287 
L 261.334679 72.492845 
L 261.334679 73.517403 
L 261.334679 74.541961 
L 261.334679 75.566519 
L 261.334679 76.591077 
L 261.334679 77.615635 
L 261.334679 78.640193 
L 261.334679 79.664751 
L 261.334679 80.689309 
L 261.334679 81.713867 
L 261.334679 82.738425 
L 261.334679 83.762983 
L 261.334679 84.787541 
L 261.334679 85.812099 
L 261.334679 86.836657 
L 261.334679 87.861215 
L 261.334679 88.885773 
L 261.334679 89.910331 
L 261.334679 90.934889 
L 261.334679 91.959447 
L 261.334679 92.984005 
L 261.334679 94.008563 
L 261.334679 95.033121 
L 261.334679 95.417331 
" style="fill:none;stroke:#3636ff;"/>
    <path clip-path="url(#pf71e5c0bae)" d="M 261.334679 119.238304 
L 261.308341 222.078315 
L 260.906514 223.102873 
L 259.171415 224.127431 
L 254.218998 225.151989 
L 249.598305 225.647605 
L 234.614766 226.223884 
L 219.631226 225.741859 
L 204.647687 224.387542 
L 202.317915 224.127431 
L 187.185859 222.078315 
L 180.245028 221.053757 
L 174.471161 220.029199 
L 167.373246 219.004641 
L 159.697069 217.610759 
L 155.152044 216.955525 
L 81.979118 204.660829 
L 75.116749 203.636271 
L 69.795833 202.706333 
L 69.795833 202.706333 
" style="fill:none;stroke:#3636ff;"/>
   </g>
   <g id="LineCollection_8">
    <path clip-path="url(#pf71e5c0bae)" d="M 281.293301 44.829779 
L 281.293301 45.854337 
L 281.293301 46.878895 
L 281.293301 47.903453 
L 281.293301 48.928011 
L 281.293301 49.952569 
L 281.293301 50.977127 
L 281.293301 52.001685 
L 281.293301 53.026243 
L 281.293301 53.410452 
" style="fill:none;stroke:#1515ff;"/>
    <path clip-path="url(#pf71e5c0bae)" d="M 281.293301 77.231426 
L 281.293301 224.127431 
L 280.30082 225.151989 
L 276.664425 226.176547 
L 264.581844 227.287748 
L 249.598305 227.839977 
L 234.614766 227.929468 
L 219.631226 227.546182 
L 213.519793 227.201105 
L 200.412752 226.176547 
L 183.128968 224.127431 
L 174.680608 222.735606 
L 169.485945 222.078315 
L 163.178727 221.053757 
L 159.697069 220.343217 
L 157.299346 220.029199 
L 150.385384 219.004641 
L 144.713529 217.841203 
L 138.163354 216.955525 
L 126.525125 214.906409 
L 119.951622 213.881851 
L 114.746451 212.780093 
L 107.784916 211.832735 
L 99.762911 210.27646 
L 96.034703 209.783619 
L 89.462716 208.759061 
L 84.352128 207.734503 
L 76.516823 206.709945 
L 69.795833 205.489771 
L 69.795833 205.489771 
" style="fill:none;stroke:#1515ff;"/>
   </g>
   <g id="LineCollection_9"/>
   <g id="line2d_19">
    <path clip-path="url(#pf71e5c0bae)" d="M 99.762911 187.253487 
L 114.746451 190.053269 
L 129.72999 192.853051 
L 144.713529 195.652834 
L 159.697069 198.452616 
L 174.680608 201.252398 
L 189.664148 204.052181 
L 204.647687 206.851963 
L 219.631226 209.651745 
L 234.614766 212.451528 
L 249.598305 215.25131 
L 264.581844 218.051092 
L 279.565384 220.850874 
L 294.548923 223.650657 
L 309.532462 226.450439 
L 324.516002 229.250221 
" style="fill:none;stroke:#e36f47;stroke-dasharray:22.2,9.6;stroke-dashoffset:0;stroke-width:6;"/>
   </g>
   <g id="patch_3">
    <path d="M 59.906697 234.782835 
L 59.906697 39.297165 
" style="fill:none;stroke:#000000;stroke-linecap:square;stroke-linejoin:miter;"/>
   </g>
   <g id="patch_4">
    <path d="M 59.906697 234.782835 
L 409.322835 234.782835 
" style="fill:none;stroke:#000000;stroke-linecap:square;stroke-linejoin:miter;"/>
   </g>
   <g id="text_12">
    <g clip-path="url(#pf71e5c0bae)">
     <!-- 0.370 -->
     <g style="fill:#fbfbff;" transform="translate(175.623351 51.006876)rotate(-270)scale(0.1 -0.1)">
      <defs>
       <path d="M 31.78125 66.40625 
Q 24.171875 66.40625 20.328125 58.90625 
Q 16.5 51.421875 16.5 36.375 
Q 16.5 21.390625 20.328125 13.890625 
Q 24.171875 6.390625 31.78125 6.390625 
Q 39.453125 6.390625 43.28125 13.890625 
Q 47.125 21.390625 47.125 36.375 
Q 47.125 51.421875 43.28125 58.90625 
Q 39.453125 66.40625 31.78125 66.40625 
z
M 31.78125 74.21875 
Q 44.046875 74.21875 50.515625 64.515625 
Q 56.984375 54.828125 56.984375 36.375 
Q 56.984375 17.96875 50.515625 8.265625 
Q 44.046875 -1.421875 31.78125 -1.421875 
Q 19.53125 -1.421875 13.0625 8.265625 
Q 6.59375 17.96875 6.59375 36.375 
Q 6.59375 54.828125 13.0625 64.515625 
Q 19.53125 74.21875 31.78125 74.21875 
z
" id="DejaVuSans-48"/>
       <path d="M 10.6875 12.40625 
L 21 12.40625 
L 21 0 
L 10.6875 0 
z
" id="DejaVuSans-46"/>
       <path d="M 40.578125 39.3125 
Q 47.65625 37.796875 51.625 33 
Q 55.609375 28.21875 55.609375 21.1875 
Q 55.609375 10.40625 48.1875 4.484375 
Q 40.765625 -1.421875 27.09375 -1.421875 
Q 22.515625 -1.421875 17.65625 -0.515625 
Q 12.796875 0.390625 7.625 2.203125 
L 7.625 11.71875 
Q 11.71875 9.328125 16.59375 8.109375 
Q 21.484375 6.890625 26.8125 6.890625 
Q 36.078125 6.890625 40.9375 10.546875 
Q 45.796875 14.203125 45.796875 21.1875 
Q 45.796875 27.640625 41.28125 31.265625 
Q 36.765625 34.90625 28.71875 34.90625 
L 20.21875 34.90625 
L 20.21875 43.015625 
L 29.109375 43.015625 
Q 36.375 43.015625 40.234375 45.921875 
Q 44.09375 48.828125 44.09375 54.296875 
Q 44.09375 59.90625 40.109375 62.90625 
Q 36.140625 65.921875 28.71875 65.921875 
Q 24.65625 65.921875 20.015625 65.03125 
Q 15.375 64.15625 9.8125 62.3125 
L 9.8125 71.09375 
Q 15.4375 72.65625 20.34375 73.4375 
Q 25.25 74.21875 29.59375 74.21875 
Q 40.828125 74.21875 47.359375 69.109375 
Q 53.90625 64.015625 53.90625 55.328125 
Q 53.90625 49.265625 50.4375 45.09375 
Q 46.96875 40.921875 40.578125 39.3125 
z
" id="DejaVuSans-51"/>
       <path d="M 8.203125 72.90625 
L 55.078125 72.90625 
L 55.078125 68.703125 
L 28.609375 0 
L 18.3125 0 
L 43.21875 64.59375 
L 8.203125 64.59375 
z
" id="DejaVuSans-55"/>
      </defs>
      <use xlink:href="#DejaVuSans-48"/>
      <use x="63.623047" xlink:href="#DejaVuSans-46"/>
      <use x="95.410156" xlink:href="#DejaVuSans-51"/>
      <use x="159.033203" xlink:href="#DejaVuSans-55"/>
      <use x="222.65625" xlink:href="#DejaVuSans-48"/>
     </g>
    </g>
   </g>
   <g id="text_13">
    <g clip-path="url(#pf71e5c0bae)">
     <!-- 0.379 -->
     <g style="fill:#dbdbff;" transform="translate(208.067478 51.006876)rotate(-270)scale(0.1 -0.1)">
      <defs>
       <path d="M 10.984375 1.515625 
L 10.984375 10.5 
Q 14.703125 8.734375 18.5 7.8125 
Q 22.3125 6.890625 25.984375 6.890625 
Q 35.75 6.890625 40.890625 13.453125 
Q 46.046875 20.015625 46.78125 33.40625 
Q 43.953125 29.203125 39.59375 26.953125 
Q 35.25 24.703125 29.984375 24.703125 
Q 19.046875 24.703125 12.671875 31.3125 
Q 6.296875 37.9375 6.296875 49.421875 
Q 6.296875 60.640625 12.9375 67.421875 
Q 19.578125 74.21875 30.609375 74.21875 
Q 43.265625 74.21875 49.921875 64.515625 
Q 56.59375 54.828125 56.59375 36.375 
Q 56.59375 19.140625 48.40625 8.859375 
Q 40.234375 -1.421875 26.421875 -1.421875 
Q 22.703125 -1.421875 18.890625 -0.6875 
Q 15.09375 0.046875 10.984375 1.515625 
z
M 30.609375 32.421875 
Q 37.25 32.421875 41.125 36.953125 
Q 45.015625 41.5 45.015625 49.421875 
Q 45.015625 57.28125 41.125 61.84375 
Q 37.25 66.40625 30.609375 66.40625 
Q 23.96875 66.40625 20.09375 61.84375 
Q 16.21875 57.28125 16.21875 49.421875 
Q 16.21875 41.5 20.09375 36.953125 
Q 23.96875 32.421875 30.609375 32.421875 
z
" id="DejaVuSans-57"/>
      </defs>
      <use xlink:href="#DejaVuSans-48"/>
      <use x="63.623047" xlink:href="#DejaVuSans-46"/>
      <use x="95.410156" xlink:href="#DejaVuSans-51"/>
      <use x="159.033203" xlink:href="#DejaVuSans-55"/>
      <use x="222.65625" xlink:href="#DejaVuSans-57"/>
     </g>
    </g>
   </g>
   <g id="text_14">
    <g clip-path="url(#pf71e5c0bae)">
     <!-- 0.388 -->
     <g style="fill:#babaff;" transform="translate(220.337943 93.013755)rotate(-270)scale(0.1 -0.1)">
      <defs>
       <path d="M 31.78125 34.625 
Q 24.75 34.625 20.71875 30.859375 
Q 16.703125 27.09375 16.703125 20.515625 
Q 16.703125 13.921875 20.71875 10.15625 
Q 24.75 6.390625 31.78125 6.390625 
Q 38.8125 6.390625 42.859375 10.171875 
Q 46.921875 13.96875 46.921875 20.515625 
Q 46.921875 27.09375 42.890625 30.859375 
Q 38.875 34.625 31.78125 34.625 
z
M 21.921875 38.8125 
Q 15.578125 40.375 12.03125 44.71875 
Q 8.5 49.078125 8.5 55.328125 
Q 8.5 64.0625 14.71875 69.140625 
Q 20.953125 74.21875 31.78125 74.21875 
Q 42.671875 74.21875 48.875 69.140625 
Q 55.078125 64.0625 55.078125 55.328125 
Q 55.078125 49.078125 51.53125 44.71875 
Q 48 40.375 41.703125 38.8125 
Q 48.828125 37.15625 52.796875 32.3125 
Q 56.78125 27.484375 56.78125 20.515625 
Q 56.78125 9.90625 50.3125 4.234375 
Q 43.84375 -1.421875 31.78125 -1.421875 
Q 19.734375 -1.421875 13.25 4.234375 
Q 6.78125 9.90625 6.78125 20.515625 
Q 6.78125 27.484375 10.78125 32.3125 
Q 14.796875 37.15625 21.921875 38.8125 
z
M 18.3125 54.390625 
Q 18.3125 48.734375 21.84375 45.5625 
Q 25.390625 42.390625 31.78125 42.390625 
Q 38.140625 42.390625 41.71875 45.5625 
Q 45.3125 48.734375 45.3125 54.390625 
Q 45.3125 60.0625 41.71875 63.234375 
Q 38.140625 66.40625 31.78125 66.40625 
Q 25.390625 66.40625 21.84375 63.234375 
Q 18.3125 60.0625 18.3125 54.390625 
z
" id="DejaVuSans-56"/>
      </defs>
      <use xlink:href="#DejaVuSans-48"/>
      <use x="63.623047" xlink:href="#DejaVuSans-46"/>
      <use x="95.410156" xlink:href="#DejaVuSans-51"/>
      <use x="159.033203" xlink:href="#DejaVuSans-56"/>
      <use x="222.65625" xlink:href="#DejaVuSans-56"/>
     </g>
    </g>
   </g>
   <g id="text_15">
    <g clip-path="url(#pf71e5c0bae)">
     <!-- 0.396 -->
     <g style="fill:#9999ff;" transform="translate(229.178086 135.020634)rotate(-270)scale(0.1 -0.1)">
      <defs>
       <path d="M 33.015625 40.375 
Q 26.375 40.375 22.484375 35.828125 
Q 18.609375 31.296875 18.609375 23.390625 
Q 18.609375 15.53125 22.484375 10.953125 
Q 26.375 6.390625 33.015625 6.390625 
Q 39.65625 6.390625 43.53125 10.953125 
Q 47.40625 15.53125 47.40625 23.390625 
Q 47.40625 31.296875 43.53125 35.828125 
Q 39.65625 40.375 33.015625 40.375 
z
M 52.59375 71.296875 
L 52.59375 62.3125 
Q 48.875 64.0625 45.09375 64.984375 
Q 41.3125 65.921875 37.59375 65.921875 
Q 27.828125 65.921875 22.671875 59.328125 
Q 17.53125 52.734375 16.796875 39.40625 
Q 19.671875 43.65625 24.015625 45.921875 
Q 28.375 48.1875 33.59375 48.1875 
Q 44.578125 48.1875 50.953125 41.515625 
Q 57.328125 34.859375 57.328125 23.390625 
Q 57.328125 12.15625 50.6875 5.359375 
Q 44.046875 -1.421875 33.015625 -1.421875 
Q 20.359375 -1.421875 13.671875 8.265625 
Q 6.984375 17.96875 6.984375 36.375 
Q 6.984375 53.65625 15.1875 63.9375 
Q 23.390625 74.21875 37.203125 74.21875 
Q 40.921875 74.21875 44.703125 73.484375 
Q 48.484375 72.75 52.59375 71.296875 
z
" id="DejaVuSans-54"/>
      </defs>
      <use xlink:href="#DejaVuSans-48"/>
      <use x="63.623047" xlink:href="#DejaVuSans-46"/>
      <use x="95.410156" xlink:href="#DejaVuSans-51"/>
      <use x="159.033203" xlink:href="#DejaVuSans-57"/>
      <use x="222.65625" xlink:href="#DejaVuSans-54"/>
     </g>
    </g>
   </g>
   <g id="text_16">
    <g clip-path="url(#pf71e5c0bae)">
     <!-- 0.405 -->
     <g style="fill:#7878ff;" transform="translate(237.842426 51.006876)rotate(-270)scale(0.1 -0.1)">
      <defs>
       <path d="M 37.796875 64.3125 
L 12.890625 25.390625 
L 37.796875 25.390625 
z
M 35.203125 72.90625 
L 47.609375 72.90625 
L 47.609375 25.390625 
L 58.015625 25.390625 
L 58.015625 17.1875 
L 47.609375 17.1875 
L 47.609375 0 
L 37.796875 0 
L 37.796875 17.1875 
L 4.890625 17.1875 
L 4.890625 26.703125 
z
" id="DejaVuSans-52"/>
       <path d="M 10.796875 72.90625 
L 49.515625 72.90625 
L 49.515625 64.59375 
L 19.828125 64.59375 
L 19.828125 46.734375 
Q 21.96875 47.46875 24.109375 47.828125 
Q 26.265625 48.1875 28.421875 48.1875 
Q 40.625 48.1875 47.75 41.5 
Q 54.890625 34.8125 54.890625 23.390625 
Q 54.890625 11.625 47.5625 5.09375 
Q 40.234375 -1.421875 26.90625 -1.421875 
Q 22.3125 -1.421875 17.546875 -0.640625 
Q 12.796875 0.140625 7.71875 1.703125 
L 7.71875 11.625 
Q 12.109375 9.234375 16.796875 8.0625 
Q 21.484375 6.890625 26.703125 6.890625 
Q 35.15625 6.890625 40.078125 11.328125 
Q 45.015625 15.765625 45.015625 23.390625 
Q 45.015625 31 40.078125 35.4375 
Q 35.15625 39.890625 26.703125 39.890625 
Q 22.75 39.890625 18.8125 39.015625 
Q 14.890625 38.140625 10.796875 36.28125 
z
" id="DejaVuSans-53"/>
      </defs>
      <use xlink:href="#DejaVuSans-48"/>
      <use x="63.623047" xlink:href="#DejaVuSans-46"/>
      <use x="95.410156" xlink:href="#DejaVuSans-52"/>
      <use x="159.033203" xlink:href="#DejaVuSans-48"/>
      <use x="222.65625" xlink:href="#DejaVuSans-53"/>
     </g>
    </g>
   </g>
   <g id="text_17">
    <g clip-path="url(#pf71e5c0bae)">
     <!-- 0.414 -->
     <g style="fill:#5757ff;" transform="translate(246.430392 177.027512)rotate(-270)scale(0.1 -0.1)">
      <defs>
       <path d="M 12.40625 8.296875 
L 28.515625 8.296875 
L 28.515625 63.921875 
L 10.984375 60.40625 
L 10.984375 69.390625 
L 28.421875 72.90625 
L 38.28125 72.90625 
L 38.28125 8.296875 
L 54.390625 8.296875 
L 54.390625 0 
L 12.40625 0 
z
" id="DejaVuSans-49"/>
      </defs>
      <use xlink:href="#DejaVuSans-48"/>
      <use x="63.623047" xlink:href="#DejaVuSans-46"/>
      <use x="95.410156" xlink:href="#DejaVuSans-52"/>
      <use x="159.033203" xlink:href="#DejaVuSans-49"/>
      <use x="222.65625" xlink:href="#DejaVuSans-52"/>
     </g>
    </g>
   </g>
   <g id="text_18">
    <g clip-path="url(#pf71e5c0bae)">
     <!-- 0.422 -->
     <g style="fill:#3636ff;" transform="translate(258.575304 93.013755)rotate(-270)scale(0.1 -0.1)">
      <defs>
       <path d="M 19.1875 8.296875 
L 53.609375 8.296875 
L 53.609375 0 
L 7.328125 0 
L 7.328125 8.296875 
Q 12.9375 14.109375 22.625 23.890625 
Q 32.328125 33.6875 34.8125 36.53125 
Q 39.546875 41.84375 41.421875 45.53125 
Q 43.3125 49.21875 43.3125 52.78125 
Q 43.3125 58.59375 39.234375 62.25 
Q 35.15625 65.921875 28.609375 65.921875 
Q 23.96875 65.921875 18.8125 64.3125 
Q 13.671875 62.703125 7.8125 59.421875 
L 7.8125 69.390625 
Q 13.765625 71.78125 18.9375 73 
Q 24.125 74.21875 28.421875 74.21875 
Q 39.75 74.21875 46.484375 68.546875 
Q 53.21875 62.890625 53.21875 53.421875 
Q 53.21875 48.921875 51.53125 44.890625 
Q 49.859375 40.875 45.40625 35.40625 
Q 44.1875 33.984375 37.640625 27.21875 
Q 31.109375 20.453125 19.1875 8.296875 
z
" id="DejaVuSans-50"/>
      </defs>
      <use xlink:href="#DejaVuSans-48"/>
      <use x="63.623047" xlink:href="#DejaVuSans-46"/>
      <use x="95.410156" xlink:href="#DejaVuSans-52"/>
      <use x="159.033203" xlink:href="#DejaVuSans-50"/>
      <use x="222.65625" xlink:href="#DejaVuSans-50"/>
     </g>
    </g>
   </g>
   <g id="text_19">
    <g clip-path="url(#pf71e5c0bae)">
     <!-- 0.431 -->
     <g style="fill:#1515ff;" transform="translate(278.533926 51.006876)rotate(-270)scale(0.1 -0.1)">
      <use xlink:href="#DejaVuSans-48"/>
      <use x="63.623047" xlink:href="#DejaVuSans-46"/>
      <use x="95.410156" xlink:href="#DejaVuSans-52"/>
      <use x="159.033203" xlink:href="#DejaVuSans-51"/>
      <use x="222.65625" xlink:href="#DejaVuSans-49"/>
     </g>
    </g>
   </g>
   <g id="text_20">
    <!-- Max(I) -->
    <g transform="translate(211.958516 33.297165)scale(0.16 -0.16)">
     <defs>
      <path d="M 1.125 1.8125 
Q 7.328125 2.4375 9.078125 4.609375 
Q 10.84375 6.78125 10.84375 14.703125 
L 10.84375 55.328125 
Q 10.84375 60.75 9.125 62.375 
Q 7.421875 64.015625 1.375 64.3125 
L 1.375 66.15625 
L 21.140625 66.15625 
L 44.28125 15.71875 
L 66.40625 66.15625 
L 86.328125 66.15625 
L 86.328125 64.3125 
Q 80.765625 63.921875 79.15625 62.28125 
Q 77.546875 60.640625 77.546875 55.328125 
L 77.546875 10.84375 
Q 77.546875 5.375 79.15625 3.828125 
Q 80.765625 2.296875 86.328125 1.8125 
L 86.328125 0 
L 58.296875 0 
L 58.296875 1.8125 
Q 64.359375 2.296875 65.84375 3.984375 
Q 67.328125 5.671875 67.328125 12.015625 
L 67.328125 56.9375 
L 41.75 0 
L 40.375 0 
L 15.234375 54.59375 
L 15.234375 14.703125 
Q 15.234375 6.5 17.625 4 
Q 19.1875 2.390625 24.609375 1.8125 
L 24.609375 0 
L 1.125 0 
z
" id="Times-Roman-77"/>
      <path d="M 28.65625 27.046875 
Q 23.046875 25.203125 19.390625 22.953125 
Q 12.359375 18.609375 12.359375 13.09375 
Q 12.359375 8.640625 15.28125 6.546875 
Q 17.1875 5.171875 19.53125 5.171875 
Q 22.75 5.171875 25.703125 6.984375 
Q 28.65625 8.796875 28.65625 11.578125 
z
M 3.65625 9.71875 
Q 3.65625 16.796875 10.75 21.53125 
Q 15.234375 24.46875 28.65625 29.5 
L 28.65625 33.640625 
Q 28.65625 38.625 27.6875 40.578125 
Q 26.03125 43.84375 20.796875 43.84375 
Q 18.3125 43.84375 16.0625 42.578125 
Q 13.8125 41.265625 13.8125 38.96875 
Q 13.8125 38.375 14.0625 36.984375 
Q 14.3125 35.59375 14.3125 35.203125 
Q 14.3125 32.46875 12.5 31.390625 
Q 11.46875 30.765625 10.0625 30.765625 
Q 7.859375 30.765625 6.6875 32.203125 
Q 5.515625 33.640625 5.515625 35.40625 
Q 5.515625 38.8125 9.734375 42.546875 
Q 13.96875 46.296875 22.125 46.296875 
Q 31.59375 46.296875 34.96875 40.140625 
Q 36.765625 36.765625 36.765625 30.328125 
L 36.765625 10.75 
Q 36.765625 7.90625 37.15625 6.84375 
Q 37.796875 4.9375 39.796875 4.9375 
Q 40.921875 4.9375 41.65625 5.265625 
Q 42.390625 5.609375 44.1875 6.9375 
L 44.1875 4.390625 
Q 42.625 2.484375 40.828125 1.265625 
Q 38.09375 -0.59375 35.25 -0.59375 
Q 31.9375 -0.59375 30.4375 1.5625 
Q 28.953125 3.71875 28.8125 6.6875 
Q 25.09375 3.46875 22.46875 1.90625 
Q 18.015625 -0.734375 14.015625 -0.734375 
Q 9.8125 -0.734375 6.734375 2.21875 
Q 3.65625 5.171875 3.65625 9.71875 
z
M 22.265625 46.296875 
z
" id="Times-Roman-97"/>
      <path d="M 23.140625 44.875 
L 23.140625 43.5 
Q 21.296875 43.453125 20 42.984375 
Q 18.703125 42.53125 18.703125 41.0625 
Q 18.703125 40.140625 21.296875 35.84375 
Q 22.65625 33.59375 24.75 30.328125 
Q 27.640625 34.28125 29.046875 36.53125 
Q 31.453125 40.140625 31.453125 41.21875 
Q 31.453125 42.484375 30.421875 42.921875 
Q 29.390625 43.359375 27.546875 43.5 
L 27.546875 44.875 
L 43.265625 44.875 
L 43.265625 43.5 
Q 40.765625 43.3125 38.609375 42.15625 
Q 36.46875 41.015625 35.15625 39.109375 
L 26.8125 27.046875 
L 39.703125 7.515625 
Q 42.1875 3.71875 43.921875 2.59375 
Q 45.65625 1.46875 47.90625 1.375 
L 47.90625 0 
L 27.734375 0 
L 27.734375 1.375 
L 29.15625 1.46875 
Q 30.28125 1.5625 31.03125 2.140625 
Q 31.78125 2.734375 31.78125 3.609375 
Q 31.78125 4.546875 29.9375 7.71875 
Q 29.046875 9.28125 27.296875 11.96875 
Q 26.46875 13.28125 24.828125 15.625 
Q 23.1875 17.96875 22.078125 19.625 
L 14.203125 7.375 
Q 12.796875 5.171875 12.453125 4.4375 
Q 12.109375 3.71875 12.109375 3.21875 
Q 12.109375 2.296875 12.859375 2 
Q 13.625 1.703125 16.15625 1.375 
L 16.15625 0 
L 1.703125 0 
L 1.703125 1.375 
Q 4.34375 1.90625 5.609375 2.734375 
Q 6.890625 3.5625 8.984375 6.59375 
L 20.359375 23.140625 
L 10.984375 37.359375 
Q 8.15625 41.609375 7.078125 42.390625 
Q 6 43.171875 2.390625 43.5 
L 2.390625 44.875 
z
" id="Times-Roman-120"/>
      <path d="M 4.59375 25.09375 
Q 4.59375 42.09375 14.75 54.9375 
Q 21 62.796875 29.5 67.578125 
L 30.421875 65.96875 
Q 22.5625 59.71875 19.1875 53.8125 
Q 13.28125 43.5 13.28125 26.375 
Q 13.28125 13.671875 15.53125 5.421875 
Q 19.484375 -9.03125 30.421875 -16.21875 
L 29.15625 -17.828125 
Q 23.140625 -14.9375 16.15625 -6.546875 
Q 4.59375 7.375 4.59375 25.09375 
z
" id="Times-Roman-40"/>
      <path d="M 1.609375 1.8125 
Q 7.71875 2.25 9.515625 3.640625 
Q 11.328125 5.03125 11.328125 10.84375 
L 11.328125 55.328125 
Q 11.328125 60.84375 9.515625 62.421875 
Q 7.71875 64.015625 1.609375 64.3125 
L 1.609375 66.15625 
L 31.203125 66.15625 
L 31.203125 64.3125 
Q 25.09375 64.015625 23.28125 62.421875 
Q 21.484375 60.84375 21.484375 55.328125 
L 21.484375 10.84375 
Q 21.484375 5.03125 23.28125 3.640625 
Q 25.09375 2.25 31.203125 1.8125 
L 31.203125 0 
L 1.609375 0 
z
M 16.40625 66.15625 
z
" id="Times-Roman-73"/>
      <path d="M 28.46875 24.609375 
Q 28.46875 17.328125 26.5625 10.828125 
Q 24.65625 4.34375 21 -1.421875 
Q 17.140625 -7.5625 10.6875 -12.890625 
Q 6.453125 -16.40625 3.5625 -17.828125 
L 2.640625 -16.21875 
Q 10.15625 -10.5 13.625 -4.546875 
Q 19.78125 6 19.78125 23.34375 
Q 19.78125 37.359375 16.9375 46.234375 
Q 12.984375 58.796875 2.640625 65.96875 
L 3.90625 67.578125 
Q 11.625 63.28125 18.265625 54.59375 
Q 28.46875 41.21875 28.46875 24.609375 
z
" id="Times-Roman-41"/>
     </defs>
     <use xlink:href="#Times-Roman-77"/>
     <use x="88.916016" xlink:href="#Times-Roman-97"/>
     <use x="133.300781" xlink:href="#Times-Roman-120"/>
     <use x="183.300781" xlink:href="#Times-Roman-40"/>
     <use x="216.601562" xlink:href="#Times-Roman-73"/>
     <use x="249.902344" xlink:href="#Times-Roman-41"/>
    </g>
   </g>
  </g>
 </g>
 <defs>
  <clipPath id="pf71e5c0bae">
   <rect height="195.485669" width="349.416138" x="59.906697" y="39.297165"/>
  </clipPath>
 </defs>
</svg>
