<?xml version="1.0" encoding="utf-8" standalone="no"?>
<!DOCTYPE svg PUBLIC "-//W3C//DTD SVG 1.1//EN"
  "http://www.w3.org/Graphics/SVG/1.1/DTD/svg11.dtd">
<!-- Created with matplotlib (https://matplotlib.org/) -->
<svg height="288pt" version="1.1" viewBox="0 0 432 288" width="432pt" xmlns="http://www.w3.org/2000/svg" xmlns:xlink="http://www.w3.org/1999/xlink">
 <metadata>
  <rdf:RDF xmlns:cc="http://creativecommons.org/ns#" xmlns:dc="http://purl.org/dc/elements/1.1/" xmlns:rdf="http://www.w3.org/1999/02/22-rdf-syntax-ns#">
   <cc:Work>
    <dc:type rdf:resource="http://purl.org/dc/dcmitype/StillImage"/>
    <dc:date>2021-04-05T21:31:42.776654</dc:date>
    <dc:format>image/svg+xml</dc:format>
    <dc:creator>
     <cc:Agent>
      <dc:title>Matplotlib v3.3.4, https://matplotlib.org/</dc:title>
     </cc:Agent>
    </dc:creator>
   </cc:Work>
  </rdf:RDF>
 </metadata>
 <defs>
  <style type="text/css">*{stroke-linecap:butt;stroke-linejoin:round;}</style>
 </defs>
 <g id="figure_1">
  <g id="patch_1">
   <path d="M 0 288 
L 432 288 
L 432 0 
L 0 0 
z
" style="fill:#ffffff;"/>
  </g>
  <g id="axes_1">
   <g id="patch_2">
    <path d="M 68.906345 234.782835 
L 409.322835 234.782835 
L 409.322835 40.917165 
L 68.906345 40.917165 
z
" style="fill:#ffffff;"/>
   </g>
   <g id="matplotlib.axis_1">
    <g id="xtick_1">
     <g id="line2d_1">
      <path clip-path="url(#pd3d07edb94)" d="M 71.986741 234.782835 
L 71.986741 40.917165 
" style="fill:none;stroke:#000000;stroke-linecap:square;stroke-opacity:0.1;stroke-width:0.5;"/>
     </g>
     <g id="line2d_2">
      <defs>
       <path d="M 0 0 
L 0 -2.5 
" id="mf8045baca9" style="stroke:#000000;stroke-width:0.5;"/>
      </defs>
      <g>
       <use style="stroke:#000000;stroke-width:0.5;" x="71.986741" xlink:href="#mf8045baca9" y="234.782835"/>
      </g>
     </g>
     <g id="text_1">
      <!-- $\mathregular{0}$ -->
      <g transform="translate(68.986741 246.510335)scale(0.12 -0.12)">
       <defs>
        <path d="M 23.921875 1.8125 
Q 31.109375 1.8125 33.78125 9.671875 
Q 36.46875 17.53125 36.46875 32.421875 
Q 36.46875 44.28125 34.859375 51.375 
Q 31.84375 64.546875 23.53125 64.546875 
Q 15.234375 64.546875 12.15625 50.984375 
Q 10.546875 43.75 10.546875 31.9375 
Q 10.546875 20.84375 12.203125 14.203125 
Q 15.328125 1.8125 23.921875 1.8125 
z
M 23.78125 67.1875 
Q 35.015625 67.1875 41.21875 55.421875 
Q 46.140625 45.90625 46.140625 33.546875 
Q 46.140625 23.828125 43.109375 15.234375 
Q 37.40625 -0.921875 23.34375 -0.921875 
Q 13.71875 -0.921875 7.515625 7.8125 
Q 0.875 17.140625 0.875 33.15625 
Q 0.875 45.75 5.328125 54.828125 
Q 11.328125 67.1875 23.78125 67.1875 
z
" id="Times-Roman-48"/>
       </defs>
       <use transform="translate(0 0.8125)" xlink:href="#Times-Roman-48"/>
      </g>
     </g>
    </g>
    <g id="xtick_2">
     <g id="line2d_3">
      <path clip-path="url(#pd3d07edb94)" d="M 137.527074 234.782835 
L 137.527074 40.917165 
" style="fill:none;stroke:#000000;stroke-linecap:square;stroke-opacity:0.1;stroke-width:0.5;"/>
     </g>
     <g id="line2d_4">
      <g>
       <use style="stroke:#000000;stroke-width:0.5;" x="137.527074" xlink:href="#mf8045baca9" y="234.782835"/>
      </g>
     </g>
     <g id="text_2">
      <!-- $\mathregular{10}$ -->
      <g transform="translate(131.527074 246.510335)scale(0.12 -0.12)">
       <defs>
        <path d="M 29.59375 67.09375 
Q 29.78125 66.84375 29.796875 66.71875 
Q 29.828125 66.609375 29.828125 66.15625 
L 29.828125 7.375 
Q 29.828125 3.609375 31.828125 2.578125 
Q 33.84375 1.5625 39.3125 1.375 
L 39.3125 0 
L 11.765625 0 
L 11.765625 1.46875 
Q 17.671875 1.765625 19.484375 3.078125 
Q 21.296875 4.390625 21.296875 8.796875 
L 21.296875 54 
Q 21.296875 56.34375 20.703125 57.5625 
Q 20.125 58.796875 18.171875 58.796875 
Q 16.890625 58.796875 14.859375 58.078125 
Q 12.84375 57.375 11.078125 56.59375 
L 11.078125 57.953125 
L 29 67.09375 
L 29.59375 67.09375 
z
" id="Times-Roman-49"/>
       </defs>
       <use transform="translate(0 0.8125)" xlink:href="#Times-Roman-49"/>
       <use transform="translate(50 0.8125)" xlink:href="#Times-Roman-48"/>
      </g>
     </g>
    </g>
    <g id="xtick_3">
     <g id="line2d_5">
      <path clip-path="url(#pd3d07edb94)" d="M 203.067407 234.782835 
L 203.067407 40.917165 
" style="fill:none;stroke:#000000;stroke-linecap:square;stroke-opacity:0.1;stroke-width:0.5;"/>
     </g>
     <g id="line2d_6">
      <g>
       <use style="stroke:#000000;stroke-width:0.5;" x="203.067407" xlink:href="#mf8045baca9" y="234.782835"/>
      </g>
     </g>
     <g id="text_3">
      <!-- $\mathregular{20}$ -->
      <g transform="translate(197.067407 246.510335)scale(0.12 -0.12)">
       <defs>
        <path d="M 2.984375 1.125 
Q 20.84375 19.671875 27.234375 28.359375 
Q 33.640625 37.0625 33.640625 45.3125 
Q 33.640625 52.546875 29.734375 56.328125 
Q 25.828125 60.109375 20.40625 60.109375 
Q 13.71875 60.109375 9.578125 55.21875 
Q 7.28125 52.546875 5.171875 46.96875 
L 3.078125 47.40625 
Q 5.515625 58.640625 11.34375 63.015625 
Q 17.1875 67.390625 23.875 67.390625 
Q 32.125 67.390625 37.21875 62.1875 
Q 42.328125 56.984375 42.328125 49.46875 
Q 42.328125 41.453125 36.8125 34.03125 
Q 31.296875 26.609375 12.84375 7.625 
L 35.25 7.625 
Q 39.9375 7.625 41.84375 8.734375 
Q 43.75 9.859375 46.140625 14.203125 
L 47.40625 13.625 
L 42 0 
L 2.984375 0 
z
" id="Times-Roman-50"/>
       </defs>
       <use transform="translate(0 0.609375)" xlink:href="#Times-Roman-50"/>
       <use transform="translate(50 0.609375)" xlink:href="#Times-Roman-48"/>
      </g>
     </g>
    </g>
    <g id="xtick_4">
     <g id="line2d_7">
      <path clip-path="url(#pd3d07edb94)" d="M 268.60774 234.782835 
L 268.60774 40.917165 
" style="fill:none;stroke:#000000;stroke-linecap:square;stroke-opacity:0.1;stroke-width:0.5;"/>
     </g>
     <g id="line2d_8">
      <g>
       <use style="stroke:#000000;stroke-width:0.5;" x="268.60774" xlink:href="#mf8045baca9" y="234.782835"/>
      </g>
     </g>
     <g id="text_4">
      <!-- $\mathregular{30}$ -->
      <g transform="translate(262.60774 246.510335)scale(0.12 -0.12)">
       <defs>
        <path d="M 7.765625 8.5 
Q 10.453125 8.5 14.859375 5.71875 
Q 19.28125 2.9375 22.359375 2.9375 
Q 29.203125 2.9375 32.515625 7.546875 
Q 35.84375 12.15625 35.84375 17.578125 
Q 35.84375 22.796875 33.15625 26.765625 
Q 28.609375 33.453125 17.828125 33.453125 
Q 17.1875 33.453125 16.59375 33.421875 
Q 16.015625 33.40625 15.234375 33.296875 
L 15.140625 34.578125 
Q 22.953125 37.40625 27.4375 41.0625 
Q 31.9375 44.734375 31.9375 50.734375 
Q 31.9375 56.0625 28.390625 58.84375 
Q 24.859375 61.625 20.3125 61.625 
Q 14.9375 61.625 10.84375 57.671875 
Q 8.59375 55.515625 6 51.03125 
L 4.5 51.375 
Q 6.453125 58.796875 11.765625 63.234375 
Q 17.09375 67.671875 24.078125 67.671875 
Q 31.546875 67.671875 35.625 63.5625 
Q 39.703125 59.46875 39.703125 54.109375 
Q 39.703125 49.359375 36.328125 45.40625 
Q 34.421875 43.171875 30.421875 40.375 
Q 35.109375 38.375 37.9375 35.6875 
Q 43.265625 30.5625 43.265625 22.703125 
Q 43.265625 13.421875 35.953125 6.34375 
Q 28.65625 -0.734375 15.1875 -0.734375 
Q 9.1875 -0.734375 6.765625 1.046875 
Q 4.34375 2.828125 4.34375 4.890625 
Q 4.34375 6.15625 5.140625 7.328125 
Q 5.953125 8.5 7.765625 8.5 
z
" id="Times-Roman-51"/>
       </defs>
       <use transform="translate(0 0.328125)" xlink:href="#Times-Roman-51"/>
       <use transform="translate(50 0.328125)" xlink:href="#Times-Roman-48"/>
      </g>
     </g>
    </g>
    <g id="xtick_5">
     <g id="line2d_9">
      <path clip-path="url(#pd3d07edb94)" d="M 334.148073 234.782835 
L 334.148073 40.917165 
" style="fill:none;stroke:#000000;stroke-linecap:square;stroke-opacity:0.1;stroke-width:0.5;"/>
     </g>
     <g id="line2d_10">
      <g>
       <use style="stroke:#000000;stroke-width:0.5;" x="334.148073" xlink:href="#mf8045baca9" y="234.782835"/>
      </g>
     </g>
     <g id="text_5">
      <!-- $\mathregular{40}$ -->
      <g transform="translate(328.148073 246.510335)scale(0.12 -0.12)">
       <defs>
        <path d="M 29.15625 57.03125 
L 5.171875 23.140625 
L 29.15625 23.140625 
z
M 32.375 67.09375 
L 37.015625 67.09375 
L 37.015625 23.140625 
L 47.21875 23.140625 
L 47.21875 16.65625 
L 37.015625 16.65625 
L 37.015625 0 
L 29.25 0 
L 29.25 16.65625 
L 1.125 16.65625 
L 1.125 23.140625 
z
" id="Times-Roman-52"/>
       </defs>
       <use transform="translate(0 0.8125)" xlink:href="#Times-Roman-52"/>
       <use transform="translate(50 0.8125)" xlink:href="#Times-Roman-48"/>
      </g>
     </g>
    </g>
    <g id="xtick_6">
     <g id="line2d_11">
      <path clip-path="url(#pd3d07edb94)" d="M 399.688406 234.782835 
L 399.688406 40.917165 
" style="fill:none;stroke:#000000;stroke-linecap:square;stroke-opacity:0.1;stroke-width:0.5;"/>
     </g>
     <g id="line2d_12">
      <g>
       <use style="stroke:#000000;stroke-width:0.5;" x="399.688406" xlink:href="#mf8045baca9" y="234.782835"/>
      </g>
     </g>
     <g id="text_6">
      <!-- $\mathregular{50}$ -->
      <g transform="translate(393.688406 246.510335)scale(0.12 -0.12)">
       <defs>
        <path d="M 7.46875 8.9375 
Q 10.25 8.9375 14.765625 5.78125 
Q 19.28125 2.640625 21.734375 2.640625 
Q 27.34375 2.640625 31.546875 7.59375 
Q 35.75 12.546875 35.75 19.78125 
Q 35.75 32.421875 22.265625 37.984375 
Q 14.796875 41.0625 8.34375 41.0625 
Q 7.28125 41.0625 7 41.140625 
Q 6.734375 41.21875 6.34375 41.65625 
Q 6.453125 42.046875 6.515625 42.3125 
Q 6.59375 42.578125 6.6875 42.828125 
L 17.328125 66.15625 
L 38.28125 66.15625 
Q 39.84375 66.15625 40.6875 66.6875 
Q 41.546875 67.234375 42.921875 68.703125 
L 43.703125 68.015625 
L 39.890625 58.984375 
Q 39.703125 58.546875 38.8125 58.421875 
Q 37.9375 58.296875 36.921875 58.296875 
L 18.015625 58.296875 
L 13.875 49.75 
Q 21.875 48.390625 25.59375 47.171875 
Q 31.6875 45.125 35.796875 41.109375 
Q 39.3125 37.640625 41.109375 33.3125 
Q 42.921875 29 42.921875 24.171875 
Q 42.921875 13.375 35.234375 6.140625 
Q 27.546875 -1.078125 15.765625 -1.078125 
Q 10.984375 -1.078125 8.0625 -0.140625 
Q 3.171875 1.375 3.171875 5.28125 
Q 3.171875 6.734375 4.21875 7.828125 
Q 5.28125 8.9375 7.46875 8.9375 
z
" id="Times-Roman-53"/>
       </defs>
       <use transform="translate(0 0.296875)" xlink:href="#Times-Roman-53"/>
       <use transform="translate(50 0.296875)" xlink:href="#Times-Roman-48"/>
      </g>
     </g>
    </g>
    <g id="text_7">
     <!-- Lockdown Duration -->
     <g transform="translate(181.276465 262.24221)scale(0.12 -0.12)">
      <defs>
       <path d="M 9.8125 72.90625 
L 19.671875 72.90625 
L 19.671875 8.296875 
L 55.171875 8.296875 
L 55.171875 0 
L 9.8125 0 
z
" id="DejaVuSans-76"/>
       <path d="M 30.609375 48.390625 
Q 23.390625 48.390625 19.1875 42.75 
Q 14.984375 37.109375 14.984375 27.296875 
Q 14.984375 17.484375 19.15625 11.84375 
Q 23.34375 6.203125 30.609375 6.203125 
Q 37.796875 6.203125 41.984375 11.859375 
Q 46.1875 17.53125 46.1875 27.296875 
Q 46.1875 37.015625 41.984375 42.703125 
Q 37.796875 48.390625 30.609375 48.390625 
z
M 30.609375 56 
Q 42.328125 56 49.015625 48.375 
Q 55.71875 40.765625 55.71875 27.296875 
Q 55.71875 13.875 49.015625 6.21875 
Q 42.328125 -1.421875 30.609375 -1.421875 
Q 18.84375 -1.421875 12.171875 6.21875 
Q 5.515625 13.875 5.515625 27.296875 
Q 5.515625 40.765625 12.171875 48.375 
Q 18.84375 56 30.609375 56 
z
" id="DejaVuSans-111"/>
       <path d="M 48.78125 52.59375 
L 48.78125 44.1875 
Q 44.96875 46.296875 41.140625 47.34375 
Q 37.3125 48.390625 33.40625 48.390625 
Q 24.65625 48.390625 19.8125 42.84375 
Q 14.984375 37.3125 14.984375 27.296875 
Q 14.984375 17.28125 19.8125 11.734375 
Q 24.65625 6.203125 33.40625 6.203125 
Q 37.3125 6.203125 41.140625 7.25 
Q 44.96875 8.296875 48.78125 10.40625 
L 48.78125 2.09375 
Q 45.015625 0.34375 40.984375 -0.53125 
Q 36.96875 -1.421875 32.421875 -1.421875 
Q 20.0625 -1.421875 12.78125 6.34375 
Q 5.515625 14.109375 5.515625 27.296875 
Q 5.515625 40.671875 12.859375 48.328125 
Q 20.21875 56 33.015625 56 
Q 37.15625 56 41.109375 55.140625 
Q 45.0625 54.296875 48.78125 52.59375 
z
" id="DejaVuSans-99"/>
       <path d="M 9.078125 75.984375 
L 18.109375 75.984375 
L 18.109375 31.109375 
L 44.921875 54.6875 
L 56.390625 54.6875 
L 27.390625 29.109375 
L 57.625 0 
L 45.90625 0 
L 18.109375 26.703125 
L 18.109375 0 
L 9.078125 0 
z
" id="DejaVuSans-107"/>
       <path d="M 45.40625 46.390625 
L 45.40625 75.984375 
L 54.390625 75.984375 
L 54.390625 0 
L 45.40625 0 
L 45.40625 8.203125 
Q 42.578125 3.328125 38.25 0.953125 
Q 33.9375 -1.421875 27.875 -1.421875 
Q 17.96875 -1.421875 11.734375 6.484375 
Q 5.515625 14.40625 5.515625 27.296875 
Q 5.515625 40.1875 11.734375 48.09375 
Q 17.96875 56 27.875 56 
Q 33.9375 56 38.25 53.625 
Q 42.578125 51.265625 45.40625 46.390625 
z
M 14.796875 27.296875 
Q 14.796875 17.390625 18.875 11.75 
Q 22.953125 6.109375 30.078125 6.109375 
Q 37.203125 6.109375 41.296875 11.75 
Q 45.40625 17.390625 45.40625 27.296875 
Q 45.40625 37.203125 41.296875 42.84375 
Q 37.203125 48.484375 30.078125 48.484375 
Q 22.953125 48.484375 18.875 42.84375 
Q 14.796875 37.203125 14.796875 27.296875 
z
" id="DejaVuSans-100"/>
       <path d="M 4.203125 54.6875 
L 13.1875 54.6875 
L 24.421875 12.015625 
L 35.59375 54.6875 
L 46.1875 54.6875 
L 57.421875 12.015625 
L 68.609375 54.6875 
L 77.59375 54.6875 
L 63.28125 0 
L 52.6875 0 
L 40.921875 44.828125 
L 29.109375 0 
L 18.5 0 
z
" id="DejaVuSans-119"/>
       <path d="M 54.890625 33.015625 
L 54.890625 0 
L 45.90625 0 
L 45.90625 32.71875 
Q 45.90625 40.484375 42.875 44.328125 
Q 39.84375 48.1875 33.796875 48.1875 
Q 26.515625 48.1875 22.3125 43.546875 
Q 18.109375 38.921875 18.109375 30.90625 
L 18.109375 0 
L 9.078125 0 
L 9.078125 54.6875 
L 18.109375 54.6875 
L 18.109375 46.1875 
Q 21.34375 51.125 25.703125 53.5625 
Q 30.078125 56 35.796875 56 
Q 45.21875 56 50.046875 50.171875 
Q 54.890625 44.34375 54.890625 33.015625 
z
" id="DejaVuSans-110"/>
       <path id="DejaVuSans-32"/>
       <path d="M 19.671875 64.796875 
L 19.671875 8.109375 
L 31.59375 8.109375 
Q 46.6875 8.109375 53.6875 14.9375 
Q 60.6875 21.78125 60.6875 36.53125 
Q 60.6875 51.171875 53.6875 57.984375 
Q 46.6875 64.796875 31.59375 64.796875 
z
M 9.8125 72.90625 
L 30.078125 72.90625 
Q 51.265625 72.90625 61.171875 64.09375 
Q 71.09375 55.28125 71.09375 36.53125 
Q 71.09375 17.671875 61.125 8.828125 
Q 51.171875 0 30.078125 0 
L 9.8125 0 
z
" id="DejaVuSans-68"/>
       <path d="M 8.5 21.578125 
L 8.5 54.6875 
L 17.484375 54.6875 
L 17.484375 21.921875 
Q 17.484375 14.15625 20.5 10.265625 
Q 23.53125 6.390625 29.59375 6.390625 
Q 36.859375 6.390625 41.078125 11.03125 
Q 45.3125 15.671875 45.3125 23.6875 
L 45.3125 54.6875 
L 54.296875 54.6875 
L 54.296875 0 
L 45.3125 0 
L 45.3125 8.40625 
Q 42.046875 3.421875 37.71875 1 
Q 33.40625 -1.421875 27.6875 -1.421875 
Q 18.265625 -1.421875 13.375 4.4375 
Q 8.5 10.296875 8.5 21.578125 
z
M 31.109375 56 
z
" id="DejaVuSans-117"/>
       <path d="M 41.109375 46.296875 
Q 39.59375 47.171875 37.8125 47.578125 
Q 36.03125 48 33.890625 48 
Q 26.265625 48 22.1875 43.046875 
Q 18.109375 38.09375 18.109375 28.8125 
L 18.109375 0 
L 9.078125 0 
L 9.078125 54.6875 
L 18.109375 54.6875 
L 18.109375 46.1875 
Q 20.953125 51.171875 25.484375 53.578125 
Q 30.03125 56 36.53125 56 
Q 37.453125 56 38.578125 55.875 
Q 39.703125 55.765625 41.0625 55.515625 
z
" id="DejaVuSans-114"/>
       <path d="M 34.28125 27.484375 
Q 23.390625 27.484375 19.1875 25 
Q 14.984375 22.515625 14.984375 16.5 
Q 14.984375 11.71875 18.140625 8.90625 
Q 21.296875 6.109375 26.703125 6.109375 
Q 34.1875 6.109375 38.703125 11.40625 
Q 43.21875 16.703125 43.21875 25.484375 
L 43.21875 27.484375 
z
M 52.203125 31.203125 
L 52.203125 0 
L 43.21875 0 
L 43.21875 8.296875 
Q 40.140625 3.328125 35.546875 0.953125 
Q 30.953125 -1.421875 24.3125 -1.421875 
Q 15.921875 -1.421875 10.953125 3.296875 
Q 6 8.015625 6 15.921875 
Q 6 25.140625 12.171875 29.828125 
Q 18.359375 34.515625 30.609375 34.515625 
L 43.21875 34.515625 
L 43.21875 35.40625 
Q 43.21875 41.609375 39.140625 45 
Q 35.0625 48.390625 27.6875 48.390625 
Q 23 48.390625 18.546875 47.265625 
Q 14.109375 46.140625 10.015625 43.890625 
L 10.015625 52.203125 
Q 14.9375 54.109375 19.578125 55.046875 
Q 24.21875 56 28.609375 56 
Q 40.484375 56 46.34375 49.84375 
Q 52.203125 43.703125 52.203125 31.203125 
z
" id="DejaVuSans-97"/>
       <path d="M 18.3125 70.21875 
L 18.3125 54.6875 
L 36.8125 54.6875 
L 36.8125 47.703125 
L 18.3125 47.703125 
L 18.3125 18.015625 
Q 18.3125 11.328125 20.140625 9.421875 
Q 21.96875 7.515625 27.59375 7.515625 
L 36.8125 7.515625 
L 36.8125 0 
L 27.59375 0 
Q 17.1875 0 13.234375 3.875 
Q 9.28125 7.765625 9.28125 18.015625 
L 9.28125 47.703125 
L 2.6875 47.703125 
L 2.6875 54.6875 
L 9.28125 54.6875 
L 9.28125 70.21875 
z
" id="DejaVuSans-116"/>
       <path d="M 9.421875 54.6875 
L 18.40625 54.6875 
L 18.40625 0 
L 9.421875 0 
z
M 9.421875 75.984375 
L 18.40625 75.984375 
L 18.40625 64.59375 
L 9.421875 64.59375 
z
" id="DejaVuSans-105"/>
      </defs>
      <use xlink:href="#DejaVuSans-76"/>
      <use x="53.962891" xlink:href="#DejaVuSans-111"/>
      <use x="115.144531" xlink:href="#DejaVuSans-99"/>
      <use x="170.125" xlink:href="#DejaVuSans-107"/>
      <use x="228.035156" xlink:href="#DejaVuSans-100"/>
      <use x="291.511719" xlink:href="#DejaVuSans-111"/>
      <use x="352.693359" xlink:href="#DejaVuSans-119"/>
      <use x="434.480469" xlink:href="#DejaVuSans-110"/>
      <use x="497.859375" xlink:href="#DejaVuSans-32"/>
      <use x="529.646484" xlink:href="#DejaVuSans-68"/>
      <use x="606.648438" xlink:href="#DejaVuSans-117"/>
      <use x="670.027344" xlink:href="#DejaVuSans-114"/>
      <use x="711.140625" xlink:href="#DejaVuSans-97"/>
      <use x="772.419922" xlink:href="#DejaVuSans-116"/>
      <use x="811.628906" xlink:href="#DejaVuSans-105"/>
      <use x="839.412109" xlink:href="#DejaVuSans-111"/>
      <use x="900.59375" xlink:href="#DejaVuSans-110"/>
     </g>
    </g>
   </g>
   <g id="matplotlib.axis_2">
    <g id="ytick_1">
     <g id="line2d_13">
      <path clip-path="url(#pd3d07edb94)" d="M 68.906345 214.139088 
L 409.322835 214.139088 
" style="fill:none;stroke:#000000;stroke-linecap:square;stroke-opacity:0.1;stroke-width:0.5;"/>
     </g>
     <g id="line2d_14">
      <defs>
       <path d="M 0 0 
L 2.5 0 
" id="m15cfd7c4ca" style="stroke:#000000;stroke-width:0.5;"/>
      </defs>
      <g>
       <use style="stroke:#000000;stroke-width:0.5;" x="68.906345" xlink:href="#m15cfd7c4ca" y="214.139088"/>
      </g>
     </g>
     <g id="text_8">
      <!-- $\mathregular{0.225}$ -->
      <g transform="translate(38.406345 218.252838)scale(0.12 -0.12)">
       <defs>
        <path d="M 16.3125 -1.171875 
Q 13.96875 -1.171875 12.359375 0.453125 
Q 10.75 2.09375 10.75 4.390625 
Q 10.75 6.6875 12.375 8.296875 
Q 14.015625 9.90625 16.3125 9.90625 
Q 18.609375 9.90625 20.21875 8.296875 
Q 21.828125 6.6875 21.828125 4.390625 
Q 21.828125 2.09375 20.234375 0.453125 
Q 18.65625 -1.171875 16.3125 -1.171875 
z
" id="Times-Roman-46"/>
       </defs>
       <use transform="translate(0 0.296875)" xlink:href="#Times-Roman-48"/>
       <use transform="translate(50 0.296875)" xlink:href="#Times-Roman-46"/>
       <use transform="translate(75 0.296875)" xlink:href="#Times-Roman-50"/>
       <use transform="translate(125 0.296875)" xlink:href="#Times-Roman-50"/>
       <use transform="translate(175 0.296875)" xlink:href="#Times-Roman-53"/>
      </g>
     </g>
    </g>
    <g id="ytick_2">
     <g id="line2d_15">
      <path clip-path="url(#pd3d07edb94)" d="M 68.906345 187.915075 
L 409.322835 187.915075 
" style="fill:none;stroke:#000000;stroke-linecap:square;stroke-opacity:0.1;stroke-width:0.5;"/>
     </g>
     <g id="line2d_16">
      <g>
       <use style="stroke:#000000;stroke-width:0.5;" x="68.906345" xlink:href="#m15cfd7c4ca" y="187.915075"/>
      </g>
     </g>
     <g id="text_9">
      <!-- $\mathregular{0.250}$ -->
      <g transform="translate(38.406345 192.028825)scale(0.12 -0.12)">
       <use transform="translate(0 0.296875)" xlink:href="#Times-Roman-48"/>
       <use transform="translate(50 0.296875)" xlink:href="#Times-Roman-46"/>
       <use transform="translate(75 0.296875)" xlink:href="#Times-Roman-50"/>
       <use transform="translate(125 0.296875)" xlink:href="#Times-Roman-53"/>
       <use transform="translate(175 0.296875)" xlink:href="#Times-Roman-48"/>
      </g>
     </g>
    </g>
    <g id="ytick_3">
     <g id="line2d_17">
      <path clip-path="url(#pd3d07edb94)" d="M 68.906345 161.691063 
L 409.322835 161.691063 
" style="fill:none;stroke:#000000;stroke-linecap:square;stroke-opacity:0.1;stroke-width:0.5;"/>
     </g>
     <g id="line2d_18">
      <g>
       <use style="stroke:#000000;stroke-width:0.5;" x="68.906345" xlink:href="#m15cfd7c4ca" y="161.691063"/>
      </g>
     </g>
     <g id="text_10">
      <!-- $\mathregular{0.275}$ -->
      <g transform="translate(38.406345 165.804813)scale(0.12 -0.12)">
       <defs>
        <path d="M 44.875 66.15625 
L 44.875 64.546875 
L 23.6875 -0.921875 
L 17.234375 -0.921875 
L 37.015625 58.796875 
L 15.71875 58.796875 
Q 10.984375 58.796875 8.90625 57.234375 
Q 6.84375 55.671875 3.65625 50.6875 
L 1.953125 51.46875 
Q 5.125 59.28125 5.875 61.109375 
Q 6.640625 62.9375 7.859375 66.15625 
z
" id="Times-Roman-55"/>
       </defs>
       <use transform="translate(0 0.296875)" xlink:href="#Times-Roman-48"/>
       <use transform="translate(50 0.296875)" xlink:href="#Times-Roman-46"/>
       <use transform="translate(75 0.296875)" xlink:href="#Times-Roman-50"/>
       <use transform="translate(125 0.296875)" xlink:href="#Times-Roman-55"/>
       <use transform="translate(175 0.296875)" xlink:href="#Times-Roman-53"/>
      </g>
     </g>
    </g>
    <g id="ytick_4">
     <g id="line2d_19">
      <path clip-path="url(#pd3d07edb94)" d="M 68.906345 135.467051 
L 409.322835 135.467051 
" style="fill:none;stroke:#000000;stroke-linecap:square;stroke-opacity:0.1;stroke-width:0.5;"/>
     </g>
     <g id="line2d_20">
      <g>
       <use style="stroke:#000000;stroke-width:0.5;" x="68.906345" xlink:href="#m15cfd7c4ca" y="135.467051"/>
      </g>
     </g>
     <g id="text_11">
      <!-- $\mathregular{0.300}$ -->
      <g transform="translate(38.406345 139.580801)scale(0.12 -0.12)">
       <use transform="translate(0 0.328125)" xlink:href="#Times-Roman-48"/>
       <use transform="translate(50 0.328125)" xlink:href="#Times-Roman-46"/>
       <use transform="translate(75 0.328125)" xlink:href="#Times-Roman-51"/>
       <use transform="translate(125 0.328125)" xlink:href="#Times-Roman-48"/>
       <use transform="translate(175 0.328125)" xlink:href="#Times-Roman-48"/>
      </g>
     </g>
    </g>
    <g id="ytick_5">
     <g id="line2d_21">
      <path clip-path="url(#pd3d07edb94)" d="M 68.906345 109.243038 
L 409.322835 109.243038 
" style="fill:none;stroke:#000000;stroke-linecap:square;stroke-opacity:0.1;stroke-width:0.5;"/>
     </g>
     <g id="line2d_22">
      <g>
       <use style="stroke:#000000;stroke-width:0.5;" x="68.906345" xlink:href="#m15cfd7c4ca" y="109.243038"/>
      </g>
     </g>
     <g id="text_12">
      <!-- $\mathregular{0.325}$ -->
      <g transform="translate(38.406345 113.356788)scale(0.12 -0.12)">
       <use transform="translate(0 0.296875)" xlink:href="#Times-Roman-48"/>
       <use transform="translate(50 0.296875)" xlink:href="#Times-Roman-46"/>
       <use transform="translate(75 0.296875)" xlink:href="#Times-Roman-51"/>
       <use transform="translate(125 0.296875)" xlink:href="#Times-Roman-50"/>
       <use transform="translate(175 0.296875)" xlink:href="#Times-Roman-53"/>
      </g>
     </g>
    </g>
    <g id="ytick_6">
     <g id="line2d_23">
      <path clip-path="url(#pd3d07edb94)" d="M 68.906345 83.019026 
L 409.322835 83.019026 
" style="fill:none;stroke:#000000;stroke-linecap:square;stroke-opacity:0.1;stroke-width:0.5;"/>
     </g>
     <g id="line2d_24">
      <g>
       <use style="stroke:#000000;stroke-width:0.5;" x="68.906345" xlink:href="#m15cfd7c4ca" y="83.019026"/>
      </g>
     </g>
     <g id="text_13">
      <!-- $\mathregular{0.350}$ -->
      <g transform="translate(38.406345 87.132776)scale(0.12 -0.12)">
       <use transform="translate(0 0.296875)" xlink:href="#Times-Roman-48"/>
       <use transform="translate(50 0.296875)" xlink:href="#Times-Roman-46"/>
       <use transform="translate(75 0.296875)" xlink:href="#Times-Roman-51"/>
       <use transform="translate(125 0.296875)" xlink:href="#Times-Roman-53"/>
       <use transform="translate(175 0.296875)" xlink:href="#Times-Roman-48"/>
      </g>
     </g>
    </g>
    <g id="ytick_7">
     <g id="line2d_25">
      <path clip-path="url(#pd3d07edb94)" d="M 68.906345 56.795013 
L 409.322835 56.795013 
" style="fill:none;stroke:#000000;stroke-linecap:square;stroke-opacity:0.1;stroke-width:0.5;"/>
     </g>
     <g id="line2d_26">
      <g>
       <use style="stroke:#000000;stroke-width:0.5;" x="68.906345" xlink:href="#m15cfd7c4ca" y="56.795013"/>
      </g>
     </g>
     <g id="text_14">
      <!-- $\mathregular{0.375}$ -->
      <g transform="translate(38.406345 60.908763)scale(0.12 -0.12)">
       <use transform="translate(0 0.296875)" xlink:href="#Times-Roman-48"/>
       <use transform="translate(50 0.296875)" xlink:href="#Times-Roman-46"/>
       <use transform="translate(75 0.296875)" xlink:href="#Times-Roman-51"/>
       <use transform="translate(125 0.296875)" xlink:href="#Times-Roman-55"/>
       <use transform="translate(175 0.296875)" xlink:href="#Times-Roman-53"/>
      </g>
     </g>
    </g>
    <g id="text_15">
     <!-- Infected Peak -->
     <g transform="translate(31.91072 178.529062)rotate(-90)scale(0.12 -0.12)">
      <defs>
       <path d="M 9.8125 72.90625 
L 19.671875 72.90625 
L 19.671875 0 
L 9.8125 0 
z
" id="DejaVuSans-73"/>
       <path d="M 37.109375 75.984375 
L 37.109375 68.5 
L 28.515625 68.5 
Q 23.6875 68.5 21.796875 66.546875 
Q 19.921875 64.59375 19.921875 59.515625 
L 19.921875 54.6875 
L 34.71875 54.6875 
L 34.71875 47.703125 
L 19.921875 47.703125 
L 19.921875 0 
L 10.890625 0 
L 10.890625 47.703125 
L 2.296875 47.703125 
L 2.296875 54.6875 
L 10.890625 54.6875 
L 10.890625 58.5 
Q 10.890625 67.625 15.140625 71.796875 
Q 19.390625 75.984375 28.609375 75.984375 
z
" id="DejaVuSans-102"/>
       <path d="M 56.203125 29.59375 
L 56.203125 25.203125 
L 14.890625 25.203125 
Q 15.484375 15.921875 20.484375 11.0625 
Q 25.484375 6.203125 34.421875 6.203125 
Q 39.59375 6.203125 44.453125 7.46875 
Q 49.3125 8.734375 54.109375 11.28125 
L 54.109375 2.78125 
Q 49.265625 0.734375 44.1875 -0.34375 
Q 39.109375 -1.421875 33.890625 -1.421875 
Q 20.796875 -1.421875 13.15625 6.1875 
Q 5.515625 13.8125 5.515625 26.8125 
Q 5.515625 40.234375 12.765625 48.109375 
Q 20.015625 56 32.328125 56 
Q 43.359375 56 49.78125 48.890625 
Q 56.203125 41.796875 56.203125 29.59375 
z
M 47.21875 32.234375 
Q 47.125 39.59375 43.09375 43.984375 
Q 39.0625 48.390625 32.421875 48.390625 
Q 24.90625 48.390625 20.390625 44.140625 
Q 15.875 39.890625 15.1875 32.171875 
z
" id="DejaVuSans-101"/>
       <path d="M 19.671875 64.796875 
L 19.671875 37.40625 
L 32.078125 37.40625 
Q 38.96875 37.40625 42.71875 40.96875 
Q 46.484375 44.53125 46.484375 51.125 
Q 46.484375 57.671875 42.71875 61.234375 
Q 38.96875 64.796875 32.078125 64.796875 
z
M 9.8125 72.90625 
L 32.078125 72.90625 
Q 44.34375 72.90625 50.609375 67.359375 
Q 56.890625 61.8125 56.890625 51.125 
Q 56.890625 40.328125 50.609375 34.8125 
Q 44.34375 29.296875 32.078125 29.296875 
L 19.671875 29.296875 
L 19.671875 0 
L 9.8125 0 
z
" id="DejaVuSans-80"/>
      </defs>
      <use xlink:href="#DejaVuSans-73"/>
      <use x="29.492188" xlink:href="#DejaVuSans-110"/>
      <use x="92.871094" xlink:href="#DejaVuSans-102"/>
      <use x="128.076172" xlink:href="#DejaVuSans-101"/>
      <use x="189.599609" xlink:href="#DejaVuSans-99"/>
      <use x="244.580078" xlink:href="#DejaVuSans-116"/>
      <use x="283.789062" xlink:href="#DejaVuSans-101"/>
      <use x="345.3125" xlink:href="#DejaVuSans-100"/>
      <use x="408.789062" xlink:href="#DejaVuSans-32"/>
      <use x="440.576172" xlink:href="#DejaVuSans-80"/>
      <use x="497.253906" xlink:href="#DejaVuSans-101"/>
      <use x="558.777344" xlink:href="#DejaVuSans-97"/>
      <use x="620.056641" xlink:href="#DejaVuSans-107"/>
     </g>
    </g>
   </g>
   <g id="line2d_27">
    <path clip-path="url(#pd3d07edb94)" d="M 78.540774 46.40393 
L 85.094807 63.463447 
L 91.648841 78.482289 
L 98.202874 91.689838 
L 104.756907 103.407058 
L 111.31094 113.795084 
L 117.864974 123.230949 
L 124.419007 131.670141 
L 130.97304 139.257905 
L 137.527074 146.207296 
L 144.081107 152.567777 
L 150.63514 158.351423 
L 157.189174 163.580966 
L 163.743207 168.456494 
L 170.29724 172.936899 
L 176.851273 177.069758 
L 183.405307 180.874078 
L 189.95934 184.372613 
L 196.513373 187.625482 
L 203.067407 190.677289 
L 209.62144 193.526897 
L 216.175473 196.153383 
L 222.729507 198.607735 
L 229.28354 200.852896 
L 235.837573 202.994675 
L 242.391606 204.968832 
L 248.94564 206.872119 
L 255.499673 208.571793 
L 262.053706 210.233357 
L 268.60774 211.813527 
L 275.161773 213.229824 
L 281.715806 214.644664 
L 288.26984 215.856493 
L 294.823873 217.066966 
L 301.377906 218.27618 
L 307.931939 219.283014 
L 314.485973 220.289003 
L 321.040006 221.293857 
L 327.594039 222.153671 
L 334.148073 223.040854 
L 340.702106 223.840945 
L 347.256139 224.558388 
L 353.810173 225.303683 
L 360.364206 225.940444 
L 366.918239 226.614857 
L 373.472272 227.224601 
L 380.026306 227.772636 
L 386.580339 228.299736 
L 393.134372 228.879041 
L 399.688406 229.29607 
" style="fill:none;stroke:#009afa;stroke-width:3;"/>
   </g>
   <g id="line2d_28">
    <path clip-path="url(#pd3d07edb94)" d="M 78.540774 46.40393 
L 85.094807 63.463447 
L 91.648841 78.482289 
L 98.202874 91.689838 
L 104.756907 103.407058 
L 111.31094 113.795084 
L 117.864974 123.230949 
L 124.419007 131.670141 
L 130.97304 139.257905 
L 137.527074 146.207296 
L 144.081107 152.567777 
L 150.63514 158.351423 
L 157.189174 163.580966 
L 163.743207 168.456494 
L 170.29724 172.936899 
L 176.851273 177.069758 
L 183.405307 180.874078 
L 189.95934 184.372613 
L 196.513373 187.625482 
L 203.067407 190.677289 
L 209.62144 193.526897 
L 216.175473 196.153383 
L 222.729507 198.607735 
L 229.28354 200.852896 
L 235.837573 202.994675 
L 242.391606 204.968832 
L 248.94564 206.872119 
L 255.499673 208.571793 
L 262.053706 210.233357 
L 268.60774 211.813527 
L 275.161773 213.229824 
L 281.715806 214.644664 
L 288.26984 215.856493 
L 294.823873 217.066966 
L 301.377906 218.27618 
L 307.931939 219.283014 
L 314.485973 220.289003 
L 321.040006 221.293857 
L 327.594039 222.153671 
L 334.148073 223.040854 
L 340.702106 223.840945 
L 347.256139 224.558388 
L 353.810173 225.303683 
L 360.364206 225.940444 
L 366.918239 226.614857 
L 373.472272 227.224601 
L 380.026306 227.772636 
L 386.580339 228.299736 
L 393.134372 228.879041 
L 399.688406 229.29607 
" style="fill:none;stroke:#e36f47;stroke-dasharray:11.1,4.8;stroke-dashoffset:0;stroke-width:3;"/>
   </g>
   <g id="patch_3">
    <path d="M 68.906345 234.782835 
L 68.906345 40.917165 
" style="fill:none;stroke:#000000;stroke-linecap:square;stroke-linejoin:miter;"/>
   </g>
   <g id="patch_4">
    <path d="M 68.906345 234.782835 
L 409.322835 234.782835 
" style="fill:none;stroke:#000000;stroke-linecap:square;stroke-linejoin:miter;"/>
   </g>
   <g id="text_16">
    <!-- β lockdown=0.0 -->
    <g transform="translate(186.60334 34.917165)scale(0.16 -0.16)">
     <defs>
      <path d="M 6.109375 43.015625 
Q 6.296875 73.09375 27.78125 73.390625 
Q 35.6875 73.390625 41.015625 69.484375 
Q 46.296875 65.578125 46.390625 57.90625 
Q 46.296875 51.3125 41.890625 47.609375 
Q 37.5 43.890625 31.59375 41.890625 
L 31.59375 41.703125 
Q 40.375 40.578125 45.796875 35.5 
Q 51.21875 30.421875 51.3125 21.09375 
Q 51.3125 11.625 46 5.515625 
Q 40.671875 -0.78125 30.8125 -0.984375 
Q 26.3125 -0.875 22.515625 1.515625 
Q 18.703125 3.90625 17.828125 8.59375 
L 20.796875 8.59375 
Q 21.09375 6 23.6875 3.90625 
Q 26.421875 1.609375 30.078125 1.515625 
Q 33.40625 1.515625 35.6875 3.515625 
Q 37.890625 5.421875 39.203125 8.296875 
Q 41.703125 14.5 41.703125 20.703125 
Q 41.703125 23.875 41.109375 27.296875 
Q 40.28125 30.609375 38.8125 33.5 
Q 37.3125 36.375 35.109375 38.28125 
Q 32.71875 39.984375 29.5 40.09375 
Q 27.484375 39.984375 25.984375 39.3125 
Q 24.609375 38.28125 23.09375 38.28125 
Q 19.671875 38.28125 19.78125 41.890625 
Q 19.921875 45.015625 23.09375 45.125 
Q 25 45.015625 26.8125 44.09375 
Q 28.515625 43.109375 29.6875 43.109375 
Q 33.015625 43.109375 35.296875 46.875 
Q 37.5 50.484375 37.59375 56.984375 
Q 37.59375 61.71875 35.203125 65.921875 
Q 33.890625 67.875 31.78125 69.1875 
Q 29.6875 70.40625 26.703125 70.40625 
Q 19.671875 70.3125 17.28125 64.59375 
Q 14.796875 58.984375 14.890625 50.6875 
L 14.890625 -23.296875 
L 6.109375 -23.296875 
z
" id="Times-Roman-946"/>
      <path id="Times-Roman-32"/>
      <path d="M 2.046875 1.375 
Q 6.59375 1.8125 8.203125 3.203125 
Q 9.8125 4.59375 9.8125 8.640625 
L 9.8125 56.34375 
Q 9.8125 59.578125 9.28125 60.796875 
Q 8.296875 62.84375 5.328125 62.84375 
Q 4.640625 62.84375 3.828125 62.6875 
Q 3.03125 62.546875 1.8125 62.25 
L 1.8125 63.875 
Q 8.40625 65.625 17.671875 68.5625 
Q 18.015625 68.5625 18.09375 68.265625 
Q 18.171875 67.96875 18.171875 67 
L 18.171875 8.453125 
Q 18.171875 4.203125 19.625 2.953125 
Q 21.09375 1.703125 25.6875 1.375 
L 25.6875 0 
L 2.046875 0 
z
" id="Times-Roman-108"/>
      <path d="M 2.546875 22.65625 
Q 2.546875 32.375 8.71875 39.078125 
Q 14.890625 45.796875 24.609375 45.796875 
Q 34.28125 45.796875 40.625 39.453125 
Q 46.96875 33.109375 46.96875 22.5625 
Q 46.96875 12.84375 40.8125 5.65625 
Q 34.671875 -1.515625 24.90625 -1.515625 
Q 15.53125 -1.515625 9.03125 5.359375 
Q 2.546875 12.25 2.546875 22.65625 
z
M 23.25 42.875 
Q 19.390625 42.875 16.546875 40.328125 
Q 11.671875 35.890625 11.671875 25 
Q 11.671875 16.3125 15.59375 8.78125 
Q 19.53125 1.265625 26.515625 1.265625 
Q 31.984375 1.265625 34.9375 6.296875 
Q 37.890625 11.328125 37.890625 19.484375 
Q 37.890625 27.9375 34.125 35.40625 
Q 30.375 42.875 23.25 42.875 
z
M 25.046875 45.796875 
z
" id="Times-Roman-111"/>
      <path d="M 24.859375 46.046875 
Q 30.953125 46.046875 35.375 42.890625 
Q 39.796875 39.75 39.796875 35.984375 
Q 39.796875 34.375 38.671875 32.984375 
Q 37.546875 31.59375 35.203125 31.59375 
Q 33.5 31.59375 32.203125 32.765625 
Q 30.90625 33.9375 30.328125 36.1875 
L 29.734375 38.53125 
Q 29.109375 41.109375 27.546875 42.1875 
Q 25.921875 43.21875 23.296875 43.21875 
Q 17.71875 43.21875 13.890625 38.359375 
Q 10.0625 33.5 10.0625 25.4375 
Q 10.0625 18.0625 14.28125 12.203125 
Q 18.5 6.34375 25.6875 6.34375 
Q 30.765625 6.34375 34.71875 9.671875 
Q 36.96875 11.578125 39.796875 15.71875 
L 41.15625 14.890625 
Q 38.375 9.03125 35.296875 5.609375 
Q 29.390625 -0.921875 21.625 -0.921875 
Q 14.015625 -0.921875 8.15625 5.078125 
Q 2.296875 11.078125 2.296875 21.390625 
Q 2.296875 31.5 8.6875 38.765625 
Q 15.09375 46.046875 24.859375 46.046875 
z
M 22.703125 46.046875 
z
" id="Times-Roman-99"/>
      <path d="M 0.203125 1.375 
Q 4.890625 1.703125 6.375 2.921875 
Q 7.859375 4.15625 7.859375 8.203125 
L 7.859375 57.125 
Q 7.859375 60.59375 6.6875 61.515625 
Q 5.515625 62.453125 3.328125 62.453125 
Q 2.390625 62.453125 1.703125 62.40625 
Q 1.03125 62.359375 0.203125 62.25 
L 0.203125 63.625 
L 4.59375 64.796875 
Q 9.625 66.109375 13.140625 67.28125 
Q 15.28125 68.015625 15.625 68.015625 
Q 15.921875 68.015625 15.984375 67.890625 
Q 16.0625 67.78125 16.0625 67.328125 
L 16.0625 26.265625 
L 29.59375 38.1875 
Q 31.0625 39.5 31.5625 40.28125 
Q 32.078125 41.0625 32.078125 41.65625 
Q 32.078125 42.78125 30.984375 43.0625 
Q 29.890625 43.359375 27.046875 43.5 
L 27.046875 44.875 
L 47.40625 44.875 
L 47.40625 43.5 
Q 41.9375 43.171875 38.609375 41.328125 
Q 35.296875 39.5 25.875 30.859375 
L 23 28.21875 
L 32.03125 16.5 
Q 38.96875 7.515625 42.484375 4.5625 
Q 46 1.609375 49.953125 1.265625 
L 49.953125 0 
L 28.21875 0 
L 28.21875 1.375 
L 29.9375 1.46875 
Q 30.765625 1.515625 31.4375 1.796875 
Q 32.125 2.09375 32.125 2.78125 
Q 32.125 3.328125 31.875 3.78125 
Q 31.640625 4.25 31.203125 4.828125 
L 16.0625 24.75 
L 16.0625 6.6875 
Q 16.0625 3.328125 18.5625 2.203125 
Q 20.015625 1.515625 23.578125 1.46875 
L 23.578125 0 
L 0.203125 0 
z
" id="Times-Roman-107"/>
      <path d="M 23.6875 46.140625 
Q 27.25 46.140625 30.21875 44.578125 
Q 32.171875 43.5625 33.984375 41.75 
L 33.984375 57.28125 
Q 33.984375 60.25 33.328125 61.375 
Q 32.671875 62.5 30.171875 62.5 
Q 29.59375 62.5 29.15625 62.453125 
Q 28.71875 62.40625 27.203125 62.25 
L 27.203125 63.875 
L 31.203125 64.890625 
Q 33.40625 65.484375 35.59375 66.109375 
Q 37.796875 66.75 39.453125 67.328125 
Q 40.234375 67.578125 42.046875 68.265625 
L 42.328125 68.171875 
L 42.234375 63.03125 
Q 42.1875 60.25 42.140625 57.296875 
Q 42.09375 54.34375 42.09375 51.46875 
L 42 11.578125 
Q 42 8.40625 42.78125 7.125 
Q 43.5625 5.859375 46.921875 5.859375 
Q 47.46875 5.859375 48 5.875 
Q 48.53125 5.90625 49.078125 6 
L 49.078125 4.390625 
Q 48.78125 4.296875 42 1.953125 
L 34.328125 -0.921875 
L 33.984375 -0.484375 
L 33.984375 5.515625 
Q 31.25 2.546875 29.25 1.265625 
Q 25.6875 -0.921875 21 -0.921875 
Q 12.703125 -0.921875 7.546875 5.5 
Q 2.390625 11.921875 2.390625 20.359375 
Q 2.390625 30.953125 8.5625 38.546875 
Q 14.75 46.140625 23.6875 46.140625 
z
M 25.484375 4.34375 
Q 29.296875 4.34375 31.640625 6.59375 
Q 33.984375 8.84375 33.984375 10.84375 
L 33.984375 31.78125 
Q 33.984375 38.140625 30.59375 40.75 
Q 27.203125 43.359375 23.96875 43.359375 
Q 17.828125 43.359375 14.40625 37.90625 
Q 10.984375 32.46875 10.984375 24.515625 
Q 10.984375 16.65625 14.625 10.5 
Q 18.265625 4.34375 25.484375 4.34375 
z
" id="Times-Roman-100"/>
      <path d="M 46.484375 43.84375 
Q 43.5625 43.5 42.140625 42.859375 
Q 40.71875 42.234375 40.71875 40.328125 
Q 40.71875 39.3125 41.03125 38.203125 
Q 41.359375 37.109375 41.890625 35.640625 
L 50.78125 12.453125 
L 59.46875 33.640625 
Q 60.0625 35.015625 60.734375 37.234375 
Q 61.421875 39.453125 61.421875 40.578125 
Q 61.421875 42.390625 60.296875 43.015625 
Q 59.1875 43.65625 57.03125 43.953125 
L 57.03125 45.359375 
L 69.4375 45.359375 
L 69.4375 43.953125 
Q 68.21875 43.703125 67.4375 42.765625 
Q 66.65625 41.84375 65.234375 38.375 
L 49.609375 -0.140625 
Q 49.421875 -0.59375 49.265625 -0.78125 
Q 49.125 -0.984375 48.828125 -0.984375 
Q 48.25 -0.6875 48.140625 -0.484375 
L 37.109375 26.8125 
L 24.265625 -0.390625 
Q 24.171875 -0.640625 24 -0.8125 
Q 23.828125 -0.984375 23.578125 -0.984375 
Q 23 -0.6875 22.90625 -0.484375 
L 8.296875 35.5 
Q 5.90625 41.40625 5.125 42.453125 
Q 4.34375 43.5 2.046875 43.84375 
L 2.046875 45.359375 
L 20.125 45.359375 
L 20.125 43.84375 
Q 17.875 43.65625 16.671875 43.046875 
Q 15.484375 42.4375 15.484375 40.4375 
Q 15.484375 39.015625 17.484375 33.5 
Q 18.65625 30.328125 20.453125 25.78125 
L 26.03125 11.921875 
L 34.8125 30.765625 
L 34.90625 31.34375 
Q 34.90625 32.328125 33.859375 34.984375 
Q 32.8125 37.640625 31.84375 39.75 
Q 30.859375 41.9375 29.609375 42.796875 
Q 28.375 43.65625 26.125 43.84375 
L 26.125 45.359375 
L 46.484375 45.359375 
z
" id="Times-Roman-119"/>
      <path d="M 1.8125 1.375 
Q 5.28125 1.8125 6.671875 3.09375 
Q 8.0625 4.390625 8.0625 8.890625 
L 8.0625 33.640625 
Q 8.0625 36.765625 7.46875 38.03125 
Q 6.546875 39.890625 3.65625 39.890625 
Q 3.21875 39.890625 2.75 39.84375 
Q 2.296875 39.796875 1.609375 39.703125 
L 1.609375 41.40625 
Q 3.609375 42 11.078125 44.4375 
L 15.671875 45.953125 
Q 16.015625 45.953125 16.078125 45.703125 
Q 16.15625 45.453125 16.15625 45.015625 
L 16.15625 37.84375 
Q 20.65625 42.046875 23.1875 43.609375 
Q 27 46 31.109375 46 
Q 34.421875 46 37.15625 44.09375 
Q 42.4375 40.375 42.4375 30.859375 
L 42.4375 8.0625 
Q 42.4375 4.546875 43.84375 2.984375 
Q 45.265625 1.421875 48.578125 1.375 
L 48.578125 0 
L 27.734375 0 
L 27.734375 1.375 
Q 31.296875 1.859375 32.703125 3.34375 
Q 34.125 4.828125 34.125 9.8125 
L 34.125 30.671875 
Q 34.125 34.859375 32.5625 37.609375 
Q 31 40.375 26.8125 40.375 
Q 23.921875 40.375 20.953125 38.421875 
Q 19.28125 37.3125 16.65625 34.71875 
L 16.65625 7.375 
Q 16.65625 3.859375 18.21875 2.65625 
Q 19.78125 1.46875 23.140625 1.375 
L 23.140625 0 
L 1.8125 0 
z
M 25.046875 46 
z
" id="Times-Roman-110"/>
      <path d="M 53.46875 18.609375 
L 53.46875 11.765625 
L 2.984375 11.765625 
L 2.984375 18.609375 
z
M 53.46875 38.765625 
L 53.46875 31.9375 
L 2.984375 31.9375 
L 2.984375 38.765625 
z
" id="Times-Roman-61"/>
     </defs>
     <use xlink:href="#Times-Roman-946"/>
     <use x="55.615234" xlink:href="#Times-Roman-32"/>
     <use x="80.615234" xlink:href="#Times-Roman-108"/>
     <use x="108.398438" xlink:href="#Times-Roman-111"/>
     <use x="158.398438" xlink:href="#Times-Roman-99"/>
     <use x="202.783203" xlink:href="#Times-Roman-107"/>
     <use x="252.783203" xlink:href="#Times-Roman-100"/>
     <use x="302.783203" xlink:href="#Times-Roman-111"/>
     <use x="352.783203" xlink:href="#Times-Roman-119"/>
     <use x="425" xlink:href="#Times-Roman-110"/>
     <use x="475" xlink:href="#Times-Roman-61"/>
     <use x="531.396484" xlink:href="#Times-Roman-48"/>
     <use x="581.396484" xlink:href="#Times-Roman-46"/>
     <use x="606.396484" xlink:href="#Times-Roman-48"/>
    </g>
   </g>
   <g id="legend_1">
    <g id="patch_5">
     <path d="M 256.87221 94.144665 
L 403.322835 94.144665 
L 403.322835 46.917165 
L 256.87221 46.917165 
z
" style="fill:#ffffff;stroke:#000000;stroke-linejoin:miter;"/>
    </g>
    <g id="line2d_29">
     <path d="M 266.47221 60.717165 
L 290.47221 60.717165 
" style="fill:none;stroke:#009afa;stroke-linejoin:miter;stroke-width:1.5;"/>
    </g>
    <g id="line2d_30"/>
    <g id="text_17">
     <!-- Approximation -->
     <g transform="translate(300.07221 64.917165)scale(0.12 -0.12)">
      <defs>
       <path d="M 44.625 25.6875 
L 33.0625 53.21875 
L 21.625 25.6875 
z
M 1.46875 0 
L 1.46875 1.8125 
Q 5.328125 2.25 7.25 4.734375 
Q 9.1875 7.234375 13.875 18.265625 
L 34.71875 67.328125 
L 36.671875 67.328125 
L 61.578125 10.640625 
Q 64.0625 4.984375 65.546875 3.640625 
Q 67.046875 2.296875 70.5625 1.8125 
L 70.5625 0 
L 45.125 0 
L 45.125 1.8125 
Q 49.515625 2.203125 50.78125 2.765625 
Q 52.046875 3.328125 52.046875 5.515625 
Q 52.046875 6.25 51.5625 8.109375 
Q 51.078125 9.96875 50.203125 12.015625 
L 46.046875 21.625 
L 19.875 21.625 
Q 15.96875 11.8125 15.203125 9.640625 
Q 14.453125 7.46875 14.453125 6.203125 
Q 14.453125 3.65625 16.5 2.6875 
Q 17.78125 2.09375 21.296875 1.8125 
L 21.296875 0 
z
M 35.6875 67.328125 
z
" id="Times-Roman-65"/>
       <path d="M 15.96875 8.984375 
Q 17.234375 5.671875 19.75 4.03125 
Q 22.265625 2.390625 25.6875 2.390625 
Q 30.953125 2.390625 34.6875 7.640625 
Q 38.421875 12.890625 38.421875 22.265625 
Q 38.421875 31.25 34.546875 35.6875 
Q 30.671875 40.140625 25.53125 40.140625 
Q 21.921875 40.140625 18.9375 37.90625 
Q 15.96875 35.6875 15.96875 33.546875 
L 15.96875 8.984375 
z
M 0.4375 -20.171875 
Q 5.03125 -19.875 6.265625 -18.203125 
Q 7.515625 -16.546875 7.515625 -12.984375 
L 7.515625 33.890625 
Q 7.515625 37.59375 6.609375 38.640625 
Q 5.71875 39.703125 3.21875 39.703125 
Q 2.6875 39.703125 2.21875 39.640625 
Q 1.765625 39.59375 0.875 39.453125 
L 0.875 41.0625 
L 5.515625 42.578125 
Q 5.765625 42.625 15.328125 45.953125 
Q 15.578125 45.953125 15.703125 45.734375 
Q 15.828125 45.515625 15.828125 45.21875 
L 15.828125 38.625 
Q 19.046875 41.84375 21.484375 43.40625 
Q 25.875 46.140625 30.515625 46.140625 
Q 37.25 46.140625 42.109375 40.40625 
Q 46.96875 34.671875 46.96875 24.703125 
Q 46.96875 14.9375 41.125 6.96875 
Q 35.296875 -0.984375 26.46875 -0.984375 
Q 23.734375 -0.984375 21.734375 -0.296875 
Q 18.609375 0.734375 15.96875 3.46875 
L 15.96875 -12.5 
Q 15.96875 -17.4375 17.578125 -18.546875 
Q 19.1875 -19.671875 24.609375 -20.0625 
L 24.609375 -21.78125 
L 0.4375 -21.78125 
z
" id="Times-Roman-112"/>
       <path d="M 0.4375 1.609375 
Q 4.9375 2 6.390625 3.1875 
Q 7.859375 4.390625 7.859375 8.296875 
L 7.859375 30.328125 
Q 7.859375 35.15625 6.953125 37.234375 
Q 6.0625 39.3125 3.65625 39.3125 
Q 3.171875 39.3125 2.359375 39.1875 
Q 1.5625 39.0625 0.6875 38.875 
L 0.6875 40.484375 
Q 3.46875 41.453125 6.390625 42.46875 
Q 9.328125 43.5 10.453125 43.953125 
Q 12.890625 44.875 15.484375 46.046875 
Q 15.828125 46.046875 15.890625 45.796875 
Q 15.96875 45.5625 15.96875 44.78125 
L 15.96875 36.765625 
Q 19.09375 41.109375 22 43.546875 
Q 24.90625 46 28.03125 46 
Q 30.515625 46 32.078125 44.5 
Q 33.640625 43.015625 33.640625 40.765625 
Q 33.640625 38.765625 32.4375 37.390625 
Q 31.25 36.03125 29.4375 36.03125 
Q 27.59375 36.03125 25.703125 37.734375 
Q 23.828125 39.453125 22.75 39.453125 
Q 21.046875 39.453125 18.546875 36.6875 
Q 16.0625 33.9375 16.0625 31 
L 16.0625 8.984375 
Q 16.0625 4.78125 18.015625 3.140625 
Q 19.96875 1.515625 24.515625 1.609375 
L 24.515625 0 
L 0.4375 0 
z
" id="Times-Roman-114"/>
       <path d="M 23.140625 44.875 
L 23.140625 43.5 
Q 21.296875 43.453125 20 42.984375 
Q 18.703125 42.53125 18.703125 41.0625 
Q 18.703125 40.140625 21.296875 35.84375 
Q 22.65625 33.59375 24.75 30.328125 
Q 27.640625 34.28125 29.046875 36.53125 
Q 31.453125 40.140625 31.453125 41.21875 
Q 31.453125 42.484375 30.421875 42.921875 
Q 29.390625 43.359375 27.546875 43.5 
L 27.546875 44.875 
L 43.265625 44.875 
L 43.265625 43.5 
Q 40.765625 43.3125 38.609375 42.15625 
Q 36.46875 41.015625 35.15625 39.109375 
L 26.8125 27.046875 
L 39.703125 7.515625 
Q 42.1875 3.71875 43.921875 2.59375 
Q 45.65625 1.46875 47.90625 1.375 
L 47.90625 0 
L 27.734375 0 
L 27.734375 1.375 
L 29.15625 1.46875 
Q 30.28125 1.5625 31.03125 2.140625 
Q 31.78125 2.734375 31.78125 3.609375 
Q 31.78125 4.546875 29.9375 7.71875 
Q 29.046875 9.28125 27.296875 11.96875 
Q 26.46875 13.28125 24.828125 15.625 
Q 23.1875 17.96875 22.078125 19.625 
L 14.203125 7.375 
Q 12.796875 5.171875 12.453125 4.4375 
Q 12.109375 3.71875 12.109375 3.21875 
Q 12.109375 2.296875 12.859375 2 
Q 13.625 1.703125 16.15625 1.375 
L 16.15625 0 
L 1.703125 0 
L 1.703125 1.375 
Q 4.34375 1.90625 5.609375 2.734375 
Q 6.890625 3.5625 8.984375 6.59375 
L 20.359375 23.140625 
L 10.984375 37.359375 
Q 8.15625 41.609375 7.078125 42.390625 
Q 6 43.171875 2.390625 43.5 
L 2.390625 44.875 
z
" id="Times-Roman-120"/>
       <path d="M 8.203125 63.03125 
Q 8.203125 65.140625 9.671875 66.65625 
Q 11.140625 68.171875 13.28125 68.171875 
Q 15.375 68.171875 16.859375 66.671875 
Q 18.359375 65.1875 18.359375 63.03125 
Q 18.359375 60.9375 16.859375 59.4375 
Q 15.375 57.953125 13.28125 57.953125 
Q 11.140625 57.953125 9.671875 59.4375 
Q 8.203125 60.9375 8.203125 63.03125 
z
M 1.953125 1.375 
Q 7.171875 1.859375 8.53125 3.140625 
Q 9.90625 4.4375 9.90625 10.15625 
L 9.90625 33.453125 
Q 9.90625 36.625 9.46875 37.84375 
Q 8.734375 39.84375 6.390625 39.84375 
Q 5.859375 39.84375 5.34375 39.75 
Q 4.828125 39.65625 2.390625 38.96875 
L 2.390625 40.484375 
L 4.5 41.15625 
Q 13.03125 43.953125 16.40625 45.359375 
Q 17.78125 45.953125 18.171875 45.953125 
Q 18.265625 45.609375 18.265625 45.21875 
L 18.265625 10.15625 
Q 18.265625 4.59375 19.609375 3.171875 
Q 20.953125 1.765625 25.6875 1.375 
L 25.6875 0 
L 1.953125 0 
z
" id="Times-Roman-105"/>
       <path d="M 1.609375 1.265625 
Q 5.421875 1.609375 6.6875 2.546875 
Q 8.640625 3.953125 8.640625 8.203125 
L 8.640625 33.453125 
Q 8.640625 37.0625 7.6875 38.1875 
Q 6.734375 39.3125 4.546875 39.3125 
Q 3.515625 39.3125 3 39.203125 
Q 2.484375 39.109375 1.8125 38.875 
L 1.8125 40.578125 
L 5.328125 41.75 
Q 7.234375 42.390625 11.578125 44.046875 
Q 15.921875 45.703125 16.15625 45.703125 
Q 16.40625 45.703125 16.453125 45.453125 
Q 16.5 45.21875 16.5 44.53125 
L 16.5 37.9375 
Q 21.34375 42.328125 24.859375 44.015625 
Q 28.375 45.703125 32.078125 45.703125 
Q 37.109375 45.703125 40.09375 42.28125 
Q 41.65625 40.4375 42.671875 37.25 
Q 46.296875 40.921875 48.96875 42.671875 
Q 53.609375 45.703125 58.453125 45.703125 
Q 66.3125 45.703125 68.953125 39.3125 
Q 70.453125 35.6875 70.453125 27.875 
L 70.453125 7.625 
Q 70.453125 4.15625 71.984375 2.90625 
Q 73.53125 1.65625 77.546875 1.265625 
L 77.546875 0 
L 55.515625 0 
L 55.515625 1.375 
Q 59.765625 1.765625 61.109375 3.078125 
Q 62.453125 4.390625 62.453125 8.453125 
L 62.453125 29.5 
Q 62.453125 34.234375 61.421875 36.46875 
Q 59.625 40.484375 54.34375 40.484375 
Q 51.171875 40.484375 48.046875 38.375 
Q 46.234375 37.15625 43.609375 34.46875 
L 43.609375 9.46875 
Q 43.609375 5.515625 45 3.46875 
Q 46.390625 1.421875 50.875 1.265625 
L 50.875 0 
L 28.46875 0 
L 28.46875 1.265625 
Q 33.109375 1.859375 34.375 3.515625 
Q 35.640625 5.171875 35.640625 11.671875 
L 35.640625 25.34375 
Q 35.640625 32.859375 34.671875 35.6875 
Q 33.0625 40.484375 27.828125 40.484375 
Q 24.859375 40.484375 21.96875 38.84375 
Q 19.09375 37.203125 16.890625 34.578125 
L 16.890625 7.859375 
Q 16.890625 4.15625 18.1875 2.734375 
Q 19.484375 1.3125 23.828125 1.265625 
L 23.828125 0 
L 1.609375 0 
z
" id="Times-Roman-109"/>
       <path d="M 28.65625 27.046875 
Q 23.046875 25.203125 19.390625 22.953125 
Q 12.359375 18.609375 12.359375 13.09375 
Q 12.359375 8.640625 15.28125 6.546875 
Q 17.1875 5.171875 19.53125 5.171875 
Q 22.75 5.171875 25.703125 6.984375 
Q 28.65625 8.796875 28.65625 11.578125 
z
M 3.65625 9.71875 
Q 3.65625 16.796875 10.75 21.53125 
Q 15.234375 24.46875 28.65625 29.5 
L 28.65625 33.640625 
Q 28.65625 38.625 27.6875 40.578125 
Q 26.03125 43.84375 20.796875 43.84375 
Q 18.3125 43.84375 16.0625 42.578125 
Q 13.8125 41.265625 13.8125 38.96875 
Q 13.8125 38.375 14.0625 36.984375 
Q 14.3125 35.59375 14.3125 35.203125 
Q 14.3125 32.46875 12.5 31.390625 
Q 11.46875 30.765625 10.0625 30.765625 
Q 7.859375 30.765625 6.6875 32.203125 
Q 5.515625 33.640625 5.515625 35.40625 
Q 5.515625 38.8125 9.734375 42.546875 
Q 13.96875 46.296875 22.125 46.296875 
Q 31.59375 46.296875 34.96875 40.140625 
Q 36.765625 36.765625 36.765625 30.328125 
L 36.765625 10.75 
Q 36.765625 7.90625 37.15625 6.84375 
Q 37.796875 4.9375 39.796875 4.9375 
Q 40.921875 4.9375 41.65625 5.265625 
Q 42.390625 5.609375 44.1875 6.9375 
L 44.1875 4.390625 
Q 42.625 2.484375 40.828125 1.265625 
Q 38.09375 -0.59375 35.25 -0.59375 
Q 31.9375 -0.59375 30.4375 1.5625 
Q 28.953125 3.71875 28.8125 6.6875 
Q 25.09375 3.46875 22.46875 1.90625 
Q 18.015625 -0.734375 14.015625 -0.734375 
Q 9.8125 -0.734375 6.734375 2.21875 
Q 3.65625 5.171875 3.65625 9.71875 
z
M 22.265625 46.296875 
z
" id="Times-Roman-97"/>
       <path d="M 25.4375 45.015625 
L 25.4375 41.5 
L 15.484375 41.5 
L 15.375 13.375 
Q 15.375 9.671875 16.015625 7.765625 
Q 17.1875 4.390625 20.609375 4.390625 
Q 22.359375 4.390625 23.65625 5.21875 
Q 24.953125 6.0625 26.609375 7.859375 
L 27.875 6.78125 
L 26.8125 5.328125 
Q 24.265625 1.90625 21.4375 0.484375 
Q 18.609375 -0.921875 15.96875 -0.921875 
Q 10.203125 -0.921875 8.15625 4.203125 
Q 7.03125 6.984375 7.03125 11.921875 
L 7.03125 41.5 
L 1.703125 41.5 
Q 1.46875 41.65625 1.34375 41.796875 
Q 1.21875 41.9375 1.21875 42.1875 
Q 1.21875 42.671875 1.4375 42.9375 
Q 1.65625 43.21875 2.828125 44.1875 
Q 6.203125 46.96875 7.6875 48.703125 
Q 9.1875 50.4375 14.703125 57.859375 
Q 15.328125 57.859375 15.453125 57.765625 
Q 15.578125 57.671875 15.578125 57.03125 
L 15.578125 45.015625 
z
" id="Times-Roman-116"/>
      </defs>
      <use xlink:href="#Times-Roman-65"/>
      <use x="72.216797" xlink:href="#Times-Roman-112"/>
      <use x="122.216797" xlink:href="#Times-Roman-112"/>
      <use x="172.216797" xlink:href="#Times-Roman-114"/>
      <use x="205.517578" xlink:href="#Times-Roman-111"/>
      <use x="255.517578" xlink:href="#Times-Roman-120"/>
      <use x="305.517578" xlink:href="#Times-Roman-105"/>
      <use x="333.300781" xlink:href="#Times-Roman-109"/>
      <use x="411.083984" xlink:href="#Times-Roman-97"/>
      <use x="455.46875" xlink:href="#Times-Roman-116"/>
      <use x="483.251953" xlink:href="#Times-Roman-105"/>
      <use x="511.035156" xlink:href="#Times-Roman-111"/>
      <use x="561.035156" xlink:href="#Times-Roman-110"/>
     </g>
    </g>
    <g id="line2d_31">
     <path d="M 266.47221 77.730915 
L 290.47221 77.730915 
" style="fill:none;stroke:#e36f47;stroke-dasharray:5.55,2.4;stroke-dashoffset:0;stroke-linejoin:miter;stroke-width:1.5;"/>
    </g>
    <g id="line2d_32"/>
    <g id="text_18">
     <!-- Optimal Lockdown -->
     <g transform="translate(300.07221 81.930915)scale(0.12 -0.12)">
      <defs>
       <path d="M 14.3125 33.0625 
Q 14.3125 17.28125 20.5 9.734375 
Q 26.703125 2.203125 35.75 2.203125 
Q 44.578125 2.203125 50.84375 9.546875 
Q 57.125 16.890625 57.125 33.0625 
Q 57.125 49.421875 50.78125 56.6875 
Q 44.4375 63.96875 35.75 63.96875 
Q 26.765625 63.96875 20.53125 56.421875 
Q 14.3125 48.875 14.3125 33.0625 
z
M 2.984375 33.0625 
Q 2.984375 49.078125 13.03125 58.734375 
Q 22.265625 67.578125 35.75 67.578125 
Q 49.265625 67.578125 58.5 58.6875 
Q 68.5 49.078125 68.5 33.0625 
Q 68.5 16.796875 58.15625 7.171875 
Q 48.875 -1.421875 35.75 -1.421875 
Q 21.6875 -1.421875 12.40625 8.109375 
Q 2.984375 17.828125 2.984375 33.0625 
z
M 35.75 67.578125 
z
" id="Times-Roman-79"/>
       <path d="M 1.125 1.8125 
Q 6.640625 2.390625 8.265625 3.78125 
Q 9.90625 5.171875 9.90625 10.84375 
L 9.90625 55.328125 
Q 9.90625 60.640625 8.296875 62.28125 
Q 6.6875 63.921875 1.125 64.3125 
L 1.125 66.15625 
L 29.390625 66.15625 
L 29.390625 64.3125 
Q 23.875 64.015625 22 62.5 
Q 20.125 60.984375 20.125 56 
L 20.125 7.953125 
Q 20.125 6.296875 20.671875 5.34375 
Q 21.234375 4.390625 23.140625 4.15625 
Q 24.265625 4 25.515625 3.953125 
Q 26.765625 3.90625 30.171875 3.90625 
Q 43.5 3.90625 48.1875 6.09375 
Q 52.875 8.296875 57.28125 17.328125 
L 59.8125 17.328125 
L 54.9375 0 
L 1.125 0 
z
" id="Times-Roman-76"/>
      </defs>
      <use xlink:href="#Times-Roman-79"/>
      <use x="72.216797" xlink:href="#Times-Roman-112"/>
      <use x="122.216797" xlink:href="#Times-Roman-116"/>
      <use x="150" xlink:href="#Times-Roman-105"/>
      <use x="177.783203" xlink:href="#Times-Roman-109"/>
      <use x="255.566406" xlink:href="#Times-Roman-97"/>
      <use x="299.951172" xlink:href="#Times-Roman-108"/>
      <use x="327.734375" xlink:href="#Times-Roman-32"/>
      <use x="352.734375" xlink:href="#Times-Roman-76"/>
      <use x="413.818359" xlink:href="#Times-Roman-111"/>
      <use x="463.818359" xlink:href="#Times-Roman-99"/>
      <use x="508.203125" xlink:href="#Times-Roman-107"/>
      <use x="558.203125" xlink:href="#Times-Roman-100"/>
      <use x="608.203125" xlink:href="#Times-Roman-111"/>
      <use x="658.203125" xlink:href="#Times-Roman-119"/>
      <use x="730.419922" xlink:href="#Times-Roman-110"/>
     </g>
    </g>
   </g>
  </g>
 </g>
 <defs>
  <clipPath id="pd3d07edb94">
   <rect height="193.865669" width="340.41649" x="68.906345" y="40.917165"/>
  </clipPath>
 </defs>
</svg>
