<?xml version="1.0" encoding="utf-8" standalone="no"?>
<!DOCTYPE svg PUBLIC "-//W3C//DTD SVG 1.1//EN"
  "http://www.w3.org/Graphics/SVG/1.1/DTD/svg11.dtd">
<!-- Created with matplotlib (https://matplotlib.org/) -->
<svg height="288pt" version="1.1" viewBox="0 0 432 288" width="432pt" xmlns="http://www.w3.org/2000/svg" xmlns:xlink="http://www.w3.org/1999/xlink">
 <metadata>
  <rdf:RDF xmlns:cc="http://creativecommons.org/ns#" xmlns:dc="http://purl.org/dc/elements/1.1/" xmlns:rdf="http://www.w3.org/1999/02/22-rdf-syntax-ns#">
   <cc:Work>
    <dc:type rdf:resource="http://purl.org/dc/dcmitype/StillImage"/>
    <dc:date>2021-03-14T15:13:32.890405</dc:date>
    <dc:format>image/svg+xml</dc:format>
    <dc:creator>
     <cc:Agent>
      <dc:title>Matplotlib v3.3.4, https://matplotlib.org/</dc:title>
     </cc:Agent>
    </dc:creator>
   </cc:Work>
  </rdf:RDF>
 </metadata>
 <defs>
  <style type="text/css">*{stroke-linecap:butt;stroke-linejoin:round;}</style>
 </defs>
 <g id="figure_1">
  <g id="patch_1">
   <path d="M 0 288 
L 432 288 
L 432 0 
L 0 0 
z
" style="fill:#ffffff;"/>
  </g>
  <g id="axes_1">
   <g id="patch_2">
    <path d="M 59.906697 235.502835 
L 409.322835 235.502835 
L 409.322835 39.297165 
L 59.906697 39.297165 
z
" style="fill:#ffffff;"/>
   </g>
   <g id="matplotlib.axis_1">
    <g id="xtick_1">
     <g id="line2d_1">
      <path clip-path="url(#pdd651b5175)" d="M 69.795833 235.502835 
L 69.795833 39.297165 
" style="fill:none;stroke:#000000;stroke-linecap:square;stroke-opacity:0.1;stroke-width:0.5;"/>
     </g>
     <g id="line2d_2">
      <defs>
       <path d="M 0 0 
L 0 -2.5 
" id="mc31c2154c8" style="stroke:#000000;stroke-width:0.5;"/>
      </defs>
      <g>
       <use style="stroke:#000000;stroke-width:0.5;" x="69.795833" xlink:href="#mc31c2154c8" y="235.502835"/>
      </g>
     </g>
     <g id="text_1">
      <!-- $\mathregular{0}$ -->
      <g transform="translate(66.795833 247.230335)scale(0.12 -0.12)">
       <defs>
        <path d="M 23.921875 1.8125 
Q 31.109375 1.8125 33.78125 9.671875 
Q 36.46875 17.53125 36.46875 32.421875 
Q 36.46875 44.28125 34.859375 51.375 
Q 31.84375 64.546875 23.53125 64.546875 
Q 15.234375 64.546875 12.15625 50.984375 
Q 10.546875 43.75 10.546875 31.9375 
Q 10.546875 20.84375 12.203125 14.203125 
Q 15.328125 1.8125 23.921875 1.8125 
z
M 23.78125 67.1875 
Q 35.015625 67.1875 41.21875 55.421875 
Q 46.140625 45.90625 46.140625 33.546875 
Q 46.140625 23.828125 43.109375 15.234375 
Q 37.40625 -0.921875 23.34375 -0.921875 
Q 13.71875 -0.921875 7.515625 7.8125 
Q 0.875 17.140625 0.875 33.15625 
Q 0.875 45.75 5.328125 54.828125 
Q 11.328125 67.1875 23.78125 67.1875 
z
" id="Times-Roman-48"/>
       </defs>
       <use transform="translate(0 0.8125)" xlink:href="#Times-Roman-48"/>
      </g>
     </g>
    </g>
    <g id="xtick_2">
     <g id="line2d_3">
      <path clip-path="url(#pdd651b5175)" d="M 145.574652 235.502835 
L 145.574652 39.297165 
" style="fill:none;stroke:#000000;stroke-linecap:square;stroke-opacity:0.1;stroke-width:0.5;"/>
     </g>
     <g id="line2d_4">
      <g>
       <use style="stroke:#000000;stroke-width:0.5;" x="145.574652" xlink:href="#mc31c2154c8" y="235.502835"/>
      </g>
     </g>
     <g id="text_2">
      <!-- $\mathregular{20}$ -->
      <g transform="translate(139.574652 247.230335)scale(0.12 -0.12)">
       <defs>
        <path d="M 2.984375 1.125 
Q 20.84375 19.671875 27.234375 28.359375 
Q 33.640625 37.0625 33.640625 45.3125 
Q 33.640625 52.546875 29.734375 56.328125 
Q 25.828125 60.109375 20.40625 60.109375 
Q 13.71875 60.109375 9.578125 55.21875 
Q 7.28125 52.546875 5.171875 46.96875 
L 3.078125 47.40625 
Q 5.515625 58.640625 11.34375 63.015625 
Q 17.1875 67.390625 23.875 67.390625 
Q 32.125 67.390625 37.21875 62.1875 
Q 42.328125 56.984375 42.328125 49.46875 
Q 42.328125 41.453125 36.8125 34.03125 
Q 31.296875 26.609375 12.84375 7.625 
L 35.25 7.625 
Q 39.9375 7.625 41.84375 8.734375 
Q 43.75 9.859375 46.140625 14.203125 
L 47.40625 13.625 
L 42 0 
L 2.984375 0 
z
" id="Times-Roman-50"/>
       </defs>
       <use transform="translate(0 0.609375)" xlink:href="#Times-Roman-50"/>
       <use transform="translate(50 0.609375)" xlink:href="#Times-Roman-48"/>
      </g>
     </g>
    </g>
    <g id="xtick_3">
     <g id="line2d_5">
      <path clip-path="url(#pdd651b5175)" d="M 221.353472 235.502835 
L 221.353472 39.297165 
" style="fill:none;stroke:#000000;stroke-linecap:square;stroke-opacity:0.1;stroke-width:0.5;"/>
     </g>
     <g id="line2d_6">
      <g>
       <use style="stroke:#000000;stroke-width:0.5;" x="221.353472" xlink:href="#mc31c2154c8" y="235.502835"/>
      </g>
     </g>
     <g id="text_3">
      <!-- $\mathregular{40}$ -->
      <g transform="translate(215.353472 247.230335)scale(0.12 -0.12)">
       <defs>
        <path d="M 29.15625 57.03125 
L 5.171875 23.140625 
L 29.15625 23.140625 
z
M 32.375 67.09375 
L 37.015625 67.09375 
L 37.015625 23.140625 
L 47.21875 23.140625 
L 47.21875 16.65625 
L 37.015625 16.65625 
L 37.015625 0 
L 29.25 0 
L 29.25 16.65625 
L 1.125 16.65625 
L 1.125 23.140625 
z
" id="Times-Roman-52"/>
       </defs>
       <use transform="translate(0 0.8125)" xlink:href="#Times-Roman-52"/>
       <use transform="translate(50 0.8125)" xlink:href="#Times-Roman-48"/>
      </g>
     </g>
    </g>
    <g id="xtick_4">
     <g id="line2d_7">
      <path clip-path="url(#pdd651b5175)" d="M 297.132292 235.502835 
L 297.132292 39.297165 
" style="fill:none;stroke:#000000;stroke-linecap:square;stroke-opacity:0.1;stroke-width:0.5;"/>
     </g>
     <g id="line2d_8">
      <g>
       <use style="stroke:#000000;stroke-width:0.5;" x="297.132292" xlink:href="#mc31c2154c8" y="235.502835"/>
      </g>
     </g>
     <g id="text_4">
      <!-- $\mathregular{60}$ -->
      <g transform="translate(291.132292 247.230335)scale(0.12 -0.12)">
       <defs>
        <path d="M 46.78125 22.21875 
Q 46.78125 13.28125 41.03125 6.09375 
Q 35.296875 -1.078125 26.125 -1.078125 
Q 17.53125 -1.078125 10.46875 6.984375 
Q 3.421875 15.046875 3.421875 28.421875 
Q 3.421875 45.65625 17.09375 58.015625 
Q 29.296875 68.359375 44.53125 68.359375 
L 44.78125 66.75 
Q 38.671875 65.625 34.25 63.6875 
Q 29.828125 61.765625 26.375 58.296875 
Q 22.796875 54.78125 19.671875 49.359375 
Q 16.546875 43.953125 15.375 38.625 
Q 18.40625 40.484375 20.609375 41.359375 
Q 24.515625 42.921875 28.46875 42.921875 
Q 36.234375 42.921875 41.5 37.546875 
Q 46.78125 32.171875 46.78125 22.21875 
z
M 37.84375 18.453125 
Q 37.84375 24.953125 35.796875 29.984375 
Q 32.375 38.375 24.171875 38.375 
Q 16.609375 38.375 14.109375 33.890625 
Q 12.640625 31.25 12.640625 25.09375 
Q 12.640625 17.140625 16.03125 9.515625 
Q 19.4375 1.90625 26.765625 1.90625 
Q 32.5625 1.90625 35.203125 6.859375 
Q 37.84375 11.8125 37.84375 18.453125 
z
" id="Times-Roman-54"/>
       </defs>
       <use transform="translate(0 0.640625)" xlink:href="#Times-Roman-54"/>
       <use transform="translate(50 0.640625)" xlink:href="#Times-Roman-48"/>
      </g>
     </g>
    </g>
    <g id="xtick_5">
     <g id="line2d_9">
      <path clip-path="url(#pdd651b5175)" d="M 372.911112 235.502835 
L 372.911112 39.297165 
" style="fill:none;stroke:#000000;stroke-linecap:square;stroke-opacity:0.1;stroke-width:0.5;"/>
     </g>
     <g id="line2d_10">
      <g>
       <use style="stroke:#000000;stroke-width:0.5;" x="372.911112" xlink:href="#mc31c2154c8" y="235.502835"/>
      </g>
     </g>
     <g id="text_5">
      <!-- $\mathregular{80}$ -->
      <g transform="translate(366.911112 247.230335)scale(0.12 -0.12)">
       <defs>
        <path d="M 25.140625 1.65625 
Q 30.765625 1.65625 33.640625 4.78125 
Q 36.53125 7.90625 36.53125 12.59375 
Q 36.53125 17.921875 33.46875 21.21875 
Q 30.421875 24.515625 20.953125 31.203125 
Q 16.75 28.5625 14.84375 24.359375 
Q 12.9375 20.171875 12.9375 16.265625 
Q 12.9375 9.578125 16.375 5.609375 
Q 19.828125 1.65625 25.140625 1.65625 
z
M 25.78125 38.96875 
Q 30.375 42.1875 32.125 44.390625 
Q 35.15625 48.140625 35.15625 53.46875 
Q 35.15625 58.109375 32.296875 61.34375 
Q 29.4375 64.59375 23.640625 64.59375 
Q 19.140625 64.59375 16.203125 61.765625 
Q 13.28125 58.9375 13.28125 54.890625 
Q 13.28125 50.296875 16.71875 46.359375 
Q 20.171875 42.4375 25.78125 38.96875 
z
M 18.265625 33.296875 
Q 11.8125 38.484375 9.46875 41.546875 
Q 5.859375 46.234375 5.859375 51.90625 
Q 5.859375 58.34375 11.203125 62.828125 
Q 16.546875 67.328125 25.09375 67.328125 
Q 32.953125 67.328125 37.59375 63.078125 
Q 42.234375 58.84375 42.234375 53.21875 
Q 42.234375 47.515625 37.5 42.96875 
Q 34.765625 40.375 28.65625 37.015625 
Q 36.96875 30.859375 40.546875 26.296875 
Q 44.140625 21.734375 44.140625 15.53125 
Q 44.140625 8.5 38.84375 3.703125 
Q 33.546875 -1.078125 24.65625 -1.078125 
Q 16.703125 -1.078125 11.015625 3.34375 
Q 5.328125 7.765625 5.328125 14.984375 
Q 5.328125 21.1875 9.28125 25.921875 
Q 11.859375 29 18.265625 33.296875 
z
" id="Times-Roman-56"/>
       </defs>
       <use transform="translate(0 0.671875)" xlink:href="#Times-Roman-56"/>
       <use transform="translate(50 0.671875)" xlink:href="#Times-Roman-48"/>
      </g>
     </g>
    </g>
    <g id="text_6">
     <!-- SD Start Time ts [days] -->
     <g transform="translate(164.898516 262.96221)scale(0.12 -0.12)">
      <defs>
       <path d="M 53.515625 70.515625 
L 53.515625 60.890625 
Q 47.90625 63.578125 42.921875 64.890625 
Q 37.9375 66.21875 33.296875 66.21875 
Q 25.25 66.21875 20.875 63.09375 
Q 16.5 59.96875 16.5 54.203125 
Q 16.5 49.359375 19.40625 46.890625 
Q 22.3125 44.4375 30.421875 42.921875 
L 36.375 41.703125 
Q 47.40625 39.59375 52.65625 34.296875 
Q 57.90625 29 57.90625 20.125 
Q 57.90625 9.515625 50.796875 4.046875 
Q 43.703125 -1.421875 29.984375 -1.421875 
Q 24.8125 -1.421875 18.96875 -0.25 
Q 13.140625 0.921875 6.890625 3.21875 
L 6.890625 13.375 
Q 12.890625 10.015625 18.65625 8.296875 
Q 24.421875 6.59375 29.984375 6.59375 
Q 38.421875 6.59375 43.015625 9.90625 
Q 47.609375 13.234375 47.609375 19.390625 
Q 47.609375 24.75 44.3125 27.78125 
Q 41.015625 30.8125 33.5 32.328125 
L 27.484375 33.5 
Q 16.453125 35.6875 11.515625 40.375 
Q 6.59375 45.0625 6.59375 53.421875 
Q 6.59375 63.09375 13.40625 68.65625 
Q 20.21875 74.21875 32.171875 74.21875 
Q 37.3125 74.21875 42.625 73.28125 
Q 47.953125 72.359375 53.515625 70.515625 
z
" id="DejaVuSans-83"/>
       <path d="M 19.671875 64.796875 
L 19.671875 8.109375 
L 31.59375 8.109375 
Q 46.6875 8.109375 53.6875 14.9375 
Q 60.6875 21.78125 60.6875 36.53125 
Q 60.6875 51.171875 53.6875 57.984375 
Q 46.6875 64.796875 31.59375 64.796875 
z
M 9.8125 72.90625 
L 30.078125 72.90625 
Q 51.265625 72.90625 61.171875 64.09375 
Q 71.09375 55.28125 71.09375 36.53125 
Q 71.09375 17.671875 61.125 8.828125 
Q 51.171875 0 30.078125 0 
L 9.8125 0 
z
" id="DejaVuSans-68"/>
       <path id="DejaVuSans-32"/>
       <path d="M 18.3125 70.21875 
L 18.3125 54.6875 
L 36.8125 54.6875 
L 36.8125 47.703125 
L 18.3125 47.703125 
L 18.3125 18.015625 
Q 18.3125 11.328125 20.140625 9.421875 
Q 21.96875 7.515625 27.59375 7.515625 
L 36.8125 7.515625 
L 36.8125 0 
L 27.59375 0 
Q 17.1875 0 13.234375 3.875 
Q 9.28125 7.765625 9.28125 18.015625 
L 9.28125 47.703125 
L 2.6875 47.703125 
L 2.6875 54.6875 
L 9.28125 54.6875 
L 9.28125 70.21875 
z
" id="DejaVuSans-116"/>
       <path d="M 34.28125 27.484375 
Q 23.390625 27.484375 19.1875 25 
Q 14.984375 22.515625 14.984375 16.5 
Q 14.984375 11.71875 18.140625 8.90625 
Q 21.296875 6.109375 26.703125 6.109375 
Q 34.1875 6.109375 38.703125 11.40625 
Q 43.21875 16.703125 43.21875 25.484375 
L 43.21875 27.484375 
z
M 52.203125 31.203125 
L 52.203125 0 
L 43.21875 0 
L 43.21875 8.296875 
Q 40.140625 3.328125 35.546875 0.953125 
Q 30.953125 -1.421875 24.3125 -1.421875 
Q 15.921875 -1.421875 10.953125 3.296875 
Q 6 8.015625 6 15.921875 
Q 6 25.140625 12.171875 29.828125 
Q 18.359375 34.515625 30.609375 34.515625 
L 43.21875 34.515625 
L 43.21875 35.40625 
Q 43.21875 41.609375 39.140625 45 
Q 35.0625 48.390625 27.6875 48.390625 
Q 23 48.390625 18.546875 47.265625 
Q 14.109375 46.140625 10.015625 43.890625 
L 10.015625 52.203125 
Q 14.9375 54.109375 19.578125 55.046875 
Q 24.21875 56 28.609375 56 
Q 40.484375 56 46.34375 49.84375 
Q 52.203125 43.703125 52.203125 31.203125 
z
" id="DejaVuSans-97"/>
       <path d="M 41.109375 46.296875 
Q 39.59375 47.171875 37.8125 47.578125 
Q 36.03125 48 33.890625 48 
Q 26.265625 48 22.1875 43.046875 
Q 18.109375 38.09375 18.109375 28.8125 
L 18.109375 0 
L 9.078125 0 
L 9.078125 54.6875 
L 18.109375 54.6875 
L 18.109375 46.1875 
Q 20.953125 51.171875 25.484375 53.578125 
Q 30.03125 56 36.53125 56 
Q 37.453125 56 38.578125 55.875 
Q 39.703125 55.765625 41.0625 55.515625 
z
" id="DejaVuSans-114"/>
       <path d="M -0.296875 72.90625 
L 61.375 72.90625 
L 61.375 64.59375 
L 35.5 64.59375 
L 35.5 0 
L 25.59375 0 
L 25.59375 64.59375 
L -0.296875 64.59375 
z
" id="DejaVuSans-84"/>
       <path d="M 9.421875 54.6875 
L 18.40625 54.6875 
L 18.40625 0 
L 9.421875 0 
z
M 9.421875 75.984375 
L 18.40625 75.984375 
L 18.40625 64.59375 
L 9.421875 64.59375 
z
" id="DejaVuSans-105"/>
       <path d="M 52 44.1875 
Q 55.375 50.25 60.0625 53.125 
Q 64.75 56 71.09375 56 
Q 79.640625 56 84.28125 50.015625 
Q 88.921875 44.046875 88.921875 33.015625 
L 88.921875 0 
L 79.890625 0 
L 79.890625 32.71875 
Q 79.890625 40.578125 77.09375 44.375 
Q 74.3125 48.1875 68.609375 48.1875 
Q 61.625 48.1875 57.5625 43.546875 
Q 53.515625 38.921875 53.515625 30.90625 
L 53.515625 0 
L 44.484375 0 
L 44.484375 32.71875 
Q 44.484375 40.625 41.703125 44.40625 
Q 38.921875 48.1875 33.109375 48.1875 
Q 26.21875 48.1875 22.15625 43.53125 
Q 18.109375 38.875 18.109375 30.90625 
L 18.109375 0 
L 9.078125 0 
L 9.078125 54.6875 
L 18.109375 54.6875 
L 18.109375 46.1875 
Q 21.1875 51.21875 25.484375 53.609375 
Q 29.78125 56 35.6875 56 
Q 41.65625 56 45.828125 52.96875 
Q 50 49.953125 52 44.1875 
z
" id="DejaVuSans-109"/>
       <path d="M 56.203125 29.59375 
L 56.203125 25.203125 
L 14.890625 25.203125 
Q 15.484375 15.921875 20.484375 11.0625 
Q 25.484375 6.203125 34.421875 6.203125 
Q 39.59375 6.203125 44.453125 7.46875 
Q 49.3125 8.734375 54.109375 11.28125 
L 54.109375 2.78125 
Q 49.265625 0.734375 44.1875 -0.34375 
Q 39.109375 -1.421875 33.890625 -1.421875 
Q 20.796875 -1.421875 13.15625 6.1875 
Q 5.515625 13.8125 5.515625 26.8125 
Q 5.515625 40.234375 12.765625 48.109375 
Q 20.015625 56 32.328125 56 
Q 43.359375 56 49.78125 48.890625 
Q 56.203125 41.796875 56.203125 29.59375 
z
M 47.21875 32.234375 
Q 47.125 39.59375 43.09375 43.984375 
Q 39.0625 48.390625 32.421875 48.390625 
Q 24.90625 48.390625 20.390625 44.140625 
Q 15.875 39.890625 15.1875 32.171875 
z
" id="DejaVuSans-101"/>
       <path d="M 44.28125 53.078125 
L 44.28125 44.578125 
Q 40.484375 46.53125 36.375 47.5 
Q 32.28125 48.484375 27.875 48.484375 
Q 21.1875 48.484375 17.84375 46.4375 
Q 14.5 44.390625 14.5 40.28125 
Q 14.5 37.15625 16.890625 35.375 
Q 19.28125 33.59375 26.515625 31.984375 
L 29.59375 31.296875 
Q 39.15625 29.25 43.1875 25.515625 
Q 47.21875 21.78125 47.21875 15.09375 
Q 47.21875 7.46875 41.1875 3.015625 
Q 35.15625 -1.421875 24.609375 -1.421875 
Q 20.21875 -1.421875 15.453125 -0.5625 
Q 10.6875 0.296875 5.421875 2 
L 5.421875 11.28125 
Q 10.40625 8.6875 15.234375 7.390625 
Q 20.0625 6.109375 24.8125 6.109375 
Q 31.15625 6.109375 34.5625 8.28125 
Q 37.984375 10.453125 37.984375 14.40625 
Q 37.984375 18.0625 35.515625 20.015625 
Q 33.0625 21.96875 24.703125 23.78125 
L 21.578125 24.515625 
Q 13.234375 26.265625 9.515625 29.90625 
Q 5.8125 33.546875 5.8125 39.890625 
Q 5.8125 47.609375 11.28125 51.796875 
Q 16.75 56 26.8125 56 
Q 31.78125 56 36.171875 55.265625 
Q 40.578125 54.546875 44.28125 53.078125 
z
" id="DejaVuSans-115"/>
       <path d="M 8.59375 75.984375 
L 29.296875 75.984375 
L 29.296875 69 
L 17.578125 69 
L 17.578125 -6.203125 
L 29.296875 -6.203125 
L 29.296875 -13.1875 
L 8.59375 -13.1875 
z
" id="DejaVuSans-91"/>
       <path d="M 45.40625 46.390625 
L 45.40625 75.984375 
L 54.390625 75.984375 
L 54.390625 0 
L 45.40625 0 
L 45.40625 8.203125 
Q 42.578125 3.328125 38.25 0.953125 
Q 33.9375 -1.421875 27.875 -1.421875 
Q 17.96875 -1.421875 11.734375 6.484375 
Q 5.515625 14.40625 5.515625 27.296875 
Q 5.515625 40.1875 11.734375 48.09375 
Q 17.96875 56 27.875 56 
Q 33.9375 56 38.25 53.625 
Q 42.578125 51.265625 45.40625 46.390625 
z
M 14.796875 27.296875 
Q 14.796875 17.390625 18.875 11.75 
Q 22.953125 6.109375 30.078125 6.109375 
Q 37.203125 6.109375 41.296875 11.75 
Q 45.40625 17.390625 45.40625 27.296875 
Q 45.40625 37.203125 41.296875 42.84375 
Q 37.203125 48.484375 30.078125 48.484375 
Q 22.953125 48.484375 18.875 42.84375 
Q 14.796875 37.203125 14.796875 27.296875 
z
" id="DejaVuSans-100"/>
       <path d="M 32.171875 -5.078125 
Q 28.375 -14.84375 24.75 -17.8125 
Q 21.140625 -20.796875 15.09375 -20.796875 
L 7.90625 -20.796875 
L 7.90625 -13.28125 
L 13.1875 -13.28125 
Q 16.890625 -13.28125 18.9375 -11.515625 
Q 21 -9.765625 23.484375 -3.21875 
L 25.09375 0.875 
L 2.984375 54.6875 
L 12.5 54.6875 
L 29.59375 11.921875 
L 46.6875 54.6875 
L 56.203125 54.6875 
z
" id="DejaVuSans-121"/>
       <path d="M 30.421875 75.984375 
L 30.421875 -13.1875 
L 9.71875 -13.1875 
L 9.71875 -6.203125 
L 21.390625 -6.203125 
L 21.390625 69 
L 9.71875 69 
L 9.71875 75.984375 
z
" id="DejaVuSans-93"/>
      </defs>
      <use xlink:href="#DejaVuSans-83"/>
      <use x="63.476562" xlink:href="#DejaVuSans-68"/>
      <use x="140.478516" xlink:href="#DejaVuSans-32"/>
      <use x="172.265625" xlink:href="#DejaVuSans-83"/>
      <use x="235.742188" xlink:href="#DejaVuSans-116"/>
      <use x="274.951172" xlink:href="#DejaVuSans-97"/>
      <use x="336.230469" xlink:href="#DejaVuSans-114"/>
      <use x="377.34375" xlink:href="#DejaVuSans-116"/>
      <use x="416.552734" xlink:href="#DejaVuSans-32"/>
      <use x="448.339844" xlink:href="#DejaVuSans-84"/>
      <use x="506.298828" xlink:href="#DejaVuSans-105"/>
      <use x="534.082031" xlink:href="#DejaVuSans-109"/>
      <use x="631.494141" xlink:href="#DejaVuSans-101"/>
      <use x="693.017578" xlink:href="#DejaVuSans-32"/>
      <use x="724.804688" xlink:href="#DejaVuSans-116"/>
      <use x="764.013672" xlink:href="#DejaVuSans-115"/>
      <use x="816.113281" xlink:href="#DejaVuSans-32"/>
      <use x="847.900391" xlink:href="#DejaVuSans-91"/>
      <use x="886.914062" xlink:href="#DejaVuSans-100"/>
      <use x="950.390625" xlink:href="#DejaVuSans-97"/>
      <use x="1011.669922" xlink:href="#DejaVuSans-121"/>
      <use x="1070.849609" xlink:href="#DejaVuSans-115"/>
      <use x="1122.949219" xlink:href="#DejaVuSans-93"/>
     </g>
    </g>
   </g>
   <g id="matplotlib.axis_2">
    <g id="ytick_1">
     <g id="line2d_11">
      <path clip-path="url(#pdd651b5175)" d="M 59.906697 229.949844 
L 409.322835 229.949844 
" style="fill:none;stroke:#000000;stroke-linecap:square;stroke-opacity:0.1;stroke-width:0.5;"/>
     </g>
     <g id="line2d_12">
      <defs>
       <path d="M 0 0 
L 2.5 0 
" id="md2d8343a5f" style="stroke:#000000;stroke-width:0.5;"/>
      </defs>
      <g>
       <use style="stroke:#000000;stroke-width:0.5;" x="59.906697" xlink:href="#md2d8343a5f" y="229.949844"/>
      </g>
     </g>
     <g id="text_7">
      <!-- $\mathregular{0}$ -->
      <g transform="translate(50.406697 234.063594)scale(0.12 -0.12)">
       <use transform="translate(0 0.8125)" xlink:href="#Times-Roman-48"/>
      </g>
     </g>
    </g>
    <g id="ytick_2">
     <g id="line2d_13">
      <path clip-path="url(#pdd651b5175)" d="M 59.906697 168.249948 
L 409.322835 168.249948 
" style="fill:none;stroke:#000000;stroke-linecap:square;stroke-opacity:0.1;stroke-width:0.5;"/>
     </g>
     <g id="line2d_14">
      <g>
       <use style="stroke:#000000;stroke-width:0.5;" x="59.906697" xlink:href="#md2d8343a5f" y="168.249948"/>
      </g>
     </g>
     <g id="text_8">
      <!-- $\mathregular{100}$ -->
      <g transform="translate(38.406697 172.363698)scale(0.12 -0.12)">
       <defs>
        <path d="M 29.59375 67.09375 
Q 29.78125 66.84375 29.796875 66.71875 
Q 29.828125 66.609375 29.828125 66.15625 
L 29.828125 7.375 
Q 29.828125 3.609375 31.828125 2.578125 
Q 33.84375 1.5625 39.3125 1.375 
L 39.3125 0 
L 11.765625 0 
L 11.765625 1.46875 
Q 17.671875 1.765625 19.484375 3.078125 
Q 21.296875 4.390625 21.296875 8.796875 
L 21.296875 54 
Q 21.296875 56.34375 20.703125 57.5625 
Q 20.125 58.796875 18.171875 58.796875 
Q 16.890625 58.796875 14.859375 58.078125 
Q 12.84375 57.375 11.078125 56.59375 
L 11.078125 57.953125 
L 29 67.09375 
L 29.59375 67.09375 
z
" id="Times-Roman-49"/>
       </defs>
       <use transform="translate(0 0.8125)" xlink:href="#Times-Roman-49"/>
       <use transform="translate(50 0.8125)" xlink:href="#Times-Roman-48"/>
       <use transform="translate(100 0.8125)" xlink:href="#Times-Roman-48"/>
      </g>
     </g>
    </g>
    <g id="ytick_3">
     <g id="line2d_15">
      <path clip-path="url(#pdd651b5175)" d="M 59.906697 106.550052 
L 409.322835 106.550052 
" style="fill:none;stroke:#000000;stroke-linecap:square;stroke-opacity:0.1;stroke-width:0.5;"/>
     </g>
     <g id="line2d_16">
      <g>
       <use style="stroke:#000000;stroke-width:0.5;" x="59.906697" xlink:href="#md2d8343a5f" y="106.550052"/>
      </g>
     </g>
     <g id="text_9">
      <!-- $\mathregular{200}$ -->
      <g transform="translate(38.406697 110.663802)scale(0.12 -0.12)">
       <use transform="translate(0 0.609375)" xlink:href="#Times-Roman-50"/>
       <use transform="translate(50 0.609375)" xlink:href="#Times-Roman-48"/>
       <use transform="translate(100 0.609375)" xlink:href="#Times-Roman-48"/>
      </g>
     </g>
    </g>
    <g id="ytick_4">
     <g id="line2d_17">
      <path clip-path="url(#pdd651b5175)" d="M 59.906697 44.850156 
L 409.322835 44.850156 
" style="fill:none;stroke:#000000;stroke-linecap:square;stroke-opacity:0.1;stroke-width:0.5;"/>
     </g>
     <g id="line2d_18">
      <g>
       <use style="stroke:#000000;stroke-width:0.5;" x="59.906697" xlink:href="#md2d8343a5f" y="44.850156"/>
      </g>
     </g>
     <g id="text_10">
      <!-- $\mathregular{300}$ -->
      <g transform="translate(38.406697 48.963906)scale(0.12 -0.12)">
       <defs>
        <path d="M 7.765625 8.5 
Q 10.453125 8.5 14.859375 5.71875 
Q 19.28125 2.9375 22.359375 2.9375 
Q 29.203125 2.9375 32.515625 7.546875 
Q 35.84375 12.15625 35.84375 17.578125 
Q 35.84375 22.796875 33.15625 26.765625 
Q 28.609375 33.453125 17.828125 33.453125 
Q 17.1875 33.453125 16.59375 33.421875 
Q 16.015625 33.40625 15.234375 33.296875 
L 15.140625 34.578125 
Q 22.953125 37.40625 27.4375 41.0625 
Q 31.9375 44.734375 31.9375 50.734375 
Q 31.9375 56.0625 28.390625 58.84375 
Q 24.859375 61.625 20.3125 61.625 
Q 14.9375 61.625 10.84375 57.671875 
Q 8.59375 55.515625 6 51.03125 
L 4.5 51.375 
Q 6.453125 58.796875 11.765625 63.234375 
Q 17.09375 67.671875 24.078125 67.671875 
Q 31.546875 67.671875 35.625 63.5625 
Q 39.703125 59.46875 39.703125 54.109375 
Q 39.703125 49.359375 36.328125 45.40625 
Q 34.421875 43.171875 30.421875 40.375 
Q 35.109375 38.375 37.9375 35.6875 
Q 43.265625 30.5625 43.265625 22.703125 
Q 43.265625 13.421875 35.953125 6.34375 
Q 28.65625 -0.734375 15.1875 -0.734375 
Q 9.1875 -0.734375 6.765625 1.046875 
Q 4.34375 2.828125 4.34375 4.890625 
Q 4.34375 6.15625 5.140625 7.328125 
Q 5.953125 8.5 7.765625 8.5 
z
" id="Times-Roman-51"/>
       </defs>
       <use transform="translate(0 0.328125)" xlink:href="#Times-Roman-51"/>
       <use transform="translate(50 0.328125)" xlink:href="#Times-Roman-48"/>
       <use transform="translate(100 0.328125)" xlink:href="#Times-Roman-48"/>
      </g>
     </g>
    </g>
    <g id="text_11">
     <!-- SD Duration td [days] -->
     <g transform="translate(31.911072 202.614375)rotate(-90)scale(0.12 -0.12)">
      <defs>
       <path d="M 8.5 21.578125 
L 8.5 54.6875 
L 17.484375 54.6875 
L 17.484375 21.921875 
Q 17.484375 14.15625 20.5 10.265625 
Q 23.53125 6.390625 29.59375 6.390625 
Q 36.859375 6.390625 41.078125 11.03125 
Q 45.3125 15.671875 45.3125 23.6875 
L 45.3125 54.6875 
L 54.296875 54.6875 
L 54.296875 0 
L 45.3125 0 
L 45.3125 8.40625 
Q 42.046875 3.421875 37.71875 1 
Q 33.40625 -1.421875 27.6875 -1.421875 
Q 18.265625 -1.421875 13.375 4.4375 
Q 8.5 10.296875 8.5 21.578125 
z
M 31.109375 56 
z
" id="DejaVuSans-117"/>
       <path d="M 30.609375 48.390625 
Q 23.390625 48.390625 19.1875 42.75 
Q 14.984375 37.109375 14.984375 27.296875 
Q 14.984375 17.484375 19.15625 11.84375 
Q 23.34375 6.203125 30.609375 6.203125 
Q 37.796875 6.203125 41.984375 11.859375 
Q 46.1875 17.53125 46.1875 27.296875 
Q 46.1875 37.015625 41.984375 42.703125 
Q 37.796875 48.390625 30.609375 48.390625 
z
M 30.609375 56 
Q 42.328125 56 49.015625 48.375 
Q 55.71875 40.765625 55.71875 27.296875 
Q 55.71875 13.875 49.015625 6.21875 
Q 42.328125 -1.421875 30.609375 -1.421875 
Q 18.84375 -1.421875 12.171875 6.21875 
Q 5.515625 13.875 5.515625 27.296875 
Q 5.515625 40.765625 12.171875 48.375 
Q 18.84375 56 30.609375 56 
z
" id="DejaVuSans-111"/>
       <path d="M 54.890625 33.015625 
L 54.890625 0 
L 45.90625 0 
L 45.90625 32.71875 
Q 45.90625 40.484375 42.875 44.328125 
Q 39.84375 48.1875 33.796875 48.1875 
Q 26.515625 48.1875 22.3125 43.546875 
Q 18.109375 38.921875 18.109375 30.90625 
L 18.109375 0 
L 9.078125 0 
L 9.078125 54.6875 
L 18.109375 54.6875 
L 18.109375 46.1875 
Q 21.34375 51.125 25.703125 53.5625 
Q 30.078125 56 35.796875 56 
Q 45.21875 56 50.046875 50.171875 
Q 54.890625 44.34375 54.890625 33.015625 
z
" id="DejaVuSans-110"/>
      </defs>
      <use xlink:href="#DejaVuSans-83"/>
      <use x="63.476562" xlink:href="#DejaVuSans-68"/>
      <use x="140.478516" xlink:href="#DejaVuSans-32"/>
      <use x="172.265625" xlink:href="#DejaVuSans-68"/>
      <use x="249.267578" xlink:href="#DejaVuSans-117"/>
      <use x="312.646484" xlink:href="#DejaVuSans-114"/>
      <use x="353.759766" xlink:href="#DejaVuSans-97"/>
      <use x="415.039062" xlink:href="#DejaVuSans-116"/>
      <use x="454.248047" xlink:href="#DejaVuSans-105"/>
      <use x="482.03125" xlink:href="#DejaVuSans-111"/>
      <use x="543.212891" xlink:href="#DejaVuSans-110"/>
      <use x="606.591797" xlink:href="#DejaVuSans-32"/>
      <use x="638.378906" xlink:href="#DejaVuSans-116"/>
      <use x="677.587891" xlink:href="#DejaVuSans-100"/>
      <use x="741.064453" xlink:href="#DejaVuSans-32"/>
      <use x="772.851562" xlink:href="#DejaVuSans-91"/>
      <use x="811.865234" xlink:href="#DejaVuSans-100"/>
      <use x="875.341797" xlink:href="#DejaVuSans-97"/>
      <use x="936.621094" xlink:href="#DejaVuSans-121"/>
      <use x="995.800781" xlink:href="#DejaVuSans-115"/>
      <use x="1047.900391" xlink:href="#DejaVuSans-93"/>
     </g>
    </g>
   </g>
   <g id="LineCollection_1">
    <path clip-path="url(#pdd651b5175)" d="M 71.153915 44.850156 
L 71.153915 45.467155 
L 71.153915 46.084154 
L 71.153915 46.701153 
L 71.153915 47.318152 
L 71.153915 47.935151 
L 71.153915 48.55215 
L 71.153915 49.169149 
L 71.153915 49.786148 
L 71.153915 50.403147 
L 71.153915 51.020146 
L 71.153915 51.637145 
L 71.153915 52.254144 
L 71.153915 52.871142 
L 71.153915 53.488141 
L 71.153915 54.10514 
L 69.795833 54.123003 
" style="fill:none;stroke:#ffffff;"/>
   </g>
   <g id="LineCollection_2">
    <path clip-path="url(#pdd651b5175)" d="M 197.26889 44.850156 
L 197.26889 45.23578 
" style="fill:none;stroke:#dfdfff;"/>
    <path clip-path="url(#pdd651b5175)" d="M 197.26889 69.14449 
L 197.192575 138.633998 
L 196.711826 139.250997 
L 195.731288 139.867996 
L 194.830885 140.151098 
L 170.134504 126.911018 
L 146.589724 114.571038 
L 119.052065 100.534948 
L 99.001694 90.508079 
L 69.795833 76.081602 
L 69.795833 76.081602 
" style="fill:none;stroke:#dfdfff;"/>
   </g>
   <g id="LineCollection_3">
    <path clip-path="url(#pdd651b5175)" d="M 214.890024 44.850156 
L 214.890024 45.467155 
L 214.890024 46.084154 
L 214.890024 46.701153 
L 214.890024 47.318152 
L 214.890024 47.935151 
L 214.890024 48.55215 
L 214.890024 49.169149 
L 214.890024 49.786148 
L 214.890024 50.403147 
L 214.890024 51.020146 
L 214.890024 51.637145 
L 214.890024 52.254144 
L 214.890024 52.871142 
L 214.890024 53.488141 
L 214.890024 54.10514 
L 214.890024 54.722139 
L 214.890024 55.339138 
L 214.890024 55.956137 
L 214.890024 56.573136 
L 214.890024 57.190135 
L 214.890024 57.807134 
L 214.890024 58.424133 
L 214.890024 59.041132 
L 214.890024 59.658131 
L 214.890024 60.27513 
L 214.890024 60.892129 
L 214.890024 61.509128 
L 214.890024 62.126127 
L 214.890024 62.743126 
L 214.890024 63.360125 
L 214.890024 63.977124 
L 214.890024 64.594123 
L 214.890024 65.211122 
L 214.890024 65.828121 
L 214.890024 66.44512 
L 214.890024 67.062119 
L 214.890024 67.679118 
L 214.890024 68.296116 
L 214.890024 68.913115 
L 214.890024 69.530114 
L 214.890024 70.147113 
L 214.890024 70.532738 
" style="fill:none;stroke:#bfbfff;"/>
    <path clip-path="url(#pdd651b5175)" d="M 214.890024 94.441447 
L 214.890024 164.547954 
L 214.590225 165.164953 
L 213.77559 166.062417 
L 198.357195 158.377965 
L 171.862104 144.803988 
L 142.961219 129.996012 
L 108.592873 112.720042 
L 69.795833 93.553041 
L 69.795833 93.553041 
" style="fill:none;stroke:#bfbfff;"/>
   </g>
   <g id="LineCollection_4">
    <path clip-path="url(#pdd651b5175)" d="M 226.436044 44.850156 
L 226.436044 45.23578 
" style="fill:none;stroke:#9f9fff;"/>
    <path clip-path="url(#pdd651b5175)" d="M 226.436044 69.14449 
L 226.436044 182.440924 
L 226.280632 183.057923 
L 225.72526 183.674922 
L 225.142413 184.124489 
L 215.43992 179.972928 
L 204.478601 175.036937 
L 192.666858 169.483946 
L 177.446934 162.079958 
L 155.140077 150.973977 
L 96.912696 121.975026 
L 69.795833 108.628596 
L 69.795833 108.628596 
" style="fill:none;stroke:#9f9fff;"/>
   </g>
   <g id="LineCollection_5">
    <path clip-path="url(#pdd651b5175)" d="M 238.633274 44.850156 
L 238.633274 45.467155 
L 238.633274 46.084154 
L 238.633274 46.701153 
L 238.633274 47.318152 
L 238.633274 47.935151 
L 238.633274 48.55215 
L 238.633274 49.169149 
L 238.633274 49.786148 
L 238.633274 50.403147 
L 238.633274 51.020146 
L 238.633274 51.637145 
L 238.633274 52.254144 
L 238.633274 52.871142 
L 238.633274 53.488141 
L 238.633274 54.10514 
L 238.633274 54.722139 
L 238.633274 55.339138 
L 238.633274 55.956137 
L 238.633274 56.573136 
L 238.633274 57.190135 
L 238.633274 57.807134 
L 238.633274 58.424133 
L 238.633274 59.041132 
L 238.633274 59.658131 
L 238.633274 60.27513 
L 238.633274 60.892129 
L 238.633274 61.509128 
L 238.633274 62.126127 
L 238.633274 62.743126 
L 238.633274 63.360125 
L 238.633274 63.977124 
L 238.633274 64.594123 
L 238.633274 65.211122 
L 238.633274 65.828121 
L 238.633274 66.44512 
L 238.633274 67.062119 
L 238.633274 67.679118 
L 238.633274 68.296116 
L 238.633274 68.913115 
L 238.633274 69.530114 
L 238.633274 70.147113 
L 238.633274 70.764112 
L 238.633274 71.381111 
L 238.633274 71.99811 
L 238.633274 72.615109 
L 238.633274 73.232108 
L 238.633274 73.849107 
L 238.633274 74.466106 
L 238.633274 75.083105 
L 238.633274 75.700104 
L 238.633274 76.317103 
L 238.633274 76.934102 
L 238.633274 77.551101 
L 238.633274 78.1681 
L 238.633274 78.785099 
L 238.633274 79.402098 
L 238.633274 80.019097 
L 238.633274 80.636096 
L 238.633274 81.253095 
L 238.633274 81.870094 
L 238.633274 82.487093 
L 238.633274 83.104092 
L 238.633274 83.72109 
L 238.633274 84.338089 
L 238.633274 84.955088 
L 238.633274 85.572087 
L 238.633274 86.189086 
L 238.633274 86.806085 
L 238.633274 87.423084 
L 238.633274 88.040083 
L 238.633274 88.657082 
L 238.633274 89.274081 
L 238.633274 89.89108 
L 238.633274 90.508079 
L 238.633274 91.125078 
L 238.633274 91.742077 
L 238.633274 92.359076 
L 238.633274 92.976075 
L 238.633274 93.593074 
L 238.633274 94.210073 
L 238.633274 94.827072 
L 238.633274 95.444071 
L 238.633274 95.829695 
" style="fill:none;stroke:#7f7fff;"/>
    <path clip-path="url(#pdd651b5175)" d="M 238.633274 119.738405 
L 238.633274 197.248899 
L 238.211679 197.865898 
L 237.438377 198.482897 
L 236.509236 198.887661 
L 227.953903 196.014901 
L 219.431856 192.929906 
L 209.895408 189.227913 
L 199.476801 184.90892 
L 189.605751 180.589927 
L 177.467663 175.036937 
L 163.166403 168.249948 
L 141.640954 157.760966 
L 69.795833 122.409398 
L 69.795833 122.409398 
" style="fill:none;stroke:#7f7fff;"/>
   </g>
   <g id="LineCollection_6">
    <path clip-path="url(#pdd651b5175)" d="M 252.199899 44.850156 
L 252.199899 45.467155 
L 252.199899 46.084154 
L 252.199899 46.701153 
L 252.199899 47.318152 
L 252.199899 47.935151 
L 252.199899 48.55215 
L 252.199899 49.169149 
L 252.199899 49.786148 
L 252.199899 50.403147 
L 252.199899 51.020146 
L 252.199899 51.637145 
L 252.199899 52.254144 
L 252.199899 52.871142 
L 252.199899 53.488141 
L 252.199899 54.10514 
L 252.199899 54.722139 
L 252.199899 55.339138 
L 252.199899 55.956137 
L 252.199899 56.573136 
L 252.199899 57.190135 
L 252.199899 57.807134 
L 252.199899 58.424133 
L 252.199899 59.041132 
L 252.199899 59.658131 
L 252.199899 60.27513 
L 252.199899 60.892129 
L 252.199899 61.509128 
L 252.199899 62.126127 
L 252.199899 62.743126 
L 252.199899 63.360125 
L 252.199899 63.977124 
L 252.199899 64.594123 
L 252.199899 65.211122 
L 252.199899 65.828121 
L 252.199899 66.44512 
L 252.199899 67.062119 
L 252.199899 67.679118 
L 252.199899 68.296116 
L 252.199899 68.913115 
L 252.199899 69.530114 
L 252.199899 70.147113 
L 252.199899 70.532738 
" style="fill:none;stroke:#6060ff;"/>
    <path clip-path="url(#pdd651b5175)" d="M 252.199899 94.441447 
L 252.199899 210.822876 
L 251.665 211.286711 
L 249.800373 210.822876 
L 246.381337 210.205877 
L 236.509236 207.840201 
L 228.931354 205.816567 
L 220.743038 203.418889 
L 213.012604 200.950893 
L 204.106426 197.865898 
L 194.249645 194.163904 
L 185.048452 190.461911 
L 174.907792 186.142918 
L 163.858742 181.206926 
L 150.567079 175.036937 
L 129.952414 165.164953 
L 99.582309 150.356978 
L 69.795833 135.775639 
L 69.795833 135.775639 
" style="fill:none;stroke:#6060ff;"/>
   </g>
   <g id="LineCollection_7">
    <path clip-path="url(#pdd651b5175)" d="M 268.279927 44.850156 
L 268.279927 45.23578 
" style="fill:none;stroke:#4040ff;"/>
    <path clip-path="url(#pdd651b5175)" d="M 268.279927 69.14449 
L 268.279927 219.460862 
L 267.372876 220.077861 
L 266.820764 220.199464 
L 259.242882 219.303015 
L 247.876059 217.737556 
L 239.424094 216.375867 
L 228.931354 214.410905 
L 220.867958 212.673873 
L 213.207337 210.822876 
L 204.098573 208.35488 
L 195.930332 205.886885 
L 187.253003 203.002788 
L 179.675121 200.275409 
L 171.79513 197.248899 
L 162.710994 193.546905 
L 151.271713 188.610914 
L 137.66193 182.440924 
L 124.487249 176.270934 
L 94.981447 162.079958 
L 69.795833 149.81187 
L 69.795833 149.81187 
" style="fill:none;stroke:#4040ff;"/>
   </g>
   <g id="LineCollection_8">
    <path clip-path="url(#pdd651b5175)" d="M 289.617738 44.850156 
L 289.617738 45.467155 
L 289.617738 46.084154 
L 289.617738 46.701153 
L 289.617738 47.318152 
L 289.617738 47.935151 
L 289.617738 48.55215 
L 289.617738 49.169149 
L 289.617738 49.786148 
L 289.617738 50.403147 
L 289.617738 51.020146 
L 289.617738 51.637145 
L 289.617738 52.254144 
L 289.617738 52.871142 
L 289.617738 53.488141 
L 289.617738 54.10514 
L 289.617738 54.722139 
L 289.617738 55.339138 
L 289.617738 55.956137 
L 289.617738 56.573136 
L 289.617738 57.190135 
L 289.617738 57.807134 
L 289.617738 58.424133 
L 289.617738 59.041132 
L 289.617738 59.658131 
L 289.617738 60.27513 
L 289.617738 60.892129 
L 289.617738 61.509128 
L 289.617738 62.126127 
L 289.617738 62.743126 
L 289.617738 63.360125 
L 289.617738 63.977124 
L 289.617738 64.594123 
L 289.617738 65.211122 
L 289.617738 65.828121 
L 289.617738 66.44512 
L 289.617738 67.062119 
L 289.617738 67.679118 
L 289.617738 68.296116 
L 289.617738 68.913115 
L 289.617738 69.530114 
L 289.617738 70.147113 
L 289.617738 70.532738 
" style="fill:none;stroke:#2020ff;"/>
    <path clip-path="url(#pdd651b5175)" d="M 289.617738 94.441447 
L 289.55441 226.25976 
L 285.016414 226.24785 
L 266.820764 225.394189 
L 251.036925 224.396853 
L 240.298177 223.526665 
L 228.931354 222.387436 
L 217.564531 220.963734 
L 209.986649 219.823144 
L 200.929753 218.226864 
L 192.031749 216.375867 
L 183.464062 214.30421 
L 175.88618 212.227231 
L 169.204024 210.205877 
L 159.975035 207.120882 
L 151.547167 204.035888 
L 141.785711 200.170086 
L 133.33428 196.6319 
L 122.841006 192.01934 
L 113.958767 187.993915 
L 96.822085 179.972928 
L 69.795833 166.994927 
L 69.795833 166.994927 
" style="fill:none;stroke:#2020ff;"/>
   </g>
   <g id="LineCollection_9">
    <path clip-path="url(#pdd651b5175)" d="M 345.962925 44.850156 
L 345.962925 45.23578 
" style="fill:none;stroke:#0000ff;"/>
    <path clip-path="url(#pdd651b5175)" d="M 345.962925 69.14449 
L 345.962925 229.332845 
L 342.599584 229.880515 
L 331.232761 229.945742 
L 134.207829 229.915113 
L 88.740538 229.762529 
L 69.795833 229.560558 
L 69.795833 229.560558 
" style="fill:none;stroke:#0000ff;"/>
   </g>
   <g id="line2d_19">
    <path clip-path="url(#pdd651b5175)" d="M 77.373715 113.337041 
L 81.162656 115.188037 
L 84.951597 117.039034 
L 88.740538 118.890031 
L 92.529479 120.741028 
L 96.31842 122.592025 
L 100.107361 124.443022 
L 103.896301 126.294019 
L 107.685242 128.145016 
L 111.474183 129.996012 
L 115.263124 131.847009 
L 119.052065 133.698006 
L 122.841006 135.549003 
L 126.629947 137.4 
L 130.418888 139.250997 
L 134.207829 141.101994 
L 137.99677 142.952991 
L 141.785711 144.803988 
L 145.574652 146.654984 
L 149.363593 148.505981 
L 153.152534 150.356978 
L 156.941475 152.207975 
L 160.730416 154.058972 
L 164.519357 155.909969 
L 168.308298 157.760966 
L 172.097239 159.611963 
L 175.88618 161.462959 
L 179.675121 163.313956 
L 183.464062 165.164953 
L 187.253003 167.01595 
L 191.041944 168.866947 
L 194.830885 170.717944 
L 198.619826 172.568941 
L 202.408767 174.419938 
L 206.197708 176.270934 
L 209.986649 178.121931 
L 213.77559 179.972928 
L 217.564531 181.823925 
L 221.353472 183.674922 
L 225.142413 185.525919 
L 228.931354 187.376916 
L 232.720295 189.227913 
L 236.509236 191.07891 
L 240.298177 192.929906 
L 244.087118 194.780903 
L 247.876059 196.6319 
L 251.665 198.482897 
L 255.453941 200.333894 
L 259.242882 202.184891 
L 263.031823 204.035888 
L 266.820764 205.886885 
L 270.609705 207.737881 
L 274.398646 209.588878 
L 278.187587 211.439875 
L 281.976528 213.290872 
L 285.765469 215.141869 
L 289.55441 216.992866 
L 293.343351 218.843863 
L 297.132292 220.69486 
L 300.921233 222.545856 
L 304.710174 224.396853 
L 308.499115 226.24785 
L 312.288056 228.098847 
L 316.076997 229.949844 
" style="fill:none;stroke:#e36f47;stroke-dasharray:22.2,9.6;stroke-dashoffset:0;stroke-width:6;"/>
   </g>
   <g id="patch_3">
    <path d="M 59.906697 235.502835 
L 59.906697 39.297165 
" style="fill:none;stroke:#000000;stroke-linecap:square;stroke-linejoin:miter;"/>
   </g>
   <g id="patch_4">
    <path d="M 59.906697 235.502835 
L 409.322835 235.502835 
" style="fill:none;stroke:#000000;stroke-linecap:square;stroke-linejoin:miter;"/>
   </g>
   <g id="text_12">
    <g clip-path="url(#pdd651b5175)">
     <!-- 0.063 -->
     <g style="fill:#dfdfff;" transform="translate(194.509515 42.876073)rotate(-270)scale(0.1 -0.1)">
      <defs>
       <path d="M 31.78125 66.40625 
Q 24.171875 66.40625 20.328125 58.90625 
Q 16.5 51.421875 16.5 36.375 
Q 16.5 21.390625 20.328125 13.890625 
Q 24.171875 6.390625 31.78125 6.390625 
Q 39.453125 6.390625 43.28125 13.890625 
Q 47.125 21.390625 47.125 36.375 
Q 47.125 51.421875 43.28125 58.90625 
Q 39.453125 66.40625 31.78125 66.40625 
z
M 31.78125 74.21875 
Q 44.046875 74.21875 50.515625 64.515625 
Q 56.984375 54.828125 56.984375 36.375 
Q 56.984375 17.96875 50.515625 8.265625 
Q 44.046875 -1.421875 31.78125 -1.421875 
Q 19.53125 -1.421875 13.0625 8.265625 
Q 6.59375 17.96875 6.59375 36.375 
Q 6.59375 54.828125 13.0625 64.515625 
Q 19.53125 74.21875 31.78125 74.21875 
z
" id="DejaVuSans-48"/>
       <path d="M 10.6875 12.40625 
L 21 12.40625 
L 21 0 
L 10.6875 0 
z
" id="DejaVuSans-46"/>
       <path d="M 33.015625 40.375 
Q 26.375 40.375 22.484375 35.828125 
Q 18.609375 31.296875 18.609375 23.390625 
Q 18.609375 15.53125 22.484375 10.953125 
Q 26.375 6.390625 33.015625 6.390625 
Q 39.65625 6.390625 43.53125 10.953125 
Q 47.40625 15.53125 47.40625 23.390625 
Q 47.40625 31.296875 43.53125 35.828125 
Q 39.65625 40.375 33.015625 40.375 
z
M 52.59375 71.296875 
L 52.59375 62.3125 
Q 48.875 64.0625 45.09375 64.984375 
Q 41.3125 65.921875 37.59375 65.921875 
Q 27.828125 65.921875 22.671875 59.328125 
Q 17.53125 52.734375 16.796875 39.40625 
Q 19.671875 43.65625 24.015625 45.921875 
Q 28.375 48.1875 33.59375 48.1875 
Q 44.578125 48.1875 50.953125 41.515625 
Q 57.328125 34.859375 57.328125 23.390625 
Q 57.328125 12.15625 50.6875 5.359375 
Q 44.046875 -1.421875 33.015625 -1.421875 
Q 20.359375 -1.421875 13.671875 8.265625 
Q 6.984375 17.96875 6.984375 36.375 
Q 6.984375 53.65625 15.1875 63.9375 
Q 23.390625 74.21875 37.203125 74.21875 
Q 40.921875 74.21875 44.703125 73.484375 
Q 48.484375 72.75 52.59375 71.296875 
z
" id="DejaVuSans-54"/>
       <path d="M 40.578125 39.3125 
Q 47.65625 37.796875 51.625 33 
Q 55.609375 28.21875 55.609375 21.1875 
Q 55.609375 10.40625 48.1875 4.484375 
Q 40.765625 -1.421875 27.09375 -1.421875 
Q 22.515625 -1.421875 17.65625 -0.515625 
Q 12.796875 0.390625 7.625 2.203125 
L 7.625 11.71875 
Q 11.71875 9.328125 16.59375 8.109375 
Q 21.484375 6.890625 26.8125 6.890625 
Q 36.078125 6.890625 40.9375 10.546875 
Q 45.796875 14.203125 45.796875 21.1875 
Q 45.796875 27.640625 41.28125 31.265625 
Q 36.765625 34.90625 28.71875 34.90625 
L 20.21875 34.90625 
L 20.21875 43.015625 
L 29.109375 43.015625 
Q 36.375 43.015625 40.234375 45.921875 
Q 44.09375 48.828125 44.09375 54.296875 
Q 44.09375 59.90625 40.109375 62.90625 
Q 36.140625 65.921875 28.71875 65.921875 
Q 24.65625 65.921875 20.015625 65.03125 
Q 15.375 64.15625 9.8125 62.3125 
L 9.8125 71.09375 
Q 15.4375 72.65625 20.34375 73.4375 
Q 25.25 74.21875 29.59375 74.21875 
Q 40.828125 74.21875 47.359375 69.109375 
Q 53.90625 64.015625 53.90625 55.328125 
Q 53.90625 49.265625 50.4375 45.09375 
Q 46.96875 40.921875 40.578125 39.3125 
z
" id="DejaVuSans-51"/>
      </defs>
      <use xlink:href="#DejaVuSans-48"/>
      <use x="63.623047" xlink:href="#DejaVuSans-46"/>
      <use x="95.410156" xlink:href="#DejaVuSans-48"/>
      <use x="159.033203" xlink:href="#DejaVuSans-54"/>
      <use x="222.65625" xlink:href="#DejaVuSans-51"/>
     </g>
    </g>
   </g>
   <g id="text_13">
    <g clip-path="url(#pdd651b5175)">
     <!-- 0.075 -->
     <g style="fill:#bfbfff;" transform="translate(212.130649 68.17303)rotate(-270)scale(0.1 -0.1)">
      <defs>
       <path d="M 8.203125 72.90625 
L 55.078125 72.90625 
L 55.078125 68.703125 
L 28.609375 0 
L 18.3125 0 
L 43.21875 64.59375 
L 8.203125 64.59375 
z
" id="DejaVuSans-55"/>
       <path d="M 10.796875 72.90625 
L 49.515625 72.90625 
L 49.515625 64.59375 
L 19.828125 64.59375 
L 19.828125 46.734375 
Q 21.96875 47.46875 24.109375 47.828125 
Q 26.265625 48.1875 28.421875 48.1875 
Q 40.625 48.1875 47.75 41.5 
Q 54.890625 34.8125 54.890625 23.390625 
Q 54.890625 11.625 47.5625 5.09375 
Q 40.234375 -1.421875 26.90625 -1.421875 
Q 22.3125 -1.421875 17.546875 -0.640625 
Q 12.796875 0.140625 7.71875 1.703125 
L 7.71875 11.625 
Q 12.109375 9.234375 16.796875 8.0625 
Q 21.484375 6.890625 26.703125 6.890625 
Q 35.15625 6.890625 40.078125 11.328125 
Q 45.015625 15.765625 45.015625 23.390625 
Q 45.015625 31 40.078125 35.4375 
Q 35.15625 39.890625 26.703125 39.890625 
Q 22.75 39.890625 18.8125 39.015625 
Q 14.890625 38.140625 10.796875 36.28125 
z
" id="DejaVuSans-53"/>
      </defs>
      <use xlink:href="#DejaVuSans-48"/>
      <use x="63.623047" xlink:href="#DejaVuSans-46"/>
      <use x="95.410156" xlink:href="#DejaVuSans-48"/>
      <use x="159.033203" xlink:href="#DejaVuSans-55"/>
      <use x="222.65625" xlink:href="#DejaVuSans-53"/>
     </g>
    </g>
   </g>
   <g id="text_14">
    <g clip-path="url(#pdd651b5175)">
     <!-- 0.086 -->
     <g style="fill:#9f9fff;" transform="translate(223.676669 42.876073)rotate(-270)scale(0.1 -0.1)">
      <defs>
       <path d="M 31.78125 34.625 
Q 24.75 34.625 20.71875 30.859375 
Q 16.703125 27.09375 16.703125 20.515625 
Q 16.703125 13.921875 20.71875 10.15625 
Q 24.75 6.390625 31.78125 6.390625 
Q 38.8125 6.390625 42.859375 10.171875 
Q 46.921875 13.96875 46.921875 20.515625 
Q 46.921875 27.09375 42.890625 30.859375 
Q 38.875 34.625 31.78125 34.625 
z
M 21.921875 38.8125 
Q 15.578125 40.375 12.03125 44.71875 
Q 8.5 49.078125 8.5 55.328125 
Q 8.5 64.0625 14.71875 69.140625 
Q 20.953125 74.21875 31.78125 74.21875 
Q 42.671875 74.21875 48.875 69.140625 
Q 55.078125 64.0625 55.078125 55.328125 
Q 55.078125 49.078125 51.53125 44.71875 
Q 48 40.375 41.703125 38.8125 
Q 48.828125 37.15625 52.796875 32.3125 
Q 56.78125 27.484375 56.78125 20.515625 
Q 56.78125 9.90625 50.3125 4.234375 
Q 43.84375 -1.421875 31.78125 -1.421875 
Q 19.734375 -1.421875 13.25 4.234375 
Q 6.78125 9.90625 6.78125 20.515625 
Q 6.78125 27.484375 10.78125 32.3125 
Q 14.796875 37.15625 21.921875 38.8125 
z
M 18.3125 54.390625 
Q 18.3125 48.734375 21.84375 45.5625 
Q 25.390625 42.390625 31.78125 42.390625 
Q 38.140625 42.390625 41.71875 45.5625 
Q 45.3125 48.734375 45.3125 54.390625 
Q 45.3125 60.0625 41.71875 63.234375 
Q 38.140625 66.40625 31.78125 66.40625 
Q 25.390625 66.40625 21.84375 63.234375 
Q 18.3125 60.0625 18.3125 54.390625 
z
" id="DejaVuSans-56"/>
      </defs>
      <use xlink:href="#DejaVuSans-48"/>
      <use x="63.623047" xlink:href="#DejaVuSans-46"/>
      <use x="95.410156" xlink:href="#DejaVuSans-48"/>
      <use x="159.033203" xlink:href="#DejaVuSans-56"/>
      <use x="222.65625" xlink:href="#DejaVuSans-54"/>
     </g>
    </g>
   </g>
   <g id="text_15">
    <g clip-path="url(#pdd651b5175)">
     <!-- 0.097 -->
     <g style="fill:#7f7fff;" transform="translate(235.873899 93.469987)rotate(-270)scale(0.1 -0.1)">
      <defs>
       <path d="M 10.984375 1.515625 
L 10.984375 10.5 
Q 14.703125 8.734375 18.5 7.8125 
Q 22.3125 6.890625 25.984375 6.890625 
Q 35.75 6.890625 40.890625 13.453125 
Q 46.046875 20.015625 46.78125 33.40625 
Q 43.953125 29.203125 39.59375 26.953125 
Q 35.25 24.703125 29.984375 24.703125 
Q 19.046875 24.703125 12.671875 31.3125 
Q 6.296875 37.9375 6.296875 49.421875 
Q 6.296875 60.640625 12.9375 67.421875 
Q 19.578125 74.21875 30.609375 74.21875 
Q 43.265625 74.21875 49.921875 64.515625 
Q 56.59375 54.828125 56.59375 36.375 
Q 56.59375 19.140625 48.40625 8.859375 
Q 40.234375 -1.421875 26.421875 -1.421875 
Q 22.703125 -1.421875 18.890625 -0.6875 
Q 15.09375 0.046875 10.984375 1.515625 
z
M 30.609375 32.421875 
Q 37.25 32.421875 41.125 36.953125 
Q 45.015625 41.5 45.015625 49.421875 
Q 45.015625 57.28125 41.125 61.84375 
Q 37.25 66.40625 30.609375 66.40625 
Q 23.96875 66.40625 20.09375 61.84375 
Q 16.21875 57.28125 16.21875 49.421875 
Q 16.21875 41.5 20.09375 36.953125 
Q 23.96875 32.421875 30.609375 32.421875 
z
" id="DejaVuSans-57"/>
      </defs>
      <use xlink:href="#DejaVuSans-48"/>
      <use x="63.623047" xlink:href="#DejaVuSans-46"/>
      <use x="95.410156" xlink:href="#DejaVuSans-48"/>
      <use x="159.033203" xlink:href="#DejaVuSans-57"/>
      <use x="222.65625" xlink:href="#DejaVuSans-55"/>
     </g>
    </g>
   </g>
   <g id="text_16">
    <g clip-path="url(#pdd651b5175)">
     <!-- 0.108 -->
     <g style="fill:#6060ff;" transform="translate(249.440524 68.17303)rotate(-270)scale(0.1 -0.1)">
      <defs>
       <path d="M 12.40625 8.296875 
L 28.515625 8.296875 
L 28.515625 63.921875 
L 10.984375 60.40625 
L 10.984375 69.390625 
L 28.421875 72.90625 
L 38.28125 72.90625 
L 38.28125 8.296875 
L 54.390625 8.296875 
L 54.390625 0 
L 12.40625 0 
z
" id="DejaVuSans-49"/>
      </defs>
      <use xlink:href="#DejaVuSans-48"/>
      <use x="63.623047" xlink:href="#DejaVuSans-46"/>
      <use x="95.410156" xlink:href="#DejaVuSans-49"/>
      <use x="159.033203" xlink:href="#DejaVuSans-48"/>
      <use x="222.65625" xlink:href="#DejaVuSans-56"/>
     </g>
    </g>
   </g>
   <g id="text_17">
    <g clip-path="url(#pdd651b5175)">
     <!-- 0.120 -->
     <g style="fill:#4040ff;" transform="translate(265.520552 42.876073)rotate(-270)scale(0.1 -0.1)">
      <defs>
       <path d="M 19.1875 8.296875 
L 53.609375 8.296875 
L 53.609375 0 
L 7.328125 0 
L 7.328125 8.296875 
Q 12.9375 14.109375 22.625 23.890625 
Q 32.328125 33.6875 34.8125 36.53125 
Q 39.546875 41.84375 41.421875 45.53125 
Q 43.3125 49.21875 43.3125 52.78125 
Q 43.3125 58.59375 39.234375 62.25 
Q 35.15625 65.921875 28.609375 65.921875 
Q 23.96875 65.921875 18.8125 64.3125 
Q 13.671875 62.703125 7.8125 59.421875 
L 7.8125 69.390625 
Q 13.765625 71.78125 18.9375 73 
Q 24.125 74.21875 28.421875 74.21875 
Q 39.75 74.21875 46.484375 68.546875 
Q 53.21875 62.890625 53.21875 53.421875 
Q 53.21875 48.921875 51.53125 44.890625 
Q 49.859375 40.875 45.40625 35.40625 
Q 44.1875 33.984375 37.640625 27.21875 
Q 31.109375 20.453125 19.1875 8.296875 
z
" id="DejaVuSans-50"/>
      </defs>
      <use xlink:href="#DejaVuSans-48"/>
      <use x="63.623047" xlink:href="#DejaVuSans-46"/>
      <use x="95.410156" xlink:href="#DejaVuSans-49"/>
      <use x="159.033203" xlink:href="#DejaVuSans-50"/>
      <use x="222.65625" xlink:href="#DejaVuSans-48"/>
     </g>
    </g>
   </g>
   <g id="text_18">
    <g clip-path="url(#pdd651b5175)">
     <!-- 0.131 -->
     <g style="fill:#2020ff;" transform="translate(286.858363 68.17303)rotate(-270)scale(0.1 -0.1)">
      <use xlink:href="#DejaVuSans-48"/>
      <use x="63.623047" xlink:href="#DejaVuSans-46"/>
      <use x="95.410156" xlink:href="#DejaVuSans-49"/>
      <use x="159.033203" xlink:href="#DejaVuSans-51"/>
      <use x="222.65625" xlink:href="#DejaVuSans-49"/>
     </g>
    </g>
   </g>
   <g id="text_19">
    <g clip-path="url(#pdd651b5175)">
     <!-- 0.142 -->
     <g style="fill:#0000ff;" transform="translate(343.20355 42.876073)rotate(-270)scale(0.1 -0.1)">
      <defs>
       <path d="M 37.796875 64.3125 
L 12.890625 25.390625 
L 37.796875 25.390625 
z
M 35.203125 72.90625 
L 47.609375 72.90625 
L 47.609375 25.390625 
L 58.015625 25.390625 
L 58.015625 17.1875 
L 47.609375 17.1875 
L 47.609375 0 
L 37.796875 0 
L 37.796875 17.1875 
L 4.890625 17.1875 
L 4.890625 26.703125 
z
" id="DejaVuSans-52"/>
      </defs>
      <use xlink:href="#DejaVuSans-48"/>
      <use x="63.623047" xlink:href="#DejaVuSans-46"/>
      <use x="95.410156" xlink:href="#DejaVuSans-49"/>
      <use x="159.033203" xlink:href="#DejaVuSans-52"/>
      <use x="222.65625" xlink:href="#DejaVuSans-50"/>
     </g>
    </g>
   </g>
   <g id="text_20">
    <!-- Max(I) -->
    <g transform="translate(211.958516 33.297165)scale(0.16 -0.16)">
     <defs>
      <path d="M 1.125 1.8125 
Q 7.328125 2.4375 9.078125 4.609375 
Q 10.84375 6.78125 10.84375 14.703125 
L 10.84375 55.328125 
Q 10.84375 60.75 9.125 62.375 
Q 7.421875 64.015625 1.375 64.3125 
L 1.375 66.15625 
L 21.140625 66.15625 
L 44.28125 15.71875 
L 66.40625 66.15625 
L 86.328125 66.15625 
L 86.328125 64.3125 
Q 80.765625 63.921875 79.15625 62.28125 
Q 77.546875 60.640625 77.546875 55.328125 
L 77.546875 10.84375 
Q 77.546875 5.375 79.15625 3.828125 
Q 80.765625 2.296875 86.328125 1.8125 
L 86.328125 0 
L 58.296875 0 
L 58.296875 1.8125 
Q 64.359375 2.296875 65.84375 3.984375 
Q 67.328125 5.671875 67.328125 12.015625 
L 67.328125 56.9375 
L 41.75 0 
L 40.375 0 
L 15.234375 54.59375 
L 15.234375 14.703125 
Q 15.234375 6.5 17.625 4 
Q 19.1875 2.390625 24.609375 1.8125 
L 24.609375 0 
L 1.125 0 
z
" id="Times-Roman-77"/>
      <path d="M 28.65625 27.046875 
Q 23.046875 25.203125 19.390625 22.953125 
Q 12.359375 18.609375 12.359375 13.09375 
Q 12.359375 8.640625 15.28125 6.546875 
Q 17.1875 5.171875 19.53125 5.171875 
Q 22.75 5.171875 25.703125 6.984375 
Q 28.65625 8.796875 28.65625 11.578125 
z
M 3.65625 9.71875 
Q 3.65625 16.796875 10.75 21.53125 
Q 15.234375 24.46875 28.65625 29.5 
L 28.65625 33.640625 
Q 28.65625 38.625 27.6875 40.578125 
Q 26.03125 43.84375 20.796875 43.84375 
Q 18.3125 43.84375 16.0625 42.578125 
Q 13.8125 41.265625 13.8125 38.96875 
Q 13.8125 38.375 14.0625 36.984375 
Q 14.3125 35.59375 14.3125 35.203125 
Q 14.3125 32.46875 12.5 31.390625 
Q 11.46875 30.765625 10.0625 30.765625 
Q 7.859375 30.765625 6.6875 32.203125 
Q 5.515625 33.640625 5.515625 35.40625 
Q 5.515625 38.8125 9.734375 42.546875 
Q 13.96875 46.296875 22.125 46.296875 
Q 31.59375 46.296875 34.96875 40.140625 
Q 36.765625 36.765625 36.765625 30.328125 
L 36.765625 10.75 
Q 36.765625 7.90625 37.15625 6.84375 
Q 37.796875 4.9375 39.796875 4.9375 
Q 40.921875 4.9375 41.65625 5.265625 
Q 42.390625 5.609375 44.1875 6.9375 
L 44.1875 4.390625 
Q 42.625 2.484375 40.828125 1.265625 
Q 38.09375 -0.59375 35.25 -0.59375 
Q 31.9375 -0.59375 30.4375 1.5625 
Q 28.953125 3.71875 28.8125 6.6875 
Q 25.09375 3.46875 22.46875 1.90625 
Q 18.015625 -0.734375 14.015625 -0.734375 
Q 9.8125 -0.734375 6.734375 2.21875 
Q 3.65625 5.171875 3.65625 9.71875 
z
M 22.265625 46.296875 
z
" id="Times-Roman-97"/>
      <path d="M 23.140625 44.875 
L 23.140625 43.5 
Q 21.296875 43.453125 20 42.984375 
Q 18.703125 42.53125 18.703125 41.0625 
Q 18.703125 40.140625 21.296875 35.84375 
Q 22.65625 33.59375 24.75 30.328125 
Q 27.640625 34.28125 29.046875 36.53125 
Q 31.453125 40.140625 31.453125 41.21875 
Q 31.453125 42.484375 30.421875 42.921875 
Q 29.390625 43.359375 27.546875 43.5 
L 27.546875 44.875 
L 43.265625 44.875 
L 43.265625 43.5 
Q 40.765625 43.3125 38.609375 42.15625 
Q 36.46875 41.015625 35.15625 39.109375 
L 26.8125 27.046875 
L 39.703125 7.515625 
Q 42.1875 3.71875 43.921875 2.59375 
Q 45.65625 1.46875 47.90625 1.375 
L 47.90625 0 
L 27.734375 0 
L 27.734375 1.375 
L 29.15625 1.46875 
Q 30.28125 1.5625 31.03125 2.140625 
Q 31.78125 2.734375 31.78125 3.609375 
Q 31.78125 4.546875 29.9375 7.71875 
Q 29.046875 9.28125 27.296875 11.96875 
Q 26.46875 13.28125 24.828125 15.625 
Q 23.1875 17.96875 22.078125 19.625 
L 14.203125 7.375 
Q 12.796875 5.171875 12.453125 4.4375 
Q 12.109375 3.71875 12.109375 3.21875 
Q 12.109375 2.296875 12.859375 2 
Q 13.625 1.703125 16.15625 1.375 
L 16.15625 0 
L 1.703125 0 
L 1.703125 1.375 
Q 4.34375 1.90625 5.609375 2.734375 
Q 6.890625 3.5625 8.984375 6.59375 
L 20.359375 23.140625 
L 10.984375 37.359375 
Q 8.15625 41.609375 7.078125 42.390625 
Q 6 43.171875 2.390625 43.5 
L 2.390625 44.875 
z
" id="Times-Roman-120"/>
      <path d="M 4.59375 25.09375 
Q 4.59375 42.09375 14.75 54.9375 
Q 21 62.796875 29.5 67.578125 
L 30.421875 65.96875 
Q 22.5625 59.71875 19.1875 53.8125 
Q 13.28125 43.5 13.28125 26.375 
Q 13.28125 13.671875 15.53125 5.421875 
Q 19.484375 -9.03125 30.421875 -16.21875 
L 29.15625 -17.828125 
Q 23.140625 -14.9375 16.15625 -6.546875 
Q 4.59375 7.375 4.59375 25.09375 
z
" id="Times-Roman-40"/>
      <path d="M 1.609375 1.8125 
Q 7.71875 2.25 9.515625 3.640625 
Q 11.328125 5.03125 11.328125 10.84375 
L 11.328125 55.328125 
Q 11.328125 60.84375 9.515625 62.421875 
Q 7.71875 64.015625 1.609375 64.3125 
L 1.609375 66.15625 
L 31.203125 66.15625 
L 31.203125 64.3125 
Q 25.09375 64.015625 23.28125 62.421875 
Q 21.484375 60.84375 21.484375 55.328125 
L 21.484375 10.84375 
Q 21.484375 5.03125 23.28125 3.640625 
Q 25.09375 2.25 31.203125 1.8125 
L 31.203125 0 
L 1.609375 0 
z
M 16.40625 66.15625 
z
" id="Times-Roman-73"/>
      <path d="M 28.46875 24.609375 
Q 28.46875 17.328125 26.5625 10.828125 
Q 24.65625 4.34375 21 -1.421875 
Q 17.140625 -7.5625 10.6875 -12.890625 
Q 6.453125 -16.40625 3.5625 -17.828125 
L 2.640625 -16.21875 
Q 10.15625 -10.5 13.625 -4.546875 
Q 19.78125 6 19.78125 23.34375 
Q 19.78125 37.359375 16.9375 46.234375 
Q 12.984375 58.796875 2.640625 65.96875 
L 3.90625 67.578125 
Q 11.625 63.28125 18.265625 54.59375 
Q 28.46875 41.21875 28.46875 24.609375 
z
" id="Times-Roman-41"/>
     </defs>
     <use xlink:href="#Times-Roman-77"/>
     <use x="88.916016" xlink:href="#Times-Roman-97"/>
     <use x="133.300781" xlink:href="#Times-Roman-120"/>
     <use x="183.300781" xlink:href="#Times-Roman-40"/>
     <use x="216.601562" xlink:href="#Times-Roman-73"/>
     <use x="249.902344" xlink:href="#Times-Roman-41"/>
    </g>
   </g>
  </g>
 </g>
 <defs>
  <clipPath id="pdd651b5175">
   <rect height="196.205669" width="349.416138" x="59.906697" y="39.297165"/>
  </clipPath>
 </defs>
</svg>
