<?xml version="1.0" encoding="utf-8" standalone="no"?>
<!DOCTYPE svg PUBLIC "-//W3C//DTD SVG 1.1//EN"
  "http://www.w3.org/Graphics/SVG/1.1/DTD/svg11.dtd">
<!-- Created with matplotlib (https://matplotlib.org/) -->
<svg height="288pt" version="1.1" viewBox="0 0 432 288" width="432pt" xmlns="http://www.w3.org/2000/svg" xmlns:xlink="http://www.w3.org/1999/xlink">
 <metadata>
  <rdf:RDF xmlns:cc="http://creativecommons.org/ns#" xmlns:dc="http://purl.org/dc/elements/1.1/" xmlns:rdf="http://www.w3.org/1999/02/22-rdf-syntax-ns#">
   <cc:Work>
    <dc:type rdf:resource="http://purl.org/dc/dcmitype/StillImage"/>
    <dc:date>2021-03-08T10:59:42.661102</dc:date>
    <dc:format>image/svg+xml</dc:format>
    <dc:creator>
     <cc:Agent>
      <dc:title>Matplotlib v3.3.4, https://matplotlib.org/</dc:title>
     </cc:Agent>
    </dc:creator>
   </cc:Work>
  </rdf:RDF>
 </metadata>
 <defs>
  <style type="text/css">*{stroke-linecap:butt;stroke-linejoin:round;}</style>
 </defs>
 <g id="figure_1">
  <g id="patch_1">
   <path d="M 0 288 
L 432 288 
L 432 0 
L 0 0 
z
" style="fill:#ffffff;"/>
  </g>
  <g id="axes_1">
   <g id="patch_2">
    <path d="M 53.906931 235.502835 
L 409.322835 235.502835 
L 409.322835 39.297165 
L 53.906931 39.297165 
z
" style="fill:#ffffff;"/>
   </g>
   <g id="matplotlib.axis_1">
    <g id="xtick_1">
     <g id="line2d_1">
      <path clip-path="url(#pdf0ec9028b)" d="M 63.965872 235.502835 
L 63.965872 39.297165 
" style="fill:none;stroke:#000000;stroke-linecap:square;stroke-opacity:0.1;stroke-width:0.5;"/>
     </g>
     <g id="line2d_2">
      <defs>
       <path d="M 0 0 
L 0 -2.5 
" id="m8827151119" style="stroke:#000000;stroke-width:0.5;"/>
      </defs>
      <g>
       <use style="stroke:#000000;stroke-width:0.5;" x="63.965872" xlink:href="#m8827151119" y="235.502835"/>
      </g>
     </g>
     <g id="text_1">
      <!-- $\mathregular{0}$ -->
      <g transform="translate(60.965872 247.230335)scale(0.12 -0.12)">
       <defs>
        <path d="M 23.921875 1.8125 
Q 31.109375 1.8125 33.78125 9.671875 
Q 36.46875 17.53125 36.46875 32.421875 
Q 36.46875 44.28125 34.859375 51.375 
Q 31.84375 64.546875 23.53125 64.546875 
Q 15.234375 64.546875 12.15625 50.984375 
Q 10.546875 43.75 10.546875 31.9375 
Q 10.546875 20.84375 12.203125 14.203125 
Q 15.328125 1.8125 23.921875 1.8125 
z
M 23.78125 67.1875 
Q 35.015625 67.1875 41.21875 55.421875 
Q 46.140625 45.90625 46.140625 33.546875 
Q 46.140625 23.828125 43.109375 15.234375 
Q 37.40625 -0.921875 23.34375 -0.921875 
Q 13.71875 -0.921875 7.515625 7.8125 
Q 0.875 17.140625 0.875 33.15625 
Q 0.875 45.75 5.328125 54.828125 
Q 11.328125 67.1875 23.78125 67.1875 
z
" id="Times-Roman-48"/>
       </defs>
       <use transform="translate(0 0.8125)" xlink:href="#Times-Roman-48"/>
      </g>
     </g>
    </g>
    <g id="xtick_2">
     <g id="line2d_3">
      <path clip-path="url(#pdf0ec9028b)" d="M 154.586959 235.502835 
L 154.586959 39.297165 
" style="fill:none;stroke:#000000;stroke-linecap:square;stroke-opacity:0.1;stroke-width:0.5;"/>
     </g>
     <g id="line2d_4">
      <g>
       <use style="stroke:#000000;stroke-width:0.5;" x="154.586959" xlink:href="#m8827151119" y="235.502835"/>
      </g>
     </g>
     <g id="text_2">
      <!-- $\mathregular{10}$ -->
      <g transform="translate(148.586959 247.230335)scale(0.12 -0.12)">
       <defs>
        <path d="M 29.59375 67.09375 
Q 29.78125 66.84375 29.796875 66.71875 
Q 29.828125 66.609375 29.828125 66.15625 
L 29.828125 7.375 
Q 29.828125 3.609375 31.828125 2.578125 
Q 33.84375 1.5625 39.3125 1.375 
L 39.3125 0 
L 11.765625 0 
L 11.765625 1.46875 
Q 17.671875 1.765625 19.484375 3.078125 
Q 21.296875 4.390625 21.296875 8.796875 
L 21.296875 54 
Q 21.296875 56.34375 20.703125 57.5625 
Q 20.125 58.796875 18.171875 58.796875 
Q 16.890625 58.796875 14.859375 58.078125 
Q 12.84375 57.375 11.078125 56.59375 
L 11.078125 57.953125 
L 29 67.09375 
L 29.59375 67.09375 
z
" id="Times-Roman-49"/>
       </defs>
       <use transform="translate(0 0.8125)" xlink:href="#Times-Roman-49"/>
       <use transform="translate(50 0.8125)" xlink:href="#Times-Roman-48"/>
      </g>
     </g>
    </g>
    <g id="xtick_3">
     <g id="line2d_5">
      <path clip-path="url(#pdf0ec9028b)" d="M 245.208046 235.502835 
L 245.208046 39.297165 
" style="fill:none;stroke:#000000;stroke-linecap:square;stroke-opacity:0.1;stroke-width:0.5;"/>
     </g>
     <g id="line2d_6">
      <g>
       <use style="stroke:#000000;stroke-width:0.5;" x="245.208046" xlink:href="#m8827151119" y="235.502835"/>
      </g>
     </g>
     <g id="text_3">
      <!-- $\mathregular{20}$ -->
      <g transform="translate(239.208046 247.230335)scale(0.12 -0.12)">
       <defs>
        <path d="M 2.984375 1.125 
Q 20.84375 19.671875 27.234375 28.359375 
Q 33.640625 37.0625 33.640625 45.3125 
Q 33.640625 52.546875 29.734375 56.328125 
Q 25.828125 60.109375 20.40625 60.109375 
Q 13.71875 60.109375 9.578125 55.21875 
Q 7.28125 52.546875 5.171875 46.96875 
L 3.078125 47.40625 
Q 5.515625 58.640625 11.34375 63.015625 
Q 17.1875 67.390625 23.875 67.390625 
Q 32.125 67.390625 37.21875 62.1875 
Q 42.328125 56.984375 42.328125 49.46875 
Q 42.328125 41.453125 36.8125 34.03125 
Q 31.296875 26.609375 12.84375 7.625 
L 35.25 7.625 
Q 39.9375 7.625 41.84375 8.734375 
Q 43.75 9.859375 46.140625 14.203125 
L 47.40625 13.625 
L 42 0 
L 2.984375 0 
z
" id="Times-Roman-50"/>
       </defs>
       <use transform="translate(0 0.609375)" xlink:href="#Times-Roman-50"/>
       <use transform="translate(50 0.609375)" xlink:href="#Times-Roman-48"/>
      </g>
     </g>
    </g>
    <g id="xtick_4">
     <g id="line2d_7">
      <path clip-path="url(#pdf0ec9028b)" d="M 335.829133 235.502835 
L 335.829133 39.297165 
" style="fill:none;stroke:#000000;stroke-linecap:square;stroke-opacity:0.1;stroke-width:0.5;"/>
     </g>
     <g id="line2d_8">
      <g>
       <use style="stroke:#000000;stroke-width:0.5;" x="335.829133" xlink:href="#m8827151119" y="235.502835"/>
      </g>
     </g>
     <g id="text_4">
      <!-- $\mathregular{30}$ -->
      <g transform="translate(329.829133 247.230335)scale(0.12 -0.12)">
       <defs>
        <path d="M 7.765625 8.5 
Q 10.453125 8.5 14.859375 5.71875 
Q 19.28125 2.9375 22.359375 2.9375 
Q 29.203125 2.9375 32.515625 7.546875 
Q 35.84375 12.15625 35.84375 17.578125 
Q 35.84375 22.796875 33.15625 26.765625 
Q 28.609375 33.453125 17.828125 33.453125 
Q 17.1875 33.453125 16.59375 33.421875 
Q 16.015625 33.40625 15.234375 33.296875 
L 15.140625 34.578125 
Q 22.953125 37.40625 27.4375 41.0625 
Q 31.9375 44.734375 31.9375 50.734375 
Q 31.9375 56.0625 28.390625 58.84375 
Q 24.859375 61.625 20.3125 61.625 
Q 14.9375 61.625 10.84375 57.671875 
Q 8.59375 55.515625 6 51.03125 
L 4.5 51.375 
Q 6.453125 58.796875 11.765625 63.234375 
Q 17.09375 67.671875 24.078125 67.671875 
Q 31.546875 67.671875 35.625 63.5625 
Q 39.703125 59.46875 39.703125 54.109375 
Q 39.703125 49.359375 36.328125 45.40625 
Q 34.421875 43.171875 30.421875 40.375 
Q 35.109375 38.375 37.9375 35.6875 
Q 43.265625 30.5625 43.265625 22.703125 
Q 43.265625 13.421875 35.953125 6.34375 
Q 28.65625 -0.734375 15.1875 -0.734375 
Q 9.1875 -0.734375 6.765625 1.046875 
Q 4.34375 2.828125 4.34375 4.890625 
Q 4.34375 6.15625 5.140625 7.328125 
Q 5.953125 8.5 7.765625 8.5 
z
" id="Times-Roman-51"/>
       </defs>
       <use transform="translate(0 0.328125)" xlink:href="#Times-Roman-51"/>
       <use transform="translate(50 0.328125)" xlink:href="#Times-Roman-48"/>
      </g>
     </g>
    </g>
    <g id="text_5">
     <!-- SD Start Time ts [days] -->
     <g transform="translate(161.898633 262.96221)scale(0.12 -0.12)">
      <defs>
       <path d="M 53.515625 70.515625 
L 53.515625 60.890625 
Q 47.90625 63.578125 42.921875 64.890625 
Q 37.9375 66.21875 33.296875 66.21875 
Q 25.25 66.21875 20.875 63.09375 
Q 16.5 59.96875 16.5 54.203125 
Q 16.5 49.359375 19.40625 46.890625 
Q 22.3125 44.4375 30.421875 42.921875 
L 36.375 41.703125 
Q 47.40625 39.59375 52.65625 34.296875 
Q 57.90625 29 57.90625 20.125 
Q 57.90625 9.515625 50.796875 4.046875 
Q 43.703125 -1.421875 29.984375 -1.421875 
Q 24.8125 -1.421875 18.96875 -0.25 
Q 13.140625 0.921875 6.890625 3.21875 
L 6.890625 13.375 
Q 12.890625 10.015625 18.65625 8.296875 
Q 24.421875 6.59375 29.984375 6.59375 
Q 38.421875 6.59375 43.015625 9.90625 
Q 47.609375 13.234375 47.609375 19.390625 
Q 47.609375 24.75 44.3125 27.78125 
Q 41.015625 30.8125 33.5 32.328125 
L 27.484375 33.5 
Q 16.453125 35.6875 11.515625 40.375 
Q 6.59375 45.0625 6.59375 53.421875 
Q 6.59375 63.09375 13.40625 68.65625 
Q 20.21875 74.21875 32.171875 74.21875 
Q 37.3125 74.21875 42.625 73.28125 
Q 47.953125 72.359375 53.515625 70.515625 
z
" id="DejaVuSans-83"/>
       <path d="M 19.671875 64.796875 
L 19.671875 8.109375 
L 31.59375 8.109375 
Q 46.6875 8.109375 53.6875 14.9375 
Q 60.6875 21.78125 60.6875 36.53125 
Q 60.6875 51.171875 53.6875 57.984375 
Q 46.6875 64.796875 31.59375 64.796875 
z
M 9.8125 72.90625 
L 30.078125 72.90625 
Q 51.265625 72.90625 61.171875 64.09375 
Q 71.09375 55.28125 71.09375 36.53125 
Q 71.09375 17.671875 61.125 8.828125 
Q 51.171875 0 30.078125 0 
L 9.8125 0 
z
" id="DejaVuSans-68"/>
       <path id="DejaVuSans-32"/>
       <path d="M 18.3125 70.21875 
L 18.3125 54.6875 
L 36.8125 54.6875 
L 36.8125 47.703125 
L 18.3125 47.703125 
L 18.3125 18.015625 
Q 18.3125 11.328125 20.140625 9.421875 
Q 21.96875 7.515625 27.59375 7.515625 
L 36.8125 7.515625 
L 36.8125 0 
L 27.59375 0 
Q 17.1875 0 13.234375 3.875 
Q 9.28125 7.765625 9.28125 18.015625 
L 9.28125 47.703125 
L 2.6875 47.703125 
L 2.6875 54.6875 
L 9.28125 54.6875 
L 9.28125 70.21875 
z
" id="DejaVuSans-116"/>
       <path d="M 34.28125 27.484375 
Q 23.390625 27.484375 19.1875 25 
Q 14.984375 22.515625 14.984375 16.5 
Q 14.984375 11.71875 18.140625 8.90625 
Q 21.296875 6.109375 26.703125 6.109375 
Q 34.1875 6.109375 38.703125 11.40625 
Q 43.21875 16.703125 43.21875 25.484375 
L 43.21875 27.484375 
z
M 52.203125 31.203125 
L 52.203125 0 
L 43.21875 0 
L 43.21875 8.296875 
Q 40.140625 3.328125 35.546875 0.953125 
Q 30.953125 -1.421875 24.3125 -1.421875 
Q 15.921875 -1.421875 10.953125 3.296875 
Q 6 8.015625 6 15.921875 
Q 6 25.140625 12.171875 29.828125 
Q 18.359375 34.515625 30.609375 34.515625 
L 43.21875 34.515625 
L 43.21875 35.40625 
Q 43.21875 41.609375 39.140625 45 
Q 35.0625 48.390625 27.6875 48.390625 
Q 23 48.390625 18.546875 47.265625 
Q 14.109375 46.140625 10.015625 43.890625 
L 10.015625 52.203125 
Q 14.9375 54.109375 19.578125 55.046875 
Q 24.21875 56 28.609375 56 
Q 40.484375 56 46.34375 49.84375 
Q 52.203125 43.703125 52.203125 31.203125 
z
" id="DejaVuSans-97"/>
       <path d="M 41.109375 46.296875 
Q 39.59375 47.171875 37.8125 47.578125 
Q 36.03125 48 33.890625 48 
Q 26.265625 48 22.1875 43.046875 
Q 18.109375 38.09375 18.109375 28.8125 
L 18.109375 0 
L 9.078125 0 
L 9.078125 54.6875 
L 18.109375 54.6875 
L 18.109375 46.1875 
Q 20.953125 51.171875 25.484375 53.578125 
Q 30.03125 56 36.53125 56 
Q 37.453125 56 38.578125 55.875 
Q 39.703125 55.765625 41.0625 55.515625 
z
" id="DejaVuSans-114"/>
       <path d="M -0.296875 72.90625 
L 61.375 72.90625 
L 61.375 64.59375 
L 35.5 64.59375 
L 35.5 0 
L 25.59375 0 
L 25.59375 64.59375 
L -0.296875 64.59375 
z
" id="DejaVuSans-84"/>
       <path d="M 9.421875 54.6875 
L 18.40625 54.6875 
L 18.40625 0 
L 9.421875 0 
z
M 9.421875 75.984375 
L 18.40625 75.984375 
L 18.40625 64.59375 
L 9.421875 64.59375 
z
" id="DejaVuSans-105"/>
       <path d="M 52 44.1875 
Q 55.375 50.25 60.0625 53.125 
Q 64.75 56 71.09375 56 
Q 79.640625 56 84.28125 50.015625 
Q 88.921875 44.046875 88.921875 33.015625 
L 88.921875 0 
L 79.890625 0 
L 79.890625 32.71875 
Q 79.890625 40.578125 77.09375 44.375 
Q 74.3125 48.1875 68.609375 48.1875 
Q 61.625 48.1875 57.5625 43.546875 
Q 53.515625 38.921875 53.515625 30.90625 
L 53.515625 0 
L 44.484375 0 
L 44.484375 32.71875 
Q 44.484375 40.625 41.703125 44.40625 
Q 38.921875 48.1875 33.109375 48.1875 
Q 26.21875 48.1875 22.15625 43.53125 
Q 18.109375 38.875 18.109375 30.90625 
L 18.109375 0 
L 9.078125 0 
L 9.078125 54.6875 
L 18.109375 54.6875 
L 18.109375 46.1875 
Q 21.1875 51.21875 25.484375 53.609375 
Q 29.78125 56 35.6875 56 
Q 41.65625 56 45.828125 52.96875 
Q 50 49.953125 52 44.1875 
z
" id="DejaVuSans-109"/>
       <path d="M 56.203125 29.59375 
L 56.203125 25.203125 
L 14.890625 25.203125 
Q 15.484375 15.921875 20.484375 11.0625 
Q 25.484375 6.203125 34.421875 6.203125 
Q 39.59375 6.203125 44.453125 7.46875 
Q 49.3125 8.734375 54.109375 11.28125 
L 54.109375 2.78125 
Q 49.265625 0.734375 44.1875 -0.34375 
Q 39.109375 -1.421875 33.890625 -1.421875 
Q 20.796875 -1.421875 13.15625 6.1875 
Q 5.515625 13.8125 5.515625 26.8125 
Q 5.515625 40.234375 12.765625 48.109375 
Q 20.015625 56 32.328125 56 
Q 43.359375 56 49.78125 48.890625 
Q 56.203125 41.796875 56.203125 29.59375 
z
M 47.21875 32.234375 
Q 47.125 39.59375 43.09375 43.984375 
Q 39.0625 48.390625 32.421875 48.390625 
Q 24.90625 48.390625 20.390625 44.140625 
Q 15.875 39.890625 15.1875 32.171875 
z
" id="DejaVuSans-101"/>
       <path d="M 44.28125 53.078125 
L 44.28125 44.578125 
Q 40.484375 46.53125 36.375 47.5 
Q 32.28125 48.484375 27.875 48.484375 
Q 21.1875 48.484375 17.84375 46.4375 
Q 14.5 44.390625 14.5 40.28125 
Q 14.5 37.15625 16.890625 35.375 
Q 19.28125 33.59375 26.515625 31.984375 
L 29.59375 31.296875 
Q 39.15625 29.25 43.1875 25.515625 
Q 47.21875 21.78125 47.21875 15.09375 
Q 47.21875 7.46875 41.1875 3.015625 
Q 35.15625 -1.421875 24.609375 -1.421875 
Q 20.21875 -1.421875 15.453125 -0.5625 
Q 10.6875 0.296875 5.421875 2 
L 5.421875 11.28125 
Q 10.40625 8.6875 15.234375 7.390625 
Q 20.0625 6.109375 24.8125 6.109375 
Q 31.15625 6.109375 34.5625 8.28125 
Q 37.984375 10.453125 37.984375 14.40625 
Q 37.984375 18.0625 35.515625 20.015625 
Q 33.0625 21.96875 24.703125 23.78125 
L 21.578125 24.515625 
Q 13.234375 26.265625 9.515625 29.90625 
Q 5.8125 33.546875 5.8125 39.890625 
Q 5.8125 47.609375 11.28125 51.796875 
Q 16.75 56 26.8125 56 
Q 31.78125 56 36.171875 55.265625 
Q 40.578125 54.546875 44.28125 53.078125 
z
" id="DejaVuSans-115"/>
       <path d="M 8.59375 75.984375 
L 29.296875 75.984375 
L 29.296875 69 
L 17.578125 69 
L 17.578125 -6.203125 
L 29.296875 -6.203125 
L 29.296875 -13.1875 
L 8.59375 -13.1875 
z
" id="DejaVuSans-91"/>
       <path d="M 45.40625 46.390625 
L 45.40625 75.984375 
L 54.390625 75.984375 
L 54.390625 0 
L 45.40625 0 
L 45.40625 8.203125 
Q 42.578125 3.328125 38.25 0.953125 
Q 33.9375 -1.421875 27.875 -1.421875 
Q 17.96875 -1.421875 11.734375 6.484375 
Q 5.515625 14.40625 5.515625 27.296875 
Q 5.515625 40.1875 11.734375 48.09375 
Q 17.96875 56 27.875 56 
Q 33.9375 56 38.25 53.625 
Q 42.578125 51.265625 45.40625 46.390625 
z
M 14.796875 27.296875 
Q 14.796875 17.390625 18.875 11.75 
Q 22.953125 6.109375 30.078125 6.109375 
Q 37.203125 6.109375 41.296875 11.75 
Q 45.40625 17.390625 45.40625 27.296875 
Q 45.40625 37.203125 41.296875 42.84375 
Q 37.203125 48.484375 30.078125 48.484375 
Q 22.953125 48.484375 18.875 42.84375 
Q 14.796875 37.203125 14.796875 27.296875 
z
" id="DejaVuSans-100"/>
       <path d="M 32.171875 -5.078125 
Q 28.375 -14.84375 24.75 -17.8125 
Q 21.140625 -20.796875 15.09375 -20.796875 
L 7.90625 -20.796875 
L 7.90625 -13.28125 
L 13.1875 -13.28125 
Q 16.890625 -13.28125 18.9375 -11.515625 
Q 21 -9.765625 23.484375 -3.21875 
L 25.09375 0.875 
L 2.984375 54.6875 
L 12.5 54.6875 
L 29.59375 11.921875 
L 46.6875 54.6875 
L 56.203125 54.6875 
z
" id="DejaVuSans-121"/>
       <path d="M 30.421875 75.984375 
L 30.421875 -13.1875 
L 9.71875 -13.1875 
L 9.71875 -6.203125 
L 21.390625 -6.203125 
L 21.390625 69 
L 9.71875 69 
L 9.71875 75.984375 
z
" id="DejaVuSans-93"/>
      </defs>
      <use xlink:href="#DejaVuSans-83"/>
      <use x="63.476562" xlink:href="#DejaVuSans-68"/>
      <use x="140.478516" xlink:href="#DejaVuSans-32"/>
      <use x="172.265625" xlink:href="#DejaVuSans-83"/>
      <use x="235.742188" xlink:href="#DejaVuSans-116"/>
      <use x="274.951172" xlink:href="#DejaVuSans-97"/>
      <use x="336.230469" xlink:href="#DejaVuSans-114"/>
      <use x="377.34375" xlink:href="#DejaVuSans-116"/>
      <use x="416.552734" xlink:href="#DejaVuSans-32"/>
      <use x="448.339844" xlink:href="#DejaVuSans-84"/>
      <use x="506.298828" xlink:href="#DejaVuSans-105"/>
      <use x="534.082031" xlink:href="#DejaVuSans-109"/>
      <use x="631.494141" xlink:href="#DejaVuSans-101"/>
      <use x="693.017578" xlink:href="#DejaVuSans-32"/>
      <use x="724.804688" xlink:href="#DejaVuSans-116"/>
      <use x="764.013672" xlink:href="#DejaVuSans-115"/>
      <use x="816.113281" xlink:href="#DejaVuSans-32"/>
      <use x="847.900391" xlink:href="#DejaVuSans-91"/>
      <use x="886.914062" xlink:href="#DejaVuSans-100"/>
      <use x="950.390625" xlink:href="#DejaVuSans-97"/>
      <use x="1011.669922" xlink:href="#DejaVuSans-121"/>
      <use x="1070.849609" xlink:href="#DejaVuSans-115"/>
      <use x="1122.949219" xlink:href="#DejaVuSans-93"/>
     </g>
    </g>
   </g>
   <g id="matplotlib.axis_2">
    <g id="ytick_1">
     <g id="line2d_9">
      <path clip-path="url(#pdf0ec9028b)" d="M 53.906931 229.949844 
L 409.322835 229.949844 
" style="fill:none;stroke:#000000;stroke-linecap:square;stroke-opacity:0.1;stroke-width:0.5;"/>
     </g>
     <g id="line2d_10">
      <defs>
       <path d="M 0 0 
L 2.5 0 
" id="m6ea7386a49" style="stroke:#000000;stroke-width:0.5;"/>
      </defs>
      <g>
       <use style="stroke:#000000;stroke-width:0.5;" x="53.906931" xlink:href="#m6ea7386a49" y="229.949844"/>
      </g>
     </g>
     <g id="text_6">
      <!-- $\mathregular{0}$ -->
      <g transform="translate(44.406931 234.063594)scale(0.12 -0.12)">
       <use transform="translate(0 0.8125)" xlink:href="#Times-Roman-48"/>
      </g>
     </g>
    </g>
    <g id="ytick_2">
     <g id="line2d_11">
      <path clip-path="url(#pdf0ec9028b)" d="M 53.906931 175.508759 
L 409.322835 175.508759 
" style="fill:none;stroke:#000000;stroke-linecap:square;stroke-opacity:0.1;stroke-width:0.5;"/>
     </g>
     <g id="line2d_12">
      <g>
       <use style="stroke:#000000;stroke-width:0.5;" x="53.906931" xlink:href="#m6ea7386a49" y="175.508759"/>
      </g>
     </g>
     <g id="text_7">
      <!-- $\mathregular{20}$ -->
      <g transform="translate(38.406931 179.622509)scale(0.12 -0.12)">
       <use transform="translate(0 0.609375)" xlink:href="#Times-Roman-50"/>
       <use transform="translate(50 0.609375)" xlink:href="#Times-Roman-48"/>
      </g>
     </g>
    </g>
    <g id="ytick_3">
     <g id="line2d_13">
      <path clip-path="url(#pdf0ec9028b)" d="M 53.906931 121.067675 
L 409.322835 121.067675 
" style="fill:none;stroke:#000000;stroke-linecap:square;stroke-opacity:0.1;stroke-width:0.5;"/>
     </g>
     <g id="line2d_14">
      <g>
       <use style="stroke:#000000;stroke-width:0.5;" x="53.906931" xlink:href="#m6ea7386a49" y="121.067675"/>
      </g>
     </g>
     <g id="text_8">
      <!-- $\mathregular{40}$ -->
      <g transform="translate(38.406931 125.181425)scale(0.12 -0.12)">
       <defs>
        <path d="M 29.15625 57.03125 
L 5.171875 23.140625 
L 29.15625 23.140625 
z
M 32.375 67.09375 
L 37.015625 67.09375 
L 37.015625 23.140625 
L 47.21875 23.140625 
L 47.21875 16.65625 
L 37.015625 16.65625 
L 37.015625 0 
L 29.25 0 
L 29.25 16.65625 
L 1.125 16.65625 
L 1.125 23.140625 
z
" id="Times-Roman-52"/>
       </defs>
       <use transform="translate(0 0.8125)" xlink:href="#Times-Roman-52"/>
       <use transform="translate(50 0.8125)" xlink:href="#Times-Roman-48"/>
      </g>
     </g>
    </g>
    <g id="ytick_4">
     <g id="line2d_15">
      <path clip-path="url(#pdf0ec9028b)" d="M 53.906931 66.62659 
L 409.322835 66.62659 
" style="fill:none;stroke:#000000;stroke-linecap:square;stroke-opacity:0.1;stroke-width:0.5;"/>
     </g>
     <g id="line2d_16">
      <g>
       <use style="stroke:#000000;stroke-width:0.5;" x="53.906931" xlink:href="#m6ea7386a49" y="66.62659"/>
      </g>
     </g>
     <g id="text_9">
      <!-- $\mathregular{60}$ -->
      <g transform="translate(38.406931 70.74034)scale(0.12 -0.12)">
       <defs>
        <path d="M 46.78125 22.21875 
Q 46.78125 13.28125 41.03125 6.09375 
Q 35.296875 -1.078125 26.125 -1.078125 
Q 17.53125 -1.078125 10.46875 6.984375 
Q 3.421875 15.046875 3.421875 28.421875 
Q 3.421875 45.65625 17.09375 58.015625 
Q 29.296875 68.359375 44.53125 68.359375 
L 44.78125 66.75 
Q 38.671875 65.625 34.25 63.6875 
Q 29.828125 61.765625 26.375 58.296875 
Q 22.796875 54.78125 19.671875 49.359375 
Q 16.546875 43.953125 15.375 38.625 
Q 18.40625 40.484375 20.609375 41.359375 
Q 24.515625 42.921875 28.46875 42.921875 
Q 36.234375 42.921875 41.5 37.546875 
Q 46.78125 32.171875 46.78125 22.21875 
z
M 37.84375 18.453125 
Q 37.84375 24.953125 35.796875 29.984375 
Q 32.375 38.375 24.171875 38.375 
Q 16.609375 38.375 14.109375 33.890625 
Q 12.640625 31.25 12.640625 25.09375 
Q 12.640625 17.140625 16.03125 9.515625 
Q 19.4375 1.90625 26.765625 1.90625 
Q 32.5625 1.90625 35.203125 6.859375 
Q 37.84375 11.8125 37.84375 18.453125 
z
" id="Times-Roman-54"/>
       </defs>
       <use transform="translate(0 0.640625)" xlink:href="#Times-Roman-54"/>
       <use transform="translate(50 0.640625)" xlink:href="#Times-Roman-48"/>
      </g>
     </g>
    </g>
    <g id="text_10">
     <!-- SD Duration td [days] -->
     <g transform="translate(31.911306 202.614375)rotate(-90)scale(0.12 -0.12)">
      <defs>
       <path d="M 8.5 21.578125 
L 8.5 54.6875 
L 17.484375 54.6875 
L 17.484375 21.921875 
Q 17.484375 14.15625 20.5 10.265625 
Q 23.53125 6.390625 29.59375 6.390625 
Q 36.859375 6.390625 41.078125 11.03125 
Q 45.3125 15.671875 45.3125 23.6875 
L 45.3125 54.6875 
L 54.296875 54.6875 
L 54.296875 0 
L 45.3125 0 
L 45.3125 8.40625 
Q 42.046875 3.421875 37.71875 1 
Q 33.40625 -1.421875 27.6875 -1.421875 
Q 18.265625 -1.421875 13.375 4.4375 
Q 8.5 10.296875 8.5 21.578125 
z
M 31.109375 56 
z
" id="DejaVuSans-117"/>
       <path d="M 30.609375 48.390625 
Q 23.390625 48.390625 19.1875 42.75 
Q 14.984375 37.109375 14.984375 27.296875 
Q 14.984375 17.484375 19.15625 11.84375 
Q 23.34375 6.203125 30.609375 6.203125 
Q 37.796875 6.203125 41.984375 11.859375 
Q 46.1875 17.53125 46.1875 27.296875 
Q 46.1875 37.015625 41.984375 42.703125 
Q 37.796875 48.390625 30.609375 48.390625 
z
M 30.609375 56 
Q 42.328125 56 49.015625 48.375 
Q 55.71875 40.765625 55.71875 27.296875 
Q 55.71875 13.875 49.015625 6.21875 
Q 42.328125 -1.421875 30.609375 -1.421875 
Q 18.84375 -1.421875 12.171875 6.21875 
Q 5.515625 13.875 5.515625 27.296875 
Q 5.515625 40.765625 12.171875 48.375 
Q 18.84375 56 30.609375 56 
z
" id="DejaVuSans-111"/>
       <path d="M 54.890625 33.015625 
L 54.890625 0 
L 45.90625 0 
L 45.90625 32.71875 
Q 45.90625 40.484375 42.875 44.328125 
Q 39.84375 48.1875 33.796875 48.1875 
Q 26.515625 48.1875 22.3125 43.546875 
Q 18.109375 38.921875 18.109375 30.90625 
L 18.109375 0 
L 9.078125 0 
L 9.078125 54.6875 
L 18.109375 54.6875 
L 18.109375 46.1875 
Q 21.34375 51.125 25.703125 53.5625 
Q 30.078125 56 35.796875 56 
Q 45.21875 56 50.046875 50.171875 
Q 54.890625 44.34375 54.890625 33.015625 
z
" id="DejaVuSans-110"/>
      </defs>
      <use xlink:href="#DejaVuSans-83"/>
      <use x="63.476562" xlink:href="#DejaVuSans-68"/>
      <use x="140.478516" xlink:href="#DejaVuSans-32"/>
      <use x="172.265625" xlink:href="#DejaVuSans-68"/>
      <use x="249.267578" xlink:href="#DejaVuSans-117"/>
      <use x="312.646484" xlink:href="#DejaVuSans-114"/>
      <use x="353.759766" xlink:href="#DejaVuSans-97"/>
      <use x="415.039062" xlink:href="#DejaVuSans-116"/>
      <use x="454.248047" xlink:href="#DejaVuSans-105"/>
      <use x="482.03125" xlink:href="#DejaVuSans-111"/>
      <use x="543.212891" xlink:href="#DejaVuSans-110"/>
      <use x="606.591797" xlink:href="#DejaVuSans-32"/>
      <use x="638.378906" xlink:href="#DejaVuSans-116"/>
      <use x="677.587891" xlink:href="#DejaVuSans-100"/>
      <use x="741.064453" xlink:href="#DejaVuSans-32"/>
      <use x="772.851562" xlink:href="#DejaVuSans-91"/>
      <use x="811.865234" xlink:href="#DejaVuSans-100"/>
      <use x="875.341797" xlink:href="#DejaVuSans-97"/>
      <use x="936.621094" xlink:href="#DejaVuSans-121"/>
      <use x="995.800781" xlink:href="#DejaVuSans-115"/>
      <use x="1047.900391" xlink:href="#DejaVuSans-93"/>
     </g>
    </g>
   </g>
   <g id="LineCollection_1"/>
   <g id="LineCollection_2">
    <path clip-path="url(#pdf0ec9028b)" d="M 195.010327 44.850156 
L 195.010327 47.57221 
L 195.010327 49.228127 
" style="fill:none;stroke:#e2e2ff;"/>
    <path clip-path="url(#pdf0ec9028b)" d="M 195.010327 73.136836 
L 195.010327 74.792753 
L 195.010327 77.514807 
L 195.010327 80.236861 
L 195.010327 82.958915 
L 195.010327 85.68097 
L 195.010327 88.403024 
L 195.010327 91.125078 
L 195.010327 93.847132 
L 195.010327 96.569186 
L 195.010327 99.291241 
L 195.010327 102.013295 
L 193.137037 104.735349 
L 190.835394 105.864533 
L 189.341927 104.735349 
L 186.420427 102.013295 
L 182.581343 99.291241 
L 181.773285 99.008474 
L 178.603933 96.569186 
L 175.055155 93.847132 
L 172.711176 92.053485 
L 171.515241 91.125078 
L 168.01019 88.403024 
L 164.483028 85.68097 
L 163.649067 85.037188 
L 160.993863 82.958915 
L 157.499816 80.236861 
L 154.586959 77.981969 
L 153.991416 77.514807 
L 150.523615 74.792753 
L 147.026365 72.070698 
L 145.52485 70.905612 
L 143.544551 69.348644 
L 140.067696 66.62659 
L 136.557331 63.904536 
L 136.462741 63.831147 
L 133.09492 61.182481 
L 129.601367 58.460427 
L 127.400633 56.756421 
L 126.103643 55.738373 
L 122.625372 53.016319 
L 119.110364 50.294264 
L 118.338524 49.697768 
L 115.627254 47.57221 
L 112.126819 44.850156 
" style="fill:none;stroke:#e2e2ff;"/>
   </g>
   <g id="LineCollection_3">
    <path clip-path="url(#pdf0ec9028b)" d="M 215.697828 44.850156 
L 215.697828 47.57221 
L 215.697828 50.294264 
L 215.697828 53.016319 
L 215.697828 55.738373 
L 215.697828 58.460427 
L 215.697828 61.182481 
L 215.697828 63.904536 
L 215.697828 66.62659 
L 215.697828 69.348644 
L 215.697828 72.070698 
L 215.697828 74.792753 
L 215.697828 77.514807 
L 215.697828 80.236861 
L 215.697828 82.958915 
L 215.697828 85.68097 
L 215.697828 88.403024 
L 215.697828 91.125078 
L 215.697828 93.847132 
L 215.697828 96.569186 
L 215.697828 99.291241 
L 215.697828 102.013295 
L 215.697828 104.735349 
L 215.697828 107.457403 
L 215.697828 110.179458 
L 215.697828 112.901512 
L 215.697828 115.623566 
L 215.697828 118.34562 
L 215.697828 121.067675 
L 215.697828 123.789729 
L 215.697828 126.511783 
L 215.697828 129.233837 
L 215.201448 131.955892 
L 213.875004 134.677946 
L 210.098536 137.4 
L 208.959611 137.770801 
L 208.406117 137.4 
L 204.389877 134.677946 
L 200.409488 131.955892 
L 199.897502 131.602471 
L 196.519761 129.233837 
L 192.664247 126.511783 
L 190.835394 125.212021 
L 188.862647 123.789729 
L 185.108993 121.067675 
L 181.773285 118.641022 
L 181.372396 118.34562 
L 177.699841 115.623566 
L 174.03245 112.901512 
L 172.711176 111.917852 
L 170.403566 110.179458 
L 166.796041 107.457403 
L 163.649067 105.08452 
L 163.190848 104.735349 
L 159.630092 102.013295 
L 156.061253 99.291241 
L 154.586959 98.166691 
L 152.5131 96.569186 
L 152.485348 96.547819 
" style="fill:none;stroke:#c1c1ff;"/>
    <path clip-path="url(#pdf0ec9028b)" d="M 131.369181 80.242091 
L 131.362441 80.236861 
L 127.834215 77.514807 
L 127.400633 77.180371 
L 124.333267 74.792753 
L 120.819299 72.070698 
L 118.338524 70.157819 
L 117.298301 69.348644 
L 113.795679 66.62659 
L 110.27002 63.904536 
L 109.276415 63.138923 
L 106.761284 61.182481 
L 103.246715 58.460427 
L 100.214306 56.126395 
L 99.714901 55.738373 
L 96.21069 53.016319 
L 92.682332 50.294264 
L 91.152198 49.117887 
L 89.161943 47.57221 
L 85.644923 44.850156 
" style="fill:none;stroke:#c1c1ff;"/>
   </g>
   <g id="LineCollection_4">
    <path clip-path="url(#pdf0ec9028b)" d="M 228.071202 44.850156 
L 228.071202 47.57221 
L 228.071202 50.294264 
L 228.071202 53.016319 
L 228.071202 55.738373 
L 228.071202 58.460427 
L 228.071202 61.182481 
L 228.071202 63.904536 
L 228.071202 66.62659 
L 228.071202 69.348644 
L 228.071202 72.070698 
L 228.071202 74.792753 
L 228.071202 77.514807 
L 228.071202 80.236861 
L 228.071202 82.958915 
L 228.071202 85.68097 
L 228.071202 87.336886 
" style="fill:none;stroke:#9f9fff;"/>
    <path clip-path="url(#pdf0ec9028b)" d="M 228.071202 111.245596 
L 228.071202 112.901512 
L 228.071202 115.623566 
L 228.071202 118.34562 
L 228.071202 121.067675 
L 228.071202 123.789729 
L 228.071202 126.511783 
L 228.071202 129.233837 
L 228.071202 131.955892 
L 228.071202 134.677946 
L 228.071202 137.4 
L 228.071202 140.122054 
L 228.071202 142.844108 
L 228.071202 145.566163 
L 228.071202 148.288217 
L 228.071202 151.010271 
L 228.071202 153.732325 
L 228.071202 156.45438 
L 228.071202 159.176434 
L 228.071202 161.898488 
L 227.645592 164.620542 
L 227.083828 165.308756 
L 225.812172 164.620542 
L 223.034694 161.898488 
L 218.02172 160.254541 
L 216.163894 159.176434 
L 211.576343 156.45438 
L 208.959611 154.868823 
L 207.114614 153.732325 
L 202.775854 151.010271 
L 199.897502 149.172324 
L 198.532705 148.288217 
L 194.391806 145.566163 
L 190.835394 143.19283 
L 190.319137 142.844108 
L 186.334321 140.122054 
L 182.399466 137.4 
L 181.773285 136.963055 
L 178.532559 134.677946 
L 174.709624 131.955892 
L 172.711176 130.522533 
L 170.929555 129.233837 
L 167.194276 126.511783 
L 163.649067 123.912687 
L 163.482393 123.789729 
L 159.812353 121.067675 
L 156.160575 118.34562 
L 154.586959 117.168737 
L 152.531415 115.623566 
L 148.924299 112.901512 
L 145.52485 110.330716 
L 145.325537 110.179458 
L 141.750224 107.457403 
L 138.181098 104.735349 
L 136.462741 103.423715 
L 134.620469 102.013295 
L 131.070946 99.291241 
L 127.5211 96.569186 
L 127.400633 96.47673 
L 123.984359 93.847132 
L 120.447614 91.125078 
L 118.338524 89.503076 
L 116.91107 88.403024 
L 113.382868 85.68097 
L 109.849275 82.958915 
L 109.276415 82.517825 
L 106.321685 80.236861 
L 102.794699 77.514807 
L 100.214306 75.52705 
L 99.263073 74.792753 
L 95.738473 72.070698 
L 92.208457 69.348644 
L 91.152198 68.535176 
L 88.680784 66.62659 
L 85.153818 63.904536 
L 82.090089 61.545153 
L 81.620135 61.182481 
L 78.094404 58.460427 
L 74.562462 55.738373 
L 73.02798 54.557657 
L 71.031019 53.016319 
L 67.502184 50.294264 
L 63.965872 47.573225 
" style="fill:none;stroke:#9f9fff;"/>
   </g>
   <g id="LineCollection_5">
    <path clip-path="url(#pdf0ec9028b)" d="M 240.270163 44.850156 
L 240.270163 47.57221 
L 240.270163 50.294264 
L 240.270163 53.016319 
L 240.270163 55.738373 
L 240.270163 58.460427 
L 240.270163 61.182481 
L 240.270163 63.904536 
L 240.270163 66.62659 
L 240.270163 69.348644 
L 240.270163 72.070698 
L 240.270163 74.792753 
L 240.270163 77.514807 
L 240.270163 80.236861 
L 240.270163 82.958915 
L 240.270163 85.68097 
L 240.270163 88.403024 
L 240.270163 91.125078 
L 240.270163 93.847132 
L 240.270163 96.569186 
L 240.270163 99.291241 
L 240.270163 102.013295 
L 240.270163 104.735349 
L 240.270163 107.457403 
L 240.270163 110.179458 
L 240.270163 112.901512 
L 240.270163 115.623566 
L 240.270163 118.34562 
L 240.270163 121.067675 
L 240.270163 123.789729 
L 240.270163 126.511783 
L 240.270163 129.233837 
L 240.270163 131.955892 
L 240.270163 134.677946 
L 240.270163 137.4 
L 240.270163 140.122054 
L 240.270163 142.844108 
L 240.270163 145.566163 
L 240.270163 148.288217 
L 240.270163 151.010271 
L 240.270163 153.732325 
L 240.270163 156.45438 
L 240.270163 159.176434 
L 240.270163 161.898488 
L 240.270163 164.620542 
L 240.270163 167.342597 
L 240.270163 170.064651 
L 240.270163 172.786705 
L 240.270163 175.508759 
L 240.270163 178.230814 
L 239.571278 180.952868 
L 236.873612 183.674922 
L 236.145937 184.125343 
L 235.0789 183.674922 
L 228.899538 180.952868 
L 227.083828 180.118226 
L 223.07749 178.230814 
L 219.475966 176.456987 
" style="fill:none;stroke:#7d7dff;"/>
    <path clip-path="url(#pdf0ec9028b)" d="M 195.450392 163.21255 
L 193.272514 161.898488 
L 190.835394 160.392838 
L 188.887754 159.176434 
L 184.619093 156.45438 
L 181.773285 154.601003 
L 180.449572 153.732325 
L 176.365253 151.010271 
L 172.711176 148.525177 
L 172.364277 148.288217 
L 168.419852 145.566163 
L 164.545583 142.844108 
L 163.649067 142.20857 
L 160.711656 140.122054 
L 156.9303 137.4 
L 154.586959 135.696191 
L 153.185206 134.677946 
L 149.470862 131.955892 
L 145.797727 129.233837 
L 145.52485 129.03081 
L 142.130438 126.511783 
L 138.49857 123.789729 
L 136.462741 122.254755 
L 134.880586 121.067675 
L 131.273684 118.34562 
L 127.695671 115.623566 
L 127.400633 115.398752 
L 124.10543 112.901512 
L 120.539177 110.179458 
L 118.338524 108.49249 
L 116.978692 107.457403 
L 113.416939 104.735349 
L 109.875776 102.013295 
L 109.276415 101.552067 
L 106.318406 99.291241 
L 102.777164 96.569186 
L 100.214306 94.592892 
L 99.239575 93.847132 
L 95.691733 91.125078 
L 92.16341 88.403024 
L 91.152198 87.622337 
L 88.619513 85.68097 
L 85.083925 82.958915 
L 82.090089 80.646254 
L 81.555707 80.236861 
L 78.010738 77.514807 
L 74.48311 74.792753 
L 73.02798 73.668872 
L 70.943882 72.070698 
L 67.4074 69.348644 
L 63.965872 66.689086 
" style="fill:none;stroke:#7d7dff;"/>
   </g>
   <g id="LineCollection_6">
    <path clip-path="url(#pdf0ec9028b)" d="M 254.09364 44.850156 
L 254.09364 47.57221 
L 254.09364 50.294264 
L 254.09364 53.016319 
L 254.09364 55.738373 
L 254.09364 58.460427 
L 254.09364 61.182481 
L 254.09364 63.904536 
L 254.09364 66.62659 
L 254.09364 69.348644 
L 254.09364 72.070698 
L 254.09364 74.792753 
L 254.09364 77.514807 
L 254.09364 80.236861 
L 254.09364 82.958915 
L 254.09364 85.68097 
L 254.09364 88.403024 
L 254.09364 91.125078 
L 254.09364 93.847132 
L 254.09364 96.569186 
L 254.09364 99.291241 
L 254.09364 102.013295 
L 254.09364 104.735349 
L 254.09364 107.457403 
L 254.09364 110.179458 
L 254.09364 112.901512 
L 254.09364 115.623566 
L 254.09364 118.34562 
L 254.09364 121.067675 
L 254.09364 123.789729 
L 254.09364 126.511783 
L 254.09364 129.233837 
L 254.09364 131.955892 
L 254.09364 134.677946 
L 254.09364 137.4 
L 254.09364 140.122054 
L 254.09364 142.844108 
L 254.09364 145.566163 
L 254.09364 148.288217 
L 254.09364 151.010271 
L 254.09364 153.732325 
L 254.09364 156.45438 
L 254.09364 159.176434 
L 254.09364 161.898488 
L 254.09364 164.620542 
L 254.09364 167.342597 
L 254.09364 170.064651 
L 254.09364 172.786705 
L 254.09364 175.508759 
L 254.09364 178.230814 
L 254.09364 180.952868 
L 254.09364 183.674922 
L 254.09364 186.396976 
L 254.09364 189.11903 
L 254.09364 191.841085 
L 254.034265 194.563139 
L 253.823513 197.285193 
L 249.826973 199.765211 
" style="fill:none;stroke:#5b5bff;"/>
    <path clip-path="url(#pdf0ec9028b)" d="M 222.899712 192.487901 
L 221.221097 191.841085 
L 218.02172 190.530426 
L 214.675672 189.11903 
L 208.959611 186.562148 
L 208.599116 186.396976 
L 202.879884 183.674922 
L 199.897502 182.181026 
L 197.487473 180.952868 
L 192.367337 178.230814 
L 190.835394 177.387655 
L 187.460498 175.508759 
L 182.768646 172.786705 
L 181.773285 172.194491 
L 178.215826 170.064651 
L 173.833392 167.342597 
L 172.711176 166.630774 
L 169.545267 164.620542 
L 165.38681 161.898488 
L 163.649067 160.737496 
L 161.303741 159.176434 
L 157.306815 156.45438 
L 154.586959 154.560353 
L 153.387725 153.732325 
L 149.502561 151.010271 
L 145.713547 148.288217 
L 145.52485 148.151807 
L 141.906686 145.566163 
L 138.18325 142.844108 
L 136.462741 141.571732 
L 134.472312 140.122054 
L 130.786373 137.4 
L 127.400633 134.853923 
L 127.162261 134.677946 
L 123.493004 131.955892 
L 119.892866 129.233837 
L 118.338524 128.049439 
L 116.280797 126.511783 
L 112.681217 123.789729 
L 109.276415 121.175063 
L 109.133484 121.067675 
L 105.522121 118.34562 
L 101.970978 115.623566 
L 100.214306 114.267547 
L 98.406349 112.901512 
L 94.838258 110.179458 
L 91.32174 107.457403 
L 91.152198 107.326102 
L 87.736079 104.735349 
L 84.201226 102.013295 
L 82.090089 100.37491 
L 80.661828 99.291241 
L 77.101175 96.569186 
L 73.590767 93.847132 
L 73.02798 93.410219 
L 70.021276 91.125078 
L 66.486926 88.403024 
L 63.965872 86.442759 
" style="fill:none;stroke:#5b5bff;"/>
   </g>
   <g id="LineCollection_7">
    <path clip-path="url(#pdf0ec9028b)" d="M 271.271212 44.850156 
L 271.271212 47.57221 
L 271.271212 50.294264 
L 271.271212 53.016319 
L 271.271212 55.738373 
L 271.271212 58.460427 
L 271.271212 61.182481 
L 271.271212 63.904536 
L 271.271212 66.62659 
L 271.271212 69.348644 
L 271.271212 72.070698 
L 271.271212 74.792753 
L 271.271212 77.514807 
L 271.271212 80.236861 
L 271.271212 82.958915 
L 271.271212 85.68097 
L 271.271212 87.336886 
" style="fill:none;stroke:#3939ff;"/>
    <path clip-path="url(#pdf0ec9028b)" d="M 271.271212 111.245596 
L 271.271212 112.901512 
L 271.271212 115.623566 
L 271.271212 118.34562 
L 271.271212 121.067675 
L 271.271212 123.789729 
L 271.271212 126.511783 
L 271.271212 129.233837 
L 271.271212 131.955892 
L 271.271212 134.677946 
L 271.271212 137.4 
L 271.271212 140.122054 
L 271.271212 142.844108 
L 271.271212 145.566163 
L 271.271212 148.288217 
L 271.271212 151.010271 
L 271.271212 153.732325 
L 271.271212 156.45438 
L 271.271212 159.176434 
L 271.271212 161.898488 
L 271.271212 164.620542 
L 271.271212 167.342597 
L 271.271212 170.064651 
L 271.271212 172.786705 
L 271.271212 175.508759 
L 271.271212 178.230814 
L 271.271212 180.952868 
L 271.271212 183.674922 
L 271.271212 186.396976 
L 271.271212 189.11903 
L 271.271212 191.841085 
L 271.271212 194.563139 
L 271.271212 197.285193 
L 271.271212 200.007247 
L 271.271212 202.729302 
L 271.271212 205.451356 
L 271.271212 208.17341 
L 271.218178 210.895464 
L 269.454795 213.617519 
L 263.332263 214.816184 
L 255.718594 213.617519 
L 254.270155 213.367895 
L 245.208046 211.69443 
L 241.253295 210.895464 
L 236.145937 209.769196 
L 229.47623 208.17341 
L 227.083828 207.550622 
L 219.538401 205.451356 
L 218.02172 204.993634 
L 210.911862 202.729302 
L 208.959611 202.056434 
L 203.263715 200.007247 
L 199.897502 198.699143 
L 196.375036 197.285193 
L 190.835394 194.887877 
L 190.102082 194.563139 
L 184.253523 191.841085 
L 181.773285 190.611352 
L 178.795839 189.11903 
L 173.680523 186.396976 
L 172.711176 185.861284 
L 168.758 183.674922 
L 164.126468 180.952868 
L 163.649067 180.664979 
L 159.579303 178.230814 
L 155.273717 175.508759 
L 154.586959 175.06514 
L 151.001305 172.786705 
L 146.913282 170.064651 
L 145.52485 169.118254 
L 142.857107 167.342597 
L 138.909426 164.620542 
L 136.462741 162.882102 
L 135.035112 161.898488 
L 131.168345 159.176434 
L 127.453632 156.45438 
L 127.400633 156.415363 
L 123.629902 153.732325 
L 119.947237 151.010271 
L 118.338524 149.8009 
L 116.246197 148.288217 
L 112.56874 145.566163 
L 109.276415 143.052371 
L 108.991654 142.844108 
L 105.294192 140.122054 
L 101.721084 137.4 
L 100.214306 136.23667 
L 98.105773 134.677946 
L 94.50061 131.955892 
L 91.152198 129.351981 
L 90.993047 129.233837 
L 87.342618 126.511783 
L 83.808726 123.789729 
L 82.090089 122.447154 
L 80.241649 121.067675 
L 76.65905 118.34562 
L 73.181684 115.623566 
L 73.02798 115.503233 
L 69.553714 112.901512 
L 66.028182 110.179458 
L 63.965872 108.56076 
" style="fill:none;stroke:#3939ff;"/>
   </g>
   <g id="LineCollection_8">
    <path clip-path="url(#pdf0ec9028b)" d="M 295.944721 44.850156 
L 295.944721 47.57221 
L 295.944721 50.294264 
L 295.944721 53.016319 
L 295.944721 55.738373 
L 295.944721 58.460427 
L 295.944721 61.182481 
L 295.944721 63.904536 
L 295.944721 66.62659 
L 295.944721 69.348644 
L 295.944721 72.070698 
L 295.944721 74.792753 
L 295.944721 77.514807 
L 295.944721 80.236861 
L 295.944721 82.958915 
L 295.944721 85.68097 
L 295.944721 88.403024 
L 295.944721 91.125078 
L 295.944721 93.847132 
L 295.944721 96.569186 
L 295.944721 99.291241 
L 295.944721 102.013295 
L 295.944721 104.735349 
L 295.944721 107.457403 
L 295.944721 110.179458 
L 295.944721 112.901512 
L 295.944721 115.623566 
L 295.944721 118.34562 
L 295.944721 121.067675 
L 295.944721 123.789729 
L 295.944721 126.511783 
L 295.944721 129.233837 
L 295.944721 131.955892 
L 295.944721 134.677946 
L 295.944721 137.4 
L 295.944721 140.122054 
L 295.944721 142.844108 
L 295.944721 145.566163 
L 295.944721 148.288217 
L 295.944721 151.010271 
L 295.944721 153.732325 
L 295.944721 156.45438 
L 295.944721 159.176434 
L 295.944721 161.898488 
L 295.944721 164.620542 
L 295.944721 167.342597 
L 295.944721 170.064651 
L 295.944721 172.786705 
L 295.944721 175.508759 
L 295.944721 178.230814 
L 295.944721 180.952868 
L 295.944721 183.674922 
L 295.944721 186.396976 
L 295.944721 189.11903 
L 295.944721 191.841085 
L 295.944721 194.563139 
L 295.944721 197.285193 
L 295.944721 200.007247 
L 295.944721 202.729302 
L 295.944721 205.451356 
L 295.944721 208.17341 
L 295.944721 210.895464 
L 295.944721 213.617519 
L 295.944721 216.339573 
L 295.944721 219.061627 
L 295.944721 221.783681 
L 295.233254 224.505736 
L 290.518589 225.348132 
L 281.456481 224.958181 
L 272.394372 224.509543 
L 272.322141 224.505736 
L 263.332263 223.97668 
L 254.270155 223.359366 
L 245.208046 222.637007 
L 236.163218 221.783681 
L 236.145937 221.781865 
L 227.083828 220.759344 
L 218.02172 219.533608 
L 214.901121 219.061627 
L 208.959611 218.05881 
L 200.218699 216.339573 
L 199.897502 216.269205 
L 190.835394 214.117288 
L 188.926304 213.617519 
L 181.773285 211.523584 
L 179.768011 210.895464 
L 172.711176 208.422232 
L 172.029034 208.17341 
L 165.179798 205.451356 
L 163.649067 204.781727 
L 158.992375 202.729302 
L 154.586959 200.562893 
L 153.442271 200.007247 
L 148.172176 197.285193 
L 145.52485 195.793799 
L 143.264751 194.563139 
L 138.600757 191.841085 
L 136.462741 190.508108 
L 134.117897 189.11903 
L 132.87168 188.332875 
" style="fill:none;stroke:#1717ff;"/>
    <path clip-path="url(#pdf0ec9028b)" d="M 110.487427 173.242055 
L 109.863961 172.786705 
L 109.276415 172.350503 
L 105.937004 170.064651 
L 102.2182 167.342597 
L 100.214306 165.814728 
L 98.502642 164.620542 
L 94.743729 161.898488 
L 91.237384 159.176434 
L 91.152198 159.11017 
L 87.417559 156.45438 
L 83.846429 153.732325 
L 82.090089 152.347904 
L 80.224317 151.010271 
L 76.563113 148.288217 
L 73.131917 145.566163 
L 73.02798 145.483576 
L 69.380722 142.844108 
L 65.857514 140.122054 
L 63.965872 138.610311 
" style="fill:none;stroke:#1717ff;"/>
   </g>
   <g id="LineCollection_9"/>
   <g id="line2d_17">
    <path clip-path="url(#pdf0ec9028b)" d="M 82.090089 55.568245 
L 91.152198 62.543509 
L 100.214306 69.518773 
L 109.276415 76.494036 
L 118.338524 83.4693 
L 127.400633 90.444564 
L 136.462741 97.419828 
L 145.52485 104.395092 
L 154.586959 111.370356 
L 163.649067 118.34562 
L 172.711176 125.320884 
L 181.773285 132.296148 
L 190.835394 139.271412 
L 199.897502 146.246676 
L 208.959611 153.22194 
L 218.02172 160.197204 
L 227.083828 167.172468 
L 236.145937 174.147732 
L 245.208046 181.122996 
L 254.270155 188.09826 
L 263.332263 195.073524 
L 272.394372 202.048788 
L 281.456481 209.024052 
L 290.518589 215.999316 
L 299.580698 222.97458 
L 308.642807 229.949844 
" style="fill:none;stroke:#e36f47;stroke-dasharray:22.2,9.6;stroke-dashoffset:0;stroke-width:6;"/>
   </g>
   <g id="patch_3">
    <path d="M 53.906931 235.502835 
L 53.906931 39.297165 
" style="fill:none;stroke:#000000;stroke-linecap:square;stroke-linejoin:miter;"/>
   </g>
   <g id="patch_4">
    <path d="M 53.906931 235.502835 
L 409.322835 235.502835 
" style="fill:none;stroke:#000000;stroke-linecap:square;stroke-linejoin:miter;"/>
   </g>
   <g id="text_11">
    <g clip-path="url(#pdf0ec9028b)">
     <!-- 0.104 -->
     <g style="fill:#e2e2ff;" transform="translate(192.250952 46.868419)rotate(-270)scale(0.1 -0.1)">
      <defs>
       <path d="M 31.78125 66.40625 
Q 24.171875 66.40625 20.328125 58.90625 
Q 16.5 51.421875 16.5 36.375 
Q 16.5 21.390625 20.328125 13.890625 
Q 24.171875 6.390625 31.78125 6.390625 
Q 39.453125 6.390625 43.28125 13.890625 
Q 47.125 21.390625 47.125 36.375 
Q 47.125 51.421875 43.28125 58.90625 
Q 39.453125 66.40625 31.78125 66.40625 
z
M 31.78125 74.21875 
Q 44.046875 74.21875 50.515625 64.515625 
Q 56.984375 54.828125 56.984375 36.375 
Q 56.984375 17.96875 50.515625 8.265625 
Q 44.046875 -1.421875 31.78125 -1.421875 
Q 19.53125 -1.421875 13.0625 8.265625 
Q 6.59375 17.96875 6.59375 36.375 
Q 6.59375 54.828125 13.0625 64.515625 
Q 19.53125 74.21875 31.78125 74.21875 
z
" id="DejaVuSans-48"/>
       <path d="M 10.6875 12.40625 
L 21 12.40625 
L 21 0 
L 10.6875 0 
z
" id="DejaVuSans-46"/>
       <path d="M 12.40625 8.296875 
L 28.515625 8.296875 
L 28.515625 63.921875 
L 10.984375 60.40625 
L 10.984375 69.390625 
L 28.421875 72.90625 
L 38.28125 72.90625 
L 38.28125 8.296875 
L 54.390625 8.296875 
L 54.390625 0 
L 12.40625 0 
z
" id="DejaVuSans-49"/>
       <path d="M 37.796875 64.3125 
L 12.890625 25.390625 
L 37.796875 25.390625 
z
M 35.203125 72.90625 
L 47.609375 72.90625 
L 47.609375 25.390625 
L 58.015625 25.390625 
L 58.015625 17.1875 
L 47.609375 17.1875 
L 47.609375 0 
L 37.796875 0 
L 37.796875 17.1875 
L 4.890625 17.1875 
L 4.890625 26.703125 
z
" id="DejaVuSans-52"/>
      </defs>
      <use xlink:href="#DejaVuSans-48"/>
      <use x="63.623047" xlink:href="#DejaVuSans-46"/>
      <use x="95.410156" xlink:href="#DejaVuSans-49"/>
      <use x="159.033203" xlink:href="#DejaVuSans-48"/>
      <use x="222.65625" xlink:href="#DejaVuSans-52"/>
     </g>
    </g>
   </g>
   <g id="text_12">
    <g clip-path="url(#pdf0ec9028b)">
     <!-- 0.117 -->
     <g style="fill:#c1c1ff;" transform="translate(129.566855 80.660216)rotate(-317.005938)scale(0.1 -0.1)">
      <defs>
       <path d="M 8.203125 72.90625 
L 55.078125 72.90625 
L 55.078125 68.703125 
L 28.609375 0 
L 18.3125 0 
L 43.21875 64.59375 
L 8.203125 64.59375 
z
" id="DejaVuSans-55"/>
      </defs>
      <use xlink:href="#DejaVuSans-48"/>
      <use x="63.623047" xlink:href="#DejaVuSans-46"/>
      <use x="95.410156" xlink:href="#DejaVuSans-49"/>
      <use x="159.033203" xlink:href="#DejaVuSans-49"/>
      <use x="222.65625" xlink:href="#DejaVuSans-55"/>
     </g>
    </g>
   </g>
   <g id="text_13">
    <g clip-path="url(#pdf0ec9028b)">
     <!-- 0.131 -->
     <g style="fill:#9f9fff;" transform="translate(225.311827 84.977178)rotate(-270)scale(0.1 -0.1)">
      <defs>
       <path d="M 40.578125 39.3125 
Q 47.65625 37.796875 51.625 33 
Q 55.609375 28.21875 55.609375 21.1875 
Q 55.609375 10.40625 48.1875 4.484375 
Q 40.765625 -1.421875 27.09375 -1.421875 
Q 22.515625 -1.421875 17.65625 -0.515625 
Q 12.796875 0.390625 7.625 2.203125 
L 7.625 11.71875 
Q 11.71875 9.328125 16.59375 8.109375 
Q 21.484375 6.890625 26.8125 6.890625 
Q 36.078125 6.890625 40.9375 10.546875 
Q 45.796875 14.203125 45.796875 21.1875 
Q 45.796875 27.640625 41.28125 31.265625 
Q 36.765625 34.90625 28.71875 34.90625 
L 20.21875 34.90625 
L 20.21875 43.015625 
L 29.109375 43.015625 
Q 36.375 43.015625 40.234375 45.921875 
Q 44.09375 48.828125 44.09375 54.296875 
Q 44.09375 59.90625 40.109375 62.90625 
Q 36.140625 65.921875 28.71875 65.921875 
Q 24.65625 65.921875 20.015625 65.03125 
Q 15.375 64.15625 9.8125 62.3125 
L 9.8125 71.09375 
Q 15.4375 72.65625 20.34375 73.4375 
Q 25.25 74.21875 29.59375 74.21875 
Q 40.828125 74.21875 47.359375 69.109375 
Q 53.90625 64.015625 53.90625 55.328125 
Q 53.90625 49.265625 50.4375 45.09375 
Q 46.96875 40.921875 40.578125 39.3125 
z
" id="DejaVuSans-51"/>
      </defs>
      <use xlink:href="#DejaVuSans-48"/>
      <use x="63.623047" xlink:href="#DejaVuSans-46"/>
      <use x="95.410156" xlink:href="#DejaVuSans-49"/>
      <use x="159.033203" xlink:href="#DejaVuSans-51"/>
      <use x="222.65625" xlink:href="#DejaVuSans-49"/>
     </g>
    </g>
   </g>
   <g id="text_14">
    <g clip-path="url(#pdf0ec9028b)">
     <!-- 0.145 -->
     <g style="fill:#7d7dff;" transform="translate(193.835689 164.426011)rotate(-326.333099)scale(0.1 -0.1)">
      <defs>
       <path d="M 10.796875 72.90625 
L 49.515625 72.90625 
L 49.515625 64.59375 
L 19.828125 64.59375 
L 19.828125 46.734375 
Q 21.96875 47.46875 24.109375 47.828125 
Q 26.265625 48.1875 28.421875 48.1875 
Q 40.625 48.1875 47.75 41.5 
Q 54.890625 34.8125 54.890625 23.390625 
Q 54.890625 11.625 47.5625 5.09375 
Q 40.234375 -1.421875 26.90625 -1.421875 
Q 22.3125 -1.421875 17.546875 -0.640625 
Q 12.796875 0.140625 7.71875 1.703125 
L 7.71875 11.625 
Q 12.109375 9.234375 16.796875 8.0625 
Q 21.484375 6.890625 26.703125 6.890625 
Q 35.15625 6.890625 40.078125 11.328125 
Q 45.015625 15.765625 45.015625 23.390625 
Q 45.015625 31 40.078125 35.4375 
Q 35.15625 39.890625 26.703125 39.890625 
Q 22.75 39.890625 18.8125 39.015625 
Q 14.890625 38.140625 10.796875 36.28125 
z
" id="DejaVuSans-53"/>
      </defs>
      <use xlink:href="#DejaVuSans-48"/>
      <use x="63.623047" xlink:href="#DejaVuSans-46"/>
      <use x="95.410156" xlink:href="#DejaVuSans-49"/>
      <use x="159.033203" xlink:href="#DejaVuSans-52"/>
      <use x="222.65625" xlink:href="#DejaVuSans-53"/>
     </g>
    </g>
   </g>
   <g id="text_15">
    <g clip-path="url(#pdf0ec9028b)">
     <!-- 0.159 -->
     <g style="fill:#5b5bff;" transform="translate(221.734235 194.931025)rotate(-339.795213)scale(0.1 -0.1)">
      <defs>
       <path d="M 10.984375 1.515625 
L 10.984375 10.5 
Q 14.703125 8.734375 18.5 7.8125 
Q 22.3125 6.890625 25.984375 6.890625 
Q 35.75 6.890625 40.890625 13.453125 
Q 46.046875 20.015625 46.78125 33.40625 
Q 43.953125 29.203125 39.59375 26.953125 
Q 35.25 24.703125 29.984375 24.703125 
Q 19.046875 24.703125 12.671875 31.3125 
Q 6.296875 37.9375 6.296875 49.421875 
Q 6.296875 60.640625 12.9375 67.421875 
Q 19.578125 74.21875 30.609375 74.21875 
Q 43.265625 74.21875 49.921875 64.515625 
Q 56.59375 54.828125 56.59375 36.375 
Q 56.59375 19.140625 48.40625 8.859375 
Q 40.234375 -1.421875 26.421875 -1.421875 
Q 22.703125 -1.421875 18.890625 -0.6875 
Q 15.09375 0.046875 10.984375 1.515625 
z
M 30.609375 32.421875 
Q 37.25 32.421875 41.125 36.953125 
Q 45.015625 41.5 45.015625 49.421875 
Q 45.015625 57.28125 41.125 61.84375 
Q 37.25 66.40625 30.609375 66.40625 
Q 23.96875 66.40625 20.09375 61.84375 
Q 16.21875 57.28125 16.21875 49.421875 
Q 16.21875 41.5 20.09375 36.953125 
Q 23.96875 32.421875 30.609375 32.421875 
z
" id="DejaVuSans-57"/>
      </defs>
      <use xlink:href="#DejaVuSans-48"/>
      <use x="63.623047" xlink:href="#DejaVuSans-46"/>
      <use x="95.410156" xlink:href="#DejaVuSans-49"/>
      <use x="159.033203" xlink:href="#DejaVuSans-53"/>
      <use x="222.65625" xlink:href="#DejaVuSans-57"/>
     </g>
    </g>
   </g>
   <g id="text_16">
    <g clip-path="url(#pdf0ec9028b)">
     <!-- 0.173 -->
     <g style="fill:#3939ff;" transform="translate(268.511837 84.977178)rotate(-270)scale(0.1 -0.1)">
      <use xlink:href="#DejaVuSans-48"/>
      <use x="63.623047" xlink:href="#DejaVuSans-46"/>
      <use x="95.410156" xlink:href="#DejaVuSans-49"/>
      <use x="159.033203" xlink:href="#DejaVuSans-55"/>
      <use x="222.65625" xlink:href="#DejaVuSans-51"/>
     </g>
    </g>
   </g>
   <g id="text_17">
    <g clip-path="url(#pdf0ec9028b)">
     <!-- 0.186 -->
     <g style="fill:#1717ff;" transform="translate(108.667753 174.066421)rotate(-320.898588)scale(0.1 -0.1)">
      <defs>
       <path d="M 31.78125 34.625 
Q 24.75 34.625 20.71875 30.859375 
Q 16.703125 27.09375 16.703125 20.515625 
Q 16.703125 13.921875 20.71875 10.15625 
Q 24.75 6.390625 31.78125 6.390625 
Q 38.8125 6.390625 42.859375 10.171875 
Q 46.921875 13.96875 46.921875 20.515625 
Q 46.921875 27.09375 42.890625 30.859375 
Q 38.875 34.625 31.78125 34.625 
z
M 21.921875 38.8125 
Q 15.578125 40.375 12.03125 44.71875 
Q 8.5 49.078125 8.5 55.328125 
Q 8.5 64.0625 14.71875 69.140625 
Q 20.953125 74.21875 31.78125 74.21875 
Q 42.671875 74.21875 48.875 69.140625 
Q 55.078125 64.0625 55.078125 55.328125 
Q 55.078125 49.078125 51.53125 44.71875 
Q 48 40.375 41.703125 38.8125 
Q 48.828125 37.15625 52.796875 32.3125 
Q 56.78125 27.484375 56.78125 20.515625 
Q 56.78125 9.90625 50.3125 4.234375 
Q 43.84375 -1.421875 31.78125 -1.421875 
Q 19.734375 -1.421875 13.25 4.234375 
Q 6.78125 9.90625 6.78125 20.515625 
Q 6.78125 27.484375 10.78125 32.3125 
Q 14.796875 37.15625 21.921875 38.8125 
z
M 18.3125 54.390625 
Q 18.3125 48.734375 21.84375 45.5625 
Q 25.390625 42.390625 31.78125 42.390625 
Q 38.140625 42.390625 41.71875 45.5625 
Q 45.3125 48.734375 45.3125 54.390625 
Q 45.3125 60.0625 41.71875 63.234375 
Q 38.140625 66.40625 31.78125 66.40625 
Q 25.390625 66.40625 21.84375 63.234375 
Q 18.3125 60.0625 18.3125 54.390625 
z
" id="DejaVuSans-56"/>
       <path d="M 33.015625 40.375 
Q 26.375 40.375 22.484375 35.828125 
Q 18.609375 31.296875 18.609375 23.390625 
Q 18.609375 15.53125 22.484375 10.953125 
Q 26.375 6.390625 33.015625 6.390625 
Q 39.65625 6.390625 43.53125 10.953125 
Q 47.40625 15.53125 47.40625 23.390625 
Q 47.40625 31.296875 43.53125 35.828125 
Q 39.65625 40.375 33.015625 40.375 
z
M 52.59375 71.296875 
L 52.59375 62.3125 
Q 48.875 64.0625 45.09375 64.984375 
Q 41.3125 65.921875 37.59375 65.921875 
Q 27.828125 65.921875 22.671875 59.328125 
Q 17.53125 52.734375 16.796875 39.40625 
Q 19.671875 43.65625 24.015625 45.921875 
Q 28.375 48.1875 33.59375 48.1875 
Q 44.578125 48.1875 50.953125 41.515625 
Q 57.328125 34.859375 57.328125 23.390625 
Q 57.328125 12.15625 50.6875 5.359375 
Q 44.046875 -1.421875 33.015625 -1.421875 
Q 20.359375 -1.421875 13.671875 8.265625 
Q 6.984375 17.96875 6.984375 36.375 
Q 6.984375 53.65625 15.1875 63.9375 
Q 23.390625 74.21875 37.203125 74.21875 
Q 40.921875 74.21875 44.703125 73.484375 
Q 48.484375 72.75 52.59375 71.296875 
z
" id="DejaVuSans-54"/>
      </defs>
      <use xlink:href="#DejaVuSans-48"/>
      <use x="63.623047" xlink:href="#DejaVuSans-46"/>
      <use x="95.410156" xlink:href="#DejaVuSans-49"/>
      <use x="159.033203" xlink:href="#DejaVuSans-56"/>
      <use x="222.65625" xlink:href="#DejaVuSans-54"/>
     </g>
    </g>
   </g>
   <g id="text_18">
    <!-- Max(I) -->
    <g transform="translate(208.958633 33.297165)scale(0.16 -0.16)">
     <defs>
      <path d="M 1.125 1.8125 
Q 7.328125 2.4375 9.078125 4.609375 
Q 10.84375 6.78125 10.84375 14.703125 
L 10.84375 55.328125 
Q 10.84375 60.75 9.125 62.375 
Q 7.421875 64.015625 1.375 64.3125 
L 1.375 66.15625 
L 21.140625 66.15625 
L 44.28125 15.71875 
L 66.40625 66.15625 
L 86.328125 66.15625 
L 86.328125 64.3125 
Q 80.765625 63.921875 79.15625 62.28125 
Q 77.546875 60.640625 77.546875 55.328125 
L 77.546875 10.84375 
Q 77.546875 5.375 79.15625 3.828125 
Q 80.765625 2.296875 86.328125 1.8125 
L 86.328125 0 
L 58.296875 0 
L 58.296875 1.8125 
Q 64.359375 2.296875 65.84375 3.984375 
Q 67.328125 5.671875 67.328125 12.015625 
L 67.328125 56.9375 
L 41.75 0 
L 40.375 0 
L 15.234375 54.59375 
L 15.234375 14.703125 
Q 15.234375 6.5 17.625 4 
Q 19.1875 2.390625 24.609375 1.8125 
L 24.609375 0 
L 1.125 0 
z
" id="Times-Roman-77"/>
      <path d="M 28.65625 27.046875 
Q 23.046875 25.203125 19.390625 22.953125 
Q 12.359375 18.609375 12.359375 13.09375 
Q 12.359375 8.640625 15.28125 6.546875 
Q 17.1875 5.171875 19.53125 5.171875 
Q 22.75 5.171875 25.703125 6.984375 
Q 28.65625 8.796875 28.65625 11.578125 
z
M 3.65625 9.71875 
Q 3.65625 16.796875 10.75 21.53125 
Q 15.234375 24.46875 28.65625 29.5 
L 28.65625 33.640625 
Q 28.65625 38.625 27.6875 40.578125 
Q 26.03125 43.84375 20.796875 43.84375 
Q 18.3125 43.84375 16.0625 42.578125 
Q 13.8125 41.265625 13.8125 38.96875 
Q 13.8125 38.375 14.0625 36.984375 
Q 14.3125 35.59375 14.3125 35.203125 
Q 14.3125 32.46875 12.5 31.390625 
Q 11.46875 30.765625 10.0625 30.765625 
Q 7.859375 30.765625 6.6875 32.203125 
Q 5.515625 33.640625 5.515625 35.40625 
Q 5.515625 38.8125 9.734375 42.546875 
Q 13.96875 46.296875 22.125 46.296875 
Q 31.59375 46.296875 34.96875 40.140625 
Q 36.765625 36.765625 36.765625 30.328125 
L 36.765625 10.75 
Q 36.765625 7.90625 37.15625 6.84375 
Q 37.796875 4.9375 39.796875 4.9375 
Q 40.921875 4.9375 41.65625 5.265625 
Q 42.390625 5.609375 44.1875 6.9375 
L 44.1875 4.390625 
Q 42.625 2.484375 40.828125 1.265625 
Q 38.09375 -0.59375 35.25 -0.59375 
Q 31.9375 -0.59375 30.4375 1.5625 
Q 28.953125 3.71875 28.8125 6.6875 
Q 25.09375 3.46875 22.46875 1.90625 
Q 18.015625 -0.734375 14.015625 -0.734375 
Q 9.8125 -0.734375 6.734375 2.21875 
Q 3.65625 5.171875 3.65625 9.71875 
z
M 22.265625 46.296875 
z
" id="Times-Roman-97"/>
      <path d="M 23.140625 44.875 
L 23.140625 43.5 
Q 21.296875 43.453125 20 42.984375 
Q 18.703125 42.53125 18.703125 41.0625 
Q 18.703125 40.140625 21.296875 35.84375 
Q 22.65625 33.59375 24.75 30.328125 
Q 27.640625 34.28125 29.046875 36.53125 
Q 31.453125 40.140625 31.453125 41.21875 
Q 31.453125 42.484375 30.421875 42.921875 
Q 29.390625 43.359375 27.546875 43.5 
L 27.546875 44.875 
L 43.265625 44.875 
L 43.265625 43.5 
Q 40.765625 43.3125 38.609375 42.15625 
Q 36.46875 41.015625 35.15625 39.109375 
L 26.8125 27.046875 
L 39.703125 7.515625 
Q 42.1875 3.71875 43.921875 2.59375 
Q 45.65625 1.46875 47.90625 1.375 
L 47.90625 0 
L 27.734375 0 
L 27.734375 1.375 
L 29.15625 1.46875 
Q 30.28125 1.5625 31.03125 2.140625 
Q 31.78125 2.734375 31.78125 3.609375 
Q 31.78125 4.546875 29.9375 7.71875 
Q 29.046875 9.28125 27.296875 11.96875 
Q 26.46875 13.28125 24.828125 15.625 
Q 23.1875 17.96875 22.078125 19.625 
L 14.203125 7.375 
Q 12.796875 5.171875 12.453125 4.4375 
Q 12.109375 3.71875 12.109375 3.21875 
Q 12.109375 2.296875 12.859375 2 
Q 13.625 1.703125 16.15625 1.375 
L 16.15625 0 
L 1.703125 0 
L 1.703125 1.375 
Q 4.34375 1.90625 5.609375 2.734375 
Q 6.890625 3.5625 8.984375 6.59375 
L 20.359375 23.140625 
L 10.984375 37.359375 
Q 8.15625 41.609375 7.078125 42.390625 
Q 6 43.171875 2.390625 43.5 
L 2.390625 44.875 
z
" id="Times-Roman-120"/>
      <path d="M 4.59375 25.09375 
Q 4.59375 42.09375 14.75 54.9375 
Q 21 62.796875 29.5 67.578125 
L 30.421875 65.96875 
Q 22.5625 59.71875 19.1875 53.8125 
Q 13.28125 43.5 13.28125 26.375 
Q 13.28125 13.671875 15.53125 5.421875 
Q 19.484375 -9.03125 30.421875 -16.21875 
L 29.15625 -17.828125 
Q 23.140625 -14.9375 16.15625 -6.546875 
Q 4.59375 7.375 4.59375 25.09375 
z
" id="Times-Roman-40"/>
      <path d="M 1.609375 1.8125 
Q 7.71875 2.25 9.515625 3.640625 
Q 11.328125 5.03125 11.328125 10.84375 
L 11.328125 55.328125 
Q 11.328125 60.84375 9.515625 62.421875 
Q 7.71875 64.015625 1.609375 64.3125 
L 1.609375 66.15625 
L 31.203125 66.15625 
L 31.203125 64.3125 
Q 25.09375 64.015625 23.28125 62.421875 
Q 21.484375 60.84375 21.484375 55.328125 
L 21.484375 10.84375 
Q 21.484375 5.03125 23.28125 3.640625 
Q 25.09375 2.25 31.203125 1.8125 
L 31.203125 0 
L 1.609375 0 
z
M 16.40625 66.15625 
z
" id="Times-Roman-73"/>
      <path d="M 28.46875 24.609375 
Q 28.46875 17.328125 26.5625 10.828125 
Q 24.65625 4.34375 21 -1.421875 
Q 17.140625 -7.5625 10.6875 -12.890625 
Q 6.453125 -16.40625 3.5625 -17.828125 
L 2.640625 -16.21875 
Q 10.15625 -10.5 13.625 -4.546875 
Q 19.78125 6 19.78125 23.34375 
Q 19.78125 37.359375 16.9375 46.234375 
Q 12.984375 58.796875 2.640625 65.96875 
L 3.90625 67.578125 
Q 11.625 63.28125 18.265625 54.59375 
Q 28.46875 41.21875 28.46875 24.609375 
z
" id="Times-Roman-41"/>
     </defs>
     <use xlink:href="#Times-Roman-77"/>
     <use x="88.916016" xlink:href="#Times-Roman-97"/>
     <use x="133.300781" xlink:href="#Times-Roman-120"/>
     <use x="183.300781" xlink:href="#Times-Roman-40"/>
     <use x="216.601562" xlink:href="#Times-Roman-73"/>
     <use x="249.902344" xlink:href="#Times-Roman-41"/>
    </g>
   </g>
  </g>
 </g>
 <defs>
  <clipPath id="pdf0ec9028b">
   <rect height="196.205669" width="355.415904" x="53.906931" y="39.297165"/>
  </clipPath>
 </defs>
</svg>
