<?xml version="1.0" encoding="utf-8" standalone="no"?>
<!DOCTYPE svg PUBLIC "-//W3C//DTD SVG 1.1//EN"
  "http://www.w3.org/Graphics/SVG/1.1/DTD/svg11.dtd">
<!-- Created with matplotlib (https://matplotlib.org/) -->
<svg height="288pt" version="1.1" viewBox="0 0 432 288" width="432pt" xmlns="http://www.w3.org/2000/svg" xmlns:xlink="http://www.w3.org/1999/xlink">
 <metadata>
  <rdf:RDF xmlns:cc="http://creativecommons.org/ns#" xmlns:dc="http://purl.org/dc/elements/1.1/" xmlns:rdf="http://www.w3.org/1999/02/22-rdf-syntax-ns#">
   <cc:Work>
    <dc:type rdf:resource="http://purl.org/dc/dcmitype/StillImage"/>
    <dc:date>2021-03-03T10:22:15.638078</dc:date>
    <dc:format>image/svg+xml</dc:format>
    <dc:creator>
     <cc:Agent>
      <dc:title>Matplotlib v3.3.4, https://matplotlib.org/</dc:title>
     </cc:Agent>
    </dc:creator>
   </cc:Work>
  </rdf:RDF>
 </metadata>
 <defs>
  <style type="text/css">*{stroke-linecap:butt;stroke-linejoin:round;}</style>
 </defs>
 <g id="figure_1">
  <g id="patch_1">
   <path d="M 0 288 
L 432 288 
L 432 0 
L 0 0 
z
" style="fill:#ffffff;"/>
  </g>
  <g id="axes_1">
   <g id="patch_2">
    <path d="M 53.906931 234.782835 
L 409.322835 234.782835 
L 409.322835 39.297165 
L 53.906931 39.297165 
z
" style="fill:#ffffff;"/>
   </g>
   <g id="matplotlib.axis_1">
    <g id="xtick_1">
     <g id="line2d_1">
      <path clip-path="url(#pc0dc47f27b)" d="M 63.965872 234.782835 
L 63.965872 39.297165 
" style="fill:none;stroke:#000000;stroke-linecap:square;stroke-opacity:0.1;stroke-width:0.5;"/>
     </g>
     <g id="line2d_2">
      <defs>
       <path d="M 0 0 
L 0 -2.5 
" id="m7ec4c1489c" style="stroke:#000000;stroke-width:0.5;"/>
      </defs>
      <g>
       <use style="stroke:#000000;stroke-width:0.5;" x="63.965872" xlink:href="#m7ec4c1489c" y="234.782835"/>
      </g>
     </g>
     <g id="text_1">
      <!-- $\mathregular{0}$ -->
      <g transform="translate(60.965872 246.510335)scale(0.12 -0.12)">
       <defs>
        <path d="M 23.921875 1.8125 
Q 31.109375 1.8125 33.78125 9.671875 
Q 36.46875 17.53125 36.46875 32.421875 
Q 36.46875 44.28125 34.859375 51.375 
Q 31.84375 64.546875 23.53125 64.546875 
Q 15.234375 64.546875 12.15625 50.984375 
Q 10.546875 43.75 10.546875 31.9375 
Q 10.546875 20.84375 12.203125 14.203125 
Q 15.328125 1.8125 23.921875 1.8125 
z
M 23.78125 67.1875 
Q 35.015625 67.1875 41.21875 55.421875 
Q 46.140625 45.90625 46.140625 33.546875 
Q 46.140625 23.828125 43.109375 15.234375 
Q 37.40625 -0.921875 23.34375 -0.921875 
Q 13.71875 -0.921875 7.515625 7.8125 
Q 0.875 17.140625 0.875 33.15625 
Q 0.875 45.75 5.328125 54.828125 
Q 11.328125 67.1875 23.78125 67.1875 
z
" id="Times-Roman-48"/>
       </defs>
       <use transform="translate(0 0.8125)" xlink:href="#Times-Roman-48"/>
      </g>
     </g>
    </g>
    <g id="xtick_2">
     <g id="line2d_3">
      <path clip-path="url(#pc0dc47f27b)" d="M 131.025476 234.782835 
L 131.025476 39.297165 
" style="fill:none;stroke:#000000;stroke-linecap:square;stroke-opacity:0.1;stroke-width:0.5;"/>
     </g>
     <g id="line2d_4">
      <g>
       <use style="stroke:#000000;stroke-width:0.5;" x="131.025476" xlink:href="#m7ec4c1489c" y="234.782835"/>
      </g>
     </g>
     <g id="text_2">
      <!-- $\mathregular{5}$ -->
      <g transform="translate(128.025476 246.510335)scale(0.12 -0.12)">
       <defs>
        <path d="M 7.46875 8.9375 
Q 10.25 8.9375 14.765625 5.78125 
Q 19.28125 2.640625 21.734375 2.640625 
Q 27.34375 2.640625 31.546875 7.59375 
Q 35.75 12.546875 35.75 19.78125 
Q 35.75 32.421875 22.265625 37.984375 
Q 14.796875 41.0625 8.34375 41.0625 
Q 7.28125 41.0625 7 41.140625 
Q 6.734375 41.21875 6.34375 41.65625 
Q 6.453125 42.046875 6.515625 42.3125 
Q 6.59375 42.578125 6.6875 42.828125 
L 17.328125 66.15625 
L 38.28125 66.15625 
Q 39.84375 66.15625 40.6875 66.6875 
Q 41.546875 67.234375 42.921875 68.703125 
L 43.703125 68.015625 
L 39.890625 58.984375 
Q 39.703125 58.546875 38.8125 58.421875 
Q 37.9375 58.296875 36.921875 58.296875 
L 18.015625 58.296875 
L 13.875 49.75 
Q 21.875 48.390625 25.59375 47.171875 
Q 31.6875 45.125 35.796875 41.109375 
Q 39.3125 37.640625 41.109375 33.3125 
Q 42.921875 29 42.921875 24.171875 
Q 42.921875 13.375 35.234375 6.140625 
Q 27.546875 -1.078125 15.765625 -1.078125 
Q 10.984375 -1.078125 8.0625 -0.140625 
Q 3.171875 1.375 3.171875 5.28125 
Q 3.171875 6.734375 4.21875 7.828125 
Q 5.28125 8.9375 7.46875 8.9375 
z
" id="Times-Roman-53"/>
       </defs>
       <use transform="translate(0 0.296875)" xlink:href="#Times-Roman-53"/>
      </g>
     </g>
    </g>
    <g id="xtick_3">
     <g id="line2d_5">
      <path clip-path="url(#pc0dc47f27b)" d="M 198.085081 234.782835 
L 198.085081 39.297165 
" style="fill:none;stroke:#000000;stroke-linecap:square;stroke-opacity:0.1;stroke-width:0.5;"/>
     </g>
     <g id="line2d_6">
      <g>
       <use style="stroke:#000000;stroke-width:0.5;" x="198.085081" xlink:href="#m7ec4c1489c" y="234.782835"/>
      </g>
     </g>
     <g id="text_3">
      <!-- $\mathregular{10}$ -->
      <g transform="translate(192.085081 246.510335)scale(0.12 -0.12)">
       <defs>
        <path d="M 29.59375 67.09375 
Q 29.78125 66.84375 29.796875 66.71875 
Q 29.828125 66.609375 29.828125 66.15625 
L 29.828125 7.375 
Q 29.828125 3.609375 31.828125 2.578125 
Q 33.84375 1.5625 39.3125 1.375 
L 39.3125 0 
L 11.765625 0 
L 11.765625 1.46875 
Q 17.671875 1.765625 19.484375 3.078125 
Q 21.296875 4.390625 21.296875 8.796875 
L 21.296875 54 
Q 21.296875 56.34375 20.703125 57.5625 
Q 20.125 58.796875 18.171875 58.796875 
Q 16.890625 58.796875 14.859375 58.078125 
Q 12.84375 57.375 11.078125 56.59375 
L 11.078125 57.953125 
L 29 67.09375 
L 29.59375 67.09375 
z
" id="Times-Roman-49"/>
       </defs>
       <use transform="translate(0 0.8125)" xlink:href="#Times-Roman-49"/>
       <use transform="translate(50 0.8125)" xlink:href="#Times-Roman-48"/>
      </g>
     </g>
    </g>
    <g id="xtick_4">
     <g id="line2d_7">
      <path clip-path="url(#pc0dc47f27b)" d="M 265.144685 234.782835 
L 265.144685 39.297165 
" style="fill:none;stroke:#000000;stroke-linecap:square;stroke-opacity:0.1;stroke-width:0.5;"/>
     </g>
     <g id="line2d_8">
      <g>
       <use style="stroke:#000000;stroke-width:0.5;" x="265.144685" xlink:href="#m7ec4c1489c" y="234.782835"/>
      </g>
     </g>
     <g id="text_4">
      <!-- $\mathregular{15}$ -->
      <g transform="translate(259.144685 246.510335)scale(0.12 -0.12)">
       <use transform="translate(0 0.296875)" xlink:href="#Times-Roman-49"/>
       <use transform="translate(50 0.296875)" xlink:href="#Times-Roman-53"/>
      </g>
     </g>
    </g>
    <g id="xtick_5">
     <g id="line2d_9">
      <path clip-path="url(#pc0dc47f27b)" d="M 332.20429 234.782835 
L 332.20429 39.297165 
" style="fill:none;stroke:#000000;stroke-linecap:square;stroke-opacity:0.1;stroke-width:0.5;"/>
     </g>
     <g id="line2d_10">
      <g>
       <use style="stroke:#000000;stroke-width:0.5;" x="332.20429" xlink:href="#m7ec4c1489c" y="234.782835"/>
      </g>
     </g>
     <g id="text_5">
      <!-- $\mathregular{20}$ -->
      <g transform="translate(326.20429 246.510335)scale(0.12 -0.12)">
       <defs>
        <path d="M 2.984375 1.125 
Q 20.84375 19.671875 27.234375 28.359375 
Q 33.640625 37.0625 33.640625 45.3125 
Q 33.640625 52.546875 29.734375 56.328125 
Q 25.828125 60.109375 20.40625 60.109375 
Q 13.71875 60.109375 9.578125 55.21875 
Q 7.28125 52.546875 5.171875 46.96875 
L 3.078125 47.40625 
Q 5.515625 58.640625 11.34375 63.015625 
Q 17.1875 67.390625 23.875 67.390625 
Q 32.125 67.390625 37.21875 62.1875 
Q 42.328125 56.984375 42.328125 49.46875 
Q 42.328125 41.453125 36.8125 34.03125 
Q 31.296875 26.609375 12.84375 7.625 
L 35.25 7.625 
Q 39.9375 7.625 41.84375 8.734375 
Q 43.75 9.859375 46.140625 14.203125 
L 47.40625 13.625 
L 42 0 
L 2.984375 0 
z
" id="Times-Roman-50"/>
       </defs>
       <use transform="translate(0 0.609375)" xlink:href="#Times-Roman-50"/>
       <use transform="translate(50 0.609375)" xlink:href="#Times-Roman-48"/>
      </g>
     </g>
    </g>
    <g id="xtick_6">
     <g id="line2d_11">
      <path clip-path="url(#pc0dc47f27b)" d="M 399.263894 234.782835 
L 399.263894 39.297165 
" style="fill:none;stroke:#000000;stroke-linecap:square;stroke-opacity:0.1;stroke-width:0.5;"/>
     </g>
     <g id="line2d_12">
      <g>
       <use style="stroke:#000000;stroke-width:0.5;" x="399.263894" xlink:href="#m7ec4c1489c" y="234.782835"/>
      </g>
     </g>
     <g id="text_6">
      <!-- $\mathregular{25}$ -->
      <g transform="translate(393.263894 246.510335)scale(0.12 -0.12)">
       <use transform="translate(0 0.296875)" xlink:href="#Times-Roman-50"/>
       <use transform="translate(50 0.296875)" xlink:href="#Times-Roman-53"/>
      </g>
     </g>
    </g>
    <g id="text_7">
     <!-- SD Start Time ts [days] -->
     <g transform="translate(161.898633 262.24221)scale(0.12 -0.12)">
      <defs>
       <path d="M 53.515625 70.515625 
L 53.515625 60.890625 
Q 47.90625 63.578125 42.921875 64.890625 
Q 37.9375 66.21875 33.296875 66.21875 
Q 25.25 66.21875 20.875 63.09375 
Q 16.5 59.96875 16.5 54.203125 
Q 16.5 49.359375 19.40625 46.890625 
Q 22.3125 44.4375 30.421875 42.921875 
L 36.375 41.703125 
Q 47.40625 39.59375 52.65625 34.296875 
Q 57.90625 29 57.90625 20.125 
Q 57.90625 9.515625 50.796875 4.046875 
Q 43.703125 -1.421875 29.984375 -1.421875 
Q 24.8125 -1.421875 18.96875 -0.25 
Q 13.140625 0.921875 6.890625 3.21875 
L 6.890625 13.375 
Q 12.890625 10.015625 18.65625 8.296875 
Q 24.421875 6.59375 29.984375 6.59375 
Q 38.421875 6.59375 43.015625 9.90625 
Q 47.609375 13.234375 47.609375 19.390625 
Q 47.609375 24.75 44.3125 27.78125 
Q 41.015625 30.8125 33.5 32.328125 
L 27.484375 33.5 
Q 16.453125 35.6875 11.515625 40.375 
Q 6.59375 45.0625 6.59375 53.421875 
Q 6.59375 63.09375 13.40625 68.65625 
Q 20.21875 74.21875 32.171875 74.21875 
Q 37.3125 74.21875 42.625 73.28125 
Q 47.953125 72.359375 53.515625 70.515625 
z
" id="DejaVuSans-83"/>
       <path d="M 19.671875 64.796875 
L 19.671875 8.109375 
L 31.59375 8.109375 
Q 46.6875 8.109375 53.6875 14.9375 
Q 60.6875 21.78125 60.6875 36.53125 
Q 60.6875 51.171875 53.6875 57.984375 
Q 46.6875 64.796875 31.59375 64.796875 
z
M 9.8125 72.90625 
L 30.078125 72.90625 
Q 51.265625 72.90625 61.171875 64.09375 
Q 71.09375 55.28125 71.09375 36.53125 
Q 71.09375 17.671875 61.125 8.828125 
Q 51.171875 0 30.078125 0 
L 9.8125 0 
z
" id="DejaVuSans-68"/>
       <path id="DejaVuSans-32"/>
       <path d="M 18.3125 70.21875 
L 18.3125 54.6875 
L 36.8125 54.6875 
L 36.8125 47.703125 
L 18.3125 47.703125 
L 18.3125 18.015625 
Q 18.3125 11.328125 20.140625 9.421875 
Q 21.96875 7.515625 27.59375 7.515625 
L 36.8125 7.515625 
L 36.8125 0 
L 27.59375 0 
Q 17.1875 0 13.234375 3.875 
Q 9.28125 7.765625 9.28125 18.015625 
L 9.28125 47.703125 
L 2.6875 47.703125 
L 2.6875 54.6875 
L 9.28125 54.6875 
L 9.28125 70.21875 
z
" id="DejaVuSans-116"/>
       <path d="M 34.28125 27.484375 
Q 23.390625 27.484375 19.1875 25 
Q 14.984375 22.515625 14.984375 16.5 
Q 14.984375 11.71875 18.140625 8.90625 
Q 21.296875 6.109375 26.703125 6.109375 
Q 34.1875 6.109375 38.703125 11.40625 
Q 43.21875 16.703125 43.21875 25.484375 
L 43.21875 27.484375 
z
M 52.203125 31.203125 
L 52.203125 0 
L 43.21875 0 
L 43.21875 8.296875 
Q 40.140625 3.328125 35.546875 0.953125 
Q 30.953125 -1.421875 24.3125 -1.421875 
Q 15.921875 -1.421875 10.953125 3.296875 
Q 6 8.015625 6 15.921875 
Q 6 25.140625 12.171875 29.828125 
Q 18.359375 34.515625 30.609375 34.515625 
L 43.21875 34.515625 
L 43.21875 35.40625 
Q 43.21875 41.609375 39.140625 45 
Q 35.0625 48.390625 27.6875 48.390625 
Q 23 48.390625 18.546875 47.265625 
Q 14.109375 46.140625 10.015625 43.890625 
L 10.015625 52.203125 
Q 14.9375 54.109375 19.578125 55.046875 
Q 24.21875 56 28.609375 56 
Q 40.484375 56 46.34375 49.84375 
Q 52.203125 43.703125 52.203125 31.203125 
z
" id="DejaVuSans-97"/>
       <path d="M 41.109375 46.296875 
Q 39.59375 47.171875 37.8125 47.578125 
Q 36.03125 48 33.890625 48 
Q 26.265625 48 22.1875 43.046875 
Q 18.109375 38.09375 18.109375 28.8125 
L 18.109375 0 
L 9.078125 0 
L 9.078125 54.6875 
L 18.109375 54.6875 
L 18.109375 46.1875 
Q 20.953125 51.171875 25.484375 53.578125 
Q 30.03125 56 36.53125 56 
Q 37.453125 56 38.578125 55.875 
Q 39.703125 55.765625 41.0625 55.515625 
z
" id="DejaVuSans-114"/>
       <path d="M -0.296875 72.90625 
L 61.375 72.90625 
L 61.375 64.59375 
L 35.5 64.59375 
L 35.5 0 
L 25.59375 0 
L 25.59375 64.59375 
L -0.296875 64.59375 
z
" id="DejaVuSans-84"/>
       <path d="M 9.421875 54.6875 
L 18.40625 54.6875 
L 18.40625 0 
L 9.421875 0 
z
M 9.421875 75.984375 
L 18.40625 75.984375 
L 18.40625 64.59375 
L 9.421875 64.59375 
z
" id="DejaVuSans-105"/>
       <path d="M 52 44.1875 
Q 55.375 50.25 60.0625 53.125 
Q 64.75 56 71.09375 56 
Q 79.640625 56 84.28125 50.015625 
Q 88.921875 44.046875 88.921875 33.015625 
L 88.921875 0 
L 79.890625 0 
L 79.890625 32.71875 
Q 79.890625 40.578125 77.09375 44.375 
Q 74.3125 48.1875 68.609375 48.1875 
Q 61.625 48.1875 57.5625 43.546875 
Q 53.515625 38.921875 53.515625 30.90625 
L 53.515625 0 
L 44.484375 0 
L 44.484375 32.71875 
Q 44.484375 40.625 41.703125 44.40625 
Q 38.921875 48.1875 33.109375 48.1875 
Q 26.21875 48.1875 22.15625 43.53125 
Q 18.109375 38.875 18.109375 30.90625 
L 18.109375 0 
L 9.078125 0 
L 9.078125 54.6875 
L 18.109375 54.6875 
L 18.109375 46.1875 
Q 21.1875 51.21875 25.484375 53.609375 
Q 29.78125 56 35.6875 56 
Q 41.65625 56 45.828125 52.96875 
Q 50 49.953125 52 44.1875 
z
" id="DejaVuSans-109"/>
       <path d="M 56.203125 29.59375 
L 56.203125 25.203125 
L 14.890625 25.203125 
Q 15.484375 15.921875 20.484375 11.0625 
Q 25.484375 6.203125 34.421875 6.203125 
Q 39.59375 6.203125 44.453125 7.46875 
Q 49.3125 8.734375 54.109375 11.28125 
L 54.109375 2.78125 
Q 49.265625 0.734375 44.1875 -0.34375 
Q 39.109375 -1.421875 33.890625 -1.421875 
Q 20.796875 -1.421875 13.15625 6.1875 
Q 5.515625 13.8125 5.515625 26.8125 
Q 5.515625 40.234375 12.765625 48.109375 
Q 20.015625 56 32.328125 56 
Q 43.359375 56 49.78125 48.890625 
Q 56.203125 41.796875 56.203125 29.59375 
z
M 47.21875 32.234375 
Q 47.125 39.59375 43.09375 43.984375 
Q 39.0625 48.390625 32.421875 48.390625 
Q 24.90625 48.390625 20.390625 44.140625 
Q 15.875 39.890625 15.1875 32.171875 
z
" id="DejaVuSans-101"/>
       <path d="M 44.28125 53.078125 
L 44.28125 44.578125 
Q 40.484375 46.53125 36.375 47.5 
Q 32.28125 48.484375 27.875 48.484375 
Q 21.1875 48.484375 17.84375 46.4375 
Q 14.5 44.390625 14.5 40.28125 
Q 14.5 37.15625 16.890625 35.375 
Q 19.28125 33.59375 26.515625 31.984375 
L 29.59375 31.296875 
Q 39.15625 29.25 43.1875 25.515625 
Q 47.21875 21.78125 47.21875 15.09375 
Q 47.21875 7.46875 41.1875 3.015625 
Q 35.15625 -1.421875 24.609375 -1.421875 
Q 20.21875 -1.421875 15.453125 -0.5625 
Q 10.6875 0.296875 5.421875 2 
L 5.421875 11.28125 
Q 10.40625 8.6875 15.234375 7.390625 
Q 20.0625 6.109375 24.8125 6.109375 
Q 31.15625 6.109375 34.5625 8.28125 
Q 37.984375 10.453125 37.984375 14.40625 
Q 37.984375 18.0625 35.515625 20.015625 
Q 33.0625 21.96875 24.703125 23.78125 
L 21.578125 24.515625 
Q 13.234375 26.265625 9.515625 29.90625 
Q 5.8125 33.546875 5.8125 39.890625 
Q 5.8125 47.609375 11.28125 51.796875 
Q 16.75 56 26.8125 56 
Q 31.78125 56 36.171875 55.265625 
Q 40.578125 54.546875 44.28125 53.078125 
z
" id="DejaVuSans-115"/>
       <path d="M 8.59375 75.984375 
L 29.296875 75.984375 
L 29.296875 69 
L 17.578125 69 
L 17.578125 -6.203125 
L 29.296875 -6.203125 
L 29.296875 -13.1875 
L 8.59375 -13.1875 
z
" id="DejaVuSans-91"/>
       <path d="M 45.40625 46.390625 
L 45.40625 75.984375 
L 54.390625 75.984375 
L 54.390625 0 
L 45.40625 0 
L 45.40625 8.203125 
Q 42.578125 3.328125 38.25 0.953125 
Q 33.9375 -1.421875 27.875 -1.421875 
Q 17.96875 -1.421875 11.734375 6.484375 
Q 5.515625 14.40625 5.515625 27.296875 
Q 5.515625 40.1875 11.734375 48.09375 
Q 17.96875 56 27.875 56 
Q 33.9375 56 38.25 53.625 
Q 42.578125 51.265625 45.40625 46.390625 
z
M 14.796875 27.296875 
Q 14.796875 17.390625 18.875 11.75 
Q 22.953125 6.109375 30.078125 6.109375 
Q 37.203125 6.109375 41.296875 11.75 
Q 45.40625 17.390625 45.40625 27.296875 
Q 45.40625 37.203125 41.296875 42.84375 
Q 37.203125 48.484375 30.078125 48.484375 
Q 22.953125 48.484375 18.875 42.84375 
Q 14.796875 37.203125 14.796875 27.296875 
z
" id="DejaVuSans-100"/>
       <path d="M 32.171875 -5.078125 
Q 28.375 -14.84375 24.75 -17.8125 
Q 21.140625 -20.796875 15.09375 -20.796875 
L 7.90625 -20.796875 
L 7.90625 -13.28125 
L 13.1875 -13.28125 
Q 16.890625 -13.28125 18.9375 -11.515625 
Q 21 -9.765625 23.484375 -3.21875 
L 25.09375 0.875 
L 2.984375 54.6875 
L 12.5 54.6875 
L 29.59375 11.921875 
L 46.6875 54.6875 
L 56.203125 54.6875 
z
" id="DejaVuSans-121"/>
       <path d="M 30.421875 75.984375 
L 30.421875 -13.1875 
L 9.71875 -13.1875 
L 9.71875 -6.203125 
L 21.390625 -6.203125 
L 21.390625 69 
L 9.71875 69 
L 9.71875 75.984375 
z
" id="DejaVuSans-93"/>
      </defs>
      <use xlink:href="#DejaVuSans-83"/>
      <use x="63.476562" xlink:href="#DejaVuSans-68"/>
      <use x="140.478516" xlink:href="#DejaVuSans-32"/>
      <use x="172.265625" xlink:href="#DejaVuSans-83"/>
      <use x="235.742188" xlink:href="#DejaVuSans-116"/>
      <use x="274.951172" xlink:href="#DejaVuSans-97"/>
      <use x="336.230469" xlink:href="#DejaVuSans-114"/>
      <use x="377.34375" xlink:href="#DejaVuSans-116"/>
      <use x="416.552734" xlink:href="#DejaVuSans-32"/>
      <use x="448.339844" xlink:href="#DejaVuSans-84"/>
      <use x="506.298828" xlink:href="#DejaVuSans-105"/>
      <use x="534.082031" xlink:href="#DejaVuSans-109"/>
      <use x="631.494141" xlink:href="#DejaVuSans-101"/>
      <use x="693.017578" xlink:href="#DejaVuSans-32"/>
      <use x="724.804688" xlink:href="#DejaVuSans-116"/>
      <use x="764.013672" xlink:href="#DejaVuSans-115"/>
      <use x="816.113281" xlink:href="#DejaVuSans-32"/>
      <use x="847.900391" xlink:href="#DejaVuSans-91"/>
      <use x="886.914062" xlink:href="#DejaVuSans-100"/>
      <use x="950.390625" xlink:href="#DejaVuSans-97"/>
      <use x="1011.669922" xlink:href="#DejaVuSans-121"/>
      <use x="1070.849609" xlink:href="#DejaVuSans-115"/>
      <use x="1122.949219" xlink:href="#DejaVuSans-93"/>
     </g>
    </g>
   </g>
   <g id="matplotlib.axis_2">
    <g id="ytick_1">
     <g id="line2d_13">
      <path clip-path="url(#pc0dc47f27b)" d="M 53.906931 229.250221 
L 409.322835 229.250221 
" style="fill:none;stroke:#000000;stroke-linecap:square;stroke-opacity:0.1;stroke-width:0.5;"/>
     </g>
     <g id="line2d_14">
      <defs>
       <path d="M 0 0 
L 2.5 0 
" id="m6bcd76cd8c" style="stroke:#000000;stroke-width:0.5;"/>
      </defs>
      <g>
       <use style="stroke:#000000;stroke-width:0.5;" x="53.906931" xlink:href="#m6bcd76cd8c" y="229.250221"/>
      </g>
     </g>
     <g id="text_8">
      <!-- $\mathregular{0}$ -->
      <g transform="translate(44.406931 233.363971)scale(0.12 -0.12)">
       <use transform="translate(0 0.8125)" xlink:href="#Times-Roman-48"/>
      </g>
     </g>
    </g>
    <g id="ytick_2">
     <g id="line2d_15">
      <path clip-path="url(#pc0dc47f27b)" d="M 53.906931 190.829296 
L 409.322835 190.829296 
" style="fill:none;stroke:#000000;stroke-linecap:square;stroke-opacity:0.1;stroke-width:0.5;"/>
     </g>
     <g id="line2d_16">
      <g>
       <use style="stroke:#000000;stroke-width:0.5;" x="53.906931" xlink:href="#m6bcd76cd8c" y="190.829296"/>
      </g>
     </g>
     <g id="text_9">
      <!-- $\mathregular{20}$ -->
      <g transform="translate(38.406931 194.943046)scale(0.12 -0.12)">
       <use transform="translate(0 0.609375)" xlink:href="#Times-Roman-50"/>
       <use transform="translate(50 0.609375)" xlink:href="#Times-Roman-48"/>
      </g>
     </g>
    </g>
    <g id="ytick_3">
     <g id="line2d_17">
      <path clip-path="url(#pc0dc47f27b)" d="M 53.906931 152.40837 
L 409.322835 152.40837 
" style="fill:none;stroke:#000000;stroke-linecap:square;stroke-opacity:0.1;stroke-width:0.5;"/>
     </g>
     <g id="line2d_18">
      <g>
       <use style="stroke:#000000;stroke-width:0.5;" x="53.906931" xlink:href="#m6bcd76cd8c" y="152.40837"/>
      </g>
     </g>
     <g id="text_10">
      <!-- $\mathregular{40}$ -->
      <g transform="translate(38.406931 156.52212)scale(0.12 -0.12)">
       <defs>
        <path d="M 29.15625 57.03125 
L 5.171875 23.140625 
L 29.15625 23.140625 
z
M 32.375 67.09375 
L 37.015625 67.09375 
L 37.015625 23.140625 
L 47.21875 23.140625 
L 47.21875 16.65625 
L 37.015625 16.65625 
L 37.015625 0 
L 29.25 0 
L 29.25 16.65625 
L 1.125 16.65625 
L 1.125 23.140625 
z
" id="Times-Roman-52"/>
       </defs>
       <use transform="translate(0 0.8125)" xlink:href="#Times-Roman-52"/>
       <use transform="translate(50 0.8125)" xlink:href="#Times-Roman-48"/>
      </g>
     </g>
    </g>
    <g id="ytick_4">
     <g id="line2d_19">
      <path clip-path="url(#pc0dc47f27b)" d="M 53.906931 113.987445 
L 409.322835 113.987445 
" style="fill:none;stroke:#000000;stroke-linecap:square;stroke-opacity:0.1;stroke-width:0.5;"/>
     </g>
     <g id="line2d_20">
      <g>
       <use style="stroke:#000000;stroke-width:0.5;" x="53.906931" xlink:href="#m6bcd76cd8c" y="113.987445"/>
      </g>
     </g>
     <g id="text_11">
      <!-- $\mathregular{60}$ -->
      <g transform="translate(38.406931 118.101195)scale(0.12 -0.12)">
       <defs>
        <path d="M 46.78125 22.21875 
Q 46.78125 13.28125 41.03125 6.09375 
Q 35.296875 -1.078125 26.125 -1.078125 
Q 17.53125 -1.078125 10.46875 6.984375 
Q 3.421875 15.046875 3.421875 28.421875 
Q 3.421875 45.65625 17.09375 58.015625 
Q 29.296875 68.359375 44.53125 68.359375 
L 44.78125 66.75 
Q 38.671875 65.625 34.25 63.6875 
Q 29.828125 61.765625 26.375 58.296875 
Q 22.796875 54.78125 19.671875 49.359375 
Q 16.546875 43.953125 15.375 38.625 
Q 18.40625 40.484375 20.609375 41.359375 
Q 24.515625 42.921875 28.46875 42.921875 
Q 36.234375 42.921875 41.5 37.546875 
Q 46.78125 32.171875 46.78125 22.21875 
z
M 37.84375 18.453125 
Q 37.84375 24.953125 35.796875 29.984375 
Q 32.375 38.375 24.171875 38.375 
Q 16.609375 38.375 14.109375 33.890625 
Q 12.640625 31.25 12.640625 25.09375 
Q 12.640625 17.140625 16.03125 9.515625 
Q 19.4375 1.90625 26.765625 1.90625 
Q 32.5625 1.90625 35.203125 6.859375 
Q 37.84375 11.8125 37.84375 18.453125 
z
" id="Times-Roman-54"/>
       </defs>
       <use transform="translate(0 0.640625)" xlink:href="#Times-Roman-54"/>
       <use transform="translate(50 0.640625)" xlink:href="#Times-Roman-48"/>
      </g>
     </g>
    </g>
    <g id="ytick_5">
     <g id="line2d_21">
      <path clip-path="url(#pc0dc47f27b)" d="M 53.906931 75.566519 
L 409.322835 75.566519 
" style="fill:none;stroke:#000000;stroke-linecap:square;stroke-opacity:0.1;stroke-width:0.5;"/>
     </g>
     <g id="line2d_22">
      <g>
       <use style="stroke:#000000;stroke-width:0.5;" x="53.906931" xlink:href="#m6bcd76cd8c" y="75.566519"/>
      </g>
     </g>
     <g id="text_12">
      <!-- $\mathregular{80}$ -->
      <g transform="translate(38.406931 79.680269)scale(0.12 -0.12)">
       <defs>
        <path d="M 25.140625 1.65625 
Q 30.765625 1.65625 33.640625 4.78125 
Q 36.53125 7.90625 36.53125 12.59375 
Q 36.53125 17.921875 33.46875 21.21875 
Q 30.421875 24.515625 20.953125 31.203125 
Q 16.75 28.5625 14.84375 24.359375 
Q 12.9375 20.171875 12.9375 16.265625 
Q 12.9375 9.578125 16.375 5.609375 
Q 19.828125 1.65625 25.140625 1.65625 
z
M 25.78125 38.96875 
Q 30.375 42.1875 32.125 44.390625 
Q 35.15625 48.140625 35.15625 53.46875 
Q 35.15625 58.109375 32.296875 61.34375 
Q 29.4375 64.59375 23.640625 64.59375 
Q 19.140625 64.59375 16.203125 61.765625 
Q 13.28125 58.9375 13.28125 54.890625 
Q 13.28125 50.296875 16.71875 46.359375 
Q 20.171875 42.4375 25.78125 38.96875 
z
M 18.265625 33.296875 
Q 11.8125 38.484375 9.46875 41.546875 
Q 5.859375 46.234375 5.859375 51.90625 
Q 5.859375 58.34375 11.203125 62.828125 
Q 16.546875 67.328125 25.09375 67.328125 
Q 32.953125 67.328125 37.59375 63.078125 
Q 42.234375 58.84375 42.234375 53.21875 
Q 42.234375 47.515625 37.5 42.96875 
Q 34.765625 40.375 28.65625 37.015625 
Q 36.96875 30.859375 40.546875 26.296875 
Q 44.140625 21.734375 44.140625 15.53125 
Q 44.140625 8.5 38.84375 3.703125 
Q 33.546875 -1.078125 24.65625 -1.078125 
Q 16.703125 -1.078125 11.015625 3.34375 
Q 5.328125 7.765625 5.328125 14.984375 
Q 5.328125 21.1875 9.28125 25.921875 
Q 11.859375 29 18.265625 33.296875 
z
" id="Times-Roman-56"/>
       </defs>
       <use transform="translate(0 0.671875)" xlink:href="#Times-Roman-56"/>
       <use transform="translate(50 0.671875)" xlink:href="#Times-Roman-48"/>
      </g>
     </g>
    </g>
    <g id="text_13">
     <!-- SD Duration td [days] -->
     <g transform="translate(31.911306 202.254375)rotate(-90)scale(0.12 -0.12)">
      <defs>
       <path d="M 8.5 21.578125 
L 8.5 54.6875 
L 17.484375 54.6875 
L 17.484375 21.921875 
Q 17.484375 14.15625 20.5 10.265625 
Q 23.53125 6.390625 29.59375 6.390625 
Q 36.859375 6.390625 41.078125 11.03125 
Q 45.3125 15.671875 45.3125 23.6875 
L 45.3125 54.6875 
L 54.296875 54.6875 
L 54.296875 0 
L 45.3125 0 
L 45.3125 8.40625 
Q 42.046875 3.421875 37.71875 1 
Q 33.40625 -1.421875 27.6875 -1.421875 
Q 18.265625 -1.421875 13.375 4.4375 
Q 8.5 10.296875 8.5 21.578125 
z
M 31.109375 56 
z
" id="DejaVuSans-117"/>
       <path d="M 30.609375 48.390625 
Q 23.390625 48.390625 19.1875 42.75 
Q 14.984375 37.109375 14.984375 27.296875 
Q 14.984375 17.484375 19.15625 11.84375 
Q 23.34375 6.203125 30.609375 6.203125 
Q 37.796875 6.203125 41.984375 11.859375 
Q 46.1875 17.53125 46.1875 27.296875 
Q 46.1875 37.015625 41.984375 42.703125 
Q 37.796875 48.390625 30.609375 48.390625 
z
M 30.609375 56 
Q 42.328125 56 49.015625 48.375 
Q 55.71875 40.765625 55.71875 27.296875 
Q 55.71875 13.875 49.015625 6.21875 
Q 42.328125 -1.421875 30.609375 -1.421875 
Q 18.84375 -1.421875 12.171875 6.21875 
Q 5.515625 13.875 5.515625 27.296875 
Q 5.515625 40.765625 12.171875 48.375 
Q 18.84375 56 30.609375 56 
z
" id="DejaVuSans-111"/>
       <path d="M 54.890625 33.015625 
L 54.890625 0 
L 45.90625 0 
L 45.90625 32.71875 
Q 45.90625 40.484375 42.875 44.328125 
Q 39.84375 48.1875 33.796875 48.1875 
Q 26.515625 48.1875 22.3125 43.546875 
Q 18.109375 38.921875 18.109375 30.90625 
L 18.109375 0 
L 9.078125 0 
L 9.078125 54.6875 
L 18.109375 54.6875 
L 18.109375 46.1875 
Q 21.34375 51.125 25.703125 53.5625 
Q 30.078125 56 35.796875 56 
Q 45.21875 56 50.046875 50.171875 
Q 54.890625 44.34375 54.890625 33.015625 
z
" id="DejaVuSans-110"/>
      </defs>
      <use xlink:href="#DejaVuSans-83"/>
      <use x="63.476562" xlink:href="#DejaVuSans-68"/>
      <use x="140.478516" xlink:href="#DejaVuSans-32"/>
      <use x="172.265625" xlink:href="#DejaVuSans-68"/>
      <use x="249.267578" xlink:href="#DejaVuSans-117"/>
      <use x="312.646484" xlink:href="#DejaVuSans-114"/>
      <use x="353.759766" xlink:href="#DejaVuSans-97"/>
      <use x="415.039062" xlink:href="#DejaVuSans-116"/>
      <use x="454.248047" xlink:href="#DejaVuSans-105"/>
      <use x="482.03125" xlink:href="#DejaVuSans-111"/>
      <use x="543.212891" xlink:href="#DejaVuSans-110"/>
      <use x="606.591797" xlink:href="#DejaVuSans-32"/>
      <use x="638.378906" xlink:href="#DejaVuSans-116"/>
      <use x="677.587891" xlink:href="#DejaVuSans-100"/>
      <use x="741.064453" xlink:href="#DejaVuSans-32"/>
      <use x="772.851562" xlink:href="#DejaVuSans-91"/>
      <use x="811.865234" xlink:href="#DejaVuSans-100"/>
      <use x="875.341797" xlink:href="#DejaVuSans-97"/>
      <use x="936.621094" xlink:href="#DejaVuSans-121"/>
      <use x="995.800781" xlink:href="#DejaVuSans-115"/>
      <use x="1047.900391" xlink:href="#DejaVuSans-93"/>
     </g>
    </g>
   </g>
   <g id="LineCollection_1"/>
   <g id="LineCollection_2">
    <path clip-path="url(#pc0dc47f27b)" d="M 229.897663 44.829779 
L 229.897663 46.750825 
L 229.897663 48.671871 
L 229.897663 50.592917 
L 229.897663 52.513964 
L 229.897663 54.43501 
L 229.897663 56.356056 
L 229.897663 58.277103 
L 229.897663 60.198149 
L 229.897663 62.119195 
L 229.897663 64.040241 
L 229.897663 65.961288 
L 229.897663 67.882334 
L 229.897663 69.80338 
L 229.897663 71.340217 
" style="fill:none;stroke:#dedeff;"/>
    <path clip-path="url(#pc0dc47f27b)" d="M 229.897663 95.161191 
L 229.897663 96.698028 
L 229.897663 98.619074 
L 229.897663 100.540121 
L 229.897663 102.461167 
L 229.897663 104.382213 
L 229.897663 106.30326 
L 229.897663 108.224306 
L 229.897663 110.145352 
L 229.897663 112.066398 
L 229.897663 113.987445 
L 229.897663 115.908491 
L 229.897663 117.829537 
L 229.897663 119.750583 
L 229.897663 121.67163 
L 229.897663 123.592676 
L 229.897663 125.513722 
L 229.897663 127.434769 
L 229.897663 129.355815 
L 229.897663 131.276861 
L 229.897663 133.197907 
L 229.897663 135.118954 
L 229.897663 137.04 
L 229.897663 138.961046 
L 229.897663 140.882093 
L 229.897663 142.803139 
L 229.897663 144.724185 
L 229.897663 146.645231 
L 229.897663 148.566278 
L 229.897663 150.487324 
L 229.897663 152.40837 
L 229.897663 154.329417 
L 229.897663 156.250463 
L 229.897663 158.171509 
L 229.897663 160.092555 
L 229.897663 162.013602 
L 229.897663 163.934648 
L 229.897663 165.855694 
L 229.897663 167.77674 
L 229.897663 169.697787 
L 229.897663 171.618833 
L 229.897663 173.539879 
L 229.897663 175.460926 
L 229.897663 177.381972 
L 229.897663 179.303018 
L 229.897663 181.224064 
L 229.897663 183.145111 
L 229.897663 185.066157 
L 229.897663 186.987203 
L 229.897663 188.90825 
L 229.897663 190.829296 
L 224.908922 192.203639 
L 222.081096 190.829296 
L 217.837268 188.90825 
L 211.497001 188.292807 
L 207.569617 186.987203 
L 203.167543 185.066157 
L 198.085081 183.834716 
L 196.090358 183.145111 
L 190.564347 181.224064 
L 185.139749 179.303018 
L 184.67316 179.194849 
L 179.592941 177.381972 
L 174.215203 175.460926 
L 171.261239 174.430749 
L 168.796146 173.539879 
L 163.49276 171.618833 
L 158.165431 169.697787 
L 157.849318 169.597996 
L 152.872633 167.77674 
L 147.595159 165.855694 
L 144.437397 164.717766 
L 142.303029 163.934648 
L 137.076623 162.013602 
L 131.790301 160.092555 
L 131.025476 159.816135 
L 126.566925 158.171509 
L 121.335573 156.250463 
L 117.613555 154.899681 
L 116.065842 154.329417 
L 110.865201 152.40837 
L 105.608253 150.487324 
L 104.201634 149.977039 
L 100.384375 148.566278 
L 95.169587 146.645231 
L 90.789713 145.05232 
L 89.899663 144.724185 
L 84.706973 142.803139 
L 79.464565 140.882093 
L 77.377793 140.12422 
L 74.229648 138.961046 
L 69.021046 137.04 
L 63.965872 135.200196 
" style="fill:none;stroke:#dedeff;"/>
   </g>
   <g id="LineCollection_3">
    <path clip-path="url(#pc0dc47f27b)" d="M 257.941282 44.829779 
L 257.941282 46.750825 
L 257.941282 48.671871 
L 257.941282 50.592917 
L 257.941282 52.513964 
L 257.941282 54.43501 
L 257.941282 56.356056 
L 257.941282 58.277103 
L 257.941282 60.198149 
L 257.941282 62.119195 
L 257.941282 64.040241 
L 257.941282 65.961288 
L 257.941282 67.882334 
L 257.941282 69.80338 
L 257.941282 71.340217 
" style="fill:none;stroke:#b9b9ff;"/>
    <path clip-path="url(#pc0dc47f27b)" d="M 257.941282 95.161191 
L 257.941282 96.698028 
L 257.941282 98.619074 
L 257.941282 100.540121 
L 257.941282 102.461167 
L 257.941282 104.382213 
L 257.941282 106.30326 
L 257.941282 108.224306 
L 257.941282 110.145352 
L 257.941282 112.066398 
L 257.941282 113.987445 
L 257.941282 115.908491 
L 257.941282 117.829537 
L 257.941282 119.750583 
L 257.941282 121.67163 
L 257.941282 123.592676 
L 257.941282 125.513722 
L 257.941282 127.434769 
L 257.941282 129.355815 
L 257.941282 131.276861 
L 257.941282 133.197907 
L 257.941282 135.118954 
L 257.941282 137.04 
L 257.941282 138.961046 
L 257.941282 140.882093 
L 257.941282 142.803139 
L 257.941282 144.724185 
L 257.941282 146.645231 
L 257.941282 148.566278 
L 257.941282 150.487324 
L 257.941282 152.40837 
L 257.941282 154.329417 
L 257.941282 156.250463 
L 257.941282 158.171509 
L 257.941282 160.092555 
L 257.941282 162.013602 
L 257.941282 163.934648 
L 257.941282 165.855694 
L 257.941282 167.77674 
L 257.941282 169.697787 
L 257.941282 171.618833 
L 257.941282 173.539879 
L 257.941282 175.460926 
L 257.941282 177.381972 
L 257.941282 179.303018 
L 257.941282 181.224064 
L 257.941282 183.145111 
L 257.941282 185.066157 
L 257.941282 186.987203 
L 257.941282 188.90825 
L 257.941282 190.829296 
L 257.941282 192.750342 
L 257.941282 194.671388 
L 257.941282 196.592435 
L 257.941282 198.513481 
L 257.941282 200.434527 
L 257.941282 202.355573 
L 252.298173 204.27662 
L 251.732764 204.345206 
L 251.434528 204.27662 
L 244.517765 202.355573 
L 238.320843 201.154517 
L 235.637622 200.434527 
L 228.650371 198.513481 
L 224.908922 197.470129 
L 221.964873 196.592435 
L 215.656013 194.671388 
L 211.497001 193.390361 
L 209.494471 192.750342 
L 203.590195 190.829296 
L 198.085081 189.016802 
L 197.760359 188.90825 
L 192.088511 186.987203 
L 186.499137 185.066157 
L 184.67316 184.437409 
L 180.954524 183.145111 
L 175.503809 181.224064 
L 171.261239 179.722387 
L 170.072956 179.303018 
L 164.688015 177.381972 
L 159.355265 175.460926 
L 157.849318 174.91939 
L 154.003931 173.539879 
L 148.712054 171.618833 
L 144.437397 170.064292 
L 143.419364 169.697787 
L 138.130863 167.77674 
L 132.88573 165.855694 
L 131.025476 165.176378 
L 127.6014 163.934648 
L 122.360875 162.013602 
L 117.613555 160.27062 
L 117.122086 160.092555 
L 111.857116 158.171509 
L 106.639068 156.250463 
L 104.201634 155.35556 
L 101.381594 154.329417 
L 96.151735 152.40837 
L 90.937257 150.487324 
L 90.789713 150.433216 
L 85.674373 148.566278 
L 80.462029 146.645231 
L 77.377793 145.511115 
L 75.215303 144.724185 
L 69.983154 142.803139 
L 64.772949 140.882093 
L 63.965872 140.585859 
" style="fill:none;stroke:#b9b9ff;"/>
   </g>
   <g id="LineCollection_4">
    <path clip-path="url(#pc0dc47f27b)" d="M 276.146714 44.829779 
L 276.146714 46.750825 
L 276.146714 48.671871 
L 276.146714 50.592917 
L 276.146714 52.513964 
L 276.146714 54.43501 
L 276.146714 56.356056 
L 276.146714 58.277103 
L 276.146714 60.198149 
L 276.146714 62.119195 
L 276.146714 64.040241 
L 276.146714 65.961288 
L 276.146714 67.882334 
L 276.146714 69.80338 
L 276.146714 71.724427 
L 276.146714 73.645473 
L 276.146714 75.566519 
L 276.146714 77.487565 
L 276.146714 79.408612 
L 276.146714 81.329658 
L 276.146714 83.250704 
L 276.146714 85.17175 
L 276.146714 87.092797 
L 276.146714 89.013843 
L 276.146714 90.934889 
L 276.146714 92.855936 
L 276.146714 94.776982 
L 276.146714 96.698028 
L 276.146714 98.619074 
L 276.146714 100.540121 
L 276.146714 102.461167 
L 276.146714 104.382213 
L 276.146714 106.30326 
L 276.146714 108.224306 
L 276.146714 110.145352 
L 276.146714 112.066398 
L 276.146714 113.987445 
L 276.146714 115.908491 
L 276.146714 117.829537 
L 276.146714 119.750583 
L 276.146714 121.67163 
L 276.146714 123.592676 
L 276.146714 125.513722 
L 276.146714 127.434769 
L 276.146714 129.355815 
L 276.146714 131.276861 
L 276.146714 133.197907 
L 276.146714 135.118954 
L 276.146714 137.04 
L 276.146714 138.961046 
L 276.146714 140.882093 
L 276.146714 142.803139 
L 276.146714 144.724185 
L 276.146714 146.645231 
L 276.146714 148.566278 
L 276.146714 150.103115 
" style="fill:none;stroke:#9494ff;"/>
    <path clip-path="url(#pc0dc47f27b)" d="M 276.146714 173.924089 
L 276.146714 175.460926 
L 276.146714 177.381972 
L 276.146714 179.303018 
L 276.146714 181.224064 
L 276.146714 183.145111 
L 276.146714 185.066157 
L 276.146714 186.987203 
L 276.146714 188.90825 
L 276.146714 190.829296 
L 276.146714 192.750342 
L 276.146714 194.671388 
L 276.146714 196.592435 
L 276.146714 198.513481 
L 276.146714 200.434527 
L 276.146714 202.355573 
L 276.146714 204.27662 
L 276.146714 206.197666 
L 276.146714 208.118712 
L 274.148551 210.039759 
L 265.144685 211.294151 
L 258.062197 210.039759 
L 251.732764 208.864363 
L 248.258046 208.118712 
L 239.737208 206.197666 
L 238.320843 205.868433 
L 232.058043 204.27662 
L 224.908922 202.363729 
L 224.879593 202.355573 
L 218.151411 200.434527 
L 211.745619 198.513481 
L 211.497001 198.438064 
L 205.51647 196.592435 
L 199.559556 194.671388 
L 198.085081 194.190009 
L 193.651169 192.750342 
L 187.94697 190.829296 
L 184.67316 189.705977 
L 182.295595 188.90825 
L 176.713049 186.987203 
L 171.298095 185.066157 
L 171.261239 185.053087 
L 165.747928 183.145111 
L 160.390187 181.224064 
L 157.849318 180.304023 
L 154.987326 179.303018 
L 149.625473 177.381972 
L 144.437397 175.47595 
L 144.39468 175.460926 
L 138.980049 173.539879 
L 133.736776 171.618833 
L 131.025476 170.616505 
L 128.43963 169.697787 
L 123.143773 167.77674 
L 117.974934 165.855694 
L 117.613555 165.721803 
L 112.617393 163.934648 
L 107.405057 162.013602 
L 104.201634 160.820655 
L 102.162518 160.092555 
L 96.875615 158.171509 
L 91.720303 156.250463 
L 90.789713 155.904179 
L 86.398252 154.329417 
L 81.18416 152.40837 
L 77.377793 150.986981 
L 75.980271 150.487324 
L 70.682109 148.566278 
L 65.520596 146.645231 
L 63.965872 146.065779 
" style="fill:none;stroke:#9494ff;"/>
   </g>
   <g id="LineCollection_5">
    <path clip-path="url(#pc0dc47f27b)" d="M 290.408351 44.829779 
L 290.408351 46.750825 
L 290.408351 48.671871 
L 290.408351 50.592917 
L 290.408351 52.513964 
L 290.408351 54.43501 
L 290.408351 56.356056 
L 290.408351 58.277103 
L 290.408351 60.198149 
L 290.408351 62.119195 
L 290.408351 64.040241 
L 290.408351 65.961288 
L 290.408351 67.882334 
L 290.408351 69.80338 
L 290.408351 71.340217 
" style="fill:none;stroke:#6f6fff;"/>
    <path clip-path="url(#pc0dc47f27b)" d="M 290.408351 95.161191 
L 290.408351 96.698028 
L 290.408351 98.619074 
L 290.408351 100.540121 
L 290.408351 102.461167 
L 290.408351 104.382213 
L 290.408351 106.30326 
L 290.408351 108.224306 
L 290.408351 110.145352 
L 290.408351 112.066398 
L 290.408351 113.987445 
L 290.408351 115.908491 
L 290.408351 117.829537 
L 290.408351 119.750583 
L 290.408351 121.67163 
L 290.408351 123.592676 
L 290.408351 125.513722 
L 290.408351 127.434769 
L 290.408351 129.355815 
L 290.408351 131.276861 
L 290.408351 133.197907 
L 290.408351 135.118954 
L 290.408351 137.04 
L 290.408351 138.961046 
L 290.408351 140.882093 
L 290.408351 142.803139 
L 290.408351 144.724185 
L 290.408351 146.645231 
L 290.408351 148.566278 
L 290.408351 150.487324 
L 290.408351 152.40837 
L 290.408351 154.329417 
L 290.408351 156.250463 
L 290.408351 158.171509 
L 290.408351 160.092555 
L 290.408351 162.013602 
L 290.408351 163.934648 
L 290.408351 165.855694 
L 290.408351 167.77674 
L 290.408351 169.697787 
L 290.408351 171.618833 
L 290.408351 173.539879 
L 290.408351 175.460926 
L 290.408351 177.381972 
L 290.408351 179.303018 
L 290.408351 181.224064 
L 290.408351 183.145111 
L 290.408351 185.066157 
L 290.408351 186.987203 
L 290.408351 188.90825 
L 290.408351 190.829296 
L 290.408351 192.750342 
L 290.408351 194.671388 
L 290.408351 196.592435 
L 290.408351 198.513481 
L 290.408351 200.434527 
L 290.408351 202.355573 
L 290.408351 204.27662 
L 290.408351 206.197666 
L 290.408351 208.118712 
L 290.408351 210.039759 
L 290.408351 211.960805 
L 290.346488 213.881851 
L 288.609726 215.802897 
L 278.556606 217.124919 
L 267.531823 215.802897 
L 265.144685 215.497636 
L 254.950641 213.881851 
L 251.732764 213.33415 
L 244.674103 211.960805 
L 238.320843 210.621523 
L 235.74242 210.039759 
L 227.775691 208.118712 
L 224.908922 207.386772 
L 220.34936 206.197666 
L 213.493535 204.27662 
L 211.497001 203.695056 
L 206.840302 202.355573 
L 200.591902 200.434527 
L 198.085081 199.63542 
L 194.429969 198.513481 
L 188.502235 196.592435 
L 184.67316 195.29416 
L 182.729794 194.671388 
L 176.943483 192.750342 
L 171.500132 190.829296 
L 171.261239 190.744643 
L 165.763505 188.90825 
L 160.355042 186.987203 
L 157.849318 186.075343 
L 154.874266 185.066157 
L 149.426583 183.145111 
L 144.437397 181.295368 
L 144.229098 181.224064 
L 138.681182 179.303018 
L 133.445534 177.381972 
L 131.025476 176.476251 
L 128.098383 175.460926 
L 122.755682 173.539879 
L 117.666455 171.618833 
L 117.613555 171.598953 
L 112.180894 169.697787 
L 106.991007 167.77674 
L 104.201634 166.7217 
L 101.725211 165.855694 
L 96.399988 163.934648 
L 91.325377 162.013602 
L 90.789713 161.811023 
L 85.90111 160.092555 
L 80.708304 158.171509 
L 77.377793 156.905759 
L 75.509137 156.250463 
L 70.164136 154.329417 
L 65.07724 152.40837 
L 63.965872 151.98682 
" style="fill:none;stroke:#6f6fff;"/>
   </g>
   <g id="LineCollection_6">
    <path clip-path="url(#pc0dc47f27b)" d="M 302.639262 44.829779 
L 302.639262 46.750825 
L 302.639262 48.671871 
L 302.639262 50.592917 
L 302.639262 52.513964 
L 302.639262 54.43501 
L 302.639262 56.356056 
L 302.639262 58.277103 
L 302.639262 60.198149 
L 302.639262 62.119195 
L 302.639262 64.040241 
L 302.639262 65.961288 
L 302.639262 67.882334 
L 302.639262 69.80338 
L 302.639262 71.724427 
L 302.639262 73.645473 
L 302.639262 75.566519 
L 302.639262 77.487565 
L 302.639262 79.408612 
L 302.639262 81.329658 
L 302.639262 83.250704 
L 302.639262 85.17175 
L 302.639262 87.092797 
L 302.639262 89.013843 
L 302.639262 90.934889 
L 302.639262 92.855936 
L 302.639262 94.776982 
L 302.639262 96.698028 
L 302.639262 98.619074 
L 302.639262 100.540121 
L 302.639262 102.461167 
L 302.639262 104.382213 
L 302.639262 106.30326 
L 302.639262 108.224306 
L 302.639262 110.145352 
L 302.639262 112.066398 
L 302.639262 113.987445 
L 302.639262 115.908491 
L 302.639262 117.829537 
L 302.639262 119.750583 
L 302.639262 121.67163 
L 302.639262 123.592676 
L 302.639262 125.513722 
L 302.639262 127.434769 
L 302.639262 129.355815 
L 302.639262 131.276861 
L 302.639262 133.197907 
L 302.639262 135.118954 
L 302.639262 137.04 
L 302.639262 138.961046 
L 302.639262 140.882093 
L 302.639262 142.803139 
L 302.639262 144.724185 
L 302.639262 146.645231 
L 302.639262 148.566278 
L 302.639262 150.487324 
L 302.639262 152.40837 
L 302.639262 154.329417 
L 302.639262 156.250463 
L 302.639262 158.171509 
L 302.639262 160.092555 
L 302.639262 162.013602 
L 302.639262 163.934648 
L 302.639262 165.855694 
L 302.639262 167.77674 
L 302.639262 169.697787 
L 302.639262 171.618833 
L 302.639262 173.539879 
L 302.639262 175.460926 
L 302.639262 177.381972 
L 302.639262 179.303018 
L 302.639262 181.224064 
L 302.639262 183.145111 
L 302.639262 185.066157 
L 302.639262 186.987203 
L 302.639262 188.90825 
L 302.639262 190.829296 
L 302.639262 192.750342 
L 302.639262 194.671388 
L 302.639262 196.592435 
L 302.639262 198.513481 
L 302.639262 200.434527 
L 302.639262 202.355573 
L 302.639262 204.27662 
L 302.639262 206.197666 
L 302.639262 208.118712 
L 302.639262 210.039759 
L 302.639262 211.960805 
L 302.639262 213.881851 
L 302.639262 215.802897 
L 302.639262 217.723944 
L 301.805934 219.64499 
L 295.988202 221.566036 
L 291.968527 221.915209 
L 286.52818 221.566036 
L 278.556606 221.011841 
L 265.144685 219.708493 
L 264.608925 219.64499 
L 251.732764 217.940488 
L 250.320605 217.723944 
L 243.540989 216.56188 
" style="fill:none;stroke:#4b4bff;"/>
    <path clip-path="url(#pc0dc47f27b)" d="M 215.598617 210.605027 
L 213.353113 210.039759 
L 211.497001 209.539962 
L 206.021159 208.118712 
L 199.398208 206.197666 
L 198.085081 205.798969 
L 192.725554 204.27662 
L 186.616109 202.355573 
L 184.67316 201.715526 
L 180.426263 200.434527 
L 174.556629 198.513481 
L 171.261239 197.365338 
L 168.799124 196.592435 
L 162.993001 194.671388 
L 157.849318 192.808702 
L 157.668193 192.750342 
L 151.805691 190.829296 
L 146.473201 188.90825 
L 144.437397 188.150411 
L 140.929687 186.987203 
L 135.47915 185.066157 
L 131.025476 183.379068 
L 130.326313 183.145111 
L 124.697806 181.224064 
L 119.536067 179.303018 
L 117.613555 178.567775 
L 114.11615 177.381972 
L 108.770878 175.460926 
L 104.201634 173.697455 
L 103.737779 173.539879 
L 98.161246 171.618833 
L 93.03737 169.697787 
L 90.789713 168.828298 
L 87.716568 167.77674 
L 82.379305 165.855694 
L 77.435873 163.934648 
L 77.377793 163.912189 
L 71.854689 162.013602 
L 66.717188 160.092555 
L 63.965872 159.023645 
" style="fill:none;stroke:#4b4bff;"/>
   </g>
   <g id="LineCollection_7">
    <path clip-path="url(#pc0dc47f27b)" d="M 315.318714 44.829779 
L 315.318714 46.750825 
L 315.318714 48.671871 
L 315.318714 50.592917 
L 315.318714 52.513964 
L 315.318714 54.43501 
L 315.318714 56.356056 
L 315.318714 58.277103 
L 315.318714 60.198149 
L 315.318714 62.119195 
L 315.318714 64.040241 
L 315.318714 65.961288 
L 315.318714 67.882334 
L 315.318714 69.80338 
L 315.318714 71.724427 
L 315.318714 73.645473 
L 315.318714 75.566519 
L 315.318714 77.487565 
L 315.318714 79.408612 
L 315.318714 81.329658 
L 315.318714 83.250704 
L 315.318714 85.17175 
L 315.318714 87.092797 
L 315.318714 89.013843 
L 315.318714 90.934889 
L 315.318714 92.855936 
L 315.318714 94.776982 
L 315.318714 96.698028 
L 315.318714 98.619074 
L 315.318714 100.540121 
L 315.318714 102.461167 
L 315.318714 104.382213 
L 315.318714 106.30326 
L 315.318714 108.224306 
L 315.318714 110.145352 
L 315.318714 112.066398 
L 315.318714 113.987445 
L 315.318714 115.908491 
L 315.318714 117.829537 
L 315.318714 119.750583 
L 315.318714 121.67163 
L 315.318714 123.592676 
L 315.318714 125.513722 
L 315.318714 127.434769 
L 315.318714 129.355815 
L 315.318714 131.276861 
L 315.318714 133.197907 
L 315.318714 135.118954 
L 315.318714 137.04 
L 315.318714 138.961046 
L 315.318714 140.882093 
L 315.318714 142.803139 
L 315.318714 144.724185 
L 315.318714 146.645231 
L 315.318714 148.566278 
L 315.318714 150.103115 
" style="fill:none;stroke:#2626ff;"/>
    <path clip-path="url(#pc0dc47f27b)" d="M 315.318714 173.924089 
L 315.318714 175.460926 
L 315.318714 177.381972 
L 315.318714 179.303018 
L 315.318714 181.224064 
L 315.318714 183.145111 
L 315.318714 185.066157 
L 315.318714 186.987203 
L 315.318714 188.90825 
L 315.318714 190.829296 
L 315.318714 192.750342 
L 315.318714 194.671388 
L 315.318714 196.592435 
L 315.318714 198.513481 
L 315.318714 200.434527 
L 315.318714 202.355573 
L 315.318714 204.27662 
L 315.318714 206.197666 
L 315.318714 208.118712 
L 315.318714 210.039759 
L 315.318714 211.960805 
L 315.318714 213.881851 
L 315.318714 215.802897 
L 315.318714 217.723944 
L 315.318714 219.64499 
L 315.318714 221.566036 
L 315.090047 223.487083 
L 309.759775 225.408129 
L 305.380448 225.837241 
L 291.968527 225.485145 
L 289.915786 225.408129 
L 278.556606 224.935563 
L 265.144685 224.124297 
L 257.280246 223.487083 
L 251.732764 222.971634 
L 239.576548 221.566036 
L 238.320843 221.397665 
L 226.556197 219.64499 
L 224.908922 219.357466 
L 215.783907 217.723944 
L 211.497001 216.814879 
L 206.555658 215.802897 
L 198.618507 213.881851 
L 198.085081 213.742345 
L 190.681415 211.960805 
L 184.67316 210.230765 
L 183.927628 210.039759 
L 176.843582 208.118712 
L 171.261239 206.331459 
L 170.780284 206.197666 
L 164.144494 204.27662 
L 158.477076 202.355573 
L 157.849318 202.135986 
L 152.190553 200.434527 
L 146.592597 198.513481 
L 144.437397 197.72625 
L 140.784225 196.592435 
L 135.117435 194.671388 
L 131.025476 193.12943 
L 129.830668 192.750342 
L 123.985176 190.829296 
L 118.84379 188.90825 
L 117.613555 188.433781 
L 113.161157 186.987203 
L 107.798113 185.066157 
L 104.201634 183.659576 
L 102.631051 183.145111 
L 96.986705 181.224064 
L 91.983729 179.303018 
L 90.789713 178.831877 
L 86.41151 177.381972 
L 81.127893 175.460926 
L 77.377793 173.97 
L 76.081992 173.539879 
L 70.4676 171.618833 
L 65.48329 169.697787 
L 63.965872 169.093229 
" style="fill:none;stroke:#2626ff;"/>
   </g>
   <g id="LineCollection_8">
    <path clip-path="url(#pc0dc47f27b)" d="M 342.292533 44.829779 
L 342.292533 46.750825 
L 342.292533 48.671871 
L 342.292533 50.592917 
L 342.292533 52.513964 
L 342.292533 54.43501 
L 342.292533 56.356056 
L 342.292533 58.277103 
L 342.292533 60.198149 
L 342.292533 62.119195 
L 342.292533 64.040241 
L 342.292533 65.961288 
L 342.292533 67.882334 
L 342.292533 69.80338 
L 342.292533 71.340217 
" style="fill:none;stroke:#0101ff;"/>
    <path clip-path="url(#pc0dc47f27b)" d="M 342.292533 95.161191 
L 342.292533 96.698028 
L 342.292533 98.619074 
L 342.292533 100.540121 
L 342.292533 102.461167 
L 342.292533 104.382213 
L 342.292533 106.30326 
L 342.292533 108.224306 
L 342.292533 110.145352 
L 342.292533 112.066398 
L 342.292533 113.987445 
L 342.292533 115.908491 
L 342.292533 117.829537 
L 342.292533 119.750583 
L 342.292533 121.67163 
L 342.292533 123.592676 
L 342.292533 125.513722 
L 342.292533 127.434769 
L 342.292533 129.355815 
L 342.292533 131.276861 
L 342.292533 133.197907 
L 342.292533 135.118954 
L 342.292533 137.04 
L 342.292533 138.961046 
L 342.292533 140.882093 
L 342.292533 142.803139 
L 342.292533 144.724185 
L 342.292533 146.645231 
L 342.292533 148.566278 
L 342.292533 150.487324 
L 342.292533 152.40837 
L 342.292533 154.329417 
L 342.292533 156.250463 
L 342.292533 158.171509 
L 342.292533 160.092555 
L 342.292533 162.013602 
L 342.292533 163.934648 
L 342.292533 165.855694 
L 342.292533 167.77674 
L 342.292533 169.697787 
L 342.292533 171.618833 
L 342.292533 173.539879 
L 342.292533 175.460926 
L 342.292533 177.381972 
L 342.292533 179.303018 
L 342.292533 181.224064 
L 342.292533 183.145111 
L 342.292533 185.066157 
L 342.292533 186.987203 
L 342.292533 188.90825 
L 342.292533 190.829296 
L 342.292533 192.750342 
L 342.292533 194.671388 
L 342.292533 196.592435 
L 342.292533 198.513481 
L 342.292533 200.434527 
L 342.292533 202.355573 
L 342.292533 204.27662 
L 342.292533 206.197666 
L 342.292533 208.118712 
L 342.292533 210.039759 
L 342.292533 211.960805 
L 342.292533 213.881851 
L 342.292533 215.802897 
L 342.292533 217.723944 
L 342.292533 219.64499 
L 342.292533 221.566036 
L 342.292533 223.487083 
L 342.292533 225.408129 
L 342.292533 227.329175 
L 332.20429 228.774222 
L 318.792369 229.115521 
L 305.380448 229.106084 
L 291.968527 229.089633 
L 278.556606 229.063087 
L 265.144685 229.021691 
L 251.732764 228.958285 
L 238.320843 228.861866 
L 224.908922 228.716248 
L 211.497001 228.49619 
L 198.085081 228.165215 
L 184.67316 227.666746 
L 177.377209 227.329175 
L 171.261239 226.970016 
L 157.849318 225.998102 
L 151.116022 225.408129 
L 144.437397 224.660549 
L 134.872052 223.487083 
L 131.025476 222.885608 
L 122.377294 221.566036 
L 117.613555 220.636037 
L 112.072977 219.64499 
L 104.201634 217.845487 
L 103.594099 217.723944 
L 94.98631 215.802897 
L 90.789713 214.624415 
L 87.613992 213.881851 
L 80.456411 211.960805 
L 77.377793 210.982705 
L 73.767227 210.039759 
L 67.322886 208.118712 
L 63.965872 206.964359 
" style="fill:none;stroke:#0101ff;"/>
   </g>
   <g id="line2d_23">
    <path clip-path="url(#pc0dc47f27b)" d="M 63.965872 148.566278 
L 77.377793 152.40837 
L 90.789713 156.250463 
L 104.201634 160.092555 
L 117.613555 163.934648 
L 131.025476 167.77674 
L 144.437397 171.618833 
L 157.849318 175.460926 
L 171.261239 179.303018 
L 184.67316 183.145111 
L 198.085081 186.987203 
L 211.497001 190.829296 
L 224.908922 194.671388 
L 238.320843 198.513481 
L 251.732764 202.355573 
L 265.144685 206.197666 
L 278.556606 210.039759 
L 291.968527 213.881851 
L 305.380448 217.723944 
" style="fill:none;stroke:#e36f47;stroke-dasharray:22.2,9.6;stroke-dashoffset:0;stroke-width:6;"/>
   </g>
   <g id="patch_3">
    <path d="M 53.906931 234.782835 
L 53.906931 39.297165 
" style="fill:none;stroke:#000000;stroke-linecap:square;stroke-linejoin:miter;"/>
   </g>
   <g id="patch_4">
    <path d="M 53.906931 234.782835 
L 409.322835 234.782835 
" style="fill:none;stroke:#000000;stroke-linecap:square;stroke-linejoin:miter;"/>
   </g>
   <g id="text_14">
    <g clip-path="url(#pc0dc47f27b)">
     <!-- 0.304 -->
     <g style="fill:#dedeff;" transform="translate(227.138288 68.936642)rotate(-270)scale(0.1 -0.1)">
      <defs>
       <path d="M 31.78125 66.40625 
Q 24.171875 66.40625 20.328125 58.90625 
Q 16.5 51.421875 16.5 36.375 
Q 16.5 21.390625 20.328125 13.890625 
Q 24.171875 6.390625 31.78125 6.390625 
Q 39.453125 6.390625 43.28125 13.890625 
Q 47.125 21.390625 47.125 36.375 
Q 47.125 51.421875 43.28125 58.90625 
Q 39.453125 66.40625 31.78125 66.40625 
z
M 31.78125 74.21875 
Q 44.046875 74.21875 50.515625 64.515625 
Q 56.984375 54.828125 56.984375 36.375 
Q 56.984375 17.96875 50.515625 8.265625 
Q 44.046875 -1.421875 31.78125 -1.421875 
Q 19.53125 -1.421875 13.0625 8.265625 
Q 6.59375 17.96875 6.59375 36.375 
Q 6.59375 54.828125 13.0625 64.515625 
Q 19.53125 74.21875 31.78125 74.21875 
z
" id="DejaVuSans-48"/>
       <path d="M 10.6875 12.40625 
L 21 12.40625 
L 21 0 
L 10.6875 0 
z
" id="DejaVuSans-46"/>
       <path d="M 40.578125 39.3125 
Q 47.65625 37.796875 51.625 33 
Q 55.609375 28.21875 55.609375 21.1875 
Q 55.609375 10.40625 48.1875 4.484375 
Q 40.765625 -1.421875 27.09375 -1.421875 
Q 22.515625 -1.421875 17.65625 -0.515625 
Q 12.796875 0.390625 7.625 2.203125 
L 7.625 11.71875 
Q 11.71875 9.328125 16.59375 8.109375 
Q 21.484375 6.890625 26.8125 6.890625 
Q 36.078125 6.890625 40.9375 10.546875 
Q 45.796875 14.203125 45.796875 21.1875 
Q 45.796875 27.640625 41.28125 31.265625 
Q 36.765625 34.90625 28.71875 34.90625 
L 20.21875 34.90625 
L 20.21875 43.015625 
L 29.109375 43.015625 
Q 36.375 43.015625 40.234375 45.921875 
Q 44.09375 48.828125 44.09375 54.296875 
Q 44.09375 59.90625 40.109375 62.90625 
Q 36.140625 65.921875 28.71875 65.921875 
Q 24.65625 65.921875 20.015625 65.03125 
Q 15.375 64.15625 9.8125 62.3125 
L 9.8125 71.09375 
Q 15.4375 72.65625 20.34375 73.4375 
Q 25.25 74.21875 29.59375 74.21875 
Q 40.828125 74.21875 47.359375 69.109375 
Q 53.90625 64.015625 53.90625 55.328125 
Q 53.90625 49.265625 50.4375 45.09375 
Q 46.96875 40.921875 40.578125 39.3125 
z
" id="DejaVuSans-51"/>
       <path d="M 37.796875 64.3125 
L 12.890625 25.390625 
L 37.796875 25.390625 
z
M 35.203125 72.90625 
L 47.609375 72.90625 
L 47.609375 25.390625 
L 58.015625 25.390625 
L 58.015625 17.1875 
L 47.609375 17.1875 
L 47.609375 0 
L 37.796875 0 
L 37.796875 17.1875 
L 4.890625 17.1875 
L 4.890625 26.703125 
z
" id="DejaVuSans-52"/>
      </defs>
      <use xlink:href="#DejaVuSans-48"/>
      <use x="63.623047" xlink:href="#DejaVuSans-46"/>
      <use x="95.410156" xlink:href="#DejaVuSans-51"/>
      <use x="159.033203" xlink:href="#DejaVuSans-48"/>
      <use x="222.65625" xlink:href="#DejaVuSans-52"/>
     </g>
    </g>
   </g>
   <g id="text_15">
    <g clip-path="url(#pc0dc47f27b)">
     <!-- 0.339 -->
     <g style="fill:#b9b9ff;" transform="translate(255.181907 68.936642)rotate(-270)scale(0.1 -0.1)">
      <defs>
       <path d="M 10.984375 1.515625 
L 10.984375 10.5 
Q 14.703125 8.734375 18.5 7.8125 
Q 22.3125 6.890625 25.984375 6.890625 
Q 35.75 6.890625 40.890625 13.453125 
Q 46.046875 20.015625 46.78125 33.40625 
Q 43.953125 29.203125 39.59375 26.953125 
Q 35.25 24.703125 29.984375 24.703125 
Q 19.046875 24.703125 12.671875 31.3125 
Q 6.296875 37.9375 6.296875 49.421875 
Q 6.296875 60.640625 12.9375 67.421875 
Q 19.578125 74.21875 30.609375 74.21875 
Q 43.265625 74.21875 49.921875 64.515625 
Q 56.59375 54.828125 56.59375 36.375 
Q 56.59375 19.140625 48.40625 8.859375 
Q 40.234375 -1.421875 26.421875 -1.421875 
Q 22.703125 -1.421875 18.890625 -0.6875 
Q 15.09375 0.046875 10.984375 1.515625 
z
M 30.609375 32.421875 
Q 37.25 32.421875 41.125 36.953125 
Q 45.015625 41.5 45.015625 49.421875 
Q 45.015625 57.28125 41.125 61.84375 
Q 37.25 66.40625 30.609375 66.40625 
Q 23.96875 66.40625 20.09375 61.84375 
Q 16.21875 57.28125 16.21875 49.421875 
Q 16.21875 41.5 20.09375 36.953125 
Q 23.96875 32.421875 30.609375 32.421875 
z
" id="DejaVuSans-57"/>
      </defs>
      <use xlink:href="#DejaVuSans-48"/>
      <use x="63.623047" xlink:href="#DejaVuSans-46"/>
      <use x="95.410156" xlink:href="#DejaVuSans-51"/>
      <use x="159.033203" xlink:href="#DejaVuSans-51"/>
      <use x="222.65625" xlink:href="#DejaVuSans-57"/>
     </g>
    </g>
   </g>
   <g id="text_16">
    <g clip-path="url(#pc0dc47f27b)">
     <!-- 0.373 -->
     <g style="fill:#9494ff;" transform="translate(273.387339 147.699539)rotate(-270)scale(0.1 -0.1)">
      <defs>
       <path d="M 8.203125 72.90625 
L 55.078125 72.90625 
L 55.078125 68.703125 
L 28.609375 0 
L 18.3125 0 
L 43.21875 64.59375 
L 8.203125 64.59375 
z
" id="DejaVuSans-55"/>
      </defs>
      <use xlink:href="#DejaVuSans-48"/>
      <use x="63.623047" xlink:href="#DejaVuSans-46"/>
      <use x="95.410156" xlink:href="#DejaVuSans-51"/>
      <use x="159.033203" xlink:href="#DejaVuSans-55"/>
      <use x="222.65625" xlink:href="#DejaVuSans-51"/>
     </g>
    </g>
   </g>
   <g id="text_17">
    <g clip-path="url(#pc0dc47f27b)">
     <!-- 0.407 -->
     <g style="fill:#6f6fff;" transform="translate(287.648976 68.936642)rotate(-270)scale(0.1 -0.1)">
      <use xlink:href="#DejaVuSans-48"/>
      <use x="63.623047" xlink:href="#DejaVuSans-46"/>
      <use x="95.410156" xlink:href="#DejaVuSans-52"/>
      <use x="159.033203" xlink:href="#DejaVuSans-48"/>
      <use x="222.65625" xlink:href="#DejaVuSans-55"/>
     </g>
    </g>
   </g>
   <g id="text_18">
    <g clip-path="url(#pc0dc47f27b)">
     <!-- 0.441 -->
     <g style="fill:#4b4bff;" transform="translate(214.927807 212.964148)rotate(-345.479401)scale(0.1 -0.1)">
      <defs>
       <path d="M 12.40625 8.296875 
L 28.515625 8.296875 
L 28.515625 63.921875 
L 10.984375 60.40625 
L 10.984375 69.390625 
L 28.421875 72.90625 
L 38.28125 72.90625 
L 38.28125 8.296875 
L 54.390625 8.296875 
L 54.390625 0 
L 12.40625 0 
z
" id="DejaVuSans-49"/>
      </defs>
      <use xlink:href="#DejaVuSans-48"/>
      <use x="63.623047" xlink:href="#DejaVuSans-46"/>
      <use x="95.410156" xlink:href="#DejaVuSans-52"/>
      <use x="159.033203" xlink:href="#DejaVuSans-52"/>
      <use x="222.65625" xlink:href="#DejaVuSans-49"/>
     </g>
    </g>
   </g>
   <g id="text_19">
    <g clip-path="url(#pc0dc47f27b)">
     <!-- 0.476 -->
     <g style="fill:#2626ff;" transform="translate(312.559339 147.699539)rotate(-270)scale(0.1 -0.1)">
      <defs>
       <path d="M 33.015625 40.375 
Q 26.375 40.375 22.484375 35.828125 
Q 18.609375 31.296875 18.609375 23.390625 
Q 18.609375 15.53125 22.484375 10.953125 
Q 26.375 6.390625 33.015625 6.390625 
Q 39.65625 6.390625 43.53125 10.953125 
Q 47.40625 15.53125 47.40625 23.390625 
Q 47.40625 31.296875 43.53125 35.828125 
Q 39.65625 40.375 33.015625 40.375 
z
M 52.59375 71.296875 
L 52.59375 62.3125 
Q 48.875 64.0625 45.09375 64.984375 
Q 41.3125 65.921875 37.59375 65.921875 
Q 27.828125 65.921875 22.671875 59.328125 
Q 17.53125 52.734375 16.796875 39.40625 
Q 19.671875 43.65625 24.015625 45.921875 
Q 28.375 48.1875 33.59375 48.1875 
Q 44.578125 48.1875 50.953125 41.515625 
Q 57.328125 34.859375 57.328125 23.390625 
Q 57.328125 12.15625 50.6875 5.359375 
Q 44.046875 -1.421875 33.015625 -1.421875 
Q 20.359375 -1.421875 13.671875 8.265625 
Q 6.984375 17.96875 6.984375 36.375 
Q 6.984375 53.65625 15.1875 63.9375 
Q 23.390625 74.21875 37.203125 74.21875 
Q 40.921875 74.21875 44.703125 73.484375 
Q 48.484375 72.75 52.59375 71.296875 
z
" id="DejaVuSans-54"/>
      </defs>
      <use xlink:href="#DejaVuSans-48"/>
      <use x="63.623047" xlink:href="#DejaVuSans-46"/>
      <use x="95.410156" xlink:href="#DejaVuSans-52"/>
      <use x="159.033203" xlink:href="#DejaVuSans-55"/>
      <use x="222.65625" xlink:href="#DejaVuSans-54"/>
     </g>
    </g>
   </g>
   <g id="text_20">
    <g clip-path="url(#pc0dc47f27b)">
     <!-- 0.510 -->
     <g style="fill:#0101ff;" transform="translate(339.533158 68.936642)rotate(-270)scale(0.1 -0.1)">
      <defs>
       <path d="M 10.796875 72.90625 
L 49.515625 72.90625 
L 49.515625 64.59375 
L 19.828125 64.59375 
L 19.828125 46.734375 
Q 21.96875 47.46875 24.109375 47.828125 
Q 26.265625 48.1875 28.421875 48.1875 
Q 40.625 48.1875 47.75 41.5 
Q 54.890625 34.8125 54.890625 23.390625 
Q 54.890625 11.625 47.5625 5.09375 
Q 40.234375 -1.421875 26.90625 -1.421875 
Q 22.3125 -1.421875 17.546875 -0.640625 
Q 12.796875 0.140625 7.71875 1.703125 
L 7.71875 11.625 
Q 12.109375 9.234375 16.796875 8.0625 
Q 21.484375 6.890625 26.703125 6.890625 
Q 35.15625 6.890625 40.078125 11.328125 
Q 45.015625 15.765625 45.015625 23.390625 
Q 45.015625 31 40.078125 35.4375 
Q 35.15625 39.890625 26.703125 39.890625 
Q 22.75 39.890625 18.8125 39.015625 
Q 14.890625 38.140625 10.796875 36.28125 
z
" id="DejaVuSans-53"/>
      </defs>
      <use xlink:href="#DejaVuSans-48"/>
      <use x="63.623047" xlink:href="#DejaVuSans-46"/>
      <use x="95.410156" xlink:href="#DejaVuSans-53"/>
      <use x="159.033203" xlink:href="#DejaVuSans-49"/>
      <use x="222.65625" xlink:href="#DejaVuSans-48"/>
     </g>
    </g>
   </g>
   <g id="text_21">
    <!-- Max(I) -->
    <g transform="translate(208.958633 33.297165)scale(0.16 -0.16)">
     <defs>
      <path d="M 1.125 1.8125 
Q 7.328125 2.4375 9.078125 4.609375 
Q 10.84375 6.78125 10.84375 14.703125 
L 10.84375 55.328125 
Q 10.84375 60.75 9.125 62.375 
Q 7.421875 64.015625 1.375 64.3125 
L 1.375 66.15625 
L 21.140625 66.15625 
L 44.28125 15.71875 
L 66.40625 66.15625 
L 86.328125 66.15625 
L 86.328125 64.3125 
Q 80.765625 63.921875 79.15625 62.28125 
Q 77.546875 60.640625 77.546875 55.328125 
L 77.546875 10.84375 
Q 77.546875 5.375 79.15625 3.828125 
Q 80.765625 2.296875 86.328125 1.8125 
L 86.328125 0 
L 58.296875 0 
L 58.296875 1.8125 
Q 64.359375 2.296875 65.84375 3.984375 
Q 67.328125 5.671875 67.328125 12.015625 
L 67.328125 56.9375 
L 41.75 0 
L 40.375 0 
L 15.234375 54.59375 
L 15.234375 14.703125 
Q 15.234375 6.5 17.625 4 
Q 19.1875 2.390625 24.609375 1.8125 
L 24.609375 0 
L 1.125 0 
z
" id="Times-Roman-77"/>
      <path d="M 28.65625 27.046875 
Q 23.046875 25.203125 19.390625 22.953125 
Q 12.359375 18.609375 12.359375 13.09375 
Q 12.359375 8.640625 15.28125 6.546875 
Q 17.1875 5.171875 19.53125 5.171875 
Q 22.75 5.171875 25.703125 6.984375 
Q 28.65625 8.796875 28.65625 11.578125 
z
M 3.65625 9.71875 
Q 3.65625 16.796875 10.75 21.53125 
Q 15.234375 24.46875 28.65625 29.5 
L 28.65625 33.640625 
Q 28.65625 38.625 27.6875 40.578125 
Q 26.03125 43.84375 20.796875 43.84375 
Q 18.3125 43.84375 16.0625 42.578125 
Q 13.8125 41.265625 13.8125 38.96875 
Q 13.8125 38.375 14.0625 36.984375 
Q 14.3125 35.59375 14.3125 35.203125 
Q 14.3125 32.46875 12.5 31.390625 
Q 11.46875 30.765625 10.0625 30.765625 
Q 7.859375 30.765625 6.6875 32.203125 
Q 5.515625 33.640625 5.515625 35.40625 
Q 5.515625 38.8125 9.734375 42.546875 
Q 13.96875 46.296875 22.125 46.296875 
Q 31.59375 46.296875 34.96875 40.140625 
Q 36.765625 36.765625 36.765625 30.328125 
L 36.765625 10.75 
Q 36.765625 7.90625 37.15625 6.84375 
Q 37.796875 4.9375 39.796875 4.9375 
Q 40.921875 4.9375 41.65625 5.265625 
Q 42.390625 5.609375 44.1875 6.9375 
L 44.1875 4.390625 
Q 42.625 2.484375 40.828125 1.265625 
Q 38.09375 -0.59375 35.25 -0.59375 
Q 31.9375 -0.59375 30.4375 1.5625 
Q 28.953125 3.71875 28.8125 6.6875 
Q 25.09375 3.46875 22.46875 1.90625 
Q 18.015625 -0.734375 14.015625 -0.734375 
Q 9.8125 -0.734375 6.734375 2.21875 
Q 3.65625 5.171875 3.65625 9.71875 
z
M 22.265625 46.296875 
z
" id="Times-Roman-97"/>
      <path d="M 23.140625 44.875 
L 23.140625 43.5 
Q 21.296875 43.453125 20 42.984375 
Q 18.703125 42.53125 18.703125 41.0625 
Q 18.703125 40.140625 21.296875 35.84375 
Q 22.65625 33.59375 24.75 30.328125 
Q 27.640625 34.28125 29.046875 36.53125 
Q 31.453125 40.140625 31.453125 41.21875 
Q 31.453125 42.484375 30.421875 42.921875 
Q 29.390625 43.359375 27.546875 43.5 
L 27.546875 44.875 
L 43.265625 44.875 
L 43.265625 43.5 
Q 40.765625 43.3125 38.609375 42.15625 
Q 36.46875 41.015625 35.15625 39.109375 
L 26.8125 27.046875 
L 39.703125 7.515625 
Q 42.1875 3.71875 43.921875 2.59375 
Q 45.65625 1.46875 47.90625 1.375 
L 47.90625 0 
L 27.734375 0 
L 27.734375 1.375 
L 29.15625 1.46875 
Q 30.28125 1.5625 31.03125 2.140625 
Q 31.78125 2.734375 31.78125 3.609375 
Q 31.78125 4.546875 29.9375 7.71875 
Q 29.046875 9.28125 27.296875 11.96875 
Q 26.46875 13.28125 24.828125 15.625 
Q 23.1875 17.96875 22.078125 19.625 
L 14.203125 7.375 
Q 12.796875 5.171875 12.453125 4.4375 
Q 12.109375 3.71875 12.109375 3.21875 
Q 12.109375 2.296875 12.859375 2 
Q 13.625 1.703125 16.15625 1.375 
L 16.15625 0 
L 1.703125 0 
L 1.703125 1.375 
Q 4.34375 1.90625 5.609375 2.734375 
Q 6.890625 3.5625 8.984375 6.59375 
L 20.359375 23.140625 
L 10.984375 37.359375 
Q 8.15625 41.609375 7.078125 42.390625 
Q 6 43.171875 2.390625 43.5 
L 2.390625 44.875 
z
" id="Times-Roman-120"/>
      <path d="M 4.59375 25.09375 
Q 4.59375 42.09375 14.75 54.9375 
Q 21 62.796875 29.5 67.578125 
L 30.421875 65.96875 
Q 22.5625 59.71875 19.1875 53.8125 
Q 13.28125 43.5 13.28125 26.375 
Q 13.28125 13.671875 15.53125 5.421875 
Q 19.484375 -9.03125 30.421875 -16.21875 
L 29.15625 -17.828125 
Q 23.140625 -14.9375 16.15625 -6.546875 
Q 4.59375 7.375 4.59375 25.09375 
z
" id="Times-Roman-40"/>
      <path d="M 1.609375 1.8125 
Q 7.71875 2.25 9.515625 3.640625 
Q 11.328125 5.03125 11.328125 10.84375 
L 11.328125 55.328125 
Q 11.328125 60.84375 9.515625 62.421875 
Q 7.71875 64.015625 1.609375 64.3125 
L 1.609375 66.15625 
L 31.203125 66.15625 
L 31.203125 64.3125 
Q 25.09375 64.015625 23.28125 62.421875 
Q 21.484375 60.84375 21.484375 55.328125 
L 21.484375 10.84375 
Q 21.484375 5.03125 23.28125 3.640625 
Q 25.09375 2.25 31.203125 1.8125 
L 31.203125 0 
L 1.609375 0 
z
M 16.40625 66.15625 
z
" id="Times-Roman-73"/>
      <path d="M 28.46875 24.609375 
Q 28.46875 17.328125 26.5625 10.828125 
Q 24.65625 4.34375 21 -1.421875 
Q 17.140625 -7.5625 10.6875 -12.890625 
Q 6.453125 -16.40625 3.5625 -17.828125 
L 2.640625 -16.21875 
Q 10.15625 -10.5 13.625 -4.546875 
Q 19.78125 6 19.78125 23.34375 
Q 19.78125 37.359375 16.9375 46.234375 
Q 12.984375 58.796875 2.640625 65.96875 
L 3.90625 67.578125 
Q 11.625 63.28125 18.265625 54.59375 
Q 28.46875 41.21875 28.46875 24.609375 
z
" id="Times-Roman-41"/>
     </defs>
     <use xlink:href="#Times-Roman-77"/>
     <use x="88.916016" xlink:href="#Times-Roman-97"/>
     <use x="133.300781" xlink:href="#Times-Roman-120"/>
     <use x="183.300781" xlink:href="#Times-Roman-40"/>
     <use x="216.601562" xlink:href="#Times-Roman-73"/>
     <use x="249.902344" xlink:href="#Times-Roman-41"/>
    </g>
   </g>
  </g>
 </g>
 <defs>
  <clipPath id="pc0dc47f27b">
   <rect height="195.485669" width="355.415904" x="53.906931" y="39.297165"/>
  </clipPath>
 </defs>
</svg>
