<?xml version="1.0" encoding="utf-8" standalone="no"?>
<!DOCTYPE svg PUBLIC "-//W3C//DTD SVG 1.1//EN"
  "http://www.w3.org/Graphics/SVG/1.1/DTD/svg11.dtd">
<!-- Created with matplotlib (https://matplotlib.org/) -->
<svg height="288pt" version="1.1" viewBox="0 0 432 288" width="432pt" xmlns="http://www.w3.org/2000/svg" xmlns:xlink="http://www.w3.org/1999/xlink">
 <metadata>
  <rdf:RDF xmlns:cc="http://creativecommons.org/ns#" xmlns:dc="http://purl.org/dc/elements/1.1/" xmlns:rdf="http://www.w3.org/1999/02/22-rdf-syntax-ns#">
   <cc:Work>
    <dc:type rdf:resource="http://purl.org/dc/dcmitype/StillImage"/>
    <dc:date>2021-03-01T12:11:56.464775</dc:date>
    <dc:format>image/svg+xml</dc:format>
    <dc:creator>
     <cc:Agent>
      <dc:title>Matplotlib v3.3.4, https://matplotlib.org/</dc:title>
     </cc:Agent>
    </dc:creator>
   </cc:Work>
  </rdf:RDF>
 </metadata>
 <defs>
  <style type="text/css">*{stroke-linecap:butt;stroke-linejoin:round;}</style>
 </defs>
 <g id="figure_1">
  <g id="patch_1">
   <path d="M 0 288 
L 432 288 
L 432 0 
L 0 0 
z
" style="fill:#ffffff;"/>
  </g>
  <g id="axes_1">
   <g id="patch_2">
    <path d="M 59.906697 234.782835 
L 409.322835 234.782835 
L 409.322835 39.297165 
L 59.906697 39.297165 
z
" style="fill:#ffffff;"/>
   </g>
   <g id="matplotlib.axis_1">
    <g id="xtick_1">
     <g id="line2d_1">
      <path clip-path="url(#pcfe3d04c67)" d="M 69.795833 234.782835 
L 69.795833 39.297165 
" style="fill:none;stroke:#000000;stroke-linecap:square;stroke-opacity:0.1;stroke-width:0.5;"/>
     </g>
     <g id="line2d_2">
      <defs>
       <path d="M 0 0 
L 0 -2.5 
" id="m99641e5af8" style="stroke:#000000;stroke-width:0.5;"/>
      </defs>
      <g>
       <use style="stroke:#000000;stroke-width:0.5;" x="69.795833" xlink:href="#m99641e5af8" y="234.782835"/>
      </g>
     </g>
     <g id="text_1">
      <!-- $\mathregular{0}$ -->
      <g transform="translate(66.795833 246.510335)scale(0.12 -0.12)">
       <defs>
        <path d="M 23.921875 1.8125 
Q 31.109375 1.8125 33.78125 9.671875 
Q 36.46875 17.53125 36.46875 32.421875 
Q 36.46875 44.28125 34.859375 51.375 
Q 31.84375 64.546875 23.53125 64.546875 
Q 15.234375 64.546875 12.15625 50.984375 
Q 10.546875 43.75 10.546875 31.9375 
Q 10.546875 20.84375 12.203125 14.203125 
Q 15.328125 1.8125 23.921875 1.8125 
z
M 23.78125 67.1875 
Q 35.015625 67.1875 41.21875 55.421875 
Q 46.140625 45.90625 46.140625 33.546875 
Q 46.140625 23.828125 43.109375 15.234375 
Q 37.40625 -0.921875 23.34375 -0.921875 
Q 13.71875 -0.921875 7.515625 7.8125 
Q 0.875 17.140625 0.875 33.15625 
Q 0.875 45.75 5.328125 54.828125 
Q 11.328125 67.1875 23.78125 67.1875 
z
" id="Times-Roman-48"/>
       </defs>
       <use transform="translate(0 0.8125)" xlink:href="#Times-Roman-48"/>
      </g>
     </g>
    </g>
    <g id="xtick_2">
     <g id="line2d_3">
      <path clip-path="url(#pcfe3d04c67)" d="M 135.723406 234.782835 
L 135.723406 39.297165 
" style="fill:none;stroke:#000000;stroke-linecap:square;stroke-opacity:0.1;stroke-width:0.5;"/>
     </g>
     <g id="line2d_4">
      <g>
       <use style="stroke:#000000;stroke-width:0.5;" x="135.723406" xlink:href="#m99641e5af8" y="234.782835"/>
      </g>
     </g>
     <g id="text_2">
      <!-- $\mathregular{10}$ -->
      <g transform="translate(129.723406 246.510335)scale(0.12 -0.12)">
       <defs>
        <path d="M 29.59375 67.09375 
Q 29.78125 66.84375 29.796875 66.71875 
Q 29.828125 66.609375 29.828125 66.15625 
L 29.828125 7.375 
Q 29.828125 3.609375 31.828125 2.578125 
Q 33.84375 1.5625 39.3125 1.375 
L 39.3125 0 
L 11.765625 0 
L 11.765625 1.46875 
Q 17.671875 1.765625 19.484375 3.078125 
Q 21.296875 4.390625 21.296875 8.796875 
L 21.296875 54 
Q 21.296875 56.34375 20.703125 57.5625 
Q 20.125 58.796875 18.171875 58.796875 
Q 16.890625 58.796875 14.859375 58.078125 
Q 12.84375 57.375 11.078125 56.59375 
L 11.078125 57.953125 
L 29 67.09375 
L 29.59375 67.09375 
z
" id="Times-Roman-49"/>
       </defs>
       <use transform="translate(0 0.8125)" xlink:href="#Times-Roman-49"/>
       <use transform="translate(50 0.8125)" xlink:href="#Times-Roman-48"/>
      </g>
     </g>
    </g>
    <g id="xtick_3">
     <g id="line2d_5">
      <path clip-path="url(#pcfe3d04c67)" d="M 201.650979 234.782835 
L 201.650979 39.297165 
" style="fill:none;stroke:#000000;stroke-linecap:square;stroke-opacity:0.1;stroke-width:0.5;"/>
     </g>
     <g id="line2d_6">
      <g>
       <use style="stroke:#000000;stroke-width:0.5;" x="201.650979" xlink:href="#m99641e5af8" y="234.782835"/>
      </g>
     </g>
     <g id="text_3">
      <!-- $\mathregular{20}$ -->
      <g transform="translate(195.650979 246.510335)scale(0.12 -0.12)">
       <defs>
        <path d="M 2.984375 1.125 
Q 20.84375 19.671875 27.234375 28.359375 
Q 33.640625 37.0625 33.640625 45.3125 
Q 33.640625 52.546875 29.734375 56.328125 
Q 25.828125 60.109375 20.40625 60.109375 
Q 13.71875 60.109375 9.578125 55.21875 
Q 7.28125 52.546875 5.171875 46.96875 
L 3.078125 47.40625 
Q 5.515625 58.640625 11.34375 63.015625 
Q 17.1875 67.390625 23.875 67.390625 
Q 32.125 67.390625 37.21875 62.1875 
Q 42.328125 56.984375 42.328125 49.46875 
Q 42.328125 41.453125 36.8125 34.03125 
Q 31.296875 26.609375 12.84375 7.625 
L 35.25 7.625 
Q 39.9375 7.625 41.84375 8.734375 
Q 43.75 9.859375 46.140625 14.203125 
L 47.40625 13.625 
L 42 0 
L 2.984375 0 
z
" id="Times-Roman-50"/>
       </defs>
       <use transform="translate(0 0.609375)" xlink:href="#Times-Roman-50"/>
       <use transform="translate(50 0.609375)" xlink:href="#Times-Roman-48"/>
      </g>
     </g>
    </g>
    <g id="xtick_4">
     <g id="line2d_7">
      <path clip-path="url(#pcfe3d04c67)" d="M 267.578552 234.782835 
L 267.578552 39.297165 
" style="fill:none;stroke:#000000;stroke-linecap:square;stroke-opacity:0.1;stroke-width:0.5;"/>
     </g>
     <g id="line2d_8">
      <g>
       <use style="stroke:#000000;stroke-width:0.5;" x="267.578552" xlink:href="#m99641e5af8" y="234.782835"/>
      </g>
     </g>
     <g id="text_4">
      <!-- $\mathregular{30}$ -->
      <g transform="translate(261.578552 246.510335)scale(0.12 -0.12)">
       <defs>
        <path d="M 7.765625 8.5 
Q 10.453125 8.5 14.859375 5.71875 
Q 19.28125 2.9375 22.359375 2.9375 
Q 29.203125 2.9375 32.515625 7.546875 
Q 35.84375 12.15625 35.84375 17.578125 
Q 35.84375 22.796875 33.15625 26.765625 
Q 28.609375 33.453125 17.828125 33.453125 
Q 17.1875 33.453125 16.59375 33.421875 
Q 16.015625 33.40625 15.234375 33.296875 
L 15.140625 34.578125 
Q 22.953125 37.40625 27.4375 41.0625 
Q 31.9375 44.734375 31.9375 50.734375 
Q 31.9375 56.0625 28.390625 58.84375 
Q 24.859375 61.625 20.3125 61.625 
Q 14.9375 61.625 10.84375 57.671875 
Q 8.59375 55.515625 6 51.03125 
L 4.5 51.375 
Q 6.453125 58.796875 11.765625 63.234375 
Q 17.09375 67.671875 24.078125 67.671875 
Q 31.546875 67.671875 35.625 63.5625 
Q 39.703125 59.46875 39.703125 54.109375 
Q 39.703125 49.359375 36.328125 45.40625 
Q 34.421875 43.171875 30.421875 40.375 
Q 35.109375 38.375 37.9375 35.6875 
Q 43.265625 30.5625 43.265625 22.703125 
Q 43.265625 13.421875 35.953125 6.34375 
Q 28.65625 -0.734375 15.1875 -0.734375 
Q 9.1875 -0.734375 6.765625 1.046875 
Q 4.34375 2.828125 4.34375 4.890625 
Q 4.34375 6.15625 5.140625 7.328125 
Q 5.953125 8.5 7.765625 8.5 
z
" id="Times-Roman-51"/>
       </defs>
       <use transform="translate(0 0.328125)" xlink:href="#Times-Roman-51"/>
       <use transform="translate(50 0.328125)" xlink:href="#Times-Roman-48"/>
      </g>
     </g>
    </g>
    <g id="xtick_5">
     <g id="line2d_9">
      <path clip-path="url(#pcfe3d04c67)" d="M 333.506125 234.782835 
L 333.506125 39.297165 
" style="fill:none;stroke:#000000;stroke-linecap:square;stroke-opacity:0.1;stroke-width:0.5;"/>
     </g>
     <g id="line2d_10">
      <g>
       <use style="stroke:#000000;stroke-width:0.5;" x="333.506125" xlink:href="#m99641e5af8" y="234.782835"/>
      </g>
     </g>
     <g id="text_5">
      <!-- $\mathregular{40}$ -->
      <g transform="translate(327.506125 246.510335)scale(0.12 -0.12)">
       <defs>
        <path d="M 29.15625 57.03125 
L 5.171875 23.140625 
L 29.15625 23.140625 
z
M 32.375 67.09375 
L 37.015625 67.09375 
L 37.015625 23.140625 
L 47.21875 23.140625 
L 47.21875 16.65625 
L 37.015625 16.65625 
L 37.015625 0 
L 29.25 0 
L 29.25 16.65625 
L 1.125 16.65625 
L 1.125 23.140625 
z
" id="Times-Roman-52"/>
       </defs>
       <use transform="translate(0 0.8125)" xlink:href="#Times-Roman-52"/>
       <use transform="translate(50 0.8125)" xlink:href="#Times-Roman-48"/>
      </g>
     </g>
    </g>
    <g id="xtick_6">
     <g id="line2d_11">
      <path clip-path="url(#pcfe3d04c67)" d="M 399.433699 234.782835 
L 399.433699 39.297165 
" style="fill:none;stroke:#000000;stroke-linecap:square;stroke-opacity:0.1;stroke-width:0.5;"/>
     </g>
     <g id="line2d_12">
      <g>
       <use style="stroke:#000000;stroke-width:0.5;" x="399.433699" xlink:href="#m99641e5af8" y="234.782835"/>
      </g>
     </g>
     <g id="text_6">
      <!-- $\mathregular{50}$ -->
      <g transform="translate(393.433699 246.510335)scale(0.12 -0.12)">
       <defs>
        <path d="M 7.46875 8.9375 
Q 10.25 8.9375 14.765625 5.78125 
Q 19.28125 2.640625 21.734375 2.640625 
Q 27.34375 2.640625 31.546875 7.59375 
Q 35.75 12.546875 35.75 19.78125 
Q 35.75 32.421875 22.265625 37.984375 
Q 14.796875 41.0625 8.34375 41.0625 
Q 7.28125 41.0625 7 41.140625 
Q 6.734375 41.21875 6.34375 41.65625 
Q 6.453125 42.046875 6.515625 42.3125 
Q 6.59375 42.578125 6.6875 42.828125 
L 17.328125 66.15625 
L 38.28125 66.15625 
Q 39.84375 66.15625 40.6875 66.6875 
Q 41.546875 67.234375 42.921875 68.703125 
L 43.703125 68.015625 
L 39.890625 58.984375 
Q 39.703125 58.546875 38.8125 58.421875 
Q 37.9375 58.296875 36.921875 58.296875 
L 18.015625 58.296875 
L 13.875 49.75 
Q 21.875 48.390625 25.59375 47.171875 
Q 31.6875 45.125 35.796875 41.109375 
Q 39.3125 37.640625 41.109375 33.3125 
Q 42.921875 29 42.921875 24.171875 
Q 42.921875 13.375 35.234375 6.140625 
Q 27.546875 -1.078125 15.765625 -1.078125 
Q 10.984375 -1.078125 8.0625 -0.140625 
Q 3.171875 1.375 3.171875 5.28125 
Q 3.171875 6.734375 4.21875 7.828125 
Q 5.28125 8.9375 7.46875 8.9375 
z
" id="Times-Roman-53"/>
       </defs>
       <use transform="translate(0 0.296875)" xlink:href="#Times-Roman-53"/>
       <use transform="translate(50 0.296875)" xlink:href="#Times-Roman-48"/>
      </g>
     </g>
    </g>
    <g id="text_7">
     <!-- SD Start Time ts [days] -->
     <g transform="translate(164.898516 262.24221)scale(0.12 -0.12)">
      <defs>
       <path d="M 53.515625 70.515625 
L 53.515625 60.890625 
Q 47.90625 63.578125 42.921875 64.890625 
Q 37.9375 66.21875 33.296875 66.21875 
Q 25.25 66.21875 20.875 63.09375 
Q 16.5 59.96875 16.5 54.203125 
Q 16.5 49.359375 19.40625 46.890625 
Q 22.3125 44.4375 30.421875 42.921875 
L 36.375 41.703125 
Q 47.40625 39.59375 52.65625 34.296875 
Q 57.90625 29 57.90625 20.125 
Q 57.90625 9.515625 50.796875 4.046875 
Q 43.703125 -1.421875 29.984375 -1.421875 
Q 24.8125 -1.421875 18.96875 -0.25 
Q 13.140625 0.921875 6.890625 3.21875 
L 6.890625 13.375 
Q 12.890625 10.015625 18.65625 8.296875 
Q 24.421875 6.59375 29.984375 6.59375 
Q 38.421875 6.59375 43.015625 9.90625 
Q 47.609375 13.234375 47.609375 19.390625 
Q 47.609375 24.75 44.3125 27.78125 
Q 41.015625 30.8125 33.5 32.328125 
L 27.484375 33.5 
Q 16.453125 35.6875 11.515625 40.375 
Q 6.59375 45.0625 6.59375 53.421875 
Q 6.59375 63.09375 13.40625 68.65625 
Q 20.21875 74.21875 32.171875 74.21875 
Q 37.3125 74.21875 42.625 73.28125 
Q 47.953125 72.359375 53.515625 70.515625 
z
" id="DejaVuSans-83"/>
       <path d="M 19.671875 64.796875 
L 19.671875 8.109375 
L 31.59375 8.109375 
Q 46.6875 8.109375 53.6875 14.9375 
Q 60.6875 21.78125 60.6875 36.53125 
Q 60.6875 51.171875 53.6875 57.984375 
Q 46.6875 64.796875 31.59375 64.796875 
z
M 9.8125 72.90625 
L 30.078125 72.90625 
Q 51.265625 72.90625 61.171875 64.09375 
Q 71.09375 55.28125 71.09375 36.53125 
Q 71.09375 17.671875 61.125 8.828125 
Q 51.171875 0 30.078125 0 
L 9.8125 0 
z
" id="DejaVuSans-68"/>
       <path id="DejaVuSans-32"/>
       <path d="M 18.3125 70.21875 
L 18.3125 54.6875 
L 36.8125 54.6875 
L 36.8125 47.703125 
L 18.3125 47.703125 
L 18.3125 18.015625 
Q 18.3125 11.328125 20.140625 9.421875 
Q 21.96875 7.515625 27.59375 7.515625 
L 36.8125 7.515625 
L 36.8125 0 
L 27.59375 0 
Q 17.1875 0 13.234375 3.875 
Q 9.28125 7.765625 9.28125 18.015625 
L 9.28125 47.703125 
L 2.6875 47.703125 
L 2.6875 54.6875 
L 9.28125 54.6875 
L 9.28125 70.21875 
z
" id="DejaVuSans-116"/>
       <path d="M 34.28125 27.484375 
Q 23.390625 27.484375 19.1875 25 
Q 14.984375 22.515625 14.984375 16.5 
Q 14.984375 11.71875 18.140625 8.90625 
Q 21.296875 6.109375 26.703125 6.109375 
Q 34.1875 6.109375 38.703125 11.40625 
Q 43.21875 16.703125 43.21875 25.484375 
L 43.21875 27.484375 
z
M 52.203125 31.203125 
L 52.203125 0 
L 43.21875 0 
L 43.21875 8.296875 
Q 40.140625 3.328125 35.546875 0.953125 
Q 30.953125 -1.421875 24.3125 -1.421875 
Q 15.921875 -1.421875 10.953125 3.296875 
Q 6 8.015625 6 15.921875 
Q 6 25.140625 12.171875 29.828125 
Q 18.359375 34.515625 30.609375 34.515625 
L 43.21875 34.515625 
L 43.21875 35.40625 
Q 43.21875 41.609375 39.140625 45 
Q 35.0625 48.390625 27.6875 48.390625 
Q 23 48.390625 18.546875 47.265625 
Q 14.109375 46.140625 10.015625 43.890625 
L 10.015625 52.203125 
Q 14.9375 54.109375 19.578125 55.046875 
Q 24.21875 56 28.609375 56 
Q 40.484375 56 46.34375 49.84375 
Q 52.203125 43.703125 52.203125 31.203125 
z
" id="DejaVuSans-97"/>
       <path d="M 41.109375 46.296875 
Q 39.59375 47.171875 37.8125 47.578125 
Q 36.03125 48 33.890625 48 
Q 26.265625 48 22.1875 43.046875 
Q 18.109375 38.09375 18.109375 28.8125 
L 18.109375 0 
L 9.078125 0 
L 9.078125 54.6875 
L 18.109375 54.6875 
L 18.109375 46.1875 
Q 20.953125 51.171875 25.484375 53.578125 
Q 30.03125 56 36.53125 56 
Q 37.453125 56 38.578125 55.875 
Q 39.703125 55.765625 41.0625 55.515625 
z
" id="DejaVuSans-114"/>
       <path d="M -0.296875 72.90625 
L 61.375 72.90625 
L 61.375 64.59375 
L 35.5 64.59375 
L 35.5 0 
L 25.59375 0 
L 25.59375 64.59375 
L -0.296875 64.59375 
z
" id="DejaVuSans-84"/>
       <path d="M 9.421875 54.6875 
L 18.40625 54.6875 
L 18.40625 0 
L 9.421875 0 
z
M 9.421875 75.984375 
L 18.40625 75.984375 
L 18.40625 64.59375 
L 9.421875 64.59375 
z
" id="DejaVuSans-105"/>
       <path d="M 52 44.1875 
Q 55.375 50.25 60.0625 53.125 
Q 64.75 56 71.09375 56 
Q 79.640625 56 84.28125 50.015625 
Q 88.921875 44.046875 88.921875 33.015625 
L 88.921875 0 
L 79.890625 0 
L 79.890625 32.71875 
Q 79.890625 40.578125 77.09375 44.375 
Q 74.3125 48.1875 68.609375 48.1875 
Q 61.625 48.1875 57.5625 43.546875 
Q 53.515625 38.921875 53.515625 30.90625 
L 53.515625 0 
L 44.484375 0 
L 44.484375 32.71875 
Q 44.484375 40.625 41.703125 44.40625 
Q 38.921875 48.1875 33.109375 48.1875 
Q 26.21875 48.1875 22.15625 43.53125 
Q 18.109375 38.875 18.109375 30.90625 
L 18.109375 0 
L 9.078125 0 
L 9.078125 54.6875 
L 18.109375 54.6875 
L 18.109375 46.1875 
Q 21.1875 51.21875 25.484375 53.609375 
Q 29.78125 56 35.6875 56 
Q 41.65625 56 45.828125 52.96875 
Q 50 49.953125 52 44.1875 
z
" id="DejaVuSans-109"/>
       <path d="M 56.203125 29.59375 
L 56.203125 25.203125 
L 14.890625 25.203125 
Q 15.484375 15.921875 20.484375 11.0625 
Q 25.484375 6.203125 34.421875 6.203125 
Q 39.59375 6.203125 44.453125 7.46875 
Q 49.3125 8.734375 54.109375 11.28125 
L 54.109375 2.78125 
Q 49.265625 0.734375 44.1875 -0.34375 
Q 39.109375 -1.421875 33.890625 -1.421875 
Q 20.796875 -1.421875 13.15625 6.1875 
Q 5.515625 13.8125 5.515625 26.8125 
Q 5.515625 40.234375 12.765625 48.109375 
Q 20.015625 56 32.328125 56 
Q 43.359375 56 49.78125 48.890625 
Q 56.203125 41.796875 56.203125 29.59375 
z
M 47.21875 32.234375 
Q 47.125 39.59375 43.09375 43.984375 
Q 39.0625 48.390625 32.421875 48.390625 
Q 24.90625 48.390625 20.390625 44.140625 
Q 15.875 39.890625 15.1875 32.171875 
z
" id="DejaVuSans-101"/>
       <path d="M 44.28125 53.078125 
L 44.28125 44.578125 
Q 40.484375 46.53125 36.375 47.5 
Q 32.28125 48.484375 27.875 48.484375 
Q 21.1875 48.484375 17.84375 46.4375 
Q 14.5 44.390625 14.5 40.28125 
Q 14.5 37.15625 16.890625 35.375 
Q 19.28125 33.59375 26.515625 31.984375 
L 29.59375 31.296875 
Q 39.15625 29.25 43.1875 25.515625 
Q 47.21875 21.78125 47.21875 15.09375 
Q 47.21875 7.46875 41.1875 3.015625 
Q 35.15625 -1.421875 24.609375 -1.421875 
Q 20.21875 -1.421875 15.453125 -0.5625 
Q 10.6875 0.296875 5.421875 2 
L 5.421875 11.28125 
Q 10.40625 8.6875 15.234375 7.390625 
Q 20.0625 6.109375 24.8125 6.109375 
Q 31.15625 6.109375 34.5625 8.28125 
Q 37.984375 10.453125 37.984375 14.40625 
Q 37.984375 18.0625 35.515625 20.015625 
Q 33.0625 21.96875 24.703125 23.78125 
L 21.578125 24.515625 
Q 13.234375 26.265625 9.515625 29.90625 
Q 5.8125 33.546875 5.8125 39.890625 
Q 5.8125 47.609375 11.28125 51.796875 
Q 16.75 56 26.8125 56 
Q 31.78125 56 36.171875 55.265625 
Q 40.578125 54.546875 44.28125 53.078125 
z
" id="DejaVuSans-115"/>
       <path d="M 8.59375 75.984375 
L 29.296875 75.984375 
L 29.296875 69 
L 17.578125 69 
L 17.578125 -6.203125 
L 29.296875 -6.203125 
L 29.296875 -13.1875 
L 8.59375 -13.1875 
z
" id="DejaVuSans-91"/>
       <path d="M 45.40625 46.390625 
L 45.40625 75.984375 
L 54.390625 75.984375 
L 54.390625 0 
L 45.40625 0 
L 45.40625 8.203125 
Q 42.578125 3.328125 38.25 0.953125 
Q 33.9375 -1.421875 27.875 -1.421875 
Q 17.96875 -1.421875 11.734375 6.484375 
Q 5.515625 14.40625 5.515625 27.296875 
Q 5.515625 40.1875 11.734375 48.09375 
Q 17.96875 56 27.875 56 
Q 33.9375 56 38.25 53.625 
Q 42.578125 51.265625 45.40625 46.390625 
z
M 14.796875 27.296875 
Q 14.796875 17.390625 18.875 11.75 
Q 22.953125 6.109375 30.078125 6.109375 
Q 37.203125 6.109375 41.296875 11.75 
Q 45.40625 17.390625 45.40625 27.296875 
Q 45.40625 37.203125 41.296875 42.84375 
Q 37.203125 48.484375 30.078125 48.484375 
Q 22.953125 48.484375 18.875 42.84375 
Q 14.796875 37.203125 14.796875 27.296875 
z
" id="DejaVuSans-100"/>
       <path d="M 32.171875 -5.078125 
Q 28.375 -14.84375 24.75 -17.8125 
Q 21.140625 -20.796875 15.09375 -20.796875 
L 7.90625 -20.796875 
L 7.90625 -13.28125 
L 13.1875 -13.28125 
Q 16.890625 -13.28125 18.9375 -11.515625 
Q 21 -9.765625 23.484375 -3.21875 
L 25.09375 0.875 
L 2.984375 54.6875 
L 12.5 54.6875 
L 29.59375 11.921875 
L 46.6875 54.6875 
L 56.203125 54.6875 
z
" id="DejaVuSans-121"/>
       <path d="M 30.421875 75.984375 
L 30.421875 -13.1875 
L 9.71875 -13.1875 
L 9.71875 -6.203125 
L 21.390625 -6.203125 
L 21.390625 69 
L 9.71875 69 
L 9.71875 75.984375 
z
" id="DejaVuSans-93"/>
      </defs>
      <use xlink:href="#DejaVuSans-83"/>
      <use x="63.476562" xlink:href="#DejaVuSans-68"/>
      <use x="140.478516" xlink:href="#DejaVuSans-32"/>
      <use x="172.265625" xlink:href="#DejaVuSans-83"/>
      <use x="235.742188" xlink:href="#DejaVuSans-116"/>
      <use x="274.951172" xlink:href="#DejaVuSans-97"/>
      <use x="336.230469" xlink:href="#DejaVuSans-114"/>
      <use x="377.34375" xlink:href="#DejaVuSans-116"/>
      <use x="416.552734" xlink:href="#DejaVuSans-32"/>
      <use x="448.339844" xlink:href="#DejaVuSans-84"/>
      <use x="506.298828" xlink:href="#DejaVuSans-105"/>
      <use x="534.082031" xlink:href="#DejaVuSans-109"/>
      <use x="631.494141" xlink:href="#DejaVuSans-101"/>
      <use x="693.017578" xlink:href="#DejaVuSans-32"/>
      <use x="724.804688" xlink:href="#DejaVuSans-116"/>
      <use x="764.013672" xlink:href="#DejaVuSans-115"/>
      <use x="816.113281" xlink:href="#DejaVuSans-32"/>
      <use x="847.900391" xlink:href="#DejaVuSans-91"/>
      <use x="886.914062" xlink:href="#DejaVuSans-100"/>
      <use x="950.390625" xlink:href="#DejaVuSans-97"/>
      <use x="1011.669922" xlink:href="#DejaVuSans-121"/>
      <use x="1070.849609" xlink:href="#DejaVuSans-115"/>
      <use x="1122.949219" xlink:href="#DejaVuSans-93"/>
     </g>
    </g>
   </g>
   <g id="matplotlib.axis_2">
    <g id="ytick_1">
     <g id="line2d_13">
      <path clip-path="url(#pcfe3d04c67)" d="M 59.906697 229.250221 
L 409.322835 229.250221 
" style="fill:none;stroke:#000000;stroke-linecap:square;stroke-opacity:0.1;stroke-width:0.5;"/>
     </g>
     <g id="line2d_14">
      <defs>
       <path d="M 0 0 
L 2.5 0 
" id="m3df4a1130a" style="stroke:#000000;stroke-width:0.5;"/>
      </defs>
      <g>
       <use style="stroke:#000000;stroke-width:0.5;" x="59.906697" xlink:href="#m3df4a1130a" y="229.250221"/>
      </g>
     </g>
     <g id="text_8">
      <!-- $\mathregular{0}$ -->
      <g transform="translate(50.406697 233.363971)scale(0.12 -0.12)">
       <use transform="translate(0 0.8125)" xlink:href="#Times-Roman-48"/>
      </g>
     </g>
    </g>
    <g id="ytick_2">
     <g id="line2d_15">
      <path clip-path="url(#pcfe3d04c67)" d="M 59.906697 173.701895 
L 409.322835 173.701895 
" style="fill:none;stroke:#000000;stroke-linecap:square;stroke-opacity:0.1;stroke-width:0.5;"/>
     </g>
     <g id="line2d_16">
      <g>
       <use style="stroke:#000000;stroke-width:0.5;" x="59.906697" xlink:href="#m3df4a1130a" y="173.701895"/>
      </g>
     </g>
     <g id="text_9">
      <!-- $\mathregular{50}$ -->
      <g transform="translate(44.406697 177.815645)scale(0.12 -0.12)">
       <use transform="translate(0 0.296875)" xlink:href="#Times-Roman-53"/>
       <use transform="translate(50 0.296875)" xlink:href="#Times-Roman-48"/>
      </g>
     </g>
    </g>
    <g id="ytick_3">
     <g id="line2d_17">
      <path clip-path="url(#pcfe3d04c67)" d="M 59.906697 118.153569 
L 409.322835 118.153569 
" style="fill:none;stroke:#000000;stroke-linecap:square;stroke-opacity:0.1;stroke-width:0.5;"/>
     </g>
     <g id="line2d_18">
      <g>
       <use style="stroke:#000000;stroke-width:0.5;" x="59.906697" xlink:href="#m3df4a1130a" y="118.153569"/>
      </g>
     </g>
     <g id="text_10">
      <!-- $\mathregular{100}$ -->
      <g transform="translate(38.406697 122.267319)scale(0.12 -0.12)">
       <use transform="translate(0 0.8125)" xlink:href="#Times-Roman-49"/>
       <use transform="translate(50 0.8125)" xlink:href="#Times-Roman-48"/>
       <use transform="translate(100 0.8125)" xlink:href="#Times-Roman-48"/>
      </g>
     </g>
    </g>
    <g id="ytick_4">
     <g id="line2d_19">
      <path clip-path="url(#pcfe3d04c67)" d="M 59.906697 62.605243 
L 409.322835 62.605243 
" style="fill:none;stroke:#000000;stroke-linecap:square;stroke-opacity:0.1;stroke-width:0.5;"/>
     </g>
     <g id="line2d_20">
      <g>
       <use style="stroke:#000000;stroke-width:0.5;" x="59.906697" xlink:href="#m3df4a1130a" y="62.605243"/>
      </g>
     </g>
     <g id="text_11">
      <!-- $\mathregular{150}$ -->
      <g transform="translate(38.406697 66.718993)scale(0.12 -0.12)">
       <use transform="translate(0 0.296875)" xlink:href="#Times-Roman-49"/>
       <use transform="translate(50 0.296875)" xlink:href="#Times-Roman-53"/>
       <use transform="translate(100 0.296875)" xlink:href="#Times-Roman-48"/>
      </g>
     </g>
    </g>
    <g id="text_12">
     <!-- SD Duration td [days] -->
     <g transform="translate(31.911072 202.254375)rotate(-90)scale(0.12 -0.12)">
      <defs>
       <path d="M 8.5 21.578125 
L 8.5 54.6875 
L 17.484375 54.6875 
L 17.484375 21.921875 
Q 17.484375 14.15625 20.5 10.265625 
Q 23.53125 6.390625 29.59375 6.390625 
Q 36.859375 6.390625 41.078125 11.03125 
Q 45.3125 15.671875 45.3125 23.6875 
L 45.3125 54.6875 
L 54.296875 54.6875 
L 54.296875 0 
L 45.3125 0 
L 45.3125 8.40625 
Q 42.046875 3.421875 37.71875 1 
Q 33.40625 -1.421875 27.6875 -1.421875 
Q 18.265625 -1.421875 13.375 4.4375 
Q 8.5 10.296875 8.5 21.578125 
z
M 31.109375 56 
z
" id="DejaVuSans-117"/>
       <path d="M 30.609375 48.390625 
Q 23.390625 48.390625 19.1875 42.75 
Q 14.984375 37.109375 14.984375 27.296875 
Q 14.984375 17.484375 19.15625 11.84375 
Q 23.34375 6.203125 30.609375 6.203125 
Q 37.796875 6.203125 41.984375 11.859375 
Q 46.1875 17.53125 46.1875 27.296875 
Q 46.1875 37.015625 41.984375 42.703125 
Q 37.796875 48.390625 30.609375 48.390625 
z
M 30.609375 56 
Q 42.328125 56 49.015625 48.375 
Q 55.71875 40.765625 55.71875 27.296875 
Q 55.71875 13.875 49.015625 6.21875 
Q 42.328125 -1.421875 30.609375 -1.421875 
Q 18.84375 -1.421875 12.171875 6.21875 
Q 5.515625 13.875 5.515625 27.296875 
Q 5.515625 40.765625 12.171875 48.375 
Q 18.84375 56 30.609375 56 
z
" id="DejaVuSans-111"/>
       <path d="M 54.890625 33.015625 
L 54.890625 0 
L 45.90625 0 
L 45.90625 32.71875 
Q 45.90625 40.484375 42.875 44.328125 
Q 39.84375 48.1875 33.796875 48.1875 
Q 26.515625 48.1875 22.3125 43.546875 
Q 18.109375 38.921875 18.109375 30.90625 
L 18.109375 0 
L 9.078125 0 
L 9.078125 54.6875 
L 18.109375 54.6875 
L 18.109375 46.1875 
Q 21.34375 51.125 25.703125 53.5625 
Q 30.078125 56 35.796875 56 
Q 45.21875 56 50.046875 50.171875 
Q 54.890625 44.34375 54.890625 33.015625 
z
" id="DejaVuSans-110"/>
      </defs>
      <use xlink:href="#DejaVuSans-83"/>
      <use x="63.476562" xlink:href="#DejaVuSans-68"/>
      <use x="140.478516" xlink:href="#DejaVuSans-32"/>
      <use x="172.265625" xlink:href="#DejaVuSans-68"/>
      <use x="249.267578" xlink:href="#DejaVuSans-117"/>
      <use x="312.646484" xlink:href="#DejaVuSans-114"/>
      <use x="353.759766" xlink:href="#DejaVuSans-97"/>
      <use x="415.039062" xlink:href="#DejaVuSans-116"/>
      <use x="454.248047" xlink:href="#DejaVuSans-105"/>
      <use x="482.03125" xlink:href="#DejaVuSans-111"/>
      <use x="543.212891" xlink:href="#DejaVuSans-110"/>
      <use x="606.591797" xlink:href="#DejaVuSans-32"/>
      <use x="638.378906" xlink:href="#DejaVuSans-116"/>
      <use x="677.587891" xlink:href="#DejaVuSans-100"/>
      <use x="741.064453" xlink:href="#DejaVuSans-32"/>
      <use x="772.851562" xlink:href="#DejaVuSans-91"/>
      <use x="811.865234" xlink:href="#DejaVuSans-100"/>
      <use x="875.341797" xlink:href="#DejaVuSans-97"/>
      <use x="936.621094" xlink:href="#DejaVuSans-121"/>
      <use x="995.800781" xlink:href="#DejaVuSans-115"/>
      <use x="1047.900391" xlink:href="#DejaVuSans-93"/>
     </g>
    </g>
   </g>
   <g id="LineCollection_1"/>
   <g id="LineCollection_2">
    <path clip-path="url(#pcfe3d04c67)" d="M 206.820432 44.829779 
L 206.820432 45.940745 
L 206.820432 47.051712 
L 206.820432 48.162678 
L 206.820432 49.273645 
L 206.820432 50.384611 
L 206.820432 51.495578 
L 206.820432 52.606544 
L 206.820432 53.717511 
L 206.820432 54.828477 
L 206.820432 55.138622 
" style="fill:none;stroke:#dcdcff;"/>
    <path clip-path="url(#pcfe3d04c67)" d="M 206.820432 78.959596 
L 206.820432 193.699293 
L 203.650882 194.810259 
L 201.393886 194.810259 
L 198.973354 193.699293 
L 195.024433 192.588326 
L 181.872707 187.693027 
L 166.157421 181.478661 
L 147.178535 173.701895 
L 109.352377 157.866215 
L 69.795833 141.201054 
L 69.795833 141.201054 
" style="fill:none;stroke:#dcdcff;"/>
   </g>
   <g id="LineCollection_3">
    <path clip-path="url(#pcfe3d04c67)" d="M 228.766668 44.829779 
L 228.766668 45.940745 
L 228.766668 47.051712 
L 228.766668 48.162678 
L 228.766668 49.273645 
L 228.766668 50.384611 
L 228.766668 51.495578 
L 228.766668 52.606544 
L 228.766668 53.717511 
L 228.766668 54.828477 
L 228.766668 55.939444 
L 228.766668 57.05041 
L 228.766668 58.161377 
L 228.766668 59.272343 
L 228.766668 60.38331 
L 228.766668 61.494276 
L 228.766668 62.605243 
L 228.766668 63.71621 
L 228.766668 64.827176 
L 228.766668 65.938143 
L 228.766668 67.049109 
L 228.766668 68.160076 
L 228.766668 69.271042 
L 228.766668 70.382009 
L 228.766668 71.492975 
L 228.766668 72.603942 
L 228.766668 73.714908 
L 228.766668 74.825875 
L 228.766668 75.936841 
L 228.766668 77.047808 
L 228.766668 78.158774 
L 228.766668 79.269741 
L 228.766668 80.380707 
L 228.766668 81.491674 
L 228.766668 82.60264 
L 228.766668 83.713607 
L 228.766668 84.824573 
L 228.766668 85.93554 
L 228.766668 87.046506 
L 228.766668 88.157473 
L 228.766668 89.26844 
L 228.766668 90.379406 
L 228.766668 91.490373 
L 228.766668 92.601339 
L 228.766668 93.712306 
L 228.766668 94.823272 
L 228.766668 95.934239 
L 228.766668 97.045205 
L 228.766668 98.156172 
L 228.766668 99.267138 
L 228.766668 100.378105 
L 228.766668 100.68825 
" style="fill:none;stroke:#b9b9ff;"/>
    <path clip-path="url(#pcfe3d04c67)" d="M 228.766668 124.509223 
L 228.766668 205.919924 
L 228.022008 206.467894 
L 226.503922 205.919924 
L 221.429251 205.254319 
L 211.7711 202.587025 
L 204.551197 200.365092 
L 197.845244 198.143159 
L 188.41569 194.810259 
L 175.27995 189.842168 
L 162.094435 184.609349 
L 143.593961 177.034795 
L 109.048049 162.59223 
L 69.795833 146.065626 
L 69.795833 146.065626 
" style="fill:none;stroke:#b9b9ff;"/>
   </g>
   <g id="LineCollection_4">
    <path clip-path="url(#pcfe3d04c67)" d="M 243.071852 44.829779 
L 243.071852 45.940745 
L 243.071852 47.051712 
L 243.071852 48.162678 
L 243.071852 49.273645 
L 243.071852 50.384611 
L 243.071852 51.495578 
L 243.071852 52.606544 
L 243.071852 53.717511 
L 243.071852 54.828477 
L 243.071852 55.138622 
" style="fill:none;stroke:#9595ff;"/>
    <path clip-path="url(#pcfe3d04c67)" d="M 243.071852 78.959596 
L 243.071852 212.585724 
L 241.207523 213.229391 
L 230.873427 211.474757 
L 225.526714 210.36379 
L 220.688268 209.252824 
L 212.174411 207.030891 
L 204.581264 204.808958 
L 195.058222 201.738752 
L 187.905614 199.254125 
L 178.798459 195.921226 
L 164.426942 190.366393 
L 142.316163 181.399762 
L 126.403574 174.812862 
L 69.795833 151.02905 
L 69.795833 151.02905 
" style="fill:none;stroke:#9595ff;"/>
   </g>
   <g id="LineCollection_5">
    <path clip-path="url(#pcfe3d04c67)" d="M 254.528479 44.829779 
L 254.528479 45.940745 
L 254.528479 47.051712 
L 254.528479 48.162678 
L 254.528479 49.273645 
L 254.528479 50.384611 
L 254.528479 51.495578 
L 254.528479 52.606544 
L 254.528479 53.717511 
L 254.528479 54.828477 
L 254.528479 55.939444 
L 254.528479 57.05041 
L 254.528479 58.161377 
L 254.528479 59.272343 
L 254.528479 60.38331 
L 254.528479 61.494276 
L 254.528479 62.605243 
L 254.528479 63.71621 
L 254.528479 64.827176 
L 254.528479 65.938143 
L 254.528479 67.049109 
L 254.528479 68.160076 
L 254.528479 69.271042 
L 254.528479 70.382009 
L 254.528479 71.492975 
L 254.528479 72.603942 
L 254.528479 73.714908 
L 254.528479 74.825875 
L 254.528479 75.936841 
L 254.528479 77.047808 
L 254.528479 78.158774 
L 254.528479 79.269741 
L 254.528479 80.380707 
L 254.528479 81.491674 
L 254.528479 82.60264 
L 254.528479 83.713607 
L 254.528479 84.824573 
L 254.528479 85.93554 
L 254.528479 87.046506 
L 254.528479 88.157473 
L 254.528479 89.26844 
L 254.528479 90.379406 
L 254.528479 91.490373 
L 254.528479 92.601339 
L 254.528479 93.712306 
L 254.528479 94.823272 
L 254.528479 95.934239 
L 254.528479 97.045205 
L 254.528479 98.156172 
L 254.528479 99.267138 
L 254.528479 100.378105 
L 254.528479 101.489071 
L 254.528479 102.600038 
L 254.528479 103.711004 
L 254.528479 104.821971 
L 254.528479 105.932937 
L 254.528479 107.043904 
L 254.528479 108.15487 
L 254.528479 109.265837 
L 254.528479 110.376803 
L 254.528479 111.48777 
L 254.528479 112.598737 
L 254.528479 113.709703 
L 254.528479 114.82067 
L 254.528479 115.931636 
L 254.528479 117.042603 
L 254.528479 118.153569 
L 254.528479 119.264536 
L 254.528479 120.375502 
L 254.528479 121.486469 
L 254.528479 122.597435 
L 254.528479 123.708402 
L 254.528479 124.819368 
L 254.528479 125.930335 
L 254.528479 127.041301 
L 254.528479 128.152268 
L 254.528479 129.263234 
L 254.528479 130.374201 
L 254.528479 131.485167 
L 254.528479 132.596134 
L 254.528479 133.7071 
L 254.528479 134.818067 
L 254.528479 135.929033 
L 254.528479 137.04 
L 254.528479 138.150967 
L 254.528479 139.261933 
L 254.528479 140.3729 
L 254.528479 141.483866 
L 254.528479 142.594833 
L 254.528479 143.705799 
L 254.528479 144.816766 
L 254.528479 145.927732 
L 254.528479 146.237877 
" style="fill:none;stroke:#7171ff;"/>
    <path clip-path="url(#pcfe3d04c67)" d="M 254.528479 170.058851 
L 254.528479 218.140556 
L 254.393038 218.201664 
L 247.80028 217.821543 
L 241.159723 217.02959 
L 233.680693 215.918623 
L 227.39407 214.807657 
L 221.429251 213.595041 
L 212.455678 211.474757 
L 204.26188 209.252824 
L 195.058222 206.453893 
L 186.738107 203.697991 
L 175.27995 199.592282 
L 168.473559 197.032192 
L 159.830269 193.699293 
L 140.484072 185.922527 
L 118.965419 177.034795 
L 100.368817 169.258029 
L 69.795833 156.388683 
L 69.795833 156.388683 
" style="fill:none;stroke:#7171ff;"/>
   </g>
   <g id="LineCollection_6">
    <path clip-path="url(#pcfe3d04c67)" d="M 264.364006 44.829779 
L 264.364006 45.940745 
L 264.364006 47.051712 
L 264.364006 48.162678 
L 264.364006 49.273645 
L 264.364006 50.384611 
L 264.364006 51.495578 
L 264.364006 52.606544 
L 264.364006 53.717511 
L 264.364006 54.828477 
L 264.364006 55.939444 
L 264.364006 57.05041 
L 264.364006 58.161377 
L 264.364006 59.272343 
L 264.364006 60.38331 
L 264.364006 61.494276 
L 264.364006 62.605243 
L 264.364006 63.71621 
L 264.364006 64.827176 
L 264.364006 65.938143 
L 264.364006 67.049109 
L 264.364006 68.160076 
L 264.364006 69.271042 
L 264.364006 70.382009 
L 264.364006 71.492975 
L 264.364006 72.603942 
L 264.364006 73.714908 
L 264.364006 74.825875 
L 264.364006 75.936841 
L 264.364006 77.047808 
L 264.364006 78.158774 
L 264.364006 79.269741 
L 264.364006 80.380707 
L 264.364006 81.491674 
L 264.364006 82.60264 
L 264.364006 83.713607 
L 264.364006 84.824573 
L 264.364006 85.93554 
L 264.364006 87.046506 
L 264.364006 88.157473 
L 264.364006 89.26844 
L 264.364006 90.379406 
L 264.364006 91.490373 
L 264.364006 92.601339 
L 264.364006 93.712306 
L 264.364006 94.823272 
L 264.364006 95.934239 
L 264.364006 97.045205 
L 264.364006 98.156172 
L 264.364006 99.267138 
L 264.364006 100.378105 
L 264.364006 100.68825 
" style="fill:none;stroke:#4d4dff;"/>
    <path clip-path="url(#pcfe3d04c67)" d="M 264.364006 124.509223 
L 264.364006 220.362489 
L 263.729034 221.473456 
L 260.985795 222.277235 
L 248.884962 221.473456 
L 247.80028 221.387651 
L 237.831943 220.362489 
L 229.537319 219.251523 
L 222.743648 218.140556 
L 216.879171 217.02959 
L 211.648913 215.918623 
L 202.512066 213.69669 
L 194.487067 211.474757 
L 187.162098 209.252824 
L 177.08808 205.919924 
L 161.797265 200.365092 
L 153.029872 197.032192 
L 130.819217 188.14446 
L 122.537891 184.719706 
L 114.635874 181.478661 
L 98.600389 174.812862 
L 89.574105 171.002952 
L 80.032377 167.036096 
L 69.795833 162.697442 
L 69.795833 162.697442 
" style="fill:none;stroke:#4d4dff;"/>
   </g>
   <g id="LineCollection_7">
    <path clip-path="url(#pcfe3d04c67)" d="M 273.8163 44.829779 
L 273.8163 45.940745 
L 273.8163 47.051712 
L 273.8163 48.162678 
L 273.8163 49.273645 
L 273.8163 50.384611 
L 273.8163 51.495578 
L 273.8163 52.606544 
L 273.8163 53.717511 
L 273.8163 54.828477 
L 273.8163 55.138622 
" style="fill:none;stroke:#2929ff;"/>
    <path clip-path="url(#pcfe3d04c67)" d="M 273.8163 78.959596 
L 273.809555 223.695389 
L 273.421021 224.806355 
L 267.578552 225.713705 
L 254.393038 225.284171 
L 241.207523 224.55164 
L 230.945511 223.695389 
L 228.022008 223.401609 
L 221.101075 222.584422 
L 213.325934 221.473456 
L 206.807051 220.362489 
L 196.006275 218.140556 
L 186.930409 215.918623 
L 178.906511 213.69669 
L 164.810417 209.252824 
L 146.16103 202.587025 
L 126.155036 194.810259 
L 72.24666 172.590929 
L 69.795833 171.510374 
L 69.795833 171.510374 
" style="fill:none;stroke:#2929ff;"/>
   </g>
   <g id="LineCollection_8">
    <path clip-path="url(#pcfe3d04c67)" d="M 290.262928 44.829779 
L 290.262928 45.940745 
L 290.262928 47.051712 
L 290.262928 48.162678 
L 290.262928 49.273645 
L 290.262928 50.384611 
L 290.262928 51.495578 
L 290.262928 52.606544 
L 290.262928 53.717511 
L 290.262928 54.828477 
L 290.262928 55.939444 
L 290.262928 57.05041 
L 290.262928 58.161377 
L 290.262928 59.272343 
L 290.262928 60.38331 
L 290.262928 61.494276 
L 290.262928 62.605243 
L 290.262928 63.71621 
L 290.262928 64.827176 
L 290.262928 65.938143 
L 290.262928 67.049109 
L 290.262928 68.160076 
L 290.262928 69.271042 
L 290.262928 70.382009 
L 290.262928 71.492975 
L 290.262928 72.603942 
L 290.262928 73.714908 
L 290.262928 74.825875 
L 290.262928 75.936841 
L 290.262928 77.047808 
L 290.262928 78.158774 
L 290.262928 79.269741 
L 290.262928 80.380707 
L 290.262928 81.491674 
L 290.262928 82.60264 
L 290.262928 83.713607 
L 290.262928 84.824573 
L 290.262928 85.93554 
L 290.262928 87.046506 
L 290.262928 88.157473 
L 290.262928 89.26844 
L 290.262928 90.379406 
L 290.262928 91.490373 
L 290.262928 92.601339 
L 290.262928 93.712306 
L 290.262928 94.823272 
L 290.262928 95.934239 
L 290.262928 97.045205 
L 290.262928 98.156172 
L 290.262928 99.267138 
L 290.262928 100.378105 
L 290.262928 101.489071 
L 290.262928 102.600038 
L 290.262928 103.711004 
L 290.262928 104.821971 
L 290.262928 105.932937 
L 290.262928 107.043904 
L 290.262928 108.15487 
L 290.262928 109.265837 
L 290.262928 110.376803 
L 290.262928 111.48777 
L 290.262928 112.598737 
L 290.262928 113.709703 
L 290.262928 114.82067 
L 290.262928 115.931636 
L 290.262928 117.042603 
L 290.262928 118.153569 
L 290.262928 119.264536 
L 290.262928 120.375502 
L 290.262928 121.486469 
L 290.262928 122.597435 
L 290.262928 123.708402 
L 290.262928 124.819368 
L 290.262928 125.930335 
L 290.262928 127.041301 
L 290.262928 128.152268 
L 290.262928 129.263234 
L 290.262928 130.374201 
L 290.262928 131.485167 
L 290.262928 132.596134 
L 290.262928 133.7071 
L 290.262928 134.818067 
L 290.262928 135.929033 
L 290.262928 137.04 
L 290.262928 138.150967 
L 290.262928 139.261933 
L 290.262928 140.3729 
L 290.262928 141.483866 
L 290.262928 142.594833 
L 290.262928 143.705799 
L 290.262928 144.816766 
L 290.262928 145.927732 
L 290.262928 146.237877 
" style="fill:none;stroke:#0505ff;"/>
    <path clip-path="url(#pcfe3d04c67)" d="M 290.262928 170.058851 
L 290.262928 170.368996 
L 290.262928 171.479962 
L 290.262928 172.590929 
L 290.262928 173.701895 
L 290.262928 174.812862 
L 290.262928 175.923828 
L 290.262928 177.034795 
L 290.262928 178.145761 
L 290.262928 179.256728 
L 290.262928 180.367694 
L 290.262928 181.478661 
L 290.262928 182.589627 
L 290.262928 183.700594 
L 290.262928 184.81156 
L 290.262928 185.922527 
L 290.262928 187.033494 
L 290.262928 188.14446 
L 290.262928 189.255427 
L 290.262928 190.366393 
L 290.262928 191.47736 
L 290.262928 192.588326 
L 290.262928 193.699293 
L 290.262928 194.810259 
L 290.262928 195.921226 
L 290.262928 197.032192 
L 290.262928 198.143159 
L 290.262928 199.254125 
L 290.262928 200.365092 
L 290.262928 201.476058 
L 290.262928 202.587025 
L 290.262928 203.697991 
L 290.262928 204.808958 
L 290.262928 205.919924 
L 290.262928 207.030891 
L 290.262928 208.141857 
L 290.262928 209.252824 
L 290.262928 210.36379 
L 290.262928 211.474757 
L 290.262928 212.585724 
L 290.262928 213.69669 
L 290.262928 214.807657 
L 290.262928 215.918623 
L 290.262928 217.02959 
L 290.262928 218.140556 
L 290.262928 219.251523 
L 290.262928 220.362489 
L 290.262928 221.473456 
L 290.262928 222.584422 
L 290.262928 223.695389 
L 290.262928 224.806355 
L 290.262928 225.917322 
L 290.262928 227.028288 
L 290.262928 228.139255 
L 287.356824 228.536833 
L 280.764067 228.827763 
L 274.17131 228.814435 
L 267.578552 228.794692 
L 260.985795 228.767056 
L 254.393038 228.729562 
L 247.80028 228.679697 
L 241.207523 228.614343 
L 234.614766 228.52895 
L 228.022008 228.417969 
L 221.429251 228.274835 
L 216.366235 228.139255 
L 214.836494 228.093528 
L 208.243736 227.87224 
L 201.650979 227.590577 
L 195.058222 227.230592 
L 191.807032 227.028288 
L 188.465464 226.791375 
L 181.872707 226.250907 
L 178.319071 225.917322 
L 175.27995 225.590879 
L 168.817438 224.806355 
L 168.687192 224.788217 
L 162.094435 223.851345 
L 161.044912 223.695389 
L 155.501678 222.746484 
L 154.559298 222.584422 
L 148.943093 221.473456 
L 148.90892 221.46593 
L 143.673598 220.362489 
L 142.316163 220.031138 
L 138.919842 219.251523 
L 135.723406 218.408053 
L 134.629145 218.140556 
L 130.473284 217.02959 
L 129.130648 216.629225 
L 126.519364 215.918623 
L 122.920341 214.807657 
L 122.537891 214.682966 
L 119.174471 213.69669 
L 115.945134 212.603349 
L 115.886994 212.585724 
L 112.334643 211.474757 
L 109.352377 210.402088 
L 109.232447 210.36379 
L 105.838367 209.252824 
L 102.881055 208.141857 
L 102.759619 208.095432 
L 99.607606 207.030891 
L 96.705197 205.919924 
L 96.166862 205.706557 
L 93.59062 204.808958 
L 90.696666 203.697991 
L 89.574105 203.241514 
L 87.733638 202.587025 
L 84.840954 201.476058 
L 82.981347 200.70252 
L 82.050237 200.365092 
L 79.098496 199.254125 
L 76.461916 198.143159 
L 76.38859 198.111834 
L 73.482963 197.032192 
L 70.78429 195.921226 
L 69.795833 195.495234 
" style="fill:none;stroke:#0505ff;"/>
   </g>
   <g id="line2d_21">
    <path clip-path="url(#pcfe3d04c67)" d="M 69.795833 155.926431 
L 76.38859 158.148364 
L 82.981347 160.370297 
L 89.574105 162.59223 
L 96.166862 164.814163 
L 102.759619 167.036096 
L 109.352377 169.258029 
L 115.945134 171.479962 
L 122.537891 173.701895 
L 129.130648 175.923828 
L 135.723406 178.145761 
L 142.316163 180.367694 
L 148.90892 182.589627 
L 155.501678 184.81156 
L 162.094435 187.033494 
L 168.687192 189.255427 
L 175.27995 191.47736 
L 181.872707 193.699293 
L 188.465464 195.921226 
L 195.058222 198.143159 
L 201.650979 200.365092 
L 208.243736 202.587025 
L 214.836494 204.808958 
L 221.429251 207.030891 
L 228.022008 209.252824 
L 234.614766 211.474757 
L 241.207523 213.69669 
L 247.80028 215.918623 
L 254.393038 218.140556 
L 260.985795 220.362489 
L 267.578552 222.584422 
L 274.17131 224.806355 
L 280.764067 227.028288 
L 287.356824 229.250221 
" style="fill:none;stroke:#e36f47;stroke-dasharray:22.2,9.6;stroke-dashoffset:0;stroke-width:6;"/>
   </g>
   <g id="patch_3">
    <path d="M 59.906697 234.782835 
L 59.906697 39.297165 
" style="fill:none;stroke:#000000;stroke-linecap:square;stroke-linejoin:miter;"/>
   </g>
   <g id="patch_4">
    <path d="M 59.906697 234.782835 
L 409.322835 234.782835 
" style="fill:none;stroke:#000000;stroke-linecap:square;stroke-linejoin:miter;"/>
   </g>
   <g id="text_13">
    <g clip-path="url(#pcfe3d04c67)">
     <!-- 0.333 -->
     <g style="fill:#dcdcff;" transform="translate(204.061057 52.735047)rotate(-270)scale(0.1 -0.1)">
      <defs>
       <path d="M 31.78125 66.40625 
Q 24.171875 66.40625 20.328125 58.90625 
Q 16.5 51.421875 16.5 36.375 
Q 16.5 21.390625 20.328125 13.890625 
Q 24.171875 6.390625 31.78125 6.390625 
Q 39.453125 6.390625 43.28125 13.890625 
Q 47.125 21.390625 47.125 36.375 
Q 47.125 51.421875 43.28125 58.90625 
Q 39.453125 66.40625 31.78125 66.40625 
z
M 31.78125 74.21875 
Q 44.046875 74.21875 50.515625 64.515625 
Q 56.984375 54.828125 56.984375 36.375 
Q 56.984375 17.96875 50.515625 8.265625 
Q 44.046875 -1.421875 31.78125 -1.421875 
Q 19.53125 -1.421875 13.0625 8.265625 
Q 6.59375 17.96875 6.59375 36.375 
Q 6.59375 54.828125 13.0625 64.515625 
Q 19.53125 74.21875 31.78125 74.21875 
z
" id="DejaVuSans-48"/>
       <path d="M 10.6875 12.40625 
L 21 12.40625 
L 21 0 
L 10.6875 0 
z
" id="DejaVuSans-46"/>
       <path d="M 40.578125 39.3125 
Q 47.65625 37.796875 51.625 33 
Q 55.609375 28.21875 55.609375 21.1875 
Q 55.609375 10.40625 48.1875 4.484375 
Q 40.765625 -1.421875 27.09375 -1.421875 
Q 22.515625 -1.421875 17.65625 -0.515625 
Q 12.796875 0.390625 7.625 2.203125 
L 7.625 11.71875 
Q 11.71875 9.328125 16.59375 8.109375 
Q 21.484375 6.890625 26.8125 6.890625 
Q 36.078125 6.890625 40.9375 10.546875 
Q 45.796875 14.203125 45.796875 21.1875 
Q 45.796875 27.640625 41.28125 31.265625 
Q 36.765625 34.90625 28.71875 34.90625 
L 20.21875 34.90625 
L 20.21875 43.015625 
L 29.109375 43.015625 
Q 36.375 43.015625 40.234375 45.921875 
Q 44.09375 48.828125 44.09375 54.296875 
Q 44.09375 59.90625 40.109375 62.90625 
Q 36.140625 65.921875 28.71875 65.921875 
Q 24.65625 65.921875 20.015625 65.03125 
Q 15.375 64.15625 9.8125 62.3125 
L 9.8125 71.09375 
Q 15.4375 72.65625 20.34375 73.4375 
Q 25.25 74.21875 29.59375 74.21875 
Q 40.828125 74.21875 47.359375 69.109375 
Q 53.90625 64.015625 53.90625 55.328125 
Q 53.90625 49.265625 50.4375 45.09375 
Q 46.96875 40.921875 40.578125 39.3125 
z
" id="DejaVuSans-51"/>
      </defs>
      <use xlink:href="#DejaVuSans-48"/>
      <use x="63.623047" xlink:href="#DejaVuSans-46"/>
      <use x="95.410156" xlink:href="#DejaVuSans-51"/>
      <use x="159.033203" xlink:href="#DejaVuSans-51"/>
      <use x="222.65625" xlink:href="#DejaVuSans-51"/>
     </g>
    </g>
   </g>
   <g id="text_14">
    <g clip-path="url(#pcfe3d04c67)">
     <!-- 0.366 -->
     <g style="fill:#b9b9ff;" transform="translate(226.007293 98.284674)rotate(-270)scale(0.1 -0.1)">
      <defs>
       <path d="M 33.015625 40.375 
Q 26.375 40.375 22.484375 35.828125 
Q 18.609375 31.296875 18.609375 23.390625 
Q 18.609375 15.53125 22.484375 10.953125 
Q 26.375 6.390625 33.015625 6.390625 
Q 39.65625 6.390625 43.53125 10.953125 
Q 47.40625 15.53125 47.40625 23.390625 
Q 47.40625 31.296875 43.53125 35.828125 
Q 39.65625 40.375 33.015625 40.375 
z
M 52.59375 71.296875 
L 52.59375 62.3125 
Q 48.875 64.0625 45.09375 64.984375 
Q 41.3125 65.921875 37.59375 65.921875 
Q 27.828125 65.921875 22.671875 59.328125 
Q 17.53125 52.734375 16.796875 39.40625 
Q 19.671875 43.65625 24.015625 45.921875 
Q 28.375 48.1875 33.59375 48.1875 
Q 44.578125 48.1875 50.953125 41.515625 
Q 57.328125 34.859375 57.328125 23.390625 
Q 57.328125 12.15625 50.6875 5.359375 
Q 44.046875 -1.421875 33.015625 -1.421875 
Q 20.359375 -1.421875 13.671875 8.265625 
Q 6.984375 17.96875 6.984375 36.375 
Q 6.984375 53.65625 15.1875 63.9375 
Q 23.390625 74.21875 37.203125 74.21875 
Q 40.921875 74.21875 44.703125 73.484375 
Q 48.484375 72.75 52.59375 71.296875 
z
" id="DejaVuSans-54"/>
      </defs>
      <use xlink:href="#DejaVuSans-48"/>
      <use x="63.623047" xlink:href="#DejaVuSans-46"/>
      <use x="95.410156" xlink:href="#DejaVuSans-51"/>
      <use x="159.033203" xlink:href="#DejaVuSans-54"/>
      <use x="222.65625" xlink:href="#DejaVuSans-54"/>
     </g>
    </g>
   </g>
   <g id="text_15">
    <g clip-path="url(#pcfe3d04c67)">
     <!-- 0.399 -->
     <g style="fill:#9595ff;" transform="translate(240.312477 52.735047)rotate(-270)scale(0.1 -0.1)">
      <defs>
       <path d="M 10.984375 1.515625 
L 10.984375 10.5 
Q 14.703125 8.734375 18.5 7.8125 
Q 22.3125 6.890625 25.984375 6.890625 
Q 35.75 6.890625 40.890625 13.453125 
Q 46.046875 20.015625 46.78125 33.40625 
Q 43.953125 29.203125 39.59375 26.953125 
Q 35.25 24.703125 29.984375 24.703125 
Q 19.046875 24.703125 12.671875 31.3125 
Q 6.296875 37.9375 6.296875 49.421875 
Q 6.296875 60.640625 12.9375 67.421875 
Q 19.578125 74.21875 30.609375 74.21875 
Q 43.265625 74.21875 49.921875 64.515625 
Q 56.59375 54.828125 56.59375 36.375 
Q 56.59375 19.140625 48.40625 8.859375 
Q 40.234375 -1.421875 26.421875 -1.421875 
Q 22.703125 -1.421875 18.890625 -0.6875 
Q 15.09375 0.046875 10.984375 1.515625 
z
M 30.609375 32.421875 
Q 37.25 32.421875 41.125 36.953125 
Q 45.015625 41.5 45.015625 49.421875 
Q 45.015625 57.28125 41.125 61.84375 
Q 37.25 66.40625 30.609375 66.40625 
Q 23.96875 66.40625 20.09375 61.84375 
Q 16.21875 57.28125 16.21875 49.421875 
Q 16.21875 41.5 20.09375 36.953125 
Q 23.96875 32.421875 30.609375 32.421875 
z
" id="DejaVuSans-57"/>
      </defs>
      <use xlink:href="#DejaVuSans-48"/>
      <use x="63.623047" xlink:href="#DejaVuSans-46"/>
      <use x="95.410156" xlink:href="#DejaVuSans-51"/>
      <use x="159.033203" xlink:href="#DejaVuSans-57"/>
      <use x="222.65625" xlink:href="#DejaVuSans-57"/>
     </g>
    </g>
   </g>
   <g id="text_16">
    <g clip-path="url(#pcfe3d04c67)">
     <!-- 0.431 -->
     <g style="fill:#7171ff;" transform="translate(251.769104 143.834301)rotate(-270)scale(0.1 -0.1)">
      <defs>
       <path d="M 37.796875 64.3125 
L 12.890625 25.390625 
L 37.796875 25.390625 
z
M 35.203125 72.90625 
L 47.609375 72.90625 
L 47.609375 25.390625 
L 58.015625 25.390625 
L 58.015625 17.1875 
L 47.609375 17.1875 
L 47.609375 0 
L 37.796875 0 
L 37.796875 17.1875 
L 4.890625 17.1875 
L 4.890625 26.703125 
z
" id="DejaVuSans-52"/>
       <path d="M 12.40625 8.296875 
L 28.515625 8.296875 
L 28.515625 63.921875 
L 10.984375 60.40625 
L 10.984375 69.390625 
L 28.421875 72.90625 
L 38.28125 72.90625 
L 38.28125 8.296875 
L 54.390625 8.296875 
L 54.390625 0 
L 12.40625 0 
z
" id="DejaVuSans-49"/>
      </defs>
      <use xlink:href="#DejaVuSans-48"/>
      <use x="63.623047" xlink:href="#DejaVuSans-46"/>
      <use x="95.410156" xlink:href="#DejaVuSans-52"/>
      <use x="159.033203" xlink:href="#DejaVuSans-51"/>
      <use x="222.65625" xlink:href="#DejaVuSans-49"/>
     </g>
    </g>
   </g>
   <g id="text_17">
    <g clip-path="url(#pcfe3d04c67)">
     <!-- 0.464 -->
     <g style="fill:#4d4dff;" transform="translate(261.604631 98.284674)rotate(-270)scale(0.1 -0.1)">
      <use xlink:href="#DejaVuSans-48"/>
      <use x="63.623047" xlink:href="#DejaVuSans-46"/>
      <use x="95.410156" xlink:href="#DejaVuSans-52"/>
      <use x="159.033203" xlink:href="#DejaVuSans-54"/>
      <use x="222.65625" xlink:href="#DejaVuSans-52"/>
     </g>
    </g>
   </g>
   <g id="text_18">
    <g clip-path="url(#pcfe3d04c67)">
     <!-- 0.497 -->
     <g style="fill:#2929ff;" transform="translate(271.056925 52.735047)rotate(-270)scale(0.1 -0.1)">
      <defs>
       <path d="M 8.203125 72.90625 
L 55.078125 72.90625 
L 55.078125 68.703125 
L 28.609375 0 
L 18.3125 0 
L 43.21875 64.59375 
L 8.203125 64.59375 
z
" id="DejaVuSans-55"/>
      </defs>
      <use xlink:href="#DejaVuSans-48"/>
      <use x="63.623047" xlink:href="#DejaVuSans-46"/>
      <use x="95.410156" xlink:href="#DejaVuSans-52"/>
      <use x="159.033203" xlink:href="#DejaVuSans-57"/>
      <use x="222.65625" xlink:href="#DejaVuSans-55"/>
     </g>
    </g>
   </g>
   <g id="text_19">
    <g clip-path="url(#pcfe3d04c67)">
     <!-- 0.530 -->
     <g style="fill:#0505ff;" transform="translate(287.503553 143.834301)rotate(-270)scale(0.1 -0.1)">
      <defs>
       <path d="M 10.796875 72.90625 
L 49.515625 72.90625 
L 49.515625 64.59375 
L 19.828125 64.59375 
L 19.828125 46.734375 
Q 21.96875 47.46875 24.109375 47.828125 
Q 26.265625 48.1875 28.421875 48.1875 
Q 40.625 48.1875 47.75 41.5 
Q 54.890625 34.8125 54.890625 23.390625 
Q 54.890625 11.625 47.5625 5.09375 
Q 40.234375 -1.421875 26.90625 -1.421875 
Q 22.3125 -1.421875 17.546875 -0.640625 
Q 12.796875 0.140625 7.71875 1.703125 
L 7.71875 11.625 
Q 12.109375 9.234375 16.796875 8.0625 
Q 21.484375 6.890625 26.703125 6.890625 
Q 35.15625 6.890625 40.078125 11.328125 
Q 45.015625 15.765625 45.015625 23.390625 
Q 45.015625 31 40.078125 35.4375 
Q 35.15625 39.890625 26.703125 39.890625 
Q 22.75 39.890625 18.8125 39.015625 
Q 14.890625 38.140625 10.796875 36.28125 
z
" id="DejaVuSans-53"/>
      </defs>
      <use xlink:href="#DejaVuSans-48"/>
      <use x="63.623047" xlink:href="#DejaVuSans-46"/>
      <use x="95.410156" xlink:href="#DejaVuSans-53"/>
      <use x="159.033203" xlink:href="#DejaVuSans-51"/>
      <use x="222.65625" xlink:href="#DejaVuSans-48"/>
     </g>
    </g>
   </g>
   <g id="text_20">
    <!-- Max(I) -->
    <g transform="translate(211.958516 33.297165)scale(0.16 -0.16)">
     <defs>
      <path d="M 1.125 1.8125 
Q 7.328125 2.4375 9.078125 4.609375 
Q 10.84375 6.78125 10.84375 14.703125 
L 10.84375 55.328125 
Q 10.84375 60.75 9.125 62.375 
Q 7.421875 64.015625 1.375 64.3125 
L 1.375 66.15625 
L 21.140625 66.15625 
L 44.28125 15.71875 
L 66.40625 66.15625 
L 86.328125 66.15625 
L 86.328125 64.3125 
Q 80.765625 63.921875 79.15625 62.28125 
Q 77.546875 60.640625 77.546875 55.328125 
L 77.546875 10.84375 
Q 77.546875 5.375 79.15625 3.828125 
Q 80.765625 2.296875 86.328125 1.8125 
L 86.328125 0 
L 58.296875 0 
L 58.296875 1.8125 
Q 64.359375 2.296875 65.84375 3.984375 
Q 67.328125 5.671875 67.328125 12.015625 
L 67.328125 56.9375 
L 41.75 0 
L 40.375 0 
L 15.234375 54.59375 
L 15.234375 14.703125 
Q 15.234375 6.5 17.625 4 
Q 19.1875 2.390625 24.609375 1.8125 
L 24.609375 0 
L 1.125 0 
z
" id="Times-Roman-77"/>
      <path d="M 28.65625 27.046875 
Q 23.046875 25.203125 19.390625 22.953125 
Q 12.359375 18.609375 12.359375 13.09375 
Q 12.359375 8.640625 15.28125 6.546875 
Q 17.1875 5.171875 19.53125 5.171875 
Q 22.75 5.171875 25.703125 6.984375 
Q 28.65625 8.796875 28.65625 11.578125 
z
M 3.65625 9.71875 
Q 3.65625 16.796875 10.75 21.53125 
Q 15.234375 24.46875 28.65625 29.5 
L 28.65625 33.640625 
Q 28.65625 38.625 27.6875 40.578125 
Q 26.03125 43.84375 20.796875 43.84375 
Q 18.3125 43.84375 16.0625 42.578125 
Q 13.8125 41.265625 13.8125 38.96875 
Q 13.8125 38.375 14.0625 36.984375 
Q 14.3125 35.59375 14.3125 35.203125 
Q 14.3125 32.46875 12.5 31.390625 
Q 11.46875 30.765625 10.0625 30.765625 
Q 7.859375 30.765625 6.6875 32.203125 
Q 5.515625 33.640625 5.515625 35.40625 
Q 5.515625 38.8125 9.734375 42.546875 
Q 13.96875 46.296875 22.125 46.296875 
Q 31.59375 46.296875 34.96875 40.140625 
Q 36.765625 36.765625 36.765625 30.328125 
L 36.765625 10.75 
Q 36.765625 7.90625 37.15625 6.84375 
Q 37.796875 4.9375 39.796875 4.9375 
Q 40.921875 4.9375 41.65625 5.265625 
Q 42.390625 5.609375 44.1875 6.9375 
L 44.1875 4.390625 
Q 42.625 2.484375 40.828125 1.265625 
Q 38.09375 -0.59375 35.25 -0.59375 
Q 31.9375 -0.59375 30.4375 1.5625 
Q 28.953125 3.71875 28.8125 6.6875 
Q 25.09375 3.46875 22.46875 1.90625 
Q 18.015625 -0.734375 14.015625 -0.734375 
Q 9.8125 -0.734375 6.734375 2.21875 
Q 3.65625 5.171875 3.65625 9.71875 
z
M 22.265625 46.296875 
z
" id="Times-Roman-97"/>
      <path d="M 23.140625 44.875 
L 23.140625 43.5 
Q 21.296875 43.453125 20 42.984375 
Q 18.703125 42.53125 18.703125 41.0625 
Q 18.703125 40.140625 21.296875 35.84375 
Q 22.65625 33.59375 24.75 30.328125 
Q 27.640625 34.28125 29.046875 36.53125 
Q 31.453125 40.140625 31.453125 41.21875 
Q 31.453125 42.484375 30.421875 42.921875 
Q 29.390625 43.359375 27.546875 43.5 
L 27.546875 44.875 
L 43.265625 44.875 
L 43.265625 43.5 
Q 40.765625 43.3125 38.609375 42.15625 
Q 36.46875 41.015625 35.15625 39.109375 
L 26.8125 27.046875 
L 39.703125 7.515625 
Q 42.1875 3.71875 43.921875 2.59375 
Q 45.65625 1.46875 47.90625 1.375 
L 47.90625 0 
L 27.734375 0 
L 27.734375 1.375 
L 29.15625 1.46875 
Q 30.28125 1.5625 31.03125 2.140625 
Q 31.78125 2.734375 31.78125 3.609375 
Q 31.78125 4.546875 29.9375 7.71875 
Q 29.046875 9.28125 27.296875 11.96875 
Q 26.46875 13.28125 24.828125 15.625 
Q 23.1875 17.96875 22.078125 19.625 
L 14.203125 7.375 
Q 12.796875 5.171875 12.453125 4.4375 
Q 12.109375 3.71875 12.109375 3.21875 
Q 12.109375 2.296875 12.859375 2 
Q 13.625 1.703125 16.15625 1.375 
L 16.15625 0 
L 1.703125 0 
L 1.703125 1.375 
Q 4.34375 1.90625 5.609375 2.734375 
Q 6.890625 3.5625 8.984375 6.59375 
L 20.359375 23.140625 
L 10.984375 37.359375 
Q 8.15625 41.609375 7.078125 42.390625 
Q 6 43.171875 2.390625 43.5 
L 2.390625 44.875 
z
" id="Times-Roman-120"/>
      <path d="M 4.59375 25.09375 
Q 4.59375 42.09375 14.75 54.9375 
Q 21 62.796875 29.5 67.578125 
L 30.421875 65.96875 
Q 22.5625 59.71875 19.1875 53.8125 
Q 13.28125 43.5 13.28125 26.375 
Q 13.28125 13.671875 15.53125 5.421875 
Q 19.484375 -9.03125 30.421875 -16.21875 
L 29.15625 -17.828125 
Q 23.140625 -14.9375 16.15625 -6.546875 
Q 4.59375 7.375 4.59375 25.09375 
z
" id="Times-Roman-40"/>
      <path d="M 1.609375 1.8125 
Q 7.71875 2.25 9.515625 3.640625 
Q 11.328125 5.03125 11.328125 10.84375 
L 11.328125 55.328125 
Q 11.328125 60.84375 9.515625 62.421875 
Q 7.71875 64.015625 1.609375 64.3125 
L 1.609375 66.15625 
L 31.203125 66.15625 
L 31.203125 64.3125 
Q 25.09375 64.015625 23.28125 62.421875 
Q 21.484375 60.84375 21.484375 55.328125 
L 21.484375 10.84375 
Q 21.484375 5.03125 23.28125 3.640625 
Q 25.09375 2.25 31.203125 1.8125 
L 31.203125 0 
L 1.609375 0 
z
M 16.40625 66.15625 
z
" id="Times-Roman-73"/>
      <path d="M 28.46875 24.609375 
Q 28.46875 17.328125 26.5625 10.828125 
Q 24.65625 4.34375 21 -1.421875 
Q 17.140625 -7.5625 10.6875 -12.890625 
Q 6.453125 -16.40625 3.5625 -17.828125 
L 2.640625 -16.21875 
Q 10.15625 -10.5 13.625 -4.546875 
Q 19.78125 6 19.78125 23.34375 
Q 19.78125 37.359375 16.9375 46.234375 
Q 12.984375 58.796875 2.640625 65.96875 
L 3.90625 67.578125 
Q 11.625 63.28125 18.265625 54.59375 
Q 28.46875 41.21875 28.46875 24.609375 
z
" id="Times-Roman-41"/>
     </defs>
     <use xlink:href="#Times-Roman-77"/>
     <use x="88.916016" xlink:href="#Times-Roman-97"/>
     <use x="133.300781" xlink:href="#Times-Roman-120"/>
     <use x="183.300781" xlink:href="#Times-Roman-40"/>
     <use x="216.601562" xlink:href="#Times-Roman-73"/>
     <use x="249.902344" xlink:href="#Times-Roman-41"/>
    </g>
   </g>
  </g>
 </g>
 <defs>
  <clipPath id="pcfe3d04c67">
   <rect height="195.485669" width="349.416138" x="59.906697" y="39.297165"/>
  </clipPath>
 </defs>
</svg>
