<?xml version="1.0" encoding="utf-8" standalone="no"?>
<!DOCTYPE svg PUBLIC "-//W3C//DTD SVG 1.1//EN"
  "http://www.w3.org/Graphics/SVG/1.1/DTD/svg11.dtd">
<!-- Created with matplotlib (https://matplotlib.org/) -->
<svg height="288pt" version="1.1" viewBox="0 0 432 288" width="432pt" xmlns="http://www.w3.org/2000/svg" xmlns:xlink="http://www.w3.org/1999/xlink">
 <metadata>
  <rdf:RDF xmlns:cc="http://creativecommons.org/ns#" xmlns:dc="http://purl.org/dc/elements/1.1/" xmlns:rdf="http://www.w3.org/1999/02/22-rdf-syntax-ns#">
   <cc:Work>
    <dc:type rdf:resource="http://purl.org/dc/dcmitype/StillImage"/>
    <dc:date>2021-03-01T12:11:48.098037</dc:date>
    <dc:format>image/svg+xml</dc:format>
    <dc:creator>
     <cc:Agent>
      <dc:title>Matplotlib v3.3.4, https://matplotlib.org/</dc:title>
     </cc:Agent>
    </dc:creator>
   </cc:Work>
  </rdf:RDF>
 </metadata>
 <defs>
  <style type="text/css">*{stroke-linecap:butt;stroke-linejoin:round;}</style>
 </defs>
 <g id="figure_1">
  <g id="patch_1">
   <path d="M 0 288 
L 432 288 
L 432 0 
L 0 0 
z
" style="fill:#ffffff;"/>
  </g>
  <g id="axes_1">
   <g id="patch_2">
    <path d="M 59.906697 235.502835 
L 409.322835 235.502835 
L 409.322835 39.297165 
L 59.906697 39.297165 
z
" style="fill:#ffffff;"/>
   </g>
   <g id="matplotlib.axis_1">
    <g id="xtick_1">
     <g id="line2d_1">
      <path clip-path="url(#p21477c69e1)" d="M 69.795833 235.502835 
L 69.795833 39.297165 
" style="fill:none;stroke:#000000;stroke-linecap:square;stroke-opacity:0.1;stroke-width:0.5;"/>
     </g>
     <g id="line2d_2">
      <defs>
       <path d="M 0 0 
L 0 -2.5 
" id="m5c2e0e1750" style="stroke:#000000;stroke-width:0.5;"/>
      </defs>
      <g>
       <use style="stroke:#000000;stroke-width:0.5;" x="69.795833" xlink:href="#m5c2e0e1750" y="235.502835"/>
      </g>
     </g>
     <g id="text_1">
      <!-- $\mathregular{0}$ -->
      <g transform="translate(66.795833 247.230335)scale(0.12 -0.12)">
       <defs>
        <path d="M 23.921875 1.8125 
Q 31.109375 1.8125 33.78125 9.671875 
Q 36.46875 17.53125 36.46875 32.421875 
Q 36.46875 44.28125 34.859375 51.375 
Q 31.84375 64.546875 23.53125 64.546875 
Q 15.234375 64.546875 12.15625 50.984375 
Q 10.546875 43.75 10.546875 31.9375 
Q 10.546875 20.84375 12.203125 14.203125 
Q 15.328125 1.8125 23.921875 1.8125 
z
M 23.78125 67.1875 
Q 35.015625 67.1875 41.21875 55.421875 
Q 46.140625 45.90625 46.140625 33.546875 
Q 46.140625 23.828125 43.109375 15.234375 
Q 37.40625 -0.921875 23.34375 -0.921875 
Q 13.71875 -0.921875 7.515625 7.8125 
Q 0.875 17.140625 0.875 33.15625 
Q 0.875 45.75 5.328125 54.828125 
Q 11.328125 67.1875 23.78125 67.1875 
z
" id="Times-Roman-48"/>
       </defs>
       <use transform="translate(0 0.8125)" xlink:href="#Times-Roman-48"/>
      </g>
     </g>
    </g>
    <g id="xtick_2">
     <g id="line2d_3">
      <path clip-path="url(#p21477c69e1)" d="M 179.675121 235.502835 
L 179.675121 39.297165 
" style="fill:none;stroke:#000000;stroke-linecap:square;stroke-opacity:0.1;stroke-width:0.5;"/>
     </g>
     <g id="line2d_4">
      <g>
       <use style="stroke:#000000;stroke-width:0.5;" x="179.675121" xlink:href="#m5c2e0e1750" y="235.502835"/>
      </g>
     </g>
     <g id="text_2">
      <!-- $\mathregular{10}$ -->
      <g transform="translate(173.675121 247.230335)scale(0.12 -0.12)">
       <defs>
        <path d="M 29.59375 67.09375 
Q 29.78125 66.84375 29.796875 66.71875 
Q 29.828125 66.609375 29.828125 66.15625 
L 29.828125 7.375 
Q 29.828125 3.609375 31.828125 2.578125 
Q 33.84375 1.5625 39.3125 1.375 
L 39.3125 0 
L 11.765625 0 
L 11.765625 1.46875 
Q 17.671875 1.765625 19.484375 3.078125 
Q 21.296875 4.390625 21.296875 8.796875 
L 21.296875 54 
Q 21.296875 56.34375 20.703125 57.5625 
Q 20.125 58.796875 18.171875 58.796875 
Q 16.890625 58.796875 14.859375 58.078125 
Q 12.84375 57.375 11.078125 56.59375 
L 11.078125 57.953125 
L 29 67.09375 
L 29.59375 67.09375 
z
" id="Times-Roman-49"/>
       </defs>
       <use transform="translate(0 0.8125)" xlink:href="#Times-Roman-49"/>
       <use transform="translate(50 0.8125)" xlink:href="#Times-Roman-48"/>
      </g>
     </g>
    </g>
    <g id="xtick_3">
     <g id="line2d_5">
      <path clip-path="url(#p21477c69e1)" d="M 289.55441 235.502835 
L 289.55441 39.297165 
" style="fill:none;stroke:#000000;stroke-linecap:square;stroke-opacity:0.1;stroke-width:0.5;"/>
     </g>
     <g id="line2d_6">
      <g>
       <use style="stroke:#000000;stroke-width:0.5;" x="289.55441" xlink:href="#m5c2e0e1750" y="235.502835"/>
      </g>
     </g>
     <g id="text_3">
      <!-- $\mathregular{20}$ -->
      <g transform="translate(283.55441 247.230335)scale(0.12 -0.12)">
       <defs>
        <path d="M 2.984375 1.125 
Q 20.84375 19.671875 27.234375 28.359375 
Q 33.640625 37.0625 33.640625 45.3125 
Q 33.640625 52.546875 29.734375 56.328125 
Q 25.828125 60.109375 20.40625 60.109375 
Q 13.71875 60.109375 9.578125 55.21875 
Q 7.28125 52.546875 5.171875 46.96875 
L 3.078125 47.40625 
Q 5.515625 58.640625 11.34375 63.015625 
Q 17.1875 67.390625 23.875 67.390625 
Q 32.125 67.390625 37.21875 62.1875 
Q 42.328125 56.984375 42.328125 49.46875 
Q 42.328125 41.453125 36.8125 34.03125 
Q 31.296875 26.609375 12.84375 7.625 
L 35.25 7.625 
Q 39.9375 7.625 41.84375 8.734375 
Q 43.75 9.859375 46.140625 14.203125 
L 47.40625 13.625 
L 42 0 
L 2.984375 0 
z
" id="Times-Roman-50"/>
       </defs>
       <use transform="translate(0 0.609375)" xlink:href="#Times-Roman-50"/>
       <use transform="translate(50 0.609375)" xlink:href="#Times-Roman-48"/>
      </g>
     </g>
    </g>
    <g id="xtick_4">
     <g id="line2d_7">
      <path clip-path="url(#p21477c69e1)" d="M 399.433699 235.502835 
L 399.433699 39.297165 
" style="fill:none;stroke:#000000;stroke-linecap:square;stroke-opacity:0.1;stroke-width:0.5;"/>
     </g>
     <g id="line2d_8">
      <g>
       <use style="stroke:#000000;stroke-width:0.5;" x="399.433699" xlink:href="#m5c2e0e1750" y="235.502835"/>
      </g>
     </g>
     <g id="text_4">
      <!-- $\mathregular{30}$ -->
      <g transform="translate(393.433699 247.230335)scale(0.12 -0.12)">
       <defs>
        <path d="M 7.765625 8.5 
Q 10.453125 8.5 14.859375 5.71875 
Q 19.28125 2.9375 22.359375 2.9375 
Q 29.203125 2.9375 32.515625 7.546875 
Q 35.84375 12.15625 35.84375 17.578125 
Q 35.84375 22.796875 33.15625 26.765625 
Q 28.609375 33.453125 17.828125 33.453125 
Q 17.1875 33.453125 16.59375 33.421875 
Q 16.015625 33.40625 15.234375 33.296875 
L 15.140625 34.578125 
Q 22.953125 37.40625 27.4375 41.0625 
Q 31.9375 44.734375 31.9375 50.734375 
Q 31.9375 56.0625 28.390625 58.84375 
Q 24.859375 61.625 20.3125 61.625 
Q 14.9375 61.625 10.84375 57.671875 
Q 8.59375 55.515625 6 51.03125 
L 4.5 51.375 
Q 6.453125 58.796875 11.765625 63.234375 
Q 17.09375 67.671875 24.078125 67.671875 
Q 31.546875 67.671875 35.625 63.5625 
Q 39.703125 59.46875 39.703125 54.109375 
Q 39.703125 49.359375 36.328125 45.40625 
Q 34.421875 43.171875 30.421875 40.375 
Q 35.109375 38.375 37.9375 35.6875 
Q 43.265625 30.5625 43.265625 22.703125 
Q 43.265625 13.421875 35.953125 6.34375 
Q 28.65625 -0.734375 15.1875 -0.734375 
Q 9.1875 -0.734375 6.765625 1.046875 
Q 4.34375 2.828125 4.34375 4.890625 
Q 4.34375 6.15625 5.140625 7.328125 
Q 5.953125 8.5 7.765625 8.5 
z
" id="Times-Roman-51"/>
       </defs>
       <use transform="translate(0 0.328125)" xlink:href="#Times-Roman-51"/>
       <use transform="translate(50 0.328125)" xlink:href="#Times-Roman-48"/>
      </g>
     </g>
    </g>
    <g id="text_5">
     <!-- SD Start Time ts [days] -->
     <g transform="translate(164.898516 262.96221)scale(0.12 -0.12)">
      <defs>
       <path d="M 53.515625 70.515625 
L 53.515625 60.890625 
Q 47.90625 63.578125 42.921875 64.890625 
Q 37.9375 66.21875 33.296875 66.21875 
Q 25.25 66.21875 20.875 63.09375 
Q 16.5 59.96875 16.5 54.203125 
Q 16.5 49.359375 19.40625 46.890625 
Q 22.3125 44.4375 30.421875 42.921875 
L 36.375 41.703125 
Q 47.40625 39.59375 52.65625 34.296875 
Q 57.90625 29 57.90625 20.125 
Q 57.90625 9.515625 50.796875 4.046875 
Q 43.703125 -1.421875 29.984375 -1.421875 
Q 24.8125 -1.421875 18.96875 -0.25 
Q 13.140625 0.921875 6.890625 3.21875 
L 6.890625 13.375 
Q 12.890625 10.015625 18.65625 8.296875 
Q 24.421875 6.59375 29.984375 6.59375 
Q 38.421875 6.59375 43.015625 9.90625 
Q 47.609375 13.234375 47.609375 19.390625 
Q 47.609375 24.75 44.3125 27.78125 
Q 41.015625 30.8125 33.5 32.328125 
L 27.484375 33.5 
Q 16.453125 35.6875 11.515625 40.375 
Q 6.59375 45.0625 6.59375 53.421875 
Q 6.59375 63.09375 13.40625 68.65625 
Q 20.21875 74.21875 32.171875 74.21875 
Q 37.3125 74.21875 42.625 73.28125 
Q 47.953125 72.359375 53.515625 70.515625 
z
" id="DejaVuSans-83"/>
       <path d="M 19.671875 64.796875 
L 19.671875 8.109375 
L 31.59375 8.109375 
Q 46.6875 8.109375 53.6875 14.9375 
Q 60.6875 21.78125 60.6875 36.53125 
Q 60.6875 51.171875 53.6875 57.984375 
Q 46.6875 64.796875 31.59375 64.796875 
z
M 9.8125 72.90625 
L 30.078125 72.90625 
Q 51.265625 72.90625 61.171875 64.09375 
Q 71.09375 55.28125 71.09375 36.53125 
Q 71.09375 17.671875 61.125 8.828125 
Q 51.171875 0 30.078125 0 
L 9.8125 0 
z
" id="DejaVuSans-68"/>
       <path id="DejaVuSans-32"/>
       <path d="M 18.3125 70.21875 
L 18.3125 54.6875 
L 36.8125 54.6875 
L 36.8125 47.703125 
L 18.3125 47.703125 
L 18.3125 18.015625 
Q 18.3125 11.328125 20.140625 9.421875 
Q 21.96875 7.515625 27.59375 7.515625 
L 36.8125 7.515625 
L 36.8125 0 
L 27.59375 0 
Q 17.1875 0 13.234375 3.875 
Q 9.28125 7.765625 9.28125 18.015625 
L 9.28125 47.703125 
L 2.6875 47.703125 
L 2.6875 54.6875 
L 9.28125 54.6875 
L 9.28125 70.21875 
z
" id="DejaVuSans-116"/>
       <path d="M 34.28125 27.484375 
Q 23.390625 27.484375 19.1875 25 
Q 14.984375 22.515625 14.984375 16.5 
Q 14.984375 11.71875 18.140625 8.90625 
Q 21.296875 6.109375 26.703125 6.109375 
Q 34.1875 6.109375 38.703125 11.40625 
Q 43.21875 16.703125 43.21875 25.484375 
L 43.21875 27.484375 
z
M 52.203125 31.203125 
L 52.203125 0 
L 43.21875 0 
L 43.21875 8.296875 
Q 40.140625 3.328125 35.546875 0.953125 
Q 30.953125 -1.421875 24.3125 -1.421875 
Q 15.921875 -1.421875 10.953125 3.296875 
Q 6 8.015625 6 15.921875 
Q 6 25.140625 12.171875 29.828125 
Q 18.359375 34.515625 30.609375 34.515625 
L 43.21875 34.515625 
L 43.21875 35.40625 
Q 43.21875 41.609375 39.140625 45 
Q 35.0625 48.390625 27.6875 48.390625 
Q 23 48.390625 18.546875 47.265625 
Q 14.109375 46.140625 10.015625 43.890625 
L 10.015625 52.203125 
Q 14.9375 54.109375 19.578125 55.046875 
Q 24.21875 56 28.609375 56 
Q 40.484375 56 46.34375 49.84375 
Q 52.203125 43.703125 52.203125 31.203125 
z
" id="DejaVuSans-97"/>
       <path d="M 41.109375 46.296875 
Q 39.59375 47.171875 37.8125 47.578125 
Q 36.03125 48 33.890625 48 
Q 26.265625 48 22.1875 43.046875 
Q 18.109375 38.09375 18.109375 28.8125 
L 18.109375 0 
L 9.078125 0 
L 9.078125 54.6875 
L 18.109375 54.6875 
L 18.109375 46.1875 
Q 20.953125 51.171875 25.484375 53.578125 
Q 30.03125 56 36.53125 56 
Q 37.453125 56 38.578125 55.875 
Q 39.703125 55.765625 41.0625 55.515625 
z
" id="DejaVuSans-114"/>
       <path d="M -0.296875 72.90625 
L 61.375 72.90625 
L 61.375 64.59375 
L 35.5 64.59375 
L 35.5 0 
L 25.59375 0 
L 25.59375 64.59375 
L -0.296875 64.59375 
z
" id="DejaVuSans-84"/>
       <path d="M 9.421875 54.6875 
L 18.40625 54.6875 
L 18.40625 0 
L 9.421875 0 
z
M 9.421875 75.984375 
L 18.40625 75.984375 
L 18.40625 64.59375 
L 9.421875 64.59375 
z
" id="DejaVuSans-105"/>
       <path d="M 52 44.1875 
Q 55.375 50.25 60.0625 53.125 
Q 64.75 56 71.09375 56 
Q 79.640625 56 84.28125 50.015625 
Q 88.921875 44.046875 88.921875 33.015625 
L 88.921875 0 
L 79.890625 0 
L 79.890625 32.71875 
Q 79.890625 40.578125 77.09375 44.375 
Q 74.3125 48.1875 68.609375 48.1875 
Q 61.625 48.1875 57.5625 43.546875 
Q 53.515625 38.921875 53.515625 30.90625 
L 53.515625 0 
L 44.484375 0 
L 44.484375 32.71875 
Q 44.484375 40.625 41.703125 44.40625 
Q 38.921875 48.1875 33.109375 48.1875 
Q 26.21875 48.1875 22.15625 43.53125 
Q 18.109375 38.875 18.109375 30.90625 
L 18.109375 0 
L 9.078125 0 
L 9.078125 54.6875 
L 18.109375 54.6875 
L 18.109375 46.1875 
Q 21.1875 51.21875 25.484375 53.609375 
Q 29.78125 56 35.6875 56 
Q 41.65625 56 45.828125 52.96875 
Q 50 49.953125 52 44.1875 
z
" id="DejaVuSans-109"/>
       <path d="M 56.203125 29.59375 
L 56.203125 25.203125 
L 14.890625 25.203125 
Q 15.484375 15.921875 20.484375 11.0625 
Q 25.484375 6.203125 34.421875 6.203125 
Q 39.59375 6.203125 44.453125 7.46875 
Q 49.3125 8.734375 54.109375 11.28125 
L 54.109375 2.78125 
Q 49.265625 0.734375 44.1875 -0.34375 
Q 39.109375 -1.421875 33.890625 -1.421875 
Q 20.796875 -1.421875 13.15625 6.1875 
Q 5.515625 13.8125 5.515625 26.8125 
Q 5.515625 40.234375 12.765625 48.109375 
Q 20.015625 56 32.328125 56 
Q 43.359375 56 49.78125 48.890625 
Q 56.203125 41.796875 56.203125 29.59375 
z
M 47.21875 32.234375 
Q 47.125 39.59375 43.09375 43.984375 
Q 39.0625 48.390625 32.421875 48.390625 
Q 24.90625 48.390625 20.390625 44.140625 
Q 15.875 39.890625 15.1875 32.171875 
z
" id="DejaVuSans-101"/>
       <path d="M 44.28125 53.078125 
L 44.28125 44.578125 
Q 40.484375 46.53125 36.375 47.5 
Q 32.28125 48.484375 27.875 48.484375 
Q 21.1875 48.484375 17.84375 46.4375 
Q 14.5 44.390625 14.5 40.28125 
Q 14.5 37.15625 16.890625 35.375 
Q 19.28125 33.59375 26.515625 31.984375 
L 29.59375 31.296875 
Q 39.15625 29.25 43.1875 25.515625 
Q 47.21875 21.78125 47.21875 15.09375 
Q 47.21875 7.46875 41.1875 3.015625 
Q 35.15625 -1.421875 24.609375 -1.421875 
Q 20.21875 -1.421875 15.453125 -0.5625 
Q 10.6875 0.296875 5.421875 2 
L 5.421875 11.28125 
Q 10.40625 8.6875 15.234375 7.390625 
Q 20.0625 6.109375 24.8125 6.109375 
Q 31.15625 6.109375 34.5625 8.28125 
Q 37.984375 10.453125 37.984375 14.40625 
Q 37.984375 18.0625 35.515625 20.015625 
Q 33.0625 21.96875 24.703125 23.78125 
L 21.578125 24.515625 
Q 13.234375 26.265625 9.515625 29.90625 
Q 5.8125 33.546875 5.8125 39.890625 
Q 5.8125 47.609375 11.28125 51.796875 
Q 16.75 56 26.8125 56 
Q 31.78125 56 36.171875 55.265625 
Q 40.578125 54.546875 44.28125 53.078125 
z
" id="DejaVuSans-115"/>
       <path d="M 8.59375 75.984375 
L 29.296875 75.984375 
L 29.296875 69 
L 17.578125 69 
L 17.578125 -6.203125 
L 29.296875 -6.203125 
L 29.296875 -13.1875 
L 8.59375 -13.1875 
z
" id="DejaVuSans-91"/>
       <path d="M 45.40625 46.390625 
L 45.40625 75.984375 
L 54.390625 75.984375 
L 54.390625 0 
L 45.40625 0 
L 45.40625 8.203125 
Q 42.578125 3.328125 38.25 0.953125 
Q 33.9375 -1.421875 27.875 -1.421875 
Q 17.96875 -1.421875 11.734375 6.484375 
Q 5.515625 14.40625 5.515625 27.296875 
Q 5.515625 40.1875 11.734375 48.09375 
Q 17.96875 56 27.875 56 
Q 33.9375 56 38.25 53.625 
Q 42.578125 51.265625 45.40625 46.390625 
z
M 14.796875 27.296875 
Q 14.796875 17.390625 18.875 11.75 
Q 22.953125 6.109375 30.078125 6.109375 
Q 37.203125 6.109375 41.296875 11.75 
Q 45.40625 17.390625 45.40625 27.296875 
Q 45.40625 37.203125 41.296875 42.84375 
Q 37.203125 48.484375 30.078125 48.484375 
Q 22.953125 48.484375 18.875 42.84375 
Q 14.796875 37.203125 14.796875 27.296875 
z
" id="DejaVuSans-100"/>
       <path d="M 32.171875 -5.078125 
Q 28.375 -14.84375 24.75 -17.8125 
Q 21.140625 -20.796875 15.09375 -20.796875 
L 7.90625 -20.796875 
L 7.90625 -13.28125 
L 13.1875 -13.28125 
Q 16.890625 -13.28125 18.9375 -11.515625 
Q 21 -9.765625 23.484375 -3.21875 
L 25.09375 0.875 
L 2.984375 54.6875 
L 12.5 54.6875 
L 29.59375 11.921875 
L 46.6875 54.6875 
L 56.203125 54.6875 
z
" id="DejaVuSans-121"/>
       <path d="M 30.421875 75.984375 
L 30.421875 -13.1875 
L 9.71875 -13.1875 
L 9.71875 -6.203125 
L 21.390625 -6.203125 
L 21.390625 69 
L 9.71875 69 
L 9.71875 75.984375 
z
" id="DejaVuSans-93"/>
      </defs>
      <use xlink:href="#DejaVuSans-83"/>
      <use x="63.476562" xlink:href="#DejaVuSans-68"/>
      <use x="140.478516" xlink:href="#DejaVuSans-32"/>
      <use x="172.265625" xlink:href="#DejaVuSans-83"/>
      <use x="235.742188" xlink:href="#DejaVuSans-116"/>
      <use x="274.951172" xlink:href="#DejaVuSans-97"/>
      <use x="336.230469" xlink:href="#DejaVuSans-114"/>
      <use x="377.34375" xlink:href="#DejaVuSans-116"/>
      <use x="416.552734" xlink:href="#DejaVuSans-32"/>
      <use x="448.339844" xlink:href="#DejaVuSans-84"/>
      <use x="506.298828" xlink:href="#DejaVuSans-105"/>
      <use x="534.082031" xlink:href="#DejaVuSans-109"/>
      <use x="631.494141" xlink:href="#DejaVuSans-101"/>
      <use x="693.017578" xlink:href="#DejaVuSans-32"/>
      <use x="724.804688" xlink:href="#DejaVuSans-116"/>
      <use x="764.013672" xlink:href="#DejaVuSans-115"/>
      <use x="816.113281" xlink:href="#DejaVuSans-32"/>
      <use x="847.900391" xlink:href="#DejaVuSans-91"/>
      <use x="886.914062" xlink:href="#DejaVuSans-100"/>
      <use x="950.390625" xlink:href="#DejaVuSans-97"/>
      <use x="1011.669922" xlink:href="#DejaVuSans-121"/>
      <use x="1070.849609" xlink:href="#DejaVuSans-115"/>
      <use x="1122.949219" xlink:href="#DejaVuSans-93"/>
     </g>
    </g>
   </g>
   <g id="matplotlib.axis_2">
    <g id="ytick_1">
     <g id="line2d_9">
      <path clip-path="url(#p21477c69e1)" d="M 59.906697 229.949844 
L 409.322835 229.949844 
" style="fill:none;stroke:#000000;stroke-linecap:square;stroke-opacity:0.1;stroke-width:0.5;"/>
     </g>
     <g id="line2d_10">
      <defs>
       <path d="M 0 0 
L 2.5 0 
" id="meb0e151164" style="stroke:#000000;stroke-width:0.5;"/>
      </defs>
      <g>
       <use style="stroke:#000000;stroke-width:0.5;" x="59.906697" xlink:href="#meb0e151164" y="229.949844"/>
      </g>
     </g>
     <g id="text_6">
      <!-- $\mathregular{0}$ -->
      <g transform="translate(50.406697 234.063594)scale(0.12 -0.12)">
       <use transform="translate(0 0.8125)" xlink:href="#Times-Roman-48"/>
      </g>
     </g>
    </g>
    <g id="ytick_2">
     <g id="line2d_11">
      <path clip-path="url(#p21477c69e1)" d="M 59.906697 183.674922 
L 409.322835 183.674922 
" style="fill:none;stroke:#000000;stroke-linecap:square;stroke-opacity:0.1;stroke-width:0.5;"/>
     </g>
     <g id="line2d_12">
      <g>
       <use style="stroke:#000000;stroke-width:0.5;" x="59.906697" xlink:href="#meb0e151164" y="183.674922"/>
      </g>
     </g>
     <g id="text_7">
      <!-- $\mathregular{25}$ -->
      <g transform="translate(44.406697 187.788672)scale(0.12 -0.12)">
       <defs>
        <path d="M 7.46875 8.9375 
Q 10.25 8.9375 14.765625 5.78125 
Q 19.28125 2.640625 21.734375 2.640625 
Q 27.34375 2.640625 31.546875 7.59375 
Q 35.75 12.546875 35.75 19.78125 
Q 35.75 32.421875 22.265625 37.984375 
Q 14.796875 41.0625 8.34375 41.0625 
Q 7.28125 41.0625 7 41.140625 
Q 6.734375 41.21875 6.34375 41.65625 
Q 6.453125 42.046875 6.515625 42.3125 
Q 6.59375 42.578125 6.6875 42.828125 
L 17.328125 66.15625 
L 38.28125 66.15625 
Q 39.84375 66.15625 40.6875 66.6875 
Q 41.546875 67.234375 42.921875 68.703125 
L 43.703125 68.015625 
L 39.890625 58.984375 
Q 39.703125 58.546875 38.8125 58.421875 
Q 37.9375 58.296875 36.921875 58.296875 
L 18.015625 58.296875 
L 13.875 49.75 
Q 21.875 48.390625 25.59375 47.171875 
Q 31.6875 45.125 35.796875 41.109375 
Q 39.3125 37.640625 41.109375 33.3125 
Q 42.921875 29 42.921875 24.171875 
Q 42.921875 13.375 35.234375 6.140625 
Q 27.546875 -1.078125 15.765625 -1.078125 
Q 10.984375 -1.078125 8.0625 -0.140625 
Q 3.171875 1.375 3.171875 5.28125 
Q 3.171875 6.734375 4.21875 7.828125 
Q 5.28125 8.9375 7.46875 8.9375 
z
" id="Times-Roman-53"/>
       </defs>
       <use transform="translate(0 0.296875)" xlink:href="#Times-Roman-50"/>
       <use transform="translate(50 0.296875)" xlink:href="#Times-Roman-53"/>
      </g>
     </g>
    </g>
    <g id="ytick_3">
     <g id="line2d_13">
      <path clip-path="url(#p21477c69e1)" d="M 59.906697 137.4 
L 409.322835 137.4 
" style="fill:none;stroke:#000000;stroke-linecap:square;stroke-opacity:0.1;stroke-width:0.5;"/>
     </g>
     <g id="line2d_14">
      <g>
       <use style="stroke:#000000;stroke-width:0.5;" x="59.906697" xlink:href="#meb0e151164" y="137.4"/>
      </g>
     </g>
     <g id="text_8">
      <!-- $\mathregular{50}$ -->
      <g transform="translate(44.406697 141.51375)scale(0.12 -0.12)">
       <use transform="translate(0 0.296875)" xlink:href="#Times-Roman-53"/>
       <use transform="translate(50 0.296875)" xlink:href="#Times-Roman-48"/>
      </g>
     </g>
    </g>
    <g id="ytick_4">
     <g id="line2d_15">
      <path clip-path="url(#p21477c69e1)" d="M 59.906697 91.125078 
L 409.322835 91.125078 
" style="fill:none;stroke:#000000;stroke-linecap:square;stroke-opacity:0.1;stroke-width:0.5;"/>
     </g>
     <g id="line2d_16">
      <g>
       <use style="stroke:#000000;stroke-width:0.5;" x="59.906697" xlink:href="#meb0e151164" y="91.125078"/>
      </g>
     </g>
     <g id="text_9">
      <!-- $\mathregular{75}$ -->
      <g transform="translate(44.406697 95.238828)scale(0.12 -0.12)">
       <defs>
        <path d="M 44.875 66.15625 
L 44.875 64.546875 
L 23.6875 -0.921875 
L 17.234375 -0.921875 
L 37.015625 58.796875 
L 15.71875 58.796875 
Q 10.984375 58.796875 8.90625 57.234375 
Q 6.84375 55.671875 3.65625 50.6875 
L 1.953125 51.46875 
Q 5.125 59.28125 5.875 61.109375 
Q 6.640625 62.9375 7.859375 66.15625 
z
" id="Times-Roman-55"/>
       </defs>
       <use transform="translate(0 0.296875)" xlink:href="#Times-Roman-55"/>
       <use transform="translate(50 0.296875)" xlink:href="#Times-Roman-53"/>
      </g>
     </g>
    </g>
    <g id="ytick_5">
     <g id="line2d_17">
      <path clip-path="url(#p21477c69e1)" d="M 59.906697 44.850156 
L 409.322835 44.850156 
" style="fill:none;stroke:#000000;stroke-linecap:square;stroke-opacity:0.1;stroke-width:0.5;"/>
     </g>
     <g id="line2d_18">
      <g>
       <use style="stroke:#000000;stroke-width:0.5;" x="59.906697" xlink:href="#meb0e151164" y="44.850156"/>
      </g>
     </g>
     <g id="text_10">
      <!-- $\mathregular{100}$ -->
      <g transform="translate(38.406697 48.963906)scale(0.12 -0.12)">
       <use transform="translate(0 0.8125)" xlink:href="#Times-Roman-49"/>
       <use transform="translate(50 0.8125)" xlink:href="#Times-Roman-48"/>
       <use transform="translate(100 0.8125)" xlink:href="#Times-Roman-48"/>
      </g>
     </g>
    </g>
    <g id="text_11">
     <!-- SD Duration td [days] -->
     <g transform="translate(31.911072 202.614375)rotate(-90)scale(0.12 -0.12)">
      <defs>
       <path d="M 8.5 21.578125 
L 8.5 54.6875 
L 17.484375 54.6875 
L 17.484375 21.921875 
Q 17.484375 14.15625 20.5 10.265625 
Q 23.53125 6.390625 29.59375 6.390625 
Q 36.859375 6.390625 41.078125 11.03125 
Q 45.3125 15.671875 45.3125 23.6875 
L 45.3125 54.6875 
L 54.296875 54.6875 
L 54.296875 0 
L 45.3125 0 
L 45.3125 8.40625 
Q 42.046875 3.421875 37.71875 1 
Q 33.40625 -1.421875 27.6875 -1.421875 
Q 18.265625 -1.421875 13.375 4.4375 
Q 8.5 10.296875 8.5 21.578125 
z
M 31.109375 56 
z
" id="DejaVuSans-117"/>
       <path d="M 30.609375 48.390625 
Q 23.390625 48.390625 19.1875 42.75 
Q 14.984375 37.109375 14.984375 27.296875 
Q 14.984375 17.484375 19.15625 11.84375 
Q 23.34375 6.203125 30.609375 6.203125 
Q 37.796875 6.203125 41.984375 11.859375 
Q 46.1875 17.53125 46.1875 27.296875 
Q 46.1875 37.015625 41.984375 42.703125 
Q 37.796875 48.390625 30.609375 48.390625 
z
M 30.609375 56 
Q 42.328125 56 49.015625 48.375 
Q 55.71875 40.765625 55.71875 27.296875 
Q 55.71875 13.875 49.015625 6.21875 
Q 42.328125 -1.421875 30.609375 -1.421875 
Q 18.84375 -1.421875 12.171875 6.21875 
Q 5.515625 13.875 5.515625 27.296875 
Q 5.515625 40.765625 12.171875 48.375 
Q 18.84375 56 30.609375 56 
z
" id="DejaVuSans-111"/>
       <path d="M 54.890625 33.015625 
L 54.890625 0 
L 45.90625 0 
L 45.90625 32.71875 
Q 45.90625 40.484375 42.875 44.328125 
Q 39.84375 48.1875 33.796875 48.1875 
Q 26.515625 48.1875 22.3125 43.546875 
Q 18.109375 38.921875 18.109375 30.90625 
L 18.109375 0 
L 9.078125 0 
L 9.078125 54.6875 
L 18.109375 54.6875 
L 18.109375 46.1875 
Q 21.34375 51.125 25.703125 53.5625 
Q 30.078125 56 35.796875 56 
Q 45.21875 56 50.046875 50.171875 
Q 54.890625 44.34375 54.890625 33.015625 
z
" id="DejaVuSans-110"/>
      </defs>
      <use xlink:href="#DejaVuSans-83"/>
      <use x="63.476562" xlink:href="#DejaVuSans-68"/>
      <use x="140.478516" xlink:href="#DejaVuSans-32"/>
      <use x="172.265625" xlink:href="#DejaVuSans-68"/>
      <use x="249.267578" xlink:href="#DejaVuSans-117"/>
      <use x="312.646484" xlink:href="#DejaVuSans-114"/>
      <use x="353.759766" xlink:href="#DejaVuSans-97"/>
      <use x="415.039062" xlink:href="#DejaVuSans-116"/>
      <use x="454.248047" xlink:href="#DejaVuSans-105"/>
      <use x="482.03125" xlink:href="#DejaVuSans-111"/>
      <use x="543.212891" xlink:href="#DejaVuSans-110"/>
      <use x="606.591797" xlink:href="#DejaVuSans-32"/>
      <use x="638.378906" xlink:href="#DejaVuSans-116"/>
      <use x="677.587891" xlink:href="#DejaVuSans-100"/>
      <use x="741.064453" xlink:href="#DejaVuSans-32"/>
      <use x="772.851562" xlink:href="#DejaVuSans-91"/>
      <use x="811.865234" xlink:href="#DejaVuSans-100"/>
      <use x="875.341797" xlink:href="#DejaVuSans-97"/>
      <use x="936.621094" xlink:href="#DejaVuSans-121"/>
      <use x="995.800781" xlink:href="#DejaVuSans-115"/>
      <use x="1047.900391" xlink:href="#DejaVuSans-93"/>
     </g>
    </g>
   </g>
   <g id="LineCollection_1"/>
   <g id="LineCollection_2">
    <path clip-path="url(#p21477c69e1)" d="M 206.481488 44.850156 
L 206.481488 46.701153 
L 206.481488 48.55215 
L 206.481488 50.403147 
L 206.481488 52.254144 
L 206.481488 54.10514 
L 206.481488 55.956137 
L 206.481488 57.807134 
L 206.481488 59.658131 
L 206.481488 61.509128 
L 206.481488 63.360125 
L 206.481488 65.211122 
L 206.481488 67.062119 
L 206.481488 68.913115 
L 206.481488 69.915739 
" style="fill:none;stroke:#dcdcff;"/>
    <path clip-path="url(#p21477c69e1)" d="M 206.481488 93.824448 
L 206.481488 94.827072 
L 206.481488 96.678069 
L 206.481488 98.529066 
L 206.481488 100.380062 
L 206.481488 102.231059 
L 206.481488 104.082056 
L 206.481488 105.933053 
L 206.481488 107.78405 
L 206.481488 109.635047 
L 206.481488 111.486044 
L 206.481488 113.337041 
L 206.481488 115.188037 
L 206.481488 117.039034 
L 206.481488 118.890031 
L 206.481488 120.741028 
L 206.481488 122.592025 
L 206.481488 124.443022 
L 206.481488 126.294019 
L 206.481488 128.145016 
L 206.481488 129.996012 
L 206.481488 131.847009 
L 206.481488 133.698006 
L 206.481488 135.549003 
L 206.481488 137.4 
L 206.481488 139.250997 
L 206.481488 141.101994 
L 206.481488 142.952991 
L 206.481488 144.803988 
L 206.481488 146.654984 
L 206.481488 148.505981 
L 206.481488 150.356978 
L 206.481488 152.207975 
L 206.481488 154.058972 
L 206.481488 155.909969 
L 206.481488 157.760966 
L 206.481488 159.611963 
L 206.481488 161.462959 
L 206.481488 163.313956 
L 206.481488 165.164953 
L 206.481488 167.01595 
L 206.481488 168.866947 
L 206.481488 170.717944 
L 206.481488 172.568941 
L 206.481488 174.419938 
L 206.481488 176.270934 
L 206.481488 178.121931 
L 206.481488 179.972928 
L 206.481488 181.823925 
L 206.481488 183.674922 
L 206.481488 185.525919 
L 206.481488 187.376916 
L 206.481488 189.227913 
L 206.481488 191.07891 
L 206.481488 192.929906 
L 206.481488 194.780903 
L 201.650979 195.560985 
L 199.488399 194.780903 
L 197.432702 192.929906 
L 190.66305 191.714293 
L 188.976961 191.07891 
L 184.673686 189.227913 
L 179.675121 187.55785 
L 179.214798 187.376916 
L 174.544972 185.525919 
L 170.180829 183.674922 
L 168.687192 183.216688 
L 165.26206 181.823925 
L 160.709196 179.972928 
L 157.699264 178.758713 
L 156.155391 178.121931 
L 151.685841 176.270934 
L 147.21544 174.419938 
L 146.711335 174.229342 
L 142.741521 172.568941 
L 138.301242 170.717944 
L 135.723406 169.652509 
L 133.85172 168.866947 
L 129.45073 167.01595 
L 125.004475 165.164953 
L 124.735477 165.053411 
L 120.61639 163.313956 
L 116.212401 161.462959 
L 113.747548 160.43649 
L 111.793577 159.611963 
L 107.414595 157.760966 
L 102.987927 155.909969 
L 102.759619 155.814916 
L 98.613013 154.058972 
L 94.219993 152.207975 
L 91.77169 151.185972 
L 89.810283 150.356978 
L 85.436256 148.505981 
L 81.0141 146.654984 
L 80.783761 146.558978 
L 76.641845 144.803988 
L 72.249768 142.952991 
L 69.795833 141.928648 
" style="fill:none;stroke:#dcdcff;"/>
   </g>
   <g id="LineCollection_3">
    <path clip-path="url(#p21477c69e1)" d="M 228.472418 44.850156 
L 228.472418 46.701153 
L 228.472418 48.55215 
L 228.472418 50.403147 
L 228.472418 52.254144 
L 228.472418 54.10514 
L 228.472418 55.956137 
L 228.472418 57.807134 
L 228.472418 59.658131 
L 228.472418 61.509128 
L 228.472418 63.360125 
L 228.472418 65.211122 
L 228.472418 67.062119 
L 228.472418 68.913115 
L 228.472418 70.764112 
L 228.472418 72.615109 
L 228.472418 74.466106 
L 228.472418 76.317103 
L 228.472418 78.1681 
L 228.472418 80.019097 
L 228.472418 81.870094 
L 228.472418 83.72109 
L 228.472418 85.572087 
L 228.472418 87.423084 
L 228.472418 89.274081 
L 228.472418 91.125078 
L 228.472418 92.976075 
L 228.472418 94.827072 
L 228.472418 96.678069 
L 228.472418 98.529066 
L 228.472418 100.380062 
L 228.472418 102.231059 
L 228.472418 104.082056 
L 228.472418 105.933053 
L 228.472418 107.78405 
L 228.472418 109.635047 
L 228.472418 111.486044 
L 228.472418 113.337041 
L 228.472418 115.188037 
L 228.472418 117.039034 
L 228.472418 118.890031 
L 228.472418 120.741028 
L 228.472418 122.592025 
L 228.472418 124.443022 
L 228.472418 126.294019 
L 228.472418 128.145016 
L 228.472418 129.996012 
L 228.472418 131.847009 
L 228.472418 133.698006 
L 228.472418 135.549003 
L 228.472418 137.4 
L 228.472418 139.250997 
L 228.472418 141.101994 
L 228.472418 142.952991 
L 228.472418 144.803988 
L 228.472418 145.806611 
" style="fill:none;stroke:#b9b9ff;"/>
    <path clip-path="url(#p21477c69e1)" d="M 228.472418 169.715321 
L 228.472418 170.717944 
L 228.472418 172.568941 
L 228.472418 174.419938 
L 228.472418 176.270934 
L 228.472418 178.121931 
L 228.472418 179.972928 
L 228.472418 181.823925 
L 228.472418 183.674922 
L 228.472418 185.525919 
L 228.472418 187.376916 
L 228.472418 189.227913 
L 228.472418 191.07891 
L 228.472418 192.929906 
L 228.472418 194.780903 
L 228.472418 196.6319 
L 228.472418 198.482897 
L 228.472418 200.333894 
L 228.472418 202.184891 
L 228.472418 204.035888 
L 226.763113 205.886885 
L 223.626837 206.506373 
L 221.261543 205.886885 
L 215.624808 204.035888 
L 212.638908 203.562258 
L 208.152531 202.184891 
L 202.259376 200.333894 
L 201.650979 200.140954 
L 196.803971 198.482897 
L 191.502554 196.6319 
L 190.66305 196.336975 
L 186.427945 194.780903 
L 181.483313 192.929906 
L 179.675121 192.249727 
L 176.631966 191.07891 
L 171.900243 189.227913 
L 168.687192 187.963471 
L 167.205789 187.376916 
L 162.591588 185.525919 
L 158.023352 183.674922 
L 157.699264 183.543737 
L 153.46707 181.823925 
L 148.973368 179.972928 
L 146.711335 179.040608 
L 144.470638 178.121931 
L 140.009654 176.270934 
L 135.723406 174.482597 
L 135.571261 174.419938 
L 131.108867 172.568941 
L 126.698818 170.717944 
L 124.735477 169.895172 
L 122.258918 168.866947 
L 117.849626 167.01595 
L 113.747548 165.287447 
L 113.452398 165.164953 
L 109.022988 163.313956 
L 104.639335 161.462959 
L 102.759619 160.671139 
L 100.219333 159.611963 
L 95.827672 157.760966 
L 91.77169 156.04639 
L 91.443836 155.909969 
L 87.024316 154.058972 
L 82.648622 152.207975 
L 80.783761 151.42107 
L 78.234831 150.356978 
L 73.844952 148.505981 
L 69.795833 146.793178 
" style="fill:none;stroke:#b9b9ff;"/>
   </g>
   <g id="LineCollection_4">
    <path clip-path="url(#p21477c69e1)" d="M 242.951862 44.850156 
L 242.951862 46.701153 
L 242.951862 48.55215 
L 242.951862 50.403147 
L 242.951862 52.254144 
L 242.951862 54.10514 
L 242.951862 55.956137 
L 242.951862 57.807134 
L 242.951862 59.658131 
L 242.951862 61.509128 
L 242.951862 63.360125 
L 242.951862 65.211122 
L 242.951862 67.062119 
L 242.951862 68.913115 
L 242.951862 69.915739 
" style="fill:none;stroke:#9595ff;"/>
    <path clip-path="url(#p21477c69e1)" d="M 242.951862 93.824448 
L 242.951862 94.827072 
L 242.951862 96.678069 
L 242.951862 98.529066 
L 242.951862 100.380062 
L 242.951862 102.231059 
L 242.951862 104.082056 
L 242.951862 105.933053 
L 242.951862 107.78405 
L 242.951862 109.635047 
L 242.951862 111.486044 
L 242.951862 113.337041 
L 242.951862 115.188037 
L 242.951862 117.039034 
L 242.951862 118.890031 
L 242.951862 120.741028 
L 242.951862 122.592025 
L 242.951862 124.443022 
L 242.951862 126.294019 
L 242.951862 128.145016 
L 242.951862 129.996012 
L 242.951862 131.847009 
L 242.951862 133.698006 
L 242.951862 135.549003 
L 242.951862 137.4 
L 242.951862 139.250997 
L 242.951862 141.101994 
L 242.951862 142.952991 
L 242.951862 144.803988 
L 242.951862 146.654984 
L 242.951862 148.505981 
L 242.951862 150.356978 
L 242.951862 152.207975 
L 242.951862 154.058972 
L 242.951862 155.909969 
L 242.951862 157.760966 
L 242.951862 159.611963 
L 242.951862 161.462959 
L 242.951862 163.313956 
L 242.951862 165.164953 
L 242.951862 167.01595 
L 242.951862 168.866947 
L 242.951862 170.717944 
L 242.951862 172.568941 
L 242.951862 174.419938 
L 242.951862 176.270934 
L 242.951862 178.121931 
L 242.951862 179.972928 
L 242.951862 181.823925 
L 242.951862 183.674922 
L 242.951862 185.525919 
L 242.951862 187.376916 
L 242.951862 189.227913 
L 242.951862 191.07891 
L 242.951862 192.929906 
L 242.951862 194.780903 
L 242.951862 196.6319 
L 242.951862 198.482897 
L 242.951862 200.333894 
L 242.951862 202.184891 
L 242.951862 204.035888 
L 242.951862 205.886885 
L 242.951862 207.737881 
L 242.951862 209.588878 
L 241.742012 211.439875 
L 234.614766 212.896565 
L 227.367159 211.439875 
L 223.626837 210.655346 
L 219.283279 209.588878 
L 212.638908 207.874605 
L 212.155495 207.737881 
L 205.831816 205.886885 
L 201.650979 204.608998 
L 199.863516 204.035888 
L 194.289506 202.184891 
L 190.66305 200.938917 
L 188.929035 200.333894 
L 183.78106 198.482897 
L 179.675121 196.956104 
L 178.795823 196.6319 
L 173.883397 194.780903 
L 169.151123 192.929906 
L 168.687192 192.747634 
L 164.375746 191.07891 
L 159.76362 189.227913 
L 157.699264 188.38951 
L 155.135454 187.376916 
L 150.571162 185.525919 
L 146.711335 183.923034 
L 146.090564 183.674922 
L 141.521063 181.823925 
L 137.096051 179.972928 
L 135.723406 179.396211 
L 132.5828 178.121931 
L 128.142528 176.270934 
L 124.735477 174.82546 
L 123.738199 174.419938 
L 119.25085 172.568941 
L 114.892028 170.717944 
L 113.747548 170.231258 
L 110.417347 168.866947 
L 106.019377 167.01595 
L 102.759619 165.622662 
L 101.641298 165.164953 
L 97.182629 163.313956 
L 92.845511 161.462959 
L 91.77169 161.004383 
L 88.385446 159.611963 
L 84.001672 157.760966 
L 80.783761 156.382189 
L 79.632314 155.909969 
L 75.182175 154.058972 
L 70.851011 152.207975 
L 69.795833 151.756915 
" style="fill:none;stroke:#9595ff;"/>
   </g>
   <g id="LineCollection_5">
    <path clip-path="url(#p21477c69e1)" d="M 254.402741 44.850156 
L 254.402741 46.701153 
L 254.402741 48.55215 
L 254.402741 50.403147 
L 254.402741 52.254144 
L 254.402741 54.10514 
L 254.402741 55.956137 
L 254.402741 57.807134 
L 254.402741 59.658131 
L 254.402741 61.509128 
L 254.402741 63.360125 
L 254.402741 65.211122 
L 254.402741 67.062119 
L 254.402741 68.913115 
L 254.402741 70.764112 
L 254.402741 72.615109 
L 254.402741 74.466106 
L 254.402741 76.317103 
L 254.402741 78.1681 
L 254.402741 80.019097 
L 254.402741 81.870094 
L 254.402741 83.72109 
L 254.402741 85.572087 
L 254.402741 87.423084 
L 254.402741 89.274081 
L 254.402741 91.125078 
L 254.402741 92.976075 
L 254.402741 94.827072 
L 254.402741 96.678069 
L 254.402741 98.529066 
L 254.402741 100.380062 
L 254.402741 102.231059 
L 254.402741 104.082056 
L 254.402741 105.933053 
L 254.402741 107.78405 
L 254.402741 109.635047 
L 254.402741 111.486044 
L 254.402741 113.337041 
L 254.402741 115.188037 
L 254.402741 117.039034 
L 254.402741 118.890031 
L 254.402741 120.741028 
L 254.402741 122.592025 
L 254.402741 124.443022 
L 254.402741 126.294019 
L 254.402741 128.145016 
L 254.402741 129.996012 
L 254.402741 131.847009 
L 254.402741 133.698006 
L 254.402741 135.549003 
L 254.402741 137.4 
L 254.402741 139.250997 
L 254.402741 141.101994 
L 254.402741 142.952991 
L 254.402741 144.803988 
L 254.402741 146.654984 
L 254.402741 148.505981 
L 254.402741 150.356978 
L 254.402741 152.207975 
L 254.402741 154.058972 
L 254.402741 155.909969 
L 254.402741 157.760966 
L 254.402741 159.611963 
L 254.402741 161.462959 
L 254.402741 163.313956 
L 254.402741 165.164953 
L 254.402741 167.01595 
L 254.402741 168.866947 
L 254.402741 170.717944 
L 254.402741 172.568941 
L 254.402741 174.419938 
L 254.402741 176.270934 
L 254.402741 178.121931 
L 254.402741 179.972928 
L 254.402741 181.823925 
L 254.402741 183.674922 
L 254.402741 185.525919 
L 254.402741 187.376916 
L 254.402741 189.227913 
L 254.402741 191.07891 
L 254.402741 192.929906 
L 254.402741 194.780903 
L 254.402741 196.6319 
L 254.402741 198.482897 
L 254.402741 200.333894 
L 254.402741 202.184891 
L 254.402741 204.035888 
L 254.402741 205.886885 
L 254.402741 207.737881 
L 254.402741 209.588878 
L 254.402741 211.439875 
L 254.402741 213.290872 
L 254.402741 215.141869 
L 252.634015 216.992866 
L 245.602694 218.280079 
L 236.104198 216.992866 
L 234.614766 216.778781 
L 225.565143 215.141869 
L 223.626837 214.767374 
L 217.028213 213.290872 
L 216.526931 213.170065 
" style="fill:none;stroke:#7171ff;"/>
    <path clip-path="url(#p21477c69e1)" d="M 189.695378 205.404237 
L 185.584262 204.035888 
L 180.427533 202.184891 
L 179.675121 201.909409 
L 175.240478 200.333894 
L 170.363068 198.482897 
L 168.687192 197.830686 
L 165.452629 196.6319 
L 160.710026 194.780903 
L 157.699264 193.559612 
L 156.045597 192.929906 
L 151.340108 191.07891 
L 146.895206 189.227913 
L 146.711335 189.151269 
L 142.181534 187.376916 
L 137.726596 185.525919 
L 135.723406 184.67579 
L 133.190764 183.674922 
L 128.681774 181.823925 
L 124.735477 180.128075 
L 124.344567 179.972928 
L 119.742136 178.121931 
L 115.392501 176.270934 
L 113.747548 175.561156 
L 110.899935 174.419938 
L 106.462461 172.568941 
L 102.759619 170.960171 
L 102.155292 170.717944 
L 97.603074 168.866947 
L 93.29014 167.01595 
L 91.77169 166.356415 
L 88.815994 165.164953 
L 84.40396 163.313956 
L 80.783761 161.735265 
L 80.106608 161.462959 
L 75.571793 159.611963 
L 71.272051 157.760966 
L 69.795833 157.118651 
" style="fill:none;stroke:#7171ff;"/>
   </g>
   <g id="LineCollection_6">
    <path clip-path="url(#p21477c69e1)" d="M 264.290349 44.850156 
L 264.290349 46.701153 
L 264.290349 48.55215 
L 264.290349 50.403147 
L 264.290349 52.254144 
L 264.290349 54.10514 
L 264.290349 55.956137 
L 264.290349 57.807134 
L 264.290349 59.658131 
L 264.290349 61.509128 
L 264.290349 63.360125 
L 264.290349 65.211122 
L 264.290349 67.062119 
L 264.290349 68.913115 
L 264.290349 70.764112 
L 264.290349 72.615109 
L 264.290349 74.466106 
L 264.290349 76.317103 
L 264.290349 78.1681 
L 264.290349 80.019097 
L 264.290349 81.870094 
L 264.290349 83.72109 
L 264.290349 85.572087 
L 264.290349 87.423084 
L 264.290349 89.274081 
L 264.290349 91.125078 
L 264.290349 92.976075 
L 264.290349 94.827072 
L 264.290349 96.678069 
L 264.290349 98.529066 
L 264.290349 100.380062 
L 264.290349 102.231059 
L 264.290349 104.082056 
L 264.290349 105.933053 
L 264.290349 107.78405 
L 264.290349 109.635047 
L 264.290349 111.486044 
L 264.290349 113.337041 
L 264.290349 115.188037 
L 264.290349 117.039034 
L 264.290349 118.890031 
L 264.290349 120.741028 
L 264.290349 122.592025 
L 264.290349 124.443022 
L 264.290349 126.294019 
L 264.290349 128.145016 
L 264.290349 129.996012 
L 264.290349 131.847009 
L 264.290349 133.698006 
L 264.290349 135.549003 
L 264.290349 137.4 
L 264.290349 139.250997 
L 264.290349 141.101994 
L 264.290349 142.952991 
L 264.290349 144.803988 
L 264.290349 145.806611 
" style="fill:none;stroke:#4d4dff;"/>
    <path clip-path="url(#p21477c69e1)" d="M 264.290349 169.715321 
L 264.290349 170.717944 
L 264.290349 172.568941 
L 264.290349 174.419938 
L 264.290349 176.270934 
L 264.290349 178.121931 
L 264.290349 179.972928 
L 264.290349 181.823925 
L 264.290349 183.674922 
L 264.290349 185.525919 
L 264.290349 187.376916 
L 264.290349 189.227913 
L 264.290349 191.07891 
L 264.290349 192.929906 
L 264.290349 194.780903 
L 264.290349 196.6319 
L 264.290349 198.482897 
L 264.290349 200.333894 
L 264.290349 202.184891 
L 264.290349 204.035888 
L 264.290349 205.886885 
L 264.290349 207.737881 
L 264.290349 209.588878 
L 264.290349 211.439875 
L 264.290349 213.290872 
L 264.290349 215.141869 
L 264.290349 216.992866 
L 264.290349 218.843863 
L 263.598044 220.69486 
L 258.138724 222.545856 
L 256.590623 222.733713 
L 253.987556 222.545856 
L 245.602694 221.894247 
L 234.809016 220.69486 
L 234.614766 220.671415 
L 223.626837 219.00323 
L 222.729511 218.843863 
L 213.348306 216.992866 
L 212.638908 216.839678 
L 205.335068 215.141869 
L 201.650979 214.183025 
L 198.268811 213.290872 
L 191.942186 211.439875 
L 190.66305 211.042361 
L 185.844733 209.588878 
L 180.363779 207.737881 
L 179.675121 207.496772 
L 174.7918 205.886885 
L 169.746768 204.035888 
L 168.687192 203.633694 
L 164.544364 202.184891 
L 159.708733 200.333894 
L 157.699264 199.528237 
L 154.824036 198.482897 
L 150.056897 196.6319 
L 146.711335 195.239672 
L 145.480719 194.780903 
L 140.687766 192.929906 
L 136.307534 191.07891 
L 135.723406 190.829481 
L 131.543598 189.227913 
L 127.090557 187.376916 
L 124.735477 186.3543 
L 122.591616 185.525919 
L 118.018087 183.674922 
L 113.801656 181.823925 
L 113.747548 181.800243 
L 109.079178 179.972928 
L 104.742172 178.121931 
L 102.759619 177.246972 
L 100.269665 176.270934 
L 95.780088 174.419938 
L 91.77169 172.638851 
L 91.593372 172.568941 
L 86.91941 170.717944 
L 82.62591 168.866947 
L 80.783761 168.048686 
L 78.164029 167.01595 
L 73.705408 165.164953 
L 69.795833 163.420989 
" style="fill:none;stroke:#4d4dff;"/>
   </g>
   <g id="LineCollection_7">
    <path clip-path="url(#p21477c69e1)" d="M 274.350946 44.850156 
L 274.350946 46.701153 
L 274.350946 48.55215 
L 274.350946 50.403147 
L 274.350946 52.254144 
L 274.350946 54.10514 
L 274.350946 55.956137 
L 274.350946 57.807134 
L 274.350946 59.658131 
L 274.350946 61.509128 
L 274.350946 63.360125 
L 274.350946 65.211122 
L 274.350946 67.062119 
L 274.350946 68.913115 
L 274.350946 69.915739 
" style="fill:none;stroke:#2929ff;"/>
    <path clip-path="url(#p21477c69e1)" d="M 274.350946 93.824448 
L 274.350946 94.827072 
L 274.350946 96.678069 
L 274.350946 98.529066 
L 274.350946 100.380062 
L 274.350946 102.231059 
L 274.350946 104.082056 
L 274.350946 105.933053 
L 274.350946 107.78405 
L 274.350946 109.635047 
L 274.350946 111.486044 
L 274.350946 113.337041 
L 274.350946 115.188037 
L 274.350946 117.039034 
L 274.350946 118.890031 
L 274.350946 120.741028 
L 274.350946 122.592025 
L 274.350946 124.443022 
L 274.350946 126.294019 
L 274.350946 128.145016 
L 274.350946 129.996012 
L 274.350946 131.847009 
L 274.350946 133.698006 
L 274.350946 135.549003 
L 274.350946 137.4 
L 274.350946 139.250997 
L 274.350946 141.101994 
L 274.350946 142.952991 
L 274.350946 144.803988 
L 274.350946 146.654984 
L 274.350946 148.505981 
L 274.350946 150.356978 
L 274.350946 152.207975 
L 274.350946 154.058972 
L 274.350946 155.909969 
L 274.350946 157.760966 
L 274.350946 159.611963 
L 274.350946 161.462959 
L 274.350946 163.313956 
L 274.350946 165.164953 
L 274.350946 167.01595 
L 274.350946 168.866947 
L 274.350946 170.717944 
L 274.350946 172.568941 
L 274.350946 174.419938 
L 274.350946 176.270934 
L 274.350946 178.121931 
L 274.350946 179.972928 
L 274.350946 181.823925 
L 274.350946 183.674922 
L 274.350946 185.525919 
L 274.350946 187.376916 
L 274.350946 189.227913 
L 274.350946 191.07891 
L 274.350946 192.929906 
L 274.350946 194.780903 
L 274.350946 196.6319 
L 274.350946 198.482897 
L 274.350946 200.333894 
L 274.350946 202.184891 
L 274.350946 204.035888 
L 274.350946 205.886885 
L 274.350946 207.737881 
L 274.350946 209.588878 
L 274.350946 211.439875 
L 274.350946 213.290872 
L 274.350946 215.141869 
L 274.350946 216.992866 
L 274.350946 218.843863 
L 274.350946 220.69486 
L 274.350946 222.545856 
L 274.299362 224.396853 
L 268.856307 226.24785 
L 267.578552 226.414233 
L 261.985926 226.24785 
L 256.590623 226.074544 
L 245.602694 225.540567 
L 234.614766 224.741746 
L 230.939232 224.396853 
L 223.626837 223.614528 
L 215.686607 222.545856 
L 212.638908 222.072557 
L 204.722454 220.69486 
L 201.650979 220.071713 
L 195.787792 218.843863 
L 190.66305 217.57836 
L 188.219119 216.992866 
L 181.424199 215.141869 
L 179.675121 214.610085 
L 174.977113 213.290872 
L 169.346176 211.439875 
L 168.687192 211.210599 
L 163.478017 209.588878 
L 158.393928 207.737881 
L 157.699264 207.473583 
L 152.939118 205.886885 
L 148.101776 204.035888 
L 146.711335 203.473857 
L 143.015802 202.184891 
L 138.24778 200.333894 
L 135.723406 199.269841 
L 133.534626 198.482897 
L 128.717407 196.6319 
L 124.735477 194.904703 
L 124.397932 194.780903 
L 119.451124 192.929906 
L 115.101862 191.07891 
L 113.747548 190.47895 
L 110.411954 189.227913 
L 105.897245 187.376916 
L 102.759619 185.968324 
L 101.588839 185.525919 
L 96.860059 183.674922 
L 92.669558 181.823925 
L 91.77169 181.417831 
L 87.988828 179.972928 
L 83.589121 178.121931 
L 80.783761 176.845146 
L 79.281771 176.270934 
L 74.639108 174.419938 
L 70.509107 172.568941 
L 69.795833 172.243747 
" style="fill:none;stroke:#2929ff;"/>
   </g>
   <g id="LineCollection_8">
    <path clip-path="url(#p21477c69e1)" d="M 289.749883 44.850156 
L 289.749883 46.701153 
L 289.749883 48.55215 
L 289.749883 50.403147 
L 289.749883 52.254144 
L 289.749883 54.10514 
L 289.749883 55.956137 
L 289.749883 57.807134 
L 289.749883 59.658131 
L 289.749883 61.509128 
L 289.749883 63.360125 
L 289.749883 65.211122 
L 289.749883 67.062119 
L 289.749883 68.913115 
L 289.749883 70.764112 
L 289.749883 72.615109 
L 289.749883 74.466106 
L 289.749883 76.317103 
L 289.749883 78.1681 
L 289.749883 80.019097 
L 289.749883 81.870094 
L 289.749883 83.72109 
L 289.749883 85.572087 
L 289.749883 87.423084 
L 289.749883 89.274081 
L 289.749883 91.125078 
L 289.749883 92.976075 
L 289.749883 94.827072 
L 289.749883 96.678069 
L 289.749883 98.529066 
L 289.749883 100.380062 
L 289.749883 102.231059 
L 289.749883 104.082056 
L 289.749883 105.933053 
L 289.749883 107.78405 
L 289.749883 109.635047 
L 289.749883 111.486044 
L 289.749883 113.337041 
L 289.749883 115.188037 
L 289.749883 117.039034 
L 289.749883 118.890031 
L 289.749883 120.741028 
L 289.749883 122.592025 
L 289.749883 124.443022 
L 289.749883 126.294019 
L 289.749883 128.145016 
L 289.749883 129.996012 
L 289.749883 131.847009 
L 289.749883 133.698006 
L 289.749883 135.549003 
L 289.749883 137.4 
L 289.749883 139.250997 
L 289.749883 141.101994 
L 289.749883 142.952991 
L 289.749883 144.803988 
L 289.749883 146.654984 
L 289.749883 148.505981 
L 289.749883 150.356978 
L 289.749883 152.207975 
L 289.749883 154.058972 
L 289.749883 155.909969 
L 289.749883 157.760966 
L 289.749883 159.611963 
L 289.749883 161.462959 
L 289.749883 163.313956 
L 289.749883 165.164953 
L 289.749883 167.01595 
L 289.749883 168.866947 
L 289.749883 170.717944 
L 289.749883 172.568941 
L 289.749883 174.419938 
L 289.749883 176.270934 
L 289.749883 178.121931 
L 289.749883 179.972928 
L 289.749883 181.823925 
L 289.749883 183.674922 
L 289.749883 185.525919 
L 289.749883 187.376916 
L 289.749883 189.227913 
L 289.749883 191.07891 
L 289.749883 192.929906 
L 289.749883 194.780903 
L 289.749883 196.6319 
L 289.749883 198.482897 
L 289.749883 200.333894 
L 289.749883 202.184891 
L 289.749883 204.035888 
L 289.749883 205.886885 
L 289.749883 207.737881 
L 289.749883 209.588878 
L 289.749883 211.439875 
L 289.749883 213.290872 
L 289.749883 215.141869 
L 289.749883 216.992866 
L 289.749883 218.843863 
L 289.749883 220.69486 
L 289.749883 222.545856 
L 289.749883 224.396853 
L 289.749883 226.24785 
L 289.749883 228.098847 
L 289.55441 228.131776 
L 281.735684 229.121093 
" style="fill:none;stroke:#0505ff;"/>
    <path clip-path="url(#p21477c69e1)" d="M 253.386087 229.421791 
L 245.602694 229.364827 
L 234.614766 229.238486 
L 223.626837 229.043543 
L 212.638908 228.744989 
L 201.650979 228.290823 
L 197.772532 228.098847 
L 190.66305 227.663608 
L 179.675121 226.761642 
L 174.504558 226.24785 
L 168.687192 225.522456 
L 160.719452 224.396853 
L 157.699264 223.858432 
L 150.297434 222.545856 
L 146.711335 221.741365 
L 141.68977 220.69486 
L 135.723406 219.121394 
L 134.537713 218.843863 
L 127.553249 216.992866 
L 124.735477 216.081426 
L 121.308153 215.141869 
L 115.575616 213.290872 
L 113.747548 212.619018 
L 109.855268 211.439875 
L 104.635399 209.588878 
L 102.759619 208.839884 
L 99.363648 207.737881 
L 94.350416 205.886885 
L 91.77169 204.801498 
L 89.505616 204.035888 
L 84.501828 202.184891 
L 80.783761 200.562001 
L 80.129468 200.333894 
L 74.999687 198.482897 
L 70.707018 196.6319 
L 69.795833 196.219339 
" style="fill:none;stroke:#0505ff;"/>
   </g>
   <g id="line2d_19">
    <path clip-path="url(#p21477c69e1)" d="M 69.795833 155.909969 
L 80.783761 159.611963 
L 91.77169 163.313956 
L 102.759619 167.01595 
L 113.747548 170.717944 
L 124.735477 174.419938 
L 135.723406 178.121931 
L 146.711335 181.823925 
L 157.699264 185.525919 
L 168.687192 189.227913 
L 179.675121 192.929906 
L 190.66305 196.6319 
L 201.650979 200.333894 
L 212.638908 204.035888 
L 223.626837 207.737881 
L 234.614766 211.439875 
L 245.602694 215.141869 
L 256.590623 218.843863 
L 267.578552 222.545856 
L 278.566481 226.24785 
L 289.55441 229.949844 
" style="fill:none;stroke:#e36f47;stroke-dasharray:22.2,9.6;stroke-dashoffset:0;stroke-width:6;"/>
   </g>
   <g id="patch_3">
    <path d="M 59.906697 235.502835 
L 59.906697 39.297165 
" style="fill:none;stroke:#000000;stroke-linecap:square;stroke-linejoin:miter;"/>
   </g>
   <g id="patch_4">
    <path d="M 59.906697 235.502835 
L 409.322835 235.502835 
" style="fill:none;stroke:#000000;stroke-linecap:square;stroke-linejoin:miter;"/>
   </g>
   <g id="text_12">
    <g clip-path="url(#p21477c69e1)">
     <!-- 0.333 -->
     <g style="fill:#dcdcff;" transform="translate(203.722113 67.556031)rotate(-270)scale(0.1 -0.1)">
      <defs>
       <path d="M 31.78125 66.40625 
Q 24.171875 66.40625 20.328125 58.90625 
Q 16.5 51.421875 16.5 36.375 
Q 16.5 21.390625 20.328125 13.890625 
Q 24.171875 6.390625 31.78125 6.390625 
Q 39.453125 6.390625 43.28125 13.890625 
Q 47.125 21.390625 47.125 36.375 
Q 47.125 51.421875 43.28125 58.90625 
Q 39.453125 66.40625 31.78125 66.40625 
z
M 31.78125 74.21875 
Q 44.046875 74.21875 50.515625 64.515625 
Q 56.984375 54.828125 56.984375 36.375 
Q 56.984375 17.96875 50.515625 8.265625 
Q 44.046875 -1.421875 31.78125 -1.421875 
Q 19.53125 -1.421875 13.0625 8.265625 
Q 6.59375 17.96875 6.59375 36.375 
Q 6.59375 54.828125 13.0625 64.515625 
Q 19.53125 74.21875 31.78125 74.21875 
z
" id="DejaVuSans-48"/>
       <path d="M 10.6875 12.40625 
L 21 12.40625 
L 21 0 
L 10.6875 0 
z
" id="DejaVuSans-46"/>
       <path d="M 40.578125 39.3125 
Q 47.65625 37.796875 51.625 33 
Q 55.609375 28.21875 55.609375 21.1875 
Q 55.609375 10.40625 48.1875 4.484375 
Q 40.765625 -1.421875 27.09375 -1.421875 
Q 22.515625 -1.421875 17.65625 -0.515625 
Q 12.796875 0.390625 7.625 2.203125 
L 7.625 11.71875 
Q 11.71875 9.328125 16.59375 8.109375 
Q 21.484375 6.890625 26.8125 6.890625 
Q 36.078125 6.890625 40.9375 10.546875 
Q 45.796875 14.203125 45.796875 21.1875 
Q 45.796875 27.640625 41.28125 31.265625 
Q 36.765625 34.90625 28.71875 34.90625 
L 20.21875 34.90625 
L 20.21875 43.015625 
L 29.109375 43.015625 
Q 36.375 43.015625 40.234375 45.921875 
Q 44.09375 48.828125 44.09375 54.296875 
Q 44.09375 59.90625 40.109375 62.90625 
Q 36.140625 65.921875 28.71875 65.921875 
Q 24.65625 65.921875 20.015625 65.03125 
Q 15.375 64.15625 9.8125 62.3125 
L 9.8125 71.09375 
Q 15.4375 72.65625 20.34375 73.4375 
Q 25.25 74.21875 29.59375 74.21875 
Q 40.828125 74.21875 47.359375 69.109375 
Q 53.90625 64.015625 53.90625 55.328125 
Q 53.90625 49.265625 50.4375 45.09375 
Q 46.96875 40.921875 40.578125 39.3125 
z
" id="DejaVuSans-51"/>
      </defs>
      <use xlink:href="#DejaVuSans-48"/>
      <use x="63.623047" xlink:href="#DejaVuSans-46"/>
      <use x="95.410156" xlink:href="#DejaVuSans-51"/>
      <use x="159.033203" xlink:href="#DejaVuSans-51"/>
      <use x="222.65625" xlink:href="#DejaVuSans-51"/>
     </g>
    </g>
   </g>
   <g id="text_13">
    <g clip-path="url(#p21477c69e1)">
     <!-- 0.366 -->
     <g style="fill:#b9b9ff;" transform="translate(225.713043 143.446903)rotate(-270)scale(0.1 -0.1)">
      <defs>
       <path d="M 33.015625 40.375 
Q 26.375 40.375 22.484375 35.828125 
Q 18.609375 31.296875 18.609375 23.390625 
Q 18.609375 15.53125 22.484375 10.953125 
Q 26.375 6.390625 33.015625 6.390625 
Q 39.65625 6.390625 43.53125 10.953125 
Q 47.40625 15.53125 47.40625 23.390625 
Q 47.40625 31.296875 43.53125 35.828125 
Q 39.65625 40.375 33.015625 40.375 
z
M 52.59375 71.296875 
L 52.59375 62.3125 
Q 48.875 64.0625 45.09375 64.984375 
Q 41.3125 65.921875 37.59375 65.921875 
Q 27.828125 65.921875 22.671875 59.328125 
Q 17.53125 52.734375 16.796875 39.40625 
Q 19.671875 43.65625 24.015625 45.921875 
Q 28.375 48.1875 33.59375 48.1875 
Q 44.578125 48.1875 50.953125 41.515625 
Q 57.328125 34.859375 57.328125 23.390625 
Q 57.328125 12.15625 50.6875 5.359375 
Q 44.046875 -1.421875 33.015625 -1.421875 
Q 20.359375 -1.421875 13.671875 8.265625 
Q 6.984375 17.96875 6.984375 36.375 
Q 6.984375 53.65625 15.1875 63.9375 
Q 23.390625 74.21875 37.203125 74.21875 
Q 40.921875 74.21875 44.703125 73.484375 
Q 48.484375 72.75 52.59375 71.296875 
z
" id="DejaVuSans-54"/>
      </defs>
      <use xlink:href="#DejaVuSans-48"/>
      <use x="63.623047" xlink:href="#DejaVuSans-46"/>
      <use x="95.410156" xlink:href="#DejaVuSans-51"/>
      <use x="159.033203" xlink:href="#DejaVuSans-54"/>
      <use x="222.65625" xlink:href="#DejaVuSans-54"/>
     </g>
    </g>
   </g>
   <g id="text_14">
    <g clip-path="url(#p21477c69e1)">
     <!-- 0.399 -->
     <g style="fill:#9595ff;" transform="translate(240.192487 67.556031)rotate(-270)scale(0.1 -0.1)">
      <defs>
       <path d="M 10.984375 1.515625 
L 10.984375 10.5 
Q 14.703125 8.734375 18.5 7.8125 
Q 22.3125 6.890625 25.984375 6.890625 
Q 35.75 6.890625 40.890625 13.453125 
Q 46.046875 20.015625 46.78125 33.40625 
Q 43.953125 29.203125 39.59375 26.953125 
Q 35.25 24.703125 29.984375 24.703125 
Q 19.046875 24.703125 12.671875 31.3125 
Q 6.296875 37.9375 6.296875 49.421875 
Q 6.296875 60.640625 12.9375 67.421875 
Q 19.578125 74.21875 30.609375 74.21875 
Q 43.265625 74.21875 49.921875 64.515625 
Q 56.59375 54.828125 56.59375 36.375 
Q 56.59375 19.140625 48.40625 8.859375 
Q 40.234375 -1.421875 26.421875 -1.421875 
Q 22.703125 -1.421875 18.890625 -0.6875 
Q 15.09375 0.046875 10.984375 1.515625 
z
M 30.609375 32.421875 
Q 37.25 32.421875 41.125 36.953125 
Q 45.015625 41.5 45.015625 49.421875 
Q 45.015625 57.28125 41.125 61.84375 
Q 37.25 66.40625 30.609375 66.40625 
Q 23.96875 66.40625 20.09375 61.84375 
Q 16.21875 57.28125 16.21875 49.421875 
Q 16.21875 41.5 20.09375 36.953125 
Q 23.96875 32.421875 30.609375 32.421875 
z
" id="DejaVuSans-57"/>
      </defs>
      <use xlink:href="#DejaVuSans-48"/>
      <use x="63.623047" xlink:href="#DejaVuSans-46"/>
      <use x="95.410156" xlink:href="#DejaVuSans-51"/>
      <use x="159.033203" xlink:href="#DejaVuSans-57"/>
      <use x="222.65625" xlink:href="#DejaVuSans-57"/>
     </g>
    </g>
   </g>
   <g id="text_15">
    <g clip-path="url(#p21477c69e1)">
     <!-- 0.431 -->
     <g style="fill:#7171ff;" transform="translate(188.556933 207.53031)rotate(-340.970598)scale(0.1 -0.1)">
      <defs>
       <path d="M 37.796875 64.3125 
L 12.890625 25.390625 
L 37.796875 25.390625 
z
M 35.203125 72.90625 
L 47.609375 72.90625 
L 47.609375 25.390625 
L 58.015625 25.390625 
L 58.015625 17.1875 
L 47.609375 17.1875 
L 47.609375 0 
L 37.796875 0 
L 37.796875 17.1875 
L 4.890625 17.1875 
L 4.890625 26.703125 
z
" id="DejaVuSans-52"/>
       <path d="M 12.40625 8.296875 
L 28.515625 8.296875 
L 28.515625 63.921875 
L 10.984375 60.40625 
L 10.984375 69.390625 
L 28.421875 72.90625 
L 38.28125 72.90625 
L 38.28125 8.296875 
L 54.390625 8.296875 
L 54.390625 0 
L 12.40625 0 
z
" id="DejaVuSans-49"/>
      </defs>
      <use xlink:href="#DejaVuSans-48"/>
      <use x="63.623047" xlink:href="#DejaVuSans-46"/>
      <use x="95.410156" xlink:href="#DejaVuSans-52"/>
      <use x="159.033203" xlink:href="#DejaVuSans-51"/>
      <use x="222.65625" xlink:href="#DejaVuSans-49"/>
     </g>
    </g>
   </g>
   <g id="text_16">
    <g clip-path="url(#p21477c69e1)">
     <!-- 0.464 -->
     <g style="fill:#4d4dff;" transform="translate(261.530974 143.446903)rotate(-270)scale(0.1 -0.1)">
      <use xlink:href="#DejaVuSans-48"/>
      <use x="63.623047" xlink:href="#DejaVuSans-46"/>
      <use x="95.410156" xlink:href="#DejaVuSans-52"/>
      <use x="159.033203" xlink:href="#DejaVuSans-54"/>
      <use x="222.65625" xlink:href="#DejaVuSans-52"/>
     </g>
    </g>
   </g>
   <g id="text_17">
    <g clip-path="url(#p21477c69e1)">
     <!-- 0.497 -->
     <g style="fill:#2929ff;" transform="translate(271.591571 67.556031)rotate(-270)scale(0.1 -0.1)">
      <defs>
       <path d="M 8.203125 72.90625 
L 55.078125 72.90625 
L 55.078125 68.703125 
L 28.609375 0 
L 18.3125 0 
L 43.21875 64.59375 
L 8.203125 64.59375 
z
" id="DejaVuSans-55"/>
      </defs>
      <use xlink:href="#DejaVuSans-48"/>
      <use x="63.623047" xlink:href="#DejaVuSans-46"/>
      <use x="95.410156" xlink:href="#DejaVuSans-52"/>
      <use x="159.033203" xlink:href="#DejaVuSans-57"/>
      <use x="222.65625" xlink:href="#DejaVuSans-55"/>
     </g>
    </g>
   </g>
   <g id="text_18">
    <g clip-path="url(#p21477c69e1)">
     <!-- 0.530 -->
     <g style="fill:#0505ff;" transform="translate(253.261219 232.236742)rotate(-359.931872)scale(0.1 -0.1)">
      <defs>
       <path d="M 10.796875 72.90625 
L 49.515625 72.90625 
L 49.515625 64.59375 
L 19.828125 64.59375 
L 19.828125 46.734375 
Q 21.96875 47.46875 24.109375 47.828125 
Q 26.265625 48.1875 28.421875 48.1875 
Q 40.625 48.1875 47.75 41.5 
Q 54.890625 34.8125 54.890625 23.390625 
Q 54.890625 11.625 47.5625 5.09375 
Q 40.234375 -1.421875 26.90625 -1.421875 
Q 22.3125 -1.421875 17.546875 -0.640625 
Q 12.796875 0.140625 7.71875 1.703125 
L 7.71875 11.625 
Q 12.109375 9.234375 16.796875 8.0625 
Q 21.484375 6.890625 26.703125 6.890625 
Q 35.15625 6.890625 40.078125 11.328125 
Q 45.015625 15.765625 45.015625 23.390625 
Q 45.015625 31 40.078125 35.4375 
Q 35.15625 39.890625 26.703125 39.890625 
Q 22.75 39.890625 18.8125 39.015625 
Q 14.890625 38.140625 10.796875 36.28125 
z
" id="DejaVuSans-53"/>
      </defs>
      <use xlink:href="#DejaVuSans-48"/>
      <use x="63.623047" xlink:href="#DejaVuSans-46"/>
      <use x="95.410156" xlink:href="#DejaVuSans-53"/>
      <use x="159.033203" xlink:href="#DejaVuSans-51"/>
      <use x="222.65625" xlink:href="#DejaVuSans-48"/>
     </g>
    </g>
   </g>
   <g id="text_19">
    <!-- Max(I) -->
    <g transform="translate(211.958516 33.297165)scale(0.16 -0.16)">
     <defs>
      <path d="M 1.125 1.8125 
Q 7.328125 2.4375 9.078125 4.609375 
Q 10.84375 6.78125 10.84375 14.703125 
L 10.84375 55.328125 
Q 10.84375 60.75 9.125 62.375 
Q 7.421875 64.015625 1.375 64.3125 
L 1.375 66.15625 
L 21.140625 66.15625 
L 44.28125 15.71875 
L 66.40625 66.15625 
L 86.328125 66.15625 
L 86.328125 64.3125 
Q 80.765625 63.921875 79.15625 62.28125 
Q 77.546875 60.640625 77.546875 55.328125 
L 77.546875 10.84375 
Q 77.546875 5.375 79.15625 3.828125 
Q 80.765625 2.296875 86.328125 1.8125 
L 86.328125 0 
L 58.296875 0 
L 58.296875 1.8125 
Q 64.359375 2.296875 65.84375 3.984375 
Q 67.328125 5.671875 67.328125 12.015625 
L 67.328125 56.9375 
L 41.75 0 
L 40.375 0 
L 15.234375 54.59375 
L 15.234375 14.703125 
Q 15.234375 6.5 17.625 4 
Q 19.1875 2.390625 24.609375 1.8125 
L 24.609375 0 
L 1.125 0 
z
" id="Times-Roman-77"/>
      <path d="M 28.65625 27.046875 
Q 23.046875 25.203125 19.390625 22.953125 
Q 12.359375 18.609375 12.359375 13.09375 
Q 12.359375 8.640625 15.28125 6.546875 
Q 17.1875 5.171875 19.53125 5.171875 
Q 22.75 5.171875 25.703125 6.984375 
Q 28.65625 8.796875 28.65625 11.578125 
z
M 3.65625 9.71875 
Q 3.65625 16.796875 10.75 21.53125 
Q 15.234375 24.46875 28.65625 29.5 
L 28.65625 33.640625 
Q 28.65625 38.625 27.6875 40.578125 
Q 26.03125 43.84375 20.796875 43.84375 
Q 18.3125 43.84375 16.0625 42.578125 
Q 13.8125 41.265625 13.8125 38.96875 
Q 13.8125 38.375 14.0625 36.984375 
Q 14.3125 35.59375 14.3125 35.203125 
Q 14.3125 32.46875 12.5 31.390625 
Q 11.46875 30.765625 10.0625 30.765625 
Q 7.859375 30.765625 6.6875 32.203125 
Q 5.515625 33.640625 5.515625 35.40625 
Q 5.515625 38.8125 9.734375 42.546875 
Q 13.96875 46.296875 22.125 46.296875 
Q 31.59375 46.296875 34.96875 40.140625 
Q 36.765625 36.765625 36.765625 30.328125 
L 36.765625 10.75 
Q 36.765625 7.90625 37.15625 6.84375 
Q 37.796875 4.9375 39.796875 4.9375 
Q 40.921875 4.9375 41.65625 5.265625 
Q 42.390625 5.609375 44.1875 6.9375 
L 44.1875 4.390625 
Q 42.625 2.484375 40.828125 1.265625 
Q 38.09375 -0.59375 35.25 -0.59375 
Q 31.9375 -0.59375 30.4375 1.5625 
Q 28.953125 3.71875 28.8125 6.6875 
Q 25.09375 3.46875 22.46875 1.90625 
Q 18.015625 -0.734375 14.015625 -0.734375 
Q 9.8125 -0.734375 6.734375 2.21875 
Q 3.65625 5.171875 3.65625 9.71875 
z
M 22.265625 46.296875 
z
" id="Times-Roman-97"/>
      <path d="M 23.140625 44.875 
L 23.140625 43.5 
Q 21.296875 43.453125 20 42.984375 
Q 18.703125 42.53125 18.703125 41.0625 
Q 18.703125 40.140625 21.296875 35.84375 
Q 22.65625 33.59375 24.75 30.328125 
Q 27.640625 34.28125 29.046875 36.53125 
Q 31.453125 40.140625 31.453125 41.21875 
Q 31.453125 42.484375 30.421875 42.921875 
Q 29.390625 43.359375 27.546875 43.5 
L 27.546875 44.875 
L 43.265625 44.875 
L 43.265625 43.5 
Q 40.765625 43.3125 38.609375 42.15625 
Q 36.46875 41.015625 35.15625 39.109375 
L 26.8125 27.046875 
L 39.703125 7.515625 
Q 42.1875 3.71875 43.921875 2.59375 
Q 45.65625 1.46875 47.90625 1.375 
L 47.90625 0 
L 27.734375 0 
L 27.734375 1.375 
L 29.15625 1.46875 
Q 30.28125 1.5625 31.03125 2.140625 
Q 31.78125 2.734375 31.78125 3.609375 
Q 31.78125 4.546875 29.9375 7.71875 
Q 29.046875 9.28125 27.296875 11.96875 
Q 26.46875 13.28125 24.828125 15.625 
Q 23.1875 17.96875 22.078125 19.625 
L 14.203125 7.375 
Q 12.796875 5.171875 12.453125 4.4375 
Q 12.109375 3.71875 12.109375 3.21875 
Q 12.109375 2.296875 12.859375 2 
Q 13.625 1.703125 16.15625 1.375 
L 16.15625 0 
L 1.703125 0 
L 1.703125 1.375 
Q 4.34375 1.90625 5.609375 2.734375 
Q 6.890625 3.5625 8.984375 6.59375 
L 20.359375 23.140625 
L 10.984375 37.359375 
Q 8.15625 41.609375 7.078125 42.390625 
Q 6 43.171875 2.390625 43.5 
L 2.390625 44.875 
z
" id="Times-Roman-120"/>
      <path d="M 4.59375 25.09375 
Q 4.59375 42.09375 14.75 54.9375 
Q 21 62.796875 29.5 67.578125 
L 30.421875 65.96875 
Q 22.5625 59.71875 19.1875 53.8125 
Q 13.28125 43.5 13.28125 26.375 
Q 13.28125 13.671875 15.53125 5.421875 
Q 19.484375 -9.03125 30.421875 -16.21875 
L 29.15625 -17.828125 
Q 23.140625 -14.9375 16.15625 -6.546875 
Q 4.59375 7.375 4.59375 25.09375 
z
" id="Times-Roman-40"/>
      <path d="M 1.609375 1.8125 
Q 7.71875 2.25 9.515625 3.640625 
Q 11.328125 5.03125 11.328125 10.84375 
L 11.328125 55.328125 
Q 11.328125 60.84375 9.515625 62.421875 
Q 7.71875 64.015625 1.609375 64.3125 
L 1.609375 66.15625 
L 31.203125 66.15625 
L 31.203125 64.3125 
Q 25.09375 64.015625 23.28125 62.421875 
Q 21.484375 60.84375 21.484375 55.328125 
L 21.484375 10.84375 
Q 21.484375 5.03125 23.28125 3.640625 
Q 25.09375 2.25 31.203125 1.8125 
L 31.203125 0 
L 1.609375 0 
z
M 16.40625 66.15625 
z
" id="Times-Roman-73"/>
      <path d="M 28.46875 24.609375 
Q 28.46875 17.328125 26.5625 10.828125 
Q 24.65625 4.34375 21 -1.421875 
Q 17.140625 -7.5625 10.6875 -12.890625 
Q 6.453125 -16.40625 3.5625 -17.828125 
L 2.640625 -16.21875 
Q 10.15625 -10.5 13.625 -4.546875 
Q 19.78125 6 19.78125 23.34375 
Q 19.78125 37.359375 16.9375 46.234375 
Q 12.984375 58.796875 2.640625 65.96875 
L 3.90625 67.578125 
Q 11.625 63.28125 18.265625 54.59375 
Q 28.46875 41.21875 28.46875 24.609375 
z
" id="Times-Roman-41"/>
     </defs>
     <use xlink:href="#Times-Roman-77"/>
     <use x="88.916016" xlink:href="#Times-Roman-97"/>
     <use x="133.300781" xlink:href="#Times-Roman-120"/>
     <use x="183.300781" xlink:href="#Times-Roman-40"/>
     <use x="216.601562" xlink:href="#Times-Roman-73"/>
     <use x="249.902344" xlink:href="#Times-Roman-41"/>
    </g>
   </g>
  </g>
 </g>
 <defs>
  <clipPath id="p21477c69e1">
   <rect height="196.205669" width="349.416138" x="59.906697" y="39.297165"/>
  </clipPath>
 </defs>
</svg>
