<?xml version="1.0" encoding="utf-8" standalone="no"?>
<!DOCTYPE svg PUBLIC "-//W3C//DTD SVG 1.1//EN"
  "http://www.w3.org/Graphics/SVG/1.1/DTD/svg11.dtd">
<!-- Created with matplotlib (https://matplotlib.org/) -->
<svg height="288pt" version="1.1" viewBox="0 0 432 288" width="432pt" xmlns="http://www.w3.org/2000/svg" xmlns:xlink="http://www.w3.org/1999/xlink">
 <metadata>
  <rdf:RDF xmlns:cc="http://creativecommons.org/ns#" xmlns:dc="http://purl.org/dc/elements/1.1/" xmlns:rdf="http://www.w3.org/1999/02/22-rdf-syntax-ns#">
   <cc:Work>
    <dc:type rdf:resource="http://purl.org/dc/dcmitype/StillImage"/>
    <dc:date>2021-03-05T14:10:54.634232</dc:date>
    <dc:format>image/svg+xml</dc:format>
    <dc:creator>
     <cc:Agent>
      <dc:title>Matplotlib v3.3.4, https://matplotlib.org/</dc:title>
     </cc:Agent>
    </dc:creator>
   </cc:Work>
  </rdf:RDF>
 </metadata>
 <defs>
  <style type="text/css">*{stroke-linecap:butt;stroke-linejoin:round;}</style>
 </defs>
 <g id="figure_1">
  <g id="patch_1">
   <path d="M 0 288 
L 432 288 
L 432 0 
L 0 0 
z
" style="fill:#ffffff;"/>
  </g>
  <g id="axes_1">
   <g id="patch_2">
    <path d="M 53.906931 234.782835 
L 409.322835 234.782835 
L 409.322835 39.297165 
L 53.906931 39.297165 
z
" style="fill:#ffffff;"/>
   </g>
   <g id="matplotlib.axis_1">
    <g id="xtick_1">
     <g id="line2d_1">
      <path clip-path="url(#p0b011ce874)" d="M 63.965872 234.782835 
L 63.965872 39.297165 
" style="fill:none;stroke:#000000;stroke-linecap:square;stroke-opacity:0.1;stroke-width:0.5;"/>
     </g>
     <g id="line2d_2">
      <defs>
       <path d="M 0 0 
L 0 -2.5 
" id="m9792c73ea1" style="stroke:#000000;stroke-width:0.5;"/>
      </defs>
      <g>
       <use style="stroke:#000000;stroke-width:0.5;" x="63.965872" xlink:href="#m9792c73ea1" y="234.782835"/>
      </g>
     </g>
     <g id="text_1">
      <!-- $\mathregular{0}$ -->
      <g transform="translate(60.965872 246.510335)scale(0.12 -0.12)">
       <defs>
        <path d="M 23.921875 1.8125 
Q 31.109375 1.8125 33.78125 9.671875 
Q 36.46875 17.53125 36.46875 32.421875 
Q 36.46875 44.28125 34.859375 51.375 
Q 31.84375 64.546875 23.53125 64.546875 
Q 15.234375 64.546875 12.15625 50.984375 
Q 10.546875 43.75 10.546875 31.9375 
Q 10.546875 20.84375 12.203125 14.203125 
Q 15.328125 1.8125 23.921875 1.8125 
z
M 23.78125 67.1875 
Q 35.015625 67.1875 41.21875 55.421875 
Q 46.140625 45.90625 46.140625 33.546875 
Q 46.140625 23.828125 43.109375 15.234375 
Q 37.40625 -0.921875 23.34375 -0.921875 
Q 13.71875 -0.921875 7.515625 7.8125 
Q 0.875 17.140625 0.875 33.15625 
Q 0.875 45.75 5.328125 54.828125 
Q 11.328125 67.1875 23.78125 67.1875 
z
" id="Times-Roman-48"/>
       </defs>
       <use transform="translate(0 0.8125)" xlink:href="#Times-Roman-48"/>
      </g>
     </g>
    </g>
    <g id="xtick_2">
     <g id="line2d_3">
      <path clip-path="url(#p0b011ce874)" d="M 131.025476 234.782835 
L 131.025476 39.297165 
" style="fill:none;stroke:#000000;stroke-linecap:square;stroke-opacity:0.1;stroke-width:0.5;"/>
     </g>
     <g id="line2d_4">
      <g>
       <use style="stroke:#000000;stroke-width:0.5;" x="131.025476" xlink:href="#m9792c73ea1" y="234.782835"/>
      </g>
     </g>
     <g id="text_2">
      <!-- $\mathregular{5}$ -->
      <g transform="translate(128.025476 246.510335)scale(0.12 -0.12)">
       <defs>
        <path d="M 7.46875 8.9375 
Q 10.25 8.9375 14.765625 5.78125 
Q 19.28125 2.640625 21.734375 2.640625 
Q 27.34375 2.640625 31.546875 7.59375 
Q 35.75 12.546875 35.75 19.78125 
Q 35.75 32.421875 22.265625 37.984375 
Q 14.796875 41.0625 8.34375 41.0625 
Q 7.28125 41.0625 7 41.140625 
Q 6.734375 41.21875 6.34375 41.65625 
Q 6.453125 42.046875 6.515625 42.3125 
Q 6.59375 42.578125 6.6875 42.828125 
L 17.328125 66.15625 
L 38.28125 66.15625 
Q 39.84375 66.15625 40.6875 66.6875 
Q 41.546875 67.234375 42.921875 68.703125 
L 43.703125 68.015625 
L 39.890625 58.984375 
Q 39.703125 58.546875 38.8125 58.421875 
Q 37.9375 58.296875 36.921875 58.296875 
L 18.015625 58.296875 
L 13.875 49.75 
Q 21.875 48.390625 25.59375 47.171875 
Q 31.6875 45.125 35.796875 41.109375 
Q 39.3125 37.640625 41.109375 33.3125 
Q 42.921875 29 42.921875 24.171875 
Q 42.921875 13.375 35.234375 6.140625 
Q 27.546875 -1.078125 15.765625 -1.078125 
Q 10.984375 -1.078125 8.0625 -0.140625 
Q 3.171875 1.375 3.171875 5.28125 
Q 3.171875 6.734375 4.21875 7.828125 
Q 5.28125 8.9375 7.46875 8.9375 
z
" id="Times-Roman-53"/>
       </defs>
       <use transform="translate(0 0.296875)" xlink:href="#Times-Roman-53"/>
      </g>
     </g>
    </g>
    <g id="xtick_3">
     <g id="line2d_5">
      <path clip-path="url(#p0b011ce874)" d="M 198.085081 234.782835 
L 198.085081 39.297165 
" style="fill:none;stroke:#000000;stroke-linecap:square;stroke-opacity:0.1;stroke-width:0.5;"/>
     </g>
     <g id="line2d_6">
      <g>
       <use style="stroke:#000000;stroke-width:0.5;" x="198.085081" xlink:href="#m9792c73ea1" y="234.782835"/>
      </g>
     </g>
     <g id="text_3">
      <!-- $\mathregular{10}$ -->
      <g transform="translate(192.085081 246.510335)scale(0.12 -0.12)">
       <defs>
        <path d="M 29.59375 67.09375 
Q 29.78125 66.84375 29.796875 66.71875 
Q 29.828125 66.609375 29.828125 66.15625 
L 29.828125 7.375 
Q 29.828125 3.609375 31.828125 2.578125 
Q 33.84375 1.5625 39.3125 1.375 
L 39.3125 0 
L 11.765625 0 
L 11.765625 1.46875 
Q 17.671875 1.765625 19.484375 3.078125 
Q 21.296875 4.390625 21.296875 8.796875 
L 21.296875 54 
Q 21.296875 56.34375 20.703125 57.5625 
Q 20.125 58.796875 18.171875 58.796875 
Q 16.890625 58.796875 14.859375 58.078125 
Q 12.84375 57.375 11.078125 56.59375 
L 11.078125 57.953125 
L 29 67.09375 
L 29.59375 67.09375 
z
" id="Times-Roman-49"/>
       </defs>
       <use transform="translate(0 0.8125)" xlink:href="#Times-Roman-49"/>
       <use transform="translate(50 0.8125)" xlink:href="#Times-Roman-48"/>
      </g>
     </g>
    </g>
    <g id="xtick_4">
     <g id="line2d_7">
      <path clip-path="url(#p0b011ce874)" d="M 265.144685 234.782835 
L 265.144685 39.297165 
" style="fill:none;stroke:#000000;stroke-linecap:square;stroke-opacity:0.1;stroke-width:0.5;"/>
     </g>
     <g id="line2d_8">
      <g>
       <use style="stroke:#000000;stroke-width:0.5;" x="265.144685" xlink:href="#m9792c73ea1" y="234.782835"/>
      </g>
     </g>
     <g id="text_4">
      <!-- $\mathregular{15}$ -->
      <g transform="translate(259.144685 246.510335)scale(0.12 -0.12)">
       <use transform="translate(0 0.296875)" xlink:href="#Times-Roman-49"/>
       <use transform="translate(50 0.296875)" xlink:href="#Times-Roman-53"/>
      </g>
     </g>
    </g>
    <g id="xtick_5">
     <g id="line2d_9">
      <path clip-path="url(#p0b011ce874)" d="M 332.20429 234.782835 
L 332.20429 39.297165 
" style="fill:none;stroke:#000000;stroke-linecap:square;stroke-opacity:0.1;stroke-width:0.5;"/>
     </g>
     <g id="line2d_10">
      <g>
       <use style="stroke:#000000;stroke-width:0.5;" x="332.20429" xlink:href="#m9792c73ea1" y="234.782835"/>
      </g>
     </g>
     <g id="text_5">
      <!-- $\mathregular{20}$ -->
      <g transform="translate(326.20429 246.510335)scale(0.12 -0.12)">
       <defs>
        <path d="M 2.984375 1.125 
Q 20.84375 19.671875 27.234375 28.359375 
Q 33.640625 37.0625 33.640625 45.3125 
Q 33.640625 52.546875 29.734375 56.328125 
Q 25.828125 60.109375 20.40625 60.109375 
Q 13.71875 60.109375 9.578125 55.21875 
Q 7.28125 52.546875 5.171875 46.96875 
L 3.078125 47.40625 
Q 5.515625 58.640625 11.34375 63.015625 
Q 17.1875 67.390625 23.875 67.390625 
Q 32.125 67.390625 37.21875 62.1875 
Q 42.328125 56.984375 42.328125 49.46875 
Q 42.328125 41.453125 36.8125 34.03125 
Q 31.296875 26.609375 12.84375 7.625 
L 35.25 7.625 
Q 39.9375 7.625 41.84375 8.734375 
Q 43.75 9.859375 46.140625 14.203125 
L 47.40625 13.625 
L 42 0 
L 2.984375 0 
z
" id="Times-Roman-50"/>
       </defs>
       <use transform="translate(0 0.609375)" xlink:href="#Times-Roman-50"/>
       <use transform="translate(50 0.609375)" xlink:href="#Times-Roman-48"/>
      </g>
     </g>
    </g>
    <g id="xtick_6">
     <g id="line2d_11">
      <path clip-path="url(#p0b011ce874)" d="M 399.263894 234.782835 
L 399.263894 39.297165 
" style="fill:none;stroke:#000000;stroke-linecap:square;stroke-opacity:0.1;stroke-width:0.5;"/>
     </g>
     <g id="line2d_12">
      <g>
       <use style="stroke:#000000;stroke-width:0.5;" x="399.263894" xlink:href="#m9792c73ea1" y="234.782835"/>
      </g>
     </g>
     <g id="text_6">
      <!-- $\mathregular{25}$ -->
      <g transform="translate(393.263894 246.510335)scale(0.12 -0.12)">
       <use transform="translate(0 0.296875)" xlink:href="#Times-Roman-50"/>
       <use transform="translate(50 0.296875)" xlink:href="#Times-Roman-53"/>
      </g>
     </g>
    </g>
    <g id="text_7">
     <!-- SD Start Time ts [days] -->
     <g transform="translate(161.898633 262.24221)scale(0.12 -0.12)">
      <defs>
       <path d="M 53.515625 70.515625 
L 53.515625 60.890625 
Q 47.90625 63.578125 42.921875 64.890625 
Q 37.9375 66.21875 33.296875 66.21875 
Q 25.25 66.21875 20.875 63.09375 
Q 16.5 59.96875 16.5 54.203125 
Q 16.5 49.359375 19.40625 46.890625 
Q 22.3125 44.4375 30.421875 42.921875 
L 36.375 41.703125 
Q 47.40625 39.59375 52.65625 34.296875 
Q 57.90625 29 57.90625 20.125 
Q 57.90625 9.515625 50.796875 4.046875 
Q 43.703125 -1.421875 29.984375 -1.421875 
Q 24.8125 -1.421875 18.96875 -0.25 
Q 13.140625 0.921875 6.890625 3.21875 
L 6.890625 13.375 
Q 12.890625 10.015625 18.65625 8.296875 
Q 24.421875 6.59375 29.984375 6.59375 
Q 38.421875 6.59375 43.015625 9.90625 
Q 47.609375 13.234375 47.609375 19.390625 
Q 47.609375 24.75 44.3125 27.78125 
Q 41.015625 30.8125 33.5 32.328125 
L 27.484375 33.5 
Q 16.453125 35.6875 11.515625 40.375 
Q 6.59375 45.0625 6.59375 53.421875 
Q 6.59375 63.09375 13.40625 68.65625 
Q 20.21875 74.21875 32.171875 74.21875 
Q 37.3125 74.21875 42.625 73.28125 
Q 47.953125 72.359375 53.515625 70.515625 
z
" id="DejaVuSans-83"/>
       <path d="M 19.671875 64.796875 
L 19.671875 8.109375 
L 31.59375 8.109375 
Q 46.6875 8.109375 53.6875 14.9375 
Q 60.6875 21.78125 60.6875 36.53125 
Q 60.6875 51.171875 53.6875 57.984375 
Q 46.6875 64.796875 31.59375 64.796875 
z
M 9.8125 72.90625 
L 30.078125 72.90625 
Q 51.265625 72.90625 61.171875 64.09375 
Q 71.09375 55.28125 71.09375 36.53125 
Q 71.09375 17.671875 61.125 8.828125 
Q 51.171875 0 30.078125 0 
L 9.8125 0 
z
" id="DejaVuSans-68"/>
       <path id="DejaVuSans-32"/>
       <path d="M 18.3125 70.21875 
L 18.3125 54.6875 
L 36.8125 54.6875 
L 36.8125 47.703125 
L 18.3125 47.703125 
L 18.3125 18.015625 
Q 18.3125 11.328125 20.140625 9.421875 
Q 21.96875 7.515625 27.59375 7.515625 
L 36.8125 7.515625 
L 36.8125 0 
L 27.59375 0 
Q 17.1875 0 13.234375 3.875 
Q 9.28125 7.765625 9.28125 18.015625 
L 9.28125 47.703125 
L 2.6875 47.703125 
L 2.6875 54.6875 
L 9.28125 54.6875 
L 9.28125 70.21875 
z
" id="DejaVuSans-116"/>
       <path d="M 34.28125 27.484375 
Q 23.390625 27.484375 19.1875 25 
Q 14.984375 22.515625 14.984375 16.5 
Q 14.984375 11.71875 18.140625 8.90625 
Q 21.296875 6.109375 26.703125 6.109375 
Q 34.1875 6.109375 38.703125 11.40625 
Q 43.21875 16.703125 43.21875 25.484375 
L 43.21875 27.484375 
z
M 52.203125 31.203125 
L 52.203125 0 
L 43.21875 0 
L 43.21875 8.296875 
Q 40.140625 3.328125 35.546875 0.953125 
Q 30.953125 -1.421875 24.3125 -1.421875 
Q 15.921875 -1.421875 10.953125 3.296875 
Q 6 8.015625 6 15.921875 
Q 6 25.140625 12.171875 29.828125 
Q 18.359375 34.515625 30.609375 34.515625 
L 43.21875 34.515625 
L 43.21875 35.40625 
Q 43.21875 41.609375 39.140625 45 
Q 35.0625 48.390625 27.6875 48.390625 
Q 23 48.390625 18.546875 47.265625 
Q 14.109375 46.140625 10.015625 43.890625 
L 10.015625 52.203125 
Q 14.9375 54.109375 19.578125 55.046875 
Q 24.21875 56 28.609375 56 
Q 40.484375 56 46.34375 49.84375 
Q 52.203125 43.703125 52.203125 31.203125 
z
" id="DejaVuSans-97"/>
       <path d="M 41.109375 46.296875 
Q 39.59375 47.171875 37.8125 47.578125 
Q 36.03125 48 33.890625 48 
Q 26.265625 48 22.1875 43.046875 
Q 18.109375 38.09375 18.109375 28.8125 
L 18.109375 0 
L 9.078125 0 
L 9.078125 54.6875 
L 18.109375 54.6875 
L 18.109375 46.1875 
Q 20.953125 51.171875 25.484375 53.578125 
Q 30.03125 56 36.53125 56 
Q 37.453125 56 38.578125 55.875 
Q 39.703125 55.765625 41.0625 55.515625 
z
" id="DejaVuSans-114"/>
       <path d="M -0.296875 72.90625 
L 61.375 72.90625 
L 61.375 64.59375 
L 35.5 64.59375 
L 35.5 0 
L 25.59375 0 
L 25.59375 64.59375 
L -0.296875 64.59375 
z
" id="DejaVuSans-84"/>
       <path d="M 9.421875 54.6875 
L 18.40625 54.6875 
L 18.40625 0 
L 9.421875 0 
z
M 9.421875 75.984375 
L 18.40625 75.984375 
L 18.40625 64.59375 
L 9.421875 64.59375 
z
" id="DejaVuSans-105"/>
       <path d="M 52 44.1875 
Q 55.375 50.25 60.0625 53.125 
Q 64.75 56 71.09375 56 
Q 79.640625 56 84.28125 50.015625 
Q 88.921875 44.046875 88.921875 33.015625 
L 88.921875 0 
L 79.890625 0 
L 79.890625 32.71875 
Q 79.890625 40.578125 77.09375 44.375 
Q 74.3125 48.1875 68.609375 48.1875 
Q 61.625 48.1875 57.5625 43.546875 
Q 53.515625 38.921875 53.515625 30.90625 
L 53.515625 0 
L 44.484375 0 
L 44.484375 32.71875 
Q 44.484375 40.625 41.703125 44.40625 
Q 38.921875 48.1875 33.109375 48.1875 
Q 26.21875 48.1875 22.15625 43.53125 
Q 18.109375 38.875 18.109375 30.90625 
L 18.109375 0 
L 9.078125 0 
L 9.078125 54.6875 
L 18.109375 54.6875 
L 18.109375 46.1875 
Q 21.1875 51.21875 25.484375 53.609375 
Q 29.78125 56 35.6875 56 
Q 41.65625 56 45.828125 52.96875 
Q 50 49.953125 52 44.1875 
z
" id="DejaVuSans-109"/>
       <path d="M 56.203125 29.59375 
L 56.203125 25.203125 
L 14.890625 25.203125 
Q 15.484375 15.921875 20.484375 11.0625 
Q 25.484375 6.203125 34.421875 6.203125 
Q 39.59375 6.203125 44.453125 7.46875 
Q 49.3125 8.734375 54.109375 11.28125 
L 54.109375 2.78125 
Q 49.265625 0.734375 44.1875 -0.34375 
Q 39.109375 -1.421875 33.890625 -1.421875 
Q 20.796875 -1.421875 13.15625 6.1875 
Q 5.515625 13.8125 5.515625 26.8125 
Q 5.515625 40.234375 12.765625 48.109375 
Q 20.015625 56 32.328125 56 
Q 43.359375 56 49.78125 48.890625 
Q 56.203125 41.796875 56.203125 29.59375 
z
M 47.21875 32.234375 
Q 47.125 39.59375 43.09375 43.984375 
Q 39.0625 48.390625 32.421875 48.390625 
Q 24.90625 48.390625 20.390625 44.140625 
Q 15.875 39.890625 15.1875 32.171875 
z
" id="DejaVuSans-101"/>
       <path d="M 44.28125 53.078125 
L 44.28125 44.578125 
Q 40.484375 46.53125 36.375 47.5 
Q 32.28125 48.484375 27.875 48.484375 
Q 21.1875 48.484375 17.84375 46.4375 
Q 14.5 44.390625 14.5 40.28125 
Q 14.5 37.15625 16.890625 35.375 
Q 19.28125 33.59375 26.515625 31.984375 
L 29.59375 31.296875 
Q 39.15625 29.25 43.1875 25.515625 
Q 47.21875 21.78125 47.21875 15.09375 
Q 47.21875 7.46875 41.1875 3.015625 
Q 35.15625 -1.421875 24.609375 -1.421875 
Q 20.21875 -1.421875 15.453125 -0.5625 
Q 10.6875 0.296875 5.421875 2 
L 5.421875 11.28125 
Q 10.40625 8.6875 15.234375 7.390625 
Q 20.0625 6.109375 24.8125 6.109375 
Q 31.15625 6.109375 34.5625 8.28125 
Q 37.984375 10.453125 37.984375 14.40625 
Q 37.984375 18.0625 35.515625 20.015625 
Q 33.0625 21.96875 24.703125 23.78125 
L 21.578125 24.515625 
Q 13.234375 26.265625 9.515625 29.90625 
Q 5.8125 33.546875 5.8125 39.890625 
Q 5.8125 47.609375 11.28125 51.796875 
Q 16.75 56 26.8125 56 
Q 31.78125 56 36.171875 55.265625 
Q 40.578125 54.546875 44.28125 53.078125 
z
" id="DejaVuSans-115"/>
       <path d="M 8.59375 75.984375 
L 29.296875 75.984375 
L 29.296875 69 
L 17.578125 69 
L 17.578125 -6.203125 
L 29.296875 -6.203125 
L 29.296875 -13.1875 
L 8.59375 -13.1875 
z
" id="DejaVuSans-91"/>
       <path d="M 45.40625 46.390625 
L 45.40625 75.984375 
L 54.390625 75.984375 
L 54.390625 0 
L 45.40625 0 
L 45.40625 8.203125 
Q 42.578125 3.328125 38.25 0.953125 
Q 33.9375 -1.421875 27.875 -1.421875 
Q 17.96875 -1.421875 11.734375 6.484375 
Q 5.515625 14.40625 5.515625 27.296875 
Q 5.515625 40.1875 11.734375 48.09375 
Q 17.96875 56 27.875 56 
Q 33.9375 56 38.25 53.625 
Q 42.578125 51.265625 45.40625 46.390625 
z
M 14.796875 27.296875 
Q 14.796875 17.390625 18.875 11.75 
Q 22.953125 6.109375 30.078125 6.109375 
Q 37.203125 6.109375 41.296875 11.75 
Q 45.40625 17.390625 45.40625 27.296875 
Q 45.40625 37.203125 41.296875 42.84375 
Q 37.203125 48.484375 30.078125 48.484375 
Q 22.953125 48.484375 18.875 42.84375 
Q 14.796875 37.203125 14.796875 27.296875 
z
" id="DejaVuSans-100"/>
       <path d="M 32.171875 -5.078125 
Q 28.375 -14.84375 24.75 -17.8125 
Q 21.140625 -20.796875 15.09375 -20.796875 
L 7.90625 -20.796875 
L 7.90625 -13.28125 
L 13.1875 -13.28125 
Q 16.890625 -13.28125 18.9375 -11.515625 
Q 21 -9.765625 23.484375 -3.21875 
L 25.09375 0.875 
L 2.984375 54.6875 
L 12.5 54.6875 
L 29.59375 11.921875 
L 46.6875 54.6875 
L 56.203125 54.6875 
z
" id="DejaVuSans-121"/>
       <path d="M 30.421875 75.984375 
L 30.421875 -13.1875 
L 9.71875 -13.1875 
L 9.71875 -6.203125 
L 21.390625 -6.203125 
L 21.390625 69 
L 9.71875 69 
L 9.71875 75.984375 
z
" id="DejaVuSans-93"/>
      </defs>
      <use xlink:href="#DejaVuSans-83"/>
      <use x="63.476562" xlink:href="#DejaVuSans-68"/>
      <use x="140.478516" xlink:href="#DejaVuSans-32"/>
      <use x="172.265625" xlink:href="#DejaVuSans-83"/>
      <use x="235.742188" xlink:href="#DejaVuSans-116"/>
      <use x="274.951172" xlink:href="#DejaVuSans-97"/>
      <use x="336.230469" xlink:href="#DejaVuSans-114"/>
      <use x="377.34375" xlink:href="#DejaVuSans-116"/>
      <use x="416.552734" xlink:href="#DejaVuSans-32"/>
      <use x="448.339844" xlink:href="#DejaVuSans-84"/>
      <use x="506.298828" xlink:href="#DejaVuSans-105"/>
      <use x="534.082031" xlink:href="#DejaVuSans-109"/>
      <use x="631.494141" xlink:href="#DejaVuSans-101"/>
      <use x="693.017578" xlink:href="#DejaVuSans-32"/>
      <use x="724.804688" xlink:href="#DejaVuSans-116"/>
      <use x="764.013672" xlink:href="#DejaVuSans-115"/>
      <use x="816.113281" xlink:href="#DejaVuSans-32"/>
      <use x="847.900391" xlink:href="#DejaVuSans-91"/>
      <use x="886.914062" xlink:href="#DejaVuSans-100"/>
      <use x="950.390625" xlink:href="#DejaVuSans-97"/>
      <use x="1011.669922" xlink:href="#DejaVuSans-121"/>
      <use x="1070.849609" xlink:href="#DejaVuSans-115"/>
      <use x="1122.949219" xlink:href="#DejaVuSans-93"/>
     </g>
    </g>
   </g>
   <g id="matplotlib.axis_2">
    <g id="ytick_1">
     <g id="line2d_13">
      <path clip-path="url(#p0b011ce874)" d="M 53.906931 229.250221 
L 409.322835 229.250221 
" style="fill:none;stroke:#000000;stroke-linecap:square;stroke-opacity:0.1;stroke-width:0.5;"/>
     </g>
     <g id="line2d_14">
      <defs>
       <path d="M 0 0 
L 2.5 0 
" id="mb4216a3377" style="stroke:#000000;stroke-width:0.5;"/>
      </defs>
      <g>
       <use style="stroke:#000000;stroke-width:0.5;" x="53.906931" xlink:href="#mb4216a3377" y="229.250221"/>
      </g>
     </g>
     <g id="text_8">
      <!-- $\mathregular{0}$ -->
      <g transform="translate(44.406931 233.363971)scale(0.12 -0.12)">
       <use transform="translate(0 0.8125)" xlink:href="#Times-Roman-48"/>
      </g>
     </g>
    </g>
    <g id="ytick_2">
     <g id="line2d_15">
      <path clip-path="url(#p0b011ce874)" d="M 53.906931 196.317999 
L 409.322835 196.317999 
" style="fill:none;stroke:#000000;stroke-linecap:square;stroke-opacity:0.1;stroke-width:0.5;"/>
     </g>
     <g id="line2d_16">
      <g>
       <use style="stroke:#000000;stroke-width:0.5;" x="53.906931" xlink:href="#mb4216a3377" y="196.317999"/>
      </g>
     </g>
     <g id="text_9">
      <!-- $\mathregular{10}$ -->
      <g transform="translate(38.406931 200.431749)scale(0.12 -0.12)">
       <use transform="translate(0 0.8125)" xlink:href="#Times-Roman-49"/>
       <use transform="translate(50 0.8125)" xlink:href="#Times-Roman-48"/>
      </g>
     </g>
    </g>
    <g id="ytick_3">
     <g id="line2d_17">
      <path clip-path="url(#p0b011ce874)" d="M 53.906931 163.385778 
L 409.322835 163.385778 
" style="fill:none;stroke:#000000;stroke-linecap:square;stroke-opacity:0.1;stroke-width:0.5;"/>
     </g>
     <g id="line2d_18">
      <g>
       <use style="stroke:#000000;stroke-width:0.5;" x="53.906931" xlink:href="#mb4216a3377" y="163.385778"/>
      </g>
     </g>
     <g id="text_10">
      <!-- $\mathregular{20}$ -->
      <g transform="translate(38.406931 167.499528)scale(0.12 -0.12)">
       <use transform="translate(0 0.609375)" xlink:href="#Times-Roman-50"/>
       <use transform="translate(50 0.609375)" xlink:href="#Times-Roman-48"/>
      </g>
     </g>
    </g>
    <g id="ytick_4">
     <g id="line2d_19">
      <path clip-path="url(#p0b011ce874)" d="M 53.906931 130.453556 
L 409.322835 130.453556 
" style="fill:none;stroke:#000000;stroke-linecap:square;stroke-opacity:0.1;stroke-width:0.5;"/>
     </g>
     <g id="line2d_20">
      <g>
       <use style="stroke:#000000;stroke-width:0.5;" x="53.906931" xlink:href="#mb4216a3377" y="130.453556"/>
      </g>
     </g>
     <g id="text_11">
      <!-- $\mathregular{30}$ -->
      <g transform="translate(38.406931 134.567306)scale(0.12 -0.12)">
       <defs>
        <path d="M 7.765625 8.5 
Q 10.453125 8.5 14.859375 5.71875 
Q 19.28125 2.9375 22.359375 2.9375 
Q 29.203125 2.9375 32.515625 7.546875 
Q 35.84375 12.15625 35.84375 17.578125 
Q 35.84375 22.796875 33.15625 26.765625 
Q 28.609375 33.453125 17.828125 33.453125 
Q 17.1875 33.453125 16.59375 33.421875 
Q 16.015625 33.40625 15.234375 33.296875 
L 15.140625 34.578125 
Q 22.953125 37.40625 27.4375 41.0625 
Q 31.9375 44.734375 31.9375 50.734375 
Q 31.9375 56.0625 28.390625 58.84375 
Q 24.859375 61.625 20.3125 61.625 
Q 14.9375 61.625 10.84375 57.671875 
Q 8.59375 55.515625 6 51.03125 
L 4.5 51.375 
Q 6.453125 58.796875 11.765625 63.234375 
Q 17.09375 67.671875 24.078125 67.671875 
Q 31.546875 67.671875 35.625 63.5625 
Q 39.703125 59.46875 39.703125 54.109375 
Q 39.703125 49.359375 36.328125 45.40625 
Q 34.421875 43.171875 30.421875 40.375 
Q 35.109375 38.375 37.9375 35.6875 
Q 43.265625 30.5625 43.265625 22.703125 
Q 43.265625 13.421875 35.953125 6.34375 
Q 28.65625 -0.734375 15.1875 -0.734375 
Q 9.1875 -0.734375 6.765625 1.046875 
Q 4.34375 2.828125 4.34375 4.890625 
Q 4.34375 6.15625 5.140625 7.328125 
Q 5.953125 8.5 7.765625 8.5 
z
" id="Times-Roman-51"/>
       </defs>
       <use transform="translate(0 0.328125)" xlink:href="#Times-Roman-51"/>
       <use transform="translate(50 0.328125)" xlink:href="#Times-Roman-48"/>
      </g>
     </g>
    </g>
    <g id="ytick_5">
     <g id="line2d_21">
      <path clip-path="url(#p0b011ce874)" d="M 53.906931 97.521334 
L 409.322835 97.521334 
" style="fill:none;stroke:#000000;stroke-linecap:square;stroke-opacity:0.1;stroke-width:0.5;"/>
     </g>
     <g id="line2d_22">
      <g>
       <use style="stroke:#000000;stroke-width:0.5;" x="53.906931" xlink:href="#mb4216a3377" y="97.521334"/>
      </g>
     </g>
     <g id="text_12">
      <!-- $\mathregular{40}$ -->
      <g transform="translate(38.406931 101.635084)scale(0.12 -0.12)">
       <defs>
        <path d="M 29.15625 57.03125 
L 5.171875 23.140625 
L 29.15625 23.140625 
z
M 32.375 67.09375 
L 37.015625 67.09375 
L 37.015625 23.140625 
L 47.21875 23.140625 
L 47.21875 16.65625 
L 37.015625 16.65625 
L 37.015625 0 
L 29.25 0 
L 29.25 16.65625 
L 1.125 16.65625 
L 1.125 23.140625 
z
" id="Times-Roman-52"/>
       </defs>
       <use transform="translate(0 0.8125)" xlink:href="#Times-Roman-52"/>
       <use transform="translate(50 0.8125)" xlink:href="#Times-Roman-48"/>
      </g>
     </g>
    </g>
    <g id="ytick_6">
     <g id="line2d_23">
      <path clip-path="url(#p0b011ce874)" d="M 53.906931 64.589112 
L 409.322835 64.589112 
" style="fill:none;stroke:#000000;stroke-linecap:square;stroke-opacity:0.1;stroke-width:0.5;"/>
     </g>
     <g id="line2d_24">
      <g>
       <use style="stroke:#000000;stroke-width:0.5;" x="53.906931" xlink:href="#mb4216a3377" y="64.589112"/>
      </g>
     </g>
     <g id="text_13">
      <!-- $\mathregular{50}$ -->
      <g transform="translate(38.406931 68.702862)scale(0.12 -0.12)">
       <use transform="translate(0 0.296875)" xlink:href="#Times-Roman-53"/>
       <use transform="translate(50 0.296875)" xlink:href="#Times-Roman-48"/>
      </g>
     </g>
    </g>
    <g id="text_14">
     <!-- SD Duration td [days] -->
     <g transform="translate(31.911306 202.254375)rotate(-90)scale(0.12 -0.12)">
      <defs>
       <path d="M 8.5 21.578125 
L 8.5 54.6875 
L 17.484375 54.6875 
L 17.484375 21.921875 
Q 17.484375 14.15625 20.5 10.265625 
Q 23.53125 6.390625 29.59375 6.390625 
Q 36.859375 6.390625 41.078125 11.03125 
Q 45.3125 15.671875 45.3125 23.6875 
L 45.3125 54.6875 
L 54.296875 54.6875 
L 54.296875 0 
L 45.3125 0 
L 45.3125 8.40625 
Q 42.046875 3.421875 37.71875 1 
Q 33.40625 -1.421875 27.6875 -1.421875 
Q 18.265625 -1.421875 13.375 4.4375 
Q 8.5 10.296875 8.5 21.578125 
z
M 31.109375 56 
z
" id="DejaVuSans-117"/>
       <path d="M 30.609375 48.390625 
Q 23.390625 48.390625 19.1875 42.75 
Q 14.984375 37.109375 14.984375 27.296875 
Q 14.984375 17.484375 19.15625 11.84375 
Q 23.34375 6.203125 30.609375 6.203125 
Q 37.796875 6.203125 41.984375 11.859375 
Q 46.1875 17.53125 46.1875 27.296875 
Q 46.1875 37.015625 41.984375 42.703125 
Q 37.796875 48.390625 30.609375 48.390625 
z
M 30.609375 56 
Q 42.328125 56 49.015625 48.375 
Q 55.71875 40.765625 55.71875 27.296875 
Q 55.71875 13.875 49.015625 6.21875 
Q 42.328125 -1.421875 30.609375 -1.421875 
Q 18.84375 -1.421875 12.171875 6.21875 
Q 5.515625 13.875 5.515625 27.296875 
Q 5.515625 40.765625 12.171875 48.375 
Q 18.84375 56 30.609375 56 
z
" id="DejaVuSans-111"/>
       <path d="M 54.890625 33.015625 
L 54.890625 0 
L 45.90625 0 
L 45.90625 32.71875 
Q 45.90625 40.484375 42.875 44.328125 
Q 39.84375 48.1875 33.796875 48.1875 
Q 26.515625 48.1875 22.3125 43.546875 
Q 18.109375 38.921875 18.109375 30.90625 
L 18.109375 0 
L 9.078125 0 
L 9.078125 54.6875 
L 18.109375 54.6875 
L 18.109375 46.1875 
Q 21.34375 51.125 25.703125 53.5625 
Q 30.078125 56 35.796875 56 
Q 45.21875 56 50.046875 50.171875 
Q 54.890625 44.34375 54.890625 33.015625 
z
" id="DejaVuSans-110"/>
      </defs>
      <use xlink:href="#DejaVuSans-83"/>
      <use x="63.476562" xlink:href="#DejaVuSans-68"/>
      <use x="140.478516" xlink:href="#DejaVuSans-32"/>
      <use x="172.265625" xlink:href="#DejaVuSans-68"/>
      <use x="249.267578" xlink:href="#DejaVuSans-117"/>
      <use x="312.646484" xlink:href="#DejaVuSans-114"/>
      <use x="353.759766" xlink:href="#DejaVuSans-97"/>
      <use x="415.039062" xlink:href="#DejaVuSans-116"/>
      <use x="454.248047" xlink:href="#DejaVuSans-105"/>
      <use x="482.03125" xlink:href="#DejaVuSans-111"/>
      <use x="543.212891" xlink:href="#DejaVuSans-110"/>
      <use x="606.591797" xlink:href="#DejaVuSans-32"/>
      <use x="638.378906" xlink:href="#DejaVuSans-116"/>
      <use x="677.587891" xlink:href="#DejaVuSans-100"/>
      <use x="741.064453" xlink:href="#DejaVuSans-32"/>
      <use x="772.851562" xlink:href="#DejaVuSans-91"/>
      <use x="811.865234" xlink:href="#DejaVuSans-100"/>
      <use x="875.341797" xlink:href="#DejaVuSans-97"/>
      <use x="936.621094" xlink:href="#DejaVuSans-121"/>
      <use x="995.800781" xlink:href="#DejaVuSans-115"/>
      <use x="1047.900391" xlink:href="#DejaVuSans-93"/>
     </g>
    </g>
   </g>
   <g id="LineCollection_1"/>
   <g id="LineCollection_2">
    <path clip-path="url(#p0b011ce874)" d="M 229.897854 44.829779 
L 229.897854 48.123001 
L 229.897854 51.416223 
L 229.897854 54.709445 
L 229.897854 58.002667 
L 229.897854 61.29589 
L 229.897854 64.589112 
L 229.897854 67.882334 
L 229.897854 71.175556 
L 229.897854 74.468778 
L 229.897854 77.762001 
L 229.897854 81.055223 
L 229.897854 84.348445 
L 229.897854 87.641667 
L 229.897854 90.934889 
L 229.897854 94.228112 
L 229.897854 97.521334 
L 229.897854 98.783736 
" style="fill:none;stroke:#dedeff;"/>
    <path clip-path="url(#p0b011ce874)" d="M 229.897854 122.604709 
L 229.897854 123.867111 
L 229.897854 127.160333 
L 229.897854 130.453556 
L 229.897854 133.746778 
L 229.897854 137.04 
L 229.897854 140.333222 
L 229.897854 143.626444 
L 229.897854 146.919667 
L 229.897854 150.212889 
L 229.897854 153.506111 
L 229.897854 156.799333 
L 229.897854 160.092555 
L 229.897854 163.385778 
L 224.908922 165.741717 
L 222.080535 163.385778 
L 217.836704 160.092555 
L 211.497001 159.037625 
L 207.569531 156.799333 
L 203.166646 153.506111 
L 198.085081 151.3953 
L 196.090549 150.212889 
L 190.564064 146.919667 
L 185.141118 143.626444 
L 184.67316 143.440539 
L 179.592125 140.333222 
L 174.216045 137.04 
L 171.261239 135.274041 
L 168.795418 133.746778 
L 163.491969 130.453556 
L 158.165377 127.160333 
L 157.849318 126.989297 
L 152.87246 123.867111 
L 147.593684 120.573889 
L 144.437397 118.623653 
L 142.303187 117.280667 
L 137.075535 113.987445 
L 131.789797 110.694222 
L 131.025476 110.22057 
L 126.567424 107.401 
L 121.334432 104.107778 
L 117.613555 101.792123 
L 116.066322 100.814556 
L 110.863672 97.521334 
L 105.608575 94.228112 
L 104.201634 93.353252 
L 100.383658 90.934889 
L 95.169671 87.641667 
L 90.789713 84.911059 
L 89.899522 84.348445 
L 84.707194 81.055223 
L 79.463829 77.762001 
L 77.377793 76.463219 
L 74.22914 74.468778 
L 69.020655 71.175556 
L 63.965872 68.021985 
" style="fill:none;stroke:#dedeff;"/>
   </g>
   <g id="LineCollection_3">
    <path clip-path="url(#p0b011ce874)" d="M 257.941599 44.829779 
L 257.941599 48.123001 
L 257.941599 51.416223 
L 257.941599 54.709445 
L 257.941599 58.002667 
L 257.941599 61.29589 
L 257.941599 64.589112 
L 257.941599 67.882334 
L 257.941599 71.175556 
L 257.941599 74.468778 
L 257.941599 77.762001 
L 257.941599 81.055223 
L 257.941599 84.348445 
L 257.941599 87.641667 
L 257.941599 90.934889 
L 257.941599 94.228112 
L 257.941599 97.521334 
L 257.941599 98.783736 
" style="fill:none;stroke:#b9b9ff;"/>
    <path clip-path="url(#p0b011ce874)" d="M 257.941599 122.604709 
L 257.941599 123.867111 
L 257.941599 127.160333 
L 257.941599 130.453556 
L 257.941599 133.746778 
L 257.941599 137.04 
L 257.941599 140.333222 
L 257.941599 143.626444 
L 257.941599 146.919667 
L 257.941599 150.212889 
L 257.941599 153.506111 
L 257.941599 156.799333 
L 257.941599 160.092555 
L 257.941599 163.385778 
L 257.941599 166.679 
L 257.941599 169.972222 
L 257.941599 173.265444 
L 257.941599 176.558666 
L 257.941599 179.851888 
L 257.941599 183.145111 
L 252.304353 186.438333 
L 251.732764 186.557219 
L 251.43119 186.438333 
L 244.517084 183.145111 
L 238.320843 181.086108 
L 235.638108 179.851888 
L 228.650088 176.558666 
L 224.908922 174.770486 
L 221.963555 173.265444 
L 215.653931 169.972222 
L 211.497001 167.776752 
L 209.494536 166.679 
L 203.589066 163.385778 
L 198.085081 160.2795 
L 197.758849 160.092555 
L 192.087725 156.799333 
L 186.49873 153.506111 
L 184.67316 152.42834 
L 180.954725 150.212889 
L 175.504192 146.919667 
L 171.261239 144.345493 
L 170.072605 143.626444 
L 164.688377 140.333222 
L 159.355358 137.04 
L 157.849318 136.111679 
L 154.003548 133.746778 
L 148.711499 130.453556 
L 144.437397 127.78794 
L 143.420567 127.160333 
L 138.130769 123.867111 
L 132.885421 120.573889 
L 131.025476 119.40914 
L 127.602193 117.280667 
L 122.360676 113.987445 
L 117.613555 110.998929 
L 117.123024 110.694222 
L 111.857699 107.401 
L 106.639222 104.107778 
L 104.201634 102.573755 
L 101.380698 100.814556 
L 96.150668 97.521334 
L 90.935096 94.228112 
L 90.789713 94.136714 
L 85.672663 90.934889 
L 80.460822 87.641667 
L 77.377793 85.697701 
L 75.21561 84.348445 
L 69.983477 81.055223 
L 64.773028 77.762001 
L 63.965872 77.254116 
" style="fill:none;stroke:#b9b9ff;"/>
   </g>
   <g id="LineCollection_4">
    <path clip-path="url(#p0b011ce874)" d="M 276.145644 44.829779 
L 276.145644 48.123001 
L 276.145644 51.416223 
L 276.145644 54.709445 
L 276.145644 58.002667 
L 276.145644 61.29589 
L 276.145644 64.589112 
L 276.145644 67.882334 
L 276.145644 71.175556 
L 276.145644 74.468778 
L 276.145644 77.762001 
L 276.145644 81.055223 
L 276.145644 84.348445 
L 276.145644 87.641667 
L 276.145644 90.934889 
L 276.145644 94.228112 
L 276.145644 97.521334 
L 276.145644 100.814556 
L 276.145644 104.107778 
L 276.145644 107.401 
L 276.145644 110.694222 
L 276.145644 113.987445 
L 276.145644 117.280667 
L 276.145644 120.573889 
L 276.145644 123.867111 
L 276.145644 127.160333 
L 276.145644 130.453556 
L 276.145644 133.746778 
L 276.145644 137.04 
L 276.145644 140.333222 
L 276.145644 143.626444 
L 276.145644 146.919667 
L 276.145644 150.212889 
L 276.145644 153.506111 
L 276.145644 156.799333 
L 276.145644 160.092555 
L 276.145644 163.385778 
L 276.145644 166.679 
L 276.145644 169.972222 
L 276.145644 173.265444 
L 276.145644 176.558666 
L 276.145644 179.851888 
L 276.145644 183.145111 
L 276.145644 186.438333 
L 276.145644 189.731555 
L 276.145644 193.024777 
L 274.147628 196.317999 
L 265.144685 198.469138 
L 258.059334 196.317999 
L 251.732764 194.303522 
L 248.258028 193.024777 
L 239.735236 189.731555 
L 238.320843 189.167886 
L 232.056948 186.438333 
L 224.908922 183.160668 
L 224.876286 183.145111 
L 218.152131 179.851888 
L 211.745622 176.558666 
L 211.497001 176.429386 
L 210.132851 175.7077 
" style="fill:none;stroke:#9494ff;"/>
    <path clip-path="url(#p0b011ce874)" d="M 186.215651 162.368104 
L 184.67316 161.460842 
L 182.294407 160.092555 
L 176.712699 156.799333 
L 171.298122 153.506111 
L 171.261239 153.483686 
L 165.748285 150.212889 
L 160.389623 146.919667 
L 157.849318 145.34259 
L 154.98733 143.626444 
L 149.624981 140.333222 
L 144.437397 137.066267 
L 144.393839 137.04 
L 138.979007 133.746778 
L 133.736463 130.453556 
L 131.025476 128.735701 
L 128.438917 127.160333 
L 123.143665 123.867111 
L 117.975286 120.573889 
L 117.613555 120.344144 
L 112.617498 117.280667 
L 107.405048 113.987445 
L 104.201634 111.942367 
L 102.162597 110.694222 
L 96.875943 107.401 
L 91.719925 104.107778 
L 90.789713 103.514481 
L 86.396474 100.814556 
L 81.181957 97.521334 
L 77.377793 95.086083 
L 75.978322 94.228112 
L 70.680679 90.934889 
L 65.520617 87.641667 
L 63.965872 86.648313 
" style="fill:none;stroke:#9494ff;"/>
   </g>
   <g id="LineCollection_5">
    <path clip-path="url(#p0b011ce874)" d="M 290.407431 44.829779 
L 290.407431 48.123001 
L 290.407431 51.416223 
L 290.407431 54.709445 
L 290.407431 58.002667 
L 290.407431 61.29589 
L 290.407431 64.589112 
L 290.407431 67.882334 
L 290.407431 71.175556 
L 290.407431 74.468778 
L 290.407431 77.762001 
L 290.407431 81.055223 
L 290.407431 84.348445 
L 290.407431 87.641667 
L 290.407431 90.934889 
L 290.407431 94.228112 
L 290.407431 97.521334 
L 290.407431 98.783736 
" style="fill:none;stroke:#6f6fff;"/>
    <path clip-path="url(#p0b011ce874)" d="M 290.407431 122.604709 
L 290.407431 123.867111 
L 290.407431 127.160333 
L 290.407431 130.453556 
L 290.407431 133.746778 
L 290.407431 137.04 
L 290.407431 140.333222 
L 290.407431 143.626444 
L 290.407431 146.919667 
L 290.407431 150.212889 
L 290.407431 153.506111 
L 290.407431 156.799333 
L 290.407431 160.092555 
L 290.407431 163.385778 
L 290.407431 166.679 
L 290.407431 169.972222 
L 290.407431 173.265444 
L 290.407431 176.558666 
L 290.407431 179.851888 
L 290.407431 183.145111 
L 290.407431 186.438333 
L 290.407431 189.731555 
L 290.407431 193.024777 
L 290.407431 196.317999 
L 290.407431 199.611222 
L 290.345618 202.904444 
L 288.607633 206.197666 
L 278.556606 208.463828 
L 267.531788 206.197666 
L 265.144685 205.67447 
L 254.949526 202.904444 
L 251.732764 201.965869 
L 244.672084 199.611222 
L 238.320843 197.315645 
L 235.742625 196.317999 
L 227.776397 193.024777 
L 224.908922 191.769847 
L 220.349062 189.731555 
L 213.494104 186.438333 
L 211.497001 185.440945 
L 206.840834 183.145111 
L 200.592065 179.851888 
L 198.085081 178.481701 
L 194.430869 176.558666 
L 188.501599 173.265444 
L 184.67316 171.040364 
L 182.729215 169.972222 
L 176.943362 166.679 
L 171.500065 163.385778 
L 171.261239 163.240685 
L 165.763061 160.092555 
L 160.35551 156.799333 
L 157.849318 155.236147 
L 154.873655 153.506111 
L 149.426654 150.212889 
L 144.437397 147.04268 
L 144.227725 146.919667 
L 138.679883 143.626444 
L 133.445217 140.333222 
L 131.025476 138.780839 
L 128.0977 137.04 
L 122.755524 133.746778 
L 117.66628 130.453556 
L 117.613555 130.419584 
L 112.181068 127.160333 
L 106.991043 123.867111 
L 104.201634 122.057983 
L 101.725886 120.573889 
L 96.398903 117.280667 
L 91.324246 113.987445 
L 90.789713 113.640842 
L 85.899956 110.694222 
L 80.70609 107.401 
L 77.377793 105.233334 
L 75.505804 104.107778 
L 70.162255 100.814556 
L 65.077349 97.521334 
L 63.965872 96.798563 
" style="fill:none;stroke:#6f6fff;"/>
   </g>
   <g id="LineCollection_6">
    <path clip-path="url(#p0b011ce874)" d="M 302.640083 44.829779 
L 302.640083 48.123001 
L 302.640083 51.416223 
L 302.640083 54.709445 
L 302.640083 58.002667 
L 302.640083 61.29589 
L 302.640083 64.589112 
L 302.640083 67.882334 
L 302.640083 71.175556 
L 302.640083 74.468778 
L 302.640083 77.762001 
L 302.640083 81.055223 
L 302.640083 84.348445 
L 302.640083 87.641667 
L 302.640083 90.934889 
L 302.640083 94.228112 
L 302.640083 97.521334 
L 302.640083 100.814556 
L 302.640083 104.107778 
L 302.640083 107.401 
L 302.640083 110.694222 
L 302.640083 113.987445 
L 302.640083 117.280667 
L 302.640083 120.573889 
L 302.640083 123.867111 
L 302.640083 127.160333 
L 302.640083 130.453556 
L 302.640083 133.746778 
L 302.640083 137.04 
L 302.640083 140.333222 
L 302.640083 143.626444 
L 302.640083 146.919667 
L 302.640083 150.212889 
L 302.640083 153.506111 
L 302.640083 156.799333 
L 302.640083 160.092555 
L 302.640083 163.385778 
L 302.640083 166.679 
L 302.640083 169.972222 
L 302.640083 173.265444 
L 302.640083 176.558666 
L 302.640083 179.851888 
L 302.640083 183.145111 
L 302.640083 186.438333 
L 302.640083 189.731555 
L 302.640083 193.024777 
L 302.640083 196.317999 
L 302.640083 199.611222 
L 302.640083 202.904444 
L 302.640083 206.197666 
L 302.640083 209.490888 
L 301.807039 212.78411 
L 295.987741 216.077333 
L 291.968527 216.675544 
L 286.529115 216.077333 
L 278.556606 215.127863 
L 265.144685 212.894805 
L 264.599959 212.78411 
L 251.932194 209.907661 
" style="fill:none;stroke:#4b4bff;"/>
    <path clip-path="url(#p0b011ce874)" d="M 225.080147 201.20332 
L 224.908922 201.137048 
L 220.984266 199.611222 
L 213.351099 196.317999 
L 211.497001 195.462103 
L 206.019924 193.024777 
L 199.398567 189.731555 
L 198.085081 189.047953 
L 192.72522 186.438333 
L 186.61588 183.145111 
L 184.67316 182.048325 
L 180.425244 179.851888 
L 174.556147 176.558666 
L 171.261239 174.590583 
L 168.79791 173.265444 
L 162.991716 169.972222 
L 157.849318 166.779766 
L 157.666901 166.679 
L 151.803622 163.385778 
L 146.470622 160.092555 
L 144.437397 158.794933 
L 140.926888 156.799333 
L 135.477954 153.506111 
L 131.025476 150.613768 
L 130.326583 150.212889 
L 124.696738 146.919667 
L 119.535763 143.626444 
L 117.613555 142.365971 
L 114.116781 140.333222 
L 108.771213 137.04 
L 104.201634 134.016867 
L 103.737827 133.746778 
L 98.161319 130.453556 
L 93.037115 127.160333 
L 90.789713 125.670629 
L 87.713647 123.867111 
L 82.374415 120.573889 
L 77.430499 117.280667 
L 77.377793 117.24572 
L 71.851942 113.987445 
L 66.716185 110.694222 
L 63.965872 108.861496 
" style="fill:none;stroke:#4b4bff;"/>
   </g>
   <g id="LineCollection_7">
    <path clip-path="url(#p0b011ce874)" d="M 315.319058 44.829779 
L 315.319058 48.123001 
L 315.319058 51.416223 
L 315.319058 54.709445 
L 315.319058 58.002667 
L 315.319058 61.29589 
L 315.319058 64.589112 
L 315.319058 67.882334 
L 315.319058 71.175556 
L 315.319058 74.468778 
L 315.319058 77.762001 
L 315.319058 81.055223 
L 315.319058 84.348445 
L 315.319058 87.641667 
L 315.319058 90.934889 
L 315.319058 94.228112 
L 315.319058 97.521334 
L 315.319058 100.814556 
L 315.319058 104.107778 
L 315.319058 107.401 
L 315.319058 110.694222 
L 315.319058 113.987445 
L 315.319058 117.280667 
L 315.319058 120.573889 
L 315.319058 123.867111 
L 315.319058 127.160333 
L 315.319058 130.453556 
L 315.319058 133.746778 
L 315.319058 137.04 
L 315.319058 140.333222 
L 315.319058 143.626444 
L 315.319058 146.919667 
L 315.319058 150.212889 
L 315.319058 153.506111 
L 315.319058 156.799333 
L 315.319058 160.092555 
L 315.319058 163.385778 
L 315.319058 166.679 
L 315.319058 169.972222 
L 315.319058 173.265444 
L 315.319058 176.558666 
L 315.319058 179.851888 
L 315.319058 183.145111 
L 315.319058 186.438333 
L 315.319058 189.731555 
L 315.319058 193.024777 
L 315.319058 196.317999 
L 315.319058 199.611222 
L 315.319058 202.904444 
L 315.319058 206.197666 
L 315.319058 209.490888 
L 315.319058 212.78411 
L 315.319058 216.077333 
L 315.089871 219.370555 
L 309.757772 222.663777 
L 305.380448 223.398978 
L 291.968527 222.796791 
L 289.902364 222.663777 
L 278.556606 221.853887 
L 265.144685 220.463521 
L 257.276462 219.370555 
L 251.732764 218.487449 
L 239.576985 216.077333 
L 238.320843 215.788665 
L 226.542864 212.78411 
L 224.908922 212.295274 
L 215.780512 209.490888 
L 211.497001 207.934294 
L 206.550457 206.197666 
L 198.614667 202.904444 
L 198.085081 202.667028 
L 190.670031 199.611222 
L 184.67316 196.64785 
L 183.923144 196.317999 
L 176.843611 193.024777 
L 171.261239 189.962606 
L 170.776396 189.731555 
L 164.136506 186.438333 
L 158.477029 183.145111 
L 157.849318 182.768627 
L 152.18435 179.851888 
L 146.590193 176.558666 
L 144.437397 175.209094 
L 140.785129 173.265444 
L 135.113926 169.972222 
L 131.025476 167.329448 
L 129.830214 166.679 
L 123.981098 163.385778 
L 118.843123 160.092555 
L 117.613555 159.27961 
L 113.15718 156.799333 
L 107.7962 153.506111 
L 104.201634 151.096072 
L 102.626984 150.212889 
L 96.98264 146.919667 
L 91.978176 143.626444 
L 90.789713 142.822922 
L 86.407084 140.333222 
L 81.121967 137.04 
L 77.377793 134.487427 
L 77.036105 134.292733 
" style="fill:none;stroke:#2626ff;"/>
   </g>
   <g id="LineCollection_8">
    <path clip-path="url(#p0b011ce874)" d="M 342.296078 44.829779 
L 342.296078 48.123001 
L 342.296078 51.416223 
L 342.296078 54.709445 
L 342.296078 58.002667 
L 342.296078 61.29589 
L 342.296078 64.589112 
L 342.296078 67.882334 
L 342.296078 71.175556 
L 342.296078 74.468778 
L 342.296078 77.762001 
L 342.296078 81.055223 
L 342.296078 84.348445 
L 342.296078 87.641667 
L 342.296078 90.934889 
L 342.296078 94.228112 
L 342.296078 97.521334 
L 342.296078 98.783736 
" style="fill:none;stroke:#0101ff;"/>
    <path clip-path="url(#p0b011ce874)" d="M 342.296078 122.604709 
L 342.296078 123.867111 
L 342.296078 127.160333 
L 342.296078 130.453556 
L 342.296078 133.746778 
L 342.296078 137.04 
L 342.296078 140.333222 
L 342.296078 143.626444 
L 342.296078 146.919667 
L 342.296078 150.212889 
L 342.296078 153.506111 
L 342.296078 156.799333 
L 342.296078 160.092555 
L 342.296078 163.385778 
L 342.296078 166.679 
L 342.296078 169.972222 
L 342.296078 173.265444 
L 342.296078 176.558666 
L 342.296078 179.851888 
L 342.296078 183.145111 
L 342.296078 186.438333 
L 342.296078 189.731555 
L 342.296078 193.024777 
L 342.296078 196.317999 
L 342.296078 199.611222 
L 342.296078 202.904444 
L 342.296078 206.197666 
L 342.296078 209.490888 
L 342.296078 212.78411 
L 342.296078 216.077333 
L 342.296078 219.370555 
L 342.296078 222.663777 
L 342.296078 225.956999 
L 332.20429 228.434957 
L 318.792369 229.019638 
L 305.380448 229.003395 
L 291.968527 228.975288 
L 278.556606 228.929987 
L 265.144685 228.859072 
L 251.732764 228.75059 
L 238.320843 228.586171 
L 224.908922 228.337435 
L 211.497001 227.960919 
L 198.085081 227.392476 
L 184.67316 226.534618 
L 177.386186 225.956999 
L 171.261239 225.345185 
L 157.849318 223.685099 
L 151.039742 222.663777 
L 144.437397 221.408826 
L 134.704476 219.370555 
L 131.025476 218.378545 
L 122.173271 216.077333 
L 117.613555 214.53472 
L 111.927092 212.78411 
L 104.201634 209.721303 
L 103.540065 209.490888 
L 94.965835 206.197666 
L 90.789713 204.183242 
L 87.631291 202.904444 
L 80.506232 199.611222 
L 77.377793 197.913258 
L 73.78783 196.317999 
L 67.254803 193.024777 
L 63.965872 191.10275 
" style="fill:none;stroke:#0101ff;"/>
   </g>
   <g id="line2d_25">
    <path clip-path="url(#p0b011ce874)" d="M 90.789713 94.228112 
L 104.201634 102.666993 
L 117.613555 111.105875 
L 131.025476 119.544757 
L 144.437397 127.983639 
L 157.849318 136.422521 
L 171.261239 144.861403 
L 184.67316 153.300285 
L 198.085081 161.739166 
L 211.497001 170.178048 
L 224.908922 178.61693 
L 238.320843 187.055812 
L 251.732764 195.494694 
L 265.144685 203.933576 
L 278.556606 212.372458 
L 291.968527 220.811339 
L 305.380448 229.250221 
" style="fill:none;stroke:#e36f47;stroke-dasharray:22.2,9.6;stroke-dashoffset:0;stroke-width:6;"/>
   </g>
   <g id="patch_3">
    <path d="M 53.906931 234.782835 
L 53.906931 39.297165 
" style="fill:none;stroke:#000000;stroke-linecap:square;stroke-linejoin:miter;"/>
   </g>
   <g id="patch_4">
    <path d="M 53.906931 234.782835 
L 409.322835 234.782835 
" style="fill:none;stroke:#000000;stroke-linecap:square;stroke-linejoin:miter;"/>
   </g>
   <g id="text_15">
    <g clip-path="url(#p0b011ce874)">
     <!-- 0.304 -->
     <g style="fill:#dedeff;" transform="translate(227.138479 96.38016)rotate(-270)scale(0.1 -0.1)">
      <defs>
       <path d="M 31.78125 66.40625 
Q 24.171875 66.40625 20.328125 58.90625 
Q 16.5 51.421875 16.5 36.375 
Q 16.5 21.390625 20.328125 13.890625 
Q 24.171875 6.390625 31.78125 6.390625 
Q 39.453125 6.390625 43.28125 13.890625 
Q 47.125 21.390625 47.125 36.375 
Q 47.125 51.421875 43.28125 58.90625 
Q 39.453125 66.40625 31.78125 66.40625 
z
M 31.78125 74.21875 
Q 44.046875 74.21875 50.515625 64.515625 
Q 56.984375 54.828125 56.984375 36.375 
Q 56.984375 17.96875 50.515625 8.265625 
Q 44.046875 -1.421875 31.78125 -1.421875 
Q 19.53125 -1.421875 13.0625 8.265625 
Q 6.59375 17.96875 6.59375 36.375 
Q 6.59375 54.828125 13.0625 64.515625 
Q 19.53125 74.21875 31.78125 74.21875 
z
" id="DejaVuSans-48"/>
       <path d="M 10.6875 12.40625 
L 21 12.40625 
L 21 0 
L 10.6875 0 
z
" id="DejaVuSans-46"/>
       <path d="M 40.578125 39.3125 
Q 47.65625 37.796875 51.625 33 
Q 55.609375 28.21875 55.609375 21.1875 
Q 55.609375 10.40625 48.1875 4.484375 
Q 40.765625 -1.421875 27.09375 -1.421875 
Q 22.515625 -1.421875 17.65625 -0.515625 
Q 12.796875 0.390625 7.625 2.203125 
L 7.625 11.71875 
Q 11.71875 9.328125 16.59375 8.109375 
Q 21.484375 6.890625 26.8125 6.890625 
Q 36.078125 6.890625 40.9375 10.546875 
Q 45.796875 14.203125 45.796875 21.1875 
Q 45.796875 27.640625 41.28125 31.265625 
Q 36.765625 34.90625 28.71875 34.90625 
L 20.21875 34.90625 
L 20.21875 43.015625 
L 29.109375 43.015625 
Q 36.375 43.015625 40.234375 45.921875 
Q 44.09375 48.828125 44.09375 54.296875 
Q 44.09375 59.90625 40.109375 62.90625 
Q 36.140625 65.921875 28.71875 65.921875 
Q 24.65625 65.921875 20.015625 65.03125 
Q 15.375 64.15625 9.8125 62.3125 
L 9.8125 71.09375 
Q 15.4375 72.65625 20.34375 73.4375 
Q 25.25 74.21875 29.59375 74.21875 
Q 40.828125 74.21875 47.359375 69.109375 
Q 53.90625 64.015625 53.90625 55.328125 
Q 53.90625 49.265625 50.4375 45.09375 
Q 46.96875 40.921875 40.578125 39.3125 
z
" id="DejaVuSans-51"/>
       <path d="M 37.796875 64.3125 
L 12.890625 25.390625 
L 37.796875 25.390625 
z
M 35.203125 72.90625 
L 47.609375 72.90625 
L 47.609375 25.390625 
L 58.015625 25.390625 
L 58.015625 17.1875 
L 47.609375 17.1875 
L 47.609375 0 
L 37.796875 0 
L 37.796875 17.1875 
L 4.890625 17.1875 
L 4.890625 26.703125 
z
" id="DejaVuSans-52"/>
      </defs>
      <use xlink:href="#DejaVuSans-48"/>
      <use x="63.623047" xlink:href="#DejaVuSans-46"/>
      <use x="95.410156" xlink:href="#DejaVuSans-51"/>
      <use x="159.033203" xlink:href="#DejaVuSans-48"/>
      <use x="222.65625" xlink:href="#DejaVuSans-52"/>
     </g>
    </g>
   </g>
   <g id="text_16">
    <g clip-path="url(#p0b011ce874)">
     <!-- 0.339 -->
     <g style="fill:#b9b9ff;" transform="translate(255.182224 96.38016)rotate(-270)scale(0.1 -0.1)">
      <defs>
       <path d="M 10.984375 1.515625 
L 10.984375 10.5 
Q 14.703125 8.734375 18.5 7.8125 
Q 22.3125 6.890625 25.984375 6.890625 
Q 35.75 6.890625 40.890625 13.453125 
Q 46.046875 20.015625 46.78125 33.40625 
Q 43.953125 29.203125 39.59375 26.953125 
Q 35.25 24.703125 29.984375 24.703125 
Q 19.046875 24.703125 12.671875 31.3125 
Q 6.296875 37.9375 6.296875 49.421875 
Q 6.296875 60.640625 12.9375 67.421875 
Q 19.578125 74.21875 30.609375 74.21875 
Q 43.265625 74.21875 49.921875 64.515625 
Q 56.59375 54.828125 56.59375 36.375 
Q 56.59375 19.140625 48.40625 8.859375 
Q 40.234375 -1.421875 26.421875 -1.421875 
Q 22.703125 -1.421875 18.890625 -0.6875 
Q 15.09375 0.046875 10.984375 1.515625 
z
M 30.609375 32.421875 
Q 37.25 32.421875 41.125 36.953125 
Q 45.015625 41.5 45.015625 49.421875 
Q 45.015625 57.28125 41.125 61.84375 
Q 37.25 66.40625 30.609375 66.40625 
Q 23.96875 66.40625 20.09375 61.84375 
Q 16.21875 57.28125 16.21875 49.421875 
Q 16.21875 41.5 20.09375 36.953125 
Q 23.96875 32.421875 30.609375 32.421875 
z
" id="DejaVuSans-57"/>
      </defs>
      <use xlink:href="#DejaVuSans-48"/>
      <use x="63.623047" xlink:href="#DejaVuSans-46"/>
      <use x="95.410156" xlink:href="#DejaVuSans-51"/>
      <use x="159.033203" xlink:href="#DejaVuSans-51"/>
      <use x="222.65625" xlink:href="#DejaVuSans-57"/>
     </g>
    </g>
   </g>
   <g id="text_17">
    <g clip-path="url(#p0b011ce874)">
     <!-- 0.373 -->
     <g style="fill:#9494ff;" transform="translate(184.682165 163.413726)rotate(-325.929912)scale(0.1 -0.1)">
      <defs>
       <path d="M 8.203125 72.90625 
L 55.078125 72.90625 
L 55.078125 68.703125 
L 28.609375 0 
L 18.3125 0 
L 43.21875 64.59375 
L 8.203125 64.59375 
z
" id="DejaVuSans-55"/>
      </defs>
      <use xlink:href="#DejaVuSans-48"/>
      <use x="63.623047" xlink:href="#DejaVuSans-46"/>
      <use x="95.410156" xlink:href="#DejaVuSans-51"/>
      <use x="159.033203" xlink:href="#DejaVuSans-55"/>
      <use x="222.65625" xlink:href="#DejaVuSans-51"/>
     </g>
    </g>
   </g>
   <g id="text_18">
    <g clip-path="url(#p0b011ce874)">
     <!-- 0.407 -->
     <g style="fill:#6f6fff;" transform="translate(287.648056 96.38016)rotate(-270)scale(0.1 -0.1)">
      <use xlink:href="#DejaVuSans-48"/>
      <use x="63.623047" xlink:href="#DejaVuSans-46"/>
      <use x="95.410156" xlink:href="#DejaVuSans-52"/>
      <use x="159.033203" xlink:href="#DejaVuSans-48"/>
      <use x="222.65625" xlink:href="#DejaVuSans-55"/>
     </g>
    </g>
   </g>
   <g id="text_19">
    <g clip-path="url(#p0b011ce874)">
     <!-- 0.441 -->
     <g style="fill:#4b4bff;" transform="translate(223.986382 203.291696)rotate(-338.609463)scale(0.1 -0.1)">
      <defs>
       <path d="M 12.40625 8.296875 
L 28.515625 8.296875 
L 28.515625 63.921875 
L 10.984375 60.40625 
L 10.984375 69.390625 
L 28.421875 72.90625 
L 38.28125 72.90625 
L 38.28125 8.296875 
L 54.390625 8.296875 
L 54.390625 0 
L 12.40625 0 
z
" id="DejaVuSans-49"/>
      </defs>
      <use xlink:href="#DejaVuSans-48"/>
      <use x="63.623047" xlink:href="#DejaVuSans-46"/>
      <use x="95.410156" xlink:href="#DejaVuSans-52"/>
      <use x="159.033203" xlink:href="#DejaVuSans-52"/>
      <use x="222.65625" xlink:href="#DejaVuSans-49"/>
     </g>
    </g>
   </g>
   <g id="text_20">
    <g clip-path="url(#p0b011ce874)">
     <!-- 0.476 -->
     <g style="fill:#2626ff;" transform="translate(52.453913 120.62069)rotate(-322.434255)scale(0.1 -0.1)">
      <defs>
       <path d="M 33.015625 40.375 
Q 26.375 40.375 22.484375 35.828125 
Q 18.609375 31.296875 18.609375 23.390625 
Q 18.609375 15.53125 22.484375 10.953125 
Q 26.375 6.390625 33.015625 6.390625 
Q 39.65625 6.390625 43.53125 10.953125 
Q 47.40625 15.53125 47.40625 23.390625 
Q 47.40625 31.296875 43.53125 35.828125 
Q 39.65625 40.375 33.015625 40.375 
z
M 52.59375 71.296875 
L 52.59375 62.3125 
Q 48.875 64.0625 45.09375 64.984375 
Q 41.3125 65.921875 37.59375 65.921875 
Q 27.828125 65.921875 22.671875 59.328125 
Q 17.53125 52.734375 16.796875 39.40625 
Q 19.671875 43.65625 24.015625 45.921875 
Q 28.375 48.1875 33.59375 48.1875 
Q 44.578125 48.1875 50.953125 41.515625 
Q 57.328125 34.859375 57.328125 23.390625 
Q 57.328125 12.15625 50.6875 5.359375 
Q 44.046875 -1.421875 33.015625 -1.421875 
Q 20.359375 -1.421875 13.671875 8.265625 
Q 6.984375 17.96875 6.984375 36.375 
Q 6.984375 53.65625 15.1875 63.9375 
Q 23.390625 74.21875 37.203125 74.21875 
Q 40.921875 74.21875 44.703125 73.484375 
Q 48.484375 72.75 52.59375 71.296875 
z
" id="DejaVuSans-54"/>
      </defs>
      <use xlink:href="#DejaVuSans-48"/>
      <use x="63.623047" xlink:href="#DejaVuSans-46"/>
      <use x="95.410156" xlink:href="#DejaVuSans-52"/>
      <use x="159.033203" xlink:href="#DejaVuSans-55"/>
      <use x="222.65625" xlink:href="#DejaVuSans-54"/>
     </g>
    </g>
   </g>
   <g id="text_21">
    <g clip-path="url(#p0b011ce874)">
     <!-- 0.510 -->
     <g style="fill:#0101ff;" transform="translate(339.536703 96.38016)rotate(-270)scale(0.1 -0.1)">
      <defs>
       <path d="M 10.796875 72.90625 
L 49.515625 72.90625 
L 49.515625 64.59375 
L 19.828125 64.59375 
L 19.828125 46.734375 
Q 21.96875 47.46875 24.109375 47.828125 
Q 26.265625 48.1875 28.421875 48.1875 
Q 40.625 48.1875 47.75 41.5 
Q 54.890625 34.8125 54.890625 23.390625 
Q 54.890625 11.625 47.5625 5.09375 
Q 40.234375 -1.421875 26.90625 -1.421875 
Q 22.3125 -1.421875 17.546875 -0.640625 
Q 12.796875 0.140625 7.71875 1.703125 
L 7.71875 11.625 
Q 12.109375 9.234375 16.796875 8.0625 
Q 21.484375 6.890625 26.703125 6.890625 
Q 35.15625 6.890625 40.078125 11.328125 
Q 45.015625 15.765625 45.015625 23.390625 
Q 45.015625 31 40.078125 35.4375 
Q 35.15625 39.890625 26.703125 39.890625 
Q 22.75 39.890625 18.8125 39.015625 
Q 14.890625 38.140625 10.796875 36.28125 
z
" id="DejaVuSans-53"/>
      </defs>
      <use xlink:href="#DejaVuSans-48"/>
      <use x="63.623047" xlink:href="#DejaVuSans-46"/>
      <use x="95.410156" xlink:href="#DejaVuSans-53"/>
      <use x="159.033203" xlink:href="#DejaVuSans-49"/>
      <use x="222.65625" xlink:href="#DejaVuSans-48"/>
     </g>
    </g>
   </g>
   <g id="text_22">
    <!-- Max(I) -->
    <g transform="translate(208.958633 33.297165)scale(0.16 -0.16)">
     <defs>
      <path d="M 1.125 1.8125 
Q 7.328125 2.4375 9.078125 4.609375 
Q 10.84375 6.78125 10.84375 14.703125 
L 10.84375 55.328125 
Q 10.84375 60.75 9.125 62.375 
Q 7.421875 64.015625 1.375 64.3125 
L 1.375 66.15625 
L 21.140625 66.15625 
L 44.28125 15.71875 
L 66.40625 66.15625 
L 86.328125 66.15625 
L 86.328125 64.3125 
Q 80.765625 63.921875 79.15625 62.28125 
Q 77.546875 60.640625 77.546875 55.328125 
L 77.546875 10.84375 
Q 77.546875 5.375 79.15625 3.828125 
Q 80.765625 2.296875 86.328125 1.8125 
L 86.328125 0 
L 58.296875 0 
L 58.296875 1.8125 
Q 64.359375 2.296875 65.84375 3.984375 
Q 67.328125 5.671875 67.328125 12.015625 
L 67.328125 56.9375 
L 41.75 0 
L 40.375 0 
L 15.234375 54.59375 
L 15.234375 14.703125 
Q 15.234375 6.5 17.625 4 
Q 19.1875 2.390625 24.609375 1.8125 
L 24.609375 0 
L 1.125 0 
z
" id="Times-Roman-77"/>
      <path d="M 28.65625 27.046875 
Q 23.046875 25.203125 19.390625 22.953125 
Q 12.359375 18.609375 12.359375 13.09375 
Q 12.359375 8.640625 15.28125 6.546875 
Q 17.1875 5.171875 19.53125 5.171875 
Q 22.75 5.171875 25.703125 6.984375 
Q 28.65625 8.796875 28.65625 11.578125 
z
M 3.65625 9.71875 
Q 3.65625 16.796875 10.75 21.53125 
Q 15.234375 24.46875 28.65625 29.5 
L 28.65625 33.640625 
Q 28.65625 38.625 27.6875 40.578125 
Q 26.03125 43.84375 20.796875 43.84375 
Q 18.3125 43.84375 16.0625 42.578125 
Q 13.8125 41.265625 13.8125 38.96875 
Q 13.8125 38.375 14.0625 36.984375 
Q 14.3125 35.59375 14.3125 35.203125 
Q 14.3125 32.46875 12.5 31.390625 
Q 11.46875 30.765625 10.0625 30.765625 
Q 7.859375 30.765625 6.6875 32.203125 
Q 5.515625 33.640625 5.515625 35.40625 
Q 5.515625 38.8125 9.734375 42.546875 
Q 13.96875 46.296875 22.125 46.296875 
Q 31.59375 46.296875 34.96875 40.140625 
Q 36.765625 36.765625 36.765625 30.328125 
L 36.765625 10.75 
Q 36.765625 7.90625 37.15625 6.84375 
Q 37.796875 4.9375 39.796875 4.9375 
Q 40.921875 4.9375 41.65625 5.265625 
Q 42.390625 5.609375 44.1875 6.9375 
L 44.1875 4.390625 
Q 42.625 2.484375 40.828125 1.265625 
Q 38.09375 -0.59375 35.25 -0.59375 
Q 31.9375 -0.59375 30.4375 1.5625 
Q 28.953125 3.71875 28.8125 6.6875 
Q 25.09375 3.46875 22.46875 1.90625 
Q 18.015625 -0.734375 14.015625 -0.734375 
Q 9.8125 -0.734375 6.734375 2.21875 
Q 3.65625 5.171875 3.65625 9.71875 
z
M 22.265625 46.296875 
z
" id="Times-Roman-97"/>
      <path d="M 23.140625 44.875 
L 23.140625 43.5 
Q 21.296875 43.453125 20 42.984375 
Q 18.703125 42.53125 18.703125 41.0625 
Q 18.703125 40.140625 21.296875 35.84375 
Q 22.65625 33.59375 24.75 30.328125 
Q 27.640625 34.28125 29.046875 36.53125 
Q 31.453125 40.140625 31.453125 41.21875 
Q 31.453125 42.484375 30.421875 42.921875 
Q 29.390625 43.359375 27.546875 43.5 
L 27.546875 44.875 
L 43.265625 44.875 
L 43.265625 43.5 
Q 40.765625 43.3125 38.609375 42.15625 
Q 36.46875 41.015625 35.15625 39.109375 
L 26.8125 27.046875 
L 39.703125 7.515625 
Q 42.1875 3.71875 43.921875 2.59375 
Q 45.65625 1.46875 47.90625 1.375 
L 47.90625 0 
L 27.734375 0 
L 27.734375 1.375 
L 29.15625 1.46875 
Q 30.28125 1.5625 31.03125 2.140625 
Q 31.78125 2.734375 31.78125 3.609375 
Q 31.78125 4.546875 29.9375 7.71875 
Q 29.046875 9.28125 27.296875 11.96875 
Q 26.46875 13.28125 24.828125 15.625 
Q 23.1875 17.96875 22.078125 19.625 
L 14.203125 7.375 
Q 12.796875 5.171875 12.453125 4.4375 
Q 12.109375 3.71875 12.109375 3.21875 
Q 12.109375 2.296875 12.859375 2 
Q 13.625 1.703125 16.15625 1.375 
L 16.15625 0 
L 1.703125 0 
L 1.703125 1.375 
Q 4.34375 1.90625 5.609375 2.734375 
Q 6.890625 3.5625 8.984375 6.59375 
L 20.359375 23.140625 
L 10.984375 37.359375 
Q 8.15625 41.609375 7.078125 42.390625 
Q 6 43.171875 2.390625 43.5 
L 2.390625 44.875 
z
" id="Times-Roman-120"/>
      <path d="M 4.59375 25.09375 
Q 4.59375 42.09375 14.75 54.9375 
Q 21 62.796875 29.5 67.578125 
L 30.421875 65.96875 
Q 22.5625 59.71875 19.1875 53.8125 
Q 13.28125 43.5 13.28125 26.375 
Q 13.28125 13.671875 15.53125 5.421875 
Q 19.484375 -9.03125 30.421875 -16.21875 
L 29.15625 -17.828125 
Q 23.140625 -14.9375 16.15625 -6.546875 
Q 4.59375 7.375 4.59375 25.09375 
z
" id="Times-Roman-40"/>
      <path d="M 1.609375 1.8125 
Q 7.71875 2.25 9.515625 3.640625 
Q 11.328125 5.03125 11.328125 10.84375 
L 11.328125 55.328125 
Q 11.328125 60.84375 9.515625 62.421875 
Q 7.71875 64.015625 1.609375 64.3125 
L 1.609375 66.15625 
L 31.203125 66.15625 
L 31.203125 64.3125 
Q 25.09375 64.015625 23.28125 62.421875 
Q 21.484375 60.84375 21.484375 55.328125 
L 21.484375 10.84375 
Q 21.484375 5.03125 23.28125 3.640625 
Q 25.09375 2.25 31.203125 1.8125 
L 31.203125 0 
L 1.609375 0 
z
M 16.40625 66.15625 
z
" id="Times-Roman-73"/>
      <path d="M 28.46875 24.609375 
Q 28.46875 17.328125 26.5625 10.828125 
Q 24.65625 4.34375 21 -1.421875 
Q 17.140625 -7.5625 10.6875 -12.890625 
Q 6.453125 -16.40625 3.5625 -17.828125 
L 2.640625 -16.21875 
Q 10.15625 -10.5 13.625 -4.546875 
Q 19.78125 6 19.78125 23.34375 
Q 19.78125 37.359375 16.9375 46.234375 
Q 12.984375 58.796875 2.640625 65.96875 
L 3.90625 67.578125 
Q 11.625 63.28125 18.265625 54.59375 
Q 28.46875 41.21875 28.46875 24.609375 
z
" id="Times-Roman-41"/>
     </defs>
     <use xlink:href="#Times-Roman-77"/>
     <use x="88.916016" xlink:href="#Times-Roman-97"/>
     <use x="133.300781" xlink:href="#Times-Roman-120"/>
     <use x="183.300781" xlink:href="#Times-Roman-40"/>
     <use x="216.601562" xlink:href="#Times-Roman-73"/>
     <use x="249.902344" xlink:href="#Times-Roman-41"/>
    </g>
   </g>
  </g>
 </g>
 <defs>
  <clipPath id="p0b011ce874">
   <rect height="195.485669" width="355.415904" x="53.906931" y="39.297165"/>
  </clipPath>
 </defs>
</svg>
