<?xml version="1.0" encoding="utf-8" standalone="no"?>
<!DOCTYPE svg PUBLIC "-//W3C//DTD SVG 1.1//EN"
  "http://www.w3.org/Graphics/SVG/1.1/DTD/svg11.dtd">
<!-- Created with matplotlib (https://matplotlib.org/) -->
<svg height="288pt" version="1.1" viewBox="0 0 432 288" width="432pt" xmlns="http://www.w3.org/2000/svg" xmlns:xlink="http://www.w3.org/1999/xlink">
 <metadata>
  <rdf:RDF xmlns:cc="http://creativecommons.org/ns#" xmlns:dc="http://purl.org/dc/elements/1.1/" xmlns:rdf="http://www.w3.org/1999/02/22-rdf-syntax-ns#">
   <cc:Work>
    <dc:type rdf:resource="http://purl.org/dc/dcmitype/StillImage"/>
    <dc:date>2021-03-05T14:02:14.680257</dc:date>
    <dc:format>image/svg+xml</dc:format>
    <dc:creator>
     <cc:Agent>
      <dc:title>Matplotlib v3.3.4, https://matplotlib.org/</dc:title>
     </cc:Agent>
    </dc:creator>
   </cc:Work>
  </rdf:RDF>
 </metadata>
 <defs>
  <style type="text/css">*{stroke-linecap:butt;stroke-linejoin:round;}</style>
 </defs>
 <g id="figure_1">
  <g id="patch_1">
   <path d="M 0 288 
L 432 288 
L 432 0 
L 0 0 
z
" style="fill:#ffffff;"/>
  </g>
  <g id="axes_1">
   <g id="patch_2">
    <path d="M 59.906697 234.782835 
L 409.322835 234.782835 
L 409.322835 39.297165 
L 59.906697 39.297165 
z
" style="fill:#ffffff;"/>
   </g>
   <g id="matplotlib.axis_1">
    <g id="xtick_1">
     <g id="line2d_1">
      <path clip-path="url(#paf581d0124)" d="M 69.795833 234.782835 
L 69.795833 39.297165 
" style="fill:none;stroke:#000000;stroke-linecap:square;stroke-opacity:0.1;stroke-width:0.5;"/>
     </g>
     <g id="line2d_2">
      <defs>
       <path d="M 0 0 
L 0 -2.5 
" id="m4d4afe9ebe" style="stroke:#000000;stroke-width:0.5;"/>
      </defs>
      <g>
       <use style="stroke:#000000;stroke-width:0.5;" x="69.795833" xlink:href="#m4d4afe9ebe" y="234.782835"/>
      </g>
     </g>
     <g id="text_1">
      <!-- $\mathregular{0}$ -->
      <g transform="translate(66.795833 246.510335)scale(0.12 -0.12)">
       <defs>
        <path d="M 23.921875 1.8125 
Q 31.109375 1.8125 33.78125 9.671875 
Q 36.46875 17.53125 36.46875 32.421875 
Q 36.46875 44.28125 34.859375 51.375 
Q 31.84375 64.546875 23.53125 64.546875 
Q 15.234375 64.546875 12.15625 50.984375 
Q 10.546875 43.75 10.546875 31.9375 
Q 10.546875 20.84375 12.203125 14.203125 
Q 15.328125 1.8125 23.921875 1.8125 
z
M 23.78125 67.1875 
Q 35.015625 67.1875 41.21875 55.421875 
Q 46.140625 45.90625 46.140625 33.546875 
Q 46.140625 23.828125 43.109375 15.234375 
Q 37.40625 -0.921875 23.34375 -0.921875 
Q 13.71875 -0.921875 7.515625 7.8125 
Q 0.875 17.140625 0.875 33.15625 
Q 0.875 45.75 5.328125 54.828125 
Q 11.328125 67.1875 23.78125 67.1875 
z
" id="Times-Roman-48"/>
       </defs>
       <use transform="translate(0 0.8125)" xlink:href="#Times-Roman-48"/>
      </g>
     </g>
    </g>
    <g id="xtick_2">
     <g id="line2d_3">
      <path clip-path="url(#paf581d0124)" d="M 138.470388 234.782835 
L 138.470388 39.297165 
" style="fill:none;stroke:#000000;stroke-linecap:square;stroke-opacity:0.1;stroke-width:0.5;"/>
     </g>
     <g id="line2d_4">
      <g>
       <use style="stroke:#000000;stroke-width:0.5;" x="138.470388" xlink:href="#m4d4afe9ebe" y="234.782835"/>
      </g>
     </g>
     <g id="text_2">
      <!-- $\mathregular{5}$ -->
      <g transform="translate(135.470388 246.510335)scale(0.12 -0.12)">
       <defs>
        <path d="M 7.46875 8.9375 
Q 10.25 8.9375 14.765625 5.78125 
Q 19.28125 2.640625 21.734375 2.640625 
Q 27.34375 2.640625 31.546875 7.59375 
Q 35.75 12.546875 35.75 19.78125 
Q 35.75 32.421875 22.265625 37.984375 
Q 14.796875 41.0625 8.34375 41.0625 
Q 7.28125 41.0625 7 41.140625 
Q 6.734375 41.21875 6.34375 41.65625 
Q 6.453125 42.046875 6.515625 42.3125 
Q 6.59375 42.578125 6.6875 42.828125 
L 17.328125 66.15625 
L 38.28125 66.15625 
Q 39.84375 66.15625 40.6875 66.6875 
Q 41.546875 67.234375 42.921875 68.703125 
L 43.703125 68.015625 
L 39.890625 58.984375 
Q 39.703125 58.546875 38.8125 58.421875 
Q 37.9375 58.296875 36.921875 58.296875 
L 18.015625 58.296875 
L 13.875 49.75 
Q 21.875 48.390625 25.59375 47.171875 
Q 31.6875 45.125 35.796875 41.109375 
Q 39.3125 37.640625 41.109375 33.3125 
Q 42.921875 29 42.921875 24.171875 
Q 42.921875 13.375 35.234375 6.140625 
Q 27.546875 -1.078125 15.765625 -1.078125 
Q 10.984375 -1.078125 8.0625 -0.140625 
Q 3.171875 1.375 3.171875 5.28125 
Q 3.171875 6.734375 4.21875 7.828125 
Q 5.28125 8.9375 7.46875 8.9375 
z
" id="Times-Roman-53"/>
       </defs>
       <use transform="translate(0 0.296875)" xlink:href="#Times-Roman-53"/>
      </g>
     </g>
    </g>
    <g id="xtick_3">
     <g id="line2d_5">
      <path clip-path="url(#paf581d0124)" d="M 207.144943 234.782835 
L 207.144943 39.297165 
" style="fill:none;stroke:#000000;stroke-linecap:square;stroke-opacity:0.1;stroke-width:0.5;"/>
     </g>
     <g id="line2d_6">
      <g>
       <use style="stroke:#000000;stroke-width:0.5;" x="207.144943" xlink:href="#m4d4afe9ebe" y="234.782835"/>
      </g>
     </g>
     <g id="text_3">
      <!-- $\mathregular{10}$ -->
      <g transform="translate(201.144943 246.510335)scale(0.12 -0.12)">
       <defs>
        <path d="M 29.59375 67.09375 
Q 29.78125 66.84375 29.796875 66.71875 
Q 29.828125 66.609375 29.828125 66.15625 
L 29.828125 7.375 
Q 29.828125 3.609375 31.828125 2.578125 
Q 33.84375 1.5625 39.3125 1.375 
L 39.3125 0 
L 11.765625 0 
L 11.765625 1.46875 
Q 17.671875 1.765625 19.484375 3.078125 
Q 21.296875 4.390625 21.296875 8.796875 
L 21.296875 54 
Q 21.296875 56.34375 20.703125 57.5625 
Q 20.125 58.796875 18.171875 58.796875 
Q 16.890625 58.796875 14.859375 58.078125 
Q 12.84375 57.375 11.078125 56.59375 
L 11.078125 57.953125 
L 29 67.09375 
L 29.59375 67.09375 
z
" id="Times-Roman-49"/>
       </defs>
       <use transform="translate(0 0.8125)" xlink:href="#Times-Roman-49"/>
       <use transform="translate(50 0.8125)" xlink:href="#Times-Roman-48"/>
      </g>
     </g>
    </g>
    <g id="xtick_4">
     <g id="line2d_7">
      <path clip-path="url(#paf581d0124)" d="M 275.819499 234.782835 
L 275.819499 39.297165 
" style="fill:none;stroke:#000000;stroke-linecap:square;stroke-opacity:0.1;stroke-width:0.5;"/>
     </g>
     <g id="line2d_8">
      <g>
       <use style="stroke:#000000;stroke-width:0.5;" x="275.819499" xlink:href="#m4d4afe9ebe" y="234.782835"/>
      </g>
     </g>
     <g id="text_4">
      <!-- $\mathregular{15}$ -->
      <g transform="translate(269.819499 246.510335)scale(0.12 -0.12)">
       <use transform="translate(0 0.296875)" xlink:href="#Times-Roman-49"/>
       <use transform="translate(50 0.296875)" xlink:href="#Times-Roman-53"/>
      </g>
     </g>
    </g>
    <g id="xtick_5">
     <g id="line2d_9">
      <path clip-path="url(#paf581d0124)" d="M 344.494054 234.782835 
L 344.494054 39.297165 
" style="fill:none;stroke:#000000;stroke-linecap:square;stroke-opacity:0.1;stroke-width:0.5;"/>
     </g>
     <g id="line2d_10">
      <g>
       <use style="stroke:#000000;stroke-width:0.5;" x="344.494054" xlink:href="#m4d4afe9ebe" y="234.782835"/>
      </g>
     </g>
     <g id="text_5">
      <!-- $\mathregular{20}$ -->
      <g transform="translate(338.494054 246.510335)scale(0.12 -0.12)">
       <defs>
        <path d="M 2.984375 1.125 
Q 20.84375 19.671875 27.234375 28.359375 
Q 33.640625 37.0625 33.640625 45.3125 
Q 33.640625 52.546875 29.734375 56.328125 
Q 25.828125 60.109375 20.40625 60.109375 
Q 13.71875 60.109375 9.578125 55.21875 
Q 7.28125 52.546875 5.171875 46.96875 
L 3.078125 47.40625 
Q 5.515625 58.640625 11.34375 63.015625 
Q 17.1875 67.390625 23.875 67.390625 
Q 32.125 67.390625 37.21875 62.1875 
Q 42.328125 56.984375 42.328125 49.46875 
Q 42.328125 41.453125 36.8125 34.03125 
Q 31.296875 26.609375 12.84375 7.625 
L 35.25 7.625 
Q 39.9375 7.625 41.84375 8.734375 
Q 43.75 9.859375 46.140625 14.203125 
L 47.40625 13.625 
L 42 0 
L 2.984375 0 
z
" id="Times-Roman-50"/>
       </defs>
       <use transform="translate(0 0.609375)" xlink:href="#Times-Roman-50"/>
       <use transform="translate(50 0.609375)" xlink:href="#Times-Roman-48"/>
      </g>
     </g>
    </g>
    <g id="text_6">
     <!-- SD Start Time ts [days] -->
     <g transform="translate(164.898516 262.24221)scale(0.12 -0.12)">
      <defs>
       <path d="M 53.515625 70.515625 
L 53.515625 60.890625 
Q 47.90625 63.578125 42.921875 64.890625 
Q 37.9375 66.21875 33.296875 66.21875 
Q 25.25 66.21875 20.875 63.09375 
Q 16.5 59.96875 16.5 54.203125 
Q 16.5 49.359375 19.40625 46.890625 
Q 22.3125 44.4375 30.421875 42.921875 
L 36.375 41.703125 
Q 47.40625 39.59375 52.65625 34.296875 
Q 57.90625 29 57.90625 20.125 
Q 57.90625 9.515625 50.796875 4.046875 
Q 43.703125 -1.421875 29.984375 -1.421875 
Q 24.8125 -1.421875 18.96875 -0.25 
Q 13.140625 0.921875 6.890625 3.21875 
L 6.890625 13.375 
Q 12.890625 10.015625 18.65625 8.296875 
Q 24.421875 6.59375 29.984375 6.59375 
Q 38.421875 6.59375 43.015625 9.90625 
Q 47.609375 13.234375 47.609375 19.390625 
Q 47.609375 24.75 44.3125 27.78125 
Q 41.015625 30.8125 33.5 32.328125 
L 27.484375 33.5 
Q 16.453125 35.6875 11.515625 40.375 
Q 6.59375 45.0625 6.59375 53.421875 
Q 6.59375 63.09375 13.40625 68.65625 
Q 20.21875 74.21875 32.171875 74.21875 
Q 37.3125 74.21875 42.625 73.28125 
Q 47.953125 72.359375 53.515625 70.515625 
z
" id="DejaVuSans-83"/>
       <path d="M 19.671875 64.796875 
L 19.671875 8.109375 
L 31.59375 8.109375 
Q 46.6875 8.109375 53.6875 14.9375 
Q 60.6875 21.78125 60.6875 36.53125 
Q 60.6875 51.171875 53.6875 57.984375 
Q 46.6875 64.796875 31.59375 64.796875 
z
M 9.8125 72.90625 
L 30.078125 72.90625 
Q 51.265625 72.90625 61.171875 64.09375 
Q 71.09375 55.28125 71.09375 36.53125 
Q 71.09375 17.671875 61.125 8.828125 
Q 51.171875 0 30.078125 0 
L 9.8125 0 
z
" id="DejaVuSans-68"/>
       <path id="DejaVuSans-32"/>
       <path d="M 18.3125 70.21875 
L 18.3125 54.6875 
L 36.8125 54.6875 
L 36.8125 47.703125 
L 18.3125 47.703125 
L 18.3125 18.015625 
Q 18.3125 11.328125 20.140625 9.421875 
Q 21.96875 7.515625 27.59375 7.515625 
L 36.8125 7.515625 
L 36.8125 0 
L 27.59375 0 
Q 17.1875 0 13.234375 3.875 
Q 9.28125 7.765625 9.28125 18.015625 
L 9.28125 47.703125 
L 2.6875 47.703125 
L 2.6875 54.6875 
L 9.28125 54.6875 
L 9.28125 70.21875 
z
" id="DejaVuSans-116"/>
       <path d="M 34.28125 27.484375 
Q 23.390625 27.484375 19.1875 25 
Q 14.984375 22.515625 14.984375 16.5 
Q 14.984375 11.71875 18.140625 8.90625 
Q 21.296875 6.109375 26.703125 6.109375 
Q 34.1875 6.109375 38.703125 11.40625 
Q 43.21875 16.703125 43.21875 25.484375 
L 43.21875 27.484375 
z
M 52.203125 31.203125 
L 52.203125 0 
L 43.21875 0 
L 43.21875 8.296875 
Q 40.140625 3.328125 35.546875 0.953125 
Q 30.953125 -1.421875 24.3125 -1.421875 
Q 15.921875 -1.421875 10.953125 3.296875 
Q 6 8.015625 6 15.921875 
Q 6 25.140625 12.171875 29.828125 
Q 18.359375 34.515625 30.609375 34.515625 
L 43.21875 34.515625 
L 43.21875 35.40625 
Q 43.21875 41.609375 39.140625 45 
Q 35.0625 48.390625 27.6875 48.390625 
Q 23 48.390625 18.546875 47.265625 
Q 14.109375 46.140625 10.015625 43.890625 
L 10.015625 52.203125 
Q 14.9375 54.109375 19.578125 55.046875 
Q 24.21875 56 28.609375 56 
Q 40.484375 56 46.34375 49.84375 
Q 52.203125 43.703125 52.203125 31.203125 
z
" id="DejaVuSans-97"/>
       <path d="M 41.109375 46.296875 
Q 39.59375 47.171875 37.8125 47.578125 
Q 36.03125 48 33.890625 48 
Q 26.265625 48 22.1875 43.046875 
Q 18.109375 38.09375 18.109375 28.8125 
L 18.109375 0 
L 9.078125 0 
L 9.078125 54.6875 
L 18.109375 54.6875 
L 18.109375 46.1875 
Q 20.953125 51.171875 25.484375 53.578125 
Q 30.03125 56 36.53125 56 
Q 37.453125 56 38.578125 55.875 
Q 39.703125 55.765625 41.0625 55.515625 
z
" id="DejaVuSans-114"/>
       <path d="M -0.296875 72.90625 
L 61.375 72.90625 
L 61.375 64.59375 
L 35.5 64.59375 
L 35.5 0 
L 25.59375 0 
L 25.59375 64.59375 
L -0.296875 64.59375 
z
" id="DejaVuSans-84"/>
       <path d="M 9.421875 54.6875 
L 18.40625 54.6875 
L 18.40625 0 
L 9.421875 0 
z
M 9.421875 75.984375 
L 18.40625 75.984375 
L 18.40625 64.59375 
L 9.421875 64.59375 
z
" id="DejaVuSans-105"/>
       <path d="M 52 44.1875 
Q 55.375 50.25 60.0625 53.125 
Q 64.75 56 71.09375 56 
Q 79.640625 56 84.28125 50.015625 
Q 88.921875 44.046875 88.921875 33.015625 
L 88.921875 0 
L 79.890625 0 
L 79.890625 32.71875 
Q 79.890625 40.578125 77.09375 44.375 
Q 74.3125 48.1875 68.609375 48.1875 
Q 61.625 48.1875 57.5625 43.546875 
Q 53.515625 38.921875 53.515625 30.90625 
L 53.515625 0 
L 44.484375 0 
L 44.484375 32.71875 
Q 44.484375 40.625 41.703125 44.40625 
Q 38.921875 48.1875 33.109375 48.1875 
Q 26.21875 48.1875 22.15625 43.53125 
Q 18.109375 38.875 18.109375 30.90625 
L 18.109375 0 
L 9.078125 0 
L 9.078125 54.6875 
L 18.109375 54.6875 
L 18.109375 46.1875 
Q 21.1875 51.21875 25.484375 53.609375 
Q 29.78125 56 35.6875 56 
Q 41.65625 56 45.828125 52.96875 
Q 50 49.953125 52 44.1875 
z
" id="DejaVuSans-109"/>
       <path d="M 56.203125 29.59375 
L 56.203125 25.203125 
L 14.890625 25.203125 
Q 15.484375 15.921875 20.484375 11.0625 
Q 25.484375 6.203125 34.421875 6.203125 
Q 39.59375 6.203125 44.453125 7.46875 
Q 49.3125 8.734375 54.109375 11.28125 
L 54.109375 2.78125 
Q 49.265625 0.734375 44.1875 -0.34375 
Q 39.109375 -1.421875 33.890625 -1.421875 
Q 20.796875 -1.421875 13.15625 6.1875 
Q 5.515625 13.8125 5.515625 26.8125 
Q 5.515625 40.234375 12.765625 48.109375 
Q 20.015625 56 32.328125 56 
Q 43.359375 56 49.78125 48.890625 
Q 56.203125 41.796875 56.203125 29.59375 
z
M 47.21875 32.234375 
Q 47.125 39.59375 43.09375 43.984375 
Q 39.0625 48.390625 32.421875 48.390625 
Q 24.90625 48.390625 20.390625 44.140625 
Q 15.875 39.890625 15.1875 32.171875 
z
" id="DejaVuSans-101"/>
       <path d="M 44.28125 53.078125 
L 44.28125 44.578125 
Q 40.484375 46.53125 36.375 47.5 
Q 32.28125 48.484375 27.875 48.484375 
Q 21.1875 48.484375 17.84375 46.4375 
Q 14.5 44.390625 14.5 40.28125 
Q 14.5 37.15625 16.890625 35.375 
Q 19.28125 33.59375 26.515625 31.984375 
L 29.59375 31.296875 
Q 39.15625 29.25 43.1875 25.515625 
Q 47.21875 21.78125 47.21875 15.09375 
Q 47.21875 7.46875 41.1875 3.015625 
Q 35.15625 -1.421875 24.609375 -1.421875 
Q 20.21875 -1.421875 15.453125 -0.5625 
Q 10.6875 0.296875 5.421875 2 
L 5.421875 11.28125 
Q 10.40625 8.6875 15.234375 7.390625 
Q 20.0625 6.109375 24.8125 6.109375 
Q 31.15625 6.109375 34.5625 8.28125 
Q 37.984375 10.453125 37.984375 14.40625 
Q 37.984375 18.0625 35.515625 20.015625 
Q 33.0625 21.96875 24.703125 23.78125 
L 21.578125 24.515625 
Q 13.234375 26.265625 9.515625 29.90625 
Q 5.8125 33.546875 5.8125 39.890625 
Q 5.8125 47.609375 11.28125 51.796875 
Q 16.75 56 26.8125 56 
Q 31.78125 56 36.171875 55.265625 
Q 40.578125 54.546875 44.28125 53.078125 
z
" id="DejaVuSans-115"/>
       <path d="M 8.59375 75.984375 
L 29.296875 75.984375 
L 29.296875 69 
L 17.578125 69 
L 17.578125 -6.203125 
L 29.296875 -6.203125 
L 29.296875 -13.1875 
L 8.59375 -13.1875 
z
" id="DejaVuSans-91"/>
       <path d="M 45.40625 46.390625 
L 45.40625 75.984375 
L 54.390625 75.984375 
L 54.390625 0 
L 45.40625 0 
L 45.40625 8.203125 
Q 42.578125 3.328125 38.25 0.953125 
Q 33.9375 -1.421875 27.875 -1.421875 
Q 17.96875 -1.421875 11.734375 6.484375 
Q 5.515625 14.40625 5.515625 27.296875 
Q 5.515625 40.1875 11.734375 48.09375 
Q 17.96875 56 27.875 56 
Q 33.9375 56 38.25 53.625 
Q 42.578125 51.265625 45.40625 46.390625 
z
M 14.796875 27.296875 
Q 14.796875 17.390625 18.875 11.75 
Q 22.953125 6.109375 30.078125 6.109375 
Q 37.203125 6.109375 41.296875 11.75 
Q 45.40625 17.390625 45.40625 27.296875 
Q 45.40625 37.203125 41.296875 42.84375 
Q 37.203125 48.484375 30.078125 48.484375 
Q 22.953125 48.484375 18.875 42.84375 
Q 14.796875 37.203125 14.796875 27.296875 
z
" id="DejaVuSans-100"/>
       <path d="M 32.171875 -5.078125 
Q 28.375 -14.84375 24.75 -17.8125 
Q 21.140625 -20.796875 15.09375 -20.796875 
L 7.90625 -20.796875 
L 7.90625 -13.28125 
L 13.1875 -13.28125 
Q 16.890625 -13.28125 18.9375 -11.515625 
Q 21 -9.765625 23.484375 -3.21875 
L 25.09375 0.875 
L 2.984375 54.6875 
L 12.5 54.6875 
L 29.59375 11.921875 
L 46.6875 54.6875 
L 56.203125 54.6875 
z
" id="DejaVuSans-121"/>
       <path d="M 30.421875 75.984375 
L 30.421875 -13.1875 
L 9.71875 -13.1875 
L 9.71875 -6.203125 
L 21.390625 -6.203125 
L 21.390625 69 
L 9.71875 69 
L 9.71875 75.984375 
z
" id="DejaVuSans-93"/>
      </defs>
      <use xlink:href="#DejaVuSans-83"/>
      <use x="63.476562" xlink:href="#DejaVuSans-68"/>
      <use x="140.478516" xlink:href="#DejaVuSans-32"/>
      <use x="172.265625" xlink:href="#DejaVuSans-83"/>
      <use x="235.742188" xlink:href="#DejaVuSans-116"/>
      <use x="274.951172" xlink:href="#DejaVuSans-97"/>
      <use x="336.230469" xlink:href="#DejaVuSans-114"/>
      <use x="377.34375" xlink:href="#DejaVuSans-116"/>
      <use x="416.552734" xlink:href="#DejaVuSans-32"/>
      <use x="448.339844" xlink:href="#DejaVuSans-84"/>
      <use x="506.298828" xlink:href="#DejaVuSans-105"/>
      <use x="534.082031" xlink:href="#DejaVuSans-109"/>
      <use x="631.494141" xlink:href="#DejaVuSans-101"/>
      <use x="693.017578" xlink:href="#DejaVuSans-32"/>
      <use x="724.804688" xlink:href="#DejaVuSans-116"/>
      <use x="764.013672" xlink:href="#DejaVuSans-115"/>
      <use x="816.113281" xlink:href="#DejaVuSans-32"/>
      <use x="847.900391" xlink:href="#DejaVuSans-91"/>
      <use x="886.914062" xlink:href="#DejaVuSans-100"/>
      <use x="950.390625" xlink:href="#DejaVuSans-97"/>
      <use x="1011.669922" xlink:href="#DejaVuSans-121"/>
      <use x="1070.849609" xlink:href="#DejaVuSans-115"/>
      <use x="1122.949219" xlink:href="#DejaVuSans-93"/>
     </g>
    </g>
   </g>
   <g id="matplotlib.axis_2">
    <g id="ytick_1">
     <g id="line2d_11">
      <path clip-path="url(#paf581d0124)" d="M 59.906697 229.250221 
L 409.322835 229.250221 
" style="fill:none;stroke:#000000;stroke-linecap:square;stroke-opacity:0.1;stroke-width:0.5;"/>
     </g>
     <g id="line2d_12">
      <defs>
       <path d="M 0 0 
L 2.5 0 
" id="m4ac07d9aa9" style="stroke:#000000;stroke-width:0.5;"/>
      </defs>
      <g>
       <use style="stroke:#000000;stroke-width:0.5;" x="59.906697" xlink:href="#m4ac07d9aa9" y="229.250221"/>
      </g>
     </g>
     <g id="text_7">
      <!-- $\mathregular{0}$ -->
      <g transform="translate(50.406697 233.363971)scale(0.12 -0.12)">
       <use transform="translate(0 0.8125)" xlink:href="#Times-Roman-48"/>
      </g>
     </g>
    </g>
    <g id="ytick_2">
     <g id="line2d_13">
      <path clip-path="url(#paf581d0124)" d="M 59.906697 172.330332 
L 409.322835 172.330332 
" style="fill:none;stroke:#000000;stroke-linecap:square;stroke-opacity:0.1;stroke-width:0.5;"/>
     </g>
     <g id="line2d_14">
      <g>
       <use style="stroke:#000000;stroke-width:0.5;" x="59.906697" xlink:href="#m4ac07d9aa9" y="172.330332"/>
      </g>
     </g>
     <g id="text_8">
      <!-- $\mathregular{50}$ -->
      <g transform="translate(44.406697 176.444082)scale(0.12 -0.12)">
       <use transform="translate(0 0.296875)" xlink:href="#Times-Roman-53"/>
       <use transform="translate(50 0.296875)" xlink:href="#Times-Roman-48"/>
      </g>
     </g>
    </g>
    <g id="ytick_3">
     <g id="line2d_15">
      <path clip-path="url(#paf581d0124)" d="M 59.906697 115.410442 
L 409.322835 115.410442 
" style="fill:none;stroke:#000000;stroke-linecap:square;stroke-opacity:0.1;stroke-width:0.5;"/>
     </g>
     <g id="line2d_16">
      <g>
       <use style="stroke:#000000;stroke-width:0.5;" x="59.906697" xlink:href="#m4ac07d9aa9" y="115.410442"/>
      </g>
     </g>
     <g id="text_9">
      <!-- $\mathregular{100}$ -->
      <g transform="translate(38.406697 119.524192)scale(0.12 -0.12)">
       <use transform="translate(0 0.8125)" xlink:href="#Times-Roman-49"/>
       <use transform="translate(50 0.8125)" xlink:href="#Times-Roman-48"/>
       <use transform="translate(100 0.8125)" xlink:href="#Times-Roman-48"/>
      </g>
     </g>
    </g>
    <g id="ytick_4">
     <g id="line2d_17">
      <path clip-path="url(#paf581d0124)" d="M 59.906697 58.490552 
L 409.322835 58.490552 
" style="fill:none;stroke:#000000;stroke-linecap:square;stroke-opacity:0.1;stroke-width:0.5;"/>
     </g>
     <g id="line2d_18">
      <g>
       <use style="stroke:#000000;stroke-width:0.5;" x="59.906697" xlink:href="#m4ac07d9aa9" y="58.490552"/>
      </g>
     </g>
     <g id="text_10">
      <!-- $\mathregular{150}$ -->
      <g transform="translate(38.406697 62.604302)scale(0.12 -0.12)">
       <use transform="translate(0 0.296875)" xlink:href="#Times-Roman-49"/>
       <use transform="translate(50 0.296875)" xlink:href="#Times-Roman-53"/>
       <use transform="translate(100 0.296875)" xlink:href="#Times-Roman-48"/>
      </g>
     </g>
    </g>
    <g id="text_11">
     <!-- SD Duration td [days] -->
     <g transform="translate(31.911072 202.254375)rotate(-90)scale(0.12 -0.12)">
      <defs>
       <path d="M 8.5 21.578125 
L 8.5 54.6875 
L 17.484375 54.6875 
L 17.484375 21.921875 
Q 17.484375 14.15625 20.5 10.265625 
Q 23.53125 6.390625 29.59375 6.390625 
Q 36.859375 6.390625 41.078125 11.03125 
Q 45.3125 15.671875 45.3125 23.6875 
L 45.3125 54.6875 
L 54.296875 54.6875 
L 54.296875 0 
L 45.3125 0 
L 45.3125 8.40625 
Q 42.046875 3.421875 37.71875 1 
Q 33.40625 -1.421875 27.6875 -1.421875 
Q 18.265625 -1.421875 13.375 4.4375 
Q 8.5 10.296875 8.5 21.578125 
z
M 31.109375 56 
z
" id="DejaVuSans-117"/>
       <path d="M 30.609375 48.390625 
Q 23.390625 48.390625 19.1875 42.75 
Q 14.984375 37.109375 14.984375 27.296875 
Q 14.984375 17.484375 19.15625 11.84375 
Q 23.34375 6.203125 30.609375 6.203125 
Q 37.796875 6.203125 41.984375 11.859375 
Q 46.1875 17.53125 46.1875 27.296875 
Q 46.1875 37.015625 41.984375 42.703125 
Q 37.796875 48.390625 30.609375 48.390625 
z
M 30.609375 56 
Q 42.328125 56 49.015625 48.375 
Q 55.71875 40.765625 55.71875 27.296875 
Q 55.71875 13.875 49.015625 6.21875 
Q 42.328125 -1.421875 30.609375 -1.421875 
Q 18.84375 -1.421875 12.171875 6.21875 
Q 5.515625 13.875 5.515625 27.296875 
Q 5.515625 40.765625 12.171875 48.375 
Q 18.84375 56 30.609375 56 
z
" id="DejaVuSans-111"/>
       <path d="M 54.890625 33.015625 
L 54.890625 0 
L 45.90625 0 
L 45.90625 32.71875 
Q 45.90625 40.484375 42.875 44.328125 
Q 39.84375 48.1875 33.796875 48.1875 
Q 26.515625 48.1875 22.3125 43.546875 
Q 18.109375 38.921875 18.109375 30.90625 
L 18.109375 0 
L 9.078125 0 
L 9.078125 54.6875 
L 18.109375 54.6875 
L 18.109375 46.1875 
Q 21.34375 51.125 25.703125 53.5625 
Q 30.078125 56 35.796875 56 
Q 45.21875 56 50.046875 50.171875 
Q 54.890625 44.34375 54.890625 33.015625 
z
" id="DejaVuSans-110"/>
      </defs>
      <use xlink:href="#DejaVuSans-83"/>
      <use x="63.476562" xlink:href="#DejaVuSans-68"/>
      <use x="140.478516" xlink:href="#DejaVuSans-32"/>
      <use x="172.265625" xlink:href="#DejaVuSans-68"/>
      <use x="249.267578" xlink:href="#DejaVuSans-117"/>
      <use x="312.646484" xlink:href="#DejaVuSans-114"/>
      <use x="353.759766" xlink:href="#DejaVuSans-97"/>
      <use x="415.039062" xlink:href="#DejaVuSans-116"/>
      <use x="454.248047" xlink:href="#DejaVuSans-105"/>
      <use x="482.03125" xlink:href="#DejaVuSans-111"/>
      <use x="543.212891" xlink:href="#DejaVuSans-110"/>
      <use x="606.591797" xlink:href="#DejaVuSans-32"/>
      <use x="638.378906" xlink:href="#DejaVuSans-116"/>
      <use x="677.587891" xlink:href="#DejaVuSans-100"/>
      <use x="741.064453" xlink:href="#DejaVuSans-32"/>
      <use x="772.851562" xlink:href="#DejaVuSans-91"/>
      <use x="811.865234" xlink:href="#DejaVuSans-100"/>
      <use x="875.341797" xlink:href="#DejaVuSans-97"/>
      <use x="936.621094" xlink:href="#DejaVuSans-121"/>
      <use x="995.800781" xlink:href="#DejaVuSans-115"/>
      <use x="1047.900391" xlink:href="#DejaVuSans-93"/>
     </g>
    </g>
   </g>
   <g id="LineCollection_1">
    <path clip-path="url(#paf581d0124)" d="M 151.946933 61.293857 
L 151.946933 61.905746 
L 151.946933 63.044143 
L 151.946933 64.182541 
L 151.946933 65.320939 
L 151.946933 66.459337 
L 151.946933 67.597735 
L 151.946933 68.736132 
L 151.946933 69.87453 
L 151.946933 71.012928 
L 151.946933 72.151326 
L 151.946933 73.289724 
L 151.946933 74.428121 
L 138.470388 75.360528 
L 137.546449 74.428121 
L 137.424684 73.289724 
L 137.269662 72.151326 
L 137.065589 71.012928 
L 136.785007 69.87453 
L 136.375256 68.736132 
L 135.721093 67.597735 
L 134.511235 66.459337 
L 131.517521 65.320939 
L 124.735477 64.560976 
L 124.2883 64.182541 
L 123.153312 63.044143 
L 122.940881 61.905746 
L 122.668941 60.767348 
L 122.308656 59.62895 
L 121.809132 58.490552 
L 121.070575 57.352154 
L 119.868124 56.213757 
L 117.566258 55.075359 
L 111.392824 53.936961 
L 111.000566 53.898359 
L 109.687333 52.798563 
L 108.888246 51.660165 
L 108.589651 50.521768 
L 108.202086 49.38337 
L 107.679296 48.244972 
L 106.935673 47.106574 
L 105.794596 45.968176 
L 103.822586 44.829779 
" style="fill:none;stroke:#fdfdff;"/>
   </g>
   <g id="LineCollection_2">
    <path clip-path="url(#paf581d0124)" d="M 230.98309 44.829779 
L 230.98309 45.968176 
L 230.98309 47.106574 
L 230.98309 48.244972 
L 230.98309 49.38337 
L 230.98309 50.521768 
L 230.98309 51.660165 
L 230.98309 52.798563 
L 230.98309 53.936961 
L 230.98309 55.075359 
L 230.98309 55.687248 
" style="fill:none;stroke:#d9d9ff;"/>
    <path clip-path="url(#paf581d0124)" d="M 230.98309 79.508221 
L 230.98309 156.392763 
L 230.580135 157.53116 
L 229.479336 158.669558 
L 227.493495 159.807956 
L 222.841956 160.946354 
L 220.879855 161.190096 
L 216.2053 157.53116 
L 215.126797 156.392763 
L 214.353866 155.254365 
L 213.361435 154.115967 
L 212.041519 152.977569 
L 210.20131 151.839171 
L 207.144943 150.59717 
L 197.460136 142.731989 
L 190.390258 137.04 
L 183.407077 131.348011 
L 177.731739 126.79442 
L 170.782459 121.102431 
L 162.259695 114.272044 
L 156.583029 109.718453 
L 149.363935 104.026464 
L 143.655767 99.472873 
L 133.469355 91.504088 
L 127.550915 86.950497 
L 123.080173 83.535304 
L 117.30635 78.981712 
L 72.274112 44.829779 
L 72.274112 44.829779 
" style="fill:none;stroke:#d9d9ff;"/>
   </g>
   <g id="LineCollection_3">
    <path clip-path="url(#paf581d0124)" d="M 254.118297 44.829779 
L 254.118297 45.968176 
L 254.118297 47.106574 
L 254.118297 48.244972 
L 254.118297 49.38337 
L 254.118297 50.521768 
L 254.118297 51.660165 
L 254.118297 52.798563 
L 254.118297 53.936961 
L 254.118297 55.075359 
L 254.118297 56.213757 
L 254.118297 57.352154 
L 254.118297 58.490552 
L 254.118297 59.62895 
L 254.118297 60.767348 
L 254.118297 61.905746 
L 254.118297 63.044143 
L 254.118297 64.182541 
L 254.118297 65.320939 
L 254.118297 66.459337 
L 254.118297 67.597735 
L 254.118297 68.736132 
L 254.118297 69.87453 
L 254.118297 71.012928 
L 254.118297 72.151326 
L 254.118297 73.289724 
L 254.118297 74.428121 
L 254.118297 75.566519 
L 254.118297 76.704917 
L 254.118297 77.843315 
L 254.118297 78.981712 
L 254.118297 80.12011 
L 254.118297 81.258508 
L 254.118297 82.396906 
L 254.118297 83.535304 
L 254.118297 84.673701 
L 254.118297 85.812099 
L 254.118297 86.950497 
L 254.118297 88.088895 
L 254.118297 89.227293 
L 254.118297 90.36569 
L 254.118297 91.504088 
L 254.118297 92.642486 
L 254.118297 93.780884 
L 254.118297 94.919282 
L 254.118297 96.057679 
L 254.118297 97.196077 
L 254.118297 98.334475 
L 254.118297 99.472873 
L 254.118297 100.611271 
L 254.118297 101.749668 
L 254.118297 102.361557 
" style="fill:none;stroke:#b5b5ff;"/>
    <path clip-path="url(#paf581d0124)" d="M 254.118297 126.182531 
L 254.118297 185.991105 
L 253.673147 187.129503 
L 252.088183 188.267901 
L 249.704723 189.406299 
L 248.349677 189.867439 
L 243.166244 187.129503 
L 240.426993 184.852707 
L 238.453197 183.71431 
L 234.614766 182.412674 
L 227.615821 178.022321 
L 218.935178 172.330332 
L 206.116207 163.223149 
L 189.556406 150.700774 
L 127.960852 102.888066 
L 120.535118 97.196077 
L 113.05136 91.504088 
L 108.559911 88.088895 
L 101.111857 82.396906 
L 93.579218 76.704917 
L 86.036308 71.012928 
L 81.479416 67.597735 
L 73.984098 61.905746 
L 69.795833 58.85177 
L 69.795833 58.85177 
" style="fill:none;stroke:#b5b5ff;"/>
   </g>
   <g id="LineCollection_4">
    <path clip-path="url(#paf581d0124)" d="M 269.571492 44.829779 
L 269.571492 45.968176 
L 269.571492 47.106574 
L 269.571492 48.244972 
L 269.571492 49.38337 
L 269.571492 50.521768 
L 269.571492 51.660165 
L 269.571492 52.798563 
L 269.571492 53.936961 
L 269.571492 55.075359 
L 269.571492 55.687248 
" style="fill:none;stroke:#9090ff;"/>
    <path clip-path="url(#paf581d0124)" d="M 269.571492 79.508221 
L 269.571492 198.513481 
L 269.453357 199.651879 
L 268.340922 200.790276 
L 266.715338 201.928674 
L 264.118489 203.067072 
L 262.084588 203.646379 
L 257.156256 201.928674 
L 248.175935 198.513481 
L 240.659459 195.098288 
L 233.759275 191.683094 
L 227.534783 188.267901 
L 219.790257 183.71431 
L 212.591489 179.160718 
L 204.055639 173.468729 
L 195.951091 167.77674 
L 183.417807 158.669558 
L 162.194239 142.731989 
L 84.179406 83.535304 
L 69.795833 72.733569 
L 69.795833 72.733569 
" style="fill:none;stroke:#9090ff;"/>
   </g>
   <g id="LineCollection_5">
    <path clip-path="url(#paf581d0124)" d="M 282.327778 44.829779 
L 282.327778 45.968176 
L 282.327778 47.106574 
L 282.327778 48.244972 
L 282.327778 49.38337 
L 282.327778 50.521768 
L 282.327778 51.660165 
L 282.327778 52.798563 
L 282.327778 53.936961 
L 282.327778 55.075359 
L 282.327778 56.213757 
L 282.327778 57.352154 
L 282.327778 58.490552 
L 282.327778 59.62895 
L 282.327778 60.767348 
L 282.327778 61.905746 
L 282.327778 63.044143 
L 282.327778 64.182541 
L 282.327778 65.320939 
L 282.327778 66.459337 
L 282.327778 67.597735 
L 282.327778 68.736132 
L 282.327778 69.87453 
L 282.327778 71.012928 
L 282.327778 72.151326 
L 282.327778 73.289724 
L 282.327778 74.428121 
L 282.327778 75.566519 
L 282.327778 76.704917 
L 282.327778 77.843315 
L 282.327778 78.981712 
L 282.327778 80.12011 
L 282.327778 81.258508 
L 282.327778 82.396906 
L 282.327778 83.535304 
L 282.327778 84.673701 
L 282.327778 85.812099 
L 282.327778 86.950497 
L 282.327778 88.088895 
L 282.327778 89.227293 
L 282.327778 90.36569 
L 282.327778 91.504088 
L 282.327778 92.642486 
L 282.327778 93.780884 
L 282.327778 94.919282 
L 282.327778 96.057679 
L 282.327778 97.196077 
L 282.327778 98.334475 
L 282.327778 99.472873 
L 282.327778 100.611271 
L 282.327778 101.749668 
L 282.327778 102.361557 
" style="fill:none;stroke:#6c6cff;"/>
    <path clip-path="url(#paf581d0124)" d="M 282.327778 126.182531 
L 282.327778 209.897459 
L 281.441747 211.035857 
L 279.572437 212.174254 
L 275.819499 213.492404 
L 269.351109 212.174254 
L 262.084588 210.523739 
L 255.782081 208.759061 
L 248.349677 206.406618 
L 242.330491 204.20547 
L 236.745977 201.928674 
L 229.113585 198.513481 
L 224.529863 196.236685 
L 215.96109 191.683094 
L 210.103662 188.267901 
L 197.316319 180.299116 
L 182.249991 170.053536 
L 177.400042 166.638343 
L 171.007797 162.084751 
L 128.122747 130.209613 
L 122.056854 125.656022 
L 114.494494 119.964033 
L 108.434343 115.410442 
L 100.863797 109.718453 
L 94.801963 105.164862 
L 87.221296 99.472873 
L 81.155116 94.919282 
L 73.559578 89.227293 
L 69.795833 86.340398 
L 69.795833 86.340398 
" style="fill:none;stroke:#6c6cff;"/>
   </g>
   <g id="LineCollection_6">
    <path clip-path="url(#paf581d0124)" d="M 295.188932 44.829779 
L 295.188932 45.968176 
L 295.188932 47.106574 
L 295.188932 48.244972 
L 295.188932 49.38337 
L 295.188932 50.521768 
L 295.188932 51.660165 
L 295.188932 52.798563 
L 295.188932 53.936961 
L 295.188932 55.075359 
L 295.188932 56.213757 
L 295.188932 57.352154 
L 295.188932 58.490552 
L 295.188932 59.62895 
L 295.188932 60.767348 
L 295.188932 61.905746 
L 295.188932 63.044143 
L 295.188932 64.182541 
L 295.188932 65.320939 
L 295.188932 66.459337 
L 295.188932 67.597735 
L 295.188932 68.736132 
L 295.188932 69.87453 
L 295.188932 71.012928 
L 295.188932 72.151326 
L 295.188932 73.289724 
L 295.188932 74.428121 
L 295.188932 75.566519 
L 295.188932 76.704917 
L 295.188932 77.843315 
L 295.188932 78.981712 
L 295.188932 80.12011 
L 295.188932 81.258508 
L 295.188932 82.396906 
L 295.188932 83.535304 
L 295.188932 84.673701 
L 295.188932 85.812099 
L 295.188932 86.950497 
L 295.188932 88.088895 
L 295.188932 89.227293 
L 295.188932 90.36569 
L 295.188932 91.504088 
L 295.188932 92.642486 
L 295.188932 93.780884 
L 295.188932 94.919282 
L 295.188932 96.057679 
L 295.188932 97.196077 
L 295.188932 98.334475 
L 295.188932 99.472873 
L 295.188932 100.611271 
L 295.188932 101.749668 
L 295.188932 102.888066 
L 295.188932 104.026464 
L 295.188932 105.164862 
L 295.188932 106.30326 
L 295.188932 107.441657 
L 295.188932 108.580055 
L 295.188932 109.718453 
L 295.188932 110.856851 
L 295.188932 111.995249 
L 295.188932 113.133646 
L 295.188932 114.272044 
L 295.188932 115.410442 
L 295.188932 116.54884 
L 295.188932 117.687237 
L 295.188932 118.825635 
L 295.188932 119.964033 
L 295.188932 121.102431 
L 295.188932 122.240829 
L 295.188932 123.379226 
L 295.188932 124.517624 
L 295.188932 125.656022 
L 295.188932 126.79442 
L 295.188932 127.932818 
L 295.188932 129.071215 
L 295.188932 130.209613 
L 295.188932 131.348011 
L 295.188932 132.486409 
L 295.188932 133.624807 
L 295.188932 134.763204 
L 295.188932 135.901602 
L 295.188932 137.04 
L 295.188932 138.178398 
L 295.188932 139.316796 
L 295.188932 140.455193 
L 295.188932 141.593591 
L 295.188932 142.731989 
L 295.188932 143.870387 
L 295.188932 145.008785 
L 295.188932 146.147182 
L 295.188932 147.28558 
L 295.188932 148.423978 
L 295.188932 149.035867 
" style="fill:none;stroke:#4848ff;"/>
    <path clip-path="url(#paf581d0124)" d="M 295.188932 172.856841 
L 295.188932 217.866243 
L 294.317779 219.004641 
L 290.989727 220.143039 
L 289.55441 220.456874 
L 286.247277 220.143039 
L 275.666368 219.004641 
L 267.906111 217.866243 
L 261.269182 216.727846 
L 255.716486 215.589448 
L 246.383233 213.312652 
L 238.657509 211.035857 
L 228.853079 207.620663 
L 223.291099 205.343868 
L 210.868902 199.651879 
L 198.099347 192.821492 
L 183.144711 183.71431 
L 177.973057 180.299116 
L 172.653671 176.883923 
L 167.815394 173.468729 
L 165.94021 172.073734 
L 161.08946 168.915138 
L 156.281835 165.499945 
L 151.720595 162.084751 
L 146.694963 158.669558 
L 142.05878 155.254365 
L 137.541306 151.839171 
L 132.643832 148.423978 
L 128.094309 145.008785 
L 123.602424 141.593591 
L 118.773802 138.178398 
L 112.819218 133.624807 
L 111.000566 132.169781 
L 106.553305 129.071215 
L 100.506388 124.517624 
L 96.040512 121.102431 
L 91.258067 117.687237 
L 85.336415 113.133646 
L 82.317739 110.856851 
L 77.539277 107.441657 
L 71.618427 102.888066 
L 69.795833 101.429672 
L 69.795833 101.429672 
" style="fill:none;stroke:#4848ff;"/>
   </g>
   <g id="LineCollection_7">
    <path clip-path="url(#paf581d0124)" d="M 311.398833 44.829779 
L 311.398833 45.968176 
L 311.398833 47.106574 
L 311.398833 48.244972 
L 311.398833 49.38337 
L 311.398833 50.521768 
L 311.398833 51.660165 
L 311.398833 52.798563 
L 311.398833 53.936961 
L 311.398833 55.075359 
L 311.398833 55.687248 
" style="fill:none;stroke:#2424ff;"/>
    <path clip-path="url(#paf581d0124)" d="M 311.398833 79.508221 
L 311.398833 223.558232 
L 308.777342 224.69663 
L 303.289321 225.471173 
L 283.892858 224.69663 
L 275.819499 224.2139 
L 262.084588 223.028561 
L 256.63873 222.419835 
L 248.349677 221.262984 
L 241.458162 220.143039 
L 230.568865 217.866243 
L 225.976264 216.727846 
L 214.402228 213.312652 
L 211.149521 212.174254 
L 205.181309 209.897459 
L 199.372429 207.620663 
L 194.557237 205.343868 
L 193.410032 204.745534 
L 189.498615 203.067072 
L 184.870743 200.790276 
L 180.85814 198.513481 
L 178.8101 197.375083 
L 174.357229 195.098288 
L 170.435639 192.821492 
L 165.088786 189.406299 
L 161.037857 187.129503 
L 157.400717 184.852707 
L 154.107596 182.575912 
L 152.205299 181.168128 
L 148.776983 179.160718 
L 145.222762 176.883923 
L 141.976288 174.607127 
L 137.245187 171.191934 
L 133.650164 168.915138 
L 128.79798 165.499945 
L 124.377289 162.084751 
L 120.811203 159.807956 
L 115.977758 156.392763 
L 111.647277 152.977569 
L 111.000566 152.440948 
L 106.591611 149.562376 
L 101.882298 146.147182 
L 95.970525 141.593591 
L 90.973633 138.178398 
L 86.497008 134.763204 
L 83.530744 132.304907 
L 78.688394 129.071215 
L 74.089249 125.656022 
L 69.795833 122.135528 
L 69.795833 122.135528 
" style="fill:none;stroke:#2424ff;"/>
   </g>
   <g id="LineCollection_8"/>
   <g id="line2d_19">
    <path clip-path="url(#paf581d0124)" d="M 97.265655 65.320939 
L 111.000566 75.566519 
L 124.735477 85.812099 
L 138.470388 96.057679 
L 152.205299 106.30326 
L 165.94021 116.54884 
L 179.675121 126.79442 
L 193.410032 137.04 
L 207.144943 147.28558 
L 220.879855 157.53116 
L 234.614766 167.77674 
L 248.349677 178.022321 
L 262.084588 188.267901 
L 275.819499 198.513481 
L 289.55441 208.759061 
L 303.289321 219.004641 
L 317.024232 229.250221 
" style="fill:none;stroke:#e36f47;stroke-dasharray:22.2,9.6;stroke-dashoffset:0;stroke-width:6;"/>
   </g>
   <g id="patch_3">
    <path d="M 59.906697 234.782835 
L 59.906697 39.297165 
" style="fill:none;stroke:#000000;stroke-linecap:square;stroke-linejoin:miter;"/>
   </g>
   <g id="patch_4">
    <path d="M 59.906697 234.782835 
L 409.322835 234.782835 
" style="fill:none;stroke:#000000;stroke-linecap:square;stroke-linejoin:miter;"/>
   </g>
   <g id="text_12">
    <g clip-path="url(#paf581d0124)">
     <!-- 0.160 -->
     <g style="fill:#fdfdff;" transform="translate(149.187558 35.069307)rotate(-270)scale(0.1 -0.1)">
      <defs>
       <path d="M 31.78125 66.40625 
Q 24.171875 66.40625 20.328125 58.90625 
Q 16.5 51.421875 16.5 36.375 
Q 16.5 21.390625 20.328125 13.890625 
Q 24.171875 6.390625 31.78125 6.390625 
Q 39.453125 6.390625 43.28125 13.890625 
Q 47.125 21.390625 47.125 36.375 
Q 47.125 51.421875 43.28125 58.90625 
Q 39.453125 66.40625 31.78125 66.40625 
z
M 31.78125 74.21875 
Q 44.046875 74.21875 50.515625 64.515625 
Q 56.984375 54.828125 56.984375 36.375 
Q 56.984375 17.96875 50.515625 8.265625 
Q 44.046875 -1.421875 31.78125 -1.421875 
Q 19.53125 -1.421875 13.0625 8.265625 
Q 6.59375 17.96875 6.59375 36.375 
Q 6.59375 54.828125 13.0625 64.515625 
Q 19.53125 74.21875 31.78125 74.21875 
z
" id="DejaVuSans-48"/>
       <path d="M 10.6875 12.40625 
L 21 12.40625 
L 21 0 
L 10.6875 0 
z
" id="DejaVuSans-46"/>
       <path d="M 12.40625 8.296875 
L 28.515625 8.296875 
L 28.515625 63.921875 
L 10.984375 60.40625 
L 10.984375 69.390625 
L 28.421875 72.90625 
L 38.28125 72.90625 
L 38.28125 8.296875 
L 54.390625 8.296875 
L 54.390625 0 
L 12.40625 0 
z
" id="DejaVuSans-49"/>
       <path d="M 33.015625 40.375 
Q 26.375 40.375 22.484375 35.828125 
Q 18.609375 31.296875 18.609375 23.390625 
Q 18.609375 15.53125 22.484375 10.953125 
Q 26.375 6.390625 33.015625 6.390625 
Q 39.65625 6.390625 43.53125 10.953125 
Q 47.40625 15.53125 47.40625 23.390625 
Q 47.40625 31.296875 43.53125 35.828125 
Q 39.65625 40.375 33.015625 40.375 
z
M 52.59375 71.296875 
L 52.59375 62.3125 
Q 48.875 64.0625 45.09375 64.984375 
Q 41.3125 65.921875 37.59375 65.921875 
Q 27.828125 65.921875 22.671875 59.328125 
Q 17.53125 52.734375 16.796875 39.40625 
Q 19.671875 43.65625 24.015625 45.921875 
Q 28.375 48.1875 33.59375 48.1875 
Q 44.578125 48.1875 50.953125 41.515625 
Q 57.328125 34.859375 57.328125 23.390625 
Q 57.328125 12.15625 50.6875 5.359375 
Q 44.046875 -1.421875 33.015625 -1.421875 
Q 20.359375 -1.421875 13.671875 8.265625 
Q 6.984375 17.96875 6.984375 36.375 
Q 6.984375 53.65625 15.1875 63.9375 
Q 23.390625 74.21875 37.203125 74.21875 
Q 40.921875 74.21875 44.703125 73.484375 
Q 48.484375 72.75 52.59375 71.296875 
z
" id="DejaVuSans-54"/>
      </defs>
      <use xlink:href="#DejaVuSans-48"/>
      <use x="63.623047" xlink:href="#DejaVuSans-46"/>
      <use x="95.410156" xlink:href="#DejaVuSans-49"/>
      <use x="159.033203" xlink:href="#DejaVuSans-54"/>
      <use x="222.65625" xlink:href="#DejaVuSans-48"/>
     </g>
    </g>
   </g>
   <g id="text_13">
    <g clip-path="url(#paf581d0124)">
     <!-- 0.233 -->
     <g style="fill:#d9d9ff;" transform="translate(228.223715 53.283672)rotate(-270)scale(0.1 -0.1)">
      <defs>
       <path d="M 19.1875 8.296875 
L 53.609375 8.296875 
L 53.609375 0 
L 7.328125 0 
L 7.328125 8.296875 
Q 12.9375 14.109375 22.625 23.890625 
Q 32.328125 33.6875 34.8125 36.53125 
Q 39.546875 41.84375 41.421875 45.53125 
Q 43.3125 49.21875 43.3125 52.78125 
Q 43.3125 58.59375 39.234375 62.25 
Q 35.15625 65.921875 28.609375 65.921875 
Q 23.96875 65.921875 18.8125 64.3125 
Q 13.671875 62.703125 7.8125 59.421875 
L 7.8125 69.390625 
Q 13.765625 71.78125 18.9375 73 
Q 24.125 74.21875 28.421875 74.21875 
Q 39.75 74.21875 46.484375 68.546875 
Q 53.21875 62.890625 53.21875 53.421875 
Q 53.21875 48.921875 51.53125 44.890625 
Q 49.859375 40.875 45.40625 35.40625 
Q 44.1875 33.984375 37.640625 27.21875 
Q 31.109375 20.453125 19.1875 8.296875 
z
" id="DejaVuSans-50"/>
       <path d="M 40.578125 39.3125 
Q 47.65625 37.796875 51.625 33 
Q 55.609375 28.21875 55.609375 21.1875 
Q 55.609375 10.40625 48.1875 4.484375 
Q 40.765625 -1.421875 27.09375 -1.421875 
Q 22.515625 -1.421875 17.65625 -0.515625 
Q 12.796875 0.390625 7.625 2.203125 
L 7.625 11.71875 
Q 11.71875 9.328125 16.59375 8.109375 
Q 21.484375 6.890625 26.8125 6.890625 
Q 36.078125 6.890625 40.9375 10.546875 
Q 45.796875 14.203125 45.796875 21.1875 
Q 45.796875 27.640625 41.28125 31.265625 
Q 36.765625 34.90625 28.71875 34.90625 
L 20.21875 34.90625 
L 20.21875 43.015625 
L 29.109375 43.015625 
Q 36.375 43.015625 40.234375 45.921875 
Q 44.09375 48.828125 44.09375 54.296875 
Q 44.09375 59.90625 40.109375 62.90625 
Q 36.140625 65.921875 28.71875 65.921875 
Q 24.65625 65.921875 20.015625 65.03125 
Q 15.375 64.15625 9.8125 62.3125 
L 9.8125 71.09375 
Q 15.4375 72.65625 20.34375 73.4375 
Q 25.25 74.21875 29.59375 74.21875 
Q 40.828125 74.21875 47.359375 69.109375 
Q 53.90625 64.015625 53.90625 55.328125 
Q 53.90625 49.265625 50.4375 45.09375 
Q 46.96875 40.921875 40.578125 39.3125 
z
" id="DejaVuSans-51"/>
      </defs>
      <use xlink:href="#DejaVuSans-48"/>
      <use x="63.623047" xlink:href="#DejaVuSans-46"/>
      <use x="95.410156" xlink:href="#DejaVuSans-50"/>
      <use x="159.033203" xlink:href="#DejaVuSans-51"/>
      <use x="222.65625" xlink:href="#DejaVuSans-51"/>
     </g>
    </g>
   </g>
   <g id="text_14">
    <g clip-path="url(#paf581d0124)">
     <!-- 0.306 -->
     <g style="fill:#b5b5ff;" transform="translate(251.358922 99.957982)rotate(-270)scale(0.1 -0.1)">
      <use xlink:href="#DejaVuSans-48"/>
      <use x="63.623047" xlink:href="#DejaVuSans-46"/>
      <use x="95.410156" xlink:href="#DejaVuSans-51"/>
      <use x="159.033203" xlink:href="#DejaVuSans-48"/>
      <use x="222.65625" xlink:href="#DejaVuSans-54"/>
     </g>
    </g>
   </g>
   <g id="text_15">
    <g clip-path="url(#paf581d0124)">
     <!-- 0.379 -->
     <g style="fill:#9090ff;" transform="translate(266.812117 53.283672)rotate(-270)scale(0.1 -0.1)">
      <defs>
       <path d="M 8.203125 72.90625 
L 55.078125 72.90625 
L 55.078125 68.703125 
L 28.609375 0 
L 18.3125 0 
L 43.21875 64.59375 
L 8.203125 64.59375 
z
" id="DejaVuSans-55"/>
       <path d="M 10.984375 1.515625 
L 10.984375 10.5 
Q 14.703125 8.734375 18.5 7.8125 
Q 22.3125 6.890625 25.984375 6.890625 
Q 35.75 6.890625 40.890625 13.453125 
Q 46.046875 20.015625 46.78125 33.40625 
Q 43.953125 29.203125 39.59375 26.953125 
Q 35.25 24.703125 29.984375 24.703125 
Q 19.046875 24.703125 12.671875 31.3125 
Q 6.296875 37.9375 6.296875 49.421875 
Q 6.296875 60.640625 12.9375 67.421875 
Q 19.578125 74.21875 30.609375 74.21875 
Q 43.265625 74.21875 49.921875 64.515625 
Q 56.59375 54.828125 56.59375 36.375 
Q 56.59375 19.140625 48.40625 8.859375 
Q 40.234375 -1.421875 26.421875 -1.421875 
Q 22.703125 -1.421875 18.890625 -0.6875 
Q 15.09375 0.046875 10.984375 1.515625 
z
M 30.609375 32.421875 
Q 37.25 32.421875 41.125 36.953125 
Q 45.015625 41.5 45.015625 49.421875 
Q 45.015625 57.28125 41.125 61.84375 
Q 37.25 66.40625 30.609375 66.40625 
Q 23.96875 66.40625 20.09375 61.84375 
Q 16.21875 57.28125 16.21875 49.421875 
Q 16.21875 41.5 20.09375 36.953125 
Q 23.96875 32.421875 30.609375 32.421875 
z
" id="DejaVuSans-57"/>
      </defs>
      <use xlink:href="#DejaVuSans-48"/>
      <use x="63.623047" xlink:href="#DejaVuSans-46"/>
      <use x="95.410156" xlink:href="#DejaVuSans-51"/>
      <use x="159.033203" xlink:href="#DejaVuSans-55"/>
      <use x="222.65625" xlink:href="#DejaVuSans-57"/>
     </g>
    </g>
   </g>
   <g id="text_16">
    <g clip-path="url(#paf581d0124)">
     <!-- 0.451 -->
     <g style="fill:#6c6cff;" transform="translate(279.568403 99.957982)rotate(-270)scale(0.1 -0.1)">
      <defs>
       <path d="M 37.796875 64.3125 
L 12.890625 25.390625 
L 37.796875 25.390625 
z
M 35.203125 72.90625 
L 47.609375 72.90625 
L 47.609375 25.390625 
L 58.015625 25.390625 
L 58.015625 17.1875 
L 47.609375 17.1875 
L 47.609375 0 
L 37.796875 0 
L 37.796875 17.1875 
L 4.890625 17.1875 
L 4.890625 26.703125 
z
" id="DejaVuSans-52"/>
       <path d="M 10.796875 72.90625 
L 49.515625 72.90625 
L 49.515625 64.59375 
L 19.828125 64.59375 
L 19.828125 46.734375 
Q 21.96875 47.46875 24.109375 47.828125 
Q 26.265625 48.1875 28.421875 48.1875 
Q 40.625 48.1875 47.75 41.5 
Q 54.890625 34.8125 54.890625 23.390625 
Q 54.890625 11.625 47.5625 5.09375 
Q 40.234375 -1.421875 26.90625 -1.421875 
Q 22.3125 -1.421875 17.546875 -0.640625 
Q 12.796875 0.140625 7.71875 1.703125 
L 7.71875 11.625 
Q 12.109375 9.234375 16.796875 8.0625 
Q 21.484375 6.890625 26.703125 6.890625 
Q 35.15625 6.890625 40.078125 11.328125 
Q 45.015625 15.765625 45.015625 23.390625 
Q 45.015625 31 40.078125 35.4375 
Q 35.15625 39.890625 26.703125 39.890625 
Q 22.75 39.890625 18.8125 39.015625 
Q 14.890625 38.140625 10.796875 36.28125 
z
" id="DejaVuSans-53"/>
      </defs>
      <use xlink:href="#DejaVuSans-48"/>
      <use x="63.623047" xlink:href="#DejaVuSans-46"/>
      <use x="95.410156" xlink:href="#DejaVuSans-52"/>
      <use x="159.033203" xlink:href="#DejaVuSans-53"/>
      <use x="222.65625" xlink:href="#DejaVuSans-49"/>
     </g>
    </g>
   </g>
   <g id="text_17">
    <g clip-path="url(#paf581d0124)">
     <!-- 0.524 -->
     <g style="fill:#4848ff;" transform="translate(292.429557 146.632291)rotate(-270)scale(0.1 -0.1)">
      <use xlink:href="#DejaVuSans-48"/>
      <use x="63.623047" xlink:href="#DejaVuSans-46"/>
      <use x="95.410156" xlink:href="#DejaVuSans-53"/>
      <use x="159.033203" xlink:href="#DejaVuSans-50"/>
      <use x="222.65625" xlink:href="#DejaVuSans-52"/>
     </g>
    </g>
   </g>
   <g id="text_18">
    <g clip-path="url(#paf581d0124)">
     <!-- 0.597 -->
     <g style="fill:#2424ff;" transform="translate(308.639458 53.283672)rotate(-270)scale(0.1 -0.1)">
      <use xlink:href="#DejaVuSans-48"/>
      <use x="63.623047" xlink:href="#DejaVuSans-46"/>
      <use x="95.410156" xlink:href="#DejaVuSans-53"/>
      <use x="159.033203" xlink:href="#DejaVuSans-57"/>
      <use x="222.65625" xlink:href="#DejaVuSans-55"/>
     </g>
    </g>
   </g>
   <g id="text_19">
    <!-- Max(I) -->
    <g transform="translate(211.958516 33.297165)scale(0.16 -0.16)">
     <defs>
      <path d="M 1.125 1.8125 
Q 7.328125 2.4375 9.078125 4.609375 
Q 10.84375 6.78125 10.84375 14.703125 
L 10.84375 55.328125 
Q 10.84375 60.75 9.125 62.375 
Q 7.421875 64.015625 1.375 64.3125 
L 1.375 66.15625 
L 21.140625 66.15625 
L 44.28125 15.71875 
L 66.40625 66.15625 
L 86.328125 66.15625 
L 86.328125 64.3125 
Q 80.765625 63.921875 79.15625 62.28125 
Q 77.546875 60.640625 77.546875 55.328125 
L 77.546875 10.84375 
Q 77.546875 5.375 79.15625 3.828125 
Q 80.765625 2.296875 86.328125 1.8125 
L 86.328125 0 
L 58.296875 0 
L 58.296875 1.8125 
Q 64.359375 2.296875 65.84375 3.984375 
Q 67.328125 5.671875 67.328125 12.015625 
L 67.328125 56.9375 
L 41.75 0 
L 40.375 0 
L 15.234375 54.59375 
L 15.234375 14.703125 
Q 15.234375 6.5 17.625 4 
Q 19.1875 2.390625 24.609375 1.8125 
L 24.609375 0 
L 1.125 0 
z
" id="Times-Roman-77"/>
      <path d="M 28.65625 27.046875 
Q 23.046875 25.203125 19.390625 22.953125 
Q 12.359375 18.609375 12.359375 13.09375 
Q 12.359375 8.640625 15.28125 6.546875 
Q 17.1875 5.171875 19.53125 5.171875 
Q 22.75 5.171875 25.703125 6.984375 
Q 28.65625 8.796875 28.65625 11.578125 
z
M 3.65625 9.71875 
Q 3.65625 16.796875 10.75 21.53125 
Q 15.234375 24.46875 28.65625 29.5 
L 28.65625 33.640625 
Q 28.65625 38.625 27.6875 40.578125 
Q 26.03125 43.84375 20.796875 43.84375 
Q 18.3125 43.84375 16.0625 42.578125 
Q 13.8125 41.265625 13.8125 38.96875 
Q 13.8125 38.375 14.0625 36.984375 
Q 14.3125 35.59375 14.3125 35.203125 
Q 14.3125 32.46875 12.5 31.390625 
Q 11.46875 30.765625 10.0625 30.765625 
Q 7.859375 30.765625 6.6875 32.203125 
Q 5.515625 33.640625 5.515625 35.40625 
Q 5.515625 38.8125 9.734375 42.546875 
Q 13.96875 46.296875 22.125 46.296875 
Q 31.59375 46.296875 34.96875 40.140625 
Q 36.765625 36.765625 36.765625 30.328125 
L 36.765625 10.75 
Q 36.765625 7.90625 37.15625 6.84375 
Q 37.796875 4.9375 39.796875 4.9375 
Q 40.921875 4.9375 41.65625 5.265625 
Q 42.390625 5.609375 44.1875 6.9375 
L 44.1875 4.390625 
Q 42.625 2.484375 40.828125 1.265625 
Q 38.09375 -0.59375 35.25 -0.59375 
Q 31.9375 -0.59375 30.4375 1.5625 
Q 28.953125 3.71875 28.8125 6.6875 
Q 25.09375 3.46875 22.46875 1.90625 
Q 18.015625 -0.734375 14.015625 -0.734375 
Q 9.8125 -0.734375 6.734375 2.21875 
Q 3.65625 5.171875 3.65625 9.71875 
z
M 22.265625 46.296875 
z
" id="Times-Roman-97"/>
      <path d="M 23.140625 44.875 
L 23.140625 43.5 
Q 21.296875 43.453125 20 42.984375 
Q 18.703125 42.53125 18.703125 41.0625 
Q 18.703125 40.140625 21.296875 35.84375 
Q 22.65625 33.59375 24.75 30.328125 
Q 27.640625 34.28125 29.046875 36.53125 
Q 31.453125 40.140625 31.453125 41.21875 
Q 31.453125 42.484375 30.421875 42.921875 
Q 29.390625 43.359375 27.546875 43.5 
L 27.546875 44.875 
L 43.265625 44.875 
L 43.265625 43.5 
Q 40.765625 43.3125 38.609375 42.15625 
Q 36.46875 41.015625 35.15625 39.109375 
L 26.8125 27.046875 
L 39.703125 7.515625 
Q 42.1875 3.71875 43.921875 2.59375 
Q 45.65625 1.46875 47.90625 1.375 
L 47.90625 0 
L 27.734375 0 
L 27.734375 1.375 
L 29.15625 1.46875 
Q 30.28125 1.5625 31.03125 2.140625 
Q 31.78125 2.734375 31.78125 3.609375 
Q 31.78125 4.546875 29.9375 7.71875 
Q 29.046875 9.28125 27.296875 11.96875 
Q 26.46875 13.28125 24.828125 15.625 
Q 23.1875 17.96875 22.078125 19.625 
L 14.203125 7.375 
Q 12.796875 5.171875 12.453125 4.4375 
Q 12.109375 3.71875 12.109375 3.21875 
Q 12.109375 2.296875 12.859375 2 
Q 13.625 1.703125 16.15625 1.375 
L 16.15625 0 
L 1.703125 0 
L 1.703125 1.375 
Q 4.34375 1.90625 5.609375 2.734375 
Q 6.890625 3.5625 8.984375 6.59375 
L 20.359375 23.140625 
L 10.984375 37.359375 
Q 8.15625 41.609375 7.078125 42.390625 
Q 6 43.171875 2.390625 43.5 
L 2.390625 44.875 
z
" id="Times-Roman-120"/>
      <path d="M 4.59375 25.09375 
Q 4.59375 42.09375 14.75 54.9375 
Q 21 62.796875 29.5 67.578125 
L 30.421875 65.96875 
Q 22.5625 59.71875 19.1875 53.8125 
Q 13.28125 43.5 13.28125 26.375 
Q 13.28125 13.671875 15.53125 5.421875 
Q 19.484375 -9.03125 30.421875 -16.21875 
L 29.15625 -17.828125 
Q 23.140625 -14.9375 16.15625 -6.546875 
Q 4.59375 7.375 4.59375 25.09375 
z
" id="Times-Roman-40"/>
      <path d="M 1.609375 1.8125 
Q 7.71875 2.25 9.515625 3.640625 
Q 11.328125 5.03125 11.328125 10.84375 
L 11.328125 55.328125 
Q 11.328125 60.84375 9.515625 62.421875 
Q 7.71875 64.015625 1.609375 64.3125 
L 1.609375 66.15625 
L 31.203125 66.15625 
L 31.203125 64.3125 
Q 25.09375 64.015625 23.28125 62.421875 
Q 21.484375 60.84375 21.484375 55.328125 
L 21.484375 10.84375 
Q 21.484375 5.03125 23.28125 3.640625 
Q 25.09375 2.25 31.203125 1.8125 
L 31.203125 0 
L 1.609375 0 
z
M 16.40625 66.15625 
z
" id="Times-Roman-73"/>
      <path d="M 28.46875 24.609375 
Q 28.46875 17.328125 26.5625 10.828125 
Q 24.65625 4.34375 21 -1.421875 
Q 17.140625 -7.5625 10.6875 -12.890625 
Q 6.453125 -16.40625 3.5625 -17.828125 
L 2.640625 -16.21875 
Q 10.15625 -10.5 13.625 -4.546875 
Q 19.78125 6 19.78125 23.34375 
Q 19.78125 37.359375 16.9375 46.234375 
Q 12.984375 58.796875 2.640625 65.96875 
L 3.90625 67.578125 
Q 11.625 63.28125 18.265625 54.59375 
Q 28.46875 41.21875 28.46875 24.609375 
z
" id="Times-Roman-41"/>
     </defs>
     <use xlink:href="#Times-Roman-77"/>
     <use x="88.916016" xlink:href="#Times-Roman-97"/>
     <use x="133.300781" xlink:href="#Times-Roman-120"/>
     <use x="183.300781" xlink:href="#Times-Roman-40"/>
     <use x="216.601562" xlink:href="#Times-Roman-73"/>
     <use x="249.902344" xlink:href="#Times-Roman-41"/>
    </g>
   </g>
  </g>
 </g>
 <defs>
  <clipPath id="paf581d0124">
   <rect height="195.485669" width="349.416138" x="59.906697" y="39.297165"/>
  </clipPath>
 </defs>
</svg>
