<?xml version="1.0" encoding="utf-8" standalone="no"?>
<!DOCTYPE svg PUBLIC "-//W3C//DTD SVG 1.1//EN"
  "http://www.w3.org/Graphics/SVG/1.1/DTD/svg11.dtd">
<!-- Created with matplotlib (https://matplotlib.org/) -->
<svg height="288pt" version="1.1" viewBox="0 0 432 288" width="432pt" xmlns="http://www.w3.org/2000/svg" xmlns:xlink="http://www.w3.org/1999/xlink">
 <metadata>
  <rdf:RDF xmlns:cc="http://creativecommons.org/ns#" xmlns:dc="http://purl.org/dc/elements/1.1/" xmlns:rdf="http://www.w3.org/1999/02/22-rdf-syntax-ns#">
   <cc:Work>
    <dc:type rdf:resource="http://purl.org/dc/dcmitype/StillImage"/>
    <dc:date>2021-03-05T14:11:03.925487</dc:date>
    <dc:format>image/svg+xml</dc:format>
    <dc:creator>
     <cc:Agent>
      <dc:title>Matplotlib v3.3.4, https://matplotlib.org/</dc:title>
     </cc:Agent>
    </dc:creator>
   </cc:Work>
  </rdf:RDF>
 </metadata>
 <defs>
  <style type="text/css">*{stroke-linecap:butt;stroke-linejoin:round;}</style>
 </defs>
 <g id="figure_1">
  <g id="patch_1">
   <path d="M 0 288 
L 432 288 
L 432 0 
L 0 0 
z
" style="fill:#ffffff;"/>
  </g>
  <g id="axes_1">
   <g id="patch_2">
    <path d="M 53.906931 235.502835 
L 409.322835 235.502835 
L 409.322835 39.297165 
L 53.906931 39.297165 
z
" style="fill:#ffffff;"/>
   </g>
   <g id="matplotlib.axis_1">
    <g id="xtick_1">
     <g id="line2d_1">
      <path clip-path="url(#pc6427e6fbb)" d="M 63.965872 235.502835 
L 63.965872 39.297165 
" style="fill:none;stroke:#000000;stroke-linecap:square;stroke-opacity:0.1;stroke-width:0.5;"/>
     </g>
     <g id="line2d_2">
      <defs>
       <path d="M 0 0 
L 0 -2.5 
" id="m59d50c9aac" style="stroke:#000000;stroke-width:0.5;"/>
      </defs>
      <g>
       <use style="stroke:#000000;stroke-width:0.5;" x="63.965872" xlink:href="#m59d50c9aac" y="235.502835"/>
      </g>
     </g>
     <g id="text_1">
      <!-- $\mathregular{0}$ -->
      <g transform="translate(60.965872 247.230335)scale(0.12 -0.12)">
       <defs>
        <path d="M 23.921875 1.8125 
Q 31.109375 1.8125 33.78125 9.671875 
Q 36.46875 17.53125 36.46875 32.421875 
Q 36.46875 44.28125 34.859375 51.375 
Q 31.84375 64.546875 23.53125 64.546875 
Q 15.234375 64.546875 12.15625 50.984375 
Q 10.546875 43.75 10.546875 31.9375 
Q 10.546875 20.84375 12.203125 14.203125 
Q 15.328125 1.8125 23.921875 1.8125 
z
M 23.78125 67.1875 
Q 35.015625 67.1875 41.21875 55.421875 
Q 46.140625 45.90625 46.140625 33.546875 
Q 46.140625 23.828125 43.109375 15.234375 
Q 37.40625 -0.921875 23.34375 -0.921875 
Q 13.71875 -0.921875 7.515625 7.8125 
Q 0.875 17.140625 0.875 33.15625 
Q 0.875 45.75 5.328125 54.828125 
Q 11.328125 67.1875 23.78125 67.1875 
z
" id="Times-Roman-48"/>
       </defs>
       <use transform="translate(0 0.8125)" xlink:href="#Times-Roman-48"/>
      </g>
     </g>
    </g>
    <g id="xtick_2">
     <g id="line2d_3">
      <path clip-path="url(#pc6427e6fbb)" d="M 145.745877 235.502835 
L 145.745877 39.297165 
" style="fill:none;stroke:#000000;stroke-linecap:square;stroke-opacity:0.1;stroke-width:0.5;"/>
     </g>
     <g id="line2d_4">
      <g>
       <use style="stroke:#000000;stroke-width:0.5;" x="145.745877" xlink:href="#m59d50c9aac" y="235.502835"/>
      </g>
     </g>
     <g id="text_2">
      <!-- $\mathregular{10}$ -->
      <g transform="translate(139.745877 247.230335)scale(0.12 -0.12)">
       <defs>
        <path d="M 29.59375 67.09375 
Q 29.78125 66.84375 29.796875 66.71875 
Q 29.828125 66.609375 29.828125 66.15625 
L 29.828125 7.375 
Q 29.828125 3.609375 31.828125 2.578125 
Q 33.84375 1.5625 39.3125 1.375 
L 39.3125 0 
L 11.765625 0 
L 11.765625 1.46875 
Q 17.671875 1.765625 19.484375 3.078125 
Q 21.296875 4.390625 21.296875 8.796875 
L 21.296875 54 
Q 21.296875 56.34375 20.703125 57.5625 
Q 20.125 58.796875 18.171875 58.796875 
Q 16.890625 58.796875 14.859375 58.078125 
Q 12.84375 57.375 11.078125 56.59375 
L 11.078125 57.953125 
L 29 67.09375 
L 29.59375 67.09375 
z
" id="Times-Roman-49"/>
       </defs>
       <use transform="translate(0 0.8125)" xlink:href="#Times-Roman-49"/>
       <use transform="translate(50 0.8125)" xlink:href="#Times-Roman-48"/>
      </g>
     </g>
    </g>
    <g id="xtick_3">
     <g id="line2d_5">
      <path clip-path="url(#pc6427e6fbb)" d="M 227.525883 235.502835 
L 227.525883 39.297165 
" style="fill:none;stroke:#000000;stroke-linecap:square;stroke-opacity:0.1;stroke-width:0.5;"/>
     </g>
     <g id="line2d_6">
      <g>
       <use style="stroke:#000000;stroke-width:0.5;" x="227.525883" xlink:href="#m59d50c9aac" y="235.502835"/>
      </g>
     </g>
     <g id="text_3">
      <!-- $\mathregular{20}$ -->
      <g transform="translate(221.525883 247.230335)scale(0.12 -0.12)">
       <defs>
        <path d="M 2.984375 1.125 
Q 20.84375 19.671875 27.234375 28.359375 
Q 33.640625 37.0625 33.640625 45.3125 
Q 33.640625 52.546875 29.734375 56.328125 
Q 25.828125 60.109375 20.40625 60.109375 
Q 13.71875 60.109375 9.578125 55.21875 
Q 7.28125 52.546875 5.171875 46.96875 
L 3.078125 47.40625 
Q 5.515625 58.640625 11.34375 63.015625 
Q 17.1875 67.390625 23.875 67.390625 
Q 32.125 67.390625 37.21875 62.1875 
Q 42.328125 56.984375 42.328125 49.46875 
Q 42.328125 41.453125 36.8125 34.03125 
Q 31.296875 26.609375 12.84375 7.625 
L 35.25 7.625 
Q 39.9375 7.625 41.84375 8.734375 
Q 43.75 9.859375 46.140625 14.203125 
L 47.40625 13.625 
L 42 0 
L 2.984375 0 
z
" id="Times-Roman-50"/>
       </defs>
       <use transform="translate(0 0.609375)" xlink:href="#Times-Roman-50"/>
       <use transform="translate(50 0.609375)" xlink:href="#Times-Roman-48"/>
      </g>
     </g>
    </g>
    <g id="xtick_4">
     <g id="line2d_7">
      <path clip-path="url(#pc6427e6fbb)" d="M 309.305888 235.502835 
L 309.305888 39.297165 
" style="fill:none;stroke:#000000;stroke-linecap:square;stroke-opacity:0.1;stroke-width:0.5;"/>
     </g>
     <g id="line2d_8">
      <g>
       <use style="stroke:#000000;stroke-width:0.5;" x="309.305888" xlink:href="#m59d50c9aac" y="235.502835"/>
      </g>
     </g>
     <g id="text_4">
      <!-- $\mathregular{30}$ -->
      <g transform="translate(303.305888 247.230335)scale(0.12 -0.12)">
       <defs>
        <path d="M 7.765625 8.5 
Q 10.453125 8.5 14.859375 5.71875 
Q 19.28125 2.9375 22.359375 2.9375 
Q 29.203125 2.9375 32.515625 7.546875 
Q 35.84375 12.15625 35.84375 17.578125 
Q 35.84375 22.796875 33.15625 26.765625 
Q 28.609375 33.453125 17.828125 33.453125 
Q 17.1875 33.453125 16.59375 33.421875 
Q 16.015625 33.40625 15.234375 33.296875 
L 15.140625 34.578125 
Q 22.953125 37.40625 27.4375 41.0625 
Q 31.9375 44.734375 31.9375 50.734375 
Q 31.9375 56.0625 28.390625 58.84375 
Q 24.859375 61.625 20.3125 61.625 
Q 14.9375 61.625 10.84375 57.671875 
Q 8.59375 55.515625 6 51.03125 
L 4.5 51.375 
Q 6.453125 58.796875 11.765625 63.234375 
Q 17.09375 67.671875 24.078125 67.671875 
Q 31.546875 67.671875 35.625 63.5625 
Q 39.703125 59.46875 39.703125 54.109375 
Q 39.703125 49.359375 36.328125 45.40625 
Q 34.421875 43.171875 30.421875 40.375 
Q 35.109375 38.375 37.9375 35.6875 
Q 43.265625 30.5625 43.265625 22.703125 
Q 43.265625 13.421875 35.953125 6.34375 
Q 28.65625 -0.734375 15.1875 -0.734375 
Q 9.1875 -0.734375 6.765625 1.046875 
Q 4.34375 2.828125 4.34375 4.890625 
Q 4.34375 6.15625 5.140625 7.328125 
Q 5.953125 8.5 7.765625 8.5 
z
" id="Times-Roman-51"/>
       </defs>
       <use transform="translate(0 0.328125)" xlink:href="#Times-Roman-51"/>
       <use transform="translate(50 0.328125)" xlink:href="#Times-Roman-48"/>
      </g>
     </g>
    </g>
    <g id="xtick_5">
     <g id="line2d_9">
      <path clip-path="url(#pc6427e6fbb)" d="M 391.085893 235.502835 
L 391.085893 39.297165 
" style="fill:none;stroke:#000000;stroke-linecap:square;stroke-opacity:0.1;stroke-width:0.5;"/>
     </g>
     <g id="line2d_10">
      <g>
       <use style="stroke:#000000;stroke-width:0.5;" x="391.085893" xlink:href="#m59d50c9aac" y="235.502835"/>
      </g>
     </g>
     <g id="text_5">
      <!-- $\mathregular{40}$ -->
      <g transform="translate(385.085893 247.230335)scale(0.12 -0.12)">
       <defs>
        <path d="M 29.15625 57.03125 
L 5.171875 23.140625 
L 29.15625 23.140625 
z
M 32.375 67.09375 
L 37.015625 67.09375 
L 37.015625 23.140625 
L 47.21875 23.140625 
L 47.21875 16.65625 
L 37.015625 16.65625 
L 37.015625 0 
L 29.25 0 
L 29.25 16.65625 
L 1.125 16.65625 
L 1.125 23.140625 
z
" id="Times-Roman-52"/>
       </defs>
       <use transform="translate(0 0.8125)" xlink:href="#Times-Roman-52"/>
       <use transform="translate(50 0.8125)" xlink:href="#Times-Roman-48"/>
      </g>
     </g>
    </g>
    <g id="text_6">
     <!-- SD Start Time ts [days] -->
     <g transform="translate(161.898633 262.96221)scale(0.12 -0.12)">
      <defs>
       <path d="M 53.515625 70.515625 
L 53.515625 60.890625 
Q 47.90625 63.578125 42.921875 64.890625 
Q 37.9375 66.21875 33.296875 66.21875 
Q 25.25 66.21875 20.875 63.09375 
Q 16.5 59.96875 16.5 54.203125 
Q 16.5 49.359375 19.40625 46.890625 
Q 22.3125 44.4375 30.421875 42.921875 
L 36.375 41.703125 
Q 47.40625 39.59375 52.65625 34.296875 
Q 57.90625 29 57.90625 20.125 
Q 57.90625 9.515625 50.796875 4.046875 
Q 43.703125 -1.421875 29.984375 -1.421875 
Q 24.8125 -1.421875 18.96875 -0.25 
Q 13.140625 0.921875 6.890625 3.21875 
L 6.890625 13.375 
Q 12.890625 10.015625 18.65625 8.296875 
Q 24.421875 6.59375 29.984375 6.59375 
Q 38.421875 6.59375 43.015625 9.90625 
Q 47.609375 13.234375 47.609375 19.390625 
Q 47.609375 24.75 44.3125 27.78125 
Q 41.015625 30.8125 33.5 32.328125 
L 27.484375 33.5 
Q 16.453125 35.6875 11.515625 40.375 
Q 6.59375 45.0625 6.59375 53.421875 
Q 6.59375 63.09375 13.40625 68.65625 
Q 20.21875 74.21875 32.171875 74.21875 
Q 37.3125 74.21875 42.625 73.28125 
Q 47.953125 72.359375 53.515625 70.515625 
z
" id="DejaVuSans-83"/>
       <path d="M 19.671875 64.796875 
L 19.671875 8.109375 
L 31.59375 8.109375 
Q 46.6875 8.109375 53.6875 14.9375 
Q 60.6875 21.78125 60.6875 36.53125 
Q 60.6875 51.171875 53.6875 57.984375 
Q 46.6875 64.796875 31.59375 64.796875 
z
M 9.8125 72.90625 
L 30.078125 72.90625 
Q 51.265625 72.90625 61.171875 64.09375 
Q 71.09375 55.28125 71.09375 36.53125 
Q 71.09375 17.671875 61.125 8.828125 
Q 51.171875 0 30.078125 0 
L 9.8125 0 
z
" id="DejaVuSans-68"/>
       <path id="DejaVuSans-32"/>
       <path d="M 18.3125 70.21875 
L 18.3125 54.6875 
L 36.8125 54.6875 
L 36.8125 47.703125 
L 18.3125 47.703125 
L 18.3125 18.015625 
Q 18.3125 11.328125 20.140625 9.421875 
Q 21.96875 7.515625 27.59375 7.515625 
L 36.8125 7.515625 
L 36.8125 0 
L 27.59375 0 
Q 17.1875 0 13.234375 3.875 
Q 9.28125 7.765625 9.28125 18.015625 
L 9.28125 47.703125 
L 2.6875 47.703125 
L 2.6875 54.6875 
L 9.28125 54.6875 
L 9.28125 70.21875 
z
" id="DejaVuSans-116"/>
       <path d="M 34.28125 27.484375 
Q 23.390625 27.484375 19.1875 25 
Q 14.984375 22.515625 14.984375 16.5 
Q 14.984375 11.71875 18.140625 8.90625 
Q 21.296875 6.109375 26.703125 6.109375 
Q 34.1875 6.109375 38.703125 11.40625 
Q 43.21875 16.703125 43.21875 25.484375 
L 43.21875 27.484375 
z
M 52.203125 31.203125 
L 52.203125 0 
L 43.21875 0 
L 43.21875 8.296875 
Q 40.140625 3.328125 35.546875 0.953125 
Q 30.953125 -1.421875 24.3125 -1.421875 
Q 15.921875 -1.421875 10.953125 3.296875 
Q 6 8.015625 6 15.921875 
Q 6 25.140625 12.171875 29.828125 
Q 18.359375 34.515625 30.609375 34.515625 
L 43.21875 34.515625 
L 43.21875 35.40625 
Q 43.21875 41.609375 39.140625 45 
Q 35.0625 48.390625 27.6875 48.390625 
Q 23 48.390625 18.546875 47.265625 
Q 14.109375 46.140625 10.015625 43.890625 
L 10.015625 52.203125 
Q 14.9375 54.109375 19.578125 55.046875 
Q 24.21875 56 28.609375 56 
Q 40.484375 56 46.34375 49.84375 
Q 52.203125 43.703125 52.203125 31.203125 
z
" id="DejaVuSans-97"/>
       <path d="M 41.109375 46.296875 
Q 39.59375 47.171875 37.8125 47.578125 
Q 36.03125 48 33.890625 48 
Q 26.265625 48 22.1875 43.046875 
Q 18.109375 38.09375 18.109375 28.8125 
L 18.109375 0 
L 9.078125 0 
L 9.078125 54.6875 
L 18.109375 54.6875 
L 18.109375 46.1875 
Q 20.953125 51.171875 25.484375 53.578125 
Q 30.03125 56 36.53125 56 
Q 37.453125 56 38.578125 55.875 
Q 39.703125 55.765625 41.0625 55.515625 
z
" id="DejaVuSans-114"/>
       <path d="M -0.296875 72.90625 
L 61.375 72.90625 
L 61.375 64.59375 
L 35.5 64.59375 
L 35.5 0 
L 25.59375 0 
L 25.59375 64.59375 
L -0.296875 64.59375 
z
" id="DejaVuSans-84"/>
       <path d="M 9.421875 54.6875 
L 18.40625 54.6875 
L 18.40625 0 
L 9.421875 0 
z
M 9.421875 75.984375 
L 18.40625 75.984375 
L 18.40625 64.59375 
L 9.421875 64.59375 
z
" id="DejaVuSans-105"/>
       <path d="M 52 44.1875 
Q 55.375 50.25 60.0625 53.125 
Q 64.75 56 71.09375 56 
Q 79.640625 56 84.28125 50.015625 
Q 88.921875 44.046875 88.921875 33.015625 
L 88.921875 0 
L 79.890625 0 
L 79.890625 32.71875 
Q 79.890625 40.578125 77.09375 44.375 
Q 74.3125 48.1875 68.609375 48.1875 
Q 61.625 48.1875 57.5625 43.546875 
Q 53.515625 38.921875 53.515625 30.90625 
L 53.515625 0 
L 44.484375 0 
L 44.484375 32.71875 
Q 44.484375 40.625 41.703125 44.40625 
Q 38.921875 48.1875 33.109375 48.1875 
Q 26.21875 48.1875 22.15625 43.53125 
Q 18.109375 38.875 18.109375 30.90625 
L 18.109375 0 
L 9.078125 0 
L 9.078125 54.6875 
L 18.109375 54.6875 
L 18.109375 46.1875 
Q 21.1875 51.21875 25.484375 53.609375 
Q 29.78125 56 35.6875 56 
Q 41.65625 56 45.828125 52.96875 
Q 50 49.953125 52 44.1875 
z
" id="DejaVuSans-109"/>
       <path d="M 56.203125 29.59375 
L 56.203125 25.203125 
L 14.890625 25.203125 
Q 15.484375 15.921875 20.484375 11.0625 
Q 25.484375 6.203125 34.421875 6.203125 
Q 39.59375 6.203125 44.453125 7.46875 
Q 49.3125 8.734375 54.109375 11.28125 
L 54.109375 2.78125 
Q 49.265625 0.734375 44.1875 -0.34375 
Q 39.109375 -1.421875 33.890625 -1.421875 
Q 20.796875 -1.421875 13.15625 6.1875 
Q 5.515625 13.8125 5.515625 26.8125 
Q 5.515625 40.234375 12.765625 48.109375 
Q 20.015625 56 32.328125 56 
Q 43.359375 56 49.78125 48.890625 
Q 56.203125 41.796875 56.203125 29.59375 
z
M 47.21875 32.234375 
Q 47.125 39.59375 43.09375 43.984375 
Q 39.0625 48.390625 32.421875 48.390625 
Q 24.90625 48.390625 20.390625 44.140625 
Q 15.875 39.890625 15.1875 32.171875 
z
" id="DejaVuSans-101"/>
       <path d="M 44.28125 53.078125 
L 44.28125 44.578125 
Q 40.484375 46.53125 36.375 47.5 
Q 32.28125 48.484375 27.875 48.484375 
Q 21.1875 48.484375 17.84375 46.4375 
Q 14.5 44.390625 14.5 40.28125 
Q 14.5 37.15625 16.890625 35.375 
Q 19.28125 33.59375 26.515625 31.984375 
L 29.59375 31.296875 
Q 39.15625 29.25 43.1875 25.515625 
Q 47.21875 21.78125 47.21875 15.09375 
Q 47.21875 7.46875 41.1875 3.015625 
Q 35.15625 -1.421875 24.609375 -1.421875 
Q 20.21875 -1.421875 15.453125 -0.5625 
Q 10.6875 0.296875 5.421875 2 
L 5.421875 11.28125 
Q 10.40625 8.6875 15.234375 7.390625 
Q 20.0625 6.109375 24.8125 6.109375 
Q 31.15625 6.109375 34.5625 8.28125 
Q 37.984375 10.453125 37.984375 14.40625 
Q 37.984375 18.0625 35.515625 20.015625 
Q 33.0625 21.96875 24.703125 23.78125 
L 21.578125 24.515625 
Q 13.234375 26.265625 9.515625 29.90625 
Q 5.8125 33.546875 5.8125 39.890625 
Q 5.8125 47.609375 11.28125 51.796875 
Q 16.75 56 26.8125 56 
Q 31.78125 56 36.171875 55.265625 
Q 40.578125 54.546875 44.28125 53.078125 
z
" id="DejaVuSans-115"/>
       <path d="M 8.59375 75.984375 
L 29.296875 75.984375 
L 29.296875 69 
L 17.578125 69 
L 17.578125 -6.203125 
L 29.296875 -6.203125 
L 29.296875 -13.1875 
L 8.59375 -13.1875 
z
" id="DejaVuSans-91"/>
       <path d="M 45.40625 46.390625 
L 45.40625 75.984375 
L 54.390625 75.984375 
L 54.390625 0 
L 45.40625 0 
L 45.40625 8.203125 
Q 42.578125 3.328125 38.25 0.953125 
Q 33.9375 -1.421875 27.875 -1.421875 
Q 17.96875 -1.421875 11.734375 6.484375 
Q 5.515625 14.40625 5.515625 27.296875 
Q 5.515625 40.1875 11.734375 48.09375 
Q 17.96875 56 27.875 56 
Q 33.9375 56 38.25 53.625 
Q 42.578125 51.265625 45.40625 46.390625 
z
M 14.796875 27.296875 
Q 14.796875 17.390625 18.875 11.75 
Q 22.953125 6.109375 30.078125 6.109375 
Q 37.203125 6.109375 41.296875 11.75 
Q 45.40625 17.390625 45.40625 27.296875 
Q 45.40625 37.203125 41.296875 42.84375 
Q 37.203125 48.484375 30.078125 48.484375 
Q 22.953125 48.484375 18.875 42.84375 
Q 14.796875 37.203125 14.796875 27.296875 
z
" id="DejaVuSans-100"/>
       <path d="M 32.171875 -5.078125 
Q 28.375 -14.84375 24.75 -17.8125 
Q 21.140625 -20.796875 15.09375 -20.796875 
L 7.90625 -20.796875 
L 7.90625 -13.28125 
L 13.1875 -13.28125 
Q 16.890625 -13.28125 18.9375 -11.515625 
Q 21 -9.765625 23.484375 -3.21875 
L 25.09375 0.875 
L 2.984375 54.6875 
L 12.5 54.6875 
L 29.59375 11.921875 
L 46.6875 54.6875 
L 56.203125 54.6875 
z
" id="DejaVuSans-121"/>
       <path d="M 30.421875 75.984375 
L 30.421875 -13.1875 
L 9.71875 -13.1875 
L 9.71875 -6.203125 
L 21.390625 -6.203125 
L 21.390625 69 
L 9.71875 69 
L 9.71875 75.984375 
z
" id="DejaVuSans-93"/>
      </defs>
      <use xlink:href="#DejaVuSans-83"/>
      <use x="63.476562" xlink:href="#DejaVuSans-68"/>
      <use x="140.478516" xlink:href="#DejaVuSans-32"/>
      <use x="172.265625" xlink:href="#DejaVuSans-83"/>
      <use x="235.742188" xlink:href="#DejaVuSans-116"/>
      <use x="274.951172" xlink:href="#DejaVuSans-97"/>
      <use x="336.230469" xlink:href="#DejaVuSans-114"/>
      <use x="377.34375" xlink:href="#DejaVuSans-116"/>
      <use x="416.552734" xlink:href="#DejaVuSans-32"/>
      <use x="448.339844" xlink:href="#DejaVuSans-84"/>
      <use x="506.298828" xlink:href="#DejaVuSans-105"/>
      <use x="534.082031" xlink:href="#DejaVuSans-109"/>
      <use x="631.494141" xlink:href="#DejaVuSans-101"/>
      <use x="693.017578" xlink:href="#DejaVuSans-32"/>
      <use x="724.804688" xlink:href="#DejaVuSans-116"/>
      <use x="764.013672" xlink:href="#DejaVuSans-115"/>
      <use x="816.113281" xlink:href="#DejaVuSans-32"/>
      <use x="847.900391" xlink:href="#DejaVuSans-91"/>
      <use x="886.914062" xlink:href="#DejaVuSans-100"/>
      <use x="950.390625" xlink:href="#DejaVuSans-97"/>
      <use x="1011.669922" xlink:href="#DejaVuSans-121"/>
      <use x="1070.849609" xlink:href="#DejaVuSans-115"/>
      <use x="1122.949219" xlink:href="#DejaVuSans-93"/>
     </g>
    </g>
   </g>
   <g id="matplotlib.axis_2">
    <g id="ytick_1">
     <g id="line2d_11">
      <path clip-path="url(#pc6427e6fbb)" d="M 53.906931 229.949844 
L 409.322835 229.949844 
" style="fill:none;stroke:#000000;stroke-linecap:square;stroke-opacity:0.1;stroke-width:0.5;"/>
     </g>
     <g id="line2d_12">
      <defs>
       <path d="M 0 0 
L 2.5 0 
" id="mcc10dd8b96" style="stroke:#000000;stroke-width:0.5;"/>
      </defs>
      <g>
       <use style="stroke:#000000;stroke-width:0.5;" x="53.906931" xlink:href="#mcc10dd8b96" y="229.949844"/>
      </g>
     </g>
     <g id="text_7">
      <!-- $\mathregular{0}$ -->
      <g transform="translate(44.406931 234.063594)scale(0.12 -0.12)">
       <use transform="translate(0 0.8125)" xlink:href="#Times-Roman-48"/>
      </g>
     </g>
    </g>
    <g id="ytick_2">
     <g id="line2d_13">
      <path clip-path="url(#pc6427e6fbb)" d="M 53.906931 189.710781 
L 409.322835 189.710781 
" style="fill:none;stroke:#000000;stroke-linecap:square;stroke-opacity:0.1;stroke-width:0.5;"/>
     </g>
     <g id="line2d_14">
      <g>
       <use style="stroke:#000000;stroke-width:0.5;" x="53.906931" xlink:href="#mcc10dd8b96" y="189.710781"/>
      </g>
     </g>
     <g id="text_8">
      <!-- $\mathregular{20}$ -->
      <g transform="translate(38.406931 193.824531)scale(0.12 -0.12)">
       <use transform="translate(0 0.609375)" xlink:href="#Times-Roman-50"/>
       <use transform="translate(50 0.609375)" xlink:href="#Times-Roman-48"/>
      </g>
     </g>
    </g>
    <g id="ytick_3">
     <g id="line2d_15">
      <path clip-path="url(#pc6427e6fbb)" d="M 53.906931 149.471719 
L 409.322835 149.471719 
" style="fill:none;stroke:#000000;stroke-linecap:square;stroke-opacity:0.1;stroke-width:0.5;"/>
     </g>
     <g id="line2d_16">
      <g>
       <use style="stroke:#000000;stroke-width:0.5;" x="53.906931" xlink:href="#mcc10dd8b96" y="149.471719"/>
      </g>
     </g>
     <g id="text_9">
      <!-- $\mathregular{40}$ -->
      <g transform="translate(38.406931 153.585469)scale(0.12 -0.12)">
       <use transform="translate(0 0.8125)" xlink:href="#Times-Roman-52"/>
       <use transform="translate(50 0.8125)" xlink:href="#Times-Roman-48"/>
      </g>
     </g>
    </g>
    <g id="ytick_4">
     <g id="line2d_17">
      <path clip-path="url(#pc6427e6fbb)" d="M 53.906931 109.232656 
L 409.322835 109.232656 
" style="fill:none;stroke:#000000;stroke-linecap:square;stroke-opacity:0.1;stroke-width:0.5;"/>
     </g>
     <g id="line2d_18">
      <g>
       <use style="stroke:#000000;stroke-width:0.5;" x="53.906931" xlink:href="#mcc10dd8b96" y="109.232656"/>
      </g>
     </g>
     <g id="text_10">
      <!-- $\mathregular{60}$ -->
      <g transform="translate(38.406931 113.346406)scale(0.12 -0.12)">
       <defs>
        <path d="M 46.78125 22.21875 
Q 46.78125 13.28125 41.03125 6.09375 
Q 35.296875 -1.078125 26.125 -1.078125 
Q 17.53125 -1.078125 10.46875 6.984375 
Q 3.421875 15.046875 3.421875 28.421875 
Q 3.421875 45.65625 17.09375 58.015625 
Q 29.296875 68.359375 44.53125 68.359375 
L 44.78125 66.75 
Q 38.671875 65.625 34.25 63.6875 
Q 29.828125 61.765625 26.375 58.296875 
Q 22.796875 54.78125 19.671875 49.359375 
Q 16.546875 43.953125 15.375 38.625 
Q 18.40625 40.484375 20.609375 41.359375 
Q 24.515625 42.921875 28.46875 42.921875 
Q 36.234375 42.921875 41.5 37.546875 
Q 46.78125 32.171875 46.78125 22.21875 
z
M 37.84375 18.453125 
Q 37.84375 24.953125 35.796875 29.984375 
Q 32.375 38.375 24.171875 38.375 
Q 16.609375 38.375 14.109375 33.890625 
Q 12.640625 31.25 12.640625 25.09375 
Q 12.640625 17.140625 16.03125 9.515625 
Q 19.4375 1.90625 26.765625 1.90625 
Q 32.5625 1.90625 35.203125 6.859375 
Q 37.84375 11.8125 37.84375 18.453125 
z
" id="Times-Roman-54"/>
       </defs>
       <use transform="translate(0 0.640625)" xlink:href="#Times-Roman-54"/>
       <use transform="translate(50 0.640625)" xlink:href="#Times-Roman-48"/>
      </g>
     </g>
    </g>
    <g id="ytick_5">
     <g id="line2d_19">
      <path clip-path="url(#pc6427e6fbb)" d="M 53.906931 68.993594 
L 409.322835 68.993594 
" style="fill:none;stroke:#000000;stroke-linecap:square;stroke-opacity:0.1;stroke-width:0.5;"/>
     </g>
     <g id="line2d_20">
      <g>
       <use style="stroke:#000000;stroke-width:0.5;" x="53.906931" xlink:href="#mcc10dd8b96" y="68.993594"/>
      </g>
     </g>
     <g id="text_11">
      <!-- $\mathregular{80}$ -->
      <g transform="translate(38.406931 73.107344)scale(0.12 -0.12)">
       <defs>
        <path d="M 25.140625 1.65625 
Q 30.765625 1.65625 33.640625 4.78125 
Q 36.53125 7.90625 36.53125 12.59375 
Q 36.53125 17.921875 33.46875 21.21875 
Q 30.421875 24.515625 20.953125 31.203125 
Q 16.75 28.5625 14.84375 24.359375 
Q 12.9375 20.171875 12.9375 16.265625 
Q 12.9375 9.578125 16.375 5.609375 
Q 19.828125 1.65625 25.140625 1.65625 
z
M 25.78125 38.96875 
Q 30.375 42.1875 32.125 44.390625 
Q 35.15625 48.140625 35.15625 53.46875 
Q 35.15625 58.109375 32.296875 61.34375 
Q 29.4375 64.59375 23.640625 64.59375 
Q 19.140625 64.59375 16.203125 61.765625 
Q 13.28125 58.9375 13.28125 54.890625 
Q 13.28125 50.296875 16.71875 46.359375 
Q 20.171875 42.4375 25.78125 38.96875 
z
M 18.265625 33.296875 
Q 11.8125 38.484375 9.46875 41.546875 
Q 5.859375 46.234375 5.859375 51.90625 
Q 5.859375 58.34375 11.203125 62.828125 
Q 16.546875 67.328125 25.09375 67.328125 
Q 32.953125 67.328125 37.59375 63.078125 
Q 42.234375 58.84375 42.234375 53.21875 
Q 42.234375 47.515625 37.5 42.96875 
Q 34.765625 40.375 28.65625 37.015625 
Q 36.96875 30.859375 40.546875 26.296875 
Q 44.140625 21.734375 44.140625 15.53125 
Q 44.140625 8.5 38.84375 3.703125 
Q 33.546875 -1.078125 24.65625 -1.078125 
Q 16.703125 -1.078125 11.015625 3.34375 
Q 5.328125 7.765625 5.328125 14.984375 
Q 5.328125 21.1875 9.28125 25.921875 
Q 11.859375 29 18.265625 33.296875 
z
" id="Times-Roman-56"/>
       </defs>
       <use transform="translate(0 0.671875)" xlink:href="#Times-Roman-56"/>
       <use transform="translate(50 0.671875)" xlink:href="#Times-Roman-48"/>
      </g>
     </g>
    </g>
    <g id="text_12">
     <!-- SD Duration td [days] -->
     <g transform="translate(31.911306 202.614375)rotate(-90)scale(0.12 -0.12)">
      <defs>
       <path d="M 8.5 21.578125 
L 8.5 54.6875 
L 17.484375 54.6875 
L 17.484375 21.921875 
Q 17.484375 14.15625 20.5 10.265625 
Q 23.53125 6.390625 29.59375 6.390625 
Q 36.859375 6.390625 41.078125 11.03125 
Q 45.3125 15.671875 45.3125 23.6875 
L 45.3125 54.6875 
L 54.296875 54.6875 
L 54.296875 0 
L 45.3125 0 
L 45.3125 8.40625 
Q 42.046875 3.421875 37.71875 1 
Q 33.40625 -1.421875 27.6875 -1.421875 
Q 18.265625 -1.421875 13.375 4.4375 
Q 8.5 10.296875 8.5 21.578125 
z
M 31.109375 56 
z
" id="DejaVuSans-117"/>
       <path d="M 30.609375 48.390625 
Q 23.390625 48.390625 19.1875 42.75 
Q 14.984375 37.109375 14.984375 27.296875 
Q 14.984375 17.484375 19.15625 11.84375 
Q 23.34375 6.203125 30.609375 6.203125 
Q 37.796875 6.203125 41.984375 11.859375 
Q 46.1875 17.53125 46.1875 27.296875 
Q 46.1875 37.015625 41.984375 42.703125 
Q 37.796875 48.390625 30.609375 48.390625 
z
M 30.609375 56 
Q 42.328125 56 49.015625 48.375 
Q 55.71875 40.765625 55.71875 27.296875 
Q 55.71875 13.875 49.015625 6.21875 
Q 42.328125 -1.421875 30.609375 -1.421875 
Q 18.84375 -1.421875 12.171875 6.21875 
Q 5.515625 13.875 5.515625 27.296875 
Q 5.515625 40.765625 12.171875 48.375 
Q 18.84375 56 30.609375 56 
z
" id="DejaVuSans-111"/>
       <path d="M 54.890625 33.015625 
L 54.890625 0 
L 45.90625 0 
L 45.90625 32.71875 
Q 45.90625 40.484375 42.875 44.328125 
Q 39.84375 48.1875 33.796875 48.1875 
Q 26.515625 48.1875 22.3125 43.546875 
Q 18.109375 38.921875 18.109375 30.90625 
L 18.109375 0 
L 9.078125 0 
L 9.078125 54.6875 
L 18.109375 54.6875 
L 18.109375 46.1875 
Q 21.34375 51.125 25.703125 53.5625 
Q 30.078125 56 35.796875 56 
Q 45.21875 56 50.046875 50.171875 
Q 54.890625 44.34375 54.890625 33.015625 
z
" id="DejaVuSans-110"/>
      </defs>
      <use xlink:href="#DejaVuSans-83"/>
      <use x="63.476562" xlink:href="#DejaVuSans-68"/>
      <use x="140.478516" xlink:href="#DejaVuSans-32"/>
      <use x="172.265625" xlink:href="#DejaVuSans-68"/>
      <use x="249.267578" xlink:href="#DejaVuSans-117"/>
      <use x="312.646484" xlink:href="#DejaVuSans-114"/>
      <use x="353.759766" xlink:href="#DejaVuSans-97"/>
      <use x="415.039062" xlink:href="#DejaVuSans-116"/>
      <use x="454.248047" xlink:href="#DejaVuSans-105"/>
      <use x="482.03125" xlink:href="#DejaVuSans-111"/>
      <use x="543.212891" xlink:href="#DejaVuSans-110"/>
      <use x="606.591797" xlink:href="#DejaVuSans-32"/>
      <use x="638.378906" xlink:href="#DejaVuSans-116"/>
      <use x="677.587891" xlink:href="#DejaVuSans-100"/>
      <use x="741.064453" xlink:href="#DejaVuSans-32"/>
      <use x="772.851562" xlink:href="#DejaVuSans-91"/>
      <use x="811.865234" xlink:href="#DejaVuSans-100"/>
      <use x="875.341797" xlink:href="#DejaVuSans-97"/>
      <use x="936.621094" xlink:href="#DejaVuSans-121"/>
      <use x="995.800781" xlink:href="#DejaVuSans-115"/>
      <use x="1047.900391" xlink:href="#DejaVuSans-93"/>
     </g>
    </g>
   </g>
   <g id="LineCollection_1"/>
   <g id="LineCollection_2">
    <path clip-path="url(#pc6427e6fbb)" d="M 233.937932 44.850156 
L 233.937932 46.862109 
L 233.937932 48.874062 
L 233.937932 50.886015 
L 233.937932 52.897969 
L 233.937932 54.909922 
L 233.937932 56.921875 
L 233.937932 58.933828 
L 233.937932 60.945781 
L 233.937932 62.957734 
L 233.937932 64.969687 
L 233.937932 66.98164 
L 233.937932 68.993594 
L 233.937932 71.005547 
L 233.937932 73.0175 
L 233.937932 73.134864 
" style="fill:none;stroke:#dcdcff;"/>
    <path clip-path="url(#pc6427e6fbb)" d="M 233.937932 97.043573 
L 233.937932 97.160937 
L 233.937932 99.172891 
L 233.937932 101.184844 
L 233.937932 103.196797 
L 233.937932 105.20875 
L 233.937932 107.220703 
L 233.937932 109.232656 
L 233.937932 111.244609 
L 233.937932 113.256562 
L 233.937932 115.268516 
L 233.937932 117.280469 
L 233.937932 119.292422 
L 233.937932 121.304375 
L 233.937932 123.316328 
L 233.937932 125.328281 
L 233.937932 127.340234 
L 233.937932 129.352187 
L 233.937932 131.364141 
L 233.937932 133.376094 
L 233.937932 135.388047 
L 233.937932 137.4 
L 233.937932 139.411953 
L 233.937932 141.423906 
L 233.937932 143.435859 
L 233.937932 145.447813 
L 233.937932 147.459766 
L 233.937932 149.471719 
L 233.937932 151.483672 
L 233.937932 153.495625 
L 233.937932 155.507578 
L 233.937932 157.519531 
L 233.937932 159.531484 
L 233.937932 161.543438 
L 233.937932 163.555391 
L 233.937932 165.567344 
L 230.005198 167.579297 
L 227.525883 167.740735 
L 227.207247 167.579297 
L 224.20587 165.567344 
L 219.347882 163.577158 
L 219.306894 163.555391 
L 215.539963 161.543438 
L 211.997754 159.531484 
L 211.169881 159.213775 
L 208.109118 157.519531 
L 204.472183 155.507578 
L 202.991881 154.689592 
L 200.892224 153.495625 
L 197.357762 151.483672 
L 194.81388 150.03986 
L 193.835042 149.471719 
L 190.376892 147.459766 
L 186.906007 145.447813 
L 186.63588 145.291255 
L 183.498268 143.435859 
L 180.087581 141.423906 
L 178.457879 140.46482 
L 176.696991 139.411953 
L 173.332977 137.4 
L 170.279879 135.583 
L 169.956318 135.388047 
L 166.625447 133.376094 
L 163.282064 131.364141 
L 162.101878 130.655815 
L 159.955974 129.352187 
L 156.641203 127.340234 
L 153.923878 125.699233 
L 153.315483 125.328281 
L 150.021478 123.316328 
L 146.711963 121.304375 
L 145.745877 120.718469 
L 143.418915 119.292422 
L 140.129379 117.280469 
L 137.567877 115.721433 
L 136.829861 115.268516 
L 133.553946 113.256562 
L 130.262869 111.244609 
L 129.389876 110.712509 
L 126.984239 109.232656 
L 123.708105 107.220703 
L 121.211875 105.696221 
L 120.41966 105.20875 
L 117.153923 103.196797 
L 113.870462 101.184844 
L 113.033875 100.673566 
L 110.600497 99.172891 
L 107.330039 97.160937 
L 104.855874 95.646866 
L 104.048057 95.148984 
L 100.785891 93.137031 
L 97.506138 91.125078 
L 96.677874 90.618333 
L 94.239683 89.113125 
L 90.971744 87.101172 
L 88.499873 85.586872 
L 87.692882 85.089219 
L 84.431035 83.077265 
L 81.152404 81.065312 
L 80.321873 80.557122 
L 77.887651 79.053359 
L 74.622394 77.041406 
L 72.143872 75.522004 
L 71.344958 75.029453 
L 68.082234 73.0175 
L 64.803337 71.005547 
L 63.965872 70.493293 
" style="fill:none;stroke:#dcdcff;"/>
   </g>
   <g id="LineCollection_3">
    <path clip-path="url(#pc6427e6fbb)" d="M 261.161765 44.850156 
L 261.161765 46.862109 
L 261.161765 48.874062 
L 261.161765 50.886015 
L 261.161765 52.897969 
L 261.161765 54.909922 
L 261.161765 56.921875 
L 261.161765 58.933828 
L 261.161765 60.945781 
L 261.161765 62.957734 
L 261.161765 64.969687 
L 261.161765 66.98164 
L 261.161765 68.993594 
L 261.161765 71.005547 
L 261.161765 73.0175 
L 261.161765 75.029453 
L 261.161765 77.041406 
L 261.161765 79.053359 
L 261.161765 81.065312 
L 261.161765 83.077265 
L 261.161765 85.089219 
L 261.161765 87.101172 
L 261.161765 89.113125 
L 261.161765 91.125078 
L 261.161765 93.137031 
L 261.161765 95.148984 
L 261.161765 97.160937 
L 261.161765 99.172891 
L 261.161765 101.184844 
L 261.161765 103.196797 
L 261.161765 105.20875 
L 261.161765 107.220703 
L 261.161765 109.232656 
L 261.161765 111.244609 
L 261.161765 113.256562 
L 261.161765 115.268516 
L 261.161765 117.280469 
L 261.161765 119.292422 
L 261.161765 121.304375 
L 261.161765 123.316328 
L 261.161765 125.328281 
L 261.161765 127.340234 
L 261.161765 129.352187 
L 261.161765 131.364141 
L 261.161765 133.376094 
L 261.161765 135.388047 
L 261.161765 137.4 
L 261.161765 139.411953 
L 261.161765 141.423906 
L 261.161765 143.435859 
L 261.161765 145.447813 
L 261.161765 147.459766 
L 261.161765 149.471719 
L 261.161765 151.483672 
L 261.161765 153.495625 
L 261.161765 155.507578 
L 261.161765 157.519531 
L 261.161765 159.531484 
L 261.161765 161.543438 
L 261.161765 163.555391 
L 261.161765 165.567344 
L 261.161765 167.579297 
L 261.161765 169.59125 
L 261.161765 171.603203 
L 261.161765 173.615156 
L 261.161765 175.627109 
L 261.161765 177.639063 
L 261.161765 179.651016 
L 261.161765 181.662969 
L 261.161765 183.674922 
L 261.161765 185.686875 
L 261.161765 187.698828 
L 260.237885 188.690868 
L 258.354184 187.698828 
L 252.059884 186.493493 
L 249.975618 185.686875 
L 244.85125 183.674922 
L 243.881884 183.290436 
L 240.080183 181.662969 
L 235.703883 179.764113 
L 235.457498 179.651016 
L 231.123772 177.639063 
L 227.525883 175.949334 
L 226.868016 175.627109 
L 222.804536 173.615156 
L 219.347882 171.885515 
L 218.800421 171.603203 
L 214.93361 169.59125 
L 211.169881 167.612465 
L 211.108057 167.579297 
L 207.385502 165.567344 
L 203.701422 163.555391 
L 202.991881 163.166528 
L 200.076296 161.543438 
L 196.496967 159.531484 
L 194.81388 158.581872 
L 192.948282 157.519531 
L 190.267935 155.980701 
" style="fill:none;stroke:#b9b9ff;"/>
    <path clip-path="url(#pc6427e6fbb)" d="M 166.726666 142.138683 
L 165.531997 141.423906 
L 162.185738 139.411953 
L 162.101878 139.361541 
L 158.83555 137.4 
L 155.509055 135.388047 
L 153.923878 134.428368 
L 152.179252 133.376094 
L 148.863391 131.364141 
L 145.745877 129.466075 
L 145.55763 129.352187 
L 142.243979 127.340234 
L 138.949204 125.328281 
L 137.567877 124.483968 
L 135.647522 123.316328 
L 132.355217 121.304375 
L 129.389876 119.485951 
L 129.071868 119.292422 
L 125.775277 117.280469 
L 122.498161 115.268516 
L 121.211875 114.479069 
L 119.208561 113.256562 
L 115.92955 111.244609 
L 113.033875 109.463238 
L 112.656146 109.232656 
L 109.369744 107.220703 
L 106.101219 105.20875 
L 104.855874 104.442341 
L 102.81897 103.196797 
L 99.545474 101.184844 
L 96.677874 99.41828 
L 96.276461 99.172891 
L 92.995585 97.160937 
L 89.73124 95.148984 
L 88.499873 94.390202 
L 86.45212 93.137031 
L 83.180292 91.125078 
L 80.321873 89.362993 
L 79.913624 89.113125 
L 76.63581 87.101172 
L 73.374369 85.089219 
L 72.143872 84.330266 
L 70.096705 83.077265 
L 66.825087 81.065312 
L 63.965872 79.302776 
" style="fill:none;stroke:#b9b9ff;"/>
   </g>
   <g id="LineCollection_4">
    <path clip-path="url(#pc6427e6fbb)" d="M 278.905759 44.850156 
L 278.905759 46.862109 
L 278.905759 48.874062 
L 278.905759 50.886015 
L 278.905759 52.897969 
L 278.905759 54.909922 
L 278.905759 56.921875 
L 278.905759 58.933828 
L 278.905759 60.945781 
L 278.905759 62.957734 
L 278.905759 64.969687 
L 278.905759 66.98164 
L 278.905759 68.993594 
L 278.905759 71.005547 
L 278.905759 73.0175 
L 278.905759 73.134864 
" style="fill:none;stroke:#9595ff;"/>
    <path clip-path="url(#pc6427e6fbb)" d="M 278.905759 97.043573 
L 278.905759 199.770547 
L 276.593886 200.935877 
L 268.415885 199.058353 
L 260.237885 196.741733 
L 251.141248 193.734688 
L 243.881884 191.040752 
L 235.703883 187.687907 
L 226.744929 183.674922 
L 218.386682 179.651016 
L 210.476497 175.627109 
L 199.178205 169.59125 
L 184.849389 161.543438 
L 170.279879 153.04704 
L 157.476989 145.447813 
L 101.290881 111.244609 
L 63.965872 88.291658 
L 63.965872 88.291658 
" style="fill:none;stroke:#9595ff;"/>
   </g>
   <g id="LineCollection_5">
    <path clip-path="url(#pc6427e6fbb)" d="M 293.117573 44.850156 
L 293.117573 46.862109 
L 293.117573 48.874062 
L 293.117573 50.886015 
L 293.117573 52.897969 
L 293.117573 54.909922 
L 293.117573 56.921875 
L 293.117573 58.933828 
L 293.117573 60.945781 
L 293.117573 62.957734 
L 293.117573 64.969687 
L 293.117573 66.98164 
L 293.117573 68.993594 
L 293.117573 71.005547 
L 293.117573 73.0175 
L 293.117573 75.029453 
L 293.117573 77.041406 
L 293.117573 79.053359 
L 293.117573 81.065312 
L 293.117573 83.077265 
L 293.117573 85.089219 
L 293.117573 87.101172 
L 293.117573 89.113125 
L 293.117573 91.125078 
L 293.117573 93.137031 
L 293.117573 95.148984 
L 293.117573 97.160937 
L 293.117573 99.172891 
L 293.117573 101.184844 
L 293.117573 103.196797 
L 293.117573 105.20875 
L 293.117573 107.220703 
L 293.117573 109.232656 
L 293.117573 111.244609 
L 293.117573 113.256562 
L 293.117573 115.268516 
L 293.117573 117.280469 
L 293.117573 119.292422 
L 293.117573 121.304375 
L 293.117573 123.316328 
L 293.117573 125.328281 
L 293.117573 127.340234 
L 293.117573 129.352187 
L 293.117573 131.364141 
L 293.117573 133.376094 
L 293.117573 135.388047 
L 293.117573 137.4 
L 293.117573 139.411953 
L 293.117573 141.423906 
L 293.117573 143.435859 
L 293.117573 145.447813 
L 293.117573 147.459766 
L 293.117573 149.471719 
L 293.117573 151.483672 
L 293.117573 153.495625 
L 293.117573 155.507578 
L 293.117573 155.624942 
" style="fill:none;stroke:#7171ff;"/>
    <path clip-path="url(#pc6427e6fbb)" d="M 293.117573 179.533652 
L 293.117573 179.651016 
L 293.117573 181.662969 
L 293.117573 183.674922 
L 293.117573 185.686875 
L 293.117573 187.698828 
L 293.117573 189.710781 
L 293.117573 191.722735 
L 293.117573 193.734688 
L 293.117573 195.746641 
L 293.117573 197.758594 
L 293.117573 199.770547 
L 293.117573 201.7825 
L 293.117573 203.794453 
L 293.117573 205.806406 
L 293.117573 207.81836 
L 293.117573 209.830313 
L 292.949887 209.940795 
L 291.874149 209.830313 
L 284.771886 209.252467 
L 276.593886 207.830051 
L 276.536726 207.81836 
L 268.415885 206.08993 
L 267.25541 205.806406 
L 260.237885 204.015475 
L 259.458937 203.794453 
L 252.65884 201.7825 
L 252.059884 201.598615 
L 246.555779 199.770547 
L 243.881884 198.841758 
L 240.928556 197.758594 
L 235.703883 195.747847 
L 235.700849 195.746641 
L 230.76376 193.734688 
L 227.525883 192.350165 
L 226.081601 191.722735 
L 221.595925 189.710781 
L 219.347882 188.666064 
L 217.271462 187.698828 
L 213.098417 185.686875 
L 211.169881 184.729416 
L 209.027067 183.674922 
L 205.070212 181.662969 
L 202.991881 180.57592 
L 201.191006 179.651016 
L 197.381299 177.639063 
L 194.81388 176.239407 
L 193.661519 175.627109 
L 189.952359 173.615156 
L 186.63588 171.747921 
L 186.370382 171.603203 
L 182.720831 169.59125 
L 179.214387 167.579297 
L 178.457879 167.140852 
L 175.650036 165.567344 
L 172.17463 163.555391 
L 170.279879 162.435951 
L 168.710261 161.543438 
L 165.245023 159.531484 
L 162.101878 157.646394 
L 161.881213 157.519531 
L 158.408081 155.507578 
L 155.057341 153.495625 
L 153.923878 152.8075 
L 151.651412 151.483672 
L 148.284932 149.471719 
L 145.745877 147.916516 
L 144.966267 147.459766 
L 141.572066 145.447813 
L 138.28922 143.435859 
L 137.567877 142.991045 
L 134.915275 141.423906 
L 131.603444 139.411953 
L 129.389876 138.039663 
L 128.309895 137.4 
L 124.958979 135.388047 
L 121.712462 133.376094 
L 121.211875 133.064878 
L 118.35428 131.364141 
L 115.07051 129.352187 
L 113.033875 128.08105 
L 111.791002 127.340234 
L 108.464691 125.328281 
L 105.238978 123.316328 
L 104.855874 123.076977 
L 101.890586 121.304375 
L 98.622851 119.292422 
L 96.677874 118.074844 
L 95.349059 117.280469 
L 92.035897 115.268516 
L 88.821795 113.256562 
L 88.499873 113.054879 
L 85.478285 111.244609 
L 82.218494 109.232656 
L 80.321873 108.043317 
L 78.94902 107.220703 
L 75.642939 105.20875 
L 72.436111 103.196797 
L 72.143872 103.013367 
L 69.094996 101.184844 
L 65.838772 99.172891 
L 63.965872 97.997591 
" style="fill:none;stroke:#7171ff;"/>
   </g>
   <g id="LineCollection_6">
    <path clip-path="url(#pc6427e6fbb)" d="M 305.318035 44.850156 
L 305.318035 213.854219 
L 304.529858 215.866172 
L 301.127887 217.32212 
L 292.949887 216.622021 
L 284.771886 215.710802 
L 276.593886 214.56096 
L 268.415885 213.143284 
L 260.237885 211.431413 
L 252.059884 209.406902 
L 243.881884 207.057797 
L 235.703883 204.375168 
L 228.593444 201.7825 
L 223.436 199.770547 
L 213.973456 195.746641 
L 202.991881 190.606903 
L 197.055188 187.698828 
L 181.684584 179.651016 
L 156.722395 165.567344 
L 153.347092 163.555391 
L 146.495156 159.531484 
L 143.029152 157.519531 
L 134.590387 152.47729 
L 134.590387 152.47729 
" style="fill:none;stroke:#4d4dff;"/>
    <path clip-path="url(#pc6427e6fbb)" d="M 111.272632 138.381507 
L 109.59933 137.4 
L 106.340947 135.388047 
L 104.855874 134.451413 
L 103.024358 133.376094 
L 99.695707 131.364141 
L 96.677874 129.455615 
L 96.501864 129.352187 
L 93.098836 127.340234 
L 89.863357 125.328281 
L 88.499873 124.464297 
L 86.552442 123.316328 
L 83.241217 121.304375 
L 80.321873 119.452108 
L 80.05115 119.292422 
L 76.662331 117.280469 
L 73.440858 115.268516 
L 72.143872 114.444149 
L 70.133575 113.256562 
L 66.831471 111.244609 
L 63.965872 109.423441 
" style="fill:none;stroke:#4d4dff;"/>
   </g>
   <g id="LineCollection_7">
    <path clip-path="url(#pc6427e6fbb)" d="M 317.043465 44.850156 
L 317.043465 46.862109 
L 317.043465 48.874062 
L 317.043465 50.886015 
L 317.043465 52.897969 
L 317.043465 54.909922 
L 317.043465 56.921875 
L 317.043465 58.933828 
L 317.043465 60.945781 
L 317.043465 62.957734 
L 317.043465 64.969687 
L 317.043465 66.98164 
L 317.043465 68.993594 
L 317.043465 71.005547 
L 317.043465 73.0175 
L 317.043465 73.134864 
" style="fill:none;stroke:#2929ff;"/>
    <path clip-path="url(#pc6427e6fbb)" d="M 317.043465 97.043573 
L 317.035205 219.890078 
L 316.553235 221.902031 
L 309.305888 223.544999 
L 301.127887 223.213439 
L 292.949887 222.76732 
L 281.547241 221.902031 
L 276.593886 221.440767 
L 263.86204 219.890078 
L 260.237885 219.358279 
L 251.655481 217.878125 
L 242.00695 215.866172 
L 233.924266 213.854219 
L 226.891872 211.842266 
L 219.347882 209.426214 
L 214.640641 207.81836 
L 204.206027 203.794453 
L 190.267147 197.758594 
L 173.816468 189.710781 
L 170.090103 187.698828 
L 166.126696 185.686875 
L 153.923878 178.949388 
L 147.903144 175.627109 
L 144.40627 173.615156 
L 140.825696 171.603203 
L 137.501761 169.59125 
L 133.876584 167.579297 
L 120.317733 159.531484 
L 116.827105 157.519531 
L 113.033875 155.158504 
L 106.794414 151.483672 
L 103.488832 149.471719 
L 100.076338 147.459766 
L 96.677874 145.304679 
L 93.429836 143.435859 
L 80.321873 135.366814 
L 76.884494 133.376094 
L 63.965872 125.382083 
L 63.965872 125.382083 
" style="fill:none;stroke:#2929ff;"/>
   </g>
   <g id="LineCollection_8">
    <path clip-path="url(#pc6427e6fbb)" d="M 337.444745 44.850156 
L 337.444745 46.862109 
L 337.444745 48.874062 
L 337.444745 50.886015 
L 337.444745 52.897969 
L 337.444745 54.909922 
L 337.444745 56.921875 
L 337.444745 58.933828 
L 337.444745 60.945781 
L 337.444745 62.957734 
L 337.444745 64.969687 
L 337.444745 66.98164 
L 337.444745 68.993594 
L 337.444745 71.005547 
L 337.444745 73.0175 
L 337.444745 75.029453 
L 337.444745 77.041406 
L 337.444745 79.053359 
L 337.444745 81.065312 
L 337.444745 83.077265 
L 337.444745 85.089219 
L 337.444745 87.101172 
L 337.444745 89.113125 
L 337.444745 91.125078 
L 337.444745 93.137031 
L 337.444745 95.148984 
L 337.444745 97.160937 
L 337.444745 99.172891 
L 337.444745 101.184844 
L 337.444745 103.196797 
L 337.444745 105.20875 
L 337.444745 107.220703 
L 337.444745 109.232656 
L 337.444745 111.244609 
L 337.444745 113.256562 
L 337.444745 115.268516 
L 337.444745 117.280469 
L 337.444745 119.292422 
L 337.444745 121.304375 
L 337.444745 123.316328 
L 337.444745 125.328281 
L 337.444745 127.340234 
L 337.444745 129.352187 
L 337.444745 131.364141 
L 337.444745 133.376094 
L 337.444745 135.388047 
L 337.444745 137.4 
L 337.444745 139.411953 
L 337.444745 141.423906 
L 337.444745 143.435859 
L 337.444745 145.447813 
L 337.444745 147.459766 
L 337.444745 149.471719 
L 337.444745 151.483672 
L 337.444745 153.495625 
L 337.444745 155.507578 
L 337.444745 155.624942 
" style="fill:none;stroke:#0505ff;"/>
    <path clip-path="url(#pc6427e6fbb)" d="M 337.444745 179.533652 
L 337.444745 179.651016 
L 337.444745 181.662969 
L 337.444745 183.674922 
L 337.444745 185.686875 
L 337.444745 187.698828 
L 337.444745 189.710781 
L 337.444745 191.722735 
L 337.444745 193.734688 
L 337.444745 195.746641 
L 337.444745 197.758594 
L 337.444745 199.770547 
L 337.444745 201.7825 
L 337.444745 203.794453 
L 337.444745 205.806406 
L 337.444745 207.81836 
L 337.444745 209.830313 
L 337.444745 211.842266 
L 337.444745 213.854219 
L 337.444745 215.866172 
L 337.444745 217.878125 
L 337.444745 219.890078 
L 337.444745 221.902031 
L 337.444745 223.913985 
L 337.444745 225.925938 
L 337.444745 227.937891 
L 333.83989 228.657893 
L 325.661889 229.184934 
L 317.483889 229.160638 
L 309.305888 229.124884 
L 301.127887 229.074928 
L 292.949887 229.007222 
L 284.771886 228.917122 
L 276.593886 228.798348 
L 268.415885 228.643639 
L 260.237885 228.443166 
L 252.059884 228.184293 
L 245.755748 227.937891 
L 243.881884 227.85607 
L 235.703883 227.455794 
L 227.525883 226.945396 
L 219.347882 226.292754 
L 215.320897 225.925938 
L 211.169881 225.496151 
L 202.991881 224.517721 
L 198.586049 223.913985 
L 194.81388 223.323225 
L 186.801464 221.902031 
L 186.63588 221.8684 
L 178.457879 220.170782 
L 177.163956 219.890078 
L 170.279879 218.172326 
L 169.10717 217.878125 
L 162.136405 215.866172 
L 162.101878 215.855052 
L 155.611718 213.854219 
L 153.923878 213.254839 
L 149.693457 211.842266 
L 145.745877 210.321682 
L 144.369803 209.830313 
L 139.230283 207.81836 
L 137.567877 207.096946 
L 134.311339 205.806406 
L 129.845936 203.794453 
L 129.389876 203.577482 
L 125.20875 201.7825 
L 121.211875 199.813264 
L 121.115265 199.770547 
L 116.719274 197.758594 
L 113.033875 195.831215 
L 112.852484 195.746641 
L 108.665163 193.734688 
L 104.980145 191.722735 
L 104.855874 191.653005 
L 100.938656 189.710781 
L 97.325347 187.698828 
L 96.677874 187.323508 
L 93.472152 185.686875 
L 89.880598 183.674922 
L 88.499873 182.853225 
L 86.221619 181.662969 
L 82.609169 179.651016 
L 80.321873 178.262006 
L 79.153344 177.639063 
L 75.500154 175.627109 
L 72.233136 173.615156 
L 72.143872 173.559616 
L 68.531816 171.603203 
L 65.177366 169.59125 
L 63.965872 168.829332 
" style="fill:none;stroke:#0505ff;"/>
   </g>
   <g id="line2d_21">
    <path clip-path="url(#pc6427e6fbb)" d="M 80.321873 84.083242 
L 88.499873 89.113125 
L 96.677874 94.143008 
L 104.855874 99.172891 
L 113.033875 104.202773 
L 121.211875 109.232656 
L 129.389876 114.262539 
L 137.567877 119.292422 
L 145.745877 124.322305 
L 153.923878 129.352187 
L 162.101878 134.38207 
L 170.279879 139.411953 
L 178.457879 144.441836 
L 186.63588 149.471719 
L 194.81388 154.501602 
L 202.991881 159.531484 
L 211.169881 164.561367 
L 219.347882 169.59125 
L 227.525883 174.621133 
L 235.703883 179.651016 
L 243.881884 184.680899 
L 252.059884 189.710781 
L 260.237885 194.740664 
L 268.415885 199.770547 
L 276.593886 204.80043 
L 284.771886 209.830313 
L 292.949887 214.860196 
L 301.127887 219.890078 
L 309.305888 224.919961 
L 317.483889 229.949844 
" style="fill:none;stroke:#e36f47;stroke-dasharray:22.2,9.6;stroke-dashoffset:0;stroke-width:6;"/>
   </g>
   <g id="patch_3">
    <path d="M 53.906931 235.502835 
L 53.906931 39.297165 
" style="fill:none;stroke:#000000;stroke-linecap:square;stroke-linejoin:miter;"/>
   </g>
   <g id="patch_4">
    <path d="M 53.906931 235.502835 
L 409.322835 235.502835 
" style="fill:none;stroke:#000000;stroke-linecap:square;stroke-linejoin:miter;"/>
   </g>
   <g id="text_13">
    <g clip-path="url(#pc6427e6fbb)">
     <!-- 0.333 -->
     <g style="fill:#dcdcff;" transform="translate(231.178557 70.775156)rotate(-270)scale(0.1 -0.1)">
      <defs>
       <path d="M 31.78125 66.40625 
Q 24.171875 66.40625 20.328125 58.90625 
Q 16.5 51.421875 16.5 36.375 
Q 16.5 21.390625 20.328125 13.890625 
Q 24.171875 6.390625 31.78125 6.390625 
Q 39.453125 6.390625 43.28125 13.890625 
Q 47.125 21.390625 47.125 36.375 
Q 47.125 51.421875 43.28125 58.90625 
Q 39.453125 66.40625 31.78125 66.40625 
z
M 31.78125 74.21875 
Q 44.046875 74.21875 50.515625 64.515625 
Q 56.984375 54.828125 56.984375 36.375 
Q 56.984375 17.96875 50.515625 8.265625 
Q 44.046875 -1.421875 31.78125 -1.421875 
Q 19.53125 -1.421875 13.0625 8.265625 
Q 6.59375 17.96875 6.59375 36.375 
Q 6.59375 54.828125 13.0625 64.515625 
Q 19.53125 74.21875 31.78125 74.21875 
z
" id="DejaVuSans-48"/>
       <path d="M 10.6875 12.40625 
L 21 12.40625 
L 21 0 
L 10.6875 0 
z
" id="DejaVuSans-46"/>
       <path d="M 40.578125 39.3125 
Q 47.65625 37.796875 51.625 33 
Q 55.609375 28.21875 55.609375 21.1875 
Q 55.609375 10.40625 48.1875 4.484375 
Q 40.765625 -1.421875 27.09375 -1.421875 
Q 22.515625 -1.421875 17.65625 -0.515625 
Q 12.796875 0.390625 7.625 2.203125 
L 7.625 11.71875 
Q 11.71875 9.328125 16.59375 8.109375 
Q 21.484375 6.890625 26.8125 6.890625 
Q 36.078125 6.890625 40.9375 10.546875 
Q 45.796875 14.203125 45.796875 21.1875 
Q 45.796875 27.640625 41.28125 31.265625 
Q 36.765625 34.90625 28.71875 34.90625 
L 20.21875 34.90625 
L 20.21875 43.015625 
L 29.109375 43.015625 
Q 36.375 43.015625 40.234375 45.921875 
Q 44.09375 48.828125 44.09375 54.296875 
Q 44.09375 59.90625 40.109375 62.90625 
Q 36.140625 65.921875 28.71875 65.921875 
Q 24.65625 65.921875 20.015625 65.03125 
Q 15.375 64.15625 9.8125 62.3125 
L 9.8125 71.09375 
Q 15.4375 72.65625 20.34375 73.4375 
Q 25.25 74.21875 29.59375 74.21875 
Q 40.828125 74.21875 47.359375 69.109375 
Q 53.90625 64.015625 53.90625 55.328125 
Q 53.90625 49.265625 50.4375 45.09375 
Q 46.96875 40.921875 40.578125 39.3125 
z
" id="DejaVuSans-51"/>
      </defs>
      <use xlink:href="#DejaVuSans-48"/>
      <use x="63.623047" xlink:href="#DejaVuSans-46"/>
      <use x="95.410156" xlink:href="#DejaVuSans-51"/>
      <use x="159.033203" xlink:href="#DejaVuSans-51"/>
      <use x="222.65625" xlink:href="#DejaVuSans-51"/>
     </g>
    </g>
   </g>
   <g id="text_14">
    <g clip-path="url(#pc6427e6fbb)">
     <!-- 0.366 -->
     <g style="fill:#b9b9ff;" transform="translate(165.190337 143.065925)rotate(-324.612308)scale(0.1 -0.1)">
      <defs>
       <path d="M 33.015625 40.375 
Q 26.375 40.375 22.484375 35.828125 
Q 18.609375 31.296875 18.609375 23.390625 
Q 18.609375 15.53125 22.484375 10.953125 
Q 26.375 6.390625 33.015625 6.390625 
Q 39.65625 6.390625 43.53125 10.953125 
Q 47.40625 15.53125 47.40625 23.390625 
Q 47.40625 31.296875 43.53125 35.828125 
Q 39.65625 40.375 33.015625 40.375 
z
M 52.59375 71.296875 
L 52.59375 62.3125 
Q 48.875 64.0625 45.09375 64.984375 
Q 41.3125 65.921875 37.59375 65.921875 
Q 27.828125 65.921875 22.671875 59.328125 
Q 17.53125 52.734375 16.796875 39.40625 
Q 19.671875 43.65625 24.015625 45.921875 
Q 28.375 48.1875 33.59375 48.1875 
Q 44.578125 48.1875 50.953125 41.515625 
Q 57.328125 34.859375 57.328125 23.390625 
Q 57.328125 12.15625 50.6875 5.359375 
Q 44.046875 -1.421875 33.015625 -1.421875 
Q 20.359375 -1.421875 13.671875 8.265625 
Q 6.984375 17.96875 6.984375 36.375 
Q 6.984375 53.65625 15.1875 63.9375 
Q 23.390625 74.21875 37.203125 74.21875 
Q 40.921875 74.21875 44.703125 73.484375 
Q 48.484375 72.75 52.59375 71.296875 
z
" id="DejaVuSans-54"/>
      </defs>
      <use xlink:href="#DejaVuSans-48"/>
      <use x="63.623047" xlink:href="#DejaVuSans-46"/>
      <use x="95.410156" xlink:href="#DejaVuSans-51"/>
      <use x="159.033203" xlink:href="#DejaVuSans-54"/>
      <use x="222.65625" xlink:href="#DejaVuSans-54"/>
     </g>
    </g>
   </g>
   <g id="text_15">
    <g clip-path="url(#pc6427e6fbb)">
     <!-- 0.399 -->
     <g style="fill:#9595ff;" transform="translate(276.146384 70.775156)rotate(-270)scale(0.1 -0.1)">
      <defs>
       <path d="M 10.984375 1.515625 
L 10.984375 10.5 
Q 14.703125 8.734375 18.5 7.8125 
Q 22.3125 6.890625 25.984375 6.890625 
Q 35.75 6.890625 40.890625 13.453125 
Q 46.046875 20.015625 46.78125 33.40625 
Q 43.953125 29.203125 39.59375 26.953125 
Q 35.25 24.703125 29.984375 24.703125 
Q 19.046875 24.703125 12.671875 31.3125 
Q 6.296875 37.9375 6.296875 49.421875 
Q 6.296875 60.640625 12.9375 67.421875 
Q 19.578125 74.21875 30.609375 74.21875 
Q 43.265625 74.21875 49.921875 64.515625 
Q 56.59375 54.828125 56.59375 36.375 
Q 56.59375 19.140625 48.40625 8.859375 
Q 40.234375 -1.421875 26.421875 -1.421875 
Q 22.703125 -1.421875 18.890625 -0.6875 
Q 15.09375 0.046875 10.984375 1.515625 
z
M 30.609375 32.421875 
Q 37.25 32.421875 41.125 36.953125 
Q 45.015625 41.5 45.015625 49.421875 
Q 45.015625 57.28125 41.125 61.84375 
Q 37.25 66.40625 30.609375 66.40625 
Q 23.96875 66.40625 20.09375 61.84375 
Q 16.21875 57.28125 16.21875 49.421875 
Q 16.21875 41.5 20.09375 36.953125 
Q 23.96875 32.421875 30.609375 32.421875 
z
" id="DejaVuSans-57"/>
      </defs>
      <use xlink:href="#DejaVuSans-48"/>
      <use x="63.623047" xlink:href="#DejaVuSans-46"/>
      <use x="95.410156" xlink:href="#DejaVuSans-51"/>
      <use x="159.033203" xlink:href="#DejaVuSans-57"/>
      <use x="222.65625" xlink:href="#DejaVuSans-57"/>
     </g>
    </g>
   </g>
   <g id="text_16">
    <g clip-path="url(#pc6427e6fbb)">
     <!-- 0.431 -->
     <g style="fill:#7171ff;" transform="translate(290.358198 153.265234)rotate(-270)scale(0.1 -0.1)">
      <defs>
       <path d="M 37.796875 64.3125 
L 12.890625 25.390625 
L 37.796875 25.390625 
z
M 35.203125 72.90625 
L 47.609375 72.90625 
L 47.609375 25.390625 
L 58.015625 25.390625 
L 58.015625 17.1875 
L 47.609375 17.1875 
L 47.609375 0 
L 37.796875 0 
L 37.796875 17.1875 
L 4.890625 17.1875 
L 4.890625 26.703125 
z
" id="DejaVuSans-52"/>
       <path d="M 12.40625 8.296875 
L 28.515625 8.296875 
L 28.515625 63.921875 
L 10.984375 60.40625 
L 10.984375 69.390625 
L 28.421875 72.90625 
L 38.28125 72.90625 
L 38.28125 8.296875 
L 54.390625 8.296875 
L 54.390625 0 
L 12.40625 0 
z
" id="DejaVuSans-49"/>
      </defs>
      <use xlink:href="#DejaVuSans-48"/>
      <use x="63.623047" xlink:href="#DejaVuSans-46"/>
      <use x="95.410156" xlink:href="#DejaVuSans-52"/>
      <use x="159.033203" xlink:href="#DejaVuSans-51"/>
      <use x="222.65625" xlink:href="#DejaVuSans-49"/>
     </g>
    </g>
   </g>
   <g id="text_17">
    <g clip-path="url(#pc6427e6fbb)">
     <!-- 0.464 -->
     <g style="fill:#4d4dff;" transform="translate(109.736394 139.216454)rotate(-323.782185)scale(0.1 -0.1)">
      <use xlink:href="#DejaVuSans-48"/>
      <use x="63.623047" xlink:href="#DejaVuSans-46"/>
      <use x="95.410156" xlink:href="#DejaVuSans-52"/>
      <use x="159.033203" xlink:href="#DejaVuSans-54"/>
      <use x="222.65625" xlink:href="#DejaVuSans-52"/>
     </g>
    </g>
   </g>
   <g id="text_18">
    <g clip-path="url(#pc6427e6fbb)">
     <!-- 0.497 -->
     <g style="fill:#2929ff;" transform="translate(314.28409 70.775156)rotate(-270)scale(0.1 -0.1)">
      <defs>
       <path d="M 8.203125 72.90625 
L 55.078125 72.90625 
L 55.078125 68.703125 
L 28.609375 0 
L 18.3125 0 
L 43.21875 64.59375 
L 8.203125 64.59375 
z
" id="DejaVuSans-55"/>
      </defs>
      <use xlink:href="#DejaVuSans-48"/>
      <use x="63.623047" xlink:href="#DejaVuSans-46"/>
      <use x="95.410156" xlink:href="#DejaVuSans-52"/>
      <use x="159.033203" xlink:href="#DejaVuSans-57"/>
      <use x="222.65625" xlink:href="#DejaVuSans-55"/>
     </g>
    </g>
   </g>
   <g id="text_19">
    <g clip-path="url(#pc6427e6fbb)">
     <!-- 0.530 -->
     <g style="fill:#0505ff;" transform="translate(334.68537 153.265234)rotate(-270)scale(0.1 -0.1)">
      <defs>
       <path d="M 10.796875 72.90625 
L 49.515625 72.90625 
L 49.515625 64.59375 
L 19.828125 64.59375 
L 19.828125 46.734375 
Q 21.96875 47.46875 24.109375 47.828125 
Q 26.265625 48.1875 28.421875 48.1875 
Q 40.625 48.1875 47.75 41.5 
Q 54.890625 34.8125 54.890625 23.390625 
Q 54.890625 11.625 47.5625 5.09375 
Q 40.234375 -1.421875 26.90625 -1.421875 
Q 22.3125 -1.421875 17.546875 -0.640625 
Q 12.796875 0.140625 7.71875 1.703125 
L 7.71875 11.625 
Q 12.109375 9.234375 16.796875 8.0625 
Q 21.484375 6.890625 26.703125 6.890625 
Q 35.15625 6.890625 40.078125 11.328125 
Q 45.015625 15.765625 45.015625 23.390625 
Q 45.015625 31 40.078125 35.4375 
Q 35.15625 39.890625 26.703125 39.890625 
Q 22.75 39.890625 18.8125 39.015625 
Q 14.890625 38.140625 10.796875 36.28125 
z
" id="DejaVuSans-53"/>
      </defs>
      <use xlink:href="#DejaVuSans-48"/>
      <use x="63.623047" xlink:href="#DejaVuSans-46"/>
      <use x="95.410156" xlink:href="#DejaVuSans-53"/>
      <use x="159.033203" xlink:href="#DejaVuSans-51"/>
      <use x="222.65625" xlink:href="#DejaVuSans-48"/>
     </g>
    </g>
   </g>
   <g id="text_20">
    <!-- Max(I) -->
    <g transform="translate(208.958633 33.297165)scale(0.16 -0.16)">
     <defs>
      <path d="M 1.125 1.8125 
Q 7.328125 2.4375 9.078125 4.609375 
Q 10.84375 6.78125 10.84375 14.703125 
L 10.84375 55.328125 
Q 10.84375 60.75 9.125 62.375 
Q 7.421875 64.015625 1.375 64.3125 
L 1.375 66.15625 
L 21.140625 66.15625 
L 44.28125 15.71875 
L 66.40625 66.15625 
L 86.328125 66.15625 
L 86.328125 64.3125 
Q 80.765625 63.921875 79.15625 62.28125 
Q 77.546875 60.640625 77.546875 55.328125 
L 77.546875 10.84375 
Q 77.546875 5.375 79.15625 3.828125 
Q 80.765625 2.296875 86.328125 1.8125 
L 86.328125 0 
L 58.296875 0 
L 58.296875 1.8125 
Q 64.359375 2.296875 65.84375 3.984375 
Q 67.328125 5.671875 67.328125 12.015625 
L 67.328125 56.9375 
L 41.75 0 
L 40.375 0 
L 15.234375 54.59375 
L 15.234375 14.703125 
Q 15.234375 6.5 17.625 4 
Q 19.1875 2.390625 24.609375 1.8125 
L 24.609375 0 
L 1.125 0 
z
" id="Times-Roman-77"/>
      <path d="M 28.65625 27.046875 
Q 23.046875 25.203125 19.390625 22.953125 
Q 12.359375 18.609375 12.359375 13.09375 
Q 12.359375 8.640625 15.28125 6.546875 
Q 17.1875 5.171875 19.53125 5.171875 
Q 22.75 5.171875 25.703125 6.984375 
Q 28.65625 8.796875 28.65625 11.578125 
z
M 3.65625 9.71875 
Q 3.65625 16.796875 10.75 21.53125 
Q 15.234375 24.46875 28.65625 29.5 
L 28.65625 33.640625 
Q 28.65625 38.625 27.6875 40.578125 
Q 26.03125 43.84375 20.796875 43.84375 
Q 18.3125 43.84375 16.0625 42.578125 
Q 13.8125 41.265625 13.8125 38.96875 
Q 13.8125 38.375 14.0625 36.984375 
Q 14.3125 35.59375 14.3125 35.203125 
Q 14.3125 32.46875 12.5 31.390625 
Q 11.46875 30.765625 10.0625 30.765625 
Q 7.859375 30.765625 6.6875 32.203125 
Q 5.515625 33.640625 5.515625 35.40625 
Q 5.515625 38.8125 9.734375 42.546875 
Q 13.96875 46.296875 22.125 46.296875 
Q 31.59375 46.296875 34.96875 40.140625 
Q 36.765625 36.765625 36.765625 30.328125 
L 36.765625 10.75 
Q 36.765625 7.90625 37.15625 6.84375 
Q 37.796875 4.9375 39.796875 4.9375 
Q 40.921875 4.9375 41.65625 5.265625 
Q 42.390625 5.609375 44.1875 6.9375 
L 44.1875 4.390625 
Q 42.625 2.484375 40.828125 1.265625 
Q 38.09375 -0.59375 35.25 -0.59375 
Q 31.9375 -0.59375 30.4375 1.5625 
Q 28.953125 3.71875 28.8125 6.6875 
Q 25.09375 3.46875 22.46875 1.90625 
Q 18.015625 -0.734375 14.015625 -0.734375 
Q 9.8125 -0.734375 6.734375 2.21875 
Q 3.65625 5.171875 3.65625 9.71875 
z
M 22.265625 46.296875 
z
" id="Times-Roman-97"/>
      <path d="M 23.140625 44.875 
L 23.140625 43.5 
Q 21.296875 43.453125 20 42.984375 
Q 18.703125 42.53125 18.703125 41.0625 
Q 18.703125 40.140625 21.296875 35.84375 
Q 22.65625 33.59375 24.75 30.328125 
Q 27.640625 34.28125 29.046875 36.53125 
Q 31.453125 40.140625 31.453125 41.21875 
Q 31.453125 42.484375 30.421875 42.921875 
Q 29.390625 43.359375 27.546875 43.5 
L 27.546875 44.875 
L 43.265625 44.875 
L 43.265625 43.5 
Q 40.765625 43.3125 38.609375 42.15625 
Q 36.46875 41.015625 35.15625 39.109375 
L 26.8125 27.046875 
L 39.703125 7.515625 
Q 42.1875 3.71875 43.921875 2.59375 
Q 45.65625 1.46875 47.90625 1.375 
L 47.90625 0 
L 27.734375 0 
L 27.734375 1.375 
L 29.15625 1.46875 
Q 30.28125 1.5625 31.03125 2.140625 
Q 31.78125 2.734375 31.78125 3.609375 
Q 31.78125 4.546875 29.9375 7.71875 
Q 29.046875 9.28125 27.296875 11.96875 
Q 26.46875 13.28125 24.828125 15.625 
Q 23.1875 17.96875 22.078125 19.625 
L 14.203125 7.375 
Q 12.796875 5.171875 12.453125 4.4375 
Q 12.109375 3.71875 12.109375 3.21875 
Q 12.109375 2.296875 12.859375 2 
Q 13.625 1.703125 16.15625 1.375 
L 16.15625 0 
L 1.703125 0 
L 1.703125 1.375 
Q 4.34375 1.90625 5.609375 2.734375 
Q 6.890625 3.5625 8.984375 6.59375 
L 20.359375 23.140625 
L 10.984375 37.359375 
Q 8.15625 41.609375 7.078125 42.390625 
Q 6 43.171875 2.390625 43.5 
L 2.390625 44.875 
z
" id="Times-Roman-120"/>
      <path d="M 4.59375 25.09375 
Q 4.59375 42.09375 14.75 54.9375 
Q 21 62.796875 29.5 67.578125 
L 30.421875 65.96875 
Q 22.5625 59.71875 19.1875 53.8125 
Q 13.28125 43.5 13.28125 26.375 
Q 13.28125 13.671875 15.53125 5.421875 
Q 19.484375 -9.03125 30.421875 -16.21875 
L 29.15625 -17.828125 
Q 23.140625 -14.9375 16.15625 -6.546875 
Q 4.59375 7.375 4.59375 25.09375 
z
" id="Times-Roman-40"/>
      <path d="M 1.609375 1.8125 
Q 7.71875 2.25 9.515625 3.640625 
Q 11.328125 5.03125 11.328125 10.84375 
L 11.328125 55.328125 
Q 11.328125 60.84375 9.515625 62.421875 
Q 7.71875 64.015625 1.609375 64.3125 
L 1.609375 66.15625 
L 31.203125 66.15625 
L 31.203125 64.3125 
Q 25.09375 64.015625 23.28125 62.421875 
Q 21.484375 60.84375 21.484375 55.328125 
L 21.484375 10.84375 
Q 21.484375 5.03125 23.28125 3.640625 
Q 25.09375 2.25 31.203125 1.8125 
L 31.203125 0 
L 1.609375 0 
z
M 16.40625 66.15625 
z
" id="Times-Roman-73"/>
      <path d="M 28.46875 24.609375 
Q 28.46875 17.328125 26.5625 10.828125 
Q 24.65625 4.34375 21 -1.421875 
Q 17.140625 -7.5625 10.6875 -12.890625 
Q 6.453125 -16.40625 3.5625 -17.828125 
L 2.640625 -16.21875 
Q 10.15625 -10.5 13.625 -4.546875 
Q 19.78125 6 19.78125 23.34375 
Q 19.78125 37.359375 16.9375 46.234375 
Q 12.984375 58.796875 2.640625 65.96875 
L 3.90625 67.578125 
Q 11.625 63.28125 18.265625 54.59375 
Q 28.46875 41.21875 28.46875 24.609375 
z
" id="Times-Roman-41"/>
     </defs>
     <use xlink:href="#Times-Roman-77"/>
     <use x="88.916016" xlink:href="#Times-Roman-97"/>
     <use x="133.300781" xlink:href="#Times-Roman-120"/>
     <use x="183.300781" xlink:href="#Times-Roman-40"/>
     <use x="216.601562" xlink:href="#Times-Roman-73"/>
     <use x="249.902344" xlink:href="#Times-Roman-41"/>
    </g>
   </g>
  </g>
 </g>
 <defs>
  <clipPath id="pc6427e6fbb">
   <rect height="196.205669" width="355.415904" x="53.906931" y="39.297165"/>
  </clipPath>
 </defs>
</svg>
