<?xml version="1.0" encoding="utf-8" standalone="no"?>
<!DOCTYPE svg PUBLIC "-//W3C//DTD SVG 1.1//EN"
  "http://www.w3.org/Graphics/SVG/1.1/DTD/svg11.dtd">
<!-- Created with matplotlib (https://matplotlib.org/) -->
<svg height="288pt" version="1.1" viewBox="0 0 432 288" width="432pt" xmlns="http://www.w3.org/2000/svg" xmlns:xlink="http://www.w3.org/1999/xlink">
 <metadata>
  <rdf:RDF xmlns:cc="http://creativecommons.org/ns#" xmlns:dc="http://purl.org/dc/elements/1.1/" xmlns:rdf="http://www.w3.org/1999/02/22-rdf-syntax-ns#">
   <cc:Work>
    <dc:type rdf:resource="http://purl.org/dc/dcmitype/StillImage"/>
    <dc:date>2021-03-08T10:59:29.877656</dc:date>
    <dc:format>image/svg+xml</dc:format>
    <dc:creator>
     <cc:Agent>
      <dc:title>Matplotlib v3.3.4, https://matplotlib.org/</dc:title>
     </cc:Agent>
    </dc:creator>
   </cc:Work>
  </rdf:RDF>
 </metadata>
 <defs>
  <style type="text/css">*{stroke-linecap:butt;stroke-linejoin:round;}</style>
 </defs>
 <g id="figure_1">
  <g id="patch_1">
   <path d="M 0 288 
L 432 288 
L 432 0 
L 0 0 
z
" style="fill:#ffffff;"/>
  </g>
  <g id="axes_1">
   <g id="patch_2">
    <path d="M 53.906931 234.782835 
L 409.322835 234.782835 
L 409.322835 39.297165 
L 53.906931 39.297165 
z
" style="fill:#ffffff;"/>
   </g>
   <g id="matplotlib.axis_1">
    <g id="xtick_1">
     <g id="line2d_1">
      <path clip-path="url(#pb08a254e4b)" d="M 63.965872 234.782835 
L 63.965872 39.297165 
" style="fill:none;stroke:#000000;stroke-linecap:square;stroke-opacity:0.1;stroke-width:0.5;"/>
     </g>
     <g id="line2d_2">
      <defs>
       <path d="M 0 0 
L 0 -2.5 
" id="m582926aab6" style="stroke:#000000;stroke-width:0.5;"/>
      </defs>
      <g>
       <use style="stroke:#000000;stroke-width:0.5;" x="63.965872" xlink:href="#m582926aab6" y="234.782835"/>
      </g>
     </g>
     <g id="text_1">
      <!-- $\mathregular{0}$ -->
      <g transform="translate(60.965872 246.510335)scale(0.12 -0.12)">
       <defs>
        <path d="M 23.921875 1.8125 
Q 31.109375 1.8125 33.78125 9.671875 
Q 36.46875 17.53125 36.46875 32.421875 
Q 36.46875 44.28125 34.859375 51.375 
Q 31.84375 64.546875 23.53125 64.546875 
Q 15.234375 64.546875 12.15625 50.984375 
Q 10.546875 43.75 10.546875 31.9375 
Q 10.546875 20.84375 12.203125 14.203125 
Q 15.328125 1.8125 23.921875 1.8125 
z
M 23.78125 67.1875 
Q 35.015625 67.1875 41.21875 55.421875 
Q 46.140625 45.90625 46.140625 33.546875 
Q 46.140625 23.828125 43.109375 15.234375 
Q 37.40625 -0.921875 23.34375 -0.921875 
Q 13.71875 -0.921875 7.515625 7.8125 
Q 0.875 17.140625 0.875 33.15625 
Q 0.875 45.75 5.328125 54.828125 
Q 11.328125 67.1875 23.78125 67.1875 
z
" id="Times-Roman-48"/>
       </defs>
       <use transform="translate(0 0.8125)" xlink:href="#Times-Roman-48"/>
      </g>
     </g>
    </g>
    <g id="xtick_2">
     <g id="line2d_3">
      <path clip-path="url(#pb08a254e4b)" d="M 121.775875 234.782835 
L 121.775875 39.297165 
" style="fill:none;stroke:#000000;stroke-linecap:square;stroke-opacity:0.1;stroke-width:0.5;"/>
     </g>
     <g id="line2d_4">
      <g>
       <use style="stroke:#000000;stroke-width:0.5;" x="121.775875" xlink:href="#m582926aab6" y="234.782835"/>
      </g>
     </g>
     <g id="text_2">
      <!-- $\mathregular{5}$ -->
      <g transform="translate(118.775875 246.510335)scale(0.12 -0.12)">
       <defs>
        <path d="M 7.46875 8.9375 
Q 10.25 8.9375 14.765625 5.78125 
Q 19.28125 2.640625 21.734375 2.640625 
Q 27.34375 2.640625 31.546875 7.59375 
Q 35.75 12.546875 35.75 19.78125 
Q 35.75 32.421875 22.265625 37.984375 
Q 14.796875 41.0625 8.34375 41.0625 
Q 7.28125 41.0625 7 41.140625 
Q 6.734375 41.21875 6.34375 41.65625 
Q 6.453125 42.046875 6.515625 42.3125 
Q 6.59375 42.578125 6.6875 42.828125 
L 17.328125 66.15625 
L 38.28125 66.15625 
Q 39.84375 66.15625 40.6875 66.6875 
Q 41.546875 67.234375 42.921875 68.703125 
L 43.703125 68.015625 
L 39.890625 58.984375 
Q 39.703125 58.546875 38.8125 58.421875 
Q 37.9375 58.296875 36.921875 58.296875 
L 18.015625 58.296875 
L 13.875 49.75 
Q 21.875 48.390625 25.59375 47.171875 
Q 31.6875 45.125 35.796875 41.109375 
Q 39.3125 37.640625 41.109375 33.3125 
Q 42.921875 29 42.921875 24.171875 
Q 42.921875 13.375 35.234375 6.140625 
Q 27.546875 -1.078125 15.765625 -1.078125 
Q 10.984375 -1.078125 8.0625 -0.140625 
Q 3.171875 1.375 3.171875 5.28125 
Q 3.171875 6.734375 4.21875 7.828125 
Q 5.28125 8.9375 7.46875 8.9375 
z
" id="Times-Roman-53"/>
       </defs>
       <use transform="translate(0 0.296875)" xlink:href="#Times-Roman-53"/>
      </g>
     </g>
    </g>
    <g id="xtick_3">
     <g id="line2d_5">
      <path clip-path="url(#pb08a254e4b)" d="M 179.585879 234.782835 
L 179.585879 39.297165 
" style="fill:none;stroke:#000000;stroke-linecap:square;stroke-opacity:0.1;stroke-width:0.5;"/>
     </g>
     <g id="line2d_6">
      <g>
       <use style="stroke:#000000;stroke-width:0.5;" x="179.585879" xlink:href="#m582926aab6" y="234.782835"/>
      </g>
     </g>
     <g id="text_3">
      <!-- $\mathregular{10}$ -->
      <g transform="translate(173.585879 246.510335)scale(0.12 -0.12)">
       <defs>
        <path d="M 29.59375 67.09375 
Q 29.78125 66.84375 29.796875 66.71875 
Q 29.828125 66.609375 29.828125 66.15625 
L 29.828125 7.375 
Q 29.828125 3.609375 31.828125 2.578125 
Q 33.84375 1.5625 39.3125 1.375 
L 39.3125 0 
L 11.765625 0 
L 11.765625 1.46875 
Q 17.671875 1.765625 19.484375 3.078125 
Q 21.296875 4.390625 21.296875 8.796875 
L 21.296875 54 
Q 21.296875 56.34375 20.703125 57.5625 
Q 20.125 58.796875 18.171875 58.796875 
Q 16.890625 58.796875 14.859375 58.078125 
Q 12.84375 57.375 11.078125 56.59375 
L 11.078125 57.953125 
L 29 67.09375 
L 29.59375 67.09375 
z
" id="Times-Roman-49"/>
       </defs>
       <use transform="translate(0 0.8125)" xlink:href="#Times-Roman-49"/>
       <use transform="translate(50 0.8125)" xlink:href="#Times-Roman-48"/>
      </g>
     </g>
    </g>
    <g id="xtick_4">
     <g id="line2d_7">
      <path clip-path="url(#pb08a254e4b)" d="M 237.395883 234.782835 
L 237.395883 39.297165 
" style="fill:none;stroke:#000000;stroke-linecap:square;stroke-opacity:0.1;stroke-width:0.5;"/>
     </g>
     <g id="line2d_8">
      <g>
       <use style="stroke:#000000;stroke-width:0.5;" x="237.395883" xlink:href="#m582926aab6" y="234.782835"/>
      </g>
     </g>
     <g id="text_4">
      <!-- $\mathregular{15}$ -->
      <g transform="translate(231.395883 246.510335)scale(0.12 -0.12)">
       <use transform="translate(0 0.296875)" xlink:href="#Times-Roman-49"/>
       <use transform="translate(50 0.296875)" xlink:href="#Times-Roman-53"/>
      </g>
     </g>
    </g>
    <g id="xtick_5">
     <g id="line2d_9">
      <path clip-path="url(#pb08a254e4b)" d="M 295.205887 234.782835 
L 295.205887 39.297165 
" style="fill:none;stroke:#000000;stroke-linecap:square;stroke-opacity:0.1;stroke-width:0.5;"/>
     </g>
     <g id="line2d_10">
      <g>
       <use style="stroke:#000000;stroke-width:0.5;" x="295.205887" xlink:href="#m582926aab6" y="234.782835"/>
      </g>
     </g>
     <g id="text_5">
      <!-- $\mathregular{20}$ -->
      <g transform="translate(289.205887 246.510335)scale(0.12 -0.12)">
       <defs>
        <path d="M 2.984375 1.125 
Q 20.84375 19.671875 27.234375 28.359375 
Q 33.640625 37.0625 33.640625 45.3125 
Q 33.640625 52.546875 29.734375 56.328125 
Q 25.828125 60.109375 20.40625 60.109375 
Q 13.71875 60.109375 9.578125 55.21875 
Q 7.28125 52.546875 5.171875 46.96875 
L 3.078125 47.40625 
Q 5.515625 58.640625 11.34375 63.015625 
Q 17.1875 67.390625 23.875 67.390625 
Q 32.125 67.390625 37.21875 62.1875 
Q 42.328125 56.984375 42.328125 49.46875 
Q 42.328125 41.453125 36.8125 34.03125 
Q 31.296875 26.609375 12.84375 7.625 
L 35.25 7.625 
Q 39.9375 7.625 41.84375 8.734375 
Q 43.75 9.859375 46.140625 14.203125 
L 47.40625 13.625 
L 42 0 
L 2.984375 0 
z
" id="Times-Roman-50"/>
       </defs>
       <use transform="translate(0 0.609375)" xlink:href="#Times-Roman-50"/>
       <use transform="translate(50 0.609375)" xlink:href="#Times-Roman-48"/>
      </g>
     </g>
    </g>
    <g id="xtick_6">
     <g id="line2d_11">
      <path clip-path="url(#pb08a254e4b)" d="M 353.015891 234.782835 
L 353.015891 39.297165 
" style="fill:none;stroke:#000000;stroke-linecap:square;stroke-opacity:0.1;stroke-width:0.5;"/>
     </g>
     <g id="line2d_12">
      <g>
       <use style="stroke:#000000;stroke-width:0.5;" x="353.015891" xlink:href="#m582926aab6" y="234.782835"/>
      </g>
     </g>
     <g id="text_6">
      <!-- $\mathregular{25}$ -->
      <g transform="translate(347.015891 246.510335)scale(0.12 -0.12)">
       <use transform="translate(0 0.296875)" xlink:href="#Times-Roman-50"/>
       <use transform="translate(50 0.296875)" xlink:href="#Times-Roman-53"/>
      </g>
     </g>
    </g>
    <g id="text_7">
     <!-- SD Start Time ts [days] -->
     <g transform="translate(161.898633 262.24221)scale(0.12 -0.12)">
      <defs>
       <path d="M 53.515625 70.515625 
L 53.515625 60.890625 
Q 47.90625 63.578125 42.921875 64.890625 
Q 37.9375 66.21875 33.296875 66.21875 
Q 25.25 66.21875 20.875 63.09375 
Q 16.5 59.96875 16.5 54.203125 
Q 16.5 49.359375 19.40625 46.890625 
Q 22.3125 44.4375 30.421875 42.921875 
L 36.375 41.703125 
Q 47.40625 39.59375 52.65625 34.296875 
Q 57.90625 29 57.90625 20.125 
Q 57.90625 9.515625 50.796875 4.046875 
Q 43.703125 -1.421875 29.984375 -1.421875 
Q 24.8125 -1.421875 18.96875 -0.25 
Q 13.140625 0.921875 6.890625 3.21875 
L 6.890625 13.375 
Q 12.890625 10.015625 18.65625 8.296875 
Q 24.421875 6.59375 29.984375 6.59375 
Q 38.421875 6.59375 43.015625 9.90625 
Q 47.609375 13.234375 47.609375 19.390625 
Q 47.609375 24.75 44.3125 27.78125 
Q 41.015625 30.8125 33.5 32.328125 
L 27.484375 33.5 
Q 16.453125 35.6875 11.515625 40.375 
Q 6.59375 45.0625 6.59375 53.421875 
Q 6.59375 63.09375 13.40625 68.65625 
Q 20.21875 74.21875 32.171875 74.21875 
Q 37.3125 74.21875 42.625 73.28125 
Q 47.953125 72.359375 53.515625 70.515625 
z
" id="DejaVuSans-83"/>
       <path d="M 19.671875 64.796875 
L 19.671875 8.109375 
L 31.59375 8.109375 
Q 46.6875 8.109375 53.6875 14.9375 
Q 60.6875 21.78125 60.6875 36.53125 
Q 60.6875 51.171875 53.6875 57.984375 
Q 46.6875 64.796875 31.59375 64.796875 
z
M 9.8125 72.90625 
L 30.078125 72.90625 
Q 51.265625 72.90625 61.171875 64.09375 
Q 71.09375 55.28125 71.09375 36.53125 
Q 71.09375 17.671875 61.125 8.828125 
Q 51.171875 0 30.078125 0 
L 9.8125 0 
z
" id="DejaVuSans-68"/>
       <path id="DejaVuSans-32"/>
       <path d="M 18.3125 70.21875 
L 18.3125 54.6875 
L 36.8125 54.6875 
L 36.8125 47.703125 
L 18.3125 47.703125 
L 18.3125 18.015625 
Q 18.3125 11.328125 20.140625 9.421875 
Q 21.96875 7.515625 27.59375 7.515625 
L 36.8125 7.515625 
L 36.8125 0 
L 27.59375 0 
Q 17.1875 0 13.234375 3.875 
Q 9.28125 7.765625 9.28125 18.015625 
L 9.28125 47.703125 
L 2.6875 47.703125 
L 2.6875 54.6875 
L 9.28125 54.6875 
L 9.28125 70.21875 
z
" id="DejaVuSans-116"/>
       <path d="M 34.28125 27.484375 
Q 23.390625 27.484375 19.1875 25 
Q 14.984375 22.515625 14.984375 16.5 
Q 14.984375 11.71875 18.140625 8.90625 
Q 21.296875 6.109375 26.703125 6.109375 
Q 34.1875 6.109375 38.703125 11.40625 
Q 43.21875 16.703125 43.21875 25.484375 
L 43.21875 27.484375 
z
M 52.203125 31.203125 
L 52.203125 0 
L 43.21875 0 
L 43.21875 8.296875 
Q 40.140625 3.328125 35.546875 0.953125 
Q 30.953125 -1.421875 24.3125 -1.421875 
Q 15.921875 -1.421875 10.953125 3.296875 
Q 6 8.015625 6 15.921875 
Q 6 25.140625 12.171875 29.828125 
Q 18.359375 34.515625 30.609375 34.515625 
L 43.21875 34.515625 
L 43.21875 35.40625 
Q 43.21875 41.609375 39.140625 45 
Q 35.0625 48.390625 27.6875 48.390625 
Q 23 48.390625 18.546875 47.265625 
Q 14.109375 46.140625 10.015625 43.890625 
L 10.015625 52.203125 
Q 14.9375 54.109375 19.578125 55.046875 
Q 24.21875 56 28.609375 56 
Q 40.484375 56 46.34375 49.84375 
Q 52.203125 43.703125 52.203125 31.203125 
z
" id="DejaVuSans-97"/>
       <path d="M 41.109375 46.296875 
Q 39.59375 47.171875 37.8125 47.578125 
Q 36.03125 48 33.890625 48 
Q 26.265625 48 22.1875 43.046875 
Q 18.109375 38.09375 18.109375 28.8125 
L 18.109375 0 
L 9.078125 0 
L 9.078125 54.6875 
L 18.109375 54.6875 
L 18.109375 46.1875 
Q 20.953125 51.171875 25.484375 53.578125 
Q 30.03125 56 36.53125 56 
Q 37.453125 56 38.578125 55.875 
Q 39.703125 55.765625 41.0625 55.515625 
z
" id="DejaVuSans-114"/>
       <path d="M -0.296875 72.90625 
L 61.375 72.90625 
L 61.375 64.59375 
L 35.5 64.59375 
L 35.5 0 
L 25.59375 0 
L 25.59375 64.59375 
L -0.296875 64.59375 
z
" id="DejaVuSans-84"/>
       <path d="M 9.421875 54.6875 
L 18.40625 54.6875 
L 18.40625 0 
L 9.421875 0 
z
M 9.421875 75.984375 
L 18.40625 75.984375 
L 18.40625 64.59375 
L 9.421875 64.59375 
z
" id="DejaVuSans-105"/>
       <path d="M 52 44.1875 
Q 55.375 50.25 60.0625 53.125 
Q 64.75 56 71.09375 56 
Q 79.640625 56 84.28125 50.015625 
Q 88.921875 44.046875 88.921875 33.015625 
L 88.921875 0 
L 79.890625 0 
L 79.890625 32.71875 
Q 79.890625 40.578125 77.09375 44.375 
Q 74.3125 48.1875 68.609375 48.1875 
Q 61.625 48.1875 57.5625 43.546875 
Q 53.515625 38.921875 53.515625 30.90625 
L 53.515625 0 
L 44.484375 0 
L 44.484375 32.71875 
Q 44.484375 40.625 41.703125 44.40625 
Q 38.921875 48.1875 33.109375 48.1875 
Q 26.21875 48.1875 22.15625 43.53125 
Q 18.109375 38.875 18.109375 30.90625 
L 18.109375 0 
L 9.078125 0 
L 9.078125 54.6875 
L 18.109375 54.6875 
L 18.109375 46.1875 
Q 21.1875 51.21875 25.484375 53.609375 
Q 29.78125 56 35.6875 56 
Q 41.65625 56 45.828125 52.96875 
Q 50 49.953125 52 44.1875 
z
" id="DejaVuSans-109"/>
       <path d="M 56.203125 29.59375 
L 56.203125 25.203125 
L 14.890625 25.203125 
Q 15.484375 15.921875 20.484375 11.0625 
Q 25.484375 6.203125 34.421875 6.203125 
Q 39.59375 6.203125 44.453125 7.46875 
Q 49.3125 8.734375 54.109375 11.28125 
L 54.109375 2.78125 
Q 49.265625 0.734375 44.1875 -0.34375 
Q 39.109375 -1.421875 33.890625 -1.421875 
Q 20.796875 -1.421875 13.15625 6.1875 
Q 5.515625 13.8125 5.515625 26.8125 
Q 5.515625 40.234375 12.765625 48.109375 
Q 20.015625 56 32.328125 56 
Q 43.359375 56 49.78125 48.890625 
Q 56.203125 41.796875 56.203125 29.59375 
z
M 47.21875 32.234375 
Q 47.125 39.59375 43.09375 43.984375 
Q 39.0625 48.390625 32.421875 48.390625 
Q 24.90625 48.390625 20.390625 44.140625 
Q 15.875 39.890625 15.1875 32.171875 
z
" id="DejaVuSans-101"/>
       <path d="M 44.28125 53.078125 
L 44.28125 44.578125 
Q 40.484375 46.53125 36.375 47.5 
Q 32.28125 48.484375 27.875 48.484375 
Q 21.1875 48.484375 17.84375 46.4375 
Q 14.5 44.390625 14.5 40.28125 
Q 14.5 37.15625 16.890625 35.375 
Q 19.28125 33.59375 26.515625 31.984375 
L 29.59375 31.296875 
Q 39.15625 29.25 43.1875 25.515625 
Q 47.21875 21.78125 47.21875 15.09375 
Q 47.21875 7.46875 41.1875 3.015625 
Q 35.15625 -1.421875 24.609375 -1.421875 
Q 20.21875 -1.421875 15.453125 -0.5625 
Q 10.6875 0.296875 5.421875 2 
L 5.421875 11.28125 
Q 10.40625 8.6875 15.234375 7.390625 
Q 20.0625 6.109375 24.8125 6.109375 
Q 31.15625 6.109375 34.5625 8.28125 
Q 37.984375 10.453125 37.984375 14.40625 
Q 37.984375 18.0625 35.515625 20.015625 
Q 33.0625 21.96875 24.703125 23.78125 
L 21.578125 24.515625 
Q 13.234375 26.265625 9.515625 29.90625 
Q 5.8125 33.546875 5.8125 39.890625 
Q 5.8125 47.609375 11.28125 51.796875 
Q 16.75 56 26.8125 56 
Q 31.78125 56 36.171875 55.265625 
Q 40.578125 54.546875 44.28125 53.078125 
z
" id="DejaVuSans-115"/>
       <path d="M 8.59375 75.984375 
L 29.296875 75.984375 
L 29.296875 69 
L 17.578125 69 
L 17.578125 -6.203125 
L 29.296875 -6.203125 
L 29.296875 -13.1875 
L 8.59375 -13.1875 
z
" id="DejaVuSans-91"/>
       <path d="M 45.40625 46.390625 
L 45.40625 75.984375 
L 54.390625 75.984375 
L 54.390625 0 
L 45.40625 0 
L 45.40625 8.203125 
Q 42.578125 3.328125 38.25 0.953125 
Q 33.9375 -1.421875 27.875 -1.421875 
Q 17.96875 -1.421875 11.734375 6.484375 
Q 5.515625 14.40625 5.515625 27.296875 
Q 5.515625 40.1875 11.734375 48.09375 
Q 17.96875 56 27.875 56 
Q 33.9375 56 38.25 53.625 
Q 42.578125 51.265625 45.40625 46.390625 
z
M 14.796875 27.296875 
Q 14.796875 17.390625 18.875 11.75 
Q 22.953125 6.109375 30.078125 6.109375 
Q 37.203125 6.109375 41.296875 11.75 
Q 45.40625 17.390625 45.40625 27.296875 
Q 45.40625 37.203125 41.296875 42.84375 
Q 37.203125 48.484375 30.078125 48.484375 
Q 22.953125 48.484375 18.875 42.84375 
Q 14.796875 37.203125 14.796875 27.296875 
z
" id="DejaVuSans-100"/>
       <path d="M 32.171875 -5.078125 
Q 28.375 -14.84375 24.75 -17.8125 
Q 21.140625 -20.796875 15.09375 -20.796875 
L 7.90625 -20.796875 
L 7.90625 -13.28125 
L 13.1875 -13.28125 
Q 16.890625 -13.28125 18.9375 -11.515625 
Q 21 -9.765625 23.484375 -3.21875 
L 25.09375 0.875 
L 2.984375 54.6875 
L 12.5 54.6875 
L 29.59375 11.921875 
L 46.6875 54.6875 
L 56.203125 54.6875 
z
" id="DejaVuSans-121"/>
       <path d="M 30.421875 75.984375 
L 30.421875 -13.1875 
L 9.71875 -13.1875 
L 9.71875 -6.203125 
L 21.390625 -6.203125 
L 21.390625 69 
L 9.71875 69 
L 9.71875 75.984375 
z
" id="DejaVuSans-93"/>
      </defs>
      <use xlink:href="#DejaVuSans-83"/>
      <use x="63.476562" xlink:href="#DejaVuSans-68"/>
      <use x="140.478516" xlink:href="#DejaVuSans-32"/>
      <use x="172.265625" xlink:href="#DejaVuSans-83"/>
      <use x="235.742188" xlink:href="#DejaVuSans-116"/>
      <use x="274.951172" xlink:href="#DejaVuSans-97"/>
      <use x="336.230469" xlink:href="#DejaVuSans-114"/>
      <use x="377.34375" xlink:href="#DejaVuSans-116"/>
      <use x="416.552734" xlink:href="#DejaVuSans-32"/>
      <use x="448.339844" xlink:href="#DejaVuSans-84"/>
      <use x="506.298828" xlink:href="#DejaVuSans-105"/>
      <use x="534.082031" xlink:href="#DejaVuSans-109"/>
      <use x="631.494141" xlink:href="#DejaVuSans-101"/>
      <use x="693.017578" xlink:href="#DejaVuSans-32"/>
      <use x="724.804688" xlink:href="#DejaVuSans-116"/>
      <use x="764.013672" xlink:href="#DejaVuSans-115"/>
      <use x="816.113281" xlink:href="#DejaVuSans-32"/>
      <use x="847.900391" xlink:href="#DejaVuSans-91"/>
      <use x="886.914062" xlink:href="#DejaVuSans-100"/>
      <use x="950.390625" xlink:href="#DejaVuSans-97"/>
      <use x="1011.669922" xlink:href="#DejaVuSans-121"/>
      <use x="1070.849609" xlink:href="#DejaVuSans-115"/>
      <use x="1122.949219" xlink:href="#DejaVuSans-93"/>
     </g>
    </g>
   </g>
   <g id="matplotlib.axis_2">
    <g id="ytick_1">
     <g id="line2d_13">
      <path clip-path="url(#pb08a254e4b)" d="M 53.906931 229.250221 
L 409.322835 229.250221 
" style="fill:none;stroke:#000000;stroke-linecap:square;stroke-opacity:0.1;stroke-width:0.5;"/>
     </g>
     <g id="line2d_14">
      <defs>
       <path d="M 0 0 
L 2.5 0 
" id="mdd65e12e38" style="stroke:#000000;stroke-width:0.5;"/>
      </defs>
      <g>
       <use style="stroke:#000000;stroke-width:0.5;" x="53.906931" xlink:href="#mdd65e12e38" y="229.250221"/>
      </g>
     </g>
     <g id="text_8">
      <!-- $\mathregular{0}$ -->
      <g transform="translate(44.406931 233.363971)scale(0.12 -0.12)">
       <use transform="translate(0 0.8125)" xlink:href="#Times-Roman-48"/>
      </g>
     </g>
    </g>
    <g id="ytick_2">
     <g id="line2d_15">
      <path clip-path="url(#pb08a254e4b)" d="M 53.906931 201.30773 
L 409.322835 201.30773 
" style="fill:none;stroke:#000000;stroke-linecap:square;stroke-opacity:0.1;stroke-width:0.5;"/>
     </g>
     <g id="line2d_16">
      <g>
       <use style="stroke:#000000;stroke-width:0.5;" x="53.906931" xlink:href="#mdd65e12e38" y="201.30773"/>
      </g>
     </g>
     <g id="text_9">
      <!-- $\mathregular{10}$ -->
      <g transform="translate(38.406931 205.42148)scale(0.12 -0.12)">
       <use transform="translate(0 0.8125)" xlink:href="#Times-Roman-49"/>
       <use transform="translate(50 0.8125)" xlink:href="#Times-Roman-48"/>
      </g>
     </g>
    </g>
    <g id="ytick_3">
     <g id="line2d_17">
      <path clip-path="url(#pb08a254e4b)" d="M 53.906931 173.365239 
L 409.322835 173.365239 
" style="fill:none;stroke:#000000;stroke-linecap:square;stroke-opacity:0.1;stroke-width:0.5;"/>
     </g>
     <g id="line2d_18">
      <g>
       <use style="stroke:#000000;stroke-width:0.5;" x="53.906931" xlink:href="#mdd65e12e38" y="173.365239"/>
      </g>
     </g>
     <g id="text_10">
      <!-- $\mathregular{20}$ -->
      <g transform="translate(38.406931 177.478989)scale(0.12 -0.12)">
       <use transform="translate(0 0.609375)" xlink:href="#Times-Roman-50"/>
       <use transform="translate(50 0.609375)" xlink:href="#Times-Roman-48"/>
      </g>
     </g>
    </g>
    <g id="ytick_4">
     <g id="line2d_19">
      <path clip-path="url(#pb08a254e4b)" d="M 53.906931 145.422747 
L 409.322835 145.422747 
" style="fill:none;stroke:#000000;stroke-linecap:square;stroke-opacity:0.1;stroke-width:0.5;"/>
     </g>
     <g id="line2d_20">
      <g>
       <use style="stroke:#000000;stroke-width:0.5;" x="53.906931" xlink:href="#mdd65e12e38" y="145.422747"/>
      </g>
     </g>
     <g id="text_11">
      <!-- $\mathregular{30}$ -->
      <g transform="translate(38.406931 149.536497)scale(0.12 -0.12)">
       <defs>
        <path d="M 7.765625 8.5 
Q 10.453125 8.5 14.859375 5.71875 
Q 19.28125 2.9375 22.359375 2.9375 
Q 29.203125 2.9375 32.515625 7.546875 
Q 35.84375 12.15625 35.84375 17.578125 
Q 35.84375 22.796875 33.15625 26.765625 
Q 28.609375 33.453125 17.828125 33.453125 
Q 17.1875 33.453125 16.59375 33.421875 
Q 16.015625 33.40625 15.234375 33.296875 
L 15.140625 34.578125 
Q 22.953125 37.40625 27.4375 41.0625 
Q 31.9375 44.734375 31.9375 50.734375 
Q 31.9375 56.0625 28.390625 58.84375 
Q 24.859375 61.625 20.3125 61.625 
Q 14.9375 61.625 10.84375 57.671875 
Q 8.59375 55.515625 6 51.03125 
L 4.5 51.375 
Q 6.453125 58.796875 11.765625 63.234375 
Q 17.09375 67.671875 24.078125 67.671875 
Q 31.546875 67.671875 35.625 63.5625 
Q 39.703125 59.46875 39.703125 54.109375 
Q 39.703125 49.359375 36.328125 45.40625 
Q 34.421875 43.171875 30.421875 40.375 
Q 35.109375 38.375 37.9375 35.6875 
Q 43.265625 30.5625 43.265625 22.703125 
Q 43.265625 13.421875 35.953125 6.34375 
Q 28.65625 -0.734375 15.1875 -0.734375 
Q 9.1875 -0.734375 6.765625 1.046875 
Q 4.34375 2.828125 4.34375 4.890625 
Q 4.34375 6.15625 5.140625 7.328125 
Q 5.953125 8.5 7.765625 8.5 
z
" id="Times-Roman-51"/>
       </defs>
       <use transform="translate(0 0.328125)" xlink:href="#Times-Roman-51"/>
       <use transform="translate(50 0.328125)" xlink:href="#Times-Roman-48"/>
      </g>
     </g>
    </g>
    <g id="ytick_5">
     <g id="line2d_21">
      <path clip-path="url(#pb08a254e4b)" d="M 53.906931 117.480256 
L 409.322835 117.480256 
" style="fill:none;stroke:#000000;stroke-linecap:square;stroke-opacity:0.1;stroke-width:0.5;"/>
     </g>
     <g id="line2d_22">
      <g>
       <use style="stroke:#000000;stroke-width:0.5;" x="53.906931" xlink:href="#mdd65e12e38" y="117.480256"/>
      </g>
     </g>
     <g id="text_12">
      <!-- $\mathregular{40}$ -->
      <g transform="translate(38.406931 121.594006)scale(0.12 -0.12)">
       <defs>
        <path d="M 29.15625 57.03125 
L 5.171875 23.140625 
L 29.15625 23.140625 
z
M 32.375 67.09375 
L 37.015625 67.09375 
L 37.015625 23.140625 
L 47.21875 23.140625 
L 47.21875 16.65625 
L 37.015625 16.65625 
L 37.015625 0 
L 29.25 0 
L 29.25 16.65625 
L 1.125 16.65625 
L 1.125 23.140625 
z
" id="Times-Roman-52"/>
       </defs>
       <use transform="translate(0 0.8125)" xlink:href="#Times-Roman-52"/>
       <use transform="translate(50 0.8125)" xlink:href="#Times-Roman-48"/>
      </g>
     </g>
    </g>
    <g id="ytick_6">
     <g id="line2d_23">
      <path clip-path="url(#pb08a254e4b)" d="M 53.906931 89.537765 
L 409.322835 89.537765 
" style="fill:none;stroke:#000000;stroke-linecap:square;stroke-opacity:0.1;stroke-width:0.5;"/>
     </g>
     <g id="line2d_24">
      <g>
       <use style="stroke:#000000;stroke-width:0.5;" x="53.906931" xlink:href="#mdd65e12e38" y="89.537765"/>
      </g>
     </g>
     <g id="text_13">
      <!-- $\mathregular{50}$ -->
      <g transform="translate(38.406931 93.651515)scale(0.12 -0.12)">
       <use transform="translate(0 0.296875)" xlink:href="#Times-Roman-53"/>
       <use transform="translate(50 0.296875)" xlink:href="#Times-Roman-48"/>
      </g>
     </g>
    </g>
    <g id="ytick_7">
     <g id="line2d_25">
      <path clip-path="url(#pb08a254e4b)" d="M 53.906931 61.595273 
L 409.322835 61.595273 
" style="fill:none;stroke:#000000;stroke-linecap:square;stroke-opacity:0.1;stroke-width:0.5;"/>
     </g>
     <g id="line2d_26">
      <g>
       <use style="stroke:#000000;stroke-width:0.5;" x="53.906931" xlink:href="#mdd65e12e38" y="61.595273"/>
      </g>
     </g>
     <g id="text_14">
      <!-- $\mathregular{60}$ -->
      <g transform="translate(38.406931 65.709023)scale(0.12 -0.12)">
       <defs>
        <path d="M 46.78125 22.21875 
Q 46.78125 13.28125 41.03125 6.09375 
Q 35.296875 -1.078125 26.125 -1.078125 
Q 17.53125 -1.078125 10.46875 6.984375 
Q 3.421875 15.046875 3.421875 28.421875 
Q 3.421875 45.65625 17.09375 58.015625 
Q 29.296875 68.359375 44.53125 68.359375 
L 44.78125 66.75 
Q 38.671875 65.625 34.25 63.6875 
Q 29.828125 61.765625 26.375 58.296875 
Q 22.796875 54.78125 19.671875 49.359375 
Q 16.546875 43.953125 15.375 38.625 
Q 18.40625 40.484375 20.609375 41.359375 
Q 24.515625 42.921875 28.46875 42.921875 
Q 36.234375 42.921875 41.5 37.546875 
Q 46.78125 32.171875 46.78125 22.21875 
z
M 37.84375 18.453125 
Q 37.84375 24.953125 35.796875 29.984375 
Q 32.375 38.375 24.171875 38.375 
Q 16.609375 38.375 14.109375 33.890625 
Q 12.640625 31.25 12.640625 25.09375 
Q 12.640625 17.140625 16.03125 9.515625 
Q 19.4375 1.90625 26.765625 1.90625 
Q 32.5625 1.90625 35.203125 6.859375 
Q 37.84375 11.8125 37.84375 18.453125 
z
" id="Times-Roman-54"/>
       </defs>
       <use transform="translate(0 0.640625)" xlink:href="#Times-Roman-54"/>
       <use transform="translate(50 0.640625)" xlink:href="#Times-Roman-48"/>
      </g>
     </g>
    </g>
    <g id="text_15">
     <!-- SD Duration td [days] -->
     <g transform="translate(31.911306 202.254375)rotate(-90)scale(0.12 -0.12)">
      <defs>
       <path d="M 8.5 21.578125 
L 8.5 54.6875 
L 17.484375 54.6875 
L 17.484375 21.921875 
Q 17.484375 14.15625 20.5 10.265625 
Q 23.53125 6.390625 29.59375 6.390625 
Q 36.859375 6.390625 41.078125 11.03125 
Q 45.3125 15.671875 45.3125 23.6875 
L 45.3125 54.6875 
L 54.296875 54.6875 
L 54.296875 0 
L 45.3125 0 
L 45.3125 8.40625 
Q 42.046875 3.421875 37.71875 1 
Q 33.40625 -1.421875 27.6875 -1.421875 
Q 18.265625 -1.421875 13.375 4.4375 
Q 8.5 10.296875 8.5 21.578125 
z
M 31.109375 56 
z
" id="DejaVuSans-117"/>
       <path d="M 30.609375 48.390625 
Q 23.390625 48.390625 19.1875 42.75 
Q 14.984375 37.109375 14.984375 27.296875 
Q 14.984375 17.484375 19.15625 11.84375 
Q 23.34375 6.203125 30.609375 6.203125 
Q 37.796875 6.203125 41.984375 11.859375 
Q 46.1875 17.53125 46.1875 27.296875 
Q 46.1875 37.015625 41.984375 42.703125 
Q 37.796875 48.390625 30.609375 48.390625 
z
M 30.609375 56 
Q 42.328125 56 49.015625 48.375 
Q 55.71875 40.765625 55.71875 27.296875 
Q 55.71875 13.875 49.015625 6.21875 
Q 42.328125 -1.421875 30.609375 -1.421875 
Q 18.84375 -1.421875 12.171875 6.21875 
Q 5.515625 13.875 5.515625 27.296875 
Q 5.515625 40.765625 12.171875 48.375 
Q 18.84375 56 30.609375 56 
z
" id="DejaVuSans-111"/>
       <path d="M 54.890625 33.015625 
L 54.890625 0 
L 45.90625 0 
L 45.90625 32.71875 
Q 45.90625 40.484375 42.875 44.328125 
Q 39.84375 48.1875 33.796875 48.1875 
Q 26.515625 48.1875 22.3125 43.546875 
Q 18.109375 38.921875 18.109375 30.90625 
L 18.109375 0 
L 9.078125 0 
L 9.078125 54.6875 
L 18.109375 54.6875 
L 18.109375 46.1875 
Q 21.34375 51.125 25.703125 53.5625 
Q 30.078125 56 35.796875 56 
Q 45.21875 56 50.046875 50.171875 
Q 54.890625 44.34375 54.890625 33.015625 
z
" id="DejaVuSans-110"/>
      </defs>
      <use xlink:href="#DejaVuSans-83"/>
      <use x="63.476562" xlink:href="#DejaVuSans-68"/>
      <use x="140.478516" xlink:href="#DejaVuSans-32"/>
      <use x="172.265625" xlink:href="#DejaVuSans-68"/>
      <use x="249.267578" xlink:href="#DejaVuSans-117"/>
      <use x="312.646484" xlink:href="#DejaVuSans-114"/>
      <use x="353.759766" xlink:href="#DejaVuSans-97"/>
      <use x="415.039062" xlink:href="#DejaVuSans-116"/>
      <use x="454.248047" xlink:href="#DejaVuSans-105"/>
      <use x="482.03125" xlink:href="#DejaVuSans-111"/>
      <use x="543.212891" xlink:href="#DejaVuSans-110"/>
      <use x="606.591797" xlink:href="#DejaVuSans-32"/>
      <use x="638.378906" xlink:href="#DejaVuSans-116"/>
      <use x="677.587891" xlink:href="#DejaVuSans-100"/>
      <use x="741.064453" xlink:href="#DejaVuSans-32"/>
      <use x="772.851562" xlink:href="#DejaVuSans-91"/>
      <use x="811.865234" xlink:href="#DejaVuSans-100"/>
      <use x="875.341797" xlink:href="#DejaVuSans-97"/>
      <use x="936.621094" xlink:href="#DejaVuSans-121"/>
      <use x="995.800781" xlink:href="#DejaVuSans-115"/>
      <use x="1047.900391" xlink:href="#DejaVuSans-93"/>
     </g>
    </g>
   </g>
   <g id="LineCollection_1"/>
   <g id="LineCollection_2">
    <path clip-path="url(#pb08a254e4b)" d="M 244.221548 44.829779 
L 244.221548 47.624028 
L 244.221548 50.418277 
L 244.221548 53.212526 
L 244.221548 56.006775 
L 244.221548 58.801024 
L 244.221548 61.595273 
L 244.221548 64.389523 
L 244.221548 67.183772 
L 244.221548 69.978021 
L 244.221548 72.77227 
L 244.221548 75.566519 
L 244.221548 78.360768 
L 244.221548 81.155017 
L 244.221548 83.949266 
L 244.221548 86.743516 
L 244.221548 88.804274 
" style="fill:none;stroke:#e1e1ff;"/>
    <path clip-path="url(#pb08a254e4b)" d="M 244.221548 112.625248 
L 244.221548 114.686007 
L 244.221548 117.480256 
L 244.221548 120.274505 
L 244.221548 123.068754 
L 244.221548 125.863003 
L 244.221548 128.657253 
L 244.221548 131.451502 
L 244.221548 134.245751 
L 244.221548 137.04 
L 244.221548 139.834249 
L 244.221548 142.628498 
L 244.221548 145.422747 
L 244.221548 148.216997 
L 244.221548 151.011246 
L 244.221548 153.805495 
L 244.221548 156.599744 
L 244.221548 159.393993 
L 244.221548 162.188242 
L 244.221548 164.982491 
L 244.221548 167.77674 
L 244.221548 170.57099 
L 237.395883 171.948815 
L 234.913388 170.57099 
L 232.873069 167.77674 
L 225.833882 165.675244 
L 224.626038 164.982491 
L 220.210987 162.188242 
L 215.502884 159.393993 
L 214.271882 159.032973 
L 210.191032 156.599744 
L 205.962344 153.805495 
L 202.709881 152.17239 
L 200.795571 151.011246 
L 196.201034 148.216997 
L 191.678202 145.422747 
L 191.14788 145.181411 
L 187.004469 142.628498 
L 182.441065 139.834249 
L 179.585879 138.104225 
L 177.86603 137.04 
L 173.357224 134.245751 
L 168.866464 131.451502 
L 168.023879 130.984163 
L 164.286022 128.657253 
L 159.77292 125.863003 
L 156.461878 123.838469 
L 155.224531 123.068754 
L 150.742369 120.274505 
L 146.206274 117.480256 
L 144.899877 116.681596 
L 141.699805 114.686007 
L 137.200405 111.891758 
L 133.337876 109.526052 
L 132.647676 109.097509 
L 128.1615 106.30326 
L 123.626538 103.50901 
L 121.775875 102.379432 
L 119.091538 100.714761 
L 114.574099 97.920512 
L 110.213875 95.262541 
L 109.992027 95.126263 
L 105.459409 92.332014 
L 100.881578 89.537765 
L 98.651874 88.190793 
L 96.265193 86.743516 
L 91.647892 83.949266 
L 87.089873 81.230545 
L 86.961319 81.155017 
L 82.221659 78.360768 
L 77.431768 75.566519 
L 75.527872 74.465873 
L 72.470144 72.77227 
L 67.403928 69.978021 
L 63.965872 68.103511 
" style="fill:none;stroke:#e1e1ff;"/>
   </g>
   <g id="LineCollection_3">
    <path clip-path="url(#pb08a254e4b)" d="M 267.556791 44.829779 
L 267.556791 47.624028 
L 267.556791 50.418277 
L 267.556791 53.212526 
L 267.556791 56.006775 
L 267.556791 58.801024 
L 267.556791 61.595273 
L 267.556791 64.389523 
L 267.556791 67.183772 
L 267.556791 69.978021 
L 267.556791 72.77227 
L 267.556791 75.566519 
L 267.556791 78.360768 
L 267.556791 81.155017 
L 267.556791 83.949266 
L 267.556791 86.743516 
L 267.556791 89.537765 
L 267.556791 92.332014 
L 267.556791 95.126263 
L 267.556791 97.920512 
L 267.556791 100.714761 
L 267.556791 103.50901 
L 267.556791 106.30326 
L 267.556791 109.097509 
L 267.556791 111.891758 
L 267.556791 114.686007 
L 267.556791 117.480256 
L 267.556791 120.274505 
L 267.556791 123.068754 
L 267.556791 125.863003 
L 267.556791 128.657253 
L 267.556791 131.451502 
L 267.556791 134.245751 
L 267.556791 137.04 
L 267.556791 139.834249 
L 267.556791 142.628498 
L 267.556791 145.422747 
L 267.556791 148.216997 
L 267.556791 151.011246 
L 267.556791 153.805495 
L 267.556791 156.599744 
L 267.556791 159.393993 
L 267.556791 162.188242 
L 267.556791 164.982491 
L 267.556791 167.77674 
L 267.556791 170.57099 
L 267.556791 173.365239 
L 267.556791 176.159488 
L 267.556791 178.953737 
L 267.556791 181.747986 
L 267.556791 184.542235 
L 266.989921 187.336484 
L 260.519885 189.248715 
L 256.098282 187.336484 
L 250.439773 184.542235 
L 248.957884 184.187193 
L 243.972744 181.747986 
L 238.350577 178.953737 
L 237.947059 178.751813 
" style="fill:none;stroke:#c1c1ff;"/>
    <path clip-path="url(#pb08a254e4b)" d="M 213.937952 165.524946 
L 213.002183 164.982491 
L 208.238348 162.188242 
L 203.504148 159.393993 
L 202.709881 158.925544 
L 198.814883 156.599744 
L 194.180301 153.805495 
L 191.14788 151.978702 
L 189.544711 151.011246 
L 184.957483 148.216997 
L 180.384181 145.422747 
L 179.585879 144.936499 
L 175.808589 142.628498 
L 171.271722 139.834249 
L 168.023879 137.838461 
L 166.719261 137.04 
L 162.18932 134.245751 
L 157.671126 131.451502 
L 156.461878 130.706906 
L 153.130197 128.657253 
L 148.6225 125.863003 
L 144.899877 123.561133 
L 144.097811 123.068754 
L 139.576267 120.274505 
L 135.070934 117.480256 
L 133.337876 116.41029 
L 130.532945 114.686007 
L 126.019035 111.891758 
L 121.775875 109.270192 
L 121.49331 109.097509 
L 116.947184 106.30326 
L 112.420872 103.50901 
L 110.213875 102.152729 
L 107.8501 100.714761 
L 103.288356 97.920512 
L 98.720305 95.126263 
L 98.651874 95.084598 
L 94.071909 92.332014 
L 89.445235 89.537765 
L 87.089873 88.12153 
L 84.72374 86.743516 
L 79.954436 83.949266 
L 75.527872 81.360466 
L 75.152758 81.155017 
L 70.074182 78.360768 
L 65.006787 75.566519 
L 63.965872 74.995026 
" style="fill:none;stroke:#c1c1ff;"/>
   </g>
   <g id="LineCollection_4">
    <path clip-path="url(#pb08a254e4b)" d="M 282.705414 44.829779 
L 282.705414 47.624028 
L 282.705414 50.418277 
L 282.705414 53.212526 
L 282.705414 56.006775 
L 282.705414 58.801024 
L 282.705414 61.595273 
L 282.705414 64.389523 
L 282.705414 67.183772 
L 282.705414 69.978021 
L 282.705414 72.77227 
L 282.705414 75.566519 
L 282.705414 78.360768 
L 282.705414 81.155017 
L 282.705414 83.949266 
L 282.705414 86.743516 
L 282.705414 88.804274 
" style="fill:none;stroke:#a1a1ff;"/>
    <path clip-path="url(#pb08a254e4b)" d="M 282.705414 112.625248 
L 282.705414 114.686007 
L 282.705414 117.480256 
L 282.705414 120.274505 
L 282.705414 123.068754 
L 282.705414 125.863003 
L 282.705414 128.657253 
L 282.705414 131.451502 
L 282.705414 134.245751 
L 282.705414 137.04 
L 282.705414 139.834249 
L 282.705414 142.628498 
L 282.705414 145.422747 
L 282.705414 148.216997 
L 282.705414 151.011246 
L 282.705414 153.805495 
L 282.705414 156.599744 
L 282.705414 159.393993 
L 282.705414 162.188242 
L 282.705414 164.982491 
L 282.705414 167.77674 
L 282.705414 170.57099 
L 282.705414 173.365239 
L 282.705414 176.159488 
L 282.705414 178.953737 
L 282.705414 181.747986 
L 282.705414 184.542235 
L 282.705414 187.336484 
L 282.705414 190.130734 
L 282.705414 192.924983 
L 282.530611 195.719232 
L 279.774386 198.513481 
L 272.081886 199.252205 
L 269.898983 198.513481 
L 261.976328 195.719232 
L 260.519885 195.190708 
L 254.997388 192.924983 
L 248.957884 190.343373 
L 248.492557 190.130734 
L 242.545178 187.336484 
L 237.395883 184.827134 
L 236.829115 184.542235 
L 231.39869 181.747986 
L 226.151232 178.953737 
L 225.833882 178.783493 
L 221.015764 176.159488 
L 216.048467 173.365239 
L 214.271882 172.355706 
L 211.118305 170.57099 
L 206.305875 167.77674 
L 202.709881 165.653931 
L 201.551312 164.982491 
L 196.807593 162.188242 
L 192.176586 159.393993 
L 191.14788 158.771949 
L 187.486992 156.599744 
L 182.887932 153.805495 
L 179.585879 151.77681 
L 178.304495 151.011246 
L 173.694379 148.216997 
L 169.179148 145.422747 
L 168.023879 144.707852 
L 164.578505 142.628498 
L 160.047851 139.834249 
L 156.461878 137.598345 
L 155.536993 137.04 
L 150.960282 134.245751 
L 146.477486 131.451502 
L 144.899877 130.467652 
L 141.914654 128.657253 
L 137.395212 125.863003 
L 133.337876 123.323497 
L 132.916114 123.068754 
L 128.329964 120.274505 
L 123.839998 117.480256 
L 121.775875 116.192569 
L 119.282942 114.686007 
L 114.735169 111.891758 
L 110.254393 109.097509 
L 110.213875 109.072363 
L 105.614762 106.30326 
L 101.074511 103.50901 
L 98.651874 102.012872 
L 96.458309 100.714761 
L 91.807467 97.920512 
L 87.226206 95.126263 
L 87.089873 95.043503 
L 82.389971 92.332014 
L 77.647155 89.537765 
L 75.527872 88.286763 
L 72.685894 86.743516 
L 67.616104 83.949266 
L 63.965872 81.919224 
" style="fill:none;stroke:#a1a1ff;"/>
   </g>
   <g id="LineCollection_5">
    <path clip-path="url(#pb08a254e4b)" d="M 294.334955 44.829779 
L 294.334955 47.624028 
L 294.334955 50.418277 
L 294.334955 53.212526 
L 294.334955 56.006775 
L 294.334955 58.801024 
L 294.334955 61.595273 
L 294.334955 64.389523 
L 294.334955 67.183772 
L 294.334955 69.978021 
L 294.334955 72.77227 
L 294.334955 75.566519 
L 294.334955 78.360768 
L 294.334955 81.155017 
L 294.334955 83.949266 
L 294.334955 86.743516 
L 294.334955 89.537765 
L 294.334955 92.332014 
L 294.334955 95.126263 
L 294.334955 97.920512 
L 294.334955 100.714761 
L 294.334955 103.50901 
L 294.334955 106.30326 
L 294.334955 109.097509 
L 294.334955 111.891758 
L 294.334955 114.686007 
L 294.334955 117.480256 
L 294.334955 120.274505 
L 294.334955 123.068754 
L 294.334955 125.863003 
L 294.334955 128.657253 
L 294.334955 131.451502 
L 294.334955 134.245751 
L 294.334955 137.04 
L 294.334955 139.834249 
L 294.334955 142.628498 
L 294.334955 145.422747 
L 294.334955 148.216997 
L 294.334955 151.011246 
L 294.334955 153.805495 
L 294.334955 156.599744 
L 294.334955 159.393993 
L 294.334955 162.188242 
L 294.334955 164.982491 
L 294.334955 167.77674 
L 294.334955 170.57099 
L 294.334955 173.365239 
L 294.334955 176.159488 
L 294.334955 178.953737 
L 294.334955 181.747986 
L 294.334955 184.542235 
L 294.334955 187.336484 
L 294.334955 190.130734 
L 294.334955 192.924983 
L 294.334955 195.719232 
L 294.334955 198.513481 
L 294.334955 201.30773 
L 294.064819 204.101979 
L 291.544992 206.896228 
L 285.962183 207.498383 
" style="fill:none;stroke:#8181ff;"/>
    <path clip-path="url(#pb08a254e4b)" d="M 258.697004 200.355565 
L 253.872617 198.513481 
L 248.957884 196.509364 
L 247.114385 195.719232 
L 240.900989 192.924983 
L 237.395883 191.268073 
L 235.018494 190.130734 
L 229.435109 187.336484 
L 225.833882 185.452939 
L 224.064872 184.542235 
L 218.829784 181.747986 
L 214.271882 179.193252 
L 213.828597 178.953737 
L 208.764536 176.159488 
L 203.961264 173.365239 
L 202.709881 172.628167 
L 199.070776 170.57099 
L 194.334701 167.77674 
L 191.14788 165.843015 
L 189.652083 164.982491 
L 184.911764 162.188242 
L 180.371469 159.393993 
L 179.585879 158.908746 
L 175.65119 156.599744 
L 171.082406 153.805495 
L 168.023879 151.890917 
L 166.531657 151.011246 
L 161.893569 148.216997 
L 157.436978 145.422747 
L 156.461878 144.809461 
L 152.796057 142.628498 
L 148.272611 139.834249 
L 144.899877 137.698869 
L 143.79127 137.04 
L 139.16877 134.245751 
L 134.726504 131.451502 
L 133.337876 130.572799 
L 130.126788 128.657253 
L 125.594203 125.863003 
L 121.775875 123.44208 
L 121.146462 123.068754 
L 116.492547 120.274505 
L 112.024146 117.480256 
L 110.213875 116.338526 
L 107.419439 114.686007 
L 102.831087 111.891758 
L 98.651874 109.26632 
L 98.36172 109.097509 
L 93.600056 106.30326 
L 89.028863 103.50901 
L 87.089873 102.31265 
L 84.276223 100.714761 
L 79.489333 97.920512 
L 75.527872 95.543887 
L 74.748073 95.126263 
L 69.587143 92.332014 
L 64.615848 89.537765 
L 63.965872 89.172722 
" style="fill:none;stroke:#8181ff;"/>
   </g>
   <g id="LineCollection_6">
    <path clip-path="url(#pb08a254e4b)" d="M 304.18266 44.829779 
L 304.18266 47.624028 
L 304.18266 50.418277 
L 304.18266 53.212526 
L 304.18266 56.006775 
L 304.18266 58.801024 
L 304.18266 61.595273 
L 304.18266 64.389523 
L 304.18266 67.183772 
L 304.18266 69.978021 
L 304.18266 72.77227 
L 304.18266 75.566519 
L 304.18266 78.360768 
L 304.18266 81.155017 
L 304.18266 83.949266 
L 304.18266 86.743516 
L 304.18266 89.537765 
L 304.18266 92.332014 
L 304.18266 95.126263 
L 304.18266 97.920512 
L 304.18266 100.714761 
L 304.18266 103.50901 
L 304.18266 106.30326 
L 304.18266 109.097509 
L 304.18266 111.891758 
L 304.18266 114.686007 
L 304.18266 117.480256 
L 304.18266 120.274505 
L 304.18266 123.068754 
L 304.18266 125.863003 
L 304.18266 128.657253 
L 304.18266 131.451502 
L 304.18266 134.245751 
L 304.18266 137.04 
L 304.18266 139.834249 
L 304.18266 142.628498 
L 304.18266 145.422747 
L 304.18266 148.216997 
L 304.18266 151.011246 
L 304.18266 153.805495 
L 304.18266 156.599744 
L 304.18266 159.393993 
L 304.18266 162.188242 
L 304.18266 164.982491 
L 304.18266 167.77674 
L 304.18266 170.57099 
L 304.18266 173.365239 
L 304.18266 176.159488 
L 304.18266 178.953737 
L 304.18266 181.747986 
L 304.18266 184.542235 
L 304.18266 187.336484 
L 304.18266 190.130734 
L 304.18266 192.924983 
L 304.18266 195.719232 
L 304.18266 198.513481 
L 304.18266 201.30773 
L 304.18266 204.101979 
L 304.18266 206.896228 
L 304.18266 209.690477 
L 302.610974 212.484727 
L 295.205887 214.769856 
L 283.643886 212.915766 
L 281.552687 212.484727 
L 272.081886 210.356312 
L 269.591607 209.690477 
L 260.519885 207.021091 
L 260.134586 206.896228 
L 252.082418 204.101979 
L 248.957884 202.91745 
L 244.865544 201.30773 
L 238.385658 198.513481 
L 237.395883 198.067146 
L 232.160034 195.719232 
L 226.496091 192.924983 
L 225.833882 192.588613 
L 220.816486 190.130734 
L 215.588773 187.336484 
L 214.271882 186.610995 
L 210.290193 184.542235 
L 205.281032 181.747986 
L 202.709881 180.2502 
L 200.3103 178.953737 
L 195.379404 176.159488 
L 191.14788 173.598001 
L 190.727709 173.365239 
L 185.778541 170.57099 
L 181.182105 167.77674 
L 179.585879 166.785251 
L 176.418928 164.982491 
L 171.760942 162.188242 
L 168.023879 159.826612 
L 167.269911 159.393993 
L 162.49452 156.599744 
L 158.030447 153.805495 
L 156.461878 152.805963 
L 153.373215 151.011246 
L 148.791766 148.216997 
L 144.920049 145.728401 
" style="fill:none;stroke:#6060ff;"/>
    <path clip-path="url(#pb08a254e4b)" d="M 121.778036 131.490666 
L 121.775875 131.489272 
L 121.710943 131.451502 
L 116.942464 128.657253 
L 112.479491 125.863003 
L 110.213875 124.408042 
L 107.906895 123.068754 
L 103.264378 120.274505 
L 98.884512 117.480256 
L 98.651874 117.332304 
L 94.050534 114.686007 
L 89.484528 111.891758 
L 87.089873 110.38706 
L 84.78227 109.097509 
L 79.948711 106.30326 
L 75.527872 103.602812 
L 75.350276 103.50901 
L 70.094882 100.714761 
L 65.155199 97.920512 
L 63.965872 97.241596 
" style="fill:none;stroke:#6060ff;"/>
   </g>
   <g id="LineCollection_7">
    <path clip-path="url(#pb08a254e4b)" d="M 313.256101 44.829779 
L 313.256101 47.624028 
L 313.256101 50.418277 
L 313.256101 53.212526 
L 313.256101 56.006775 
L 313.256101 58.801024 
L 313.256101 61.595273 
L 313.256101 64.389523 
L 313.256101 67.183772 
L 313.256101 69.978021 
L 313.256101 72.77227 
L 313.256101 75.566519 
L 313.256101 78.360768 
L 313.256101 81.155017 
L 313.256101 83.949266 
L 313.256101 86.743516 
L 313.256101 88.804274 
" style="fill:none;stroke:#4040ff;"/>
    <path clip-path="url(#pb08a254e4b)" d="M 313.256101 112.625248 
L 313.256101 114.686007 
L 313.256101 117.480256 
L 313.256101 120.274505 
L 313.256101 123.068754 
L 313.256101 125.863003 
L 313.256101 128.657253 
L 313.256101 131.451502 
L 313.256101 134.245751 
L 313.256101 137.04 
L 313.256101 139.834249 
L 313.256101 142.628498 
L 313.256101 145.422747 
L 313.256101 148.216997 
L 313.256101 151.011246 
L 313.256101 153.805495 
L 313.256101 156.599744 
L 313.256101 159.393993 
L 313.256101 162.188242 
L 313.256101 164.982491 
L 313.256101 167.77674 
L 313.256101 170.57099 
L 313.256101 173.365239 
L 313.256101 176.159488 
L 313.256101 178.953737 
L 313.256101 181.747986 
L 313.256101 184.542235 
L 313.256101 187.336484 
L 313.256101 190.130734 
L 313.256101 192.924983 
L 313.256101 195.719232 
L 313.256101 198.513481 
L 313.256101 201.30773 
L 313.256101 204.101979 
L 313.256101 206.896228 
L 313.256101 209.690477 
L 313.256101 212.484727 
L 313.256101 215.278976 
L 312.406963 218.073225 
L 306.767888 220.499217 
L 295.205887 219.536729 
L 283.643886 218.093788 
L 283.512319 218.073225 
L 272.081886 216.07495 
L 268.38204 215.278976 
L 260.519885 213.366811 
L 257.277282 212.484727 
L 248.957884 209.898439 
L 248.31416 209.690477 
L 240.395082 206.896228 
L 237.395883 205.701148 
L 233.30062 204.101979 
L 226.966256 201.30773 
L 225.833882 200.775978 
L 220.72181 198.513481 
L 215.159326 195.719232 
L 214.271882 195.253635 
L 209.43272 192.924983 
L 204.251755 190.130734 
L 202.709881 189.25781 
L 198.937207 187.336484 
L 193.918814 184.542235 
L 191.14788 182.890611 
L 188.985599 181.747986 
L 183.990292 178.953737 
L 179.585879 176.230724 
L 179.454419 176.159488 
L 174.377189 173.365239 
L 169.803413 170.57099 
L 168.023879 169.441284 
L 165.034597 167.77674 
L 160.33153 164.982491 
L 156.461878 162.485767 
L 155.931903 162.188242 
L 151.046383 159.393993 
L 146.609514 156.599744 
L 144.899877 155.486979 
L 141.941847 153.805495 
L 137.319613 151.011246 
L 133.337876 148.398914 
L 133.017976 148.216997 
L 128.164929 145.422747 
L 123.746774 142.628498 
L 121.775875 141.33556 
L 119.145585 139.834249 
L 114.50733 137.04 
L 110.253307 134.245751 
L 110.213875 134.219988 
L 105.358099 131.451502 
L 100.889934 128.657253 
L 98.651874 127.199208 
L 96.276911 125.863003 
L 91.540167 123.068754 
L 87.191053 120.274505 
L 87.089873 120.209753 
L 82.131106 117.480256 
L 77.487282 114.686007 
L 75.527872 113.467537 
L 72.506521 111.891758 
L 67.425452 109.097509 
L 63.965872 107.079064 
" style="fill:none;stroke:#4040ff;"/>
   </g>
   <g id="LineCollection_8">
    <path clip-path="url(#pb08a254e4b)" d="M 323.565615 44.829779 
L 323.565615 47.624028 
L 323.565615 50.418277 
L 323.565615 53.212526 
L 323.565615 56.006775 
L 323.565615 58.801024 
L 323.565615 61.595273 
L 323.565615 64.389523 
L 323.565615 67.183772 
L 323.565615 69.978021 
L 323.565615 72.77227 
L 323.565615 75.566519 
L 323.565615 78.360768 
L 323.565615 81.155017 
L 323.565615 83.949266 
L 323.565615 86.743516 
L 323.565615 89.537765 
L 323.565615 92.332014 
L 323.565615 95.126263 
L 323.565615 97.920512 
L 323.565615 100.714761 
L 323.565615 103.50901 
L 323.565615 106.30326 
L 323.565615 109.097509 
L 323.565615 111.891758 
L 323.565615 114.686007 
L 323.565615 117.480256 
L 323.565615 120.274505 
L 323.565615 123.068754 
L 323.565615 125.863003 
L 323.565615 128.657253 
L 323.565615 131.451502 
L 323.565615 134.245751 
L 323.565615 137.04 
L 323.565615 139.834249 
L 323.565615 142.628498 
L 323.565615 145.422747 
L 323.565615 148.216997 
L 323.565615 151.011246 
L 323.565615 153.805495 
L 323.565615 156.599744 
L 323.565615 159.393993 
L 323.565615 162.188242 
L 323.565615 164.982491 
L 323.565615 167.77674 
L 323.565615 170.57099 
L 323.565615 173.365239 
L 323.565615 176.159488 
L 323.565615 178.953737 
L 323.565615 181.747986 
L 323.565615 184.542235 
L 323.565615 187.336484 
L 323.565615 190.130734 
L 323.565615 192.924983 
L 323.565615 195.719232 
L 323.565615 198.513481 
L 323.565615 201.30773 
L 323.565615 204.101979 
L 323.565615 206.896228 
L 323.565615 209.690477 
L 323.565615 212.484727 
L 323.565615 215.278976 
L 323.565615 218.073225 
L 323.565615 220.867474 
L 323.257294 223.661723 
L 318.329889 225.217401 
L 306.767888 224.876233 
L 295.205887 224.317028 
L 286.156087 223.661723 
L 283.643886 223.457758 
L 272.081886 222.228694 
L 262.812992 220.867474 
L 260.519885 220.476853 
L 248.957884 218.114775 
L 248.7703 218.073225 
L 238.059782 215.278976 
L 237.395883 215.074491 
L 229.002196 212.484727 
L 225.833882 211.314769 
L 221.195001 209.690477 
L 214.536437 206.896228 
L 214.271882 206.776759 
L 207.72851 204.101979 
L 202.709881 201.622147 
L 201.985514 201.30773 
L 195.909664 198.513481 
L 191.14788 195.908589 
L 190.744995 195.719232 
L 185.029992 192.924983 
L 180.179374 190.130734 
L 179.585879 189.776832 
L 174.770081 187.336484 
L 169.955076 184.542235 
L 168.023879 183.341451 
L 164.977272 181.747986 
L 160.082831 178.953737 
L 156.461878 176.635845 
L 155.569419 176.159488 
L 150.506274 173.365239 
L 148.263495 171.949971 
" style="fill:none;stroke:#2020ff;"/>
    <path clip-path="url(#pb08a254e4b)" d="M 124.95579 157.913115 
L 122.924405 156.599744 
L 121.775875 155.832038 
L 118.126041 153.805495 
L 113.536847 151.011246 
L 110.213875 148.782937 
L 109.192017 148.216997 
L 104.28737 145.422747 
L 99.95154 142.628498 
L 98.651874 141.761293 
L 95.152482 139.834249 
L 90.49384 137.04 
L 87.089873 134.794926 
L 86.069753 134.245751 
L 81.014753 131.451502 
L 76.528108 128.657253 
L 75.527872 128.018638 
L 71.339423 125.863003 
L 66.38699 123.068754 
L 63.965872 121.620015 
" style="fill:none;stroke:#2020ff;"/>
   </g>
   <g id="LineCollection_9">
    <path clip-path="url(#pb08a254e4b)" d="M 352.595122 44.829779 
L 352.595122 47.624028 
L 352.595122 50.418277 
L 352.595122 53.212526 
L 352.595122 56.006775 
L 352.595122 58.801024 
L 352.595122 61.595273 
L 352.595122 64.389523 
L 352.595122 67.183772 
L 352.595122 69.978021 
L 352.595122 72.77227 
L 352.595122 75.566519 
L 352.595122 78.360768 
L 352.595122 81.155017 
L 352.595122 83.949266 
L 352.595122 86.743516 
L 352.595122 88.804274 
" style="fill:none;stroke:#0000ff;"/>
    <path clip-path="url(#pb08a254e4b)" d="M 352.595122 112.625248 
L 352.595122 114.686007 
L 352.595122 117.480256 
L 352.595122 120.274505 
L 352.595122 123.068754 
L 352.595122 125.863003 
L 352.595122 128.657253 
L 352.595122 131.451502 
L 352.595122 134.245751 
L 352.595122 137.04 
L 352.595122 139.834249 
L 352.595122 142.628498 
L 352.595122 145.422747 
L 352.595122 148.216997 
L 352.595122 151.011246 
L 352.595122 153.805495 
L 352.595122 156.599744 
L 352.595122 159.393993 
L 352.595122 162.188242 
L 352.595122 164.982491 
L 352.595122 167.77674 
L 352.595122 170.57099 
L 352.595122 173.365239 
L 352.595122 176.159488 
L 352.595122 178.953737 
L 352.595122 181.747986 
L 352.595122 184.542235 
L 352.595122 187.336484 
L 352.595122 190.130734 
L 352.595122 192.924983 
L 352.595122 195.719232 
L 352.595122 198.513481 
L 352.595122 201.30773 
L 352.595122 204.101979 
L 352.595122 206.896228 
L 352.595122 209.690477 
L 352.595122 212.484727 
L 352.595122 215.278976 
L 352.595122 218.073225 
L 352.595122 220.867474 
L 352.595122 223.661723 
L 352.595122 226.455972 
L 341.45389 229.148532 
L 329.891889 229.239867 
L 318.329889 229.242991 
L 306.767888 229.24233 
L 295.205887 229.241234 
L 283.643886 229.239498 
L 272.081886 229.236824 
L 260.519885 229.232754 
L 248.957884 229.226594 
L 237.395883 229.217275 
L 225.833882 229.203236 
L 214.271882 229.182048 
L 202.709881 229.149985 
L 191.14788 229.101611 
L 179.585879 229.027319 
L 168.023879 228.915291 
L 156.461878 228.732523 
L 144.899877 228.437228 
L 133.337876 227.866454 
L 121.775875 226.465431 
L 121.727391 226.455972 
L 110.529903 223.661723 
L 110.213875 223.560778 
L 103.412492 220.867474 
L 98.651874 218.434345 
L 98.030138 218.073225 
L 93.09284 215.278976 
L 88.882368 212.484727 
L 87.089873 211.282881 
L 84.725322 209.690477 
L 80.773975 206.896228 
L 77.08817 204.101979 
L 75.527872 202.853409 
L 73.563946 201.30773 
L 69.875336 198.513481 
L 66.494725 195.719232 
L 63.965872 193.62674 
" style="fill:none;stroke:#0000ff;"/>
   </g>
   <g id="line2d_27">
    <path clip-path="url(#pb08a254e4b)" d="M 87.089873 117.480256 
L 98.651874 123.068754 
L 110.213875 128.657253 
L 121.775875 134.245751 
L 133.337876 139.834249 
L 144.899877 145.422747 
L 156.461878 151.011246 
L 168.023879 156.599744 
L 179.585879 162.188242 
L 191.14788 167.77674 
L 202.709881 173.365239 
L 214.271882 178.953737 
L 225.833882 184.542235 
L 237.395883 190.130734 
L 248.957884 195.719232 
L 260.519885 201.30773 
L 272.081886 206.896228 
L 283.643886 212.484727 
L 295.205887 218.073225 
L 306.767888 223.661723 
L 318.329889 229.250221 
" style="fill:none;stroke:#e36f47;stroke-dasharray:22.2,9.6;stroke-dashoffset:0;stroke-width:6;"/>
   </g>
   <g id="patch_3">
    <path d="M 53.906931 234.782835 
L 53.906931 39.297165 
" style="fill:none;stroke:#000000;stroke-linecap:square;stroke-linejoin:miter;"/>
   </g>
   <g id="patch_4">
    <path d="M 53.906931 234.782835 
L 409.322835 234.782835 
" style="fill:none;stroke:#000000;stroke-linecap:square;stroke-linejoin:miter;"/>
   </g>
   <g id="text_16">
    <g clip-path="url(#pb08a254e4b)">
     <!-- 0.300 -->
     <g style="fill:#e1e1ff;" transform="translate(241.462173 86.400699)rotate(-270)scale(0.1 -0.1)">
      <defs>
       <path d="M 31.78125 66.40625 
Q 24.171875 66.40625 20.328125 58.90625 
Q 16.5 51.421875 16.5 36.375 
Q 16.5 21.390625 20.328125 13.890625 
Q 24.171875 6.390625 31.78125 6.390625 
Q 39.453125 6.390625 43.28125 13.890625 
Q 47.125 21.390625 47.125 36.375 
Q 47.125 51.421875 43.28125 58.90625 
Q 39.453125 66.40625 31.78125 66.40625 
z
M 31.78125 74.21875 
Q 44.046875 74.21875 50.515625 64.515625 
Q 56.984375 54.828125 56.984375 36.375 
Q 56.984375 17.96875 50.515625 8.265625 
Q 44.046875 -1.421875 31.78125 -1.421875 
Q 19.53125 -1.421875 13.0625 8.265625 
Q 6.59375 17.96875 6.59375 36.375 
Q 6.59375 54.828125 13.0625 64.515625 
Q 19.53125 74.21875 31.78125 74.21875 
z
" id="DejaVuSans-48"/>
       <path d="M 10.6875 12.40625 
L 21 12.40625 
L 21 0 
L 10.6875 0 
z
" id="DejaVuSans-46"/>
       <path d="M 40.578125 39.3125 
Q 47.65625 37.796875 51.625 33 
Q 55.609375 28.21875 55.609375 21.1875 
Q 55.609375 10.40625 48.1875 4.484375 
Q 40.765625 -1.421875 27.09375 -1.421875 
Q 22.515625 -1.421875 17.65625 -0.515625 
Q 12.796875 0.390625 7.625 2.203125 
L 7.625 11.71875 
Q 11.71875 9.328125 16.59375 8.109375 
Q 21.484375 6.890625 26.8125 6.890625 
Q 36.078125 6.890625 40.9375 10.546875 
Q 45.796875 14.203125 45.796875 21.1875 
Q 45.796875 27.640625 41.28125 31.265625 
Q 36.765625 34.90625 28.71875 34.90625 
L 20.21875 34.90625 
L 20.21875 43.015625 
L 29.109375 43.015625 
Q 36.375 43.015625 40.234375 45.921875 
Q 44.09375 48.828125 44.09375 54.296875 
Q 44.09375 59.90625 40.109375 62.90625 
Q 36.140625 65.921875 28.71875 65.921875 
Q 24.65625 65.921875 20.015625 65.03125 
Q 15.375 64.15625 9.8125 62.3125 
L 9.8125 71.09375 
Q 15.4375 72.65625 20.34375 73.4375 
Q 25.25 74.21875 29.59375 74.21875 
Q 40.828125 74.21875 47.359375 69.109375 
Q 53.90625 64.015625 53.90625 55.328125 
Q 53.90625 49.265625 50.4375 45.09375 
Q 46.96875 40.921875 40.578125 39.3125 
z
" id="DejaVuSans-51"/>
      </defs>
      <use xlink:href="#DejaVuSans-48"/>
      <use x="63.623047" xlink:href="#DejaVuSans-46"/>
      <use x="95.410156" xlink:href="#DejaVuSans-51"/>
      <use x="159.033203" xlink:href="#DejaVuSans-48"/>
      <use x="222.65625" xlink:href="#DejaVuSans-48"/>
     </g>
    </g>
   </g>
   <g id="text_17">
    <g clip-path="url(#pb08a254e4b)">
     <!-- 0.330 -->
     <g style="fill:#c1c1ff;" transform="translate(212.401282 166.609613)rotate(-326.228397)scale(0.1 -0.1)">
      <use xlink:href="#DejaVuSans-48"/>
      <use x="63.623047" xlink:href="#DejaVuSans-46"/>
      <use x="95.410156" xlink:href="#DejaVuSans-51"/>
      <use x="159.033203" xlink:href="#DejaVuSans-51"/>
      <use x="222.65625" xlink:href="#DejaVuSans-48"/>
     </g>
    </g>
   </g>
   <g id="text_18">
    <g clip-path="url(#pb08a254e4b)">
     <!-- 0.360 -->
     <g style="fill:#a1a1ff;" transform="translate(279.946039 86.400699)rotate(-270)scale(0.1 -0.1)">
      <defs>
       <path d="M 33.015625 40.375 
Q 26.375 40.375 22.484375 35.828125 
Q 18.609375 31.296875 18.609375 23.390625 
Q 18.609375 15.53125 22.484375 10.953125 
Q 26.375 6.390625 33.015625 6.390625 
Q 39.65625 6.390625 43.53125 10.953125 
Q 47.40625 15.53125 47.40625 23.390625 
Q 47.40625 31.296875 43.53125 35.828125 
Q 39.65625 40.375 33.015625 40.375 
z
M 52.59375 71.296875 
L 52.59375 62.3125 
Q 48.875 64.0625 45.09375 64.984375 
Q 41.3125 65.921875 37.59375 65.921875 
Q 27.828125 65.921875 22.671875 59.328125 
Q 17.53125 52.734375 16.796875 39.40625 
Q 19.671875 43.65625 24.015625 45.921875 
Q 28.375 48.1875 33.59375 48.1875 
Q 44.578125 48.1875 50.953125 41.515625 
Q 57.328125 34.859375 57.328125 23.390625 
Q 57.328125 12.15625 50.6875 5.359375 
Q 44.046875 -1.421875 33.015625 -1.421875 
Q 20.359375 -1.421875 13.671875 8.265625 
Q 6.984375 17.96875 6.984375 36.375 
Q 6.984375 53.65625 15.1875 63.9375 
Q 23.390625 74.21875 37.203125 74.21875 
Q 40.921875 74.21875 44.703125 73.484375 
Q 48.484375 72.75 52.59375 71.296875 
z
" id="DejaVuSans-54"/>
      </defs>
      <use xlink:href="#DejaVuSans-48"/>
      <use x="63.623047" xlink:href="#DejaVuSans-46"/>
      <use x="95.410156" xlink:href="#DejaVuSans-51"/>
      <use x="159.033203" xlink:href="#DejaVuSans-54"/>
      <use x="222.65625" xlink:href="#DejaVuSans-48"/>
     </g>
    </g>
   </g>
   <g id="text_19">
    <g clip-path="url(#pb08a254e4b)">
     <!-- 0.390 -->
     <g style="fill:#8181ff;" transform="translate(257.659883 202.686031)rotate(-340.709799)scale(0.1 -0.1)">
      <defs>
       <path d="M 10.984375 1.515625 
L 10.984375 10.5 
Q 14.703125 8.734375 18.5 7.8125 
Q 22.3125 6.890625 25.984375 6.890625 
Q 35.75 6.890625 40.890625 13.453125 
Q 46.046875 20.015625 46.78125 33.40625 
Q 43.953125 29.203125 39.59375 26.953125 
Q 35.25 24.703125 29.984375 24.703125 
Q 19.046875 24.703125 12.671875 31.3125 
Q 6.296875 37.9375 6.296875 49.421875 
Q 6.296875 60.640625 12.9375 67.421875 
Q 19.578125 74.21875 30.609375 74.21875 
Q 43.265625 74.21875 49.921875 64.515625 
Q 56.59375 54.828125 56.59375 36.375 
Q 56.59375 19.140625 48.40625 8.859375 
Q 40.234375 -1.421875 26.421875 -1.421875 
Q 22.703125 -1.421875 18.890625 -0.6875 
Q 15.09375 0.046875 10.984375 1.515625 
z
M 30.609375 32.421875 
Q 37.25 32.421875 41.125 36.953125 
Q 45.015625 41.5 45.015625 49.421875 
Q 45.015625 57.28125 41.125 61.84375 
Q 37.25 66.40625 30.609375 66.40625 
Q 23.96875 66.40625 20.09375 61.84375 
Q 16.21875 57.28125 16.21875 49.421875 
Q 16.21875 41.5 20.09375 36.953125 
Q 23.96875 32.421875 30.609375 32.421875 
z
" id="DejaVuSans-57"/>
      </defs>
      <use xlink:href="#DejaVuSans-48"/>
      <use x="63.623047" xlink:href="#DejaVuSans-46"/>
      <use x="95.410156" xlink:href="#DejaVuSans-51"/>
      <use x="159.033203" xlink:href="#DejaVuSans-57"/>
      <use x="222.65625" xlink:href="#DejaVuSans-48"/>
     </g>
    </g>
   </g>
   <g id="text_20">
    <g clip-path="url(#pb08a254e4b)">
     <!-- 0.420 -->
     <g style="fill:#6060ff;" transform="translate(120.212099 132.279795)rotate(-323.300354)scale(0.1 -0.1)">
      <defs>
       <path d="M 37.796875 64.3125 
L 12.890625 25.390625 
L 37.796875 25.390625 
z
M 35.203125 72.90625 
L 47.609375 72.90625 
L 47.609375 25.390625 
L 58.015625 25.390625 
L 58.015625 17.1875 
L 47.609375 17.1875 
L 47.609375 0 
L 37.796875 0 
L 37.796875 17.1875 
L 4.890625 17.1875 
L 4.890625 26.703125 
z
" id="DejaVuSans-52"/>
       <path d="M 19.1875 8.296875 
L 53.609375 8.296875 
L 53.609375 0 
L 7.328125 0 
L 7.328125 8.296875 
Q 12.9375 14.109375 22.625 23.890625 
Q 32.328125 33.6875 34.8125 36.53125 
Q 39.546875 41.84375 41.421875 45.53125 
Q 43.3125 49.21875 43.3125 52.78125 
Q 43.3125 58.59375 39.234375 62.25 
Q 35.15625 65.921875 28.609375 65.921875 
Q 23.96875 65.921875 18.8125 64.3125 
Q 13.671875 62.703125 7.8125 59.421875 
L 7.8125 69.390625 
Q 13.765625 71.78125 18.9375 73 
Q 24.125 74.21875 28.421875 74.21875 
Q 39.75 74.21875 46.484375 68.546875 
Q 53.21875 62.890625 53.21875 53.421875 
Q 53.21875 48.921875 51.53125 44.890625 
Q 49.859375 40.875 45.40625 35.40625 
Q 44.1875 33.984375 37.640625 27.21875 
Q 31.109375 20.453125 19.1875 8.296875 
z
" id="DejaVuSans-50"/>
      </defs>
      <use xlink:href="#DejaVuSans-48"/>
      <use x="63.623047" xlink:href="#DejaVuSans-46"/>
      <use x="95.410156" xlink:href="#DejaVuSans-52"/>
      <use x="159.033203" xlink:href="#DejaVuSans-50"/>
      <use x="222.65625" xlink:href="#DejaVuSans-48"/>
     </g>
    </g>
   </g>
   <g id="text_21">
    <g clip-path="url(#pb08a254e4b)">
     <!-- 0.450 -->
     <g style="fill:#4040ff;" transform="translate(310.496726 86.400699)rotate(-270)scale(0.1 -0.1)">
      <defs>
       <path d="M 10.796875 72.90625 
L 49.515625 72.90625 
L 49.515625 64.59375 
L 19.828125 64.59375 
L 19.828125 46.734375 
Q 21.96875 47.46875 24.109375 47.828125 
Q 26.265625 48.1875 28.421875 48.1875 
Q 40.625 48.1875 47.75 41.5 
Q 54.890625 34.8125 54.890625 23.390625 
Q 54.890625 11.625 47.5625 5.09375 
Q 40.234375 -1.421875 26.90625 -1.421875 
Q 22.3125 -1.421875 17.546875 -0.640625 
Q 12.796875 0.140625 7.71875 1.703125 
L 7.71875 11.625 
Q 12.109375 9.234375 16.796875 8.0625 
Q 21.484375 6.890625 26.703125 6.890625 
Q 35.15625 6.890625 40.078125 11.328125 
Q 45.015625 15.765625 45.015625 23.390625 
Q 45.015625 31 40.078125 35.4375 
Q 35.15625 39.890625 26.703125 39.890625 
Q 22.75 39.890625 18.8125 39.015625 
Q 14.890625 38.140625 10.796875 36.28125 
z
" id="DejaVuSans-53"/>
      </defs>
      <use xlink:href="#DejaVuSans-48"/>
      <use x="63.623047" xlink:href="#DejaVuSans-46"/>
      <use x="95.410156" xlink:href="#DejaVuSans-52"/>
      <use x="159.033203" xlink:href="#DejaVuSans-53"/>
      <use x="222.65625" xlink:href="#DejaVuSans-48"/>
     </g>
    </g>
   </g>
   <g id="text_22">
    <g clip-path="url(#pb08a254e4b)">
     <!-- 0.480 -->
     <g style="fill:#2020ff;" transform="translate(123.332276 158.861877)rotate(-324.262711)scale(0.1 -0.1)">
      <defs>
       <path d="M 31.78125 34.625 
Q 24.75 34.625 20.71875 30.859375 
Q 16.703125 27.09375 16.703125 20.515625 
Q 16.703125 13.921875 20.71875 10.15625 
Q 24.75 6.390625 31.78125 6.390625 
Q 38.8125 6.390625 42.859375 10.171875 
Q 46.921875 13.96875 46.921875 20.515625 
Q 46.921875 27.09375 42.890625 30.859375 
Q 38.875 34.625 31.78125 34.625 
z
M 21.921875 38.8125 
Q 15.578125 40.375 12.03125 44.71875 
Q 8.5 49.078125 8.5 55.328125 
Q 8.5 64.0625 14.71875 69.140625 
Q 20.953125 74.21875 31.78125 74.21875 
Q 42.671875 74.21875 48.875 69.140625 
Q 55.078125 64.0625 55.078125 55.328125 
Q 55.078125 49.078125 51.53125 44.71875 
Q 48 40.375 41.703125 38.8125 
Q 48.828125 37.15625 52.796875 32.3125 
Q 56.78125 27.484375 56.78125 20.515625 
Q 56.78125 9.90625 50.3125 4.234375 
Q 43.84375 -1.421875 31.78125 -1.421875 
Q 19.734375 -1.421875 13.25 4.234375 
Q 6.78125 9.90625 6.78125 20.515625 
Q 6.78125 27.484375 10.78125 32.3125 
Q 14.796875 37.15625 21.921875 38.8125 
z
M 18.3125 54.390625 
Q 18.3125 48.734375 21.84375 45.5625 
Q 25.390625 42.390625 31.78125 42.390625 
Q 38.140625 42.390625 41.71875 45.5625 
Q 45.3125 48.734375 45.3125 54.390625 
Q 45.3125 60.0625 41.71875 63.234375 
Q 38.140625 66.40625 31.78125 66.40625 
Q 25.390625 66.40625 21.84375 63.234375 
Q 18.3125 60.0625 18.3125 54.390625 
z
" id="DejaVuSans-56"/>
      </defs>
      <use xlink:href="#DejaVuSans-48"/>
      <use x="63.623047" xlink:href="#DejaVuSans-46"/>
      <use x="95.410156" xlink:href="#DejaVuSans-52"/>
      <use x="159.033203" xlink:href="#DejaVuSans-56"/>
      <use x="222.65625" xlink:href="#DejaVuSans-48"/>
     </g>
    </g>
   </g>
   <g id="text_23">
    <g clip-path="url(#pb08a254e4b)">
     <!-- 0.510 -->
     <g style="fill:#0000ff;" transform="translate(349.835747 86.400699)rotate(-270)scale(0.1 -0.1)">
      <defs>
       <path d="M 12.40625 8.296875 
L 28.515625 8.296875 
L 28.515625 63.921875 
L 10.984375 60.40625 
L 10.984375 69.390625 
L 28.421875 72.90625 
L 38.28125 72.90625 
L 38.28125 8.296875 
L 54.390625 8.296875 
L 54.390625 0 
L 12.40625 0 
z
" id="DejaVuSans-49"/>
      </defs>
      <use xlink:href="#DejaVuSans-48"/>
      <use x="63.623047" xlink:href="#DejaVuSans-46"/>
      <use x="95.410156" xlink:href="#DejaVuSans-53"/>
      <use x="159.033203" xlink:href="#DejaVuSans-49"/>
      <use x="222.65625" xlink:href="#DejaVuSans-48"/>
     </g>
    </g>
   </g>
   <g id="text_24">
    <!-- Max(I) -->
    <g transform="translate(208.958633 33.297165)scale(0.16 -0.16)">
     <defs>
      <path d="M 1.125 1.8125 
Q 7.328125 2.4375 9.078125 4.609375 
Q 10.84375 6.78125 10.84375 14.703125 
L 10.84375 55.328125 
Q 10.84375 60.75 9.125 62.375 
Q 7.421875 64.015625 1.375 64.3125 
L 1.375 66.15625 
L 21.140625 66.15625 
L 44.28125 15.71875 
L 66.40625 66.15625 
L 86.328125 66.15625 
L 86.328125 64.3125 
Q 80.765625 63.921875 79.15625 62.28125 
Q 77.546875 60.640625 77.546875 55.328125 
L 77.546875 10.84375 
Q 77.546875 5.375 79.15625 3.828125 
Q 80.765625 2.296875 86.328125 1.8125 
L 86.328125 0 
L 58.296875 0 
L 58.296875 1.8125 
Q 64.359375 2.296875 65.84375 3.984375 
Q 67.328125 5.671875 67.328125 12.015625 
L 67.328125 56.9375 
L 41.75 0 
L 40.375 0 
L 15.234375 54.59375 
L 15.234375 14.703125 
Q 15.234375 6.5 17.625 4 
Q 19.1875 2.390625 24.609375 1.8125 
L 24.609375 0 
L 1.125 0 
z
" id="Times-Roman-77"/>
      <path d="M 28.65625 27.046875 
Q 23.046875 25.203125 19.390625 22.953125 
Q 12.359375 18.609375 12.359375 13.09375 
Q 12.359375 8.640625 15.28125 6.546875 
Q 17.1875 5.171875 19.53125 5.171875 
Q 22.75 5.171875 25.703125 6.984375 
Q 28.65625 8.796875 28.65625 11.578125 
z
M 3.65625 9.71875 
Q 3.65625 16.796875 10.75 21.53125 
Q 15.234375 24.46875 28.65625 29.5 
L 28.65625 33.640625 
Q 28.65625 38.625 27.6875 40.578125 
Q 26.03125 43.84375 20.796875 43.84375 
Q 18.3125 43.84375 16.0625 42.578125 
Q 13.8125 41.265625 13.8125 38.96875 
Q 13.8125 38.375 14.0625 36.984375 
Q 14.3125 35.59375 14.3125 35.203125 
Q 14.3125 32.46875 12.5 31.390625 
Q 11.46875 30.765625 10.0625 30.765625 
Q 7.859375 30.765625 6.6875 32.203125 
Q 5.515625 33.640625 5.515625 35.40625 
Q 5.515625 38.8125 9.734375 42.546875 
Q 13.96875 46.296875 22.125 46.296875 
Q 31.59375 46.296875 34.96875 40.140625 
Q 36.765625 36.765625 36.765625 30.328125 
L 36.765625 10.75 
Q 36.765625 7.90625 37.15625 6.84375 
Q 37.796875 4.9375 39.796875 4.9375 
Q 40.921875 4.9375 41.65625 5.265625 
Q 42.390625 5.609375 44.1875 6.9375 
L 44.1875 4.390625 
Q 42.625 2.484375 40.828125 1.265625 
Q 38.09375 -0.59375 35.25 -0.59375 
Q 31.9375 -0.59375 30.4375 1.5625 
Q 28.953125 3.71875 28.8125 6.6875 
Q 25.09375 3.46875 22.46875 1.90625 
Q 18.015625 -0.734375 14.015625 -0.734375 
Q 9.8125 -0.734375 6.734375 2.21875 
Q 3.65625 5.171875 3.65625 9.71875 
z
M 22.265625 46.296875 
z
" id="Times-Roman-97"/>
      <path d="M 23.140625 44.875 
L 23.140625 43.5 
Q 21.296875 43.453125 20 42.984375 
Q 18.703125 42.53125 18.703125 41.0625 
Q 18.703125 40.140625 21.296875 35.84375 
Q 22.65625 33.59375 24.75 30.328125 
Q 27.640625 34.28125 29.046875 36.53125 
Q 31.453125 40.140625 31.453125 41.21875 
Q 31.453125 42.484375 30.421875 42.921875 
Q 29.390625 43.359375 27.546875 43.5 
L 27.546875 44.875 
L 43.265625 44.875 
L 43.265625 43.5 
Q 40.765625 43.3125 38.609375 42.15625 
Q 36.46875 41.015625 35.15625 39.109375 
L 26.8125 27.046875 
L 39.703125 7.515625 
Q 42.1875 3.71875 43.921875 2.59375 
Q 45.65625 1.46875 47.90625 1.375 
L 47.90625 0 
L 27.734375 0 
L 27.734375 1.375 
L 29.15625 1.46875 
Q 30.28125 1.5625 31.03125 2.140625 
Q 31.78125 2.734375 31.78125 3.609375 
Q 31.78125 4.546875 29.9375 7.71875 
Q 29.046875 9.28125 27.296875 11.96875 
Q 26.46875 13.28125 24.828125 15.625 
Q 23.1875 17.96875 22.078125 19.625 
L 14.203125 7.375 
Q 12.796875 5.171875 12.453125 4.4375 
Q 12.109375 3.71875 12.109375 3.21875 
Q 12.109375 2.296875 12.859375 2 
Q 13.625 1.703125 16.15625 1.375 
L 16.15625 0 
L 1.703125 0 
L 1.703125 1.375 
Q 4.34375 1.90625 5.609375 2.734375 
Q 6.890625 3.5625 8.984375 6.59375 
L 20.359375 23.140625 
L 10.984375 37.359375 
Q 8.15625 41.609375 7.078125 42.390625 
Q 6 43.171875 2.390625 43.5 
L 2.390625 44.875 
z
" id="Times-Roman-120"/>
      <path d="M 4.59375 25.09375 
Q 4.59375 42.09375 14.75 54.9375 
Q 21 62.796875 29.5 67.578125 
L 30.421875 65.96875 
Q 22.5625 59.71875 19.1875 53.8125 
Q 13.28125 43.5 13.28125 26.375 
Q 13.28125 13.671875 15.53125 5.421875 
Q 19.484375 -9.03125 30.421875 -16.21875 
L 29.15625 -17.828125 
Q 23.140625 -14.9375 16.15625 -6.546875 
Q 4.59375 7.375 4.59375 25.09375 
z
" id="Times-Roman-40"/>
      <path d="M 1.609375 1.8125 
Q 7.71875 2.25 9.515625 3.640625 
Q 11.328125 5.03125 11.328125 10.84375 
L 11.328125 55.328125 
Q 11.328125 60.84375 9.515625 62.421875 
Q 7.71875 64.015625 1.609375 64.3125 
L 1.609375 66.15625 
L 31.203125 66.15625 
L 31.203125 64.3125 
Q 25.09375 64.015625 23.28125 62.421875 
Q 21.484375 60.84375 21.484375 55.328125 
L 21.484375 10.84375 
Q 21.484375 5.03125 23.28125 3.640625 
Q 25.09375 2.25 31.203125 1.8125 
L 31.203125 0 
L 1.609375 0 
z
M 16.40625 66.15625 
z
" id="Times-Roman-73"/>
      <path d="M 28.46875 24.609375 
Q 28.46875 17.328125 26.5625 10.828125 
Q 24.65625 4.34375 21 -1.421875 
Q 17.140625 -7.5625 10.6875 -12.890625 
Q 6.453125 -16.40625 3.5625 -17.828125 
L 2.640625 -16.21875 
Q 10.15625 -10.5 13.625 -4.546875 
Q 19.78125 6 19.78125 23.34375 
Q 19.78125 37.359375 16.9375 46.234375 
Q 12.984375 58.796875 2.640625 65.96875 
L 3.90625 67.578125 
Q 11.625 63.28125 18.265625 54.59375 
Q 28.46875 41.21875 28.46875 24.609375 
z
" id="Times-Roman-41"/>
     </defs>
     <use xlink:href="#Times-Roman-77"/>
     <use x="88.916016" xlink:href="#Times-Roman-97"/>
     <use x="133.300781" xlink:href="#Times-Roman-120"/>
     <use x="183.300781" xlink:href="#Times-Roman-40"/>
     <use x="216.601562" xlink:href="#Times-Roman-73"/>
     <use x="249.902344" xlink:href="#Times-Roman-41"/>
    </g>
   </g>
  </g>
 </g>
 <defs>
  <clipPath id="pb08a254e4b">
   <rect height="195.485669" width="355.415904" x="53.906931" y="39.297165"/>
  </clipPath>
 </defs>
</svg>
