<?xml version="1.0" encoding="utf-8" standalone="no"?>
<!DOCTYPE svg PUBLIC "-//W3C//DTD SVG 1.1//EN"
  "http://www.w3.org/Graphics/SVG/1.1/DTD/svg11.dtd">
<!-- Created with matplotlib (https://matplotlib.org/) -->
<svg height="288pt" version="1.1" viewBox="0 0 432 288" width="432pt" xmlns="http://www.w3.org/2000/svg" xmlns:xlink="http://www.w3.org/1999/xlink">
 <metadata>
  <rdf:RDF xmlns:cc="http://creativecommons.org/ns#" xmlns:dc="http://purl.org/dc/elements/1.1/" xmlns:rdf="http://www.w3.org/1999/02/22-rdf-syntax-ns#">
   <cc:Work>
    <dc:type rdf:resource="http://purl.org/dc/dcmitype/StillImage"/>
    <dc:date>2021-02-26T15:57:07.236682</dc:date>
    <dc:format>image/svg+xml</dc:format>
    <dc:creator>
     <cc:Agent>
      <dc:title>Matplotlib v3.3.4, https://matplotlib.org/</dc:title>
     </cc:Agent>
    </dc:creator>
   </cc:Work>
  </rdf:RDF>
 </metadata>
 <defs>
  <style type="text/css">*{stroke-linecap:butt;stroke-linejoin:round;}</style>
 </defs>
 <g id="figure_1">
  <g id="patch_1">
   <path d="M 0 288 
L 432 288 
L 432 0 
L 0 0 
z
" style="fill:#ffffff;"/>
  </g>
  <g id="axes_1">
   <g id="patch_2">
    <path d="M 75.177165 223.274085 
L 399.962835 223.274085 
L 399.962835 43.605915 
L 75.177165 43.605915 
z
" style="fill:#ffffff;"/>
   </g>
   <g id="matplotlib.axis_1">
    <g id="xtick_1">
     <g id="line2d_1">
      <path clip-path="url(#p5b06b853c9)" d="M 75.177165 223.274085 
L 75.177165 43.605915 
" style="fill:none;stroke:#000000;stroke-linecap:square;stroke-opacity:0.1;stroke-width:0.5;"/>
     </g>
     <g id="line2d_2">
      <defs>
       <path d="M 0 0 
L 0 -2.5 
" id="m61d3530112" style="stroke:#000000;stroke-width:0.5;"/>
      </defs>
      <g>
       <use style="stroke:#000000;stroke-width:0.5;" x="75.177165" xlink:href="#m61d3530112" y="223.274085"/>
      </g>
     </g>
     <g id="text_1">
      <!-- $\mathregular{0}$ -->
      <g transform="translate(70.677165 239.115335)scale(0.18 -0.18)">
       <defs>
        <path d="M 23.921875 1.8125 
Q 31.109375 1.8125 33.78125 9.671875 
Q 36.46875 17.53125 36.46875 32.421875 
Q 36.46875 44.28125 34.859375 51.375 
Q 31.84375 64.546875 23.53125 64.546875 
Q 15.234375 64.546875 12.15625 50.984375 
Q 10.546875 43.75 10.546875 31.9375 
Q 10.546875 20.84375 12.203125 14.203125 
Q 15.328125 1.8125 23.921875 1.8125 
z
M 23.78125 67.1875 
Q 35.015625 67.1875 41.21875 55.421875 
Q 46.140625 45.90625 46.140625 33.546875 
Q 46.140625 23.828125 43.109375 15.234375 
Q 37.40625 -0.921875 23.34375 -0.921875 
Q 13.71875 -0.921875 7.515625 7.8125 
Q 0.875 17.140625 0.875 33.15625 
Q 0.875 45.75 5.328125 54.828125 
Q 11.328125 67.1875 23.78125 67.1875 
z
" id="Times-Roman-48"/>
       </defs>
       <use transform="translate(0 0.8125)" xlink:href="#Times-Roman-48"/>
      </g>
     </g>
    </g>
    <g id="xtick_2">
     <g id="line2d_3">
      <path clip-path="url(#p5b06b853c9)" d="M 129.30811 223.274085 
L 129.30811 43.605915 
" style="fill:none;stroke:#000000;stroke-linecap:square;stroke-opacity:0.1;stroke-width:0.5;"/>
     </g>
     <g id="line2d_4">
      <g>
       <use style="stroke:#000000;stroke-width:0.5;" x="129.30811" xlink:href="#m61d3530112" y="223.274085"/>
      </g>
     </g>
     <g id="text_2">
      <!-- $\mathregular{10}$ -->
      <g transform="translate(120.30811 239.115335)scale(0.18 -0.18)">
       <defs>
        <path d="M 29.59375 67.09375 
Q 29.78125 66.84375 29.796875 66.71875 
Q 29.828125 66.609375 29.828125 66.15625 
L 29.828125 7.375 
Q 29.828125 3.609375 31.828125 2.578125 
Q 33.84375 1.5625 39.3125 1.375 
L 39.3125 0 
L 11.765625 0 
L 11.765625 1.46875 
Q 17.671875 1.765625 19.484375 3.078125 
Q 21.296875 4.390625 21.296875 8.796875 
L 21.296875 54 
Q 21.296875 56.34375 20.703125 57.5625 
Q 20.125 58.796875 18.171875 58.796875 
Q 16.890625 58.796875 14.859375 58.078125 
Q 12.84375 57.375 11.078125 56.59375 
L 11.078125 57.953125 
L 29 67.09375 
L 29.59375 67.09375 
z
" id="Times-Roman-49"/>
       </defs>
       <use transform="translate(0 0.8125)" xlink:href="#Times-Roman-49"/>
       <use transform="translate(50 0.8125)" xlink:href="#Times-Roman-48"/>
      </g>
     </g>
    </g>
    <g id="xtick_3">
     <g id="line2d_5">
      <path clip-path="url(#p5b06b853c9)" d="M 183.439055 223.274085 
L 183.439055 43.605915 
" style="fill:none;stroke:#000000;stroke-linecap:square;stroke-opacity:0.1;stroke-width:0.5;"/>
     </g>
     <g id="line2d_6">
      <g>
       <use style="stroke:#000000;stroke-width:0.5;" x="183.439055" xlink:href="#m61d3530112" y="223.274085"/>
      </g>
     </g>
     <g id="text_3">
      <!-- $\mathregular{20}$ -->
      <g transform="translate(174.439055 239.115335)scale(0.18 -0.18)">
       <defs>
        <path d="M 2.984375 1.125 
Q 20.84375 19.671875 27.234375 28.359375 
Q 33.640625 37.0625 33.640625 45.3125 
Q 33.640625 52.546875 29.734375 56.328125 
Q 25.828125 60.109375 20.40625 60.109375 
Q 13.71875 60.109375 9.578125 55.21875 
Q 7.28125 52.546875 5.171875 46.96875 
L 3.078125 47.40625 
Q 5.515625 58.640625 11.34375 63.015625 
Q 17.1875 67.390625 23.875 67.390625 
Q 32.125 67.390625 37.21875 62.1875 
Q 42.328125 56.984375 42.328125 49.46875 
Q 42.328125 41.453125 36.8125 34.03125 
Q 31.296875 26.609375 12.84375 7.625 
L 35.25 7.625 
Q 39.9375 7.625 41.84375 8.734375 
Q 43.75 9.859375 46.140625 14.203125 
L 47.40625 13.625 
L 42 0 
L 2.984375 0 
z
" id="Times-Roman-50"/>
       </defs>
       <use transform="translate(0 0.609375)" xlink:href="#Times-Roman-50"/>
       <use transform="translate(50 0.609375)" xlink:href="#Times-Roman-48"/>
      </g>
     </g>
    </g>
    <g id="xtick_4">
     <g id="line2d_7">
      <path clip-path="url(#p5b06b853c9)" d="M 237.57 223.274085 
L 237.57 43.605915 
" style="fill:none;stroke:#000000;stroke-linecap:square;stroke-opacity:0.1;stroke-width:0.5;"/>
     </g>
     <g id="line2d_8">
      <g>
       <use style="stroke:#000000;stroke-width:0.5;" x="237.57" xlink:href="#m61d3530112" y="223.274085"/>
      </g>
     </g>
     <g id="text_4">
      <!-- $\mathregular{30}$ -->
      <g transform="translate(228.57 239.115335)scale(0.18 -0.18)">
       <defs>
        <path d="M 7.765625 8.5 
Q 10.453125 8.5 14.859375 5.71875 
Q 19.28125 2.9375 22.359375 2.9375 
Q 29.203125 2.9375 32.515625 7.546875 
Q 35.84375 12.15625 35.84375 17.578125 
Q 35.84375 22.796875 33.15625 26.765625 
Q 28.609375 33.453125 17.828125 33.453125 
Q 17.1875 33.453125 16.59375 33.421875 
Q 16.015625 33.40625 15.234375 33.296875 
L 15.140625 34.578125 
Q 22.953125 37.40625 27.4375 41.0625 
Q 31.9375 44.734375 31.9375 50.734375 
Q 31.9375 56.0625 28.390625 58.84375 
Q 24.859375 61.625 20.3125 61.625 
Q 14.9375 61.625 10.84375 57.671875 
Q 8.59375 55.515625 6 51.03125 
L 4.5 51.375 
Q 6.453125 58.796875 11.765625 63.234375 
Q 17.09375 67.671875 24.078125 67.671875 
Q 31.546875 67.671875 35.625 63.5625 
Q 39.703125 59.46875 39.703125 54.109375 
Q 39.703125 49.359375 36.328125 45.40625 
Q 34.421875 43.171875 30.421875 40.375 
Q 35.109375 38.375 37.9375 35.6875 
Q 43.265625 30.5625 43.265625 22.703125 
Q 43.265625 13.421875 35.953125 6.34375 
Q 28.65625 -0.734375 15.1875 -0.734375 
Q 9.1875 -0.734375 6.765625 1.046875 
Q 4.34375 2.828125 4.34375 4.890625 
Q 4.34375 6.15625 5.140625 7.328125 
Q 5.953125 8.5 7.765625 8.5 
z
" id="Times-Roman-51"/>
       </defs>
       <use transform="translate(0 0.328125)" xlink:href="#Times-Roman-51"/>
       <use transform="translate(50 0.328125)" xlink:href="#Times-Roman-48"/>
      </g>
     </g>
    </g>
    <g id="xtick_5">
     <g id="line2d_9">
      <path clip-path="url(#p5b06b853c9)" d="M 291.700945 223.274085 
L 291.700945 43.605915 
" style="fill:none;stroke:#000000;stroke-linecap:square;stroke-opacity:0.1;stroke-width:0.5;"/>
     </g>
     <g id="line2d_10">
      <g>
       <use style="stroke:#000000;stroke-width:0.5;" x="291.700945" xlink:href="#m61d3530112" y="223.274085"/>
      </g>
     </g>
     <g id="text_5">
      <!-- $\mathregular{40}$ -->
      <g transform="translate(282.700945 239.115335)scale(0.18 -0.18)">
       <defs>
        <path d="M 29.15625 57.03125 
L 5.171875 23.140625 
L 29.15625 23.140625 
z
M 32.375 67.09375 
L 37.015625 67.09375 
L 37.015625 23.140625 
L 47.21875 23.140625 
L 47.21875 16.65625 
L 37.015625 16.65625 
L 37.015625 0 
L 29.25 0 
L 29.25 16.65625 
L 1.125 16.65625 
L 1.125 23.140625 
z
" id="Times-Roman-52"/>
       </defs>
       <use transform="translate(0 0.8125)" xlink:href="#Times-Roman-52"/>
       <use transform="translate(50 0.8125)" xlink:href="#Times-Roman-48"/>
      </g>
     </g>
    </g>
    <g id="xtick_6">
     <g id="line2d_11">
      <path clip-path="url(#p5b06b853c9)" d="M 345.83189 223.274085 
L 345.83189 43.605915 
" style="fill:none;stroke:#000000;stroke-linecap:square;stroke-opacity:0.1;stroke-width:0.5;"/>
     </g>
     <g id="line2d_12">
      <g>
       <use style="stroke:#000000;stroke-width:0.5;" x="345.83189" xlink:href="#m61d3530112" y="223.274085"/>
      </g>
     </g>
     <g id="text_6">
      <!-- $\mathregular{50}$ -->
      <g transform="translate(336.83189 239.115335)scale(0.18 -0.18)">
       <defs>
        <path d="M 7.46875 8.9375 
Q 10.25 8.9375 14.765625 5.78125 
Q 19.28125 2.640625 21.734375 2.640625 
Q 27.34375 2.640625 31.546875 7.59375 
Q 35.75 12.546875 35.75 19.78125 
Q 35.75 32.421875 22.265625 37.984375 
Q 14.796875 41.0625 8.34375 41.0625 
Q 7.28125 41.0625 7 41.140625 
Q 6.734375 41.21875 6.34375 41.65625 
Q 6.453125 42.046875 6.515625 42.3125 
Q 6.59375 42.578125 6.6875 42.828125 
L 17.328125 66.15625 
L 38.28125 66.15625 
Q 39.84375 66.15625 40.6875 66.6875 
Q 41.546875 67.234375 42.921875 68.703125 
L 43.703125 68.015625 
L 39.890625 58.984375 
Q 39.703125 58.546875 38.8125 58.421875 
Q 37.9375 58.296875 36.921875 58.296875 
L 18.015625 58.296875 
L 13.875 49.75 
Q 21.875 48.390625 25.59375 47.171875 
Q 31.6875 45.125 35.796875 41.109375 
Q 39.3125 37.640625 41.109375 33.3125 
Q 42.921875 29 42.921875 24.171875 
Q 42.921875 13.375 35.234375 6.140625 
Q 27.546875 -1.078125 15.765625 -1.078125 
Q 10.984375 -1.078125 8.0625 -0.140625 
Q 3.171875 1.375 3.171875 5.28125 
Q 3.171875 6.734375 4.21875 7.828125 
Q 5.28125 8.9375 7.46875 8.9375 
z
" id="Times-Roman-53"/>
       </defs>
       <use transform="translate(0 0.296875)" xlink:href="#Times-Roman-53"/>
       <use transform="translate(50 0.296875)" xlink:href="#Times-Roman-48"/>
      </g>
     </g>
    </g>
    <g id="xtick_7">
     <g id="line2d_13">
      <path clip-path="url(#p5b06b853c9)" d="M 399.962835 223.274085 
L 399.962835 43.605915 
" style="fill:none;stroke:#000000;stroke-linecap:square;stroke-opacity:0.1;stroke-width:0.5;"/>
     </g>
     <g id="line2d_14">
      <g>
       <use style="stroke:#000000;stroke-width:0.5;" x="399.962835" xlink:href="#m61d3530112" y="223.274085"/>
      </g>
     </g>
     <g id="text_7">
      <!-- $\mathregular{60}$ -->
      <g transform="translate(390.962835 239.115335)scale(0.18 -0.18)">
       <defs>
        <path d="M 46.78125 22.21875 
Q 46.78125 13.28125 41.03125 6.09375 
Q 35.296875 -1.078125 26.125 -1.078125 
Q 17.53125 -1.078125 10.46875 6.984375 
Q 3.421875 15.046875 3.421875 28.421875 
Q 3.421875 45.65625 17.09375 58.015625 
Q 29.296875 68.359375 44.53125 68.359375 
L 44.78125 66.75 
Q 38.671875 65.625 34.25 63.6875 
Q 29.828125 61.765625 26.375 58.296875 
Q 22.796875 54.78125 19.671875 49.359375 
Q 16.546875 43.953125 15.375 38.625 
Q 18.40625 40.484375 20.609375 41.359375 
Q 24.515625 42.921875 28.46875 42.921875 
Q 36.234375 42.921875 41.5 37.546875 
Q 46.78125 32.171875 46.78125 22.21875 
z
M 37.84375 18.453125 
Q 37.84375 24.953125 35.796875 29.984375 
Q 32.375 38.375 24.171875 38.375 
Q 16.609375 38.375 14.109375 33.890625 
Q 12.640625 31.25 12.640625 25.09375 
Q 12.640625 17.140625 16.03125 9.515625 
Q 19.4375 1.90625 26.765625 1.90625 
Q 32.5625 1.90625 35.203125 6.859375 
Q 37.84375 11.8125 37.84375 18.453125 
z
" id="Times-Roman-54"/>
       </defs>
       <use transform="translate(0 0.640625)" xlink:href="#Times-Roman-54"/>
       <use transform="translate(50 0.640625)" xlink:href="#Times-Roman-48"/>
      </g>
     </g>
    </g>
    <g id="text_8">
     <!-- SD Start Time ts [days] -->
     <g transform="translate(132.995625 260.713147)scale(0.18 -0.18)">
      <defs>
       <path d="M 53.515625 70.515625 
L 53.515625 60.890625 
Q 47.90625 63.578125 42.921875 64.890625 
Q 37.9375 66.21875 33.296875 66.21875 
Q 25.25 66.21875 20.875 63.09375 
Q 16.5 59.96875 16.5 54.203125 
Q 16.5 49.359375 19.40625 46.890625 
Q 22.3125 44.4375 30.421875 42.921875 
L 36.375 41.703125 
Q 47.40625 39.59375 52.65625 34.296875 
Q 57.90625 29 57.90625 20.125 
Q 57.90625 9.515625 50.796875 4.046875 
Q 43.703125 -1.421875 29.984375 -1.421875 
Q 24.8125 -1.421875 18.96875 -0.25 
Q 13.140625 0.921875 6.890625 3.21875 
L 6.890625 13.375 
Q 12.890625 10.015625 18.65625 8.296875 
Q 24.421875 6.59375 29.984375 6.59375 
Q 38.421875 6.59375 43.015625 9.90625 
Q 47.609375 13.234375 47.609375 19.390625 
Q 47.609375 24.75 44.3125 27.78125 
Q 41.015625 30.8125 33.5 32.328125 
L 27.484375 33.5 
Q 16.453125 35.6875 11.515625 40.375 
Q 6.59375 45.0625 6.59375 53.421875 
Q 6.59375 63.09375 13.40625 68.65625 
Q 20.21875 74.21875 32.171875 74.21875 
Q 37.3125 74.21875 42.625 73.28125 
Q 47.953125 72.359375 53.515625 70.515625 
z
" id="DejaVuSans-83"/>
       <path d="M 19.671875 64.796875 
L 19.671875 8.109375 
L 31.59375 8.109375 
Q 46.6875 8.109375 53.6875 14.9375 
Q 60.6875 21.78125 60.6875 36.53125 
Q 60.6875 51.171875 53.6875 57.984375 
Q 46.6875 64.796875 31.59375 64.796875 
z
M 9.8125 72.90625 
L 30.078125 72.90625 
Q 51.265625 72.90625 61.171875 64.09375 
Q 71.09375 55.28125 71.09375 36.53125 
Q 71.09375 17.671875 61.125 8.828125 
Q 51.171875 0 30.078125 0 
L 9.8125 0 
z
" id="DejaVuSans-68"/>
       <path id="DejaVuSans-32"/>
       <path d="M 18.3125 70.21875 
L 18.3125 54.6875 
L 36.8125 54.6875 
L 36.8125 47.703125 
L 18.3125 47.703125 
L 18.3125 18.015625 
Q 18.3125 11.328125 20.140625 9.421875 
Q 21.96875 7.515625 27.59375 7.515625 
L 36.8125 7.515625 
L 36.8125 0 
L 27.59375 0 
Q 17.1875 0 13.234375 3.875 
Q 9.28125 7.765625 9.28125 18.015625 
L 9.28125 47.703125 
L 2.6875 47.703125 
L 2.6875 54.6875 
L 9.28125 54.6875 
L 9.28125 70.21875 
z
" id="DejaVuSans-116"/>
       <path d="M 34.28125 27.484375 
Q 23.390625 27.484375 19.1875 25 
Q 14.984375 22.515625 14.984375 16.5 
Q 14.984375 11.71875 18.140625 8.90625 
Q 21.296875 6.109375 26.703125 6.109375 
Q 34.1875 6.109375 38.703125 11.40625 
Q 43.21875 16.703125 43.21875 25.484375 
L 43.21875 27.484375 
z
M 52.203125 31.203125 
L 52.203125 0 
L 43.21875 0 
L 43.21875 8.296875 
Q 40.140625 3.328125 35.546875 0.953125 
Q 30.953125 -1.421875 24.3125 -1.421875 
Q 15.921875 -1.421875 10.953125 3.296875 
Q 6 8.015625 6 15.921875 
Q 6 25.140625 12.171875 29.828125 
Q 18.359375 34.515625 30.609375 34.515625 
L 43.21875 34.515625 
L 43.21875 35.40625 
Q 43.21875 41.609375 39.140625 45 
Q 35.0625 48.390625 27.6875 48.390625 
Q 23 48.390625 18.546875 47.265625 
Q 14.109375 46.140625 10.015625 43.890625 
L 10.015625 52.203125 
Q 14.9375 54.109375 19.578125 55.046875 
Q 24.21875 56 28.609375 56 
Q 40.484375 56 46.34375 49.84375 
Q 52.203125 43.703125 52.203125 31.203125 
z
" id="DejaVuSans-97"/>
       <path d="M 41.109375 46.296875 
Q 39.59375 47.171875 37.8125 47.578125 
Q 36.03125 48 33.890625 48 
Q 26.265625 48 22.1875 43.046875 
Q 18.109375 38.09375 18.109375 28.8125 
L 18.109375 0 
L 9.078125 0 
L 9.078125 54.6875 
L 18.109375 54.6875 
L 18.109375 46.1875 
Q 20.953125 51.171875 25.484375 53.578125 
Q 30.03125 56 36.53125 56 
Q 37.453125 56 38.578125 55.875 
Q 39.703125 55.765625 41.0625 55.515625 
z
" id="DejaVuSans-114"/>
       <path d="M -0.296875 72.90625 
L 61.375 72.90625 
L 61.375 64.59375 
L 35.5 64.59375 
L 35.5 0 
L 25.59375 0 
L 25.59375 64.59375 
L -0.296875 64.59375 
z
" id="DejaVuSans-84"/>
       <path d="M 9.421875 54.6875 
L 18.40625 54.6875 
L 18.40625 0 
L 9.421875 0 
z
M 9.421875 75.984375 
L 18.40625 75.984375 
L 18.40625 64.59375 
L 9.421875 64.59375 
z
" id="DejaVuSans-105"/>
       <path d="M 52 44.1875 
Q 55.375 50.25 60.0625 53.125 
Q 64.75 56 71.09375 56 
Q 79.640625 56 84.28125 50.015625 
Q 88.921875 44.046875 88.921875 33.015625 
L 88.921875 0 
L 79.890625 0 
L 79.890625 32.71875 
Q 79.890625 40.578125 77.09375 44.375 
Q 74.3125 48.1875 68.609375 48.1875 
Q 61.625 48.1875 57.5625 43.546875 
Q 53.515625 38.921875 53.515625 30.90625 
L 53.515625 0 
L 44.484375 0 
L 44.484375 32.71875 
Q 44.484375 40.625 41.703125 44.40625 
Q 38.921875 48.1875 33.109375 48.1875 
Q 26.21875 48.1875 22.15625 43.53125 
Q 18.109375 38.875 18.109375 30.90625 
L 18.109375 0 
L 9.078125 0 
L 9.078125 54.6875 
L 18.109375 54.6875 
L 18.109375 46.1875 
Q 21.1875 51.21875 25.484375 53.609375 
Q 29.78125 56 35.6875 56 
Q 41.65625 56 45.828125 52.96875 
Q 50 49.953125 52 44.1875 
z
" id="DejaVuSans-109"/>
       <path d="M 56.203125 29.59375 
L 56.203125 25.203125 
L 14.890625 25.203125 
Q 15.484375 15.921875 20.484375 11.0625 
Q 25.484375 6.203125 34.421875 6.203125 
Q 39.59375 6.203125 44.453125 7.46875 
Q 49.3125 8.734375 54.109375 11.28125 
L 54.109375 2.78125 
Q 49.265625 0.734375 44.1875 -0.34375 
Q 39.109375 -1.421875 33.890625 -1.421875 
Q 20.796875 -1.421875 13.15625 6.1875 
Q 5.515625 13.8125 5.515625 26.8125 
Q 5.515625 40.234375 12.765625 48.109375 
Q 20.015625 56 32.328125 56 
Q 43.359375 56 49.78125 48.890625 
Q 56.203125 41.796875 56.203125 29.59375 
z
M 47.21875 32.234375 
Q 47.125 39.59375 43.09375 43.984375 
Q 39.0625 48.390625 32.421875 48.390625 
Q 24.90625 48.390625 20.390625 44.140625 
Q 15.875 39.890625 15.1875 32.171875 
z
" id="DejaVuSans-101"/>
       <path d="M 44.28125 53.078125 
L 44.28125 44.578125 
Q 40.484375 46.53125 36.375 47.5 
Q 32.28125 48.484375 27.875 48.484375 
Q 21.1875 48.484375 17.84375 46.4375 
Q 14.5 44.390625 14.5 40.28125 
Q 14.5 37.15625 16.890625 35.375 
Q 19.28125 33.59375 26.515625 31.984375 
L 29.59375 31.296875 
Q 39.15625 29.25 43.1875 25.515625 
Q 47.21875 21.78125 47.21875 15.09375 
Q 47.21875 7.46875 41.1875 3.015625 
Q 35.15625 -1.421875 24.609375 -1.421875 
Q 20.21875 -1.421875 15.453125 -0.5625 
Q 10.6875 0.296875 5.421875 2 
L 5.421875 11.28125 
Q 10.40625 8.6875 15.234375 7.390625 
Q 20.0625 6.109375 24.8125 6.109375 
Q 31.15625 6.109375 34.5625 8.28125 
Q 37.984375 10.453125 37.984375 14.40625 
Q 37.984375 18.0625 35.515625 20.015625 
Q 33.0625 21.96875 24.703125 23.78125 
L 21.578125 24.515625 
Q 13.234375 26.265625 9.515625 29.90625 
Q 5.8125 33.546875 5.8125 39.890625 
Q 5.8125 47.609375 11.28125 51.796875 
Q 16.75 56 26.8125 56 
Q 31.78125 56 36.171875 55.265625 
Q 40.578125 54.546875 44.28125 53.078125 
z
" id="DejaVuSans-115"/>
       <path d="M 8.59375 75.984375 
L 29.296875 75.984375 
L 29.296875 69 
L 17.578125 69 
L 17.578125 -6.203125 
L 29.296875 -6.203125 
L 29.296875 -13.1875 
L 8.59375 -13.1875 
z
" id="DejaVuSans-91"/>
       <path d="M 45.40625 46.390625 
L 45.40625 75.984375 
L 54.390625 75.984375 
L 54.390625 0 
L 45.40625 0 
L 45.40625 8.203125 
Q 42.578125 3.328125 38.25 0.953125 
Q 33.9375 -1.421875 27.875 -1.421875 
Q 17.96875 -1.421875 11.734375 6.484375 
Q 5.515625 14.40625 5.515625 27.296875 
Q 5.515625 40.1875 11.734375 48.09375 
Q 17.96875 56 27.875 56 
Q 33.9375 56 38.25 53.625 
Q 42.578125 51.265625 45.40625 46.390625 
z
M 14.796875 27.296875 
Q 14.796875 17.390625 18.875 11.75 
Q 22.953125 6.109375 30.078125 6.109375 
Q 37.203125 6.109375 41.296875 11.75 
Q 45.40625 17.390625 45.40625 27.296875 
Q 45.40625 37.203125 41.296875 42.84375 
Q 37.203125 48.484375 30.078125 48.484375 
Q 22.953125 48.484375 18.875 42.84375 
Q 14.796875 37.203125 14.796875 27.296875 
z
" id="DejaVuSans-100"/>
       <path d="M 32.171875 -5.078125 
Q 28.375 -14.84375 24.75 -17.8125 
Q 21.140625 -20.796875 15.09375 -20.796875 
L 7.90625 -20.796875 
L 7.90625 -13.28125 
L 13.1875 -13.28125 
Q 16.890625 -13.28125 18.9375 -11.515625 
Q 21 -9.765625 23.484375 -3.21875 
L 25.09375 0.875 
L 2.984375 54.6875 
L 12.5 54.6875 
L 29.59375 11.921875 
L 46.6875 54.6875 
L 56.203125 54.6875 
z
" id="DejaVuSans-121"/>
       <path d="M 30.421875 75.984375 
L 30.421875 -13.1875 
L 9.71875 -13.1875 
L 9.71875 -6.203125 
L 21.390625 -6.203125 
L 21.390625 69 
L 9.71875 69 
L 9.71875 75.984375 
z
" id="DejaVuSans-93"/>
      </defs>
      <use xlink:href="#DejaVuSans-83"/>
      <use x="63.476562" xlink:href="#DejaVuSans-68"/>
      <use x="140.478516" xlink:href="#DejaVuSans-32"/>
      <use x="172.265625" xlink:href="#DejaVuSans-83"/>
      <use x="235.742188" xlink:href="#DejaVuSans-116"/>
      <use x="274.951172" xlink:href="#DejaVuSans-97"/>
      <use x="336.230469" xlink:href="#DejaVuSans-114"/>
      <use x="377.34375" xlink:href="#DejaVuSans-116"/>
      <use x="416.552734" xlink:href="#DejaVuSans-32"/>
      <use x="448.339844" xlink:href="#DejaVuSans-84"/>
      <use x="506.298828" xlink:href="#DejaVuSans-105"/>
      <use x="534.082031" xlink:href="#DejaVuSans-109"/>
      <use x="631.494141" xlink:href="#DejaVuSans-101"/>
      <use x="693.017578" xlink:href="#DejaVuSans-32"/>
      <use x="724.804688" xlink:href="#DejaVuSans-116"/>
      <use x="764.013672" xlink:href="#DejaVuSans-115"/>
      <use x="816.113281" xlink:href="#DejaVuSans-32"/>
      <use x="847.900391" xlink:href="#DejaVuSans-91"/>
      <use x="886.914062" xlink:href="#DejaVuSans-100"/>
      <use x="950.390625" xlink:href="#DejaVuSans-97"/>
      <use x="1011.669922" xlink:href="#DejaVuSans-121"/>
      <use x="1070.849609" xlink:href="#DejaVuSans-115"/>
      <use x="1122.949219" xlink:href="#DejaVuSans-93"/>
     </g>
    </g>
   </g>
   <g id="matplotlib.axis_2">
    <g id="ytick_1">
     <g id="line2d_15">
      <path clip-path="url(#p5b06b853c9)" d="M 75.177165 223.274085 
L 399.962835 223.274085 
" style="fill:none;stroke:#000000;stroke-linecap:square;stroke-opacity:0.1;stroke-width:0.5;"/>
     </g>
     <g id="line2d_16">
      <defs>
       <path d="M 0 0 
L 2.5 0 
" id="m8194a7ec87" style="stroke:#000000;stroke-width:0.5;"/>
      </defs>
      <g>
       <use style="stroke:#000000;stroke-width:0.5;" x="75.177165" xlink:href="#m8194a7ec87" y="223.274085"/>
      </g>
     </g>
     <g id="text_9">
      <!-- $\mathregular{0}$ -->
      <g transform="translate(62.677165 229.44471)scale(0.18 -0.18)">
       <use transform="translate(0 0.8125)" xlink:href="#Times-Roman-48"/>
      </g>
     </g>
    </g>
    <g id="ytick_2">
     <g id="line2d_17">
      <path clip-path="url(#p5b06b853c9)" d="M 75.177165 163.384695 
L 399.962835 163.384695 
" style="fill:none;stroke:#000000;stroke-linecap:square;stroke-opacity:0.1;stroke-width:0.5;"/>
     </g>
     <g id="line2d_18">
      <g>
       <use style="stroke:#000000;stroke-width:0.5;" x="75.177165" xlink:href="#m8194a7ec87" y="163.384695"/>
      </g>
     </g>
     <g id="text_10">
      <!-- $\mathregular{50}$ -->
      <g transform="translate(53.677165 169.55532)scale(0.18 -0.18)">
       <use transform="translate(0 0.296875)" xlink:href="#Times-Roman-53"/>
       <use transform="translate(50 0.296875)" xlink:href="#Times-Roman-48"/>
      </g>
     </g>
    </g>
    <g id="ytick_3">
     <g id="line2d_19">
      <path clip-path="url(#p5b06b853c9)" d="M 75.177165 103.495305 
L 399.962835 103.495305 
" style="fill:none;stroke:#000000;stroke-linecap:square;stroke-opacity:0.1;stroke-width:0.5;"/>
     </g>
     <g id="line2d_20">
      <g>
       <use style="stroke:#000000;stroke-width:0.5;" x="75.177165" xlink:href="#m8194a7ec87" y="103.495305"/>
      </g>
     </g>
     <g id="text_11">
      <!-- $\mathregular{100}$ -->
      <g transform="translate(44.677165 109.66593)scale(0.18 -0.18)">
       <use transform="translate(0 0.8125)" xlink:href="#Times-Roman-49"/>
       <use transform="translate(50 0.8125)" xlink:href="#Times-Roman-48"/>
       <use transform="translate(100 0.8125)" xlink:href="#Times-Roman-48"/>
      </g>
     </g>
    </g>
    <g id="ytick_4">
     <g id="line2d_21">
      <path clip-path="url(#p5b06b853c9)" d="M 75.177165 43.605915 
L 399.962835 43.605915 
" style="fill:none;stroke:#000000;stroke-linecap:square;stroke-opacity:0.1;stroke-width:0.5;"/>
     </g>
     <g id="line2d_22">
      <g>
       <use style="stroke:#000000;stroke-width:0.5;" x="75.177165" xlink:href="#m8194a7ec87" y="43.605915"/>
      </g>
     </g>
     <g id="text_12">
      <!-- $\mathregular{150}$ -->
      <g transform="translate(44.677165 49.77654)scale(0.18 -0.18)">
       <use transform="translate(0 0.296875)" xlink:href="#Times-Roman-49"/>
       <use transform="translate(50 0.296875)" xlink:href="#Times-Roman-53"/>
       <use transform="translate(100 0.296875)" xlink:href="#Times-Roman-48"/>
      </g>
     </g>
    </g>
    <g id="text_13">
     <!-- SD Duration td [days] -->
     <g transform="translate(36.933728 231.261562)rotate(-90)scale(0.18 -0.18)">
      <defs>
       <path d="M 8.5 21.578125 
L 8.5 54.6875 
L 17.484375 54.6875 
L 17.484375 21.921875 
Q 17.484375 14.15625 20.5 10.265625 
Q 23.53125 6.390625 29.59375 6.390625 
Q 36.859375 6.390625 41.078125 11.03125 
Q 45.3125 15.671875 45.3125 23.6875 
L 45.3125 54.6875 
L 54.296875 54.6875 
L 54.296875 0 
L 45.3125 0 
L 45.3125 8.40625 
Q 42.046875 3.421875 37.71875 1 
Q 33.40625 -1.421875 27.6875 -1.421875 
Q 18.265625 -1.421875 13.375 4.4375 
Q 8.5 10.296875 8.5 21.578125 
z
M 31.109375 56 
z
" id="DejaVuSans-117"/>
       <path d="M 30.609375 48.390625 
Q 23.390625 48.390625 19.1875 42.75 
Q 14.984375 37.109375 14.984375 27.296875 
Q 14.984375 17.484375 19.15625 11.84375 
Q 23.34375 6.203125 30.609375 6.203125 
Q 37.796875 6.203125 41.984375 11.859375 
Q 46.1875 17.53125 46.1875 27.296875 
Q 46.1875 37.015625 41.984375 42.703125 
Q 37.796875 48.390625 30.609375 48.390625 
z
M 30.609375 56 
Q 42.328125 56 49.015625 48.375 
Q 55.71875 40.765625 55.71875 27.296875 
Q 55.71875 13.875 49.015625 6.21875 
Q 42.328125 -1.421875 30.609375 -1.421875 
Q 18.84375 -1.421875 12.171875 6.21875 
Q 5.515625 13.875 5.515625 27.296875 
Q 5.515625 40.765625 12.171875 48.375 
Q 18.84375 56 30.609375 56 
z
" id="DejaVuSans-111"/>
       <path d="M 54.890625 33.015625 
L 54.890625 0 
L 45.90625 0 
L 45.90625 32.71875 
Q 45.90625 40.484375 42.875 44.328125 
Q 39.84375 48.1875 33.796875 48.1875 
Q 26.515625 48.1875 22.3125 43.546875 
Q 18.109375 38.921875 18.109375 30.90625 
L 18.109375 0 
L 9.078125 0 
L 9.078125 54.6875 
L 18.109375 54.6875 
L 18.109375 46.1875 
Q 21.34375 51.125 25.703125 53.5625 
Q 30.078125 56 35.796875 56 
Q 45.21875 56 50.046875 50.171875 
Q 54.890625 44.34375 54.890625 33.015625 
z
" id="DejaVuSans-110"/>
      </defs>
      <use xlink:href="#DejaVuSans-83"/>
      <use x="63.476562" xlink:href="#DejaVuSans-68"/>
      <use x="140.478516" xlink:href="#DejaVuSans-32"/>
      <use x="172.265625" xlink:href="#DejaVuSans-68"/>
      <use x="249.267578" xlink:href="#DejaVuSans-117"/>
      <use x="312.646484" xlink:href="#DejaVuSans-114"/>
      <use x="353.759766" xlink:href="#DejaVuSans-97"/>
      <use x="415.039062" xlink:href="#DejaVuSans-116"/>
      <use x="454.248047" xlink:href="#DejaVuSans-105"/>
      <use x="482.03125" xlink:href="#DejaVuSans-111"/>
      <use x="543.212891" xlink:href="#DejaVuSans-110"/>
      <use x="606.591797" xlink:href="#DejaVuSans-32"/>
      <use x="638.378906" xlink:href="#DejaVuSans-116"/>
      <use x="677.587891" xlink:href="#DejaVuSans-100"/>
      <use x="741.064453" xlink:href="#DejaVuSans-32"/>
      <use x="772.851562" xlink:href="#DejaVuSans-91"/>
      <use x="811.865234" xlink:href="#DejaVuSans-100"/>
      <use x="875.341797" xlink:href="#DejaVuSans-97"/>
      <use x="936.621094" xlink:href="#DejaVuSans-121"/>
      <use x="995.800781" xlink:href="#DejaVuSans-115"/>
      <use x="1047.900391" xlink:href="#DejaVuSans-93"/>
     </g>
    </g>
   </g>
   <g id="LineCollection_1">
    <path clip-path="url(#p5b06b853c9)" d="M 225.436697 43.605915 
L 225.436697 44.803703 
L 225.436697 46.001491 
L 225.436697 47.199279 
L 225.436697 48.397067 
L 225.436697 49.594854 
L 225.436697 50.792642 
L 225.436697 51.99043 
L 225.436697 53.188218 
L 225.436697 54.386006 
L 225.436697 55.583793 
L 225.436697 55.958102 
" style="fill:none;stroke:#e5e5ff;"/>
    <path clip-path="url(#p5b06b853c9)" d="M 225.436697 79.165241 
L 225.436697 174.164785 
L 225.22706 175.362573 
L 221.330717 176.150016 
L 219.966924 175.362573 
L 218.796975 174.164785 
L 215.714096 172.966997 
L 202.100181 164.582483 
L 194.265244 159.566466 
L 96.829543 94.681107 
L 80.060632 83.132913 
L 75.177165 79.480576 
L 75.177165 79.480576 
" style="fill:none;stroke:#e5e5ff;"/>
   </g>
   <g id="LineCollection_2">
    <path clip-path="url(#p5b06b853c9)" d="M 240.184501 43.605915 
L 240.184501 44.803703 
L 240.184501 46.001491 
L 240.184501 47.199279 
L 240.184501 48.397067 
L 240.184501 49.594854 
L 240.184501 50.792642 
L 240.184501 51.99043 
L 240.184501 53.188218 
L 240.184501 54.386006 
L 240.184501 55.583793 
L 240.184501 56.781581 
L 240.184501 57.979369 
L 240.184501 59.177157 
L 240.184501 60.374944 
L 240.184501 61.572732 
L 240.184501 62.77052 
L 240.184501 63.968308 
L 240.184501 65.166096 
L 240.184501 66.363883 
L 240.184501 67.561671 
L 240.184501 68.759459 
L 240.184501 69.957247 
L 240.184501 71.155035 
L 240.184501 72.352822 
L 240.184501 73.55061 
L 240.184501 74.748398 
L 240.184501 75.946186 
L 240.184501 77.143974 
L 240.184501 78.341761 
L 240.184501 79.539549 
L 240.184501 80.737337 
L 240.184501 81.935125 
L 240.184501 83.132913 
L 240.184501 84.3307 
L 240.184501 85.528488 
L 240.184501 86.726276 
L 240.184501 87.924064 
L 240.184501 89.121852 
L 240.184501 90.319639 
L 240.184501 91.517427 
L 240.184501 92.715215 
L 240.184501 93.913003 
L 240.184501 95.110791 
L 240.184501 96.308578 
L 240.184501 97.506366 
L 240.184501 98.704154 
L 240.184501 99.901942 
L 240.184501 101.09973 
L 240.184501 102.297517 
L 240.184501 103.495305 
L 240.184501 104.693093 
L 240.184501 105.067402 
" style="fill:none;stroke:#c9c9ff;"/>
    <path clip-path="url(#p5b06b853c9)" d="M 240.184501 128.27454 
L 240.184501 187.340451 
L 238.005309 188.538239 
L 237.57 188.63797 
L 231.628745 186.142663 
L 224.380237 182.5493 
L 219.94685 180.153724 
L 211.742738 175.362573 
L 207.84098 172.966997 
L 199.678339 167.831592 
L 176.474643 152.604605 
L 95.729662 98.704154 
L 81.763924 89.121852 
L 78.498156 86.726276 
L 75.177165 84.249306 
L 75.177165 84.249306 
" style="fill:none;stroke:#c9c9ff;"/>
   </g>
   <g id="LineCollection_3">
    <path clip-path="url(#p5b06b853c9)" d="M 250.273274 43.605915 
L 250.273274 44.803703 
L 250.273274 46.001491 
L 250.273274 47.199279 
L 250.273274 48.397067 
L 250.273274 49.594854 
L 250.273274 50.792642 
L 250.273274 51.99043 
L 250.273274 53.188218 
L 250.273274 54.386006 
L 250.273274 55.583793 
L 250.273274 56.781581 
L 250.273274 57.979369 
L 250.273274 59.177157 
L 250.273274 60.374944 
L 250.273274 61.572732 
L 250.273274 62.77052 
L 250.273274 63.968308 
L 250.273274 65.166096 
L 250.273274 66.363883 
L 250.273274 67.561671 
L 250.273274 68.759459 
L 250.273274 69.957247 
L 250.273274 71.155035 
L 250.273274 72.352822 
L 250.273274 73.55061 
L 250.273274 74.748398 
L 250.273274 75.946186 
L 250.273274 77.143974 
L 250.273274 78.341761 
L 250.273274 79.539549 
L 250.273274 80.737337 
L 250.273274 81.935125 
L 250.273274 83.132913 
L 250.273274 84.3307 
L 250.273274 85.528488 
L 250.273274 86.726276 
L 250.273274 87.924064 
L 250.273274 89.121852 
L 250.273274 90.319639 
L 250.273274 91.517427 
L 250.273274 92.715215 
L 250.273274 93.913003 
L 250.273274 95.110791 
L 250.273274 96.308578 
L 250.273274 97.506366 
L 250.273274 98.704154 
L 250.273274 99.901942 
L 250.273274 101.09973 
L 250.273274 102.297517 
L 250.273274 103.495305 
L 250.273274 104.693093 
L 250.273274 105.890881 
L 250.273274 107.088669 
L 250.273274 108.286456 
L 250.273274 109.484244 
L 250.273274 110.682032 
L 250.273274 111.87982 
L 250.273274 113.077607 
L 250.273274 114.275395 
L 250.273274 115.473183 
L 250.273274 116.670971 
L 250.273274 117.868759 
L 250.273274 119.066546 
L 250.273274 120.264334 
L 250.273274 121.462122 
L 250.273274 122.65991 
L 250.273274 123.857698 
L 250.273274 125.055485 
L 250.273274 126.253273 
L 250.273274 127.451061 
L 250.273274 128.648849 
L 250.273274 129.846637 
L 250.273274 131.044424 
L 250.273274 132.242212 
L 250.273274 133.44 
L 250.273274 134.637788 
L 250.273274 135.835576 
L 250.273274 137.033363 
L 250.273274 138.231151 
L 250.273274 139.428939 
L 250.273274 140.626727 
L 250.273274 141.824515 
L 250.273274 143.022302 
L 250.273274 144.22009 
L 250.273274 145.417878 
L 250.273274 146.615666 
L 250.273274 147.813454 
L 250.273274 149.011241 
L 250.273274 150.209029 
L 250.273274 151.406817 
L 250.273274 152.604605 
L 250.273274 153.802393 
L 250.273274 154.176701 
" style="fill:none;stroke:#adadff;"/>
    <path clip-path="url(#p5b06b853c9)" d="M 250.273274 177.38384 
L 250.273274 194.527178 
L 250.087985 195.724965 
L 248.396189 196.550362 
L 241.395473 194.527178 
L 237.57 193.198552 
L 232.156906 190.930577 
L 224.858085 187.340451 
L 218.27508 183.747087 
L 212.129484 180.153724 
L 205.091433 175.841387 
L 193.121377 168.175846 
L 172.612866 154.655041 
L 123.895016 122.161075 
L 88.903824 98.704154 
L 80.312197 92.715215 
L 75.177165 88.865269 
L 75.177165 88.865269 
" style="fill:none;stroke:#adadff;"/>
   </g>
   <g id="LineCollection_4">
    <path clip-path="url(#p5b06b853c9)" d="M 258.687807 43.605915 
L 258.687807 44.803703 
L 258.687807 46.001491 
L 258.687807 47.199279 
L 258.687807 48.397067 
L 258.687807 49.594854 
L 258.687807 50.792642 
L 258.687807 51.99043 
L 258.687807 53.188218 
L 258.687807 54.386006 
L 258.687807 55.583793 
L 258.687807 55.958102 
" style="fill:none;stroke:#9191ff;"/>
    <path clip-path="url(#p5b06b853c9)" d="M 258.687807 79.165241 
L 258.687807 199.318329 
L 258.355696 200.516117 
L 256.568571 201.713904 
L 253.809283 202.00386 
L 246.999547 200.516117 
L 242.740564 199.318329 
L 236.139702 196.922753 
L 230.574974 194.527178 
L 225.615081 192.131602 
L 218.884812 188.538239 
L 212.638821 184.944875 
L 204.759279 180.153724 
L 194.265244 173.4812 
L 183.439055 166.412762 
L 169.798911 157.395756 
L 83.938976 99.901942 
L 78.932578 96.308578 
L 75.177165 93.479956 
L 75.177165 93.479956 
" style="fill:none;stroke:#9191ff;"/>
   </g>
   <g id="LineCollection_5">
    <path clip-path="url(#p5b06b853c9)" d="M 266.362617 43.605915 
L 266.362617 205.307268 
L 266.19112 206.505056 
L 264.635472 207.329116 
L 259.222378 206.895408 
L 253.809283 206.134713 
L 248.396189 205.023402 
L 242.983094 203.550236 
L 237.555276 201.713904 
L 231.63213 199.318329 
L 226.429125 196.922753 
L 219.439286 193.32939 
L 213.026626 189.736026 
L 203.059422 183.747087 
L 191.720798 176.560361 
L 168.036083 160.989119 
L 156.373583 153.223091 
L 148.219735 147.813454 
L 135.796537 139.514394 
L 135.796537 139.514394 
" style="fill:none;stroke:#7676ff;"/>
    <path clip-path="url(#p5b06b853c9)" d="M 114.005466 124.968285 
L 113.068827 124.33134 
L 112.34328 123.857698 
L 110.529587 122.65991 
L 108.753325 121.462122 
L 107.655732 120.715348 
L 106.965488 120.264334 
L 105.152826 119.066546 
L 103.377697 117.868759 
L 102.242638 117.095587 
L 101.594272 116.670971 
L 99.784934 115.473183 
L 98.013227 114.275395 
L 96.829543 113.467089 
L 96.2379 113.077607 
L 94.436932 111.87982 
L 92.673753 110.682032 
L 91.416449 109.818514 
L 90.914683 109.484244 
L 89.133307 108.286456 
L 87.390285 107.088669 
L 86.003354 106.123583 
L 85.663413 105.890881 
L 83.92697 104.693093 
L 82.229102 103.495305 
L 80.59026 102.320246 
L 80.559046 102.297517 
L 78.920572 101.09973 
L 77.321396 99.901942 
L 75.750899 98.704154 
L 75.177165 98.265271 
" style="fill:none;stroke:#7676ff;"/>
   </g>
   <g id="LineCollection_6">
    <path clip-path="url(#p5b06b853c9)" d="M 273.797041 43.605915 
L 273.797041 44.803703 
L 273.797041 46.001491 
L 273.797041 47.199279 
L 273.797041 48.397067 
L 273.797041 49.594854 
L 273.797041 50.792642 
L 273.797041 51.99043 
L 273.797041 53.188218 
L 273.797041 54.386006 
L 273.797041 55.583793 
L 273.797041 56.781581 
L 273.797041 57.979369 
L 273.797041 59.177157 
L 273.797041 60.374944 
L 273.797041 61.572732 
L 273.797041 62.77052 
L 273.797041 63.968308 
L 273.797041 65.166096 
L 273.797041 66.363883 
L 273.797041 67.561671 
L 273.797041 68.759459 
L 273.797041 69.957247 
L 273.797041 71.155035 
L 273.797041 72.352822 
L 273.797041 73.55061 
L 273.797041 74.748398 
L 273.797041 75.946186 
L 273.797041 77.143974 
L 273.797041 78.341761 
L 273.797041 79.539549 
L 273.797041 80.737337 
L 273.797041 81.935125 
L 273.797041 83.132913 
L 273.797041 84.3307 
L 273.797041 85.528488 
L 273.797041 86.726276 
L 273.797041 87.924064 
L 273.797041 89.121852 
L 273.797041 90.319639 
L 273.797041 91.517427 
L 273.797041 92.715215 
L 273.797041 93.913003 
L 273.797041 95.110791 
L 273.797041 96.308578 
L 273.797041 97.506366 
L 273.797041 98.704154 
L 273.797041 99.901942 
L 273.797041 101.09973 
L 273.797041 102.297517 
L 273.797041 103.495305 
L 273.797041 104.693093 
L 273.797041 105.067402 
" style="fill:none;stroke:#5a5aff;"/>
    <path clip-path="url(#p5b06b853c9)" d="M 273.797041 128.27454 
L 273.797041 208.900631 
L 273.40018 210.098419 
L 271.261314 211.296207 
L 270.048567 211.549119 
L 264.429026 211.296207 
L 259.222378 210.837363 
L 253.809283 210.090148 
L 247.830961 208.900631 
L 242.983094 207.665428 
L 235.76328 205.307268 
L 229.717388 202.911692 
L 224.422337 200.516117 
L 217.331799 196.922753 
L 208.761056 192.131602 
L 200.796657 187.340451 
L 180.139418 174.164785 
L 172.612866 169.180863 
L 165.604171 164.582483 
L 140.443719 147.813454 
L 134.721205 143.99088 
L 127.831301 139.428939 
L 99.133721 120.264334 
L 78.326083 105.890881 
L 75.177165 103.473664 
L 75.177165 103.473664 
" style="fill:none;stroke:#5a5aff;"/>
   </g>
   <g id="LineCollection_7">
    <path clip-path="url(#p5b06b853c9)" d="M 281.101472 43.605915 
L 281.101472 44.803703 
L 281.101472 46.001491 
L 281.101472 47.199279 
L 281.101472 48.397067 
L 281.101472 49.594854 
L 281.101472 50.792642 
L 281.101472 51.99043 
L 281.101472 53.188218 
L 281.101472 54.386006 
L 281.101472 55.583793 
L 281.101472 56.781581 
L 281.101472 57.979369 
L 281.101472 59.177157 
L 281.101472 60.374944 
L 281.101472 61.572732 
L 281.101472 62.77052 
L 281.101472 63.968308 
L 281.101472 65.166096 
L 281.101472 66.363883 
L 281.101472 67.561671 
L 281.101472 68.759459 
L 281.101472 69.957247 
L 281.101472 71.155035 
L 281.101472 72.352822 
L 281.101472 73.55061 
L 281.101472 74.748398 
L 281.101472 75.946186 
L 281.101472 77.143974 
L 281.101472 78.341761 
L 281.101472 79.539549 
L 281.101472 80.737337 
L 281.101472 81.935125 
L 281.101472 83.132913 
L 281.101472 84.3307 
L 281.101472 85.528488 
L 281.101472 86.726276 
L 281.101472 87.924064 
L 281.101472 89.121852 
L 281.101472 90.319639 
L 281.101472 91.517427 
L 281.101472 92.715215 
L 281.101472 93.913003 
L 281.101472 95.110791 
L 281.101472 96.308578 
L 281.101472 97.506366 
L 281.101472 98.704154 
L 281.101472 99.901942 
L 281.101472 101.09973 
L 281.101472 102.297517 
L 281.101472 103.495305 
L 281.101472 104.693093 
L 281.101472 105.890881 
L 281.101472 107.088669 
L 281.101472 108.286456 
L 281.101472 109.484244 
L 281.101472 110.682032 
L 281.101472 111.87982 
L 281.101472 113.077607 
L 281.101472 114.275395 
L 281.101472 115.473183 
L 281.101472 116.670971 
L 281.101472 117.868759 
L 281.101472 119.066546 
L 281.101472 120.264334 
L 281.101472 121.462122 
L 281.101472 122.65991 
L 281.101472 123.857698 
L 281.101472 125.055485 
L 281.101472 126.253273 
L 281.101472 127.451061 
L 281.101472 128.648849 
L 281.101472 129.846637 
L 281.101472 131.044424 
L 281.101472 132.242212 
L 281.101472 133.44 
L 281.101472 134.637788 
L 281.101472 135.835576 
L 281.101472 137.033363 
L 281.101472 138.231151 
L 281.101472 139.428939 
L 281.101472 140.626727 
L 281.101472 141.824515 
L 281.101472 143.022302 
L 281.101472 144.22009 
L 281.101472 145.417878 
L 281.101472 146.615666 
L 281.101472 147.813454 
L 281.101472 149.011241 
L 281.101472 150.209029 
L 281.101472 151.406817 
L 281.101472 152.604605 
L 281.101472 153.802393 
L 281.101472 154.176701 
" style="fill:none;stroke:#3e3eff;"/>
    <path clip-path="url(#p5b06b853c9)" d="M 281.101472 177.38384 
L 281.101472 214.88957 
L 280.874756 215.084741 
L 275.461661 215.444542 
L 270.048567 215.340488 
L 262.174859 214.88957 
L 259.222378 214.647724 
L 251.956515 213.691782 
L 248.396189 213.086695 
L 242.983094 211.901445 
L 236.555235 210.098419 
L 229.681367 207.702843 
L 223.875273 205.307268 
L 216.339817 201.713904 
L 207.35045 196.922753 
L 193.304525 188.538239 
L 185.664105 183.747087 
L 178.025961 178.766521 
L 174.551356 176.560361 
L 170.896607 174.164785 
L 152.77089 162.186907 
L 149.165261 159.791331 
L 102.540869 128.648849 
L 100.688306 127.451061 
L 88.247012 119.066546 
L 76.525807 110.682032 
L 75.177165 109.609218 
L 75.177165 109.609218 
" style="fill:none;stroke:#3e3eff;"/>
   </g>
   <g id="patch_3">
    <path d="M 75.177165 223.274085 
L 75.177165 43.605915 
" style="fill:none;stroke:#000000;stroke-linecap:square;stroke-linejoin:miter;"/>
   </g>
   <g id="patch_4">
    <path d="M 75.177165 223.274085 
L 399.962835 223.274085 
" style="fill:none;stroke:#000000;stroke-linecap:square;stroke-linejoin:miter;"/>
   </g>
   <g id="text_14">
    <g clip-path="url(#p5b06b853c9)">
     <!-- 0.375 -->
     <g style="fill:#e5e5ff;" transform="translate(222.677322 53.247609)rotate(-270)scale(0.1 -0.1)">
      <defs>
       <path d="M 31.78125 66.40625 
Q 24.171875 66.40625 20.328125 58.90625 
Q 16.5 51.421875 16.5 36.375 
Q 16.5 21.390625 20.328125 13.890625 
Q 24.171875 6.390625 31.78125 6.390625 
Q 39.453125 6.390625 43.28125 13.890625 
Q 47.125 21.390625 47.125 36.375 
Q 47.125 51.421875 43.28125 58.90625 
Q 39.453125 66.40625 31.78125 66.40625 
z
M 31.78125 74.21875 
Q 44.046875 74.21875 50.515625 64.515625 
Q 56.984375 54.828125 56.984375 36.375 
Q 56.984375 17.96875 50.515625 8.265625 
Q 44.046875 -1.421875 31.78125 -1.421875 
Q 19.53125 -1.421875 13.0625 8.265625 
Q 6.59375 17.96875 6.59375 36.375 
Q 6.59375 54.828125 13.0625 64.515625 
Q 19.53125 74.21875 31.78125 74.21875 
z
" id="DejaVuSans-48"/>
       <path d="M 10.6875 12.40625 
L 21 12.40625 
L 21 0 
L 10.6875 0 
z
" id="DejaVuSans-46"/>
       <path d="M 40.578125 39.3125 
Q 47.65625 37.796875 51.625 33 
Q 55.609375 28.21875 55.609375 21.1875 
Q 55.609375 10.40625 48.1875 4.484375 
Q 40.765625 -1.421875 27.09375 -1.421875 
Q 22.515625 -1.421875 17.65625 -0.515625 
Q 12.796875 0.390625 7.625 2.203125 
L 7.625 11.71875 
Q 11.71875 9.328125 16.59375 8.109375 
Q 21.484375 6.890625 26.8125 6.890625 
Q 36.078125 6.890625 40.9375 10.546875 
Q 45.796875 14.203125 45.796875 21.1875 
Q 45.796875 27.640625 41.28125 31.265625 
Q 36.765625 34.90625 28.71875 34.90625 
L 20.21875 34.90625 
L 20.21875 43.015625 
L 29.109375 43.015625 
Q 36.375 43.015625 40.234375 45.921875 
Q 44.09375 48.828125 44.09375 54.296875 
Q 44.09375 59.90625 40.109375 62.90625 
Q 36.140625 65.921875 28.71875 65.921875 
Q 24.65625 65.921875 20.015625 65.03125 
Q 15.375 64.15625 9.8125 62.3125 
L 9.8125 71.09375 
Q 15.4375 72.65625 20.34375 73.4375 
Q 25.25 74.21875 29.59375 74.21875 
Q 40.828125 74.21875 47.359375 69.109375 
Q 53.90625 64.015625 53.90625 55.328125 
Q 53.90625 49.265625 50.4375 45.09375 
Q 46.96875 40.921875 40.578125 39.3125 
z
" id="DejaVuSans-51"/>
       <path d="M 8.203125 72.90625 
L 55.078125 72.90625 
L 55.078125 68.703125 
L 28.609375 0 
L 18.3125 0 
L 43.21875 64.59375 
L 8.203125 64.59375 
z
" id="DejaVuSans-55"/>
       <path d="M 10.796875 72.90625 
L 49.515625 72.90625 
L 49.515625 64.59375 
L 19.828125 64.59375 
L 19.828125 46.734375 
Q 21.96875 47.46875 24.109375 47.828125 
Q 26.265625 48.1875 28.421875 48.1875 
Q 40.625 48.1875 47.75 41.5 
Q 54.890625 34.8125 54.890625 23.390625 
Q 54.890625 11.625 47.5625 5.09375 
Q 40.234375 -1.421875 26.90625 -1.421875 
Q 22.3125 -1.421875 17.546875 -0.640625 
Q 12.796875 0.140625 7.71875 1.703125 
L 7.71875 11.625 
Q 12.109375 9.234375 16.796875 8.0625 
Q 21.484375 6.890625 26.703125 6.890625 
Q 35.15625 6.890625 40.078125 11.328125 
Q 45.015625 15.765625 45.015625 23.390625 
Q 45.015625 31 40.078125 35.4375 
Q 35.15625 39.890625 26.703125 39.890625 
Q 22.75 39.890625 18.8125 39.015625 
Q 14.890625 38.140625 10.796875 36.28125 
z
" id="DejaVuSans-53"/>
      </defs>
      <use xlink:href="#DejaVuSans-48"/>
      <use x="63.623047" xlink:href="#DejaVuSans-46"/>
      <use x="95.410156" xlink:href="#DejaVuSans-51"/>
      <use x="159.033203" xlink:href="#DejaVuSans-55"/>
      <use x="222.65625" xlink:href="#DejaVuSans-53"/>
     </g>
    </g>
   </g>
   <g id="text_15">
    <g clip-path="url(#p5b06b853c9)">
     <!-- 0.400 -->
     <g style="fill:#c9c9ff;" transform="translate(237.425126 102.356908)rotate(-270)scale(0.1 -0.1)">
      <defs>
       <path d="M 37.796875 64.3125 
L 12.890625 25.390625 
L 37.796875 25.390625 
z
M 35.203125 72.90625 
L 47.609375 72.90625 
L 47.609375 25.390625 
L 58.015625 25.390625 
L 58.015625 17.1875 
L 47.609375 17.1875 
L 47.609375 0 
L 37.796875 0 
L 37.796875 17.1875 
L 4.890625 17.1875 
L 4.890625 26.703125 
z
" id="DejaVuSans-52"/>
      </defs>
      <use xlink:href="#DejaVuSans-48"/>
      <use x="63.623047" xlink:href="#DejaVuSans-46"/>
      <use x="95.410156" xlink:href="#DejaVuSans-52"/>
      <use x="159.033203" xlink:href="#DejaVuSans-48"/>
      <use x="222.65625" xlink:href="#DejaVuSans-48"/>
     </g>
    </g>
   </g>
   <g id="text_16">
    <g clip-path="url(#p5b06b853c9)">
     <!-- 0.425 -->
     <g style="fill:#adadff;" transform="translate(247.513899 151.466208)rotate(-270)scale(0.1 -0.1)">
      <defs>
       <path d="M 19.1875 8.296875 
L 53.609375 8.296875 
L 53.609375 0 
L 7.328125 0 
L 7.328125 8.296875 
Q 12.9375 14.109375 22.625 23.890625 
Q 32.328125 33.6875 34.8125 36.53125 
Q 39.546875 41.84375 41.421875 45.53125 
Q 43.3125 49.21875 43.3125 52.78125 
Q 43.3125 58.59375 39.234375 62.25 
Q 35.15625 65.921875 28.609375 65.921875 
Q 23.96875 65.921875 18.8125 64.3125 
Q 13.671875 62.703125 7.8125 59.421875 
L 7.8125 69.390625 
Q 13.765625 71.78125 18.9375 73 
Q 24.125 74.21875 28.421875 74.21875 
Q 39.75 74.21875 46.484375 68.546875 
Q 53.21875 62.890625 53.21875 53.421875 
Q 53.21875 48.921875 51.53125 44.890625 
Q 49.859375 40.875 45.40625 35.40625 
Q 44.1875 33.984375 37.640625 27.21875 
Q 31.109375 20.453125 19.1875 8.296875 
z
" id="DejaVuSans-50"/>
      </defs>
      <use xlink:href="#DejaVuSans-48"/>
      <use x="63.623047" xlink:href="#DejaVuSans-46"/>
      <use x="95.410156" xlink:href="#DejaVuSans-52"/>
      <use x="159.033203" xlink:href="#DejaVuSans-50"/>
      <use x="222.65625" xlink:href="#DejaVuSans-53"/>
     </g>
    </g>
   </g>
   <g id="text_17">
    <g clip-path="url(#p5b06b853c9)">
     <!-- 0.450 -->
     <g style="fill:#9191ff;" transform="translate(255.928432 53.247609)rotate(-270)scale(0.1 -0.1)">
      <use xlink:href="#DejaVuSans-48"/>
      <use x="63.623047" xlink:href="#DejaVuSans-46"/>
      <use x="95.410156" xlink:href="#DejaVuSans-52"/>
      <use x="159.033203" xlink:href="#DejaVuSans-53"/>
      <use x="222.65625" xlink:href="#DejaVuSans-48"/>
     </g>
    </g>
   </g>
   <g id="text_18">
    <g clip-path="url(#p5b06b853c9)">
     <!-- 0.475 -->
     <g style="fill:#7676ff;" transform="translate(112.014588 125.425412)rotate(-321.208716)scale(0.1 -0.1)">
      <use xlink:href="#DejaVuSans-48"/>
      <use x="63.623047" xlink:href="#DejaVuSans-46"/>
      <use x="95.410156" xlink:href="#DejaVuSans-52"/>
      <use x="159.033203" xlink:href="#DejaVuSans-55"/>
      <use x="222.65625" xlink:href="#DejaVuSans-53"/>
     </g>
    </g>
   </g>
   <g id="text_19">
    <g clip-path="url(#p5b06b853c9)">
     <!-- 0.500 -->
     <g style="fill:#5a5aff;" transform="translate(271.037666 102.356908)rotate(-270)scale(0.1 -0.1)">
      <use xlink:href="#DejaVuSans-48"/>
      <use x="63.623047" xlink:href="#DejaVuSans-46"/>
      <use x="95.410156" xlink:href="#DejaVuSans-53"/>
      <use x="159.033203" xlink:href="#DejaVuSans-48"/>
      <use x="222.65625" xlink:href="#DejaVuSans-48"/>
     </g>
    </g>
   </g>
   <g id="text_20">
    <g clip-path="url(#p5b06b853c9)">
     <!-- 0.525 -->
     <g style="fill:#3e3eff;" transform="translate(278.342097 151.466208)rotate(-270)scale(0.1 -0.1)">
      <use xlink:href="#DejaVuSans-48"/>
      <use x="63.623047" xlink:href="#DejaVuSans-46"/>
      <use x="95.410156" xlink:href="#DejaVuSans-53"/>
      <use x="159.033203" xlink:href="#DejaVuSans-50"/>
      <use x="222.65625" xlink:href="#DejaVuSans-53"/>
     </g>
    </g>
   </g>
   <g id="text_21">
    <!-- Max(I+D+A+R+T) -->
    <g transform="translate(151.661719 37.605915)scale(0.22 -0.22)">
     <defs>
      <path d="M 1.125 1.8125 
Q 7.328125 2.4375 9.078125 4.609375 
Q 10.84375 6.78125 10.84375 14.703125 
L 10.84375 55.328125 
Q 10.84375 60.75 9.125 62.375 
Q 7.421875 64.015625 1.375 64.3125 
L 1.375 66.15625 
L 21.140625 66.15625 
L 44.28125 15.71875 
L 66.40625 66.15625 
L 86.328125 66.15625 
L 86.328125 64.3125 
Q 80.765625 63.921875 79.15625 62.28125 
Q 77.546875 60.640625 77.546875 55.328125 
L 77.546875 10.84375 
Q 77.546875 5.375 79.15625 3.828125 
Q 80.765625 2.296875 86.328125 1.8125 
L 86.328125 0 
L 58.296875 0 
L 58.296875 1.8125 
Q 64.359375 2.296875 65.84375 3.984375 
Q 67.328125 5.671875 67.328125 12.015625 
L 67.328125 56.9375 
L 41.75 0 
L 40.375 0 
L 15.234375 54.59375 
L 15.234375 14.703125 
Q 15.234375 6.5 17.625 4 
Q 19.1875 2.390625 24.609375 1.8125 
L 24.609375 0 
L 1.125 0 
z
" id="Times-Roman-77"/>
      <path d="M 28.65625 27.046875 
Q 23.046875 25.203125 19.390625 22.953125 
Q 12.359375 18.609375 12.359375 13.09375 
Q 12.359375 8.640625 15.28125 6.546875 
Q 17.1875 5.171875 19.53125 5.171875 
Q 22.75 5.171875 25.703125 6.984375 
Q 28.65625 8.796875 28.65625 11.578125 
z
M 3.65625 9.71875 
Q 3.65625 16.796875 10.75 21.53125 
Q 15.234375 24.46875 28.65625 29.5 
L 28.65625 33.640625 
Q 28.65625 38.625 27.6875 40.578125 
Q 26.03125 43.84375 20.796875 43.84375 
Q 18.3125 43.84375 16.0625 42.578125 
Q 13.8125 41.265625 13.8125 38.96875 
Q 13.8125 38.375 14.0625 36.984375 
Q 14.3125 35.59375 14.3125 35.203125 
Q 14.3125 32.46875 12.5 31.390625 
Q 11.46875 30.765625 10.0625 30.765625 
Q 7.859375 30.765625 6.6875 32.203125 
Q 5.515625 33.640625 5.515625 35.40625 
Q 5.515625 38.8125 9.734375 42.546875 
Q 13.96875 46.296875 22.125 46.296875 
Q 31.59375 46.296875 34.96875 40.140625 
Q 36.765625 36.765625 36.765625 30.328125 
L 36.765625 10.75 
Q 36.765625 7.90625 37.15625 6.84375 
Q 37.796875 4.9375 39.796875 4.9375 
Q 40.921875 4.9375 41.65625 5.265625 
Q 42.390625 5.609375 44.1875 6.9375 
L 44.1875 4.390625 
Q 42.625 2.484375 40.828125 1.265625 
Q 38.09375 -0.59375 35.25 -0.59375 
Q 31.9375 -0.59375 30.4375 1.5625 
Q 28.953125 3.71875 28.8125 6.6875 
Q 25.09375 3.46875 22.46875 1.90625 
Q 18.015625 -0.734375 14.015625 -0.734375 
Q 9.8125 -0.734375 6.734375 2.21875 
Q 3.65625 5.171875 3.65625 9.71875 
z
M 22.265625 46.296875 
z
" id="Times-Roman-97"/>
      <path d="M 23.140625 44.875 
L 23.140625 43.5 
Q 21.296875 43.453125 20 42.984375 
Q 18.703125 42.53125 18.703125 41.0625 
Q 18.703125 40.140625 21.296875 35.84375 
Q 22.65625 33.59375 24.75 30.328125 
Q 27.640625 34.28125 29.046875 36.53125 
Q 31.453125 40.140625 31.453125 41.21875 
Q 31.453125 42.484375 30.421875 42.921875 
Q 29.390625 43.359375 27.546875 43.5 
L 27.546875 44.875 
L 43.265625 44.875 
L 43.265625 43.5 
Q 40.765625 43.3125 38.609375 42.15625 
Q 36.46875 41.015625 35.15625 39.109375 
L 26.8125 27.046875 
L 39.703125 7.515625 
Q 42.1875 3.71875 43.921875 2.59375 
Q 45.65625 1.46875 47.90625 1.375 
L 47.90625 0 
L 27.734375 0 
L 27.734375 1.375 
L 29.15625 1.46875 
Q 30.28125 1.5625 31.03125 2.140625 
Q 31.78125 2.734375 31.78125 3.609375 
Q 31.78125 4.546875 29.9375 7.71875 
Q 29.046875 9.28125 27.296875 11.96875 
Q 26.46875 13.28125 24.828125 15.625 
Q 23.1875 17.96875 22.078125 19.625 
L 14.203125 7.375 
Q 12.796875 5.171875 12.453125 4.4375 
Q 12.109375 3.71875 12.109375 3.21875 
Q 12.109375 2.296875 12.859375 2 
Q 13.625 1.703125 16.15625 1.375 
L 16.15625 0 
L 1.703125 0 
L 1.703125 1.375 
Q 4.34375 1.90625 5.609375 2.734375 
Q 6.890625 3.5625 8.984375 6.59375 
L 20.359375 23.140625 
L 10.984375 37.359375 
Q 8.15625 41.609375 7.078125 42.390625 
Q 6 43.171875 2.390625 43.5 
L 2.390625 44.875 
z
" id="Times-Roman-120"/>
      <path d="M 4.59375 25.09375 
Q 4.59375 42.09375 14.75 54.9375 
Q 21 62.796875 29.5 67.578125 
L 30.421875 65.96875 
Q 22.5625 59.71875 19.1875 53.8125 
Q 13.28125 43.5 13.28125 26.375 
Q 13.28125 13.671875 15.53125 5.421875 
Q 19.484375 -9.03125 30.421875 -16.21875 
L 29.15625 -17.828125 
Q 23.140625 -14.9375 16.15625 -6.546875 
Q 4.59375 7.375 4.59375 25.09375 
z
" id="Times-Roman-40"/>
      <path d="M 1.609375 1.8125 
Q 7.71875 2.25 9.515625 3.640625 
Q 11.328125 5.03125 11.328125 10.84375 
L 11.328125 55.328125 
Q 11.328125 60.84375 9.515625 62.421875 
Q 7.71875 64.015625 1.609375 64.3125 
L 1.609375 66.15625 
L 31.203125 66.15625 
L 31.203125 64.3125 
Q 25.09375 64.015625 23.28125 62.421875 
Q 21.484375 60.84375 21.484375 55.328125 
L 21.484375 10.84375 
Q 21.484375 5.03125 23.28125 3.640625 
Q 25.09375 2.25 31.203125 1.8125 
L 31.203125 0 
L 1.609375 0 
z
M 16.40625 66.15625 
z
" id="Times-Roman-73"/>
      <path d="M 24.859375 50.53125 
L 31.6875 50.53125 
L 31.6875 28.65625 
L 53.46875 28.65625 
L 53.46875 21.828125 
L 31.6875 21.828125 
L 31.6875 0 
L 24.859375 0 
L 24.859375 21.828125 
L 2.984375 21.828125 
L 2.984375 28.65625 
L 24.859375 28.65625 
z
" id="Times-Roman-43"/>
      <path d="M 20.5625 7.71875 
Q 20.5625 5.28125 21.75 4.5 
Q 22.953125 3.71875 26.703125 3.71875 
Q 38.421875 3.71875 46 8.34375 
Q 57.625 15.484375 57.625 32.71875 
Q 57.625 48.09375 48.046875 55.859375 
Q 39.84375 62.5 26.3125 62.5 
Q 22.953125 62.5 21.75 61.765625 
Q 20.5625 61.03125 20.5625 58.546875 
L 20.5625 7.71875 
z
M 1.609375 1.8125 
Q 7.078125 2.390625 8.734375 3.78125 
Q 10.40625 5.171875 10.40625 10.84375 
L 10.40625 55.328125 
Q 10.40625 60.796875 8.78125 62.359375 
Q 7.171875 63.921875 1.609375 64.3125 
L 1.609375 66.15625 
L 28.5625 66.15625 
Q 42.1875 66.15625 51.609375 61.671875 
Q 68.609375 53.609375 68.609375 32.859375 
Q 68.609375 25.390625 65.546875 18.65625 
Q 62.5 11.921875 56.34375 7.28125 
Q 52.4375 4.34375 48.25 2.828125 
Q 40.578125 0 29.390625 0 
L 1.609375 0 
z
" id="Times-Roman-68"/>
      <path d="M 44.625 25.6875 
L 33.0625 53.21875 
L 21.625 25.6875 
z
M 1.46875 0 
L 1.46875 1.8125 
Q 5.328125 2.25 7.25 4.734375 
Q 9.1875 7.234375 13.875 18.265625 
L 34.71875 67.328125 
L 36.671875 67.328125 
L 61.578125 10.640625 
Q 64.0625 4.984375 65.546875 3.640625 
Q 67.046875 2.296875 70.5625 1.8125 
L 70.5625 0 
L 45.125 0 
L 45.125 1.8125 
Q 49.515625 2.203125 50.78125 2.765625 
Q 52.046875 3.328125 52.046875 5.515625 
Q 52.046875 6.25 51.5625 8.109375 
Q 51.078125 9.96875 50.203125 12.015625 
L 46.046875 21.625 
L 19.875 21.625 
Q 15.96875 11.8125 15.203125 9.640625 
Q 14.453125 7.46875 14.453125 6.203125 
Q 14.453125 3.65625 16.5 2.6875 
Q 17.78125 2.09375 21.296875 1.8125 
L 21.296875 0 
z
M 35.6875 67.328125 
z
" id="Times-Roman-65"/>
      <path d="M 19.875 34.234375 
Q 30.671875 34.625 35.296875 36.46875 
Q 43.265625 39.75 43.265625 48.78125 
Q 43.265625 57.46875 36.140625 60.640625 
Q 32.328125 62.359375 26.03125 62.359375 
Q 21.78125 62.359375 20.828125 61.75 
Q 19.875 61.140625 19.875 58.890625 
L 19.875 34.234375 
z
M 1.125 1.8125 
Q 6.890625 2.34375 8.296875 4.046875 
Q 9.71875 5.765625 9.71875 12.015625 
L 9.71875 55.328125 
Q 9.71875 60.59375 8.125 62.234375 
Q 6.546875 63.875 1.125 64.3125 
L 1.125 66.15625 
L 28.8125 66.15625 
Q 37.453125 66.15625 43.21875 63.96875 
Q 54.15625 59.8125 54.15625 48.6875 
Q 54.15625 41.21875 49.296875 37.203125 
Q 44.4375 33.203125 36.078125 31.9375 
L 56.6875 6.59375 
Q 58.59375 4.25 60.5 3.171875 
Q 62.40625 2.09375 65.375 1.8125 
L 65.375 0 
L 49.265625 0 
L 25.4375 30.765625 
L 19.875 30.515625 
L 19.875 10.84375 
Q 19.875 5.28125 21.5625 3.78125 
Q 23.25 2.296875 28.90625 1.8125 
L 28.90625 0 
L 1.125 0 
z
" id="Times-Roman-82"/>
      <path d="M 1.953125 66.15625 
L 58.453125 66.15625 
L 58.984375 49.171875 
L 56.59375 49.171875 
Q 54.828125 57.171875 52.125 59.59375 
Q 49.421875 62.015625 40.71875 62.015625 
L 35.15625 62.015625 
L 35.15625 10.84375 
Q 35.15625 5.03125 36.953125 3.640625 
Q 38.765625 2.25 44.875 1.8125 
L 44.875 0 
L 15.71875 0 
L 15.71875 1.8125 
Q 22.078125 2.296875 23.640625 3.90625 
Q 25.203125 5.515625 25.203125 12.015625 
L 25.203125 62.015625 
L 19.625 62.015625 
Q 11.328125 62.015625 8.328125 59.625 
Q 5.328125 57.234375 3.8125 49.171875 
L 1.375 49.171875 
z
" id="Times-Roman-84"/>
      <path d="M 28.46875 24.609375 
Q 28.46875 17.328125 26.5625 10.828125 
Q 24.65625 4.34375 21 -1.421875 
Q 17.140625 -7.5625 10.6875 -12.890625 
Q 6.453125 -16.40625 3.5625 -17.828125 
L 2.640625 -16.21875 
Q 10.15625 -10.5 13.625 -4.546875 
Q 19.78125 6 19.78125 23.34375 
Q 19.78125 37.359375 16.9375 46.234375 
Q 12.984375 58.796875 2.640625 65.96875 
L 3.90625 67.578125 
Q 11.625 63.28125 18.265625 54.59375 
Q 28.46875 41.21875 28.46875 24.609375 
z
" id="Times-Roman-41"/>
     </defs>
     <use xlink:href="#Times-Roman-77"/>
     <use x="88.916016" xlink:href="#Times-Roman-97"/>
     <use x="133.300781" xlink:href="#Times-Roman-120"/>
     <use x="183.300781" xlink:href="#Times-Roman-40"/>
     <use x="216.601562" xlink:href="#Times-Roman-73"/>
     <use x="249.902344" xlink:href="#Times-Roman-43"/>
     <use x="306.298828" xlink:href="#Times-Roman-68"/>
     <use x="378.515625" xlink:href="#Times-Roman-43"/>
     <use x="434.912109" xlink:href="#Times-Roman-65"/>
     <use x="507.128906" xlink:href="#Times-Roman-43"/>
     <use x="563.525391" xlink:href="#Times-Roman-82"/>
     <use x="630.224609" xlink:href="#Times-Roman-43"/>
     <use x="686.621094" xlink:href="#Times-Roman-84"/>
     <use x="747.705078" xlink:href="#Times-Roman-41"/>
    </g>
   </g>
  </g>
 </g>
 <defs>
  <clipPath id="p5b06b853c9">
   <rect height="179.668169" width="324.785669" x="75.177165" y="43.605915"/>
  </clipPath>
 </defs>
</svg>
