<?xml version="1.0" encoding="utf-8" standalone="no"?>
<!DOCTYPE svg PUBLIC "-//W3C//DTD SVG 1.1//EN"
  "http://www.w3.org/Graphics/SVG/1.1/DTD/svg11.dtd">
<!-- Created with matplotlib (https://matplotlib.org/) -->
<svg height="266.4pt" version="1.1" viewBox="0 0 468 266.4" width="468pt" xmlns="http://www.w3.org/2000/svg" xmlns:xlink="http://www.w3.org/1999/xlink">
 <metadata>
  <rdf:RDF xmlns:cc="http://creativecommons.org/ns#" xmlns:dc="http://purl.org/dc/elements/1.1/" xmlns:rdf="http://www.w3.org/1999/02/22-rdf-syntax-ns#">
   <cc:Work>
    <dc:type rdf:resource="http://purl.org/dc/dcmitype/StillImage"/>
    <dc:date>2021-02-26T15:54:59.753462</dc:date>
    <dc:format>image/svg+xml</dc:format>
    <dc:creator>
     <cc:Agent>
      <dc:title>Matplotlib v3.3.4, https://matplotlib.org/</dc:title>
     </cc:Agent>
    </dc:creator>
   </cc:Work>
  </rdf:RDF>
 </metadata>
 <defs>
  <style type="text/css">*{stroke-linecap:butt;stroke-linejoin:round;}</style>
 </defs>
 <g id="figure_1">
  <g id="patch_1">
   <path d="M 0 266.4 
L 468 266.4 
L 468 0 
L 0 0 
z
" style="fill:#ffffff;"/>
  </g>
  <g id="axes_1">
   <g id="patch_2">
    <path d="M 70.868415 201.674085 
L 444.708118 201.674085 
L 444.708118 43.605915 
L 70.868415 43.605915 
z
" style="fill:#ffffff;"/>
   </g>
   <g id="matplotlib.axis_1">
    <g id="xtick_1">
     <g id="line2d_1">
      <path clip-path="url(#p357d355b70)" d="M 81.448784 201.674085 
L 81.448784 43.605915 
" style="fill:none;stroke:#000000;stroke-linecap:square;stroke-opacity:0.1;stroke-width:0.5;"/>
     </g>
     <g id="line2d_2">
      <defs>
       <path d="M 0 0 
L 0 -2.5 
" id="m1f708ad88f" style="stroke:#000000;stroke-width:0.5;"/>
      </defs>
      <g>
       <use style="stroke:#000000;stroke-width:0.5;" x="81.448784" xlink:href="#m1f708ad88f" y="201.674085"/>
      </g>
     </g>
     <g id="text_1">
      <!-- $\mathregular{0}$ -->
      <g transform="translate(76.948784 217.515335)scale(0.18 -0.18)">
       <defs>
        <path d="M 23.921875 1.8125 
Q 31.109375 1.8125 33.78125 9.671875 
Q 36.46875 17.53125 36.46875 32.421875 
Q 36.46875 44.28125 34.859375 51.375 
Q 31.84375 64.546875 23.53125 64.546875 
Q 15.234375 64.546875 12.15625 50.984375 
Q 10.546875 43.75 10.546875 31.9375 
Q 10.546875 20.84375 12.203125 14.203125 
Q 15.328125 1.8125 23.921875 1.8125 
z
M 23.78125 67.1875 
Q 35.015625 67.1875 41.21875 55.421875 
Q 46.140625 45.90625 46.140625 33.546875 
Q 46.140625 23.828125 43.109375 15.234375 
Q 37.40625 -0.921875 23.34375 -0.921875 
Q 13.71875 -0.921875 7.515625 7.8125 
Q 0.875 17.140625 0.875 33.15625 
Q 0.875 45.75 5.328125 54.828125 
Q 11.328125 67.1875 23.78125 67.1875 
z
" id="Times-Roman-48"/>
       </defs>
       <use transform="translate(0 0.8125)" xlink:href="#Times-Roman-48"/>
      </g>
     </g>
    </g>
    <g id="xtick_2">
     <g id="line2d_3">
      <path clip-path="url(#p357d355b70)" d="M 151.984577 201.674085 
L 151.984577 43.605915 
" style="fill:none;stroke:#000000;stroke-linecap:square;stroke-opacity:0.1;stroke-width:0.5;"/>
     </g>
     <g id="line2d_4">
      <g>
       <use style="stroke:#000000;stroke-width:0.5;" x="151.984577" xlink:href="#m1f708ad88f" y="201.674085"/>
      </g>
     </g>
     <g id="text_2">
      <!-- $\mathregular{100}$ -->
      <g transform="translate(138.484577 217.515335)scale(0.18 -0.18)">
       <defs>
        <path d="M 29.59375 67.09375 
Q 29.78125 66.84375 29.796875 66.71875 
Q 29.828125 66.609375 29.828125 66.15625 
L 29.828125 7.375 
Q 29.828125 3.609375 31.828125 2.578125 
Q 33.84375 1.5625 39.3125 1.375 
L 39.3125 0 
L 11.765625 0 
L 11.765625 1.46875 
Q 17.671875 1.765625 19.484375 3.078125 
Q 21.296875 4.390625 21.296875 8.796875 
L 21.296875 54 
Q 21.296875 56.34375 20.703125 57.5625 
Q 20.125 58.796875 18.171875 58.796875 
Q 16.890625 58.796875 14.859375 58.078125 
Q 12.84375 57.375 11.078125 56.59375 
L 11.078125 57.953125 
L 29 67.09375 
L 29.59375 67.09375 
z
" id="Times-Roman-49"/>
       </defs>
       <use transform="translate(0 0.8125)" xlink:href="#Times-Roman-49"/>
       <use transform="translate(50 0.8125)" xlink:href="#Times-Roman-48"/>
       <use transform="translate(100 0.8125)" xlink:href="#Times-Roman-48"/>
      </g>
     </g>
    </g>
    <g id="xtick_3">
     <g id="line2d_5">
      <path clip-path="url(#p357d355b70)" d="M 222.52037 201.674085 
L 222.52037 43.605915 
" style="fill:none;stroke:#000000;stroke-linecap:square;stroke-opacity:0.1;stroke-width:0.5;"/>
     </g>
     <g id="line2d_6">
      <g>
       <use style="stroke:#000000;stroke-width:0.5;" x="222.52037" xlink:href="#m1f708ad88f" y="201.674085"/>
      </g>
     </g>
     <g id="text_3">
      <!-- $\mathregular{200}$ -->
      <g transform="translate(209.02037 217.515335)scale(0.18 -0.18)">
       <defs>
        <path d="M 2.984375 1.125 
Q 20.84375 19.671875 27.234375 28.359375 
Q 33.640625 37.0625 33.640625 45.3125 
Q 33.640625 52.546875 29.734375 56.328125 
Q 25.828125 60.109375 20.40625 60.109375 
Q 13.71875 60.109375 9.578125 55.21875 
Q 7.28125 52.546875 5.171875 46.96875 
L 3.078125 47.40625 
Q 5.515625 58.640625 11.34375 63.015625 
Q 17.1875 67.390625 23.875 67.390625 
Q 32.125 67.390625 37.21875 62.1875 
Q 42.328125 56.984375 42.328125 49.46875 
Q 42.328125 41.453125 36.8125 34.03125 
Q 31.296875 26.609375 12.84375 7.625 
L 35.25 7.625 
Q 39.9375 7.625 41.84375 8.734375 
Q 43.75 9.859375 46.140625 14.203125 
L 47.40625 13.625 
L 42 0 
L 2.984375 0 
z
" id="Times-Roman-50"/>
       </defs>
       <use transform="translate(0 0.609375)" xlink:href="#Times-Roman-50"/>
       <use transform="translate(50 0.609375)" xlink:href="#Times-Roman-48"/>
       <use transform="translate(100 0.609375)" xlink:href="#Times-Roman-48"/>
      </g>
     </g>
    </g>
    <g id="xtick_4">
     <g id="line2d_7">
      <path clip-path="url(#p357d355b70)" d="M 293.056163 201.674085 
L 293.056163 43.605915 
" style="fill:none;stroke:#000000;stroke-linecap:square;stroke-opacity:0.1;stroke-width:0.5;"/>
     </g>
     <g id="line2d_8">
      <g>
       <use style="stroke:#000000;stroke-width:0.5;" x="293.056163" xlink:href="#m1f708ad88f" y="201.674085"/>
      </g>
     </g>
     <g id="text_4">
      <!-- $\mathregular{300}$ -->
      <g transform="translate(279.556163 217.515335)scale(0.18 -0.18)">
       <defs>
        <path d="M 7.765625 8.5 
Q 10.453125 8.5 14.859375 5.71875 
Q 19.28125 2.9375 22.359375 2.9375 
Q 29.203125 2.9375 32.515625 7.546875 
Q 35.84375 12.15625 35.84375 17.578125 
Q 35.84375 22.796875 33.15625 26.765625 
Q 28.609375 33.453125 17.828125 33.453125 
Q 17.1875 33.453125 16.59375 33.421875 
Q 16.015625 33.40625 15.234375 33.296875 
L 15.140625 34.578125 
Q 22.953125 37.40625 27.4375 41.0625 
Q 31.9375 44.734375 31.9375 50.734375 
Q 31.9375 56.0625 28.390625 58.84375 
Q 24.859375 61.625 20.3125 61.625 
Q 14.9375 61.625 10.84375 57.671875 
Q 8.59375 55.515625 6 51.03125 
L 4.5 51.375 
Q 6.453125 58.796875 11.765625 63.234375 
Q 17.09375 67.671875 24.078125 67.671875 
Q 31.546875 67.671875 35.625 63.5625 
Q 39.703125 59.46875 39.703125 54.109375 
Q 39.703125 49.359375 36.328125 45.40625 
Q 34.421875 43.171875 30.421875 40.375 
Q 35.109375 38.375 37.9375 35.6875 
Q 43.265625 30.5625 43.265625 22.703125 
Q 43.265625 13.421875 35.953125 6.34375 
Q 28.65625 -0.734375 15.1875 -0.734375 
Q 9.1875 -0.734375 6.765625 1.046875 
Q 4.34375 2.828125 4.34375 4.890625 
Q 4.34375 6.15625 5.140625 7.328125 
Q 5.953125 8.5 7.765625 8.5 
z
" id="Times-Roman-51"/>
       </defs>
       <use transform="translate(0 0.328125)" xlink:href="#Times-Roman-51"/>
       <use transform="translate(50 0.328125)" xlink:href="#Times-Roman-48"/>
       <use transform="translate(100 0.328125)" xlink:href="#Times-Roman-48"/>
      </g>
     </g>
    </g>
    <g id="xtick_5">
     <g id="line2d_9">
      <path clip-path="url(#p357d355b70)" d="M 363.591956 201.674085 
L 363.591956 43.605915 
" style="fill:none;stroke:#000000;stroke-linecap:square;stroke-opacity:0.1;stroke-width:0.5;"/>
     </g>
     <g id="line2d_10">
      <g>
       <use style="stroke:#000000;stroke-width:0.5;" x="363.591956" xlink:href="#m1f708ad88f" y="201.674085"/>
      </g>
     </g>
     <g id="text_5">
      <!-- $\mathregular{400}$ -->
      <g transform="translate(350.091956 217.515335)scale(0.18 -0.18)">
       <defs>
        <path d="M 29.15625 57.03125 
L 5.171875 23.140625 
L 29.15625 23.140625 
z
M 32.375 67.09375 
L 37.015625 67.09375 
L 37.015625 23.140625 
L 47.21875 23.140625 
L 47.21875 16.65625 
L 37.015625 16.65625 
L 37.015625 0 
L 29.25 0 
L 29.25 16.65625 
L 1.125 16.65625 
L 1.125 23.140625 
z
" id="Times-Roman-52"/>
       </defs>
       <use transform="translate(0 0.8125)" xlink:href="#Times-Roman-52"/>
       <use transform="translate(50 0.8125)" xlink:href="#Times-Roman-48"/>
       <use transform="translate(100 0.8125)" xlink:href="#Times-Roman-48"/>
      </g>
     </g>
    </g>
    <g id="xtick_6">
     <g id="line2d_11">
      <path clip-path="url(#p357d355b70)" d="M 434.127749 201.674085 
L 434.127749 43.605915 
" style="fill:none;stroke:#000000;stroke-linecap:square;stroke-opacity:0.1;stroke-width:0.5;"/>
     </g>
     <g id="line2d_12">
      <g>
       <use style="stroke:#000000;stroke-width:0.5;" x="434.127749" xlink:href="#m1f708ad88f" y="201.674085"/>
      </g>
     </g>
     <g id="text_6">
      <!-- $\mathregular{500}$ -->
      <g transform="translate(420.627749 217.515335)scale(0.18 -0.18)">
       <defs>
        <path d="M 7.46875 8.9375 
Q 10.25 8.9375 14.765625 5.78125 
Q 19.28125 2.640625 21.734375 2.640625 
Q 27.34375 2.640625 31.546875 7.59375 
Q 35.75 12.546875 35.75 19.78125 
Q 35.75 32.421875 22.265625 37.984375 
Q 14.796875 41.0625 8.34375 41.0625 
Q 7.28125 41.0625 7 41.140625 
Q 6.734375 41.21875 6.34375 41.65625 
Q 6.453125 42.046875 6.515625 42.3125 
Q 6.59375 42.578125 6.6875 42.828125 
L 17.328125 66.15625 
L 38.28125 66.15625 
Q 39.84375 66.15625 40.6875 66.6875 
Q 41.546875 67.234375 42.921875 68.703125 
L 43.703125 68.015625 
L 39.890625 58.984375 
Q 39.703125 58.546875 38.8125 58.421875 
Q 37.9375 58.296875 36.921875 58.296875 
L 18.015625 58.296875 
L 13.875 49.75 
Q 21.875 48.390625 25.59375 47.171875 
Q 31.6875 45.125 35.796875 41.109375 
Q 39.3125 37.640625 41.109375 33.3125 
Q 42.921875 29 42.921875 24.171875 
Q 42.921875 13.375 35.234375 6.140625 
Q 27.546875 -1.078125 15.765625 -1.078125 
Q 10.984375 -1.078125 8.0625 -0.140625 
Q 3.171875 1.375 3.171875 5.28125 
Q 3.171875 6.734375 4.21875 7.828125 
Q 5.28125 8.9375 7.46875 8.9375 
z
" id="Times-Roman-53"/>
       </defs>
       <use transform="translate(0 0.296875)" xlink:href="#Times-Roman-53"/>
       <use transform="translate(50 0.296875)" xlink:href="#Times-Roman-48"/>
       <use transform="translate(100 0.296875)" xlink:href="#Times-Roman-48"/>
      </g>
     </g>
    </g>
    <g id="text_7">
     <!-- Time [days] -->
     <g transform="translate(204.640454 239.113147)scale(0.18 -0.18)">
      <defs>
       <path d="M -0.296875 72.90625 
L 61.375 72.90625 
L 61.375 64.59375 
L 35.5 64.59375 
L 35.5 0 
L 25.59375 0 
L 25.59375 64.59375 
L -0.296875 64.59375 
z
" id="DejaVuSans-84"/>
       <path d="M 9.421875 54.6875 
L 18.40625 54.6875 
L 18.40625 0 
L 9.421875 0 
z
M 9.421875 75.984375 
L 18.40625 75.984375 
L 18.40625 64.59375 
L 9.421875 64.59375 
z
" id="DejaVuSans-105"/>
       <path d="M 52 44.1875 
Q 55.375 50.25 60.0625 53.125 
Q 64.75 56 71.09375 56 
Q 79.640625 56 84.28125 50.015625 
Q 88.921875 44.046875 88.921875 33.015625 
L 88.921875 0 
L 79.890625 0 
L 79.890625 32.71875 
Q 79.890625 40.578125 77.09375 44.375 
Q 74.3125 48.1875 68.609375 48.1875 
Q 61.625 48.1875 57.5625 43.546875 
Q 53.515625 38.921875 53.515625 30.90625 
L 53.515625 0 
L 44.484375 0 
L 44.484375 32.71875 
Q 44.484375 40.625 41.703125 44.40625 
Q 38.921875 48.1875 33.109375 48.1875 
Q 26.21875 48.1875 22.15625 43.53125 
Q 18.109375 38.875 18.109375 30.90625 
L 18.109375 0 
L 9.078125 0 
L 9.078125 54.6875 
L 18.109375 54.6875 
L 18.109375 46.1875 
Q 21.1875 51.21875 25.484375 53.609375 
Q 29.78125 56 35.6875 56 
Q 41.65625 56 45.828125 52.96875 
Q 50 49.953125 52 44.1875 
z
" id="DejaVuSans-109"/>
       <path d="M 56.203125 29.59375 
L 56.203125 25.203125 
L 14.890625 25.203125 
Q 15.484375 15.921875 20.484375 11.0625 
Q 25.484375 6.203125 34.421875 6.203125 
Q 39.59375 6.203125 44.453125 7.46875 
Q 49.3125 8.734375 54.109375 11.28125 
L 54.109375 2.78125 
Q 49.265625 0.734375 44.1875 -0.34375 
Q 39.109375 -1.421875 33.890625 -1.421875 
Q 20.796875 -1.421875 13.15625 6.1875 
Q 5.515625 13.8125 5.515625 26.8125 
Q 5.515625 40.234375 12.765625 48.109375 
Q 20.015625 56 32.328125 56 
Q 43.359375 56 49.78125 48.890625 
Q 56.203125 41.796875 56.203125 29.59375 
z
M 47.21875 32.234375 
Q 47.125 39.59375 43.09375 43.984375 
Q 39.0625 48.390625 32.421875 48.390625 
Q 24.90625 48.390625 20.390625 44.140625 
Q 15.875 39.890625 15.1875 32.171875 
z
" id="DejaVuSans-101"/>
       <path id="DejaVuSans-32"/>
       <path d="M 8.59375 75.984375 
L 29.296875 75.984375 
L 29.296875 69 
L 17.578125 69 
L 17.578125 -6.203125 
L 29.296875 -6.203125 
L 29.296875 -13.1875 
L 8.59375 -13.1875 
z
" id="DejaVuSans-91"/>
       <path d="M 45.40625 46.390625 
L 45.40625 75.984375 
L 54.390625 75.984375 
L 54.390625 0 
L 45.40625 0 
L 45.40625 8.203125 
Q 42.578125 3.328125 38.25 0.953125 
Q 33.9375 -1.421875 27.875 -1.421875 
Q 17.96875 -1.421875 11.734375 6.484375 
Q 5.515625 14.40625 5.515625 27.296875 
Q 5.515625 40.1875 11.734375 48.09375 
Q 17.96875 56 27.875 56 
Q 33.9375 56 38.25 53.625 
Q 42.578125 51.265625 45.40625 46.390625 
z
M 14.796875 27.296875 
Q 14.796875 17.390625 18.875 11.75 
Q 22.953125 6.109375 30.078125 6.109375 
Q 37.203125 6.109375 41.296875 11.75 
Q 45.40625 17.390625 45.40625 27.296875 
Q 45.40625 37.203125 41.296875 42.84375 
Q 37.203125 48.484375 30.078125 48.484375 
Q 22.953125 48.484375 18.875 42.84375 
Q 14.796875 37.203125 14.796875 27.296875 
z
" id="DejaVuSans-100"/>
       <path d="M 34.28125 27.484375 
Q 23.390625 27.484375 19.1875 25 
Q 14.984375 22.515625 14.984375 16.5 
Q 14.984375 11.71875 18.140625 8.90625 
Q 21.296875 6.109375 26.703125 6.109375 
Q 34.1875 6.109375 38.703125 11.40625 
Q 43.21875 16.703125 43.21875 25.484375 
L 43.21875 27.484375 
z
M 52.203125 31.203125 
L 52.203125 0 
L 43.21875 0 
L 43.21875 8.296875 
Q 40.140625 3.328125 35.546875 0.953125 
Q 30.953125 -1.421875 24.3125 -1.421875 
Q 15.921875 -1.421875 10.953125 3.296875 
Q 6 8.015625 6 15.921875 
Q 6 25.140625 12.171875 29.828125 
Q 18.359375 34.515625 30.609375 34.515625 
L 43.21875 34.515625 
L 43.21875 35.40625 
Q 43.21875 41.609375 39.140625 45 
Q 35.0625 48.390625 27.6875 48.390625 
Q 23 48.390625 18.546875 47.265625 
Q 14.109375 46.140625 10.015625 43.890625 
L 10.015625 52.203125 
Q 14.9375 54.109375 19.578125 55.046875 
Q 24.21875 56 28.609375 56 
Q 40.484375 56 46.34375 49.84375 
Q 52.203125 43.703125 52.203125 31.203125 
z
" id="DejaVuSans-97"/>
       <path d="M 32.171875 -5.078125 
Q 28.375 -14.84375 24.75 -17.8125 
Q 21.140625 -20.796875 15.09375 -20.796875 
L 7.90625 -20.796875 
L 7.90625 -13.28125 
L 13.1875 -13.28125 
Q 16.890625 -13.28125 18.9375 -11.515625 
Q 21 -9.765625 23.484375 -3.21875 
L 25.09375 0.875 
L 2.984375 54.6875 
L 12.5 54.6875 
L 29.59375 11.921875 
L 46.6875 54.6875 
L 56.203125 54.6875 
z
" id="DejaVuSans-121"/>
       <path d="M 44.28125 53.078125 
L 44.28125 44.578125 
Q 40.484375 46.53125 36.375 47.5 
Q 32.28125 48.484375 27.875 48.484375 
Q 21.1875 48.484375 17.84375 46.4375 
Q 14.5 44.390625 14.5 40.28125 
Q 14.5 37.15625 16.890625 35.375 
Q 19.28125 33.59375 26.515625 31.984375 
L 29.59375 31.296875 
Q 39.15625 29.25 43.1875 25.515625 
Q 47.21875 21.78125 47.21875 15.09375 
Q 47.21875 7.46875 41.1875 3.015625 
Q 35.15625 -1.421875 24.609375 -1.421875 
Q 20.21875 -1.421875 15.453125 -0.5625 
Q 10.6875 0.296875 5.421875 2 
L 5.421875 11.28125 
Q 10.40625 8.6875 15.234375 7.390625 
Q 20.0625 6.109375 24.8125 6.109375 
Q 31.15625 6.109375 34.5625 8.28125 
Q 37.984375 10.453125 37.984375 14.40625 
Q 37.984375 18.0625 35.515625 20.015625 
Q 33.0625 21.96875 24.703125 23.78125 
L 21.578125 24.515625 
Q 13.234375 26.265625 9.515625 29.90625 
Q 5.8125 33.546875 5.8125 39.890625 
Q 5.8125 47.609375 11.28125 51.796875 
Q 16.75 56 26.8125 56 
Q 31.78125 56 36.171875 55.265625 
Q 40.578125 54.546875 44.28125 53.078125 
z
" id="DejaVuSans-115"/>
       <path d="M 30.421875 75.984375 
L 30.421875 -13.1875 
L 9.71875 -13.1875 
L 9.71875 -6.203125 
L 21.390625 -6.203125 
L 21.390625 69 
L 9.71875 69 
L 9.71875 75.984375 
z
" id="DejaVuSans-93"/>
      </defs>
      <use xlink:href="#DejaVuSans-84"/>
      <use x="57.958984" xlink:href="#DejaVuSans-105"/>
      <use x="85.742188" xlink:href="#DejaVuSans-109"/>
      <use x="183.154297" xlink:href="#DejaVuSans-101"/>
      <use x="244.677734" xlink:href="#DejaVuSans-32"/>
      <use x="276.464844" xlink:href="#DejaVuSans-91"/>
      <use x="315.478516" xlink:href="#DejaVuSans-100"/>
      <use x="378.955078" xlink:href="#DejaVuSans-97"/>
      <use x="440.234375" xlink:href="#DejaVuSans-121"/>
      <use x="499.414062" xlink:href="#DejaVuSans-115"/>
      <use x="551.513672" xlink:href="#DejaVuSans-93"/>
     </g>
    </g>
   </g>
   <g id="matplotlib.axis_2">
    <g id="ytick_1">
     <g id="line2d_13">
      <path clip-path="url(#p357d355b70)" d="M 70.868415 197.200477 
L 444.708118 197.200477 
" style="fill:none;stroke:#000000;stroke-linecap:square;stroke-opacity:0.1;stroke-width:0.5;"/>
     </g>
     <g id="line2d_14">
      <defs>
       <path d="M 0 0 
L 2.5 0 
" id="ma02489fff1" style="stroke:#000000;stroke-width:0.5;"/>
      </defs>
      <g>
       <use style="stroke:#000000;stroke-width:0.5;" x="70.868415" xlink:href="#ma02489fff1" y="197.200477"/>
      </g>
     </g>
     <g id="text_8">
      <!-- $\mathregular{0.0}$ -->
      <g transform="translate(44.868415 203.371102)scale(0.18 -0.18)">
       <defs>
        <path d="M 16.3125 -1.171875 
Q 13.96875 -1.171875 12.359375 0.453125 
Q 10.75 2.09375 10.75 4.390625 
Q 10.75 6.6875 12.375 8.296875 
Q 14.015625 9.90625 16.3125 9.90625 
Q 18.609375 9.90625 20.21875 8.296875 
Q 21.828125 6.6875 21.828125 4.390625 
Q 21.828125 2.09375 20.234375 0.453125 
Q 18.65625 -1.171875 16.3125 -1.171875 
z
" id="Times-Roman-46"/>
       </defs>
       <use transform="translate(0 0.8125)" xlink:href="#Times-Roman-48"/>
       <use transform="translate(50 0.8125)" xlink:href="#Times-Roman-46"/>
       <use transform="translate(75 0.8125)" xlink:href="#Times-Roman-48"/>
      </g>
     </g>
    </g>
    <g id="ytick_2">
     <g id="line2d_15">
      <path clip-path="url(#p357d355b70)" d="M 70.868415 163.481577 
L 444.708118 163.481577 
" style="fill:none;stroke:#000000;stroke-linecap:square;stroke-opacity:0.1;stroke-width:0.5;"/>
     </g>
     <g id="line2d_16">
      <g>
       <use style="stroke:#000000;stroke-width:0.5;" x="70.868415" xlink:href="#ma02489fff1" y="163.481577"/>
      </g>
     </g>
     <g id="text_9">
      <!-- $\mathregular{0.1}$ -->
      <g transform="translate(44.868415 169.652202)scale(0.18 -0.18)">
       <use transform="translate(0 0.8125)" xlink:href="#Times-Roman-48"/>
       <use transform="translate(50 0.8125)" xlink:href="#Times-Roman-46"/>
       <use transform="translate(75 0.8125)" xlink:href="#Times-Roman-49"/>
      </g>
     </g>
    </g>
    <g id="ytick_3">
     <g id="line2d_17">
      <path clip-path="url(#p357d355b70)" d="M 70.868415 129.762677 
L 444.708118 129.762677 
" style="fill:none;stroke:#000000;stroke-linecap:square;stroke-opacity:0.1;stroke-width:0.5;"/>
     </g>
     <g id="line2d_18">
      <g>
       <use style="stroke:#000000;stroke-width:0.5;" x="70.868415" xlink:href="#ma02489fff1" y="129.762677"/>
      </g>
     </g>
     <g id="text_10">
      <!-- $\mathregular{0.2}$ -->
      <g transform="translate(44.868415 135.933302)scale(0.18 -0.18)">
       <use transform="translate(0 0.609375)" xlink:href="#Times-Roman-48"/>
       <use transform="translate(50 0.609375)" xlink:href="#Times-Roman-46"/>
       <use transform="translate(75 0.609375)" xlink:href="#Times-Roman-50"/>
      </g>
     </g>
    </g>
    <g id="ytick_4">
     <g id="line2d_19">
      <path clip-path="url(#p357d355b70)" d="M 70.868415 96.043776 
L 444.708118 96.043776 
" style="fill:none;stroke:#000000;stroke-linecap:square;stroke-opacity:0.1;stroke-width:0.5;"/>
     </g>
     <g id="line2d_20">
      <g>
       <use style="stroke:#000000;stroke-width:0.5;" x="70.868415" xlink:href="#ma02489fff1" y="96.043776"/>
      </g>
     </g>
     <g id="text_11">
      <!-- $\mathregular{0.3}$ -->
      <g transform="translate(44.868415 102.214401)scale(0.18 -0.18)">
       <use transform="translate(0 0.328125)" xlink:href="#Times-Roman-48"/>
       <use transform="translate(50 0.328125)" xlink:href="#Times-Roman-46"/>
       <use transform="translate(75 0.328125)" xlink:href="#Times-Roman-51"/>
      </g>
     </g>
    </g>
    <g id="ytick_5">
     <g id="line2d_21">
      <path clip-path="url(#p357d355b70)" d="M 70.868415 62.324876 
L 444.708118 62.324876 
" style="fill:none;stroke:#000000;stroke-linecap:square;stroke-opacity:0.1;stroke-width:0.5;"/>
     </g>
     <g id="line2d_22">
      <g>
       <use style="stroke:#000000;stroke-width:0.5;" x="70.868415" xlink:href="#ma02489fff1" y="62.324876"/>
      </g>
     </g>
     <g id="text_12">
      <!-- $\mathregular{0.4}$ -->
      <g transform="translate(44.868415 68.495501)scale(0.18 -0.18)">
       <use transform="translate(0 0.8125)" xlink:href="#Times-Roman-48"/>
       <use transform="translate(50 0.8125)" xlink:href="#Times-Roman-46"/>
       <use transform="translate(75 0.8125)" xlink:href="#Times-Roman-52"/>
      </g>
     </g>
    </g>
    <g id="text_13">
     <!-- Normalized Population -->
     <g transform="translate(37.124978 223.819687)rotate(-90)scale(0.18 -0.18)">
      <defs>
       <path d="M 9.8125 72.90625 
L 23.09375 72.90625 
L 55.421875 11.921875 
L 55.421875 72.90625 
L 64.984375 72.90625 
L 64.984375 0 
L 51.703125 0 
L 19.390625 60.984375 
L 19.390625 0 
L 9.8125 0 
z
" id="DejaVuSans-78"/>
       <path d="M 30.609375 48.390625 
Q 23.390625 48.390625 19.1875 42.75 
Q 14.984375 37.109375 14.984375 27.296875 
Q 14.984375 17.484375 19.15625 11.84375 
Q 23.34375 6.203125 30.609375 6.203125 
Q 37.796875 6.203125 41.984375 11.859375 
Q 46.1875 17.53125 46.1875 27.296875 
Q 46.1875 37.015625 41.984375 42.703125 
Q 37.796875 48.390625 30.609375 48.390625 
z
M 30.609375 56 
Q 42.328125 56 49.015625 48.375 
Q 55.71875 40.765625 55.71875 27.296875 
Q 55.71875 13.875 49.015625 6.21875 
Q 42.328125 -1.421875 30.609375 -1.421875 
Q 18.84375 -1.421875 12.171875 6.21875 
Q 5.515625 13.875 5.515625 27.296875 
Q 5.515625 40.765625 12.171875 48.375 
Q 18.84375 56 30.609375 56 
z
" id="DejaVuSans-111"/>
       <path d="M 41.109375 46.296875 
Q 39.59375 47.171875 37.8125 47.578125 
Q 36.03125 48 33.890625 48 
Q 26.265625 48 22.1875 43.046875 
Q 18.109375 38.09375 18.109375 28.8125 
L 18.109375 0 
L 9.078125 0 
L 9.078125 54.6875 
L 18.109375 54.6875 
L 18.109375 46.1875 
Q 20.953125 51.171875 25.484375 53.578125 
Q 30.03125 56 36.53125 56 
Q 37.453125 56 38.578125 55.875 
Q 39.703125 55.765625 41.0625 55.515625 
z
" id="DejaVuSans-114"/>
       <path d="M 9.421875 75.984375 
L 18.40625 75.984375 
L 18.40625 0 
L 9.421875 0 
z
" id="DejaVuSans-108"/>
       <path d="M 5.515625 54.6875 
L 48.1875 54.6875 
L 48.1875 46.484375 
L 14.40625 7.171875 
L 48.1875 7.171875 
L 48.1875 0 
L 4.296875 0 
L 4.296875 8.203125 
L 38.09375 47.515625 
L 5.515625 47.515625 
z
" id="DejaVuSans-122"/>
       <path d="M 19.671875 64.796875 
L 19.671875 37.40625 
L 32.078125 37.40625 
Q 38.96875 37.40625 42.71875 40.96875 
Q 46.484375 44.53125 46.484375 51.125 
Q 46.484375 57.671875 42.71875 61.234375 
Q 38.96875 64.796875 32.078125 64.796875 
z
M 9.8125 72.90625 
L 32.078125 72.90625 
Q 44.34375 72.90625 50.609375 67.359375 
Q 56.890625 61.8125 56.890625 51.125 
Q 56.890625 40.328125 50.609375 34.8125 
Q 44.34375 29.296875 32.078125 29.296875 
L 19.671875 29.296875 
L 19.671875 0 
L 9.8125 0 
z
" id="DejaVuSans-80"/>
       <path d="M 18.109375 8.203125 
L 18.109375 -20.796875 
L 9.078125 -20.796875 
L 9.078125 54.6875 
L 18.109375 54.6875 
L 18.109375 46.390625 
Q 20.953125 51.265625 25.265625 53.625 
Q 29.59375 56 35.59375 56 
Q 45.5625 56 51.78125 48.09375 
Q 58.015625 40.1875 58.015625 27.296875 
Q 58.015625 14.40625 51.78125 6.484375 
Q 45.5625 -1.421875 35.59375 -1.421875 
Q 29.59375 -1.421875 25.265625 0.953125 
Q 20.953125 3.328125 18.109375 8.203125 
z
M 48.6875 27.296875 
Q 48.6875 37.203125 44.609375 42.84375 
Q 40.53125 48.484375 33.40625 48.484375 
Q 26.265625 48.484375 22.1875 42.84375 
Q 18.109375 37.203125 18.109375 27.296875 
Q 18.109375 17.390625 22.1875 11.75 
Q 26.265625 6.109375 33.40625 6.109375 
Q 40.53125 6.109375 44.609375 11.75 
Q 48.6875 17.390625 48.6875 27.296875 
z
" id="DejaVuSans-112"/>
       <path d="M 8.5 21.578125 
L 8.5 54.6875 
L 17.484375 54.6875 
L 17.484375 21.921875 
Q 17.484375 14.15625 20.5 10.265625 
Q 23.53125 6.390625 29.59375 6.390625 
Q 36.859375 6.390625 41.078125 11.03125 
Q 45.3125 15.671875 45.3125 23.6875 
L 45.3125 54.6875 
L 54.296875 54.6875 
L 54.296875 0 
L 45.3125 0 
L 45.3125 8.40625 
Q 42.046875 3.421875 37.71875 1 
Q 33.40625 -1.421875 27.6875 -1.421875 
Q 18.265625 -1.421875 13.375 4.4375 
Q 8.5 10.296875 8.5 21.578125 
z
M 31.109375 56 
z
" id="DejaVuSans-117"/>
       <path d="M 18.3125 70.21875 
L 18.3125 54.6875 
L 36.8125 54.6875 
L 36.8125 47.703125 
L 18.3125 47.703125 
L 18.3125 18.015625 
Q 18.3125 11.328125 20.140625 9.421875 
Q 21.96875 7.515625 27.59375 7.515625 
L 36.8125 7.515625 
L 36.8125 0 
L 27.59375 0 
Q 17.1875 0 13.234375 3.875 
Q 9.28125 7.765625 9.28125 18.015625 
L 9.28125 47.703125 
L 2.6875 47.703125 
L 2.6875 54.6875 
L 9.28125 54.6875 
L 9.28125 70.21875 
z
" id="DejaVuSans-116"/>
       <path d="M 54.890625 33.015625 
L 54.890625 0 
L 45.90625 0 
L 45.90625 32.71875 
Q 45.90625 40.484375 42.875 44.328125 
Q 39.84375 48.1875 33.796875 48.1875 
Q 26.515625 48.1875 22.3125 43.546875 
Q 18.109375 38.921875 18.109375 30.90625 
L 18.109375 0 
L 9.078125 0 
L 9.078125 54.6875 
L 18.109375 54.6875 
L 18.109375 46.1875 
Q 21.34375 51.125 25.703125 53.5625 
Q 30.078125 56 35.796875 56 
Q 45.21875 56 50.046875 50.171875 
Q 54.890625 44.34375 54.890625 33.015625 
z
" id="DejaVuSans-110"/>
      </defs>
      <use xlink:href="#DejaVuSans-78"/>
      <use x="74.804688" xlink:href="#DejaVuSans-111"/>
      <use x="135.986328" xlink:href="#DejaVuSans-114"/>
      <use x="175.349609" xlink:href="#DejaVuSans-109"/>
      <use x="272.761719" xlink:href="#DejaVuSans-97"/>
      <use x="334.041016" xlink:href="#DejaVuSans-108"/>
      <use x="361.824219" xlink:href="#DejaVuSans-105"/>
      <use x="389.607422" xlink:href="#DejaVuSans-122"/>
      <use x="442.097656" xlink:href="#DejaVuSans-101"/>
      <use x="503.621094" xlink:href="#DejaVuSans-100"/>
      <use x="567.097656" xlink:href="#DejaVuSans-32"/>
      <use x="598.884766" xlink:href="#DejaVuSans-80"/>
      <use x="655.5625" xlink:href="#DejaVuSans-111"/>
      <use x="716.744141" xlink:href="#DejaVuSans-112"/>
      <use x="780.220703" xlink:href="#DejaVuSans-117"/>
      <use x="843.599609" xlink:href="#DejaVuSans-108"/>
      <use x="871.382812" xlink:href="#DejaVuSans-97"/>
      <use x="932.662109" xlink:href="#DejaVuSans-116"/>
      <use x="971.871094" xlink:href="#DejaVuSans-105"/>
      <use x="999.654297" xlink:href="#DejaVuSans-111"/>
      <use x="1060.835938" xlink:href="#DejaVuSans-110"/>
     </g>
    </g>
   </g>
   <g id="line2d_23">
    <path clip-path="url(#p357d355b70)" d="M 81.448784 197.197667 
L 92.029153 197.074971 
L 95.203264 196.8322 
L 97.248802 196.465013 
L 98.730054 195.988441 
L 99.929162 195.386563 
L 100.987199 194.614989 
L 101.9747 193.60696 
L 102.891665 192.331163 
L 103.738095 190.768724 
L 104.584524 188.728101 
L 105.430954 186.079687 
L 106.418455 182.850695 
L 110.227388 176.576448 
L 118.762219 162.347929 
L 121.230971 158.758975 
L 123.347045 156.066445 
L 125.180976 154.077799 
L 126.873835 152.557933 
L 128.425622 151.446565 
L 129.906874 150.643396 
L 131.388126 150.091955 
L 132.798842 149.796271 
L 134.280093 149.717849 
L 135.761345 149.86441 
L 137.313132 150.242013 
L 139.005991 150.89145 
L 140.839922 151.841936 
L 142.88546 153.159543 
L 145.283677 154.981977 
L 148.24618 157.534322 
L 152.407792 161.444989 
L 155.652438 164.437948 
L 157.13369 164.185966 
L 158.756013 163.677462 
L 160.589944 162.859519 
L 162.917625 161.558783 
L 169.406918 157.781947 
L 171.311384 157.013788 
L 173.004243 156.565727 
L 174.626567 156.369476 
L 176.178354 156.405151 
L 177.730142 156.658541 
L 179.352465 157.14642 
L 181.11586 157.914683 
L 183.020326 158.989198 
L 185.206936 160.482149 
L 187.887296 162.595926 
L 191.555157 165.796935 
L 202.06499 175.119374 
L 205.944459 178.18516 
L 209.61232 180.80307 
L 213.209645 183.094863 
L 216.806971 185.119143 
L 220.474832 186.923226 
L 224.213229 188.513999 
L 228.163233 189.950585 
L 232.324845 191.225388 
L 236.7686 192.353771 
L 241.63557 193.357402 
L 246.99629 194.232477 
L 253.062368 194.991404 
L 260.045412 195.632944 
L 268.2981 196.158962 
L 278.455254 196.57316 
L 291.715983 196.878317 
L 310.901719 197.078351 
L 345.182114 197.179086 
L 434.127749 197.200248 
L 434.127749 197.200248 
" style="fill:none;stroke:#000000;stroke-width:3;"/>
   </g>
   <g id="line2d_24">
    <path clip-path="url(#p357d355b70)" d="M 81.448784 197.197667 
L 92.014463 197.075596 
L 95.23459 196.828274 
L 97.27205 196.459217 
L 98.785545 195.96558 
L 100.0132 195.334677 
L 101.074941 194.538057 
L 102.022614 193.549274 
L 102.927058 192.273946 
L 103.789879 190.658811 
L 104.631293 188.598933 
L 105.473467 185.927972 
L 106.322392 182.464684 
L 107.186613 177.96386 
L 108.078689 172.08311 
L 109.017105 164.332156 
L 110.024279 154.059254 
L 111.152682 140.160055 
L 112.632962 118.908146 
L 115.45778 77.910001 
L 116.512939 65.983103 
L 117.381361 58.424359 
L 118.141179 53.578242 
L 118.795994 50.689606 
L 119.373615 49.066442 
L 119.83942 48.337775 
L 120.231961 48.091941 
L 120.588401 48.136495 
L 120.945265 48.415367 
L 121.411153 49.098754 
L 121.990021 50.391025 
L 122.726726 52.630022 
L 123.677104 56.28359 
L 125.002102 62.361922 
L 127.133079 73.352529 
L 131.75772 97.336243 
L 134.19377 108.705902 
L 136.485154 118.366093 
L 138.703314 126.774796 
L 140.919547 134.307866 
L 143.099761 140.942824 
L 145.302895 146.940487 
L 147.488094 152.258007 
L 149.70782 157.083088 
L 151.965234 161.457933 
L 154.215836 165.343419 
L 156.508356 168.86629 
L 158.844005 172.05424 
L 161.223691 174.933009 
L 163.694706 177.573487 
L 166.210913 179.940358 
L 168.819301 182.092803 
L 171.566728 184.070161 
L 174.453449 185.869429 
L 177.479753 187.49146 
L 180.692577 188.960055 
L 184.139109 190.289394 
L 187.86713 191.486932 
L 191.972491 192.567042 
L 196.508151 193.524574 
L 201.583896 194.363505 
L 207.388082 195.090874 
L 214.117591 195.704115 
L 222.217965 196.210814 
L 232.280147 196.608297 
L 245.583357 196.900159 
L 265.296291 197.090669 
L 301.714318 197.183361 
L 434.127749 197.200457 
L 434.127749 197.200457 
" style="fill:none;stroke:#ff0000;stroke-width:3;"/>
   </g>
   <g id="patch_3">
    <path d="M 70.868415 201.674085 
L 70.868415 43.605915 
" style="fill:none;stroke:#000000;stroke-linecap:square;stroke-linejoin:miter;"/>
   </g>
   <g id="patch_4">
    <path d="M 70.868415 201.674085 
L 444.708118 201.674085 
" style="fill:none;stroke:#000000;stroke-linecap:square;stroke-linejoin:miter;"/>
   </g>
   <g id="line2d_25">
    <path clip-path="url(#p357d355b70)" d="M 81.448784 197.197667 
L 125.946555 197.06551 
L 140.221708 196.811161 
L 149.311072 196.439635 
L 156.136559 195.947179 
L 161.626196 195.335767 
L 166.246941 194.606096 
L 170.318868 193.744999 
L 174.007111 192.741778 
L 177.396576 191.593213 
L 180.578472 190.284943 
L 183.653765 188.782791 
L 186.729693 187.027483 
L 189.760881 185.041628 
L 192.978578 182.662305 
L 196.566334 179.718615 
L 201.312474 175.505069 
L 208.069124 169.515182 
L 211.201311 167.050086 
L 213.778608 165.29571 
L 216.11741 163.970768 
L 218.291987 162.996867 
L 220.371731 162.314332 
L 222.301242 161.904948 
L 224.324865 161.706597 
L 226.297984 161.734608 
L 228.357931 161.98491 
L 230.515023 162.470423 
L 232.912528 163.249487 
L 235.45 164.309397 
L 238.425097 165.8007 
L 242.06012 167.888094 
L 247.306115 171.190859 
L 258.056648 178.003729 
L 263.137885 180.919124 
L 267.680734 183.274289 
L 272.094948 185.318567 
L 276.580014 187.149532 
L 281.169318 188.777718 
L 285.887661 190.21253 
L 290.877306 191.492715 
L 296.146842 192.612854 
L 301.82418 193.592243 
L 308.150018 194.453301 
L 315.239363 195.187668 
L 323.322643 195.797193 
L 332.974069 196.294769 
L 344.987445 196.680036 
L 360.947101 196.954268 
L 384.935045 197.122158 
L 433.295635 197.193075 
L 434.127749 197.193372 
L 434.127749 197.193372 
" style="fill:none;stroke:#0000ff;stroke-width:3;"/>
   </g>
   <g id="text_14">
    <!-- I(t)+Q(t) -->
    <g transform="translate(219.216079 37.605915)scale(0.22 -0.22)">
     <defs>
      <path d="M 1.609375 1.8125 
Q 7.71875 2.25 9.515625 3.640625 
Q 11.328125 5.03125 11.328125 10.84375 
L 11.328125 55.328125 
Q 11.328125 60.84375 9.515625 62.421875 
Q 7.71875 64.015625 1.609375 64.3125 
L 1.609375 66.15625 
L 31.203125 66.15625 
L 31.203125 64.3125 
Q 25.09375 64.015625 23.28125 62.421875 
Q 21.484375 60.84375 21.484375 55.328125 
L 21.484375 10.84375 
Q 21.484375 5.03125 23.28125 3.640625 
Q 25.09375 2.25 31.203125 1.8125 
L 31.203125 0 
L 1.609375 0 
z
M 16.40625 66.15625 
z
" id="Times-Roman-73"/>
      <path d="M 4.59375 25.09375 
Q 4.59375 42.09375 14.75 54.9375 
Q 21 62.796875 29.5 67.578125 
L 30.421875 65.96875 
Q 22.5625 59.71875 19.1875 53.8125 
Q 13.28125 43.5 13.28125 26.375 
Q 13.28125 13.671875 15.53125 5.421875 
Q 19.484375 -9.03125 30.421875 -16.21875 
L 29.15625 -17.828125 
Q 23.140625 -14.9375 16.15625 -6.546875 
Q 4.59375 7.375 4.59375 25.09375 
z
" id="Times-Roman-40"/>
      <path d="M 25.4375 45.015625 
L 25.4375 41.5 
L 15.484375 41.5 
L 15.375 13.375 
Q 15.375 9.671875 16.015625 7.765625 
Q 17.1875 4.390625 20.609375 4.390625 
Q 22.359375 4.390625 23.65625 5.21875 
Q 24.953125 6.0625 26.609375 7.859375 
L 27.875 6.78125 
L 26.8125 5.328125 
Q 24.265625 1.90625 21.4375 0.484375 
Q 18.609375 -0.921875 15.96875 -0.921875 
Q 10.203125 -0.921875 8.15625 4.203125 
Q 7.03125 6.984375 7.03125 11.921875 
L 7.03125 41.5 
L 1.703125 41.5 
Q 1.46875 41.65625 1.34375 41.796875 
Q 1.21875 41.9375 1.21875 42.1875 
Q 1.21875 42.671875 1.4375 42.9375 
Q 1.65625 43.21875 2.828125 44.1875 
Q 6.203125 46.96875 7.6875 48.703125 
Q 9.1875 50.4375 14.703125 57.859375 
Q 15.328125 57.859375 15.453125 57.765625 
Q 15.578125 57.671875 15.578125 57.03125 
L 15.578125 45.015625 
z
" id="Times-Roman-116"/>
      <path d="M 28.46875 24.609375 
Q 28.46875 17.328125 26.5625 10.828125 
Q 24.65625 4.34375 21 -1.421875 
Q 17.140625 -7.5625 10.6875 -12.890625 
Q 6.453125 -16.40625 3.5625 -17.828125 
L 2.640625 -16.21875 
Q 10.15625 -10.5 13.625 -4.546875 
Q 19.78125 6 19.78125 23.34375 
Q 19.78125 37.359375 16.9375 46.234375 
Q 12.984375 58.796875 2.640625 65.96875 
L 3.90625 67.578125 
Q 11.625 63.28125 18.265625 54.59375 
Q 28.46875 41.21875 28.46875 24.609375 
z
" id="Times-Roman-41"/>
      <path d="M 24.859375 50.53125 
L 31.6875 50.53125 
L 31.6875 28.65625 
L 53.46875 28.65625 
L 53.46875 21.828125 
L 31.6875 21.828125 
L 31.6875 0 
L 24.859375 0 
L 24.859375 21.828125 
L 2.984375 21.828125 
L 2.984375 28.65625 
L 24.859375 28.65625 
z
" id="Times-Roman-43"/>
      <path d="M 14.3125 33.0625 
Q 14.3125 17.28125 20.5 9.734375 
Q 26.703125 2.203125 35.75 2.203125 
Q 44.578125 2.203125 50.84375 9.546875 
Q 57.125 16.890625 57.125 33.0625 
Q 57.125 49.421875 50.78125 56.6875 
Q 44.4375 63.96875 35.75 63.96875 
Q 26.765625 63.96875 20.53125 56.421875 
Q 14.3125 48.875 14.3125 33.0625 
z
M 2.984375 33.0625 
Q 2.984375 49.078125 13.03125 58.734375 
Q 22.265625 67.578125 35.75 67.578125 
Q 49.03125 67.578125 58.296875 58.84375 
Q 68.5 49.21875 68.5 33.0625 
Q 68.5 20.265625 62.015625 11.421875 
Q 54.984375 1.90625 42.09375 -0.59375 
Q 48.140625 -9.328125 56.734375 -12.984375 
Q 61.578125 -15.046875 69.78125 -16.015625 
L 69.78125 -17.828125 
L 65.671875 -17.828125 
Q 57.5625 -17.828125 51.28125 -16.5 
Q 45.015625 -15.1875 39.890625 -12.5 
Q 34.765625 -9.859375 30.390625 -5.171875 
Q 26.03125 -0.484375 25.53125 -0.25 
L 24.265625 0.34375 
Q 15.96875 4.203125 11.421875 9.125 
Q 2.984375 18.265625 2.984375 33.0625 
z
" id="Times-Roman-81"/>
     </defs>
     <use xlink:href="#Times-Roman-73"/>
     <use x="33.300781" xlink:href="#Times-Roman-40"/>
     <use x="66.601562" xlink:href="#Times-Roman-116"/>
     <use x="94.384766" xlink:href="#Times-Roman-41"/>
     <use x="127.685547" xlink:href="#Times-Roman-43"/>
     <use x="184.082031" xlink:href="#Times-Roman-81"/>
     <use x="256.298828" xlink:href="#Times-Roman-40"/>
     <use x="289.599609" xlink:href="#Times-Roman-116"/>
     <use x="317.382812" xlink:href="#Times-Roman-41"/>
    </g>
   </g>
   <g id="line2d_26">
    <path clip-path="url(#p357d355b70)" d="M 81.448784 71.428979 
L 105.430954 71.428979 
L 106.136312 134.314728 
L 155.511367 134.314728 
L 156.216725 71.428979 
L 434.127749 71.428979 
L 434.127749 71.428979 
" style="fill:none;stroke:#000000;stroke-dasharray:14.8,6.4;stroke-dashoffset:0;stroke-width:4;"/>
   </g>
  </g>
 </g>
 <defs>
  <clipPath id="p357d355b70">
   <rect height="158.068169" width="373.839702" x="70.868415" y="43.605915"/>
  </clipPath>
 </defs>
</svg>
