<?xml version="1.0" encoding="utf-8" standalone="no"?>
<!DOCTYPE svg PUBLIC "-//W3C//DTD SVG 1.1//EN"
  "http://www.w3.org/Graphics/SVG/1.1/DTD/svg11.dtd">
<!-- Created with matplotlib (https://matplotlib.org/) -->
<svg height="288pt" version="1.1" viewBox="0 0 432 288" width="432pt" xmlns="http://www.w3.org/2000/svg" xmlns:xlink="http://www.w3.org/1999/xlink">
 <metadata>
  <rdf:RDF xmlns:cc="http://creativecommons.org/ns#" xmlns:dc="http://purl.org/dc/elements/1.1/" xmlns:rdf="http://www.w3.org/1999/02/22-rdf-syntax-ns#">
   <cc:Work>
    <dc:type rdf:resource="http://purl.org/dc/dcmitype/StillImage"/>
    <dc:date>2021-03-08T11:00:49.378532</dc:date>
    <dc:format>image/svg+xml</dc:format>
    <dc:creator>
     <cc:Agent>
      <dc:title>Matplotlib v3.3.4, https://matplotlib.org/</dc:title>
     </cc:Agent>
    </dc:creator>
   </cc:Work>
  </rdf:RDF>
 </metadata>
 <defs>
  <style type="text/css">*{stroke-linecap:butt;stroke-linejoin:round;}</style>
 </defs>
 <g id="figure_1">
  <g id="patch_1">
   <path d="M 0 288 
L 432 288 
L 432 0 
L 0 0 
z
" style="fill:#ffffff;"/>
  </g>
  <g id="axes_1">
   <g id="patch_2">
    <path d="M 75.177165 223.274085 
L 409.322835 223.274085 
L 409.322835 43.605915 
L 75.177165 43.605915 
z
" style="fill:#ffffff;"/>
   </g>
   <g id="matplotlib.axis_1">
    <g id="xtick_1">
     <g id="line2d_1">
      <path clip-path="url(#p1c897d0cba)" d="M 75.177165 223.274085 
L 75.177165 43.605915 
" style="fill:none;stroke:#000000;stroke-linecap:square;stroke-opacity:0.1;stroke-width:0.5;"/>
     </g>
     <g id="line2d_2">
      <defs>
       <path d="M 0 0 
L 0 -2.5 
" id="m4f9da04746" style="stroke:#000000;stroke-width:0.5;"/>
      </defs>
      <g>
       <use style="stroke:#000000;stroke-width:0.5;" x="75.177165" xlink:href="#m4f9da04746" y="223.274085"/>
      </g>
     </g>
     <g id="text_1">
      <!-- $\mathregular{0}$ -->
      <g transform="translate(70.677165 239.115335)scale(0.18 -0.18)">
       <defs>
        <path d="M 23.921875 1.8125 
Q 31.109375 1.8125 33.78125 9.671875 
Q 36.46875 17.53125 36.46875 32.421875 
Q 36.46875 44.28125 34.859375 51.375 
Q 31.84375 64.546875 23.53125 64.546875 
Q 15.234375 64.546875 12.15625 50.984375 
Q 10.546875 43.75 10.546875 31.9375 
Q 10.546875 20.84375 12.203125 14.203125 
Q 15.328125 1.8125 23.921875 1.8125 
z
M 23.78125 67.1875 
Q 35.015625 67.1875 41.21875 55.421875 
Q 46.140625 45.90625 46.140625 33.546875 
Q 46.140625 23.828125 43.109375 15.234375 
Q 37.40625 -0.921875 23.34375 -0.921875 
Q 13.71875 -0.921875 7.515625 7.8125 
Q 0.875 17.140625 0.875 33.15625 
Q 0.875 45.75 5.328125 54.828125 
Q 11.328125 67.1875 23.78125 67.1875 
z
" id="Times-Roman-48"/>
       </defs>
       <use transform="translate(0 0.8125)" xlink:href="#Times-Roman-48"/>
      </g>
     </g>
    </g>
    <g id="xtick_2">
     <g id="line2d_3">
      <path clip-path="url(#p1c897d0cba)" d="M 125.805297 223.274085 
L 125.805297 43.605915 
" style="fill:none;stroke:#000000;stroke-linecap:square;stroke-opacity:0.1;stroke-width:0.5;"/>
     </g>
     <g id="line2d_4">
      <g>
       <use style="stroke:#000000;stroke-width:0.5;" x="125.805297" xlink:href="#m4f9da04746" y="223.274085"/>
      </g>
     </g>
     <g id="text_2">
      <!-- $\mathregular{10}$ -->
      <g transform="translate(116.805297 239.115335)scale(0.18 -0.18)">
       <defs>
        <path d="M 29.59375 67.09375 
Q 29.78125 66.84375 29.796875 66.71875 
Q 29.828125 66.609375 29.828125 66.15625 
L 29.828125 7.375 
Q 29.828125 3.609375 31.828125 2.578125 
Q 33.84375 1.5625 39.3125 1.375 
L 39.3125 0 
L 11.765625 0 
L 11.765625 1.46875 
Q 17.671875 1.765625 19.484375 3.078125 
Q 21.296875 4.390625 21.296875 8.796875 
L 21.296875 54 
Q 21.296875 56.34375 20.703125 57.5625 
Q 20.125 58.796875 18.171875 58.796875 
Q 16.890625 58.796875 14.859375 58.078125 
Q 12.84375 57.375 11.078125 56.59375 
L 11.078125 57.953125 
L 29 67.09375 
L 29.59375 67.09375 
z
" id="Times-Roman-49"/>
       </defs>
       <use transform="translate(0 0.8125)" xlink:href="#Times-Roman-49"/>
       <use transform="translate(50 0.8125)" xlink:href="#Times-Roman-48"/>
      </g>
     </g>
    </g>
    <g id="xtick_3">
     <g id="line2d_5">
      <path clip-path="url(#p1c897d0cba)" d="M 176.433429 223.274085 
L 176.433429 43.605915 
" style="fill:none;stroke:#000000;stroke-linecap:square;stroke-opacity:0.1;stroke-width:0.5;"/>
     </g>
     <g id="line2d_6">
      <g>
       <use style="stroke:#000000;stroke-width:0.5;" x="176.433429" xlink:href="#m4f9da04746" y="223.274085"/>
      </g>
     </g>
     <g id="text_3">
      <!-- $\mathregular{20}$ -->
      <g transform="translate(167.433429 239.115335)scale(0.18 -0.18)">
       <defs>
        <path d="M 2.984375 1.125 
Q 20.84375 19.671875 27.234375 28.359375 
Q 33.640625 37.0625 33.640625 45.3125 
Q 33.640625 52.546875 29.734375 56.328125 
Q 25.828125 60.109375 20.40625 60.109375 
Q 13.71875 60.109375 9.578125 55.21875 
Q 7.28125 52.546875 5.171875 46.96875 
L 3.078125 47.40625 
Q 5.515625 58.640625 11.34375 63.015625 
Q 17.1875 67.390625 23.875 67.390625 
Q 32.125 67.390625 37.21875 62.1875 
Q 42.328125 56.984375 42.328125 49.46875 
Q 42.328125 41.453125 36.8125 34.03125 
Q 31.296875 26.609375 12.84375 7.625 
L 35.25 7.625 
Q 39.9375 7.625 41.84375 8.734375 
Q 43.75 9.859375 46.140625 14.203125 
L 47.40625 13.625 
L 42 0 
L 2.984375 0 
z
" id="Times-Roman-50"/>
       </defs>
       <use transform="translate(0 0.609375)" xlink:href="#Times-Roman-50"/>
       <use transform="translate(50 0.609375)" xlink:href="#Times-Roman-48"/>
      </g>
     </g>
    </g>
    <g id="xtick_4">
     <g id="line2d_7">
      <path clip-path="url(#p1c897d0cba)" d="M 227.06156 223.274085 
L 227.06156 43.605915 
" style="fill:none;stroke:#000000;stroke-linecap:square;stroke-opacity:0.1;stroke-width:0.5;"/>
     </g>
     <g id="line2d_8">
      <g>
       <use style="stroke:#000000;stroke-width:0.5;" x="227.06156" xlink:href="#m4f9da04746" y="223.274085"/>
      </g>
     </g>
     <g id="text_4">
      <!-- $\mathregular{30}$ -->
      <g transform="translate(218.06156 239.115335)scale(0.18 -0.18)">
       <defs>
        <path d="M 7.765625 8.5 
Q 10.453125 8.5 14.859375 5.71875 
Q 19.28125 2.9375 22.359375 2.9375 
Q 29.203125 2.9375 32.515625 7.546875 
Q 35.84375 12.15625 35.84375 17.578125 
Q 35.84375 22.796875 33.15625 26.765625 
Q 28.609375 33.453125 17.828125 33.453125 
Q 17.1875 33.453125 16.59375 33.421875 
Q 16.015625 33.40625 15.234375 33.296875 
L 15.140625 34.578125 
Q 22.953125 37.40625 27.4375 41.0625 
Q 31.9375 44.734375 31.9375 50.734375 
Q 31.9375 56.0625 28.390625 58.84375 
Q 24.859375 61.625 20.3125 61.625 
Q 14.9375 61.625 10.84375 57.671875 
Q 8.59375 55.515625 6 51.03125 
L 4.5 51.375 
Q 6.453125 58.796875 11.765625 63.234375 
Q 17.09375 67.671875 24.078125 67.671875 
Q 31.546875 67.671875 35.625 63.5625 
Q 39.703125 59.46875 39.703125 54.109375 
Q 39.703125 49.359375 36.328125 45.40625 
Q 34.421875 43.171875 30.421875 40.375 
Q 35.109375 38.375 37.9375 35.6875 
Q 43.265625 30.5625 43.265625 22.703125 
Q 43.265625 13.421875 35.953125 6.34375 
Q 28.65625 -0.734375 15.1875 -0.734375 
Q 9.1875 -0.734375 6.765625 1.046875 
Q 4.34375 2.828125 4.34375 4.890625 
Q 4.34375 6.15625 5.140625 7.328125 
Q 5.953125 8.5 7.765625 8.5 
z
" id="Times-Roman-51"/>
       </defs>
       <use transform="translate(0 0.328125)" xlink:href="#Times-Roman-51"/>
       <use transform="translate(50 0.328125)" xlink:href="#Times-Roman-48"/>
      </g>
     </g>
    </g>
    <g id="xtick_5">
     <g id="line2d_9">
      <path clip-path="url(#p1c897d0cba)" d="M 277.689692 223.274085 
L 277.689692 43.605915 
" style="fill:none;stroke:#000000;stroke-linecap:square;stroke-opacity:0.1;stroke-width:0.5;"/>
     </g>
     <g id="line2d_10">
      <g>
       <use style="stroke:#000000;stroke-width:0.5;" x="277.689692" xlink:href="#m4f9da04746" y="223.274085"/>
      </g>
     </g>
     <g id="text_5">
      <!-- $\mathregular{40}$ -->
      <g transform="translate(268.689692 239.115335)scale(0.18 -0.18)">
       <defs>
        <path d="M 29.15625 57.03125 
L 5.171875 23.140625 
L 29.15625 23.140625 
z
M 32.375 67.09375 
L 37.015625 67.09375 
L 37.015625 23.140625 
L 47.21875 23.140625 
L 47.21875 16.65625 
L 37.015625 16.65625 
L 37.015625 0 
L 29.25 0 
L 29.25 16.65625 
L 1.125 16.65625 
L 1.125 23.140625 
z
" id="Times-Roman-52"/>
       </defs>
       <use transform="translate(0 0.8125)" xlink:href="#Times-Roman-52"/>
       <use transform="translate(50 0.8125)" xlink:href="#Times-Roman-48"/>
      </g>
     </g>
    </g>
    <g id="xtick_6">
     <g id="line2d_11">
      <path clip-path="url(#p1c897d0cba)" d="M 328.317824 223.274085 
L 328.317824 43.605915 
" style="fill:none;stroke:#000000;stroke-linecap:square;stroke-opacity:0.1;stroke-width:0.5;"/>
     </g>
     <g id="line2d_12">
      <g>
       <use style="stroke:#000000;stroke-width:0.5;" x="328.317824" xlink:href="#m4f9da04746" y="223.274085"/>
      </g>
     </g>
     <g id="text_6">
      <!-- $\mathregular{50}$ -->
      <g transform="translate(319.317824 239.115335)scale(0.18 -0.18)">
       <defs>
        <path d="M 7.46875 8.9375 
Q 10.25 8.9375 14.765625 5.78125 
Q 19.28125 2.640625 21.734375 2.640625 
Q 27.34375 2.640625 31.546875 7.59375 
Q 35.75 12.546875 35.75 19.78125 
Q 35.75 32.421875 22.265625 37.984375 
Q 14.796875 41.0625 8.34375 41.0625 
Q 7.28125 41.0625 7 41.140625 
Q 6.734375 41.21875 6.34375 41.65625 
Q 6.453125 42.046875 6.515625 42.3125 
Q 6.59375 42.578125 6.6875 42.828125 
L 17.328125 66.15625 
L 38.28125 66.15625 
Q 39.84375 66.15625 40.6875 66.6875 
Q 41.546875 67.234375 42.921875 68.703125 
L 43.703125 68.015625 
L 39.890625 58.984375 
Q 39.703125 58.546875 38.8125 58.421875 
Q 37.9375 58.296875 36.921875 58.296875 
L 18.015625 58.296875 
L 13.875 49.75 
Q 21.875 48.390625 25.59375 47.171875 
Q 31.6875 45.125 35.796875 41.109375 
Q 39.3125 37.640625 41.109375 33.3125 
Q 42.921875 29 42.921875 24.171875 
Q 42.921875 13.375 35.234375 6.140625 
Q 27.546875 -1.078125 15.765625 -1.078125 
Q 10.984375 -1.078125 8.0625 -0.140625 
Q 3.171875 1.375 3.171875 5.28125 
Q 3.171875 6.734375 4.21875 7.828125 
Q 5.28125 8.9375 7.46875 8.9375 
z
" id="Times-Roman-53"/>
       </defs>
       <use transform="translate(0 0.296875)" xlink:href="#Times-Roman-53"/>
       <use transform="translate(50 0.296875)" xlink:href="#Times-Roman-48"/>
      </g>
     </g>
    </g>
    <g id="xtick_7">
     <g id="line2d_13">
      <path clip-path="url(#p1c897d0cba)" d="M 378.945956 223.274085 
L 378.945956 43.605915 
" style="fill:none;stroke:#000000;stroke-linecap:square;stroke-opacity:0.1;stroke-width:0.5;"/>
     </g>
     <g id="line2d_14">
      <g>
       <use style="stroke:#000000;stroke-width:0.5;" x="378.945956" xlink:href="#m4f9da04746" y="223.274085"/>
      </g>
     </g>
     <g id="text_7">
      <!-- $\mathregular{60}$ -->
      <g transform="translate(369.945956 239.115335)scale(0.18 -0.18)">
       <defs>
        <path d="M 46.78125 22.21875 
Q 46.78125 13.28125 41.03125 6.09375 
Q 35.296875 -1.078125 26.125 -1.078125 
Q 17.53125 -1.078125 10.46875 6.984375 
Q 3.421875 15.046875 3.421875 28.421875 
Q 3.421875 45.65625 17.09375 58.015625 
Q 29.296875 68.359375 44.53125 68.359375 
L 44.78125 66.75 
Q 38.671875 65.625 34.25 63.6875 
Q 29.828125 61.765625 26.375 58.296875 
Q 22.796875 54.78125 19.671875 49.359375 
Q 16.546875 43.953125 15.375 38.625 
Q 18.40625 40.484375 20.609375 41.359375 
Q 24.515625 42.921875 28.46875 42.921875 
Q 36.234375 42.921875 41.5 37.546875 
Q 46.78125 32.171875 46.78125 22.21875 
z
M 37.84375 18.453125 
Q 37.84375 24.953125 35.796875 29.984375 
Q 32.375 38.375 24.171875 38.375 
Q 16.609375 38.375 14.109375 33.890625 
Q 12.640625 31.25 12.640625 25.09375 
Q 12.640625 17.140625 16.03125 9.515625 
Q 19.4375 1.90625 26.765625 1.90625 
Q 32.5625 1.90625 35.203125 6.859375 
Q 37.84375 11.8125 37.84375 18.453125 
z
" id="Times-Roman-54"/>
       </defs>
       <use transform="translate(0 0.640625)" xlink:href="#Times-Roman-54"/>
       <use transform="translate(50 0.640625)" xlink:href="#Times-Roman-48"/>
      </g>
     </g>
    </g>
    <g id="text_8">
     <!-- SD Start Time ts [days] -->
     <g transform="translate(137.675625 260.713147)scale(0.18 -0.18)">
      <defs>
       <path d="M 53.515625 70.515625 
L 53.515625 60.890625 
Q 47.90625 63.578125 42.921875 64.890625 
Q 37.9375 66.21875 33.296875 66.21875 
Q 25.25 66.21875 20.875 63.09375 
Q 16.5 59.96875 16.5 54.203125 
Q 16.5 49.359375 19.40625 46.890625 
Q 22.3125 44.4375 30.421875 42.921875 
L 36.375 41.703125 
Q 47.40625 39.59375 52.65625 34.296875 
Q 57.90625 29 57.90625 20.125 
Q 57.90625 9.515625 50.796875 4.046875 
Q 43.703125 -1.421875 29.984375 -1.421875 
Q 24.8125 -1.421875 18.96875 -0.25 
Q 13.140625 0.921875 6.890625 3.21875 
L 6.890625 13.375 
Q 12.890625 10.015625 18.65625 8.296875 
Q 24.421875 6.59375 29.984375 6.59375 
Q 38.421875 6.59375 43.015625 9.90625 
Q 47.609375 13.234375 47.609375 19.390625 
Q 47.609375 24.75 44.3125 27.78125 
Q 41.015625 30.8125 33.5 32.328125 
L 27.484375 33.5 
Q 16.453125 35.6875 11.515625 40.375 
Q 6.59375 45.0625 6.59375 53.421875 
Q 6.59375 63.09375 13.40625 68.65625 
Q 20.21875 74.21875 32.171875 74.21875 
Q 37.3125 74.21875 42.625 73.28125 
Q 47.953125 72.359375 53.515625 70.515625 
z
" id="DejaVuSans-83"/>
       <path d="M 19.671875 64.796875 
L 19.671875 8.109375 
L 31.59375 8.109375 
Q 46.6875 8.109375 53.6875 14.9375 
Q 60.6875 21.78125 60.6875 36.53125 
Q 60.6875 51.171875 53.6875 57.984375 
Q 46.6875 64.796875 31.59375 64.796875 
z
M 9.8125 72.90625 
L 30.078125 72.90625 
Q 51.265625 72.90625 61.171875 64.09375 
Q 71.09375 55.28125 71.09375 36.53125 
Q 71.09375 17.671875 61.125 8.828125 
Q 51.171875 0 30.078125 0 
L 9.8125 0 
z
" id="DejaVuSans-68"/>
       <path id="DejaVuSans-32"/>
       <path d="M 18.3125 70.21875 
L 18.3125 54.6875 
L 36.8125 54.6875 
L 36.8125 47.703125 
L 18.3125 47.703125 
L 18.3125 18.015625 
Q 18.3125 11.328125 20.140625 9.421875 
Q 21.96875 7.515625 27.59375 7.515625 
L 36.8125 7.515625 
L 36.8125 0 
L 27.59375 0 
Q 17.1875 0 13.234375 3.875 
Q 9.28125 7.765625 9.28125 18.015625 
L 9.28125 47.703125 
L 2.6875 47.703125 
L 2.6875 54.6875 
L 9.28125 54.6875 
L 9.28125 70.21875 
z
" id="DejaVuSans-116"/>
       <path d="M 34.28125 27.484375 
Q 23.390625 27.484375 19.1875 25 
Q 14.984375 22.515625 14.984375 16.5 
Q 14.984375 11.71875 18.140625 8.90625 
Q 21.296875 6.109375 26.703125 6.109375 
Q 34.1875 6.109375 38.703125 11.40625 
Q 43.21875 16.703125 43.21875 25.484375 
L 43.21875 27.484375 
z
M 52.203125 31.203125 
L 52.203125 0 
L 43.21875 0 
L 43.21875 8.296875 
Q 40.140625 3.328125 35.546875 0.953125 
Q 30.953125 -1.421875 24.3125 -1.421875 
Q 15.921875 -1.421875 10.953125 3.296875 
Q 6 8.015625 6 15.921875 
Q 6 25.140625 12.171875 29.828125 
Q 18.359375 34.515625 30.609375 34.515625 
L 43.21875 34.515625 
L 43.21875 35.40625 
Q 43.21875 41.609375 39.140625 45 
Q 35.0625 48.390625 27.6875 48.390625 
Q 23 48.390625 18.546875 47.265625 
Q 14.109375 46.140625 10.015625 43.890625 
L 10.015625 52.203125 
Q 14.9375 54.109375 19.578125 55.046875 
Q 24.21875 56 28.609375 56 
Q 40.484375 56 46.34375 49.84375 
Q 52.203125 43.703125 52.203125 31.203125 
z
" id="DejaVuSans-97"/>
       <path d="M 41.109375 46.296875 
Q 39.59375 47.171875 37.8125 47.578125 
Q 36.03125 48 33.890625 48 
Q 26.265625 48 22.1875 43.046875 
Q 18.109375 38.09375 18.109375 28.8125 
L 18.109375 0 
L 9.078125 0 
L 9.078125 54.6875 
L 18.109375 54.6875 
L 18.109375 46.1875 
Q 20.953125 51.171875 25.484375 53.578125 
Q 30.03125 56 36.53125 56 
Q 37.453125 56 38.578125 55.875 
Q 39.703125 55.765625 41.0625 55.515625 
z
" id="DejaVuSans-114"/>
       <path d="M -0.296875 72.90625 
L 61.375 72.90625 
L 61.375 64.59375 
L 35.5 64.59375 
L 35.5 0 
L 25.59375 0 
L 25.59375 64.59375 
L -0.296875 64.59375 
z
" id="DejaVuSans-84"/>
       <path d="M 9.421875 54.6875 
L 18.40625 54.6875 
L 18.40625 0 
L 9.421875 0 
z
M 9.421875 75.984375 
L 18.40625 75.984375 
L 18.40625 64.59375 
L 9.421875 64.59375 
z
" id="DejaVuSans-105"/>
       <path d="M 52 44.1875 
Q 55.375 50.25 60.0625 53.125 
Q 64.75 56 71.09375 56 
Q 79.640625 56 84.28125 50.015625 
Q 88.921875 44.046875 88.921875 33.015625 
L 88.921875 0 
L 79.890625 0 
L 79.890625 32.71875 
Q 79.890625 40.578125 77.09375 44.375 
Q 74.3125 48.1875 68.609375 48.1875 
Q 61.625 48.1875 57.5625 43.546875 
Q 53.515625 38.921875 53.515625 30.90625 
L 53.515625 0 
L 44.484375 0 
L 44.484375 32.71875 
Q 44.484375 40.625 41.703125 44.40625 
Q 38.921875 48.1875 33.109375 48.1875 
Q 26.21875 48.1875 22.15625 43.53125 
Q 18.109375 38.875 18.109375 30.90625 
L 18.109375 0 
L 9.078125 0 
L 9.078125 54.6875 
L 18.109375 54.6875 
L 18.109375 46.1875 
Q 21.1875 51.21875 25.484375 53.609375 
Q 29.78125 56 35.6875 56 
Q 41.65625 56 45.828125 52.96875 
Q 50 49.953125 52 44.1875 
z
" id="DejaVuSans-109"/>
       <path d="M 56.203125 29.59375 
L 56.203125 25.203125 
L 14.890625 25.203125 
Q 15.484375 15.921875 20.484375 11.0625 
Q 25.484375 6.203125 34.421875 6.203125 
Q 39.59375 6.203125 44.453125 7.46875 
Q 49.3125 8.734375 54.109375 11.28125 
L 54.109375 2.78125 
Q 49.265625 0.734375 44.1875 -0.34375 
Q 39.109375 -1.421875 33.890625 -1.421875 
Q 20.796875 -1.421875 13.15625 6.1875 
Q 5.515625 13.8125 5.515625 26.8125 
Q 5.515625 40.234375 12.765625 48.109375 
Q 20.015625 56 32.328125 56 
Q 43.359375 56 49.78125 48.890625 
Q 56.203125 41.796875 56.203125 29.59375 
z
M 47.21875 32.234375 
Q 47.125 39.59375 43.09375 43.984375 
Q 39.0625 48.390625 32.421875 48.390625 
Q 24.90625 48.390625 20.390625 44.140625 
Q 15.875 39.890625 15.1875 32.171875 
z
" id="DejaVuSans-101"/>
       <path d="M 44.28125 53.078125 
L 44.28125 44.578125 
Q 40.484375 46.53125 36.375 47.5 
Q 32.28125 48.484375 27.875 48.484375 
Q 21.1875 48.484375 17.84375 46.4375 
Q 14.5 44.390625 14.5 40.28125 
Q 14.5 37.15625 16.890625 35.375 
Q 19.28125 33.59375 26.515625 31.984375 
L 29.59375 31.296875 
Q 39.15625 29.25 43.1875 25.515625 
Q 47.21875 21.78125 47.21875 15.09375 
Q 47.21875 7.46875 41.1875 3.015625 
Q 35.15625 -1.421875 24.609375 -1.421875 
Q 20.21875 -1.421875 15.453125 -0.5625 
Q 10.6875 0.296875 5.421875 2 
L 5.421875 11.28125 
Q 10.40625 8.6875 15.234375 7.390625 
Q 20.0625 6.109375 24.8125 6.109375 
Q 31.15625 6.109375 34.5625 8.28125 
Q 37.984375 10.453125 37.984375 14.40625 
Q 37.984375 18.0625 35.515625 20.015625 
Q 33.0625 21.96875 24.703125 23.78125 
L 21.578125 24.515625 
Q 13.234375 26.265625 9.515625 29.90625 
Q 5.8125 33.546875 5.8125 39.890625 
Q 5.8125 47.609375 11.28125 51.796875 
Q 16.75 56 26.8125 56 
Q 31.78125 56 36.171875 55.265625 
Q 40.578125 54.546875 44.28125 53.078125 
z
" id="DejaVuSans-115"/>
       <path d="M 8.59375 75.984375 
L 29.296875 75.984375 
L 29.296875 69 
L 17.578125 69 
L 17.578125 -6.203125 
L 29.296875 -6.203125 
L 29.296875 -13.1875 
L 8.59375 -13.1875 
z
" id="DejaVuSans-91"/>
       <path d="M 45.40625 46.390625 
L 45.40625 75.984375 
L 54.390625 75.984375 
L 54.390625 0 
L 45.40625 0 
L 45.40625 8.203125 
Q 42.578125 3.328125 38.25 0.953125 
Q 33.9375 -1.421875 27.875 -1.421875 
Q 17.96875 -1.421875 11.734375 6.484375 
Q 5.515625 14.40625 5.515625 27.296875 
Q 5.515625 40.1875 11.734375 48.09375 
Q 17.96875 56 27.875 56 
Q 33.9375 56 38.25 53.625 
Q 42.578125 51.265625 45.40625 46.390625 
z
M 14.796875 27.296875 
Q 14.796875 17.390625 18.875 11.75 
Q 22.953125 6.109375 30.078125 6.109375 
Q 37.203125 6.109375 41.296875 11.75 
Q 45.40625 17.390625 45.40625 27.296875 
Q 45.40625 37.203125 41.296875 42.84375 
Q 37.203125 48.484375 30.078125 48.484375 
Q 22.953125 48.484375 18.875 42.84375 
Q 14.796875 37.203125 14.796875 27.296875 
z
" id="DejaVuSans-100"/>
       <path d="M 32.171875 -5.078125 
Q 28.375 -14.84375 24.75 -17.8125 
Q 21.140625 -20.796875 15.09375 -20.796875 
L 7.90625 -20.796875 
L 7.90625 -13.28125 
L 13.1875 -13.28125 
Q 16.890625 -13.28125 18.9375 -11.515625 
Q 21 -9.765625 23.484375 -3.21875 
L 25.09375 0.875 
L 2.984375 54.6875 
L 12.5 54.6875 
L 29.59375 11.921875 
L 46.6875 54.6875 
L 56.203125 54.6875 
z
" id="DejaVuSans-121"/>
       <path d="M 30.421875 75.984375 
L 30.421875 -13.1875 
L 9.71875 -13.1875 
L 9.71875 -6.203125 
L 21.390625 -6.203125 
L 21.390625 69 
L 9.71875 69 
L 9.71875 75.984375 
z
" id="DejaVuSans-93"/>
      </defs>
      <use xlink:href="#DejaVuSans-83"/>
      <use x="63.476562" xlink:href="#DejaVuSans-68"/>
      <use x="140.478516" xlink:href="#DejaVuSans-32"/>
      <use x="172.265625" xlink:href="#DejaVuSans-83"/>
      <use x="235.742188" xlink:href="#DejaVuSans-116"/>
      <use x="274.951172" xlink:href="#DejaVuSans-97"/>
      <use x="336.230469" xlink:href="#DejaVuSans-114"/>
      <use x="377.34375" xlink:href="#DejaVuSans-116"/>
      <use x="416.552734" xlink:href="#DejaVuSans-32"/>
      <use x="448.339844" xlink:href="#DejaVuSans-84"/>
      <use x="506.298828" xlink:href="#DejaVuSans-105"/>
      <use x="534.082031" xlink:href="#DejaVuSans-109"/>
      <use x="631.494141" xlink:href="#DejaVuSans-101"/>
      <use x="693.017578" xlink:href="#DejaVuSans-32"/>
      <use x="724.804688" xlink:href="#DejaVuSans-116"/>
      <use x="764.013672" xlink:href="#DejaVuSans-115"/>
      <use x="816.113281" xlink:href="#DejaVuSans-32"/>
      <use x="847.900391" xlink:href="#DejaVuSans-91"/>
      <use x="886.914062" xlink:href="#DejaVuSans-100"/>
      <use x="950.390625" xlink:href="#DejaVuSans-97"/>
      <use x="1011.669922" xlink:href="#DejaVuSans-121"/>
      <use x="1070.849609" xlink:href="#DejaVuSans-115"/>
      <use x="1122.949219" xlink:href="#DejaVuSans-93"/>
     </g>
    </g>
   </g>
   <g id="matplotlib.axis_2">
    <g id="ytick_1">
     <g id="line2d_15">
      <path clip-path="url(#p1c897d0cba)" d="M 75.177165 223.274085 
L 409.322835 223.274085 
" style="fill:none;stroke:#000000;stroke-linecap:square;stroke-opacity:0.1;stroke-width:0.5;"/>
     </g>
     <g id="line2d_16">
      <defs>
       <path d="M 0 0 
L 2.5 0 
" id="m80c1c4aa82" style="stroke:#000000;stroke-width:0.5;"/>
      </defs>
      <g>
       <use style="stroke:#000000;stroke-width:0.5;" x="75.177165" xlink:href="#m80c1c4aa82" y="223.274085"/>
      </g>
     </g>
     <g id="text_9">
      <!-- $\mathregular{0}$ -->
      <g transform="translate(62.677165 229.44471)scale(0.18 -0.18)">
       <use transform="translate(0 0.8125)" xlink:href="#Times-Roman-48"/>
      </g>
     </g>
    </g>
    <g id="ytick_2">
     <g id="line2d_17">
      <path clip-path="url(#p1c897d0cba)" d="M 75.177165 186.456837 
L 409.322835 186.456837 
" style="fill:none;stroke:#000000;stroke-linecap:square;stroke-opacity:0.1;stroke-width:0.5;"/>
     </g>
     <g id="line2d_18">
      <g>
       <use style="stroke:#000000;stroke-width:0.5;" x="75.177165" xlink:href="#m80c1c4aa82" y="186.456837"/>
      </g>
     </g>
     <g id="text_10">
      <!-- $\mathregular{50}$ -->
      <g transform="translate(53.677165 192.627462)scale(0.18 -0.18)">
       <use transform="translate(0 0.296875)" xlink:href="#Times-Roman-53"/>
       <use transform="translate(50 0.296875)" xlink:href="#Times-Roman-48"/>
      </g>
     </g>
    </g>
    <g id="ytick_3">
     <g id="line2d_19">
      <path clip-path="url(#p1c897d0cba)" d="M 75.177165 149.639589 
L 409.322835 149.639589 
" style="fill:none;stroke:#000000;stroke-linecap:square;stroke-opacity:0.1;stroke-width:0.5;"/>
     </g>
     <g id="line2d_20">
      <g>
       <use style="stroke:#000000;stroke-width:0.5;" x="75.177165" xlink:href="#m80c1c4aa82" y="149.639589"/>
      </g>
     </g>
     <g id="text_11">
      <!-- $\mathregular{100}$ -->
      <g transform="translate(44.677165 155.810214)scale(0.18 -0.18)">
       <use transform="translate(0 0.8125)" xlink:href="#Times-Roman-49"/>
       <use transform="translate(50 0.8125)" xlink:href="#Times-Roman-48"/>
       <use transform="translate(100 0.8125)" xlink:href="#Times-Roman-48"/>
      </g>
     </g>
    </g>
    <g id="ytick_4">
     <g id="line2d_21">
      <path clip-path="url(#p1c897d0cba)" d="M 75.177165 112.822341 
L 409.322835 112.822341 
" style="fill:none;stroke:#000000;stroke-linecap:square;stroke-opacity:0.1;stroke-width:0.5;"/>
     </g>
     <g id="line2d_22">
      <g>
       <use style="stroke:#000000;stroke-width:0.5;" x="75.177165" xlink:href="#m80c1c4aa82" y="112.822341"/>
      </g>
     </g>
     <g id="text_12">
      <!-- $\mathregular{150}$ -->
      <g transform="translate(44.677165 118.992966)scale(0.18 -0.18)">
       <use transform="translate(0 0.296875)" xlink:href="#Times-Roman-49"/>
       <use transform="translate(50 0.296875)" xlink:href="#Times-Roman-53"/>
       <use transform="translate(100 0.296875)" xlink:href="#Times-Roman-48"/>
      </g>
     </g>
    </g>
    <g id="ytick_5">
     <g id="line2d_23">
      <path clip-path="url(#p1c897d0cba)" d="M 75.177165 76.005093 
L 409.322835 76.005093 
" style="fill:none;stroke:#000000;stroke-linecap:square;stroke-opacity:0.1;stroke-width:0.5;"/>
     </g>
     <g id="line2d_24">
      <g>
       <use style="stroke:#000000;stroke-width:0.5;" x="75.177165" xlink:href="#m80c1c4aa82" y="76.005093"/>
      </g>
     </g>
     <g id="text_13">
      <!-- $\mathregular{200}$ -->
      <g transform="translate(44.677165 82.175718)scale(0.18 -0.18)">
       <use transform="translate(0 0.609375)" xlink:href="#Times-Roman-50"/>
       <use transform="translate(50 0.609375)" xlink:href="#Times-Roman-48"/>
       <use transform="translate(100 0.609375)" xlink:href="#Times-Roman-48"/>
      </g>
     </g>
    </g>
    <g id="text_14">
     <!-- SD Duration td [days] -->
     <g transform="translate(36.933728 231.261562)rotate(-90)scale(0.18 -0.18)">
      <defs>
       <path d="M 8.5 21.578125 
L 8.5 54.6875 
L 17.484375 54.6875 
L 17.484375 21.921875 
Q 17.484375 14.15625 20.5 10.265625 
Q 23.53125 6.390625 29.59375 6.390625 
Q 36.859375 6.390625 41.078125 11.03125 
Q 45.3125 15.671875 45.3125 23.6875 
L 45.3125 54.6875 
L 54.296875 54.6875 
L 54.296875 0 
L 45.3125 0 
L 45.3125 8.40625 
Q 42.046875 3.421875 37.71875 1 
Q 33.40625 -1.421875 27.6875 -1.421875 
Q 18.265625 -1.421875 13.375 4.4375 
Q 8.5 10.296875 8.5 21.578125 
z
M 31.109375 56 
z
" id="DejaVuSans-117"/>
       <path d="M 30.609375 48.390625 
Q 23.390625 48.390625 19.1875 42.75 
Q 14.984375 37.109375 14.984375 27.296875 
Q 14.984375 17.484375 19.15625 11.84375 
Q 23.34375 6.203125 30.609375 6.203125 
Q 37.796875 6.203125 41.984375 11.859375 
Q 46.1875 17.53125 46.1875 27.296875 
Q 46.1875 37.015625 41.984375 42.703125 
Q 37.796875 48.390625 30.609375 48.390625 
z
M 30.609375 56 
Q 42.328125 56 49.015625 48.375 
Q 55.71875 40.765625 55.71875 27.296875 
Q 55.71875 13.875 49.015625 6.21875 
Q 42.328125 -1.421875 30.609375 -1.421875 
Q 18.84375 -1.421875 12.171875 6.21875 
Q 5.515625 13.875 5.515625 27.296875 
Q 5.515625 40.765625 12.171875 48.375 
Q 18.84375 56 30.609375 56 
z
" id="DejaVuSans-111"/>
       <path d="M 54.890625 33.015625 
L 54.890625 0 
L 45.90625 0 
L 45.90625 32.71875 
Q 45.90625 40.484375 42.875 44.328125 
Q 39.84375 48.1875 33.796875 48.1875 
Q 26.515625 48.1875 22.3125 43.546875 
Q 18.109375 38.921875 18.109375 30.90625 
L 18.109375 0 
L 9.078125 0 
L 9.078125 54.6875 
L 18.109375 54.6875 
L 18.109375 46.1875 
Q 21.34375 51.125 25.703125 53.5625 
Q 30.078125 56 35.796875 56 
Q 45.21875 56 50.046875 50.171875 
Q 54.890625 44.34375 54.890625 33.015625 
z
" id="DejaVuSans-110"/>
      </defs>
      <use xlink:href="#DejaVuSans-83"/>
      <use x="63.476562" xlink:href="#DejaVuSans-68"/>
      <use x="140.478516" xlink:href="#DejaVuSans-32"/>
      <use x="172.265625" xlink:href="#DejaVuSans-68"/>
      <use x="249.267578" xlink:href="#DejaVuSans-117"/>
      <use x="312.646484" xlink:href="#DejaVuSans-114"/>
      <use x="353.759766" xlink:href="#DejaVuSans-97"/>
      <use x="415.039062" xlink:href="#DejaVuSans-116"/>
      <use x="454.248047" xlink:href="#DejaVuSans-105"/>
      <use x="482.03125" xlink:href="#DejaVuSans-111"/>
      <use x="543.212891" xlink:href="#DejaVuSans-110"/>
      <use x="606.591797" xlink:href="#DejaVuSans-32"/>
      <use x="638.378906" xlink:href="#DejaVuSans-116"/>
      <use x="677.587891" xlink:href="#DejaVuSans-100"/>
      <use x="741.064453" xlink:href="#DejaVuSans-32"/>
      <use x="772.851562" xlink:href="#DejaVuSans-91"/>
      <use x="811.865234" xlink:href="#DejaVuSans-100"/>
      <use x="875.341797" xlink:href="#DejaVuSans-97"/>
      <use x="936.621094" xlink:href="#DejaVuSans-121"/>
      <use x="995.800781" xlink:href="#DejaVuSans-115"/>
      <use x="1047.900391" xlink:href="#DejaVuSans-93"/>
     </g>
    </g>
   </g>
   <g id="LineCollection_1">
    <path clip-path="url(#p1c897d0cba)" d="M 258.164574 43.605915 
L 258.164574 44.34226 
L 258.164574 45.078605 
L 258.164574 45.81495 
L 258.164574 46.551295 
L 258.164574 46.729245 
" style="fill:none;stroke:#dedeff;"/>
    <path clip-path="url(#p1c897d0cba)" d="M 258.164574 69.936384 
L 258.164574 180.566077 
L 257.43844 180.79223 
L 257.128984 180.566077 
L 256.90435 179.093387 
L 256.613613 178.357042 
L 255.670612 177.620697 
L 252.375626 177.192675 
L 250.082748 175.411662 
L 249.480624 174.675318 
L 248.477012 173.938973 
L 246.999223 173.202628 
L 214.9603 148.903244 
L 203.850001 140.80345 
L 182.913764 126.07655 
L 174.343438 120.185791 
L 152.563502 105.458892 
L 145.930618 101.040822 
L 139.362764 96.622752 
L 121.656935 84.841233 
L 115.679671 80.890436 
L 108.374422 76.005093 
L 75.177165 54.033897 
L 75.177165 54.033897 
" style="fill:none;stroke:#dedeff;"/>
   </g>
   <g id="LineCollection_2">
    <path clip-path="url(#p1c897d0cba)" d="M 279.459389 43.605915 
L 279.459389 44.34226 
L 279.459389 45.078605 
L 279.459389 45.81495 
L 279.459389 46.551295 
L 279.459389 47.28764 
L 279.459389 48.023985 
L 279.459389 48.76033 
L 279.459389 49.496675 
L 279.459389 50.23302 
L 279.459389 50.969365 
L 279.459389 51.70571 
L 279.459389 52.442055 
L 279.459389 53.1784 
L 279.459389 53.914745 
L 279.459389 54.65109 
L 279.459389 55.387435 
L 279.459389 56.12378 
L 279.459389 56.860125 
L 279.459389 57.59647 
L 279.459389 58.332814 
L 279.459389 59.069159 
L 279.459389 59.805504 
L 279.459389 60.541849 
L 279.459389 61.278194 
L 279.459389 62.014539 
L 279.459389 62.750884 
L 279.459389 63.487229 
L 279.459389 64.223574 
L 279.459389 64.959919 
L 279.459389 65.696264 
L 279.459389 66.432609 
L 279.459389 67.168954 
L 279.459389 67.905299 
L 279.459389 68.641644 
L 279.459389 69.377989 
L 279.459389 70.114334 
L 279.459389 70.850679 
L 279.459389 71.587024 
L 279.459389 72.323369 
L 279.459389 73.059714 
L 279.459389 73.796059 
L 279.459389 74.532404 
L 279.459389 75.268748 
L 279.459389 76.005093 
L 279.459389 76.741438 
L 279.459389 76.919388 
" style="fill:none;stroke:#b8b8ff;"/>
    <path clip-path="url(#p1c897d0cba)" d="M 279.459389 100.126527 
L 279.459389 198.238356 
L 277.689692 198.880873 
L 276.252981 198.238356 
L 275.512264 197.502011 
L 273.279419 196.765666 
L 272.626879 196.671336 
L 266.97619 193.820286 
L 260.494382 190.138562 
L 254.556582 186.456837 
L 247.312813 181.66362 
L 239.369409 176.148007 
L 223.898018 165.102833 
L 199.991929 148.166899 
L 184.00713 137.121725 
L 157.900036 119.449446 
L 133.652613 103.249857 
L 75.177165 64.471018 
L 75.177165 64.471018 
" style="fill:none;stroke:#b8b8ff;"/>
   </g>
   <g id="LineCollection_3">
    <path clip-path="url(#p1c897d0cba)" d="M 294.089349 43.605915 
L 294.089349 44.34226 
L 294.089349 45.078605 
L 294.089349 45.81495 
L 294.089349 46.551295 
L 294.089349 46.729245 
" style="fill:none;stroke:#9292ff;"/>
    <path clip-path="url(#p1c897d0cba)" d="M 294.089349 69.936384 
L 294.089349 207.810841 
L 292.878132 208.253185 
L 287.359177 207.074496 
L 282.074312 205.601806 
L 275.688674 203.392771 
L 270.280464 201.183736 
L 265.484862 198.974701 
L 259.716376 196.029321 
L 253.161323 192.347596 
L 245.876373 187.929527 
L 237.880124 182.775112 
L 222.605507 172.466283 
L 193.646657 152.584969 
L 171.370616 137.488211 
L 134.473611 112.822341 
L 86.756872 81.159508 
L 75.177165 73.491371 
L 75.177165 73.491371 
" style="fill:none;stroke:#9292ff;"/>
   </g>
   <g id="LineCollection_4">
    <path clip-path="url(#p1c897d0cba)" d="M 306.389286 43.605915 
L 306.389286 44.34226 
L 306.389286 45.078605 
L 306.389286 45.81495 
L 306.389286 46.551295 
L 306.389286 47.28764 
L 306.389286 48.023985 
L 306.389286 48.76033 
L 306.389286 49.496675 
L 306.389286 50.23302 
L 306.389286 50.969365 
L 306.389286 51.70571 
L 306.389286 52.442055 
L 306.389286 53.1784 
L 306.389286 53.914745 
L 306.389286 54.65109 
L 306.389286 55.387435 
L 306.389286 56.12378 
L 306.389286 56.860125 
L 306.389286 57.59647 
L 306.389286 58.332814 
L 306.389286 59.069159 
L 306.389286 59.805504 
L 306.389286 60.541849 
L 306.389286 61.278194 
L 306.389286 62.014539 
L 306.389286 62.750884 
L 306.389286 63.487229 
L 306.389286 64.223574 
L 306.389286 64.959919 
L 306.389286 65.696264 
L 306.389286 66.432609 
L 306.389286 67.168954 
L 306.389286 67.905299 
L 306.389286 68.641644 
L 306.389286 69.377989 
L 306.389286 70.114334 
L 306.389286 70.850679 
L 306.389286 71.587024 
L 306.389286 72.323369 
L 306.389286 73.059714 
L 306.389286 73.796059 
L 306.389286 74.532404 
L 306.389286 75.268748 
L 306.389286 76.005093 
L 306.389286 76.741438 
L 306.389286 77.477783 
L 306.389286 78.214128 
L 306.389286 78.950473 
L 306.389286 79.686818 
L 306.389286 80.423163 
L 306.389286 81.159508 
L 306.389286 81.895853 
L 306.389286 82.632198 
L 306.389286 83.368543 
L 306.389286 84.104888 
L 306.389286 84.841233 
L 306.389286 85.577578 
L 306.389286 86.313923 
L 306.389286 87.050268 
L 306.389286 87.786613 
L 306.389286 88.522958 
L 306.389286 89.259303 
L 306.389286 89.995648 
L 306.389286 90.731993 
L 306.389286 91.468338 
L 306.389286 92.204682 
L 306.389286 92.941027 
L 306.389286 93.677372 
L 306.389286 94.413717 
L 306.389286 95.150062 
L 306.389286 95.886407 
L 306.389286 96.622752 
L 306.389286 97.359097 
L 306.389286 98.095442 
L 306.389286 98.831787 
L 306.389286 99.568132 
L 306.389286 100.304477 
L 306.389286 101.040822 
L 306.389286 101.777167 
L 306.389286 102.513512 
L 306.389286 103.249857 
L 306.389286 103.986202 
L 306.389286 104.722547 
L 306.389286 105.458892 
L 306.389286 106.195237 
L 306.389286 106.931582 
L 306.389286 107.109532 
" style="fill:none;stroke:#6c6cff;"/>
    <path clip-path="url(#p1c897d0cba)" d="M 306.389286 130.31667 
L 306.389286 212.22891 
L 305.895968 212.965255 
L 302.949622 213.7016 
L 296.337985 212.965255 
L 291.590486 212.22891 
L 287.715979 211.492565 
L 281.5538 210.019875 
L 276.456488 208.547186 
L 272.038825 207.074496 
L 266.235568 204.865461 
L 261.100287 202.656426 
L 254.934421 199.711046 
L 247.982838 196.029321 
L 239.036283 190.874907 
L 228.378815 184.247802 
L 202.722943 167.311868 
L 192.853109 160.684763 
L 181.496242 153.042514 
L 172.013737 146.694209 
L 161.005802 139.33076 
L 147.734629 130.49462 
L 132.23646 120.185791 
L 118.920906 111.349651 
L 75.177165 82.34165 
L 75.177165 82.34165 
" style="fill:none;stroke:#6c6cff;"/>
   </g>
   <g id="LineCollection_5">
    <path clip-path="url(#p1c897d0cba)" d="M 317.864289 43.605915 
L 317.864289 44.34226 
L 317.864289 45.078605 
L 317.864289 45.81495 
L 317.864289 46.551295 
L 317.864289 47.28764 
L 317.864289 48.023985 
L 317.864289 48.76033 
L 317.864289 49.496675 
L 317.864289 50.23302 
L 317.864289 50.969365 
L 317.864289 51.70571 
L 317.864289 52.442055 
L 317.864289 53.1784 
L 317.864289 53.914745 
L 317.864289 54.65109 
L 317.864289 55.387435 
L 317.864289 56.12378 
L 317.864289 56.860125 
L 317.864289 57.59647 
L 317.864289 58.332814 
L 317.864289 59.069159 
L 317.864289 59.805504 
L 317.864289 60.541849 
L 317.864289 61.278194 
L 317.864289 62.014539 
L 317.864289 62.750884 
L 317.864289 63.487229 
L 317.864289 64.223574 
L 317.864289 64.959919 
L 317.864289 65.696264 
L 317.864289 66.432609 
L 317.864289 67.168954 
L 317.864289 67.905299 
L 317.864289 68.641644 
L 317.864289 69.377989 
L 317.864289 70.114334 
L 317.864289 70.850679 
L 317.864289 71.587024 
L 317.864289 72.323369 
L 317.864289 73.059714 
L 317.864289 73.796059 
L 317.864289 74.532404 
L 317.864289 75.268748 
L 317.864289 76.005093 
L 317.864289 76.741438 
L 317.864289 76.919388 
" style="fill:none;stroke:#4646ff;"/>
    <path clip-path="url(#p1c897d0cba)" d="M 317.864289 100.126527 
L 317.781301 216.64698 
L 317.164474 217.383325 
L 313.129384 217.758705 
L 304.756768 217.383325 
L 303.003758 217.276183 
L 296.134412 216.64698 
L 290.271977 215.910635 
L 285.605743 215.17429 
L 281.660246 214.437945 
L 275.118319 212.965255 
L 269.695008 211.492565 
L 262.866334 209.28353 
L 256.972578 207.074496 
L 251.710952 204.865461 
L 246.913702 202.656426 
L 242.44144 200.447391 
L 230.195061 193.820286 
L 222.753843 189.402217 
L 216.790571 185.720492 
L 213.220046 183.511457 
L 206.324672 179.093387 
L 200.613493 175.411662 
L 192.737788 170.257248 
L 186.559055 166.157134 
L 182.691368 163.630143 
L 176.433429 159.455138 
L 171.617716 156.266694 
L 166.307802 152.735476 
L 161.62991 149.639589 
L 156.099498 145.957864 
L 150.532638 142.276139 
L 142.738524 137.121725 
L 134.988929 131.96731 
L 126.132421 126.07655 
L 120.587172 122.394826 
L 113.872867 117.976756 
L 75.177165 92.303139 
L 75.177165 92.303139 
" style="fill:none;stroke:#4646ff;"/>
   </g>
   <g id="LineCollection_6">
    <path clip-path="url(#p1c897d0cba)" d="M 329.772054 43.605915 
L 329.772054 44.34226 
L 329.772054 45.078605 
L 329.772054 45.81495 
L 329.772054 46.551295 
L 329.772054 46.729245 
" style="fill:none;stroke:#2020ff;"/>
    <path clip-path="url(#p1c897d0cba)" d="M 329.772054 69.936384 
L 329.772054 220.328705 
L 328.317824 220.856671 
L 323.255011 220.960056 
L 313.129384 220.854428 
L 303.003758 220.54892 
L 292.878132 219.98774 
L 282.752505 219.085564 
L 275.129445 218.11967 
L 267.564066 216.843218 
L 262.501253 215.794523 
L 256.899477 214.437945 
L 251.679398 212.965255 
L 247.106024 211.492565 
L 242.910421 210.019875 
L 233.74926 206.338151 
L 222.90178 201.183736 
L 216.935934 198.020958 
L 213.226528 196.029321 
L 210.619536 194.556631 
L 204.25136 190.874907 
L 188.637472 181.302422 
L 180.573127 176.148007 
L 177.146667 173.938973 
L 174.827062 172.466283 
L 166.937937 167.311868 
L 164.636619 165.839178 
L 152.306205 157.739384 
L 150.078588 156.266694 
L 143.339037 151.848624 
L 134.437711 145.957864 
L 126.667219 140.80345 
L 124.41898 139.33076 
L 116.645195 134.176345 
L 114.408229 132.703655 
L 106.62767 127.54924 
L 104.401776 126.07655 
L 97.696757 121.658481 
L 89.987801 116.504066 
L 86.59848 114.295031 
L 84.394761 112.822341 
L 81.060892 110.613306 
L 78.81096 109.140616 
L 75.177165 106.681932 
L 75.177165 106.681932 
" style="fill:none;stroke:#2020ff;"/>
   </g>
   <g id="patch_3">
    <path d="M 75.177165 223.274085 
L 75.177165 43.605915 
" style="fill:none;stroke:#000000;stroke-linecap:square;stroke-linejoin:miter;"/>
   </g>
   <g id="patch_4">
    <path d="M 75.177165 223.274085 
L 409.322835 223.274085 
" style="fill:none;stroke:#000000;stroke-linecap:square;stroke-linejoin:miter;"/>
   </g>
   <g id="text_15">
    <g clip-path="url(#p1c897d0cba)">
     <!-- 0.150 -->
     <g style="fill:#dedeff;" transform="translate(255.405199 44.018752)rotate(-270)scale(0.1 -0.1)">
      <defs>
       <path d="M 31.78125 66.40625 
Q 24.171875 66.40625 20.328125 58.90625 
Q 16.5 51.421875 16.5 36.375 
Q 16.5 21.390625 20.328125 13.890625 
Q 24.171875 6.390625 31.78125 6.390625 
Q 39.453125 6.390625 43.28125 13.890625 
Q 47.125 21.390625 47.125 36.375 
Q 47.125 51.421875 43.28125 58.90625 
Q 39.453125 66.40625 31.78125 66.40625 
z
M 31.78125 74.21875 
Q 44.046875 74.21875 50.515625 64.515625 
Q 56.984375 54.828125 56.984375 36.375 
Q 56.984375 17.96875 50.515625 8.265625 
Q 44.046875 -1.421875 31.78125 -1.421875 
Q 19.53125 -1.421875 13.0625 8.265625 
Q 6.59375 17.96875 6.59375 36.375 
Q 6.59375 54.828125 13.0625 64.515625 
Q 19.53125 74.21875 31.78125 74.21875 
z
" id="DejaVuSans-48"/>
       <path d="M 10.6875 12.40625 
L 21 12.40625 
L 21 0 
L 10.6875 0 
z
" id="DejaVuSans-46"/>
       <path d="M 12.40625 8.296875 
L 28.515625 8.296875 
L 28.515625 63.921875 
L 10.984375 60.40625 
L 10.984375 69.390625 
L 28.421875 72.90625 
L 38.28125 72.90625 
L 38.28125 8.296875 
L 54.390625 8.296875 
L 54.390625 0 
L 12.40625 0 
z
" id="DejaVuSans-49"/>
       <path d="M 10.796875 72.90625 
L 49.515625 72.90625 
L 49.515625 64.59375 
L 19.828125 64.59375 
L 19.828125 46.734375 
Q 21.96875 47.46875 24.109375 47.828125 
Q 26.265625 48.1875 28.421875 48.1875 
Q 40.625 48.1875 47.75 41.5 
Q 54.890625 34.8125 54.890625 23.390625 
Q 54.890625 11.625 47.5625 5.09375 
Q 40.234375 -1.421875 26.90625 -1.421875 
Q 22.3125 -1.421875 17.546875 -0.640625 
Q 12.796875 0.140625 7.71875 1.703125 
L 7.71875 11.625 
Q 12.109375 9.234375 16.796875 8.0625 
Q 21.484375 6.890625 26.703125 6.890625 
Q 35.15625 6.890625 40.078125 11.328125 
Q 45.015625 15.765625 45.015625 23.390625 
Q 45.015625 31 40.078125 35.4375 
Q 35.15625 39.890625 26.703125 39.890625 
Q 22.75 39.890625 18.8125 39.015625 
Q 14.890625 38.140625 10.796875 36.28125 
z
" id="DejaVuSans-53"/>
      </defs>
      <use xlink:href="#DejaVuSans-48"/>
      <use x="63.623047" xlink:href="#DejaVuSans-46"/>
      <use x="95.410156" xlink:href="#DejaVuSans-49"/>
      <use x="159.033203" xlink:href="#DejaVuSans-53"/>
      <use x="222.65625" xlink:href="#DejaVuSans-48"/>
     </g>
    </g>
   </g>
   <g id="text_16">
    <g clip-path="url(#p1c897d0cba)">
     <!-- 0.200 -->
     <g style="fill:#b8b8ff;" transform="translate(276.700014 74.208895)rotate(-270)scale(0.1 -0.1)">
      <defs>
       <path d="M 19.1875 8.296875 
L 53.609375 8.296875 
L 53.609375 0 
L 7.328125 0 
L 7.328125 8.296875 
Q 12.9375 14.109375 22.625 23.890625 
Q 32.328125 33.6875 34.8125 36.53125 
Q 39.546875 41.84375 41.421875 45.53125 
Q 43.3125 49.21875 43.3125 52.78125 
Q 43.3125 58.59375 39.234375 62.25 
Q 35.15625 65.921875 28.609375 65.921875 
Q 23.96875 65.921875 18.8125 64.3125 
Q 13.671875 62.703125 7.8125 59.421875 
L 7.8125 69.390625 
Q 13.765625 71.78125 18.9375 73 
Q 24.125 74.21875 28.421875 74.21875 
Q 39.75 74.21875 46.484375 68.546875 
Q 53.21875 62.890625 53.21875 53.421875 
Q 53.21875 48.921875 51.53125 44.890625 
Q 49.859375 40.875 45.40625 35.40625 
Q 44.1875 33.984375 37.640625 27.21875 
Q 31.109375 20.453125 19.1875 8.296875 
z
" id="DejaVuSans-50"/>
      </defs>
      <use xlink:href="#DejaVuSans-48"/>
      <use x="63.623047" xlink:href="#DejaVuSans-46"/>
      <use x="95.410156" xlink:href="#DejaVuSans-50"/>
      <use x="159.033203" xlink:href="#DejaVuSans-48"/>
      <use x="222.65625" xlink:href="#DejaVuSans-48"/>
     </g>
    </g>
   </g>
   <g id="text_17">
    <g clip-path="url(#p1c897d0cba)">
     <!-- 0.250 -->
     <g style="fill:#9292ff;" transform="translate(291.329974 44.018752)rotate(-270)scale(0.1 -0.1)">
      <use xlink:href="#DejaVuSans-48"/>
      <use x="63.623047" xlink:href="#DejaVuSans-46"/>
      <use x="95.410156" xlink:href="#DejaVuSans-50"/>
      <use x="159.033203" xlink:href="#DejaVuSans-53"/>
      <use x="222.65625" xlink:href="#DejaVuSans-48"/>
     </g>
    </g>
   </g>
   <g id="text_18">
    <g clip-path="url(#p1c897d0cba)">
     <!-- 0.300 -->
     <g style="fill:#6c6cff;" transform="translate(303.629911 104.399038)rotate(-270)scale(0.1 -0.1)">
      <defs>
       <path d="M 40.578125 39.3125 
Q 47.65625 37.796875 51.625 33 
Q 55.609375 28.21875 55.609375 21.1875 
Q 55.609375 10.40625 48.1875 4.484375 
Q 40.765625 -1.421875 27.09375 -1.421875 
Q 22.515625 -1.421875 17.65625 -0.515625 
Q 12.796875 0.390625 7.625 2.203125 
L 7.625 11.71875 
Q 11.71875 9.328125 16.59375 8.109375 
Q 21.484375 6.890625 26.8125 6.890625 
Q 36.078125 6.890625 40.9375 10.546875 
Q 45.796875 14.203125 45.796875 21.1875 
Q 45.796875 27.640625 41.28125 31.265625 
Q 36.765625 34.90625 28.71875 34.90625 
L 20.21875 34.90625 
L 20.21875 43.015625 
L 29.109375 43.015625 
Q 36.375 43.015625 40.234375 45.921875 
Q 44.09375 48.828125 44.09375 54.296875 
Q 44.09375 59.90625 40.109375 62.90625 
Q 36.140625 65.921875 28.71875 65.921875 
Q 24.65625 65.921875 20.015625 65.03125 
Q 15.375 64.15625 9.8125 62.3125 
L 9.8125 71.09375 
Q 15.4375 72.65625 20.34375 73.4375 
Q 25.25 74.21875 29.59375 74.21875 
Q 40.828125 74.21875 47.359375 69.109375 
Q 53.90625 64.015625 53.90625 55.328125 
Q 53.90625 49.265625 50.4375 45.09375 
Q 46.96875 40.921875 40.578125 39.3125 
z
" id="DejaVuSans-51"/>
      </defs>
      <use xlink:href="#DejaVuSans-48"/>
      <use x="63.623047" xlink:href="#DejaVuSans-46"/>
      <use x="95.410156" xlink:href="#DejaVuSans-51"/>
      <use x="159.033203" xlink:href="#DejaVuSans-48"/>
      <use x="222.65625" xlink:href="#DejaVuSans-48"/>
     </g>
    </g>
   </g>
   <g id="text_19">
    <g clip-path="url(#p1c897d0cba)">
     <!-- 0.350 -->
     <g style="fill:#4646ff;" transform="translate(315.104914 74.208895)rotate(-270)scale(0.1 -0.1)">
      <use xlink:href="#DejaVuSans-48"/>
      <use x="63.623047" xlink:href="#DejaVuSans-46"/>
      <use x="95.410156" xlink:href="#DejaVuSans-51"/>
      <use x="159.033203" xlink:href="#DejaVuSans-53"/>
      <use x="222.65625" xlink:href="#DejaVuSans-48"/>
     </g>
    </g>
   </g>
   <g id="text_20">
    <g clip-path="url(#p1c897d0cba)">
     <!-- 0.400 -->
     <g style="fill:#2020ff;" transform="translate(327.012679 44.018752)rotate(-270)scale(0.1 -0.1)">
      <defs>
       <path d="M 37.796875 64.3125 
L 12.890625 25.390625 
L 37.796875 25.390625 
z
M 35.203125 72.90625 
L 47.609375 72.90625 
L 47.609375 25.390625 
L 58.015625 25.390625 
L 58.015625 17.1875 
L 47.609375 17.1875 
L 47.609375 0 
L 37.796875 0 
L 37.796875 17.1875 
L 4.890625 17.1875 
L 4.890625 26.703125 
z
" id="DejaVuSans-52"/>
      </defs>
      <use xlink:href="#DejaVuSans-48"/>
      <use x="63.623047" xlink:href="#DejaVuSans-46"/>
      <use x="95.410156" xlink:href="#DejaVuSans-52"/>
      <use x="159.033203" xlink:href="#DejaVuSans-48"/>
      <use x="222.65625" xlink:href="#DejaVuSans-48"/>
     </g>
    </g>
   </g>
   <g id="text_21">
    <!-- Max(I+Q) -->
    <g transform="translate(196.950625 37.605915)scale(0.22 -0.22)">
     <defs>
      <path d="M 1.125 1.8125 
Q 7.328125 2.4375 9.078125 4.609375 
Q 10.84375 6.78125 10.84375 14.703125 
L 10.84375 55.328125 
Q 10.84375 60.75 9.125 62.375 
Q 7.421875 64.015625 1.375 64.3125 
L 1.375 66.15625 
L 21.140625 66.15625 
L 44.28125 15.71875 
L 66.40625 66.15625 
L 86.328125 66.15625 
L 86.328125 64.3125 
Q 80.765625 63.921875 79.15625 62.28125 
Q 77.546875 60.640625 77.546875 55.328125 
L 77.546875 10.84375 
Q 77.546875 5.375 79.15625 3.828125 
Q 80.765625 2.296875 86.328125 1.8125 
L 86.328125 0 
L 58.296875 0 
L 58.296875 1.8125 
Q 64.359375 2.296875 65.84375 3.984375 
Q 67.328125 5.671875 67.328125 12.015625 
L 67.328125 56.9375 
L 41.75 0 
L 40.375 0 
L 15.234375 54.59375 
L 15.234375 14.703125 
Q 15.234375 6.5 17.625 4 
Q 19.1875 2.390625 24.609375 1.8125 
L 24.609375 0 
L 1.125 0 
z
" id="Times-Roman-77"/>
      <path d="M 28.65625 27.046875 
Q 23.046875 25.203125 19.390625 22.953125 
Q 12.359375 18.609375 12.359375 13.09375 
Q 12.359375 8.640625 15.28125 6.546875 
Q 17.1875 5.171875 19.53125 5.171875 
Q 22.75 5.171875 25.703125 6.984375 
Q 28.65625 8.796875 28.65625 11.578125 
z
M 3.65625 9.71875 
Q 3.65625 16.796875 10.75 21.53125 
Q 15.234375 24.46875 28.65625 29.5 
L 28.65625 33.640625 
Q 28.65625 38.625 27.6875 40.578125 
Q 26.03125 43.84375 20.796875 43.84375 
Q 18.3125 43.84375 16.0625 42.578125 
Q 13.8125 41.265625 13.8125 38.96875 
Q 13.8125 38.375 14.0625 36.984375 
Q 14.3125 35.59375 14.3125 35.203125 
Q 14.3125 32.46875 12.5 31.390625 
Q 11.46875 30.765625 10.0625 30.765625 
Q 7.859375 30.765625 6.6875 32.203125 
Q 5.515625 33.640625 5.515625 35.40625 
Q 5.515625 38.8125 9.734375 42.546875 
Q 13.96875 46.296875 22.125 46.296875 
Q 31.59375 46.296875 34.96875 40.140625 
Q 36.765625 36.765625 36.765625 30.328125 
L 36.765625 10.75 
Q 36.765625 7.90625 37.15625 6.84375 
Q 37.796875 4.9375 39.796875 4.9375 
Q 40.921875 4.9375 41.65625 5.265625 
Q 42.390625 5.609375 44.1875 6.9375 
L 44.1875 4.390625 
Q 42.625 2.484375 40.828125 1.265625 
Q 38.09375 -0.59375 35.25 -0.59375 
Q 31.9375 -0.59375 30.4375 1.5625 
Q 28.953125 3.71875 28.8125 6.6875 
Q 25.09375 3.46875 22.46875 1.90625 
Q 18.015625 -0.734375 14.015625 -0.734375 
Q 9.8125 -0.734375 6.734375 2.21875 
Q 3.65625 5.171875 3.65625 9.71875 
z
M 22.265625 46.296875 
z
" id="Times-Roman-97"/>
      <path d="M 23.140625 44.875 
L 23.140625 43.5 
Q 21.296875 43.453125 20 42.984375 
Q 18.703125 42.53125 18.703125 41.0625 
Q 18.703125 40.140625 21.296875 35.84375 
Q 22.65625 33.59375 24.75 30.328125 
Q 27.640625 34.28125 29.046875 36.53125 
Q 31.453125 40.140625 31.453125 41.21875 
Q 31.453125 42.484375 30.421875 42.921875 
Q 29.390625 43.359375 27.546875 43.5 
L 27.546875 44.875 
L 43.265625 44.875 
L 43.265625 43.5 
Q 40.765625 43.3125 38.609375 42.15625 
Q 36.46875 41.015625 35.15625 39.109375 
L 26.8125 27.046875 
L 39.703125 7.515625 
Q 42.1875 3.71875 43.921875 2.59375 
Q 45.65625 1.46875 47.90625 1.375 
L 47.90625 0 
L 27.734375 0 
L 27.734375 1.375 
L 29.15625 1.46875 
Q 30.28125 1.5625 31.03125 2.140625 
Q 31.78125 2.734375 31.78125 3.609375 
Q 31.78125 4.546875 29.9375 7.71875 
Q 29.046875 9.28125 27.296875 11.96875 
Q 26.46875 13.28125 24.828125 15.625 
Q 23.1875 17.96875 22.078125 19.625 
L 14.203125 7.375 
Q 12.796875 5.171875 12.453125 4.4375 
Q 12.109375 3.71875 12.109375 3.21875 
Q 12.109375 2.296875 12.859375 2 
Q 13.625 1.703125 16.15625 1.375 
L 16.15625 0 
L 1.703125 0 
L 1.703125 1.375 
Q 4.34375 1.90625 5.609375 2.734375 
Q 6.890625 3.5625 8.984375 6.59375 
L 20.359375 23.140625 
L 10.984375 37.359375 
Q 8.15625 41.609375 7.078125 42.390625 
Q 6 43.171875 2.390625 43.5 
L 2.390625 44.875 
z
" id="Times-Roman-120"/>
      <path d="M 4.59375 25.09375 
Q 4.59375 42.09375 14.75 54.9375 
Q 21 62.796875 29.5 67.578125 
L 30.421875 65.96875 
Q 22.5625 59.71875 19.1875 53.8125 
Q 13.28125 43.5 13.28125 26.375 
Q 13.28125 13.671875 15.53125 5.421875 
Q 19.484375 -9.03125 30.421875 -16.21875 
L 29.15625 -17.828125 
Q 23.140625 -14.9375 16.15625 -6.546875 
Q 4.59375 7.375 4.59375 25.09375 
z
" id="Times-Roman-40"/>
      <path d="M 1.609375 1.8125 
Q 7.71875 2.25 9.515625 3.640625 
Q 11.328125 5.03125 11.328125 10.84375 
L 11.328125 55.328125 
Q 11.328125 60.84375 9.515625 62.421875 
Q 7.71875 64.015625 1.609375 64.3125 
L 1.609375 66.15625 
L 31.203125 66.15625 
L 31.203125 64.3125 
Q 25.09375 64.015625 23.28125 62.421875 
Q 21.484375 60.84375 21.484375 55.328125 
L 21.484375 10.84375 
Q 21.484375 5.03125 23.28125 3.640625 
Q 25.09375 2.25 31.203125 1.8125 
L 31.203125 0 
L 1.609375 0 
z
M 16.40625 66.15625 
z
" id="Times-Roman-73"/>
      <path d="M 24.859375 50.53125 
L 31.6875 50.53125 
L 31.6875 28.65625 
L 53.46875 28.65625 
L 53.46875 21.828125 
L 31.6875 21.828125 
L 31.6875 0 
L 24.859375 0 
L 24.859375 21.828125 
L 2.984375 21.828125 
L 2.984375 28.65625 
L 24.859375 28.65625 
z
" id="Times-Roman-43"/>
      <path d="M 14.3125 33.0625 
Q 14.3125 17.28125 20.5 9.734375 
Q 26.703125 2.203125 35.75 2.203125 
Q 44.578125 2.203125 50.84375 9.546875 
Q 57.125 16.890625 57.125 33.0625 
Q 57.125 49.421875 50.78125 56.6875 
Q 44.4375 63.96875 35.75 63.96875 
Q 26.765625 63.96875 20.53125 56.421875 
Q 14.3125 48.875 14.3125 33.0625 
z
M 2.984375 33.0625 
Q 2.984375 49.078125 13.03125 58.734375 
Q 22.265625 67.578125 35.75 67.578125 
Q 49.03125 67.578125 58.296875 58.84375 
Q 68.5 49.21875 68.5 33.0625 
Q 68.5 20.265625 62.015625 11.421875 
Q 54.984375 1.90625 42.09375 -0.59375 
Q 48.140625 -9.328125 56.734375 -12.984375 
Q 61.578125 -15.046875 69.78125 -16.015625 
L 69.78125 -17.828125 
L 65.671875 -17.828125 
Q 57.5625 -17.828125 51.28125 -16.5 
Q 45.015625 -15.1875 39.890625 -12.5 
Q 34.765625 -9.859375 30.390625 -5.171875 
Q 26.03125 -0.484375 25.53125 -0.25 
L 24.265625 0.34375 
Q 15.96875 4.203125 11.421875 9.125 
Q 2.984375 18.265625 2.984375 33.0625 
z
" id="Times-Roman-81"/>
      <path d="M 28.46875 24.609375 
Q 28.46875 17.328125 26.5625 10.828125 
Q 24.65625 4.34375 21 -1.421875 
Q 17.140625 -7.5625 10.6875 -12.890625 
Q 6.453125 -16.40625 3.5625 -17.828125 
L 2.640625 -16.21875 
Q 10.15625 -10.5 13.625 -4.546875 
Q 19.78125 6 19.78125 23.34375 
Q 19.78125 37.359375 16.9375 46.234375 
Q 12.984375 58.796875 2.640625 65.96875 
L 3.90625 67.578125 
Q 11.625 63.28125 18.265625 54.59375 
Q 28.46875 41.21875 28.46875 24.609375 
z
" id="Times-Roman-41"/>
     </defs>
     <use xlink:href="#Times-Roman-77"/>
     <use x="88.916016" xlink:href="#Times-Roman-97"/>
     <use x="133.300781" xlink:href="#Times-Roman-120"/>
     <use x="183.300781" xlink:href="#Times-Roman-40"/>
     <use x="216.601562" xlink:href="#Times-Roman-73"/>
     <use x="249.902344" xlink:href="#Times-Roman-43"/>
     <use x="306.298828" xlink:href="#Times-Roman-81"/>
     <use x="378.515625" xlink:href="#Times-Roman-41"/>
    </g>
   </g>
  </g>
 </g>
 <defs>
  <clipPath id="p1c897d0cba">
   <rect height="179.668169" width="334.145669" x="75.177165" y="43.605915"/>
  </clipPath>
 </defs>
</svg>
