<?xml version="1.0" encoding="utf-8" standalone="no"?>
<!DOCTYPE svg PUBLIC "-//W3C//DTD SVG 1.1//EN"
  "http://www.w3.org/Graphics/SVG/1.1/DTD/svg11.dtd">
<!-- Created with matplotlib (https://matplotlib.org/) -->
<svg height="266.4pt" version="1.1" viewBox="0 0 468 266.4" width="468pt" xmlns="http://www.w3.org/2000/svg" xmlns:xlink="http://www.w3.org/1999/xlink">
 <metadata>
  <rdf:RDF xmlns:cc="http://creativecommons.org/ns#" xmlns:dc="http://purl.org/dc/elements/1.1/" xmlns:rdf="http://www.w3.org/1999/02/22-rdf-syntax-ns#">
   <cc:Work>
    <dc:type rdf:resource="http://purl.org/dc/dcmitype/StillImage"/>
    <dc:date>2021-03-14T15:12:14.094700</dc:date>
    <dc:format>image/svg+xml</dc:format>
    <dc:creator>
     <cc:Agent>
      <dc:title>Matplotlib v3.3.4, https://matplotlib.org/</dc:title>
     </cc:Agent>
    </dc:creator>
   </cc:Work>
  </rdf:RDF>
 </metadata>
 <defs>
  <style type="text/css">*{stroke-linecap:butt;stroke-linejoin:round;}</style>
 </defs>
 <g id="figure_1">
  <g id="patch_1">
   <path d="M 0 266.4 
L 468 266.4 
L 468 0 
L 0 0 
z
" style="fill:#ffffff;"/>
  </g>
  <g id="axes_1">
   <g id="patch_2">
    <path d="M 70.868415 201.674085 
L 444.708118 201.674085 
L 444.708118 43.605915 
L 70.868415 43.605915 
z
" style="fill:#ffffff;"/>
   </g>
   <g id="matplotlib.axis_1">
    <g id="xtick_1">
     <g id="line2d_1">
      <path clip-path="url(#pa9c9f0672b)" d="M 81.448784 201.674085 
L 81.448784 43.605915 
" style="fill:none;stroke:#000000;stroke-linecap:square;stroke-opacity:0.1;stroke-width:0.5;"/>
     </g>
     <g id="line2d_2">
      <defs>
       <path d="M 0 0 
L 0 -2.5 
" id="m6d9d5840df" style="stroke:#000000;stroke-width:0.5;"/>
      </defs>
      <g>
       <use style="stroke:#000000;stroke-width:0.5;" x="81.448784" xlink:href="#m6d9d5840df" y="201.674085"/>
      </g>
     </g>
     <g id="text_1">
      <!-- $\mathregular{0}$ -->
      <g transform="translate(76.948784 217.515335)scale(0.18 -0.18)">
       <defs>
        <path d="M 23.921875 1.8125 
Q 31.109375 1.8125 33.78125 9.671875 
Q 36.46875 17.53125 36.46875 32.421875 
Q 36.46875 44.28125 34.859375 51.375 
Q 31.84375 64.546875 23.53125 64.546875 
Q 15.234375 64.546875 12.15625 50.984375 
Q 10.546875 43.75 10.546875 31.9375 
Q 10.546875 20.84375 12.203125 14.203125 
Q 15.328125 1.8125 23.921875 1.8125 
z
M 23.78125 67.1875 
Q 35.015625 67.1875 41.21875 55.421875 
Q 46.140625 45.90625 46.140625 33.546875 
Q 46.140625 23.828125 43.109375 15.234375 
Q 37.40625 -0.921875 23.34375 -0.921875 
Q 13.71875 -0.921875 7.515625 7.8125 
Q 0.875 17.140625 0.875 33.15625 
Q 0.875 45.75 5.328125 54.828125 
Q 11.328125 67.1875 23.78125 67.1875 
z
" id="Times-Roman-48"/>
       </defs>
       <use transform="translate(0 0.8125)" xlink:href="#Times-Roman-48"/>
      </g>
     </g>
    </g>
    <g id="xtick_2">
     <g id="line2d_3">
      <path clip-path="url(#pa9c9f0672b)" d="M 151.984577 201.674085 
L 151.984577 43.605915 
" style="fill:none;stroke:#000000;stroke-linecap:square;stroke-opacity:0.1;stroke-width:0.5;"/>
     </g>
     <g id="line2d_4">
      <g>
       <use style="stroke:#000000;stroke-width:0.5;" x="151.984577" xlink:href="#m6d9d5840df" y="201.674085"/>
      </g>
     </g>
     <g id="text_2">
      <!-- $\mathregular{100}$ -->
      <g transform="translate(138.484577 217.515335)scale(0.18 -0.18)">
       <defs>
        <path d="M 29.59375 67.09375 
Q 29.78125 66.84375 29.796875 66.71875 
Q 29.828125 66.609375 29.828125 66.15625 
L 29.828125 7.375 
Q 29.828125 3.609375 31.828125 2.578125 
Q 33.84375 1.5625 39.3125 1.375 
L 39.3125 0 
L 11.765625 0 
L 11.765625 1.46875 
Q 17.671875 1.765625 19.484375 3.078125 
Q 21.296875 4.390625 21.296875 8.796875 
L 21.296875 54 
Q 21.296875 56.34375 20.703125 57.5625 
Q 20.125 58.796875 18.171875 58.796875 
Q 16.890625 58.796875 14.859375 58.078125 
Q 12.84375 57.375 11.078125 56.59375 
L 11.078125 57.953125 
L 29 67.09375 
L 29.59375 67.09375 
z
" id="Times-Roman-49"/>
       </defs>
       <use transform="translate(0 0.8125)" xlink:href="#Times-Roman-49"/>
       <use transform="translate(50 0.8125)" xlink:href="#Times-Roman-48"/>
       <use transform="translate(100 0.8125)" xlink:href="#Times-Roman-48"/>
      </g>
     </g>
    </g>
    <g id="xtick_3">
     <g id="line2d_5">
      <path clip-path="url(#pa9c9f0672b)" d="M 222.52037 201.674085 
L 222.52037 43.605915 
" style="fill:none;stroke:#000000;stroke-linecap:square;stroke-opacity:0.1;stroke-width:0.5;"/>
     </g>
     <g id="line2d_6">
      <g>
       <use style="stroke:#000000;stroke-width:0.5;" x="222.52037" xlink:href="#m6d9d5840df" y="201.674085"/>
      </g>
     </g>
     <g id="text_3">
      <!-- $\mathregular{200}$ -->
      <g transform="translate(209.02037 217.515335)scale(0.18 -0.18)">
       <defs>
        <path d="M 2.984375 1.125 
Q 20.84375 19.671875 27.234375 28.359375 
Q 33.640625 37.0625 33.640625 45.3125 
Q 33.640625 52.546875 29.734375 56.328125 
Q 25.828125 60.109375 20.40625 60.109375 
Q 13.71875 60.109375 9.578125 55.21875 
Q 7.28125 52.546875 5.171875 46.96875 
L 3.078125 47.40625 
Q 5.515625 58.640625 11.34375 63.015625 
Q 17.1875 67.390625 23.875 67.390625 
Q 32.125 67.390625 37.21875 62.1875 
Q 42.328125 56.984375 42.328125 49.46875 
Q 42.328125 41.453125 36.8125 34.03125 
Q 31.296875 26.609375 12.84375 7.625 
L 35.25 7.625 
Q 39.9375 7.625 41.84375 8.734375 
Q 43.75 9.859375 46.140625 14.203125 
L 47.40625 13.625 
L 42 0 
L 2.984375 0 
z
" id="Times-Roman-50"/>
       </defs>
       <use transform="translate(0 0.609375)" xlink:href="#Times-Roman-50"/>
       <use transform="translate(50 0.609375)" xlink:href="#Times-Roman-48"/>
       <use transform="translate(100 0.609375)" xlink:href="#Times-Roman-48"/>
      </g>
     </g>
    </g>
    <g id="xtick_4">
     <g id="line2d_7">
      <path clip-path="url(#pa9c9f0672b)" d="M 293.056163 201.674085 
L 293.056163 43.605915 
" style="fill:none;stroke:#000000;stroke-linecap:square;stroke-opacity:0.1;stroke-width:0.5;"/>
     </g>
     <g id="line2d_8">
      <g>
       <use style="stroke:#000000;stroke-width:0.5;" x="293.056163" xlink:href="#m6d9d5840df" y="201.674085"/>
      </g>
     </g>
     <g id="text_4">
      <!-- $\mathregular{300}$ -->
      <g transform="translate(279.556163 217.515335)scale(0.18 -0.18)">
       <defs>
        <path d="M 7.765625 8.5 
Q 10.453125 8.5 14.859375 5.71875 
Q 19.28125 2.9375 22.359375 2.9375 
Q 29.203125 2.9375 32.515625 7.546875 
Q 35.84375 12.15625 35.84375 17.578125 
Q 35.84375 22.796875 33.15625 26.765625 
Q 28.609375 33.453125 17.828125 33.453125 
Q 17.1875 33.453125 16.59375 33.421875 
Q 16.015625 33.40625 15.234375 33.296875 
L 15.140625 34.578125 
Q 22.953125 37.40625 27.4375 41.0625 
Q 31.9375 44.734375 31.9375 50.734375 
Q 31.9375 56.0625 28.390625 58.84375 
Q 24.859375 61.625 20.3125 61.625 
Q 14.9375 61.625 10.84375 57.671875 
Q 8.59375 55.515625 6 51.03125 
L 4.5 51.375 
Q 6.453125 58.796875 11.765625 63.234375 
Q 17.09375 67.671875 24.078125 67.671875 
Q 31.546875 67.671875 35.625 63.5625 
Q 39.703125 59.46875 39.703125 54.109375 
Q 39.703125 49.359375 36.328125 45.40625 
Q 34.421875 43.171875 30.421875 40.375 
Q 35.109375 38.375 37.9375 35.6875 
Q 43.265625 30.5625 43.265625 22.703125 
Q 43.265625 13.421875 35.953125 6.34375 
Q 28.65625 -0.734375 15.1875 -0.734375 
Q 9.1875 -0.734375 6.765625 1.046875 
Q 4.34375 2.828125 4.34375 4.890625 
Q 4.34375 6.15625 5.140625 7.328125 
Q 5.953125 8.5 7.765625 8.5 
z
" id="Times-Roman-51"/>
       </defs>
       <use transform="translate(0 0.328125)" xlink:href="#Times-Roman-51"/>
       <use transform="translate(50 0.328125)" xlink:href="#Times-Roman-48"/>
       <use transform="translate(100 0.328125)" xlink:href="#Times-Roman-48"/>
      </g>
     </g>
    </g>
    <g id="xtick_5">
     <g id="line2d_9">
      <path clip-path="url(#pa9c9f0672b)" d="M 363.591956 201.674085 
L 363.591956 43.605915 
" style="fill:none;stroke:#000000;stroke-linecap:square;stroke-opacity:0.1;stroke-width:0.5;"/>
     </g>
     <g id="line2d_10">
      <g>
       <use style="stroke:#000000;stroke-width:0.5;" x="363.591956" xlink:href="#m6d9d5840df" y="201.674085"/>
      </g>
     </g>
     <g id="text_5">
      <!-- $\mathregular{400}$ -->
      <g transform="translate(350.091956 217.515335)scale(0.18 -0.18)">
       <defs>
        <path d="M 29.15625 57.03125 
L 5.171875 23.140625 
L 29.15625 23.140625 
z
M 32.375 67.09375 
L 37.015625 67.09375 
L 37.015625 23.140625 
L 47.21875 23.140625 
L 47.21875 16.65625 
L 37.015625 16.65625 
L 37.015625 0 
L 29.25 0 
L 29.25 16.65625 
L 1.125 16.65625 
L 1.125 23.140625 
z
" id="Times-Roman-52"/>
       </defs>
       <use transform="translate(0 0.8125)" xlink:href="#Times-Roman-52"/>
       <use transform="translate(50 0.8125)" xlink:href="#Times-Roman-48"/>
       <use transform="translate(100 0.8125)" xlink:href="#Times-Roman-48"/>
      </g>
     </g>
    </g>
    <g id="xtick_6">
     <g id="line2d_11">
      <path clip-path="url(#pa9c9f0672b)" d="M 434.127749 201.674085 
L 434.127749 43.605915 
" style="fill:none;stroke:#000000;stroke-linecap:square;stroke-opacity:0.1;stroke-width:0.5;"/>
     </g>
     <g id="line2d_12">
      <g>
       <use style="stroke:#000000;stroke-width:0.5;" x="434.127749" xlink:href="#m6d9d5840df" y="201.674085"/>
      </g>
     </g>
     <g id="text_6">
      <!-- $\mathregular{500}$ -->
      <g transform="translate(420.627749 217.515335)scale(0.18 -0.18)">
       <defs>
        <path d="M 7.46875 8.9375 
Q 10.25 8.9375 14.765625 5.78125 
Q 19.28125 2.640625 21.734375 2.640625 
Q 27.34375 2.640625 31.546875 7.59375 
Q 35.75 12.546875 35.75 19.78125 
Q 35.75 32.421875 22.265625 37.984375 
Q 14.796875 41.0625 8.34375 41.0625 
Q 7.28125 41.0625 7 41.140625 
Q 6.734375 41.21875 6.34375 41.65625 
Q 6.453125 42.046875 6.515625 42.3125 
Q 6.59375 42.578125 6.6875 42.828125 
L 17.328125 66.15625 
L 38.28125 66.15625 
Q 39.84375 66.15625 40.6875 66.6875 
Q 41.546875 67.234375 42.921875 68.703125 
L 43.703125 68.015625 
L 39.890625 58.984375 
Q 39.703125 58.546875 38.8125 58.421875 
Q 37.9375 58.296875 36.921875 58.296875 
L 18.015625 58.296875 
L 13.875 49.75 
Q 21.875 48.390625 25.59375 47.171875 
Q 31.6875 45.125 35.796875 41.109375 
Q 39.3125 37.640625 41.109375 33.3125 
Q 42.921875 29 42.921875 24.171875 
Q 42.921875 13.375 35.234375 6.140625 
Q 27.546875 -1.078125 15.765625 -1.078125 
Q 10.984375 -1.078125 8.0625 -0.140625 
Q 3.171875 1.375 3.171875 5.28125 
Q 3.171875 6.734375 4.21875 7.828125 
Q 5.28125 8.9375 7.46875 8.9375 
z
" id="Times-Roman-53"/>
       </defs>
       <use transform="translate(0 0.296875)" xlink:href="#Times-Roman-53"/>
       <use transform="translate(50 0.296875)" xlink:href="#Times-Roman-48"/>
       <use transform="translate(100 0.296875)" xlink:href="#Times-Roman-48"/>
      </g>
     </g>
    </g>
    <g id="text_7">
     <!-- Time [days] -->
     <g transform="translate(204.640454 239.113147)scale(0.18 -0.18)">
      <defs>
       <path d="M -0.296875 72.90625 
L 61.375 72.90625 
L 61.375 64.59375 
L 35.5 64.59375 
L 35.5 0 
L 25.59375 0 
L 25.59375 64.59375 
L -0.296875 64.59375 
z
" id="DejaVuSans-84"/>
       <path d="M 9.421875 54.6875 
L 18.40625 54.6875 
L 18.40625 0 
L 9.421875 0 
z
M 9.421875 75.984375 
L 18.40625 75.984375 
L 18.40625 64.59375 
L 9.421875 64.59375 
z
" id="DejaVuSans-105"/>
       <path d="M 52 44.1875 
Q 55.375 50.25 60.0625 53.125 
Q 64.75 56 71.09375 56 
Q 79.640625 56 84.28125 50.015625 
Q 88.921875 44.046875 88.921875 33.015625 
L 88.921875 0 
L 79.890625 0 
L 79.890625 32.71875 
Q 79.890625 40.578125 77.09375 44.375 
Q 74.3125 48.1875 68.609375 48.1875 
Q 61.625 48.1875 57.5625 43.546875 
Q 53.515625 38.921875 53.515625 30.90625 
L 53.515625 0 
L 44.484375 0 
L 44.484375 32.71875 
Q 44.484375 40.625 41.703125 44.40625 
Q 38.921875 48.1875 33.109375 48.1875 
Q 26.21875 48.1875 22.15625 43.53125 
Q 18.109375 38.875 18.109375 30.90625 
L 18.109375 0 
L 9.078125 0 
L 9.078125 54.6875 
L 18.109375 54.6875 
L 18.109375 46.1875 
Q 21.1875 51.21875 25.484375 53.609375 
Q 29.78125 56 35.6875 56 
Q 41.65625 56 45.828125 52.96875 
Q 50 49.953125 52 44.1875 
z
" id="DejaVuSans-109"/>
       <path d="M 56.203125 29.59375 
L 56.203125 25.203125 
L 14.890625 25.203125 
Q 15.484375 15.921875 20.484375 11.0625 
Q 25.484375 6.203125 34.421875 6.203125 
Q 39.59375 6.203125 44.453125 7.46875 
Q 49.3125 8.734375 54.109375 11.28125 
L 54.109375 2.78125 
Q 49.265625 0.734375 44.1875 -0.34375 
Q 39.109375 -1.421875 33.890625 -1.421875 
Q 20.796875 -1.421875 13.15625 6.1875 
Q 5.515625 13.8125 5.515625 26.8125 
Q 5.515625 40.234375 12.765625 48.109375 
Q 20.015625 56 32.328125 56 
Q 43.359375 56 49.78125 48.890625 
Q 56.203125 41.796875 56.203125 29.59375 
z
M 47.21875 32.234375 
Q 47.125 39.59375 43.09375 43.984375 
Q 39.0625 48.390625 32.421875 48.390625 
Q 24.90625 48.390625 20.390625 44.140625 
Q 15.875 39.890625 15.1875 32.171875 
z
" id="DejaVuSans-101"/>
       <path id="DejaVuSans-32"/>
       <path d="M 8.59375 75.984375 
L 29.296875 75.984375 
L 29.296875 69 
L 17.578125 69 
L 17.578125 -6.203125 
L 29.296875 -6.203125 
L 29.296875 -13.1875 
L 8.59375 -13.1875 
z
" id="DejaVuSans-91"/>
       <path d="M 45.40625 46.390625 
L 45.40625 75.984375 
L 54.390625 75.984375 
L 54.390625 0 
L 45.40625 0 
L 45.40625 8.203125 
Q 42.578125 3.328125 38.25 0.953125 
Q 33.9375 -1.421875 27.875 -1.421875 
Q 17.96875 -1.421875 11.734375 6.484375 
Q 5.515625 14.40625 5.515625 27.296875 
Q 5.515625 40.1875 11.734375 48.09375 
Q 17.96875 56 27.875 56 
Q 33.9375 56 38.25 53.625 
Q 42.578125 51.265625 45.40625 46.390625 
z
M 14.796875 27.296875 
Q 14.796875 17.390625 18.875 11.75 
Q 22.953125 6.109375 30.078125 6.109375 
Q 37.203125 6.109375 41.296875 11.75 
Q 45.40625 17.390625 45.40625 27.296875 
Q 45.40625 37.203125 41.296875 42.84375 
Q 37.203125 48.484375 30.078125 48.484375 
Q 22.953125 48.484375 18.875 42.84375 
Q 14.796875 37.203125 14.796875 27.296875 
z
" id="DejaVuSans-100"/>
       <path d="M 34.28125 27.484375 
Q 23.390625 27.484375 19.1875 25 
Q 14.984375 22.515625 14.984375 16.5 
Q 14.984375 11.71875 18.140625 8.90625 
Q 21.296875 6.109375 26.703125 6.109375 
Q 34.1875 6.109375 38.703125 11.40625 
Q 43.21875 16.703125 43.21875 25.484375 
L 43.21875 27.484375 
z
M 52.203125 31.203125 
L 52.203125 0 
L 43.21875 0 
L 43.21875 8.296875 
Q 40.140625 3.328125 35.546875 0.953125 
Q 30.953125 -1.421875 24.3125 -1.421875 
Q 15.921875 -1.421875 10.953125 3.296875 
Q 6 8.015625 6 15.921875 
Q 6 25.140625 12.171875 29.828125 
Q 18.359375 34.515625 30.609375 34.515625 
L 43.21875 34.515625 
L 43.21875 35.40625 
Q 43.21875 41.609375 39.140625 45 
Q 35.0625 48.390625 27.6875 48.390625 
Q 23 48.390625 18.546875 47.265625 
Q 14.109375 46.140625 10.015625 43.890625 
L 10.015625 52.203125 
Q 14.9375 54.109375 19.578125 55.046875 
Q 24.21875 56 28.609375 56 
Q 40.484375 56 46.34375 49.84375 
Q 52.203125 43.703125 52.203125 31.203125 
z
" id="DejaVuSans-97"/>
       <path d="M 32.171875 -5.078125 
Q 28.375 -14.84375 24.75 -17.8125 
Q 21.140625 -20.796875 15.09375 -20.796875 
L 7.90625 -20.796875 
L 7.90625 -13.28125 
L 13.1875 -13.28125 
Q 16.890625 -13.28125 18.9375 -11.515625 
Q 21 -9.765625 23.484375 -3.21875 
L 25.09375 0.875 
L 2.984375 54.6875 
L 12.5 54.6875 
L 29.59375 11.921875 
L 46.6875 54.6875 
L 56.203125 54.6875 
z
" id="DejaVuSans-121"/>
       <path d="M 44.28125 53.078125 
L 44.28125 44.578125 
Q 40.484375 46.53125 36.375 47.5 
Q 32.28125 48.484375 27.875 48.484375 
Q 21.1875 48.484375 17.84375 46.4375 
Q 14.5 44.390625 14.5 40.28125 
Q 14.5 37.15625 16.890625 35.375 
Q 19.28125 33.59375 26.515625 31.984375 
L 29.59375 31.296875 
Q 39.15625 29.25 43.1875 25.515625 
Q 47.21875 21.78125 47.21875 15.09375 
Q 47.21875 7.46875 41.1875 3.015625 
Q 35.15625 -1.421875 24.609375 -1.421875 
Q 20.21875 -1.421875 15.453125 -0.5625 
Q 10.6875 0.296875 5.421875 2 
L 5.421875 11.28125 
Q 10.40625 8.6875 15.234375 7.390625 
Q 20.0625 6.109375 24.8125 6.109375 
Q 31.15625 6.109375 34.5625 8.28125 
Q 37.984375 10.453125 37.984375 14.40625 
Q 37.984375 18.0625 35.515625 20.015625 
Q 33.0625 21.96875 24.703125 23.78125 
L 21.578125 24.515625 
Q 13.234375 26.265625 9.515625 29.90625 
Q 5.8125 33.546875 5.8125 39.890625 
Q 5.8125 47.609375 11.28125 51.796875 
Q 16.75 56 26.8125 56 
Q 31.78125 56 36.171875 55.265625 
Q 40.578125 54.546875 44.28125 53.078125 
z
" id="DejaVuSans-115"/>
       <path d="M 30.421875 75.984375 
L 30.421875 -13.1875 
L 9.71875 -13.1875 
L 9.71875 -6.203125 
L 21.390625 -6.203125 
L 21.390625 69 
L 9.71875 69 
L 9.71875 75.984375 
z
" id="DejaVuSans-93"/>
      </defs>
      <use xlink:href="#DejaVuSans-84"/>
      <use x="57.958984" xlink:href="#DejaVuSans-105"/>
      <use x="85.742188" xlink:href="#DejaVuSans-109"/>
      <use x="183.154297" xlink:href="#DejaVuSans-101"/>
      <use x="244.677734" xlink:href="#DejaVuSans-32"/>
      <use x="276.464844" xlink:href="#DejaVuSans-91"/>
      <use x="315.478516" xlink:href="#DejaVuSans-100"/>
      <use x="378.955078" xlink:href="#DejaVuSans-97"/>
      <use x="440.234375" xlink:href="#DejaVuSans-121"/>
      <use x="499.414062" xlink:href="#DejaVuSans-115"/>
      <use x="551.513672" xlink:href="#DejaVuSans-93"/>
     </g>
    </g>
   </g>
   <g id="matplotlib.axis_2">
    <g id="ytick_1">
     <g id="line2d_13">
      <path clip-path="url(#pa9c9f0672b)" d="M 70.868415 197.200452 
L 444.708118 197.200452 
" style="fill:none;stroke:#000000;stroke-linecap:square;stroke-opacity:0.1;stroke-width:0.5;"/>
     </g>
     <g id="line2d_14">
      <defs>
       <path d="M 0 0 
L 2.5 0 
" id="m873415fe38" style="stroke:#000000;stroke-width:0.5;"/>
      </defs>
      <g>
       <use style="stroke:#000000;stroke-width:0.5;" x="70.868415" xlink:href="#m873415fe38" y="197.200452"/>
      </g>
     </g>
     <g id="text_8">
      <!-- $\mathregular{0.0}$ -->
      <g transform="translate(44.868415 203.371077)scale(0.18 -0.18)">
       <defs>
        <path d="M 16.3125 -1.171875 
Q 13.96875 -1.171875 12.359375 0.453125 
Q 10.75 2.09375 10.75 4.390625 
Q 10.75 6.6875 12.375 8.296875 
Q 14.015625 9.90625 16.3125 9.90625 
Q 18.609375 9.90625 20.21875 8.296875 
Q 21.828125 6.6875 21.828125 4.390625 
Q 21.828125 2.09375 20.234375 0.453125 
Q 18.65625 -1.171875 16.3125 -1.171875 
z
" id="Times-Roman-46"/>
       </defs>
       <use transform="translate(0 0.8125)" xlink:href="#Times-Roman-48"/>
       <use transform="translate(50 0.8125)" xlink:href="#Times-Roman-46"/>
       <use transform="translate(75 0.8125)" xlink:href="#Times-Roman-48"/>
      </g>
     </g>
    </g>
    <g id="ytick_2">
     <g id="line2d_15">
      <path clip-path="url(#pa9c9f0672b)" d="M 70.868415 167.37627 
L 444.708118 167.37627 
" style="fill:none;stroke:#000000;stroke-linecap:square;stroke-opacity:0.1;stroke-width:0.5;"/>
     </g>
     <g id="line2d_16">
      <g>
       <use style="stroke:#000000;stroke-width:0.5;" x="70.868415" xlink:href="#m873415fe38" y="167.37627"/>
      </g>
     </g>
     <g id="text_9">
      <!-- $\mathregular{0.1}$ -->
      <g transform="translate(44.868415 173.546895)scale(0.18 -0.18)">
       <use transform="translate(0 0.8125)" xlink:href="#Times-Roman-48"/>
       <use transform="translate(50 0.8125)" xlink:href="#Times-Roman-46"/>
       <use transform="translate(75 0.8125)" xlink:href="#Times-Roman-49"/>
      </g>
     </g>
    </g>
    <g id="ytick_3">
     <g id="line2d_17">
      <path clip-path="url(#pa9c9f0672b)" d="M 70.868415 137.552088 
L 444.708118 137.552088 
" style="fill:none;stroke:#000000;stroke-linecap:square;stroke-opacity:0.1;stroke-width:0.5;"/>
     </g>
     <g id="line2d_18">
      <g>
       <use style="stroke:#000000;stroke-width:0.5;" x="70.868415" xlink:href="#m873415fe38" y="137.552088"/>
      </g>
     </g>
     <g id="text_10">
      <!-- $\mathregular{0.2}$ -->
      <g transform="translate(44.868415 143.722713)scale(0.18 -0.18)">
       <use transform="translate(0 0.609375)" xlink:href="#Times-Roman-48"/>
       <use transform="translate(50 0.609375)" xlink:href="#Times-Roman-46"/>
       <use transform="translate(75 0.609375)" xlink:href="#Times-Roman-50"/>
      </g>
     </g>
    </g>
    <g id="ytick_4">
     <g id="line2d_19">
      <path clip-path="url(#pa9c9f0672b)" d="M 70.868415 107.727906 
L 444.708118 107.727906 
" style="fill:none;stroke:#000000;stroke-linecap:square;stroke-opacity:0.1;stroke-width:0.5;"/>
     </g>
     <g id="line2d_20">
      <g>
       <use style="stroke:#000000;stroke-width:0.5;" x="70.868415" xlink:href="#m873415fe38" y="107.727906"/>
      </g>
     </g>
     <g id="text_11">
      <!-- $\mathregular{0.3}$ -->
      <g transform="translate(44.868415 113.898531)scale(0.18 -0.18)">
       <use transform="translate(0 0.328125)" xlink:href="#Times-Roman-48"/>
       <use transform="translate(50 0.328125)" xlink:href="#Times-Roman-46"/>
       <use transform="translate(75 0.328125)" xlink:href="#Times-Roman-51"/>
      </g>
     </g>
    </g>
    <g id="ytick_5">
     <g id="line2d_21">
      <path clip-path="url(#pa9c9f0672b)" d="M 70.868415 77.903725 
L 444.708118 77.903725 
" style="fill:none;stroke:#000000;stroke-linecap:square;stroke-opacity:0.1;stroke-width:0.5;"/>
     </g>
     <g id="line2d_22">
      <g>
       <use style="stroke:#000000;stroke-width:0.5;" x="70.868415" xlink:href="#m873415fe38" y="77.903725"/>
      </g>
     </g>
     <g id="text_12">
      <!-- $\mathregular{0.4}$ -->
      <g transform="translate(44.868415 84.07435)scale(0.18 -0.18)">
       <use transform="translate(0 0.8125)" xlink:href="#Times-Roman-48"/>
       <use transform="translate(50 0.8125)" xlink:href="#Times-Roman-46"/>
       <use transform="translate(75 0.8125)" xlink:href="#Times-Roman-52"/>
      </g>
     </g>
    </g>
    <g id="ytick_6">
     <g id="line2d_23">
      <path clip-path="url(#pa9c9f0672b)" d="M 70.868415 48.079543 
L 444.708118 48.079543 
" style="fill:none;stroke:#000000;stroke-linecap:square;stroke-opacity:0.1;stroke-width:0.5;"/>
     </g>
     <g id="line2d_24">
      <g>
       <use style="stroke:#000000;stroke-width:0.5;" x="70.868415" xlink:href="#m873415fe38" y="48.079543"/>
      </g>
     </g>
     <g id="text_13">
      <!-- $\mathregular{0.5}$ -->
      <g transform="translate(44.868415 54.250168)scale(0.18 -0.18)">
       <use transform="translate(0 0.296875)" xlink:href="#Times-Roman-48"/>
       <use transform="translate(50 0.296875)" xlink:href="#Times-Roman-46"/>
       <use transform="translate(75 0.296875)" xlink:href="#Times-Roman-53"/>
      </g>
     </g>
    </g>
    <g id="text_14">
     <!-- Normalized Population -->
     <g transform="translate(37.124978 223.819687)rotate(-90)scale(0.18 -0.18)">
      <defs>
       <path d="M 9.8125 72.90625 
L 23.09375 72.90625 
L 55.421875 11.921875 
L 55.421875 72.90625 
L 64.984375 72.90625 
L 64.984375 0 
L 51.703125 0 
L 19.390625 60.984375 
L 19.390625 0 
L 9.8125 0 
z
" id="DejaVuSans-78"/>
       <path d="M 30.609375 48.390625 
Q 23.390625 48.390625 19.1875 42.75 
Q 14.984375 37.109375 14.984375 27.296875 
Q 14.984375 17.484375 19.15625 11.84375 
Q 23.34375 6.203125 30.609375 6.203125 
Q 37.796875 6.203125 41.984375 11.859375 
Q 46.1875 17.53125 46.1875 27.296875 
Q 46.1875 37.015625 41.984375 42.703125 
Q 37.796875 48.390625 30.609375 48.390625 
z
M 30.609375 56 
Q 42.328125 56 49.015625 48.375 
Q 55.71875 40.765625 55.71875 27.296875 
Q 55.71875 13.875 49.015625 6.21875 
Q 42.328125 -1.421875 30.609375 -1.421875 
Q 18.84375 -1.421875 12.171875 6.21875 
Q 5.515625 13.875 5.515625 27.296875 
Q 5.515625 40.765625 12.171875 48.375 
Q 18.84375 56 30.609375 56 
z
" id="DejaVuSans-111"/>
       <path d="M 41.109375 46.296875 
Q 39.59375 47.171875 37.8125 47.578125 
Q 36.03125 48 33.890625 48 
Q 26.265625 48 22.1875 43.046875 
Q 18.109375 38.09375 18.109375 28.8125 
L 18.109375 0 
L 9.078125 0 
L 9.078125 54.6875 
L 18.109375 54.6875 
L 18.109375 46.1875 
Q 20.953125 51.171875 25.484375 53.578125 
Q 30.03125 56 36.53125 56 
Q 37.453125 56 38.578125 55.875 
Q 39.703125 55.765625 41.0625 55.515625 
z
" id="DejaVuSans-114"/>
       <path d="M 9.421875 75.984375 
L 18.40625 75.984375 
L 18.40625 0 
L 9.421875 0 
z
" id="DejaVuSans-108"/>
       <path d="M 5.515625 54.6875 
L 48.1875 54.6875 
L 48.1875 46.484375 
L 14.40625 7.171875 
L 48.1875 7.171875 
L 48.1875 0 
L 4.296875 0 
L 4.296875 8.203125 
L 38.09375 47.515625 
L 5.515625 47.515625 
z
" id="DejaVuSans-122"/>
       <path d="M 19.671875 64.796875 
L 19.671875 37.40625 
L 32.078125 37.40625 
Q 38.96875 37.40625 42.71875 40.96875 
Q 46.484375 44.53125 46.484375 51.125 
Q 46.484375 57.671875 42.71875 61.234375 
Q 38.96875 64.796875 32.078125 64.796875 
z
M 9.8125 72.90625 
L 32.078125 72.90625 
Q 44.34375 72.90625 50.609375 67.359375 
Q 56.890625 61.8125 56.890625 51.125 
Q 56.890625 40.328125 50.609375 34.8125 
Q 44.34375 29.296875 32.078125 29.296875 
L 19.671875 29.296875 
L 19.671875 0 
L 9.8125 0 
z
" id="DejaVuSans-80"/>
       <path d="M 18.109375 8.203125 
L 18.109375 -20.796875 
L 9.078125 -20.796875 
L 9.078125 54.6875 
L 18.109375 54.6875 
L 18.109375 46.390625 
Q 20.953125 51.265625 25.265625 53.625 
Q 29.59375 56 35.59375 56 
Q 45.5625 56 51.78125 48.09375 
Q 58.015625 40.1875 58.015625 27.296875 
Q 58.015625 14.40625 51.78125 6.484375 
Q 45.5625 -1.421875 35.59375 -1.421875 
Q 29.59375 -1.421875 25.265625 0.953125 
Q 20.953125 3.328125 18.109375 8.203125 
z
M 48.6875 27.296875 
Q 48.6875 37.203125 44.609375 42.84375 
Q 40.53125 48.484375 33.40625 48.484375 
Q 26.265625 48.484375 22.1875 42.84375 
Q 18.109375 37.203125 18.109375 27.296875 
Q 18.109375 17.390625 22.1875 11.75 
Q 26.265625 6.109375 33.40625 6.109375 
Q 40.53125 6.109375 44.609375 11.75 
Q 48.6875 17.390625 48.6875 27.296875 
z
" id="DejaVuSans-112"/>
       <path d="M 8.5 21.578125 
L 8.5 54.6875 
L 17.484375 54.6875 
L 17.484375 21.921875 
Q 17.484375 14.15625 20.5 10.265625 
Q 23.53125 6.390625 29.59375 6.390625 
Q 36.859375 6.390625 41.078125 11.03125 
Q 45.3125 15.671875 45.3125 23.6875 
L 45.3125 54.6875 
L 54.296875 54.6875 
L 54.296875 0 
L 45.3125 0 
L 45.3125 8.40625 
Q 42.046875 3.421875 37.71875 1 
Q 33.40625 -1.421875 27.6875 -1.421875 
Q 18.265625 -1.421875 13.375 4.4375 
Q 8.5 10.296875 8.5 21.578125 
z
M 31.109375 56 
z
" id="DejaVuSans-117"/>
       <path d="M 18.3125 70.21875 
L 18.3125 54.6875 
L 36.8125 54.6875 
L 36.8125 47.703125 
L 18.3125 47.703125 
L 18.3125 18.015625 
Q 18.3125 11.328125 20.140625 9.421875 
Q 21.96875 7.515625 27.59375 7.515625 
L 36.8125 7.515625 
L 36.8125 0 
L 27.59375 0 
Q 17.1875 0 13.234375 3.875 
Q 9.28125 7.765625 9.28125 18.015625 
L 9.28125 47.703125 
L 2.6875 47.703125 
L 2.6875 54.6875 
L 9.28125 54.6875 
L 9.28125 70.21875 
z
" id="DejaVuSans-116"/>
       <path d="M 54.890625 33.015625 
L 54.890625 0 
L 45.90625 0 
L 45.90625 32.71875 
Q 45.90625 40.484375 42.875 44.328125 
Q 39.84375 48.1875 33.796875 48.1875 
Q 26.515625 48.1875 22.3125 43.546875 
Q 18.109375 38.921875 18.109375 30.90625 
L 18.109375 0 
L 9.078125 0 
L 9.078125 54.6875 
L 18.109375 54.6875 
L 18.109375 46.1875 
Q 21.34375 51.125 25.703125 53.5625 
Q 30.078125 56 35.796875 56 
Q 45.21875 56 50.046875 50.171875 
Q 54.890625 44.34375 54.890625 33.015625 
z
" id="DejaVuSans-110"/>
      </defs>
      <use xlink:href="#DejaVuSans-78"/>
      <use x="74.804688" xlink:href="#DejaVuSans-111"/>
      <use x="135.986328" xlink:href="#DejaVuSans-114"/>
      <use x="175.349609" xlink:href="#DejaVuSans-109"/>
      <use x="272.761719" xlink:href="#DejaVuSans-97"/>
      <use x="334.041016" xlink:href="#DejaVuSans-108"/>
      <use x="361.824219" xlink:href="#DejaVuSans-105"/>
      <use x="389.607422" xlink:href="#DejaVuSans-122"/>
      <use x="442.097656" xlink:href="#DejaVuSans-101"/>
      <use x="503.621094" xlink:href="#DejaVuSans-100"/>
      <use x="567.097656" xlink:href="#DejaVuSans-32"/>
      <use x="598.884766" xlink:href="#DejaVuSans-80"/>
      <use x="655.5625" xlink:href="#DejaVuSans-111"/>
      <use x="716.744141" xlink:href="#DejaVuSans-112"/>
      <use x="780.220703" xlink:href="#DejaVuSans-117"/>
      <use x="843.599609" xlink:href="#DejaVuSans-108"/>
      <use x="871.382812" xlink:href="#DejaVuSans-97"/>
      <use x="932.662109" xlink:href="#DejaVuSans-116"/>
      <use x="971.871094" xlink:href="#DejaVuSans-105"/>
      <use x="999.654297" xlink:href="#DejaVuSans-111"/>
      <use x="1060.835938" xlink:href="#DejaVuSans-110"/>
     </g>
    </g>
   </g>
   <g id="line2d_25">
    <path clip-path="url(#pa9c9f0672b)" d="M 81.448784 196.90221 
L 84.975574 196.570117 
L 87.514862 196.12144 
L 89.5604 195.538928 
L 91.253259 194.828755 
L 92.734511 193.967118 
L 94.074691 192.927577 
L 95.344335 191.646476 
L 96.543444 190.101043 
L 97.672017 188.277427 
L 98.800589 186.018439 
L 99.223804 185.26975 
L 101.904164 183.105659 
L 104.584524 180.654555 
L 107.405956 177.767194 
L 110.438995 174.337908 
L 114.036321 169.917815 
L 125.180976 155.947509 
L 127.649729 153.368263 
L 129.765802 151.461238 
L 131.740805 149.97679 
L 133.574735 148.8789 
L 135.267594 148.118525 
L 136.889917 147.623518 
L 138.512241 147.357748 
L 140.134564 147.317356 
L 141.756887 147.494569 
L 143.449746 147.899385 
L 145.283677 148.573071 
L 147.258679 149.545643 
L 149.445289 150.883029 
L 151.914041 152.666225 
L 154.876545 155.09905 
L 155.511367 155.652177 
L 155.581903 155.568724 
L 157.204226 153.834966 
L 158.614942 152.635616 
L 159.955122 151.777276 
L 161.224766 151.221794 
L 162.49441 150.915367 
L 163.693519 150.848249 
L 164.963163 151.001361 
L 166.303343 151.396333 
L 167.714059 152.047671 
L 169.265846 153.010421 
L 171.029241 154.369519 
L 173.145315 156.295131 
L 175.825675 159.057747 
L 180.128359 163.866129 
L 186.264973 170.673322 
L 189.932834 174.401575 
L 193.248016 177.461118 
L 196.422127 180.093514 
L 199.596237 182.435925 
L 202.770348 184.500782 
L 206.014995 186.344807 
L 209.330177 187.975661 
L 212.856966 189.460119 
L 216.595363 190.787083 
L 220.545368 191.952714 
L 224.848051 192.990121 
L 229.644485 193.912346 
L 235.005205 194.710236 
L 241.141819 195.391715 
L 248.33647 195.959061 
L 257.082909 196.416062 
L 268.227564 196.764095 
L 283.604367 197.006459 
L 308.291894 197.147744 
L 366.342852 197.197996 
L 434.127749 197.200385 
L 434.127749 197.200385 
" style="fill:none;stroke:#000000;stroke-width:4;"/>
   </g>
   <g id="line2d_26">
    <path clip-path="url(#pa9c9f0672b)" d="M 81.448784 196.90221 
L 84.485502 196.632344 
L 87.127609 196.206318 
L 89.212787 195.656358 
L 90.880727 195.007214 
L 92.38207 194.196651 
L 93.752566 193.204033 
L 95.01897 192.006637 
L 96.202101 190.57893 
L 97.318858 188.891499 
L 98.487762 186.693463 
L 99.611054 184.080788 
L 100.705751 180.976549 
L 101.889715 176.899533 
L 103.094823 171.878507 
L 104.371671 165.5038 
L 105.749836 157.350207 
L 107.310817 146.589818 
L 109.283142 131.209291 
L 113.1185 100.924276 
L 114.489867 92.052231 
L 115.593999 86.25364 
L 116.55882 82.300464 
L 117.433339 79.652415 
L 118.153179 78.137057 
L 118.771117 77.30074 
L 119.274506 76.923829 
L 119.764607 76.807248 
L 120.242523 76.919389 
L 120.803284 77.318065 
L 121.445385 78.10217 
L 122.170503 79.367718 
L 123.074254 81.438214 
L 124.169403 84.557136 
L 125.577395 89.318129 
L 127.464158 96.567936 
L 131.439712 113.014569 
L 134.764198 126.282199 
L 137.381018 135.813587 
L 139.786683 143.720162 
L 142.00574 150.265443 
L 144.137105 155.895305 
L 146.349175 161.096799 
L 148.39735 165.373457 
L 150.498575 169.268357 
L 152.657455 172.799668 
L 154.881791 175.991088 
L 157.181289 178.867013 
L 159.297325 181.177341 
L 161.490159 183.271953 
L 163.769367 185.164981 
L 166.145622 186.869595 
L 168.630935 188.398134 
L 171.238984 189.762226 
L 174.339465 191.113983 
L 177.64175 192.286521 
L 181.177775 193.294144 
L 184.986734 194.15061 
L 189.599025 194.941141 
L 194.69619 195.57923 
L 201.004631 196.125668 
L 208.266247 196.531027 
L 217.679919 196.838189 
L 231.640688 197.054772 
L 254.837474 197.168398 
L 320.574859 197.200015 
L 434.127749 197.200452 
L 434.127749 197.200452 
" style="fill:none;stroke:#ff0000;stroke-width:4;"/>
   </g>
   <g id="patch_3">
    <path d="M 70.868415 201.674085 
L 70.868415 43.605915 
" style="fill:none;stroke:#000000;stroke-linecap:square;stroke-linejoin:miter;"/>
   </g>
   <g id="patch_4">
    <path d="M 70.868415 201.674085 
L 444.708118 201.674085 
" style="fill:none;stroke:#000000;stroke-linecap:square;stroke-linejoin:miter;"/>
   </g>
   <g id="line2d_27">
    <path clip-path="url(#pa9c9f0672b)" d="M 81.448784 196.90221 
L 91.551193 196.591785 
L 99.178644 196.16024 
L 105.26001 195.610268 
L 110.213032 194.960022 
L 114.71666 194.150217 
L 118.509344 193.257531 
L 122.079051 192.196975 
L 125.477607 190.947444 
L 128.42821 189.640603 
L 131.30976 188.138063 
L 134.154978 186.412223 
L 136.998631 184.428761 
L 139.876153 182.147857 
L 142.809536 179.540182 
L 146.087173 176.312143 
L 149.826275 172.298561 
L 161.835447 159.103843 
L 164.392868 156.771016 
L 166.722842 154.947923 
L 168.847465 153.579078 
L 170.773228 152.604124 
L 172.495943 151.957497 
L 174.259377 151.521239 
L 176.065853 151.311042 
L 177.913962 151.338718 
L 179.798697 151.609193 
L 181.713044 152.118598 
L 183.650514 152.854694 
L 185.888351 153.950246 
L 188.436411 155.469999 
L 191.31533 157.464326 
L 194.863327 160.20811 
L 200.46549 164.865507 
L 208.321608 171.35896 
L 212.794859 174.779914 
L 217.122844 177.809668 
L 221.232977 180.406031 
L 225.066034 182.576386 
L 229.024508 184.570347 
L 233.115015 186.381472 
L 237.351651 188.011293 
L 241.755007 189.466201 
L 246.35145 190.75522 
L 251.173039 191.888625 
L 256.841295 192.978523 
L 262.898703 193.90438 
L 269.424081 194.680788 
L 277.262072 195.379218 
L 285.961485 195.932501 
L 296.718393 196.391622 
L 310.388677 196.74448 
L 330.021646 197.000653 
L 360.98975 197.146192 
L 434.127749 197.197962 
L 434.127749 197.197962 
" style="fill:none;stroke:#0000ff;stroke-width:4;"/>
   </g>
   <g id="text_15">
    <!-- I(t) -->
    <g transform="translate(243.74436 37.605915)scale(0.22 -0.22)">
     <defs>
      <path d="M 1.609375 1.8125 
Q 7.71875 2.25 9.515625 3.640625 
Q 11.328125 5.03125 11.328125 10.84375 
L 11.328125 55.328125 
Q 11.328125 60.84375 9.515625 62.421875 
Q 7.71875 64.015625 1.609375 64.3125 
L 1.609375 66.15625 
L 31.203125 66.15625 
L 31.203125 64.3125 
Q 25.09375 64.015625 23.28125 62.421875 
Q 21.484375 60.84375 21.484375 55.328125 
L 21.484375 10.84375 
Q 21.484375 5.03125 23.28125 3.640625 
Q 25.09375 2.25 31.203125 1.8125 
L 31.203125 0 
L 1.609375 0 
z
M 16.40625 66.15625 
z
" id="Times-Roman-73"/>
      <path d="M 4.59375 25.09375 
Q 4.59375 42.09375 14.75 54.9375 
Q 21 62.796875 29.5 67.578125 
L 30.421875 65.96875 
Q 22.5625 59.71875 19.1875 53.8125 
Q 13.28125 43.5 13.28125 26.375 
Q 13.28125 13.671875 15.53125 5.421875 
Q 19.484375 -9.03125 30.421875 -16.21875 
L 29.15625 -17.828125 
Q 23.140625 -14.9375 16.15625 -6.546875 
Q 4.59375 7.375 4.59375 25.09375 
z
" id="Times-Roman-40"/>
      <path d="M 25.4375 45.015625 
L 25.4375 41.5 
L 15.484375 41.5 
L 15.375 13.375 
Q 15.375 9.671875 16.015625 7.765625 
Q 17.1875 4.390625 20.609375 4.390625 
Q 22.359375 4.390625 23.65625 5.21875 
Q 24.953125 6.0625 26.609375 7.859375 
L 27.875 6.78125 
L 26.8125 5.328125 
Q 24.265625 1.90625 21.4375 0.484375 
Q 18.609375 -0.921875 15.96875 -0.921875 
Q 10.203125 -0.921875 8.15625 4.203125 
Q 7.03125 6.984375 7.03125 11.921875 
L 7.03125 41.5 
L 1.703125 41.5 
Q 1.46875 41.65625 1.34375 41.796875 
Q 1.21875 41.9375 1.21875 42.1875 
Q 1.21875 42.671875 1.4375 42.9375 
Q 1.65625 43.21875 2.828125 44.1875 
Q 6.203125 46.96875 7.6875 48.703125 
Q 9.1875 50.4375 14.703125 57.859375 
Q 15.328125 57.859375 15.453125 57.765625 
Q 15.578125 57.671875 15.578125 57.03125 
L 15.578125 45.015625 
z
" id="Times-Roman-116"/>
      <path d="M 28.46875 24.609375 
Q 28.46875 17.328125 26.5625 10.828125 
Q 24.65625 4.34375 21 -1.421875 
Q 17.140625 -7.5625 10.6875 -12.890625 
Q 6.453125 -16.40625 3.5625 -17.828125 
L 2.640625 -16.21875 
Q 10.15625 -10.5 13.625 -4.546875 
Q 19.78125 6 19.78125 23.34375 
Q 19.78125 37.359375 16.9375 46.234375 
Q 12.984375 58.796875 2.640625 65.96875 
L 3.90625 67.578125 
Q 11.625 63.28125 18.265625 54.59375 
Q 28.46875 41.21875 28.46875 24.609375 
z
" id="Times-Roman-41"/>
     </defs>
     <use xlink:href="#Times-Roman-73"/>
     <use x="33.300781" xlink:href="#Times-Roman-40"/>
     <use x="66.601562" xlink:href="#Times-Roman-116"/>
     <use x="94.384766" xlink:href="#Times-Roman-41"/>
    </g>
   </g>
   <g id="line2d_28">
    <path clip-path="url(#pa9c9f0672b)" d="M 81.448784 48.079543 
L 98.377375 48.079543 
L 99.082733 122.639997 
L 155.511367 122.639997 
L 156.216725 48.079543 
L 434.127749 48.079543 
L 434.127749 48.079543 
" style="fill:none;stroke:#000000;stroke-dasharray:14.8,6.4;stroke-dashoffset:0;stroke-width:4;"/>
   </g>
   <g id="legend_1">
    <g id="patch_5">
     <path d="M 229.526555 175.37154 
L 435.708118 175.37154 
L 435.708118 52.605915 
L 229.526555 52.605915 
z
" style="fill:#ffffff;stroke:#000000;stroke-linejoin:miter;"/>
    </g>
    <g id="line2d_29">
     <path d="M 243.926555 73.305915 
L 279.926555 73.305915 
" style="fill:none;stroke:#000000;stroke-linejoin:miter;stroke-width:2.25;"/>
    </g>
    <g id="line2d_30"/>
    <g id="text_16">
     <!-- Limited Time SD -->
     <g transform="translate(294.326555 79.605915)scale(0.18 -0.18)">
      <defs>
       <path d="M 1.125 1.8125 
Q 6.640625 2.390625 8.265625 3.78125 
Q 9.90625 5.171875 9.90625 10.84375 
L 9.90625 55.328125 
Q 9.90625 60.640625 8.296875 62.28125 
Q 6.6875 63.921875 1.125 64.3125 
L 1.125 66.15625 
L 29.390625 66.15625 
L 29.390625 64.3125 
Q 23.875 64.015625 22 62.5 
Q 20.125 60.984375 20.125 56 
L 20.125 7.953125 
Q 20.125 6.296875 20.671875 5.34375 
Q 21.234375 4.390625 23.140625 4.15625 
Q 24.265625 4 25.515625 3.953125 
Q 26.765625 3.90625 30.171875 3.90625 
Q 43.5 3.90625 48.1875 6.09375 
Q 52.875 8.296875 57.28125 17.328125 
L 59.8125 17.328125 
L 54.9375 0 
L 1.125 0 
z
" id="Times-Roman-76"/>
       <path d="M 8.203125 63.03125 
Q 8.203125 65.140625 9.671875 66.65625 
Q 11.140625 68.171875 13.28125 68.171875 
Q 15.375 68.171875 16.859375 66.671875 
Q 18.359375 65.1875 18.359375 63.03125 
Q 18.359375 60.9375 16.859375 59.4375 
Q 15.375 57.953125 13.28125 57.953125 
Q 11.140625 57.953125 9.671875 59.4375 
Q 8.203125 60.9375 8.203125 63.03125 
z
M 1.953125 1.375 
Q 7.171875 1.859375 8.53125 3.140625 
Q 9.90625 4.4375 9.90625 10.15625 
L 9.90625 33.453125 
Q 9.90625 36.625 9.46875 37.84375 
Q 8.734375 39.84375 6.390625 39.84375 
Q 5.859375 39.84375 5.34375 39.75 
Q 4.828125 39.65625 2.390625 38.96875 
L 2.390625 40.484375 
L 4.5 41.15625 
Q 13.03125 43.953125 16.40625 45.359375 
Q 17.78125 45.953125 18.171875 45.953125 
Q 18.265625 45.609375 18.265625 45.21875 
L 18.265625 10.15625 
Q 18.265625 4.59375 19.609375 3.171875 
Q 20.953125 1.765625 25.6875 1.375 
L 25.6875 0 
L 1.953125 0 
z
" id="Times-Roman-105"/>
       <path d="M 1.609375 1.265625 
Q 5.421875 1.609375 6.6875 2.546875 
Q 8.640625 3.953125 8.640625 8.203125 
L 8.640625 33.453125 
Q 8.640625 37.0625 7.6875 38.1875 
Q 6.734375 39.3125 4.546875 39.3125 
Q 3.515625 39.3125 3 39.203125 
Q 2.484375 39.109375 1.8125 38.875 
L 1.8125 40.578125 
L 5.328125 41.75 
Q 7.234375 42.390625 11.578125 44.046875 
Q 15.921875 45.703125 16.15625 45.703125 
Q 16.40625 45.703125 16.453125 45.453125 
Q 16.5 45.21875 16.5 44.53125 
L 16.5 37.9375 
Q 21.34375 42.328125 24.859375 44.015625 
Q 28.375 45.703125 32.078125 45.703125 
Q 37.109375 45.703125 40.09375 42.28125 
Q 41.65625 40.4375 42.671875 37.25 
Q 46.296875 40.921875 48.96875 42.671875 
Q 53.609375 45.703125 58.453125 45.703125 
Q 66.3125 45.703125 68.953125 39.3125 
Q 70.453125 35.6875 70.453125 27.875 
L 70.453125 7.625 
Q 70.453125 4.15625 71.984375 2.90625 
Q 73.53125 1.65625 77.546875 1.265625 
L 77.546875 0 
L 55.515625 0 
L 55.515625 1.375 
Q 59.765625 1.765625 61.109375 3.078125 
Q 62.453125 4.390625 62.453125 8.453125 
L 62.453125 29.5 
Q 62.453125 34.234375 61.421875 36.46875 
Q 59.625 40.484375 54.34375 40.484375 
Q 51.171875 40.484375 48.046875 38.375 
Q 46.234375 37.15625 43.609375 34.46875 
L 43.609375 9.46875 
Q 43.609375 5.515625 45 3.46875 
Q 46.390625 1.421875 50.875 1.265625 
L 50.875 0 
L 28.46875 0 
L 28.46875 1.265625 
Q 33.109375 1.859375 34.375 3.515625 
Q 35.640625 5.171875 35.640625 11.671875 
L 35.640625 25.34375 
Q 35.640625 32.859375 34.671875 35.6875 
Q 33.0625 40.484375 27.828125 40.484375 
Q 24.859375 40.484375 21.96875 38.84375 
Q 19.09375 37.203125 16.890625 34.578125 
L 16.890625 7.859375 
Q 16.890625 4.15625 18.1875 2.734375 
Q 19.484375 1.3125 23.828125 1.265625 
L 23.828125 0 
L 1.609375 0 
z
" id="Times-Roman-109"/>
       <path d="M 22.90625 45.796875 
Q 29.78125 45.796875 34.953125 41.03125 
Q 40.140625 36.28125 40.140625 27.546875 
L 9.125 27.546875 
Q 9.625 16.21875 14.25 11.03125 
Q 18.890625 5.859375 25.25 5.859375 
Q 30.375 5.859375 33.890625 8.546875 
Q 37.40625 11.234375 40.375 16.15625 
L 42.09375 15.578125 
Q 40.09375 9.375 34.59375 4.09375 
Q 29.109375 -1.171875 21.140625 -1.171875 
Q 11.96875 -1.171875 6.953125 5.765625 
Q 1.953125 12.703125 1.953125 21.734375 
Q 1.953125 31.546875 7.765625 38.671875 
Q 13.578125 45.796875 22.90625 45.796875 
z
M 20.0625 42.234375 
Q 14.5 42.234375 11.578125 37.3125 
Q 10.015625 34.671875 9.328125 30.671875 
L 29.9375 30.671875 
Q 29.390625 35.546875 28.078125 37.9375 
Q 25.6875 42.234375 20.0625 42.234375 
z
M 22.265625 45.796875 
z
" id="Times-Roman-101"/>
       <path d="M 23.6875 46.140625 
Q 27.25 46.140625 30.21875 44.578125 
Q 32.171875 43.5625 33.984375 41.75 
L 33.984375 57.28125 
Q 33.984375 60.25 33.328125 61.375 
Q 32.671875 62.5 30.171875 62.5 
Q 29.59375 62.5 29.15625 62.453125 
Q 28.71875 62.40625 27.203125 62.25 
L 27.203125 63.875 
L 31.203125 64.890625 
Q 33.40625 65.484375 35.59375 66.109375 
Q 37.796875 66.75 39.453125 67.328125 
Q 40.234375 67.578125 42.046875 68.265625 
L 42.328125 68.171875 
L 42.234375 63.03125 
Q 42.1875 60.25 42.140625 57.296875 
Q 42.09375 54.34375 42.09375 51.46875 
L 42 11.578125 
Q 42 8.40625 42.78125 7.125 
Q 43.5625 5.859375 46.921875 5.859375 
Q 47.46875 5.859375 48 5.875 
Q 48.53125 5.90625 49.078125 6 
L 49.078125 4.390625 
Q 48.78125 4.296875 42 1.953125 
L 34.328125 -0.921875 
L 33.984375 -0.484375 
L 33.984375 5.515625 
Q 31.25 2.546875 29.25 1.265625 
Q 25.6875 -0.921875 21 -0.921875 
Q 12.703125 -0.921875 7.546875 5.5 
Q 2.390625 11.921875 2.390625 20.359375 
Q 2.390625 30.953125 8.5625 38.546875 
Q 14.75 46.140625 23.6875 46.140625 
z
M 25.484375 4.34375 
Q 29.296875 4.34375 31.640625 6.59375 
Q 33.984375 8.84375 33.984375 10.84375 
L 33.984375 31.78125 
Q 33.984375 38.140625 30.59375 40.75 
Q 27.203125 43.359375 23.96875 43.359375 
Q 17.828125 43.359375 14.40625 37.90625 
Q 10.984375 32.46875 10.984375 24.515625 
Q 10.984375 16.65625 14.625 10.5 
Q 18.265625 4.34375 25.484375 4.34375 
z
" id="Times-Roman-100"/>
       <path id="Times-Roman-32"/>
       <path d="M 1.953125 66.15625 
L 58.453125 66.15625 
L 58.984375 49.171875 
L 56.59375 49.171875 
Q 54.828125 57.171875 52.125 59.59375 
Q 49.421875 62.015625 40.71875 62.015625 
L 35.15625 62.015625 
L 35.15625 10.84375 
Q 35.15625 5.03125 36.953125 3.640625 
Q 38.765625 2.25 44.875 1.8125 
L 44.875 0 
L 15.71875 0 
L 15.71875 1.8125 
Q 22.078125 2.296875 23.640625 3.90625 
Q 25.203125 5.515625 25.203125 12.015625 
L 25.203125 62.015625 
L 19.625 62.015625 
Q 11.328125 62.015625 8.328125 59.625 
Q 5.328125 57.234375 3.8125 49.171875 
L 1.375 49.171875 
z
" id="Times-Roman-84"/>
       <path d="M 6.453125 20.125 
Q 8.984375 13.375 12.40625 9.375 
Q 18.359375 2.390625 27.203125 2.390625 
Q 31.984375 2.390625 35.46875 5.421875 
Q 38.96875 8.453125 38.96875 13.875 
Q 38.96875 18.75 35.453125 22.359375 
Q 33.15625 24.65625 25.78125 29.25 
L 17.234375 34.578125 
Q 13.375 37.015625 11.078125 39.5 
Q 6.84375 44.234375 6.84375 49.953125 
Q 6.84375 57.515625 11.859375 62.546875 
Q 16.890625 67.578125 25.203125 67.578125 
Q 28.609375 67.578125 33.421875 65.890625 
Q 38.234375 64.203125 38.921875 64.203125 
Q 40.765625 64.203125 41.46875 65.078125 
Q 42.1875 65.96875 42.578125 67.578125 
L 44.625 67.578125 
L 46.828125 46.296875 
L 44.4375 46.296875 
Q 42 55.90625 36.59375 59.71875 
Q 31.203125 63.53125 25.921875 63.53125 
Q 21.828125 63.53125 18.765625 61.109375 
Q 15.71875 58.6875 15.71875 54.390625 
Q 15.71875 50.53125 18.0625 47.796875 
Q 20.40625 45.015625 25.34375 42 
L 34.125 36.578125 
Q 42.390625 31.5 45.75 27.25 
Q 49.078125 22.953125 49.078125 17.09375 
Q 49.078125 9.234375 43.140625 3.953125 
Q 37.203125 -1.3125 27.984375 -1.3125 
Q 23.34375 -1.3125 18.28125 0.4375 
Q 13.234375 2.203125 12.5 2.203125 
Q 10.75 2.203125 10.125 1.125 
Q 9.515625 0.046875 9.328125 -1.171875 
L 7.125 -1.171875 
L 4.15625 20.125 
z
M 27.828125 67.578125 
z
" id="Times-Roman-83"/>
       <path d="M 20.5625 7.71875 
Q 20.5625 5.28125 21.75 4.5 
Q 22.953125 3.71875 26.703125 3.71875 
Q 38.421875 3.71875 46 8.34375 
Q 57.625 15.484375 57.625 32.71875 
Q 57.625 48.09375 48.046875 55.859375 
Q 39.84375 62.5 26.3125 62.5 
Q 22.953125 62.5 21.75 61.765625 
Q 20.5625 61.03125 20.5625 58.546875 
L 20.5625 7.71875 
z
M 1.609375 1.8125 
Q 7.078125 2.390625 8.734375 3.78125 
Q 10.40625 5.171875 10.40625 10.84375 
L 10.40625 55.328125 
Q 10.40625 60.796875 8.78125 62.359375 
Q 7.171875 63.921875 1.609375 64.3125 
L 1.609375 66.15625 
L 28.5625 66.15625 
Q 42.1875 66.15625 51.609375 61.671875 
Q 68.609375 53.609375 68.609375 32.859375 
Q 68.609375 25.390625 65.546875 18.65625 
Q 62.5 11.921875 56.34375 7.28125 
Q 52.4375 4.34375 48.25 2.828125 
Q 40.578125 0 29.390625 0 
L 1.609375 0 
z
" id="Times-Roman-68"/>
      </defs>
      <use xlink:href="#Times-Roman-76"/>
      <use x="61.083984" xlink:href="#Times-Roman-105"/>
      <use x="88.867188" xlink:href="#Times-Roman-109"/>
      <use x="166.650391" xlink:href="#Times-Roman-105"/>
      <use x="194.433594" xlink:href="#Times-Roman-116"/>
      <use x="222.216797" xlink:href="#Times-Roman-101"/>
      <use x="266.601562" xlink:href="#Times-Roman-100"/>
      <use x="316.601562" xlink:href="#Times-Roman-32"/>
      <use x="341.601562" xlink:href="#Times-Roman-84"/>
      <use x="402.685547" xlink:href="#Times-Roman-105"/>
      <use x="430.46875" xlink:href="#Times-Roman-109"/>
      <use x="508.251953" xlink:href="#Times-Roman-101"/>
      <use x="552.636719" xlink:href="#Times-Roman-32"/>
      <use x="577.636719" xlink:href="#Times-Roman-83"/>
      <use x="633.251953" xlink:href="#Times-Roman-68"/>
     </g>
    </g>
    <g id="line2d_31">
     <path d="M 243.926555 98.82654 
L 279.926555 98.82654 
" style="fill:none;stroke:#ff0000;stroke-linejoin:miter;stroke-width:2.25;"/>
    </g>
    <g id="line2d_32"/>
    <g id="text_17">
     <!-- No SD -->
     <g transform="translate(294.326555 105.12654)scale(0.18 -0.18)">
      <defs>
       <path d="M 1.125 1.8125 
Q 7.328125 2.4375 9.078125 4.609375 
Q 10.84375 6.78125 10.84375 14.703125 
L 10.84375 58.796875 
L 9.46875 60.40625 
Q 7.28125 62.984375 5.734375 63.59375 
Q 4.203125 64.203125 1.125 64.3125 
L 1.125 66.15625 
L 18.265625 66.15625 
L 56.78125 18.015625 
L 56.78125 51.46875 
Q 56.78125 59.71875 54.34375 62.203125 
Q 52.734375 63.8125 47.21875 64.3125 
L 47.21875 66.15625 
L 70.703125 66.15625 
L 70.703125 64.3125 
Q 64.984375 63.71875 63.078125 61.515625 
Q 61.1875 59.328125 61.1875 51.46875 
L 61.1875 -1.171875 
L 59.46875 -1.171875 
L 15.234375 53.65625 
L 15.234375 14.703125 
Q 15.234375 6.5 17.625 4 
Q 19.1875 2.390625 24.609375 1.8125 
L 24.609375 0 
L 1.125 0 
z
M 36.1875 66.15625 
z
" id="Times-Roman-78"/>
       <path d="M 2.546875 22.65625 
Q 2.546875 32.375 8.71875 39.078125 
Q 14.890625 45.796875 24.609375 45.796875 
Q 34.28125 45.796875 40.625 39.453125 
Q 46.96875 33.109375 46.96875 22.5625 
Q 46.96875 12.84375 40.8125 5.65625 
Q 34.671875 -1.515625 24.90625 -1.515625 
Q 15.53125 -1.515625 9.03125 5.359375 
Q 2.546875 12.25 2.546875 22.65625 
z
M 23.25 42.875 
Q 19.390625 42.875 16.546875 40.328125 
Q 11.671875 35.890625 11.671875 25 
Q 11.671875 16.3125 15.59375 8.78125 
Q 19.53125 1.265625 26.515625 1.265625 
Q 31.984375 1.265625 34.9375 6.296875 
Q 37.890625 11.328125 37.890625 19.484375 
Q 37.890625 27.9375 34.125 35.40625 
Q 30.375 42.875 23.25 42.875 
z
M 25.046875 45.796875 
z
" id="Times-Roman-111"/>
      </defs>
      <use xlink:href="#Times-Roman-78"/>
      <use x="72.216797" xlink:href="#Times-Roman-111"/>
      <use x="122.216797" xlink:href="#Times-Roman-32"/>
      <use x="147.216797" xlink:href="#Times-Roman-83"/>
      <use x="202.832031" xlink:href="#Times-Roman-68"/>
     </g>
    </g>
    <g id="line2d_33">
     <path d="M 243.926555 124.347165 
L 279.926555 124.347165 
" style="fill:none;stroke:#0000ff;stroke-linejoin:miter;stroke-width:2.25;"/>
    </g>
    <g id="line2d_34"/>
    <g id="text_18">
     <!-- Complete SD -->
     <g transform="translate(294.326555 130.647165)scale(0.18 -0.18)">
      <defs>
       <path d="M 37.015625 67.328125 
Q 42.4375 67.328125 48.140625 65.71875 
Q 53.859375 64.109375 54.546875 64.109375 
Q 55.953125 64.109375 57.21875 64.890625 
Q 58.5 65.671875 58.984375 67.328125 
L 61.078125 67.328125 
L 62.015625 44.875 
L 59.71875 44.875 
Q 57.71875 51.5625 54.5 55.671875 
Q 48.34375 63.375 37.9375 63.375 
Q 27.4375 63.375 20.765625 55.078125 
Q 14.109375 46.78125 14.109375 32.234375 
Q 14.109375 18.84375 21.109375 10.859375 
Q 28.125 2.875 38.875 2.875 
Q 46.625 2.875 53.171875 6.59375 
Q 56.9375 8.6875 61.421875 12.9375 
L 63.28125 11.078125 
Q 59.96875 6.890625 55.03125 3.71875 
Q 46.625 -1.65625 36.8125 -1.65625 
Q 20.703125 -1.65625 11.234375 8.640625 
Q 2.484375 18.171875 2.484375 32.421875 
Q 2.484375 47.015625 11.71875 56.9375 
Q 21.4375 67.328125 37.015625 67.328125 
z
M 36.671875 67.328125 
z
" id="Times-Roman-67"/>
       <path d="M 15.96875 8.984375 
Q 17.234375 5.671875 19.75 4.03125 
Q 22.265625 2.390625 25.6875 2.390625 
Q 30.953125 2.390625 34.6875 7.640625 
Q 38.421875 12.890625 38.421875 22.265625 
Q 38.421875 31.25 34.546875 35.6875 
Q 30.671875 40.140625 25.53125 40.140625 
Q 21.921875 40.140625 18.9375 37.90625 
Q 15.96875 35.6875 15.96875 33.546875 
L 15.96875 8.984375 
z
M 0.4375 -20.171875 
Q 5.03125 -19.875 6.265625 -18.203125 
Q 7.515625 -16.546875 7.515625 -12.984375 
L 7.515625 33.890625 
Q 7.515625 37.59375 6.609375 38.640625 
Q 5.71875 39.703125 3.21875 39.703125 
Q 2.6875 39.703125 2.21875 39.640625 
Q 1.765625 39.59375 0.875 39.453125 
L 0.875 41.0625 
L 5.515625 42.578125 
Q 5.765625 42.625 15.328125 45.953125 
Q 15.578125 45.953125 15.703125 45.734375 
Q 15.828125 45.515625 15.828125 45.21875 
L 15.828125 38.625 
Q 19.046875 41.84375 21.484375 43.40625 
Q 25.875 46.140625 30.515625 46.140625 
Q 37.25 46.140625 42.109375 40.40625 
Q 46.96875 34.671875 46.96875 24.703125 
Q 46.96875 14.9375 41.125 6.96875 
Q 35.296875 -0.984375 26.46875 -0.984375 
Q 23.734375 -0.984375 21.734375 -0.296875 
Q 18.609375 0.734375 15.96875 3.46875 
L 15.96875 -12.5 
Q 15.96875 -17.4375 17.578125 -18.546875 
Q 19.1875 -19.671875 24.609375 -20.0625 
L 24.609375 -21.78125 
L 0.4375 -21.78125 
z
" id="Times-Roman-112"/>
       <path d="M 2.046875 1.375 
Q 6.59375 1.8125 8.203125 3.203125 
Q 9.8125 4.59375 9.8125 8.640625 
L 9.8125 56.34375 
Q 9.8125 59.578125 9.28125 60.796875 
Q 8.296875 62.84375 5.328125 62.84375 
Q 4.640625 62.84375 3.828125 62.6875 
Q 3.03125 62.546875 1.8125 62.25 
L 1.8125 63.875 
Q 8.40625 65.625 17.671875 68.5625 
Q 18.015625 68.5625 18.09375 68.265625 
Q 18.171875 67.96875 18.171875 67 
L 18.171875 8.453125 
Q 18.171875 4.203125 19.625 2.953125 
Q 21.09375 1.703125 25.6875 1.375 
L 25.6875 0 
L 2.046875 0 
z
" id="Times-Roman-108"/>
      </defs>
      <use xlink:href="#Times-Roman-67"/>
      <use x="66.699219" xlink:href="#Times-Roman-111"/>
      <use x="116.699219" xlink:href="#Times-Roman-109"/>
      <use x="194.482422" xlink:href="#Times-Roman-112"/>
      <use x="244.482422" xlink:href="#Times-Roman-108"/>
      <use x="272.265625" xlink:href="#Times-Roman-101"/>
      <use x="316.650391" xlink:href="#Times-Roman-116"/>
      <use x="344.433594" xlink:href="#Times-Roman-101"/>
      <use x="388.818359" xlink:href="#Times-Roman-32"/>
      <use x="413.818359" xlink:href="#Times-Roman-83"/>
      <use x="469.433594" xlink:href="#Times-Roman-68"/>
     </g>
    </g>
    <g id="line2d_35">
     <path d="M 243.926555 150.478103 
L 279.926555 150.478103 
" style="fill:none;stroke:#000000;stroke-dasharray:8.325,3.6;stroke-dashoffset:0;stroke-linejoin:miter;stroke-width:2.25;"/>
    </g>
    <g id="line2d_36"/>
    <g id="text_19">
     <!-- (t) -->
     <g transform="translate(294.326555 156.778103)scale(0.18 -0.18)">
      <defs>
       <path d="M 6.109375 43.015625 
Q 6.296875 73.09375 27.78125 73.390625 
Q 35.6875 73.390625 41.015625 69.484375 
Q 46.296875 65.578125 46.390625 57.90625 
Q 46.296875 51.3125 41.890625 47.609375 
Q 37.5 43.890625 31.59375 41.890625 
L 31.59375 41.703125 
Q 40.375 40.578125 45.796875 35.5 
Q 51.21875 30.421875 51.3125 21.09375 
Q 51.3125 11.625 46 5.515625 
Q 40.671875 -0.78125 30.8125 -0.984375 
Q 26.3125 -0.875 22.515625 1.515625 
Q 18.703125 3.90625 17.828125 8.59375 
L 20.796875 8.59375 
Q 21.09375 6 23.6875 3.90625 
Q 26.421875 1.609375 30.078125 1.515625 
Q 33.40625 1.515625 35.6875 3.515625 
Q 37.890625 5.421875 39.203125 8.296875 
Q 41.703125 14.5 41.703125 20.703125 
Q 41.703125 23.875 41.109375 27.296875 
Q 40.28125 30.609375 38.8125 33.5 
Q 37.3125 36.375 35.109375 38.28125 
Q 32.71875 39.984375 29.5 40.09375 
Q 27.484375 39.984375 25.984375 39.3125 
Q 24.609375 38.28125 23.09375 38.28125 
Q 19.671875 38.28125 19.78125 41.890625 
Q 19.921875 45.015625 23.09375 45.125 
Q 25 45.015625 26.8125 44.09375 
Q 28.515625 43.109375 29.6875 43.109375 
Q 33.015625 43.109375 35.296875 46.875 
Q 37.5 50.484375 37.59375 56.984375 
Q 37.59375 61.71875 35.203125 65.921875 
Q 33.890625 67.875 31.78125 69.1875 
Q 29.6875 70.40625 26.703125 70.40625 
Q 19.671875 70.3125 17.28125 64.59375 
Q 14.796875 58.984375 14.890625 50.6875 
L 14.890625 -23.296875 
L 6.109375 -23.296875 
z
" id="Times-Roman-946"/>
      </defs>
      <use xlink:href="#Times-Roman-946"/>
      <use x="55.615234" xlink:href="#Times-Roman-40"/>
      <use x="88.916016" xlink:href="#Times-Roman-116"/>
      <use x="116.699219" xlink:href="#Times-Roman-41"/>
     </g>
    </g>
   </g>
  </g>
 </g>
 <defs>
  <clipPath id="pa9c9f0672b">
   <rect height="158.068169" width="373.839702" x="70.868415" y="43.605915"/>
  </clipPath>
 </defs>
</svg>
