<?xml version="1.0" encoding="utf-8" standalone="no"?>
<!DOCTYPE svg PUBLIC "-//W3C//DTD SVG 1.1//EN"
  "http://www.w3.org/Graphics/SVG/1.1/DTD/svg11.dtd">
<!-- Created with matplotlib (https://matplotlib.org/) -->
<svg height="288pt" version="1.1" viewBox="0 0 432 288" width="432pt" xmlns="http://www.w3.org/2000/svg" xmlns:xlink="http://www.w3.org/1999/xlink">
 <metadata>
  <rdf:RDF xmlns:cc="http://creativecommons.org/ns#" xmlns:dc="http://purl.org/dc/elements/1.1/" xmlns:rdf="http://www.w3.org/1999/02/22-rdf-syntax-ns#">
   <cc:Work>
    <dc:type rdf:resource="http://purl.org/dc/dcmitype/StillImage"/>
    <dc:date>2021-02-26T15:52:10.779621</dc:date>
    <dc:format>image/svg+xml</dc:format>
    <dc:creator>
     <cc:Agent>
      <dc:title>Matplotlib v3.3.4, https://matplotlib.org/</dc:title>
     </cc:Agent>
    </dc:creator>
   </cc:Work>
  </rdf:RDF>
 </metadata>
 <defs>
  <style type="text/css">*{stroke-linecap:butt;stroke-linejoin:round;}</style>
 </defs>
 <g id="figure_1">
  <g id="patch_1">
   <path d="M 0 288 
L 432 288 
L 432 0 
L 0 0 
z
" style="fill:#ffffff;"/>
  </g>
  <g id="axes_1">
   <g id="patch_2">
    <path d="M 59.906697 235.502835 
L 409.322835 235.502835 
L 409.322835 39.297165 
L 59.906697 39.297165 
z
" style="fill:#ffffff;"/>
   </g>
   <g id="matplotlib.axis_1">
    <g id="xtick_1">
     <g id="line2d_1">
      <path clip-path="url(#p817e2c0ea4)" d="M 69.795833 235.502835 
L 69.795833 39.297165 
" style="fill:none;stroke:#000000;stroke-linecap:square;stroke-opacity:0.1;stroke-width:0.5;"/>
     </g>
     <g id="line2d_2">
      <defs>
       <path d="M 0 0 
L 0 -2.5 
" id="m80359f36b5" style="stroke:#000000;stroke-width:0.5;"/>
      </defs>
      <g>
       <use style="stroke:#000000;stroke-width:0.5;" x="69.795833" xlink:href="#m80359f36b5" y="235.502835"/>
      </g>
     </g>
     <g id="text_1">
      <!-- $\mathregular{0}$ -->
      <g transform="translate(66.795833 247.230335)scale(0.12 -0.12)">
       <defs>
        <path d="M 23.921875 1.8125 
Q 31.109375 1.8125 33.78125 9.671875 
Q 36.46875 17.53125 36.46875 32.421875 
Q 36.46875 44.28125 34.859375 51.375 
Q 31.84375 64.546875 23.53125 64.546875 
Q 15.234375 64.546875 12.15625 50.984375 
Q 10.546875 43.75 10.546875 31.9375 
Q 10.546875 20.84375 12.203125 14.203125 
Q 15.328125 1.8125 23.921875 1.8125 
z
M 23.78125 67.1875 
Q 35.015625 67.1875 41.21875 55.421875 
Q 46.140625 45.90625 46.140625 33.546875 
Q 46.140625 23.828125 43.109375 15.234375 
Q 37.40625 -0.921875 23.34375 -0.921875 
Q 13.71875 -0.921875 7.515625 7.8125 
Q 0.875 17.140625 0.875 33.15625 
Q 0.875 45.75 5.328125 54.828125 
Q 11.328125 67.1875 23.78125 67.1875 
z
" id="Times-Roman-48"/>
       </defs>
       <use transform="translate(0 0.8125)" xlink:href="#Times-Roman-48"/>
      </g>
     </g>
    </g>
    <g id="xtick_2">
     <g id="line2d_3">
      <path clip-path="url(#p817e2c0ea4)" d="M 179.675121 235.502835 
L 179.675121 39.297165 
" style="fill:none;stroke:#000000;stroke-linecap:square;stroke-opacity:0.1;stroke-width:0.5;"/>
     </g>
     <g id="line2d_4">
      <g>
       <use style="stroke:#000000;stroke-width:0.5;" x="179.675121" xlink:href="#m80359f36b5" y="235.502835"/>
      </g>
     </g>
     <g id="text_2">
      <!-- $\mathregular{10}$ -->
      <g transform="translate(173.675121 247.230335)scale(0.12 -0.12)">
       <defs>
        <path d="M 29.59375 67.09375 
Q 29.78125 66.84375 29.796875 66.71875 
Q 29.828125 66.609375 29.828125 66.15625 
L 29.828125 7.375 
Q 29.828125 3.609375 31.828125 2.578125 
Q 33.84375 1.5625 39.3125 1.375 
L 39.3125 0 
L 11.765625 0 
L 11.765625 1.46875 
Q 17.671875 1.765625 19.484375 3.078125 
Q 21.296875 4.390625 21.296875 8.796875 
L 21.296875 54 
Q 21.296875 56.34375 20.703125 57.5625 
Q 20.125 58.796875 18.171875 58.796875 
Q 16.890625 58.796875 14.859375 58.078125 
Q 12.84375 57.375 11.078125 56.59375 
L 11.078125 57.953125 
L 29 67.09375 
L 29.59375 67.09375 
z
" id="Times-Roman-49"/>
       </defs>
       <use transform="translate(0 0.8125)" xlink:href="#Times-Roman-49"/>
       <use transform="translate(50 0.8125)" xlink:href="#Times-Roman-48"/>
      </g>
     </g>
    </g>
    <g id="xtick_3">
     <g id="line2d_5">
      <path clip-path="url(#p817e2c0ea4)" d="M 289.55441 235.502835 
L 289.55441 39.297165 
" style="fill:none;stroke:#000000;stroke-linecap:square;stroke-opacity:0.1;stroke-width:0.5;"/>
     </g>
     <g id="line2d_6">
      <g>
       <use style="stroke:#000000;stroke-width:0.5;" x="289.55441" xlink:href="#m80359f36b5" y="235.502835"/>
      </g>
     </g>
     <g id="text_3">
      <!-- $\mathregular{20}$ -->
      <g transform="translate(283.55441 247.230335)scale(0.12 -0.12)">
       <defs>
        <path d="M 2.984375 1.125 
Q 20.84375 19.671875 27.234375 28.359375 
Q 33.640625 37.0625 33.640625 45.3125 
Q 33.640625 52.546875 29.734375 56.328125 
Q 25.828125 60.109375 20.40625 60.109375 
Q 13.71875 60.109375 9.578125 55.21875 
Q 7.28125 52.546875 5.171875 46.96875 
L 3.078125 47.40625 
Q 5.515625 58.640625 11.34375 63.015625 
Q 17.1875 67.390625 23.875 67.390625 
Q 32.125 67.390625 37.21875 62.1875 
Q 42.328125 56.984375 42.328125 49.46875 
Q 42.328125 41.453125 36.8125 34.03125 
Q 31.296875 26.609375 12.84375 7.625 
L 35.25 7.625 
Q 39.9375 7.625 41.84375 8.734375 
Q 43.75 9.859375 46.140625 14.203125 
L 47.40625 13.625 
L 42 0 
L 2.984375 0 
z
" id="Times-Roman-50"/>
       </defs>
       <use transform="translate(0 0.609375)" xlink:href="#Times-Roman-50"/>
       <use transform="translate(50 0.609375)" xlink:href="#Times-Roman-48"/>
      </g>
     </g>
    </g>
    <g id="xtick_4">
     <g id="line2d_7">
      <path clip-path="url(#p817e2c0ea4)" d="M 399.433699 235.502835 
L 399.433699 39.297165 
" style="fill:none;stroke:#000000;stroke-linecap:square;stroke-opacity:0.1;stroke-width:0.5;"/>
     </g>
     <g id="line2d_8">
      <g>
       <use style="stroke:#000000;stroke-width:0.5;" x="399.433699" xlink:href="#m80359f36b5" y="235.502835"/>
      </g>
     </g>
     <g id="text_4">
      <!-- $\mathregular{30}$ -->
      <g transform="translate(393.433699 247.230335)scale(0.12 -0.12)">
       <defs>
        <path d="M 7.765625 8.5 
Q 10.453125 8.5 14.859375 5.71875 
Q 19.28125 2.9375 22.359375 2.9375 
Q 29.203125 2.9375 32.515625 7.546875 
Q 35.84375 12.15625 35.84375 17.578125 
Q 35.84375 22.796875 33.15625 26.765625 
Q 28.609375 33.453125 17.828125 33.453125 
Q 17.1875 33.453125 16.59375 33.421875 
Q 16.015625 33.40625 15.234375 33.296875 
L 15.140625 34.578125 
Q 22.953125 37.40625 27.4375 41.0625 
Q 31.9375 44.734375 31.9375 50.734375 
Q 31.9375 56.0625 28.390625 58.84375 
Q 24.859375 61.625 20.3125 61.625 
Q 14.9375 61.625 10.84375 57.671875 
Q 8.59375 55.515625 6 51.03125 
L 4.5 51.375 
Q 6.453125 58.796875 11.765625 63.234375 
Q 17.09375 67.671875 24.078125 67.671875 
Q 31.546875 67.671875 35.625 63.5625 
Q 39.703125 59.46875 39.703125 54.109375 
Q 39.703125 49.359375 36.328125 45.40625 
Q 34.421875 43.171875 30.421875 40.375 
Q 35.109375 38.375 37.9375 35.6875 
Q 43.265625 30.5625 43.265625 22.703125 
Q 43.265625 13.421875 35.953125 6.34375 
Q 28.65625 -0.734375 15.1875 -0.734375 
Q 9.1875 -0.734375 6.765625 1.046875 
Q 4.34375 2.828125 4.34375 4.890625 
Q 4.34375 6.15625 5.140625 7.328125 
Q 5.953125 8.5 7.765625 8.5 
z
" id="Times-Roman-51"/>
       </defs>
       <use transform="translate(0 0.328125)" xlink:href="#Times-Roman-51"/>
       <use transform="translate(50 0.328125)" xlink:href="#Times-Roman-48"/>
      </g>
     </g>
    </g>
    <g id="text_5">
     <!-- SD Start Time ts [days] -->
     <g transform="translate(164.898516 262.96221)scale(0.12 -0.12)">
      <defs>
       <path d="M 53.515625 70.515625 
L 53.515625 60.890625 
Q 47.90625 63.578125 42.921875 64.890625 
Q 37.9375 66.21875 33.296875 66.21875 
Q 25.25 66.21875 20.875 63.09375 
Q 16.5 59.96875 16.5 54.203125 
Q 16.5 49.359375 19.40625 46.890625 
Q 22.3125 44.4375 30.421875 42.921875 
L 36.375 41.703125 
Q 47.40625 39.59375 52.65625 34.296875 
Q 57.90625 29 57.90625 20.125 
Q 57.90625 9.515625 50.796875 4.046875 
Q 43.703125 -1.421875 29.984375 -1.421875 
Q 24.8125 -1.421875 18.96875 -0.25 
Q 13.140625 0.921875 6.890625 3.21875 
L 6.890625 13.375 
Q 12.890625 10.015625 18.65625 8.296875 
Q 24.421875 6.59375 29.984375 6.59375 
Q 38.421875 6.59375 43.015625 9.90625 
Q 47.609375 13.234375 47.609375 19.390625 
Q 47.609375 24.75 44.3125 27.78125 
Q 41.015625 30.8125 33.5 32.328125 
L 27.484375 33.5 
Q 16.453125 35.6875 11.515625 40.375 
Q 6.59375 45.0625 6.59375 53.421875 
Q 6.59375 63.09375 13.40625 68.65625 
Q 20.21875 74.21875 32.171875 74.21875 
Q 37.3125 74.21875 42.625 73.28125 
Q 47.953125 72.359375 53.515625 70.515625 
z
" id="DejaVuSans-83"/>
       <path d="M 19.671875 64.796875 
L 19.671875 8.109375 
L 31.59375 8.109375 
Q 46.6875 8.109375 53.6875 14.9375 
Q 60.6875 21.78125 60.6875 36.53125 
Q 60.6875 51.171875 53.6875 57.984375 
Q 46.6875 64.796875 31.59375 64.796875 
z
M 9.8125 72.90625 
L 30.078125 72.90625 
Q 51.265625 72.90625 61.171875 64.09375 
Q 71.09375 55.28125 71.09375 36.53125 
Q 71.09375 17.671875 61.125 8.828125 
Q 51.171875 0 30.078125 0 
L 9.8125 0 
z
" id="DejaVuSans-68"/>
       <path id="DejaVuSans-32"/>
       <path d="M 18.3125 70.21875 
L 18.3125 54.6875 
L 36.8125 54.6875 
L 36.8125 47.703125 
L 18.3125 47.703125 
L 18.3125 18.015625 
Q 18.3125 11.328125 20.140625 9.421875 
Q 21.96875 7.515625 27.59375 7.515625 
L 36.8125 7.515625 
L 36.8125 0 
L 27.59375 0 
Q 17.1875 0 13.234375 3.875 
Q 9.28125 7.765625 9.28125 18.015625 
L 9.28125 47.703125 
L 2.6875 47.703125 
L 2.6875 54.6875 
L 9.28125 54.6875 
L 9.28125 70.21875 
z
" id="DejaVuSans-116"/>
       <path d="M 34.28125 27.484375 
Q 23.390625 27.484375 19.1875 25 
Q 14.984375 22.515625 14.984375 16.5 
Q 14.984375 11.71875 18.140625 8.90625 
Q 21.296875 6.109375 26.703125 6.109375 
Q 34.1875 6.109375 38.703125 11.40625 
Q 43.21875 16.703125 43.21875 25.484375 
L 43.21875 27.484375 
z
M 52.203125 31.203125 
L 52.203125 0 
L 43.21875 0 
L 43.21875 8.296875 
Q 40.140625 3.328125 35.546875 0.953125 
Q 30.953125 -1.421875 24.3125 -1.421875 
Q 15.921875 -1.421875 10.953125 3.296875 
Q 6 8.015625 6 15.921875 
Q 6 25.140625 12.171875 29.828125 
Q 18.359375 34.515625 30.609375 34.515625 
L 43.21875 34.515625 
L 43.21875 35.40625 
Q 43.21875 41.609375 39.140625 45 
Q 35.0625 48.390625 27.6875 48.390625 
Q 23 48.390625 18.546875 47.265625 
Q 14.109375 46.140625 10.015625 43.890625 
L 10.015625 52.203125 
Q 14.9375 54.109375 19.578125 55.046875 
Q 24.21875 56 28.609375 56 
Q 40.484375 56 46.34375 49.84375 
Q 52.203125 43.703125 52.203125 31.203125 
z
" id="DejaVuSans-97"/>
       <path d="M 41.109375 46.296875 
Q 39.59375 47.171875 37.8125 47.578125 
Q 36.03125 48 33.890625 48 
Q 26.265625 48 22.1875 43.046875 
Q 18.109375 38.09375 18.109375 28.8125 
L 18.109375 0 
L 9.078125 0 
L 9.078125 54.6875 
L 18.109375 54.6875 
L 18.109375 46.1875 
Q 20.953125 51.171875 25.484375 53.578125 
Q 30.03125 56 36.53125 56 
Q 37.453125 56 38.578125 55.875 
Q 39.703125 55.765625 41.0625 55.515625 
z
" id="DejaVuSans-114"/>
       <path d="M -0.296875 72.90625 
L 61.375 72.90625 
L 61.375 64.59375 
L 35.5 64.59375 
L 35.5 0 
L 25.59375 0 
L 25.59375 64.59375 
L -0.296875 64.59375 
z
" id="DejaVuSans-84"/>
       <path d="M 9.421875 54.6875 
L 18.40625 54.6875 
L 18.40625 0 
L 9.421875 0 
z
M 9.421875 75.984375 
L 18.40625 75.984375 
L 18.40625 64.59375 
L 9.421875 64.59375 
z
" id="DejaVuSans-105"/>
       <path d="M 52 44.1875 
Q 55.375 50.25 60.0625 53.125 
Q 64.75 56 71.09375 56 
Q 79.640625 56 84.28125 50.015625 
Q 88.921875 44.046875 88.921875 33.015625 
L 88.921875 0 
L 79.890625 0 
L 79.890625 32.71875 
Q 79.890625 40.578125 77.09375 44.375 
Q 74.3125 48.1875 68.609375 48.1875 
Q 61.625 48.1875 57.5625 43.546875 
Q 53.515625 38.921875 53.515625 30.90625 
L 53.515625 0 
L 44.484375 0 
L 44.484375 32.71875 
Q 44.484375 40.625 41.703125 44.40625 
Q 38.921875 48.1875 33.109375 48.1875 
Q 26.21875 48.1875 22.15625 43.53125 
Q 18.109375 38.875 18.109375 30.90625 
L 18.109375 0 
L 9.078125 0 
L 9.078125 54.6875 
L 18.109375 54.6875 
L 18.109375 46.1875 
Q 21.1875 51.21875 25.484375 53.609375 
Q 29.78125 56 35.6875 56 
Q 41.65625 56 45.828125 52.96875 
Q 50 49.953125 52 44.1875 
z
" id="DejaVuSans-109"/>
       <path d="M 56.203125 29.59375 
L 56.203125 25.203125 
L 14.890625 25.203125 
Q 15.484375 15.921875 20.484375 11.0625 
Q 25.484375 6.203125 34.421875 6.203125 
Q 39.59375 6.203125 44.453125 7.46875 
Q 49.3125 8.734375 54.109375 11.28125 
L 54.109375 2.78125 
Q 49.265625 0.734375 44.1875 -0.34375 
Q 39.109375 -1.421875 33.890625 -1.421875 
Q 20.796875 -1.421875 13.15625 6.1875 
Q 5.515625 13.8125 5.515625 26.8125 
Q 5.515625 40.234375 12.765625 48.109375 
Q 20.015625 56 32.328125 56 
Q 43.359375 56 49.78125 48.890625 
Q 56.203125 41.796875 56.203125 29.59375 
z
M 47.21875 32.234375 
Q 47.125 39.59375 43.09375 43.984375 
Q 39.0625 48.390625 32.421875 48.390625 
Q 24.90625 48.390625 20.390625 44.140625 
Q 15.875 39.890625 15.1875 32.171875 
z
" id="DejaVuSans-101"/>
       <path d="M 44.28125 53.078125 
L 44.28125 44.578125 
Q 40.484375 46.53125 36.375 47.5 
Q 32.28125 48.484375 27.875 48.484375 
Q 21.1875 48.484375 17.84375 46.4375 
Q 14.5 44.390625 14.5 40.28125 
Q 14.5 37.15625 16.890625 35.375 
Q 19.28125 33.59375 26.515625 31.984375 
L 29.59375 31.296875 
Q 39.15625 29.25 43.1875 25.515625 
Q 47.21875 21.78125 47.21875 15.09375 
Q 47.21875 7.46875 41.1875 3.015625 
Q 35.15625 -1.421875 24.609375 -1.421875 
Q 20.21875 -1.421875 15.453125 -0.5625 
Q 10.6875 0.296875 5.421875 2 
L 5.421875 11.28125 
Q 10.40625 8.6875 15.234375 7.390625 
Q 20.0625 6.109375 24.8125 6.109375 
Q 31.15625 6.109375 34.5625 8.28125 
Q 37.984375 10.453125 37.984375 14.40625 
Q 37.984375 18.0625 35.515625 20.015625 
Q 33.0625 21.96875 24.703125 23.78125 
L 21.578125 24.515625 
Q 13.234375 26.265625 9.515625 29.90625 
Q 5.8125 33.546875 5.8125 39.890625 
Q 5.8125 47.609375 11.28125 51.796875 
Q 16.75 56 26.8125 56 
Q 31.78125 56 36.171875 55.265625 
Q 40.578125 54.546875 44.28125 53.078125 
z
" id="DejaVuSans-115"/>
       <path d="M 8.59375 75.984375 
L 29.296875 75.984375 
L 29.296875 69 
L 17.578125 69 
L 17.578125 -6.203125 
L 29.296875 -6.203125 
L 29.296875 -13.1875 
L 8.59375 -13.1875 
z
" id="DejaVuSans-91"/>
       <path d="M 45.40625 46.390625 
L 45.40625 75.984375 
L 54.390625 75.984375 
L 54.390625 0 
L 45.40625 0 
L 45.40625 8.203125 
Q 42.578125 3.328125 38.25 0.953125 
Q 33.9375 -1.421875 27.875 -1.421875 
Q 17.96875 -1.421875 11.734375 6.484375 
Q 5.515625 14.40625 5.515625 27.296875 
Q 5.515625 40.1875 11.734375 48.09375 
Q 17.96875 56 27.875 56 
Q 33.9375 56 38.25 53.625 
Q 42.578125 51.265625 45.40625 46.390625 
z
M 14.796875 27.296875 
Q 14.796875 17.390625 18.875 11.75 
Q 22.953125 6.109375 30.078125 6.109375 
Q 37.203125 6.109375 41.296875 11.75 
Q 45.40625 17.390625 45.40625 27.296875 
Q 45.40625 37.203125 41.296875 42.84375 
Q 37.203125 48.484375 30.078125 48.484375 
Q 22.953125 48.484375 18.875 42.84375 
Q 14.796875 37.203125 14.796875 27.296875 
z
" id="DejaVuSans-100"/>
       <path d="M 32.171875 -5.078125 
Q 28.375 -14.84375 24.75 -17.8125 
Q 21.140625 -20.796875 15.09375 -20.796875 
L 7.90625 -20.796875 
L 7.90625 -13.28125 
L 13.1875 -13.28125 
Q 16.890625 -13.28125 18.9375 -11.515625 
Q 21 -9.765625 23.484375 -3.21875 
L 25.09375 0.875 
L 2.984375 54.6875 
L 12.5 54.6875 
L 29.59375 11.921875 
L 46.6875 54.6875 
L 56.203125 54.6875 
z
" id="DejaVuSans-121"/>
       <path d="M 30.421875 75.984375 
L 30.421875 -13.1875 
L 9.71875 -13.1875 
L 9.71875 -6.203125 
L 21.390625 -6.203125 
L 21.390625 69 
L 9.71875 69 
L 9.71875 75.984375 
z
" id="DejaVuSans-93"/>
      </defs>
      <use xlink:href="#DejaVuSans-83"/>
      <use x="63.476562" xlink:href="#DejaVuSans-68"/>
      <use x="140.478516" xlink:href="#DejaVuSans-32"/>
      <use x="172.265625" xlink:href="#DejaVuSans-83"/>
      <use x="235.742188" xlink:href="#DejaVuSans-116"/>
      <use x="274.951172" xlink:href="#DejaVuSans-97"/>
      <use x="336.230469" xlink:href="#DejaVuSans-114"/>
      <use x="377.34375" xlink:href="#DejaVuSans-116"/>
      <use x="416.552734" xlink:href="#DejaVuSans-32"/>
      <use x="448.339844" xlink:href="#DejaVuSans-84"/>
      <use x="506.298828" xlink:href="#DejaVuSans-105"/>
      <use x="534.082031" xlink:href="#DejaVuSans-109"/>
      <use x="631.494141" xlink:href="#DejaVuSans-101"/>
      <use x="693.017578" xlink:href="#DejaVuSans-32"/>
      <use x="724.804688" xlink:href="#DejaVuSans-116"/>
      <use x="764.013672" xlink:href="#DejaVuSans-115"/>
      <use x="816.113281" xlink:href="#DejaVuSans-32"/>
      <use x="847.900391" xlink:href="#DejaVuSans-91"/>
      <use x="886.914062" xlink:href="#DejaVuSans-100"/>
      <use x="950.390625" xlink:href="#DejaVuSans-97"/>
      <use x="1011.669922" xlink:href="#DejaVuSans-121"/>
      <use x="1070.849609" xlink:href="#DejaVuSans-115"/>
      <use x="1122.949219" xlink:href="#DejaVuSans-93"/>
     </g>
    </g>
   </g>
   <g id="matplotlib.axis_2">
    <g id="ytick_1">
     <g id="line2d_9">
      <path clip-path="url(#p817e2c0ea4)" d="M 59.906697 229.949844 
L 409.322835 229.949844 
" style="fill:none;stroke:#000000;stroke-linecap:square;stroke-opacity:0.1;stroke-width:0.5;"/>
     </g>
     <g id="line2d_10">
      <defs>
       <path d="M 0 0 
L 2.5 0 
" id="m09ff53a07b" style="stroke:#000000;stroke-width:0.5;"/>
      </defs>
      <g>
       <use style="stroke:#000000;stroke-width:0.5;" x="59.906697" xlink:href="#m09ff53a07b" y="229.949844"/>
      </g>
     </g>
     <g id="text_6">
      <!-- $\mathregular{0}$ -->
      <g transform="translate(50.406697 234.063594)scale(0.12 -0.12)">
       <use transform="translate(0 0.8125)" xlink:href="#Times-Roman-48"/>
      </g>
     </g>
    </g>
    <g id="ytick_2">
     <g id="line2d_11">
      <path clip-path="url(#p817e2c0ea4)" d="M 59.906697 183.674922 
L 409.322835 183.674922 
" style="fill:none;stroke:#000000;stroke-linecap:square;stroke-opacity:0.1;stroke-width:0.5;"/>
     </g>
     <g id="line2d_12">
      <g>
       <use style="stroke:#000000;stroke-width:0.5;" x="59.906697" xlink:href="#m09ff53a07b" y="183.674922"/>
      </g>
     </g>
     <g id="text_7">
      <!-- $\mathregular{25}$ -->
      <g transform="translate(44.406697 187.788672)scale(0.12 -0.12)">
       <defs>
        <path d="M 7.46875 8.9375 
Q 10.25 8.9375 14.765625 5.78125 
Q 19.28125 2.640625 21.734375 2.640625 
Q 27.34375 2.640625 31.546875 7.59375 
Q 35.75 12.546875 35.75 19.78125 
Q 35.75 32.421875 22.265625 37.984375 
Q 14.796875 41.0625 8.34375 41.0625 
Q 7.28125 41.0625 7 41.140625 
Q 6.734375 41.21875 6.34375 41.65625 
Q 6.453125 42.046875 6.515625 42.3125 
Q 6.59375 42.578125 6.6875 42.828125 
L 17.328125 66.15625 
L 38.28125 66.15625 
Q 39.84375 66.15625 40.6875 66.6875 
Q 41.546875 67.234375 42.921875 68.703125 
L 43.703125 68.015625 
L 39.890625 58.984375 
Q 39.703125 58.546875 38.8125 58.421875 
Q 37.9375 58.296875 36.921875 58.296875 
L 18.015625 58.296875 
L 13.875 49.75 
Q 21.875 48.390625 25.59375 47.171875 
Q 31.6875 45.125 35.796875 41.109375 
Q 39.3125 37.640625 41.109375 33.3125 
Q 42.921875 29 42.921875 24.171875 
Q 42.921875 13.375 35.234375 6.140625 
Q 27.546875 -1.078125 15.765625 -1.078125 
Q 10.984375 -1.078125 8.0625 -0.140625 
Q 3.171875 1.375 3.171875 5.28125 
Q 3.171875 6.734375 4.21875 7.828125 
Q 5.28125 8.9375 7.46875 8.9375 
z
" id="Times-Roman-53"/>
       </defs>
       <use transform="translate(0 0.296875)" xlink:href="#Times-Roman-50"/>
       <use transform="translate(50 0.296875)" xlink:href="#Times-Roman-53"/>
      </g>
     </g>
    </g>
    <g id="ytick_3">
     <g id="line2d_13">
      <path clip-path="url(#p817e2c0ea4)" d="M 59.906697 137.4 
L 409.322835 137.4 
" style="fill:none;stroke:#000000;stroke-linecap:square;stroke-opacity:0.1;stroke-width:0.5;"/>
     </g>
     <g id="line2d_14">
      <g>
       <use style="stroke:#000000;stroke-width:0.5;" x="59.906697" xlink:href="#m09ff53a07b" y="137.4"/>
      </g>
     </g>
     <g id="text_8">
      <!-- $\mathregular{50}$ -->
      <g transform="translate(44.406697 141.51375)scale(0.12 -0.12)">
       <use transform="translate(0 0.296875)" xlink:href="#Times-Roman-53"/>
       <use transform="translate(50 0.296875)" xlink:href="#Times-Roman-48"/>
      </g>
     </g>
    </g>
    <g id="ytick_4">
     <g id="line2d_15">
      <path clip-path="url(#p817e2c0ea4)" d="M 59.906697 91.125078 
L 409.322835 91.125078 
" style="fill:none;stroke:#000000;stroke-linecap:square;stroke-opacity:0.1;stroke-width:0.5;"/>
     </g>
     <g id="line2d_16">
      <g>
       <use style="stroke:#000000;stroke-width:0.5;" x="59.906697" xlink:href="#m09ff53a07b" y="91.125078"/>
      </g>
     </g>
     <g id="text_9">
      <!-- $\mathregular{75}$ -->
      <g transform="translate(44.406697 95.238828)scale(0.12 -0.12)">
       <defs>
        <path d="M 44.875 66.15625 
L 44.875 64.546875 
L 23.6875 -0.921875 
L 17.234375 -0.921875 
L 37.015625 58.796875 
L 15.71875 58.796875 
Q 10.984375 58.796875 8.90625 57.234375 
Q 6.84375 55.671875 3.65625 50.6875 
L 1.953125 51.46875 
Q 5.125 59.28125 5.875 61.109375 
Q 6.640625 62.9375 7.859375 66.15625 
z
" id="Times-Roman-55"/>
       </defs>
       <use transform="translate(0 0.296875)" xlink:href="#Times-Roman-55"/>
       <use transform="translate(50 0.296875)" xlink:href="#Times-Roman-53"/>
      </g>
     </g>
    </g>
    <g id="ytick_5">
     <g id="line2d_17">
      <path clip-path="url(#p817e2c0ea4)" d="M 59.906697 44.850156 
L 409.322835 44.850156 
" style="fill:none;stroke:#000000;stroke-linecap:square;stroke-opacity:0.1;stroke-width:0.5;"/>
     </g>
     <g id="line2d_18">
      <g>
       <use style="stroke:#000000;stroke-width:0.5;" x="59.906697" xlink:href="#m09ff53a07b" y="44.850156"/>
      </g>
     </g>
     <g id="text_10">
      <!-- $\mathregular{100}$ -->
      <g transform="translate(38.406697 48.963906)scale(0.12 -0.12)">
       <use transform="translate(0 0.8125)" xlink:href="#Times-Roman-49"/>
       <use transform="translate(50 0.8125)" xlink:href="#Times-Roman-48"/>
       <use transform="translate(100 0.8125)" xlink:href="#Times-Roman-48"/>
      </g>
     </g>
    </g>
    <g id="text_11">
     <!-- SD Duration td [days] -->
     <g transform="translate(31.911072 202.614375)rotate(-90)scale(0.12 -0.12)">
      <defs>
       <path d="M 8.5 21.578125 
L 8.5 54.6875 
L 17.484375 54.6875 
L 17.484375 21.921875 
Q 17.484375 14.15625 20.5 10.265625 
Q 23.53125 6.390625 29.59375 6.390625 
Q 36.859375 6.390625 41.078125 11.03125 
Q 45.3125 15.671875 45.3125 23.6875 
L 45.3125 54.6875 
L 54.296875 54.6875 
L 54.296875 0 
L 45.3125 0 
L 45.3125 8.40625 
Q 42.046875 3.421875 37.71875 1 
Q 33.40625 -1.421875 27.6875 -1.421875 
Q 18.265625 -1.421875 13.375 4.4375 
Q 8.5 10.296875 8.5 21.578125 
z
M 31.109375 56 
z
" id="DejaVuSans-117"/>
       <path d="M 30.609375 48.390625 
Q 23.390625 48.390625 19.1875 42.75 
Q 14.984375 37.109375 14.984375 27.296875 
Q 14.984375 17.484375 19.15625 11.84375 
Q 23.34375 6.203125 30.609375 6.203125 
Q 37.796875 6.203125 41.984375 11.859375 
Q 46.1875 17.53125 46.1875 27.296875 
Q 46.1875 37.015625 41.984375 42.703125 
Q 37.796875 48.390625 30.609375 48.390625 
z
M 30.609375 56 
Q 42.328125 56 49.015625 48.375 
Q 55.71875 40.765625 55.71875 27.296875 
Q 55.71875 13.875 49.015625 6.21875 
Q 42.328125 -1.421875 30.609375 -1.421875 
Q 18.84375 -1.421875 12.171875 6.21875 
Q 5.515625 13.875 5.515625 27.296875 
Q 5.515625 40.765625 12.171875 48.375 
Q 18.84375 56 30.609375 56 
z
" id="DejaVuSans-111"/>
       <path d="M 54.890625 33.015625 
L 54.890625 0 
L 45.90625 0 
L 45.90625 32.71875 
Q 45.90625 40.484375 42.875 44.328125 
Q 39.84375 48.1875 33.796875 48.1875 
Q 26.515625 48.1875 22.3125 43.546875 
Q 18.109375 38.921875 18.109375 30.90625 
L 18.109375 0 
L 9.078125 0 
L 9.078125 54.6875 
L 18.109375 54.6875 
L 18.109375 46.1875 
Q 21.34375 51.125 25.703125 53.5625 
Q 30.078125 56 35.796875 56 
Q 45.21875 56 50.046875 50.171875 
Q 54.890625 44.34375 54.890625 33.015625 
z
" id="DejaVuSans-110"/>
      </defs>
      <use xlink:href="#DejaVuSans-83"/>
      <use x="63.476562" xlink:href="#DejaVuSans-68"/>
      <use x="140.478516" xlink:href="#DejaVuSans-32"/>
      <use x="172.265625" xlink:href="#DejaVuSans-68"/>
      <use x="249.267578" xlink:href="#DejaVuSans-117"/>
      <use x="312.646484" xlink:href="#DejaVuSans-114"/>
      <use x="353.759766" xlink:href="#DejaVuSans-97"/>
      <use x="415.039062" xlink:href="#DejaVuSans-116"/>
      <use x="454.248047" xlink:href="#DejaVuSans-105"/>
      <use x="482.03125" xlink:href="#DejaVuSans-111"/>
      <use x="543.212891" xlink:href="#DejaVuSans-110"/>
      <use x="606.591797" xlink:href="#DejaVuSans-32"/>
      <use x="638.378906" xlink:href="#DejaVuSans-116"/>
      <use x="677.587891" xlink:href="#DejaVuSans-100"/>
      <use x="741.064453" xlink:href="#DejaVuSans-32"/>
      <use x="772.851562" xlink:href="#DejaVuSans-91"/>
      <use x="811.865234" xlink:href="#DejaVuSans-100"/>
      <use x="875.341797" xlink:href="#DejaVuSans-97"/>
      <use x="936.621094" xlink:href="#DejaVuSans-121"/>
      <use x="995.800781" xlink:href="#DejaVuSans-115"/>
      <use x="1047.900391" xlink:href="#DejaVuSans-93"/>
     </g>
    </g>
   </g>
   <g id="LineCollection_1">
    <path clip-path="url(#p817e2c0ea4)" d="M 221.318205 44.850156 
L 221.318205 46.701153 
L 221.318205 48.55215 
L 221.318205 50.403147 
L 221.318205 52.254144 
L 221.318205 54.10514 
L 221.318205 55.956137 
L 221.318205 57.807134 
L 221.318205 59.658131 
L 221.318205 61.509128 
L 221.318205 63.360125 
L 221.318205 65.211122 
L 221.318205 67.062119 
L 221.318205 68.913115 
L 221.318205 70.764112 
L 221.318205 72.615109 
L 221.318205 74.466106 
L 221.318205 76.317103 
L 221.318205 78.1681 
L 221.318205 80.019097 
L 221.318205 81.870094 
L 221.318205 83.72109 
L 221.318205 85.572087 
L 221.318205 87.423084 
L 221.318205 89.274081 
L 221.318205 91.125078 
L 221.318205 92.976075 
L 221.318205 94.827072 
L 221.318205 96.678069 
L 221.318205 98.529066 
L 221.318205 100.380062 
L 221.318205 102.231059 
L 221.318205 104.082056 
L 221.318205 105.933053 
L 221.318205 107.78405 
L 221.318205 109.635047 
L 221.318205 111.486044 
L 221.318205 113.337041 
L 221.318205 115.188037 
L 221.318205 117.039034 
L 221.318205 118.890031 
L 221.318205 120.741028 
L 221.318205 122.592025 
L 221.318205 124.443022 
L 221.318205 126.294019 
L 221.318205 128.145016 
L 221.318205 129.996012 
L 221.318205 131.847009 
L 221.318205 133.698006 
L 221.318205 135.549003 
L 221.318205 137.4 
L 221.318205 139.250997 
L 221.318205 141.101994 
L 221.318205 142.952991 
L 221.318205 144.803988 
L 221.318205 145.806611 
" style="fill:none;stroke:#c7c7ff;"/>
    <path clip-path="url(#p817e2c0ea4)" d="M 221.318205 169.715321 
L 221.318205 170.717944 
L 221.318205 172.568941 
L 221.318205 174.419938 
L 221.318205 176.270934 
L 221.318205 178.121931 
L 221.318205 179.972928 
L 221.318205 181.823925 
L 221.318205 183.674922 
L 221.318205 185.525919 
L 221.318205 187.376916 
L 221.318205 189.227913 
L 221.318205 191.07891 
L 221.318205 192.929906 
L 221.318205 194.780903 
L 221.318205 196.6319 
L 221.318205 198.482897 
L 219.258422 200.333894 
L 212.638908 201.049078 
L 210.421704 200.333894 
L 205.633263 198.482897 
L 201.650979 197.446528 
L 199.368558 196.6319 
L 194.261213 194.780903 
L 190.66305 193.47068 
L 189.245568 192.929906 
L 184.458655 191.07891 
L 179.690582 189.227913 
L 179.675121 189.221899 
L 175.092251 187.376916 
L 170.526777 185.525919 
L 168.687192 184.781095 
L 166.006164 183.674922 
L 161.559853 181.823925 
L 157.699264 180.218953 
L 157.11161 179.972928 
L 152.727513 178.121931 
L 148.356221 176.270934 
L 146.711335 175.577003 
L 143.988641 174.419938 
L 139.66175 172.568941 
L 135.723406 170.889413 
L 135.32129 170.717944 
L 131.008339 168.866947 
L 126.704471 167.01595 
L 124.735477 166.173237 
L 122.386428 165.164953 
L 118.098615 163.313956 
L 113.795023 161.462959 
L 113.747548 161.442617 
L 109.501657 159.611963 
L 105.22056 157.760966 
L 102.759619 156.702835 
L 100.916983 155.909969 
L 96.639672 154.058972 
L 92.350912 152.207975 
L 91.77169 151.959213 
L 88.058622 150.356978 
L 83.783487 148.505981 
L 80.783761 147.214293 
L 79.48414 146.654984 
L 75.207095 144.803988 
L 70.923938 142.952991 
L 69.795833 142.468226 
" style="fill:none;stroke:#c7c7ff;"/>
   </g>
   <g id="LineCollection_2">
    <path clip-path="url(#p817e2c0ea4)" d="M 234.473917 44.850156 
L 234.473917 46.701153 
L 234.473917 48.55215 
L 234.473917 50.403147 
L 234.473917 52.254144 
L 234.473917 54.10514 
L 234.473917 55.956137 
L 234.473917 57.807134 
L 234.473917 59.658131 
L 234.473917 61.509128 
L 234.473917 63.360125 
L 234.473917 65.211122 
L 234.473917 67.062119 
L 234.473917 68.913115 
L 234.473917 69.915739 
" style="fill:none;stroke:#adadff;"/>
    <path clip-path="url(#p817e2c0ea4)" d="M 234.473917 93.824448 
L 234.473917 94.827072 
L 234.473917 96.678069 
L 234.473917 98.529066 
L 234.473917 100.380062 
L 234.473917 102.231059 
L 234.473917 104.082056 
L 234.473917 105.933053 
L 234.473917 107.78405 
L 234.473917 109.635047 
L 234.473917 111.486044 
L 234.473917 113.337041 
L 234.473917 115.188037 
L 234.473917 117.039034 
L 234.473917 118.890031 
L 234.473917 120.741028 
L 234.473917 122.592025 
L 234.473917 124.443022 
L 234.473917 126.294019 
L 234.473917 128.145016 
L 234.473917 129.996012 
L 234.473917 131.847009 
L 234.473917 133.698006 
L 234.473917 135.549003 
L 234.473917 137.4 
L 234.473917 139.250997 
L 234.473917 141.101994 
L 234.473917 142.952991 
L 234.473917 144.803988 
L 234.473917 146.654984 
L 234.473917 148.505981 
L 234.473917 150.356978 
L 234.473917 152.207975 
L 234.473917 154.058972 
L 234.473917 155.909969 
L 234.473917 157.760966 
L 234.473917 159.611963 
L 234.473917 161.462959 
L 234.473917 163.313956 
L 234.473917 165.164953 
L 234.473917 167.01595 
L 234.473917 168.866947 
L 234.473917 170.717944 
L 234.473917 172.568941 
L 234.473917 174.419938 
L 234.473917 176.270934 
L 234.473917 178.121931 
L 234.473917 179.972928 
L 234.473917 181.823925 
L 234.473917 183.674922 
L 234.473917 185.525919 
L 234.473917 187.376916 
L 234.473917 189.227913 
L 234.473917 191.07891 
L 234.473917 192.929906 
L 234.473917 194.780903 
L 234.473917 196.6319 
L 234.473917 198.482897 
L 234.473917 200.333894 
L 234.473917 202.184891 
L 234.473917 204.035888 
L 234.363576 205.886885 
L 223.626837 207.418643 
L 217.963524 205.886885 
L 212.638908 204.401229 
L 211.451871 204.035888 
L 205.605182 202.184891 
L 201.650979 200.901885 
L 199.998101 200.333894 
L 194.744827 198.482897 
L 190.66305 197.014057 
L 189.629645 196.6319 
L 184.722656 194.780903 
L 179.923973 192.929906 
L 179.675121 192.833547 
L 175.212233 191.07891 
L 170.612627 189.227913 
L 168.687192 188.448645 
L 166.036655 187.376916 
L 161.544549 185.525919 
L 157.699264 183.923518 
L 157.094729 183.674922 
L 152.645512 181.823925 
L 148.273991 179.972928 
L 146.711335 179.310282 
L 143.873356 178.121931 
L 139.524064 176.270934 
L 135.723406 174.63979 
L 135.200359 174.419938 
L 130.837608 172.568941 
L 126.544372 170.717944 
L 124.735477 169.937844 
L 122.208786 168.866947 
L 117.903376 167.01595 
L 113.747548 165.213135 
L 113.633779 165.164953 
L 109.291834 163.313956 
L 105.020196 161.462959 
L 102.759619 160.482399 
L 100.713658 159.611963 
L 96.417405 157.760966 
L 92.162614 155.909969 
L 91.77169 155.740583 
L 87.832105 154.058972 
L 83.564044 152.207975 
L 80.783761 150.999535 
L 79.27399 150.356978 
L 74.971846 148.505981 
L 70.718383 146.654984 
L 69.795833 146.254822 
" style="fill:none;stroke:#adadff;"/>
   </g>
   <g id="LineCollection_3">
    <path clip-path="url(#p817e2c0ea4)" d="M 244.483835 44.850156 
L 244.483835 46.701153 
L 244.483835 48.55215 
L 244.483835 50.403147 
L 244.483835 52.254144 
L 244.483835 54.10514 
L 244.483835 55.956137 
L 244.483835 57.807134 
L 244.483835 59.658131 
L 244.483835 61.509128 
L 244.483835 63.360125 
L 244.483835 65.211122 
L 244.483835 67.062119 
L 244.483835 68.913115 
L 244.483835 70.764112 
L 244.483835 72.615109 
L 244.483835 74.466106 
L 244.483835 76.317103 
L 244.483835 78.1681 
L 244.483835 80.019097 
L 244.483835 81.870094 
L 244.483835 83.72109 
L 244.483835 85.572087 
L 244.483835 87.423084 
L 244.483835 89.274081 
L 244.483835 91.125078 
L 244.483835 92.976075 
L 244.483835 94.827072 
L 244.483835 96.678069 
L 244.483835 98.529066 
L 244.483835 100.380062 
L 244.483835 102.231059 
L 244.483835 104.082056 
L 244.483835 105.933053 
L 244.483835 107.78405 
L 244.483835 109.635047 
L 244.483835 111.486044 
L 244.483835 113.337041 
L 244.483835 115.188037 
L 244.483835 117.039034 
L 244.483835 118.890031 
L 244.483835 120.741028 
L 244.483835 122.592025 
L 244.483835 124.443022 
L 244.483835 126.294019 
L 244.483835 128.145016 
L 244.483835 129.996012 
L 244.483835 131.847009 
L 244.483835 133.698006 
L 244.483835 135.549003 
L 244.483835 137.4 
L 244.483835 139.250997 
L 244.483835 141.101994 
L 244.483835 142.952991 
L 244.483835 144.803988 
L 244.483835 146.654984 
L 244.483835 148.505981 
L 244.483835 150.356978 
L 244.483835 152.207975 
L 244.483835 154.058972 
L 244.483835 155.909969 
L 244.483835 157.760966 
L 244.483835 159.611963 
L 244.483835 161.462959 
L 244.483835 163.313956 
L 244.483835 165.164953 
L 244.483835 167.01595 
L 244.483835 168.866947 
L 244.483835 170.717944 
L 244.483835 172.568941 
L 244.483835 174.419938 
L 244.483835 176.270934 
L 244.483835 178.121931 
L 244.483835 179.972928 
L 244.483835 181.823925 
L 244.483835 183.674922 
L 244.483835 185.525919 
L 244.483835 187.376916 
L 244.483835 189.227913 
L 244.483835 191.07891 
L 244.483835 192.929906 
L 244.483835 194.780903 
L 244.483835 196.6319 
L 244.483835 198.482897 
L 244.483835 200.333894 
L 244.483835 202.184891 
L 244.483835 204.035888 
L 244.483835 205.886885 
L 244.483835 207.737881 
L 244.483835 209.588878 
L 243.556131 211.439875 
L 234.614766 212.904922 
L 227.58144 211.439875 
L 223.626837 210.57617 
L 219.714944 209.588878 
L 212.765354 207.737881 
L 212.638908 207.703313 
L 206.562432 205.886885 
L 203.155341 204.814713 
" style="fill:none;stroke:#9292ff;"/>
    <path clip-path="url(#p817e2c0ea4)" d="M 177.032296 195.4737 
L 175.218085 194.780903 
L 170.567224 192.929906 
L 168.687192 192.171228 
L 165.919078 191.07891 
L 161.369674 189.227913 
L 157.699264 187.696239 
L 156.906296 187.376916 
L 152.384348 185.525919 
L 148.014693 183.674922 
L 146.711335 183.119872 
L 143.560856 181.823925 
L 139.190732 179.972928 
L 135.723406 178.474765 
L 134.870456 178.121931 
L 130.460413 176.270934 
L 126.183914 174.419938 
L 124.735477 173.790178 
L 121.812823 172.568941 
L 117.49673 170.717944 
L 113.747548 169.076744 
L 113.245231 168.866947 
L 108.8615 167.01595 
L 104.610665 165.164953 
L 102.759619 164.354241 
L 100.282422 163.313956 
L 95.974224 161.462959 
L 91.77169 159.613956 
L 91.766934 159.611963 
L 87.37818 157.760966 
L 83.126539 155.909969 
L 80.783761 154.881061 
L 78.828691 154.058972 
L 74.511775 152.207975 
L 70.300401 150.356978 
L 69.795833 150.135808 
" style="fill:none;stroke:#9292ff;"/>
   </g>
   <g id="LineCollection_4">
    <path clip-path="url(#p817e2c0ea4)" d="M 252.948602 44.850156 
L 252.948602 46.701153 
L 252.948602 48.55215 
L 252.948602 50.403147 
L 252.948602 52.254144 
L 252.948602 54.10514 
L 252.948602 55.956137 
L 252.948602 57.807134 
L 252.948602 59.658131 
L 252.948602 61.509128 
L 252.948602 63.360125 
L 252.948602 65.211122 
L 252.948602 67.062119 
L 252.948602 68.913115 
L 252.948602 70.764112 
L 252.948602 72.615109 
L 252.948602 74.466106 
L 252.948602 76.317103 
L 252.948602 78.1681 
L 252.948602 80.019097 
L 252.948602 81.870094 
L 252.948602 83.72109 
L 252.948602 85.572087 
L 252.948602 87.423084 
L 252.948602 89.274081 
L 252.948602 91.125078 
L 252.948602 92.976075 
L 252.948602 94.827072 
L 252.948602 96.678069 
L 252.948602 98.529066 
L 252.948602 100.380062 
L 252.948602 102.231059 
L 252.948602 104.082056 
L 252.948602 105.933053 
L 252.948602 107.78405 
L 252.948602 109.635047 
L 252.948602 111.486044 
L 252.948602 113.337041 
L 252.948602 115.188037 
L 252.948602 117.039034 
L 252.948602 118.890031 
L 252.948602 120.741028 
L 252.948602 122.592025 
L 252.948602 124.443022 
L 252.948602 126.294019 
L 252.948602 128.145016 
L 252.948602 129.996012 
L 252.948602 131.847009 
L 252.948602 133.698006 
L 252.948602 135.549003 
L 252.948602 137.4 
L 252.948602 139.250997 
L 252.948602 141.101994 
L 252.948602 142.952991 
L 252.948602 144.803988 
L 252.948602 145.806611 
" style="fill:none;stroke:#7777ff;"/>
    <path clip-path="url(#p817e2c0ea4)" d="M 252.948602 169.715321 
L 252.948602 170.717944 
L 252.948602 172.568941 
L 252.948602 174.419938 
L 252.948602 176.270934 
L 252.948602 178.121931 
L 252.948602 179.972928 
L 252.948602 181.823925 
L 252.948602 183.674922 
L 252.948602 185.525919 
L 252.948602 187.376916 
L 252.948602 189.227913 
L 252.948602 191.07891 
L 252.948602 192.929906 
L 252.948602 194.780903 
L 252.948602 196.6319 
L 252.948602 198.482897 
L 252.948602 200.333894 
L 252.948602 202.184891 
L 252.948602 204.035888 
L 252.948602 205.886885 
L 252.948602 207.737881 
L 252.948602 209.588878 
L 252.948602 211.439875 
L 252.948602 213.290872 
L 252.804191 215.141869 
L 248.749955 216.992866 
L 245.602694 217.479624 
L 242.151242 216.992866 
L 234.614766 215.859406 
L 230.76562 215.141869 
L 223.626837 213.712839 
L 221.782766 213.290872 
L 214.219062 211.439875 
L 212.638908 211.031979 
L 207.445581 209.588878 
L 201.650979 207.848876 
L 201.289102 207.737881 
L 195.47787 205.886885 
L 190.66305 204.237418 
L 190.067337 204.035888 
L 184.77054 202.184891 
L 179.826299 200.333894 
L 179.675121 200.276632 
L 174.810037 198.482897 
L 170.101327 196.6319 
L 168.687192 196.065039 
L 165.336513 194.780903 
L 160.737411 192.929906 
L 157.699264 191.663739 
L 156.210573 191.07891 
L 151.630932 189.227913 
L 147.281863 187.376916 
L 146.711335 187.133065 
L 142.72564 185.525919 
L 138.359092 183.674922 
L 135.723406 182.528916 
L 133.988645 181.823925 
L 129.557426 179.972928 
L 125.327663 178.121931 
L 124.735477 177.862322 
L 120.866375 176.270934 
L 116.570291 174.419938 
L 113.747548 173.172317 
L 112.281536 172.568941 
L 107.888092 170.717944 
L 103.68869 168.866947 
L 102.759619 168.455688 
L 99.284952 167.01595 
L 94.999832 165.164953 
L 91.77169 163.729143 
L 90.767436 163.313956 
L 86.369519 161.462959 
L 82.170068 159.611963 
L 80.783761 158.996045 
L 77.808499 157.760966 
L 73.510392 155.909969 
L 69.795833 154.252897 
" style="fill:none;stroke:#7777ff;"/>
   </g>
   <g id="LineCollection_5">
    <path clip-path="url(#p817e2c0ea4)" d="M 260.612029 44.850156 
L 260.612029 46.701153 
L 260.612029 48.55215 
L 260.612029 50.403147 
L 260.612029 52.254144 
L 260.612029 54.10514 
L 260.612029 55.956137 
L 260.612029 57.807134 
L 260.612029 59.658131 
L 260.612029 61.509128 
L 260.612029 63.360125 
L 260.612029 65.211122 
L 260.612029 67.062119 
L 260.612029 68.913115 
L 260.612029 70.764112 
L 260.612029 72.615109 
L 260.612029 74.466106 
L 260.612029 76.317103 
L 260.612029 78.1681 
L 260.612029 80.019097 
L 260.612029 81.870094 
L 260.612029 83.72109 
L 260.612029 85.572087 
L 260.612029 87.423084 
L 260.612029 89.274081 
L 260.612029 91.125078 
L 260.612029 92.976075 
L 260.612029 94.827072 
L 260.612029 96.678069 
L 260.612029 98.529066 
L 260.612029 100.380062 
L 260.612029 102.231059 
L 260.612029 104.082056 
L 260.612029 105.933053 
L 260.612029 107.78405 
L 260.612029 109.635047 
L 260.612029 111.486044 
L 260.612029 113.337041 
L 260.612029 115.188037 
L 260.612029 117.039034 
L 260.612029 118.890031 
L 260.612029 120.741028 
L 260.612029 122.592025 
L 260.612029 124.443022 
L 260.612029 126.294019 
L 260.612029 128.145016 
L 260.612029 129.996012 
L 260.612029 131.847009 
L 260.612029 133.698006 
L 260.612029 135.549003 
L 260.612029 137.4 
L 260.612029 139.250997 
L 260.612029 141.101994 
L 260.612029 142.952991 
L 260.612029 144.803988 
L 260.612029 146.654984 
L 260.612029 148.505981 
L 260.612029 150.356978 
L 260.612029 152.207975 
L 260.612029 154.058972 
L 260.612029 155.909969 
L 260.612029 157.760966 
L 260.612029 159.611963 
L 260.612029 161.462959 
L 260.612029 163.313956 
L 260.612029 165.164953 
L 260.612029 167.01595 
L 260.612029 168.866947 
L 260.612029 170.717944 
L 260.612029 172.568941 
L 260.612029 174.419938 
L 260.612029 176.270934 
L 260.612029 178.121931 
L 260.612029 179.972928 
L 260.612029 181.823925 
L 260.612029 183.674922 
L 260.612029 185.525919 
L 260.612029 187.376916 
L 260.612029 189.227913 
L 260.612029 191.07891 
L 260.612029 192.929906 
L 260.612029 194.780903 
L 260.612029 196.6319 
L 260.612029 198.482897 
L 260.612029 200.333894 
L 260.612029 202.184891 
L 260.612029 204.035888 
L 260.612029 205.886885 
L 260.612029 207.737881 
L 260.612029 209.588878 
L 260.612029 211.439875 
L 260.612029 213.290872 
L 260.612029 215.141869 
L 260.612029 216.992866 
L 260.612029 218.843863 
L 258.494187 220.69486 
L 256.590623 221.212553 
L 250.665457 220.69486 
L 245.602694 220.221108 
L 237.553853 219.182754 
" style="fill:none;stroke:#5c5cff;"/>
    <path clip-path="url(#p817e2c0ea4)" d="M 209.922019 213.792377 
L 207.927035 213.290872 
L 201.650979 211.538339 
L 201.301353 211.439875 
L 195.051461 209.588878 
L 190.66305 208.153616 
L 189.353092 207.737881 
L 183.818002 205.886885 
L 179.675121 204.377489 
L 178.681559 204.035888 
L 173.510892 202.184891 
L 168.783572 200.333894 
L 168.687192 200.295731 
L 163.789621 198.482897 
L 159.197358 196.6319 
L 157.699264 196.010723 
L 154.478752 194.780903 
L 149.916224 192.929906 
L 146.711335 191.55818 
L 145.481072 191.07891 
L 140.870749 189.227913 
L 136.585371 187.376916 
L 135.723406 187.000422 
L 132.021892 185.525919 
L 127.660457 183.674922 
L 124.735477 182.378226 
L 123.352677 181.823925 
L 118.868177 179.972928 
L 114.678832 178.121931 
L 113.747548 177.706452 
L 110.205347 176.270934 
L 105.897645 174.419938 
L 102.759619 173.009097 
L 101.673732 172.568941 
L 97.213821 170.717944 
L 93.04266 168.866947 
L 91.77169 168.295015 
L 88.635505 167.01595 
L 84.325998 165.164953 
L 80.783761 163.562682 
L 80.172751 163.313956 
L 75.695202 161.462959 
L 71.511671 159.611963 
L 69.795833 158.837129 
" style="fill:none;stroke:#5c5cff;"/>
   </g>
   <g id="LineCollection_6">
    <path clip-path="url(#p817e2c0ea4)" d="M 267.811103 44.850156 
L 267.811103 46.701153 
L 267.811103 48.55215 
L 267.811103 50.403147 
L 267.811103 52.254144 
L 267.811103 54.10514 
L 267.811103 55.956137 
L 267.811103 57.807134 
L 267.811103 59.658131 
L 267.811103 61.509128 
L 267.811103 63.360125 
L 267.811103 65.211122 
L 267.811103 67.062119 
L 267.811103 68.913115 
L 267.811103 69.915739 
" style="fill:none;stroke:#4141ff;"/>
    <path clip-path="url(#p817e2c0ea4)" d="M 267.811103 93.824448 
L 267.811103 94.827072 
L 267.811103 96.678069 
L 267.811103 98.529066 
L 267.811103 100.380062 
L 267.811103 102.231059 
L 267.811103 104.082056 
L 267.811103 105.933053 
L 267.811103 107.78405 
L 267.811103 109.635047 
L 267.811103 111.486044 
L 267.811103 113.337041 
L 267.811103 115.188037 
L 267.811103 117.039034 
L 267.811103 118.890031 
L 267.811103 120.741028 
L 267.811103 122.592025 
L 267.811103 124.443022 
L 267.811103 126.294019 
L 267.811103 128.145016 
L 267.811103 129.996012 
L 267.811103 131.847009 
L 267.811103 133.698006 
L 267.811103 135.549003 
L 267.811103 137.4 
L 267.811103 139.250997 
L 267.811103 141.101994 
L 267.811103 142.952991 
L 267.811103 144.803988 
L 267.811103 146.654984 
L 267.811103 148.505981 
L 267.811103 150.356978 
L 267.811103 152.207975 
L 267.811103 154.058972 
L 267.811103 155.909969 
L 267.811103 157.760966 
L 267.811103 159.611963 
L 267.811103 161.462959 
L 267.811103 163.313956 
L 267.811103 165.164953 
L 267.811103 167.01595 
L 267.811103 168.866947 
L 267.811103 170.717944 
L 267.811103 172.568941 
L 267.811103 174.419938 
L 267.811103 176.270934 
L 267.811103 178.121931 
L 267.811103 179.972928 
L 267.811103 181.823925 
L 267.811103 183.674922 
L 267.811103 185.525919 
L 267.811103 187.376916 
L 267.811103 189.227913 
L 267.811103 191.07891 
L 267.811103 192.929906 
L 267.811103 194.780903 
L 267.811103 196.6319 
L 267.811103 198.482897 
L 267.811103 200.333894 
L 267.811103 202.184891 
L 267.811103 204.035888 
L 267.811103 205.886885 
L 267.811103 207.737881 
L 267.811103 209.588878 
L 267.811103 211.439875 
L 267.811103 213.290872 
L 267.811103 215.141869 
L 267.811103 216.992866 
L 267.811103 218.843863 
L 267.811103 220.69486 
L 267.811103 222.545856 
L 267.578552 223.180132 
L 256.590623 223.744458 
L 245.602694 222.948567 
L 241.507112 222.545856 
L 234.614766 221.796257 
L 226.713835 220.69486 
L 223.626837 220.214252 
L 216.02816 218.843863 
L 212.638908 218.153901 
L 207.311345 216.992866 
L 201.650979 215.584412 
L 199.882431 215.141869 
L 193.151986 213.290872 
L 190.66305 212.533597 
L 186.914494 211.439875 
L 181.241666 209.588878 
L 179.675121 209.043703 
L 175.633892 207.737881 
L 170.486811 205.886885 
L 168.687192 205.200788 
L 165.320905 204.035888 
L 160.420012 202.184891 
L 157.699264 201.080241 
L 155.639311 200.333894 
L 150.818268 198.482897 
L 146.711335 196.742157 
L 146.415983 196.6319 
L 141.55915 194.780903 
L 137.185686 192.929906 
L 135.723406 192.289882 
L 132.582351 191.07891 
L 128.111619 189.227913 
L 124.735477 187.721903 
L 123.850099 187.376916 
L 119.226414 185.525919 
L 115.022137 183.674922 
L 113.747548 183.099652 
L 110.521944 181.823925 
L 106.156518 179.972928 
L 102.759619 178.424597 
L 101.996505 178.121931 
L 97.431412 176.270934 
L 93.266862 174.419938 
L 91.77169 173.73652 
L 88.850082 172.568941 
L 84.499461 170.717944 
L 80.783761 169.009093 
L 80.427865 168.866947 
L 75.852295 167.01595 
L 71.678609 165.164953 
L 69.795833 164.29953 
" style="fill:none;stroke:#4141ff;"/>
   </g>
   <g id="LineCollection_7">
    <path clip-path="url(#p817e2c0ea4)" d="M 275.500925 44.850156 
L 275.500925 222.545856 
L 275.299123 224.396853 
L 270.595073 226.24785 
L 267.578552 226.595477 
L 256.536998 226.24785 
L 245.602694 225.712855 
L 234.614766 224.917976 
L 223.626837 223.793716 
L 212.638908 222.260144 
L 201.650979 220.273147 
L 194.862316 218.843863 
L 187.326277 216.992866 
L 174.264414 213.290872 
L 168.687192 211.405895 
L 162.907979 209.588878 
L 157.699264 207.638877 
L 152.50531 205.886885 
L 146.711335 203.593838 
L 142.727036 202.184891 
L 128.686017 196.6319 
L 124.467007 194.780903 
L 119.595331 192.929906 
L 110.762872 189.227913 
L 106.295216 187.376916 
L 102.176289 185.525919 
L 97.472575 183.674922 
L 93.40416 181.867245 
L 93.40416 181.867245 
" style="fill:none;stroke:#2727ff;"/>
   </g>
   <g id="LineCollection_8">
    <path clip-path="url(#p817e2c0ea4)" d="M 286.651634 44.850156 
L 286.651634 46.701153 
L 286.651634 48.55215 
L 286.651634 50.403147 
L 286.651634 52.254144 
L 286.651634 54.10514 
L 286.651634 55.956137 
L 286.651634 57.807134 
L 286.651634 59.658131 
L 286.651634 61.509128 
L 286.651634 63.360125 
L 286.651634 65.211122 
L 286.651634 67.062119 
L 286.651634 68.913115 
L 286.651634 70.764112 
L 286.651634 72.615109 
L 286.651634 74.466106 
L 286.651634 76.317103 
L 286.651634 78.1681 
L 286.651634 80.019097 
L 286.651634 81.870094 
L 286.651634 83.72109 
L 286.651634 85.572087 
L 286.651634 87.423084 
L 286.651634 89.274081 
L 286.651634 91.125078 
L 286.651634 92.976075 
L 286.651634 94.827072 
L 286.651634 96.678069 
L 286.651634 98.529066 
L 286.651634 100.380062 
L 286.651634 102.231059 
L 286.651634 104.082056 
L 286.651634 105.933053 
L 286.651634 107.78405 
L 286.651634 109.635047 
L 286.651634 111.486044 
L 286.651634 113.337041 
L 286.651634 115.188037 
L 286.651634 117.039034 
L 286.651634 118.890031 
L 286.651634 120.741028 
L 286.651634 122.592025 
L 286.651634 124.443022 
L 286.651634 126.294019 
L 286.651634 128.145016 
L 286.651634 129.996012 
L 286.651634 131.847009 
L 286.651634 133.698006 
L 286.651634 135.549003 
L 286.651634 137.4 
L 286.651634 139.250997 
L 286.651634 141.101994 
L 286.651634 142.952991 
L 286.651634 144.803988 
L 286.651634 145.806611 
" style="fill:none;stroke:#0c0cff;"/>
    <path clip-path="url(#p817e2c0ea4)" d="M 286.651634 169.715321 
L 286.651634 170.717944 
L 286.651634 172.568941 
L 286.651634 174.419938 
L 286.651634 176.270934 
L 286.651634 178.121931 
L 286.651634 179.972928 
L 286.651634 181.823925 
L 286.651634 183.674922 
L 286.651634 185.525919 
L 286.651634 187.376916 
L 286.651634 189.227913 
L 286.651634 191.07891 
L 286.651634 192.929906 
L 286.651634 194.780903 
L 286.651634 196.6319 
L 286.651634 198.482897 
L 286.651634 200.333894 
L 286.651634 202.184891 
L 286.651634 204.035888 
L 286.651634 205.886885 
L 286.651634 207.737881 
L 286.651634 209.588878 
L 286.651634 211.439875 
L 286.651634 213.290872 
L 286.651634 215.141869 
L 286.651634 216.992866 
L 286.651634 218.843863 
L 286.651634 220.69486 
L 286.651634 222.545856 
L 286.651634 224.396853 
L 286.651634 226.24785 
L 285.728879 228.098847 
L 278.566481 228.963968 
L 267.578552 228.894898 
L 256.590623 228.774491 
L 245.602694 228.580204 
L 234.614766 228.277223 
L 229.739413 228.098847 
L 223.626837 227.835864 
L 212.638908 227.204248 
L 201.650979 226.27111 
L 201.396195 226.24785 
L 190.66305 225.04106 
L 185.840214 224.396853 
L 179.675121 223.377586 
L 174.813369 222.545856 
L 168.687192 221.240637 
L 166.006842 220.69486 
L 158.512899 218.843863 
L 157.699264 218.611941 
L 151.312218 216.992866 
L 146.711335 215.533037 
L 145.283653 215.141869 
L 139.157666 213.290872 
L 135.723406 212.044258 
L 133.742271 211.439875 
L 128.231709 209.588878 
L 124.735477 208.20044 
L 123.323586 207.737881 
L 118.042852 205.886885 
L 113.747548 204.073068 
L 113.639545 204.035888 
L 108.375985 202.184891 
L 103.961928 200.333894 
L 102.759619 199.797709 
L 99.114279 198.482897 
L 94.560791 196.6319 
L 91.77169 195.356334 
L 90.208986 194.780903 
L 85.439611 192.929906 
L 81.370815 191.07891 
L 80.783761 190.804505 
L 76.582597 189.227913 
L 72.262605 187.376916 
L 69.795833 186.211429 
" style="fill:none;stroke:#0c0cff;"/>
   </g>
   <g id="line2d_19">
    <path clip-path="url(#p817e2c0ea4)" d="M 69.795833 163.313956 
L 80.783761 167.01595 
L 91.77169 170.717944 
L 102.759619 174.419938 
L 113.747548 178.121931 
L 124.735477 181.823925 
L 135.723406 185.525919 
L 146.711335 189.227913 
L 157.699264 192.929906 
L 168.687192 196.6319 
L 179.675121 200.333894 
L 190.66305 204.035888 
L 201.650979 207.737881 
L 212.638908 211.439875 
L 223.626837 215.141869 
L 234.614766 218.843863 
L 245.602694 222.545856 
L 256.590623 226.24785 
L 267.578552 229.949844 
" style="fill:none;stroke:#e36f47;stroke-dasharray:22.2,9.6;stroke-dashoffset:0;stroke-width:6;"/>
   </g>
   <g id="patch_3">
    <path d="M 59.906697 235.502835 
L 59.906697 39.297165 
" style="fill:none;stroke:#000000;stroke-linecap:square;stroke-linejoin:miter;"/>
   </g>
   <g id="patch_4">
    <path d="M 59.906697 235.502835 
L 409.322835 235.502835 
" style="fill:none;stroke:#000000;stroke-linecap:square;stroke-linejoin:miter;"/>
   </g>
   <g id="text_12">
    <g clip-path="url(#p817e2c0ea4)">
     <!-- 0.325 -->
     <g style="fill:#c7c7ff;" transform="translate(218.55883 143.446903)rotate(-270)scale(0.1 -0.1)">
      <defs>
       <path d="M 31.78125 66.40625 
Q 24.171875 66.40625 20.328125 58.90625 
Q 16.5 51.421875 16.5 36.375 
Q 16.5 21.390625 20.328125 13.890625 
Q 24.171875 6.390625 31.78125 6.390625 
Q 39.453125 6.390625 43.28125 13.890625 
Q 47.125 21.390625 47.125 36.375 
Q 47.125 51.421875 43.28125 58.90625 
Q 39.453125 66.40625 31.78125 66.40625 
z
M 31.78125 74.21875 
Q 44.046875 74.21875 50.515625 64.515625 
Q 56.984375 54.828125 56.984375 36.375 
Q 56.984375 17.96875 50.515625 8.265625 
Q 44.046875 -1.421875 31.78125 -1.421875 
Q 19.53125 -1.421875 13.0625 8.265625 
Q 6.59375 17.96875 6.59375 36.375 
Q 6.59375 54.828125 13.0625 64.515625 
Q 19.53125 74.21875 31.78125 74.21875 
z
" id="DejaVuSans-48"/>
       <path d="M 10.6875 12.40625 
L 21 12.40625 
L 21 0 
L 10.6875 0 
z
" id="DejaVuSans-46"/>
       <path d="M 40.578125 39.3125 
Q 47.65625 37.796875 51.625 33 
Q 55.609375 28.21875 55.609375 21.1875 
Q 55.609375 10.40625 48.1875 4.484375 
Q 40.765625 -1.421875 27.09375 -1.421875 
Q 22.515625 -1.421875 17.65625 -0.515625 
Q 12.796875 0.390625 7.625 2.203125 
L 7.625 11.71875 
Q 11.71875 9.328125 16.59375 8.109375 
Q 21.484375 6.890625 26.8125 6.890625 
Q 36.078125 6.890625 40.9375 10.546875 
Q 45.796875 14.203125 45.796875 21.1875 
Q 45.796875 27.640625 41.28125 31.265625 
Q 36.765625 34.90625 28.71875 34.90625 
L 20.21875 34.90625 
L 20.21875 43.015625 
L 29.109375 43.015625 
Q 36.375 43.015625 40.234375 45.921875 
Q 44.09375 48.828125 44.09375 54.296875 
Q 44.09375 59.90625 40.109375 62.90625 
Q 36.140625 65.921875 28.71875 65.921875 
Q 24.65625 65.921875 20.015625 65.03125 
Q 15.375 64.15625 9.8125 62.3125 
L 9.8125 71.09375 
Q 15.4375 72.65625 20.34375 73.4375 
Q 25.25 74.21875 29.59375 74.21875 
Q 40.828125 74.21875 47.359375 69.109375 
Q 53.90625 64.015625 53.90625 55.328125 
Q 53.90625 49.265625 50.4375 45.09375 
Q 46.96875 40.921875 40.578125 39.3125 
z
" id="DejaVuSans-51"/>
       <path d="M 19.1875 8.296875 
L 53.609375 8.296875 
L 53.609375 0 
L 7.328125 0 
L 7.328125 8.296875 
Q 12.9375 14.109375 22.625 23.890625 
Q 32.328125 33.6875 34.8125 36.53125 
Q 39.546875 41.84375 41.421875 45.53125 
Q 43.3125 49.21875 43.3125 52.78125 
Q 43.3125 58.59375 39.234375 62.25 
Q 35.15625 65.921875 28.609375 65.921875 
Q 23.96875 65.921875 18.8125 64.3125 
Q 13.671875 62.703125 7.8125 59.421875 
L 7.8125 69.390625 
Q 13.765625 71.78125 18.9375 73 
Q 24.125 74.21875 28.421875 74.21875 
Q 39.75 74.21875 46.484375 68.546875 
Q 53.21875 62.890625 53.21875 53.421875 
Q 53.21875 48.921875 51.53125 44.890625 
Q 49.859375 40.875 45.40625 35.40625 
Q 44.1875 33.984375 37.640625 27.21875 
Q 31.109375 20.453125 19.1875 8.296875 
z
" id="DejaVuSans-50"/>
       <path d="M 10.796875 72.90625 
L 49.515625 72.90625 
L 49.515625 64.59375 
L 19.828125 64.59375 
L 19.828125 46.734375 
Q 21.96875 47.46875 24.109375 47.828125 
Q 26.265625 48.1875 28.421875 48.1875 
Q 40.625 48.1875 47.75 41.5 
Q 54.890625 34.8125 54.890625 23.390625 
Q 54.890625 11.625 47.5625 5.09375 
Q 40.234375 -1.421875 26.90625 -1.421875 
Q 22.3125 -1.421875 17.546875 -0.640625 
Q 12.796875 0.140625 7.71875 1.703125 
L 7.71875 11.625 
Q 12.109375 9.234375 16.796875 8.0625 
Q 21.484375 6.890625 26.703125 6.890625 
Q 35.15625 6.890625 40.078125 11.328125 
Q 45.015625 15.765625 45.015625 23.390625 
Q 45.015625 31 40.078125 35.4375 
Q 35.15625 39.890625 26.703125 39.890625 
Q 22.75 39.890625 18.8125 39.015625 
Q 14.890625 38.140625 10.796875 36.28125 
z
" id="DejaVuSans-53"/>
      </defs>
      <use xlink:href="#DejaVuSans-48"/>
      <use x="63.623047" xlink:href="#DejaVuSans-46"/>
      <use x="95.410156" xlink:href="#DejaVuSans-51"/>
      <use x="159.033203" xlink:href="#DejaVuSans-50"/>
      <use x="222.65625" xlink:href="#DejaVuSans-53"/>
     </g>
    </g>
   </g>
   <g id="text_13">
    <g clip-path="url(#p817e2c0ea4)">
     <!-- 0.350 -->
     <g style="fill:#adadff;" transform="translate(231.714542 67.556031)rotate(-270)scale(0.1 -0.1)">
      <use xlink:href="#DejaVuSans-48"/>
      <use x="63.623047" xlink:href="#DejaVuSans-46"/>
      <use x="95.410156" xlink:href="#DejaVuSans-51"/>
      <use x="159.033203" xlink:href="#DejaVuSans-53"/>
      <use x="222.65625" xlink:href="#DejaVuSans-48"/>
     </g>
    </g>
   </g>
   <g id="text_14">
    <g clip-path="url(#p817e2c0ea4)">
     <!-- 0.375 -->
     <g style="fill:#9292ff;" transform="translate(175.7495 197.256576)rotate(-336.901962)scale(0.1 -0.1)">
      <defs>
       <path d="M 8.203125 72.90625 
L 55.078125 72.90625 
L 55.078125 68.703125 
L 28.609375 0 
L 18.3125 0 
L 43.21875 64.59375 
L 8.203125 64.59375 
z
" id="DejaVuSans-55"/>
      </defs>
      <use xlink:href="#DejaVuSans-48"/>
      <use x="63.623047" xlink:href="#DejaVuSans-46"/>
      <use x="95.410156" xlink:href="#DejaVuSans-51"/>
      <use x="159.033203" xlink:href="#DejaVuSans-55"/>
      <use x="222.65625" xlink:href="#DejaVuSans-53"/>
     </g>
    </g>
   </g>
   <g id="text_15">
    <g clip-path="url(#p817e2c0ea4)">
     <!-- 0.400 -->
     <g style="fill:#7777ff;" transform="translate(250.189227 143.446903)rotate(-270)scale(0.1 -0.1)">
      <defs>
       <path d="M 37.796875 64.3125 
L 12.890625 25.390625 
L 37.796875 25.390625 
z
M 35.203125 72.90625 
L 47.609375 72.90625 
L 47.609375 25.390625 
L 58.015625 25.390625 
L 58.015625 17.1875 
L 47.609375 17.1875 
L 47.609375 0 
L 37.796875 0 
L 37.796875 17.1875 
L 4.890625 17.1875 
L 4.890625 26.703125 
z
" id="DejaVuSans-52"/>
      </defs>
      <use xlink:href="#DejaVuSans-48"/>
      <use x="63.623047" xlink:href="#DejaVuSans-46"/>
      <use x="95.410156" xlink:href="#DejaVuSans-52"/>
      <use x="159.033203" xlink:href="#DejaVuSans-48"/>
      <use x="222.65625" xlink:href="#DejaVuSans-48"/>
     </g>
    </g>
   </g>
   <g id="text_16">
    <g clip-path="url(#p817e2c0ea4)">
     <!-- 0.425 -->
     <g style="fill:#5c5cff;" transform="translate(209.06014 216.329815)rotate(-346.872151)scale(0.1 -0.1)">
      <use xlink:href="#DejaVuSans-48"/>
      <use x="63.623047" xlink:href="#DejaVuSans-46"/>
      <use x="95.410156" xlink:href="#DejaVuSans-52"/>
      <use x="159.033203" xlink:href="#DejaVuSans-50"/>
      <use x="222.65625" xlink:href="#DejaVuSans-53"/>
     </g>
    </g>
   </g>
   <g id="text_17">
    <g clip-path="url(#p817e2c0ea4)">
     <!-- 0.450 -->
     <g style="fill:#4141ff;" transform="translate(265.051728 67.556031)rotate(-270)scale(0.1 -0.1)">
      <use xlink:href="#DejaVuSans-48"/>
      <use x="63.623047" xlink:href="#DejaVuSans-46"/>
      <use x="95.410156" xlink:href="#DejaVuSans-52"/>
      <use x="159.033203" xlink:href="#DejaVuSans-53"/>
      <use x="222.65625" xlink:href="#DejaVuSans-48"/>
     </g>
    </g>
   </g>
   <g id="text_18">
    <g clip-path="url(#p817e2c0ea4)">
     <!-- 0.475 -->
     <g style="fill:#2727ff;" transform="translate(66.76936 172.396459)rotate(-333.110267)scale(0.1 -0.1)">
      <use xlink:href="#DejaVuSans-48"/>
      <use x="63.623047" xlink:href="#DejaVuSans-46"/>
      <use x="95.410156" xlink:href="#DejaVuSans-52"/>
      <use x="159.033203" xlink:href="#DejaVuSans-55"/>
      <use x="222.65625" xlink:href="#DejaVuSans-53"/>
     </g>
    </g>
   </g>
   <g id="text_19">
    <g clip-path="url(#p817e2c0ea4)">
     <!-- 0.500 -->
     <g style="fill:#0c0cff;" transform="translate(283.892259 143.446903)rotate(-270)scale(0.1 -0.1)">
      <use xlink:href="#DejaVuSans-48"/>
      <use x="63.623047" xlink:href="#DejaVuSans-46"/>
      <use x="95.410156" xlink:href="#DejaVuSans-53"/>
      <use x="159.033203" xlink:href="#DejaVuSans-48"/>
      <use x="222.65625" xlink:href="#DejaVuSans-48"/>
     </g>
    </g>
   </g>
   <g id="text_20">
    <!-- Max(I) -->
    <g transform="translate(211.958516 33.297165)scale(0.16 -0.16)">
     <defs>
      <path d="M 1.125 1.8125 
Q 7.328125 2.4375 9.078125 4.609375 
Q 10.84375 6.78125 10.84375 14.703125 
L 10.84375 55.328125 
Q 10.84375 60.75 9.125 62.375 
Q 7.421875 64.015625 1.375 64.3125 
L 1.375 66.15625 
L 21.140625 66.15625 
L 44.28125 15.71875 
L 66.40625 66.15625 
L 86.328125 66.15625 
L 86.328125 64.3125 
Q 80.765625 63.921875 79.15625 62.28125 
Q 77.546875 60.640625 77.546875 55.328125 
L 77.546875 10.84375 
Q 77.546875 5.375 79.15625 3.828125 
Q 80.765625 2.296875 86.328125 1.8125 
L 86.328125 0 
L 58.296875 0 
L 58.296875 1.8125 
Q 64.359375 2.296875 65.84375 3.984375 
Q 67.328125 5.671875 67.328125 12.015625 
L 67.328125 56.9375 
L 41.75 0 
L 40.375 0 
L 15.234375 54.59375 
L 15.234375 14.703125 
Q 15.234375 6.5 17.625 4 
Q 19.1875 2.390625 24.609375 1.8125 
L 24.609375 0 
L 1.125 0 
z
" id="Times-Roman-77"/>
      <path d="M 28.65625 27.046875 
Q 23.046875 25.203125 19.390625 22.953125 
Q 12.359375 18.609375 12.359375 13.09375 
Q 12.359375 8.640625 15.28125 6.546875 
Q 17.1875 5.171875 19.53125 5.171875 
Q 22.75 5.171875 25.703125 6.984375 
Q 28.65625 8.796875 28.65625 11.578125 
z
M 3.65625 9.71875 
Q 3.65625 16.796875 10.75 21.53125 
Q 15.234375 24.46875 28.65625 29.5 
L 28.65625 33.640625 
Q 28.65625 38.625 27.6875 40.578125 
Q 26.03125 43.84375 20.796875 43.84375 
Q 18.3125 43.84375 16.0625 42.578125 
Q 13.8125 41.265625 13.8125 38.96875 
Q 13.8125 38.375 14.0625 36.984375 
Q 14.3125 35.59375 14.3125 35.203125 
Q 14.3125 32.46875 12.5 31.390625 
Q 11.46875 30.765625 10.0625 30.765625 
Q 7.859375 30.765625 6.6875 32.203125 
Q 5.515625 33.640625 5.515625 35.40625 
Q 5.515625 38.8125 9.734375 42.546875 
Q 13.96875 46.296875 22.125 46.296875 
Q 31.59375 46.296875 34.96875 40.140625 
Q 36.765625 36.765625 36.765625 30.328125 
L 36.765625 10.75 
Q 36.765625 7.90625 37.15625 6.84375 
Q 37.796875 4.9375 39.796875 4.9375 
Q 40.921875 4.9375 41.65625 5.265625 
Q 42.390625 5.609375 44.1875 6.9375 
L 44.1875 4.390625 
Q 42.625 2.484375 40.828125 1.265625 
Q 38.09375 -0.59375 35.25 -0.59375 
Q 31.9375 -0.59375 30.4375 1.5625 
Q 28.953125 3.71875 28.8125 6.6875 
Q 25.09375 3.46875 22.46875 1.90625 
Q 18.015625 -0.734375 14.015625 -0.734375 
Q 9.8125 -0.734375 6.734375 2.21875 
Q 3.65625 5.171875 3.65625 9.71875 
z
M 22.265625 46.296875 
z
" id="Times-Roman-97"/>
      <path d="M 23.140625 44.875 
L 23.140625 43.5 
Q 21.296875 43.453125 20 42.984375 
Q 18.703125 42.53125 18.703125 41.0625 
Q 18.703125 40.140625 21.296875 35.84375 
Q 22.65625 33.59375 24.75 30.328125 
Q 27.640625 34.28125 29.046875 36.53125 
Q 31.453125 40.140625 31.453125 41.21875 
Q 31.453125 42.484375 30.421875 42.921875 
Q 29.390625 43.359375 27.546875 43.5 
L 27.546875 44.875 
L 43.265625 44.875 
L 43.265625 43.5 
Q 40.765625 43.3125 38.609375 42.15625 
Q 36.46875 41.015625 35.15625 39.109375 
L 26.8125 27.046875 
L 39.703125 7.515625 
Q 42.1875 3.71875 43.921875 2.59375 
Q 45.65625 1.46875 47.90625 1.375 
L 47.90625 0 
L 27.734375 0 
L 27.734375 1.375 
L 29.15625 1.46875 
Q 30.28125 1.5625 31.03125 2.140625 
Q 31.78125 2.734375 31.78125 3.609375 
Q 31.78125 4.546875 29.9375 7.71875 
Q 29.046875 9.28125 27.296875 11.96875 
Q 26.46875 13.28125 24.828125 15.625 
Q 23.1875 17.96875 22.078125 19.625 
L 14.203125 7.375 
Q 12.796875 5.171875 12.453125 4.4375 
Q 12.109375 3.71875 12.109375 3.21875 
Q 12.109375 2.296875 12.859375 2 
Q 13.625 1.703125 16.15625 1.375 
L 16.15625 0 
L 1.703125 0 
L 1.703125 1.375 
Q 4.34375 1.90625 5.609375 2.734375 
Q 6.890625 3.5625 8.984375 6.59375 
L 20.359375 23.140625 
L 10.984375 37.359375 
Q 8.15625 41.609375 7.078125 42.390625 
Q 6 43.171875 2.390625 43.5 
L 2.390625 44.875 
z
" id="Times-Roman-120"/>
      <path d="M 4.59375 25.09375 
Q 4.59375 42.09375 14.75 54.9375 
Q 21 62.796875 29.5 67.578125 
L 30.421875 65.96875 
Q 22.5625 59.71875 19.1875 53.8125 
Q 13.28125 43.5 13.28125 26.375 
Q 13.28125 13.671875 15.53125 5.421875 
Q 19.484375 -9.03125 30.421875 -16.21875 
L 29.15625 -17.828125 
Q 23.140625 -14.9375 16.15625 -6.546875 
Q 4.59375 7.375 4.59375 25.09375 
z
" id="Times-Roman-40"/>
      <path d="M 1.609375 1.8125 
Q 7.71875 2.25 9.515625 3.640625 
Q 11.328125 5.03125 11.328125 10.84375 
L 11.328125 55.328125 
Q 11.328125 60.84375 9.515625 62.421875 
Q 7.71875 64.015625 1.609375 64.3125 
L 1.609375 66.15625 
L 31.203125 66.15625 
L 31.203125 64.3125 
Q 25.09375 64.015625 23.28125 62.421875 
Q 21.484375 60.84375 21.484375 55.328125 
L 21.484375 10.84375 
Q 21.484375 5.03125 23.28125 3.640625 
Q 25.09375 2.25 31.203125 1.8125 
L 31.203125 0 
L 1.609375 0 
z
M 16.40625 66.15625 
z
" id="Times-Roman-73"/>
      <path d="M 28.46875 24.609375 
Q 28.46875 17.328125 26.5625 10.828125 
Q 24.65625 4.34375 21 -1.421875 
Q 17.140625 -7.5625 10.6875 -12.890625 
Q 6.453125 -16.40625 3.5625 -17.828125 
L 2.640625 -16.21875 
Q 10.15625 -10.5 13.625 -4.546875 
Q 19.78125 6 19.78125 23.34375 
Q 19.78125 37.359375 16.9375 46.234375 
Q 12.984375 58.796875 2.640625 65.96875 
L 3.90625 67.578125 
Q 11.625 63.28125 18.265625 54.59375 
Q 28.46875 41.21875 28.46875 24.609375 
z
" id="Times-Roman-41"/>
     </defs>
     <use xlink:href="#Times-Roman-77"/>
     <use x="88.916016" xlink:href="#Times-Roman-97"/>
     <use x="133.300781" xlink:href="#Times-Roman-120"/>
     <use x="183.300781" xlink:href="#Times-Roman-40"/>
     <use x="216.601562" xlink:href="#Times-Roman-73"/>
     <use x="249.902344" xlink:href="#Times-Roman-41"/>
    </g>
   </g>
  </g>
 </g>
 <defs>
  <clipPath id="p817e2c0ea4">
   <rect height="196.205669" width="349.416138" x="59.906697" y="39.297165"/>
  </clipPath>
 </defs>
</svg>
