<?xml version="1.0" encoding="utf-8" standalone="no"?>
<!DOCTYPE svg PUBLIC "-//W3C//DTD SVG 1.1//EN"
  "http://www.w3.org/Graphics/SVG/1.1/DTD/svg11.dtd">
<!-- Created with matplotlib (https://matplotlib.org/) -->
<svg height="288pt" version="1.1" viewBox="0 0 432 288" width="432pt" xmlns="http://www.w3.org/2000/svg" xmlns:xlink="http://www.w3.org/1999/xlink">
 <metadata>
  <rdf:RDF xmlns:cc="http://creativecommons.org/ns#" xmlns:dc="http://purl.org/dc/elements/1.1/" xmlns:rdf="http://www.w3.org/1999/02/22-rdf-syntax-ns#">
   <cc:Work>
    <dc:type rdf:resource="http://purl.org/dc/dcmitype/StillImage"/>
    <dc:date>2021-03-14T15:08:49.854530</dc:date>
    <dc:format>image/svg+xml</dc:format>
    <dc:creator>
     <cc:Agent>
      <dc:title>Matplotlib v3.3.4, https://matplotlib.org/</dc:title>
     </cc:Agent>
    </dc:creator>
   </cc:Work>
  </rdf:RDF>
 </metadata>
 <defs>
  <style type="text/css">*{stroke-linecap:butt;stroke-linejoin:round;}</style>
 </defs>
 <g id="figure_1">
  <g id="patch_1">
   <path d="M 0 288 
L 432 288 
L 432 0 
L 0 0 
z
" style="fill:#ffffff;"/>
  </g>
  <g id="axes_1">
   <g id="patch_2">
    <path d="M 59.906697 234.782835 
L 409.322835 234.782835 
L 409.322835 39.297165 
L 59.906697 39.297165 
z
" style="fill:#ffffff;"/>
   </g>
   <g id="matplotlib.axis_1">
    <g id="xtick_1">
     <g id="line2d_1">
      <path clip-path="url(#pafe676f35c)" d="M 130.377178 234.782835 
L 130.377178 39.297165 
" style="fill:none;stroke:#000000;stroke-linecap:square;stroke-opacity:0.1;stroke-width:0.5;"/>
     </g>
     <g id="line2d_2">
      <defs>
       <path d="M 0 0 
L 0 -2.5 
" id="m37036aa76d" style="stroke:#000000;stroke-width:0.5;"/>
      </defs>
      <g>
       <use style="stroke:#000000;stroke-width:0.5;" x="130.377178" xlink:href="#m37036aa76d" y="234.782835"/>
      </g>
     </g>
     <g id="text_1">
      <!-- $\mathregular{25}$ -->
      <g transform="translate(124.377178 246.510335)scale(0.12 -0.12)">
       <defs>
        <path d="M 2.984375 1.125 
Q 20.84375 19.671875 27.234375 28.359375 
Q 33.640625 37.0625 33.640625 45.3125 
Q 33.640625 52.546875 29.734375 56.328125 
Q 25.828125 60.109375 20.40625 60.109375 
Q 13.71875 60.109375 9.578125 55.21875 
Q 7.28125 52.546875 5.171875 46.96875 
L 3.078125 47.40625 
Q 5.515625 58.640625 11.34375 63.015625 
Q 17.1875 67.390625 23.875 67.390625 
Q 32.125 67.390625 37.21875 62.1875 
Q 42.328125 56.984375 42.328125 49.46875 
Q 42.328125 41.453125 36.8125 34.03125 
Q 31.296875 26.609375 12.84375 7.625 
L 35.25 7.625 
Q 39.9375 7.625 41.84375 8.734375 
Q 43.75 9.859375 46.140625 14.203125 
L 47.40625 13.625 
L 42 0 
L 2.984375 0 
z
" id="Times-Roman-50"/>
        <path d="M 7.46875 8.9375 
Q 10.25 8.9375 14.765625 5.78125 
Q 19.28125 2.640625 21.734375 2.640625 
Q 27.34375 2.640625 31.546875 7.59375 
Q 35.75 12.546875 35.75 19.78125 
Q 35.75 32.421875 22.265625 37.984375 
Q 14.796875 41.0625 8.34375 41.0625 
Q 7.28125 41.0625 7 41.140625 
Q 6.734375 41.21875 6.34375 41.65625 
Q 6.453125 42.046875 6.515625 42.3125 
Q 6.59375 42.578125 6.6875 42.828125 
L 17.328125 66.15625 
L 38.28125 66.15625 
Q 39.84375 66.15625 40.6875 66.6875 
Q 41.546875 67.234375 42.921875 68.703125 
L 43.703125 68.015625 
L 39.890625 58.984375 
Q 39.703125 58.546875 38.8125 58.421875 
Q 37.9375 58.296875 36.921875 58.296875 
L 18.015625 58.296875 
L 13.875 49.75 
Q 21.875 48.390625 25.59375 47.171875 
Q 31.6875 45.125 35.796875 41.109375 
Q 39.3125 37.640625 41.109375 33.3125 
Q 42.921875 29 42.921875 24.171875 
Q 42.921875 13.375 35.234375 6.140625 
Q 27.546875 -1.078125 15.765625 -1.078125 
Q 10.984375 -1.078125 8.0625 -0.140625 
Q 3.171875 1.375 3.171875 5.28125 
Q 3.171875 6.734375 4.21875 7.828125 
Q 5.28125 8.9375 7.46875 8.9375 
z
" id="Times-Roman-53"/>
       </defs>
       <use transform="translate(0 0.296875)" xlink:href="#Times-Roman-50"/>
       <use transform="translate(50 0.296875)" xlink:href="#Times-Roman-53"/>
      </g>
     </g>
    </g>
    <g id="xtick_2">
     <g id="line2d_3">
      <path clip-path="url(#pafe676f35c)" d="M 203.78393 234.782835 
L 203.78393 39.297165 
" style="fill:none;stroke:#000000;stroke-linecap:square;stroke-opacity:0.1;stroke-width:0.5;"/>
     </g>
     <g id="line2d_4">
      <g>
       <use style="stroke:#000000;stroke-width:0.5;" x="203.78393" xlink:href="#m37036aa76d" y="234.782835"/>
      </g>
     </g>
     <g id="text_2">
      <!-- $\mathregular{50}$ -->
      <g transform="translate(197.78393 246.510335)scale(0.12 -0.12)">
       <defs>
        <path d="M 23.921875 1.8125 
Q 31.109375 1.8125 33.78125 9.671875 
Q 36.46875 17.53125 36.46875 32.421875 
Q 36.46875 44.28125 34.859375 51.375 
Q 31.84375 64.546875 23.53125 64.546875 
Q 15.234375 64.546875 12.15625 50.984375 
Q 10.546875 43.75 10.546875 31.9375 
Q 10.546875 20.84375 12.203125 14.203125 
Q 15.328125 1.8125 23.921875 1.8125 
z
M 23.78125 67.1875 
Q 35.015625 67.1875 41.21875 55.421875 
Q 46.140625 45.90625 46.140625 33.546875 
Q 46.140625 23.828125 43.109375 15.234375 
Q 37.40625 -0.921875 23.34375 -0.921875 
Q 13.71875 -0.921875 7.515625 7.8125 
Q 0.875 17.140625 0.875 33.15625 
Q 0.875 45.75 5.328125 54.828125 
Q 11.328125 67.1875 23.78125 67.1875 
z
" id="Times-Roman-48"/>
       </defs>
       <use transform="translate(0 0.296875)" xlink:href="#Times-Roman-53"/>
       <use transform="translate(50 0.296875)" xlink:href="#Times-Roman-48"/>
      </g>
     </g>
    </g>
    <g id="xtick_3">
     <g id="line2d_5">
      <path clip-path="url(#pafe676f35c)" d="M 277.190682 234.782835 
L 277.190682 39.297165 
" style="fill:none;stroke:#000000;stroke-linecap:square;stroke-opacity:0.1;stroke-width:0.5;"/>
     </g>
     <g id="line2d_6">
      <g>
       <use style="stroke:#000000;stroke-width:0.5;" x="277.190682" xlink:href="#m37036aa76d" y="234.782835"/>
      </g>
     </g>
     <g id="text_3">
      <!-- $\mathregular{75}$ -->
      <g transform="translate(271.190682 246.510335)scale(0.12 -0.12)">
       <defs>
        <path d="M 44.875 66.15625 
L 44.875 64.546875 
L 23.6875 -0.921875 
L 17.234375 -0.921875 
L 37.015625 58.796875 
L 15.71875 58.796875 
Q 10.984375 58.796875 8.90625 57.234375 
Q 6.84375 55.671875 3.65625 50.6875 
L 1.953125 51.46875 
Q 5.125 59.28125 5.875 61.109375 
Q 6.640625 62.9375 7.859375 66.15625 
z
" id="Times-Roman-55"/>
       </defs>
       <use transform="translate(0 0.296875)" xlink:href="#Times-Roman-55"/>
       <use transform="translate(50 0.296875)" xlink:href="#Times-Roman-53"/>
      </g>
     </g>
    </g>
    <g id="xtick_4">
     <g id="line2d_7">
      <path clip-path="url(#pafe676f35c)" d="M 350.597433 234.782835 
L 350.597433 39.297165 
" style="fill:none;stroke:#000000;stroke-linecap:square;stroke-opacity:0.1;stroke-width:0.5;"/>
     </g>
     <g id="line2d_8">
      <g>
       <use style="stroke:#000000;stroke-width:0.5;" x="350.597433" xlink:href="#m37036aa76d" y="234.782835"/>
      </g>
     </g>
     <g id="text_4">
      <!-- $\mathregular{100}$ -->
      <g transform="translate(341.597433 246.510335)scale(0.12 -0.12)">
       <defs>
        <path d="M 29.59375 67.09375 
Q 29.78125 66.84375 29.796875 66.71875 
Q 29.828125 66.609375 29.828125 66.15625 
L 29.828125 7.375 
Q 29.828125 3.609375 31.828125 2.578125 
Q 33.84375 1.5625 39.3125 1.375 
L 39.3125 0 
L 11.765625 0 
L 11.765625 1.46875 
Q 17.671875 1.765625 19.484375 3.078125 
Q 21.296875 4.390625 21.296875 8.796875 
L 21.296875 54 
Q 21.296875 56.34375 20.703125 57.5625 
Q 20.125 58.796875 18.171875 58.796875 
Q 16.890625 58.796875 14.859375 58.078125 
Q 12.84375 57.375 11.078125 56.59375 
L 11.078125 57.953125 
L 29 67.09375 
L 29.59375 67.09375 
z
" id="Times-Roman-49"/>
       </defs>
       <use transform="translate(0 0.8125)" xlink:href="#Times-Roman-49"/>
       <use transform="translate(50 0.8125)" xlink:href="#Times-Roman-48"/>
       <use transform="translate(100 0.8125)" xlink:href="#Times-Roman-48"/>
      </g>
     </g>
    </g>
    <g id="text_5">
     <!-- Social Distancing Period [days] -->
     <g transform="translate(141.731953 262.24221)scale(0.12 -0.12)">
      <defs>
       <path d="M 53.515625 70.515625 
L 53.515625 60.890625 
Q 47.90625 63.578125 42.921875 64.890625 
Q 37.9375 66.21875 33.296875 66.21875 
Q 25.25 66.21875 20.875 63.09375 
Q 16.5 59.96875 16.5 54.203125 
Q 16.5 49.359375 19.40625 46.890625 
Q 22.3125 44.4375 30.421875 42.921875 
L 36.375 41.703125 
Q 47.40625 39.59375 52.65625 34.296875 
Q 57.90625 29 57.90625 20.125 
Q 57.90625 9.515625 50.796875 4.046875 
Q 43.703125 -1.421875 29.984375 -1.421875 
Q 24.8125 -1.421875 18.96875 -0.25 
Q 13.140625 0.921875 6.890625 3.21875 
L 6.890625 13.375 
Q 12.890625 10.015625 18.65625 8.296875 
Q 24.421875 6.59375 29.984375 6.59375 
Q 38.421875 6.59375 43.015625 9.90625 
Q 47.609375 13.234375 47.609375 19.390625 
Q 47.609375 24.75 44.3125 27.78125 
Q 41.015625 30.8125 33.5 32.328125 
L 27.484375 33.5 
Q 16.453125 35.6875 11.515625 40.375 
Q 6.59375 45.0625 6.59375 53.421875 
Q 6.59375 63.09375 13.40625 68.65625 
Q 20.21875 74.21875 32.171875 74.21875 
Q 37.3125 74.21875 42.625 73.28125 
Q 47.953125 72.359375 53.515625 70.515625 
z
" id="DejaVuSans-83"/>
       <path d="M 30.609375 48.390625 
Q 23.390625 48.390625 19.1875 42.75 
Q 14.984375 37.109375 14.984375 27.296875 
Q 14.984375 17.484375 19.15625 11.84375 
Q 23.34375 6.203125 30.609375 6.203125 
Q 37.796875 6.203125 41.984375 11.859375 
Q 46.1875 17.53125 46.1875 27.296875 
Q 46.1875 37.015625 41.984375 42.703125 
Q 37.796875 48.390625 30.609375 48.390625 
z
M 30.609375 56 
Q 42.328125 56 49.015625 48.375 
Q 55.71875 40.765625 55.71875 27.296875 
Q 55.71875 13.875 49.015625 6.21875 
Q 42.328125 -1.421875 30.609375 -1.421875 
Q 18.84375 -1.421875 12.171875 6.21875 
Q 5.515625 13.875 5.515625 27.296875 
Q 5.515625 40.765625 12.171875 48.375 
Q 18.84375 56 30.609375 56 
z
" id="DejaVuSans-111"/>
       <path d="M 48.78125 52.59375 
L 48.78125 44.1875 
Q 44.96875 46.296875 41.140625 47.34375 
Q 37.3125 48.390625 33.40625 48.390625 
Q 24.65625 48.390625 19.8125 42.84375 
Q 14.984375 37.3125 14.984375 27.296875 
Q 14.984375 17.28125 19.8125 11.734375 
Q 24.65625 6.203125 33.40625 6.203125 
Q 37.3125 6.203125 41.140625 7.25 
Q 44.96875 8.296875 48.78125 10.40625 
L 48.78125 2.09375 
Q 45.015625 0.34375 40.984375 -0.53125 
Q 36.96875 -1.421875 32.421875 -1.421875 
Q 20.0625 -1.421875 12.78125 6.34375 
Q 5.515625 14.109375 5.515625 27.296875 
Q 5.515625 40.671875 12.859375 48.328125 
Q 20.21875 56 33.015625 56 
Q 37.15625 56 41.109375 55.140625 
Q 45.0625 54.296875 48.78125 52.59375 
z
" id="DejaVuSans-99"/>
       <path d="M 9.421875 54.6875 
L 18.40625 54.6875 
L 18.40625 0 
L 9.421875 0 
z
M 9.421875 75.984375 
L 18.40625 75.984375 
L 18.40625 64.59375 
L 9.421875 64.59375 
z
" id="DejaVuSans-105"/>
       <path d="M 34.28125 27.484375 
Q 23.390625 27.484375 19.1875 25 
Q 14.984375 22.515625 14.984375 16.5 
Q 14.984375 11.71875 18.140625 8.90625 
Q 21.296875 6.109375 26.703125 6.109375 
Q 34.1875 6.109375 38.703125 11.40625 
Q 43.21875 16.703125 43.21875 25.484375 
L 43.21875 27.484375 
z
M 52.203125 31.203125 
L 52.203125 0 
L 43.21875 0 
L 43.21875 8.296875 
Q 40.140625 3.328125 35.546875 0.953125 
Q 30.953125 -1.421875 24.3125 -1.421875 
Q 15.921875 -1.421875 10.953125 3.296875 
Q 6 8.015625 6 15.921875 
Q 6 25.140625 12.171875 29.828125 
Q 18.359375 34.515625 30.609375 34.515625 
L 43.21875 34.515625 
L 43.21875 35.40625 
Q 43.21875 41.609375 39.140625 45 
Q 35.0625 48.390625 27.6875 48.390625 
Q 23 48.390625 18.546875 47.265625 
Q 14.109375 46.140625 10.015625 43.890625 
L 10.015625 52.203125 
Q 14.9375 54.109375 19.578125 55.046875 
Q 24.21875 56 28.609375 56 
Q 40.484375 56 46.34375 49.84375 
Q 52.203125 43.703125 52.203125 31.203125 
z
" id="DejaVuSans-97"/>
       <path d="M 9.421875 75.984375 
L 18.40625 75.984375 
L 18.40625 0 
L 9.421875 0 
z
" id="DejaVuSans-108"/>
       <path id="DejaVuSans-32"/>
       <path d="M 19.671875 64.796875 
L 19.671875 8.109375 
L 31.59375 8.109375 
Q 46.6875 8.109375 53.6875 14.9375 
Q 60.6875 21.78125 60.6875 36.53125 
Q 60.6875 51.171875 53.6875 57.984375 
Q 46.6875 64.796875 31.59375 64.796875 
z
M 9.8125 72.90625 
L 30.078125 72.90625 
Q 51.265625 72.90625 61.171875 64.09375 
Q 71.09375 55.28125 71.09375 36.53125 
Q 71.09375 17.671875 61.125 8.828125 
Q 51.171875 0 30.078125 0 
L 9.8125 0 
z
" id="DejaVuSans-68"/>
       <path d="M 44.28125 53.078125 
L 44.28125 44.578125 
Q 40.484375 46.53125 36.375 47.5 
Q 32.28125 48.484375 27.875 48.484375 
Q 21.1875 48.484375 17.84375 46.4375 
Q 14.5 44.390625 14.5 40.28125 
Q 14.5 37.15625 16.890625 35.375 
Q 19.28125 33.59375 26.515625 31.984375 
L 29.59375 31.296875 
Q 39.15625 29.25 43.1875 25.515625 
Q 47.21875 21.78125 47.21875 15.09375 
Q 47.21875 7.46875 41.1875 3.015625 
Q 35.15625 -1.421875 24.609375 -1.421875 
Q 20.21875 -1.421875 15.453125 -0.5625 
Q 10.6875 0.296875 5.421875 2 
L 5.421875 11.28125 
Q 10.40625 8.6875 15.234375 7.390625 
Q 20.0625 6.109375 24.8125 6.109375 
Q 31.15625 6.109375 34.5625 8.28125 
Q 37.984375 10.453125 37.984375 14.40625 
Q 37.984375 18.0625 35.515625 20.015625 
Q 33.0625 21.96875 24.703125 23.78125 
L 21.578125 24.515625 
Q 13.234375 26.265625 9.515625 29.90625 
Q 5.8125 33.546875 5.8125 39.890625 
Q 5.8125 47.609375 11.28125 51.796875 
Q 16.75 56 26.8125 56 
Q 31.78125 56 36.171875 55.265625 
Q 40.578125 54.546875 44.28125 53.078125 
z
" id="DejaVuSans-115"/>
       <path d="M 18.3125 70.21875 
L 18.3125 54.6875 
L 36.8125 54.6875 
L 36.8125 47.703125 
L 18.3125 47.703125 
L 18.3125 18.015625 
Q 18.3125 11.328125 20.140625 9.421875 
Q 21.96875 7.515625 27.59375 7.515625 
L 36.8125 7.515625 
L 36.8125 0 
L 27.59375 0 
Q 17.1875 0 13.234375 3.875 
Q 9.28125 7.765625 9.28125 18.015625 
L 9.28125 47.703125 
L 2.6875 47.703125 
L 2.6875 54.6875 
L 9.28125 54.6875 
L 9.28125 70.21875 
z
" id="DejaVuSans-116"/>
       <path d="M 54.890625 33.015625 
L 54.890625 0 
L 45.90625 0 
L 45.90625 32.71875 
Q 45.90625 40.484375 42.875 44.328125 
Q 39.84375 48.1875 33.796875 48.1875 
Q 26.515625 48.1875 22.3125 43.546875 
Q 18.109375 38.921875 18.109375 30.90625 
L 18.109375 0 
L 9.078125 0 
L 9.078125 54.6875 
L 18.109375 54.6875 
L 18.109375 46.1875 
Q 21.34375 51.125 25.703125 53.5625 
Q 30.078125 56 35.796875 56 
Q 45.21875 56 50.046875 50.171875 
Q 54.890625 44.34375 54.890625 33.015625 
z
" id="DejaVuSans-110"/>
       <path d="M 45.40625 27.984375 
Q 45.40625 37.75 41.375 43.109375 
Q 37.359375 48.484375 30.078125 48.484375 
Q 22.859375 48.484375 18.828125 43.109375 
Q 14.796875 37.75 14.796875 27.984375 
Q 14.796875 18.265625 18.828125 12.890625 
Q 22.859375 7.515625 30.078125 7.515625 
Q 37.359375 7.515625 41.375 12.890625 
Q 45.40625 18.265625 45.40625 27.984375 
z
M 54.390625 6.78125 
Q 54.390625 -7.171875 48.1875 -13.984375 
Q 42 -20.796875 29.203125 -20.796875 
Q 24.46875 -20.796875 20.265625 -20.09375 
Q 16.0625 -19.390625 12.109375 -17.921875 
L 12.109375 -9.1875 
Q 16.0625 -11.328125 19.921875 -12.34375 
Q 23.78125 -13.375 27.78125 -13.375 
Q 36.625 -13.375 41.015625 -8.765625 
Q 45.40625 -4.15625 45.40625 5.171875 
L 45.40625 9.625 
Q 42.625 4.78125 38.28125 2.390625 
Q 33.9375 0 27.875 0 
Q 17.828125 0 11.671875 7.65625 
Q 5.515625 15.328125 5.515625 27.984375 
Q 5.515625 40.671875 11.671875 48.328125 
Q 17.828125 56 27.875 56 
Q 33.9375 56 38.28125 53.609375 
Q 42.625 51.21875 45.40625 46.390625 
L 45.40625 54.6875 
L 54.390625 54.6875 
z
" id="DejaVuSans-103"/>
       <path d="M 19.671875 64.796875 
L 19.671875 37.40625 
L 32.078125 37.40625 
Q 38.96875 37.40625 42.71875 40.96875 
Q 46.484375 44.53125 46.484375 51.125 
Q 46.484375 57.671875 42.71875 61.234375 
Q 38.96875 64.796875 32.078125 64.796875 
z
M 9.8125 72.90625 
L 32.078125 72.90625 
Q 44.34375 72.90625 50.609375 67.359375 
Q 56.890625 61.8125 56.890625 51.125 
Q 56.890625 40.328125 50.609375 34.8125 
Q 44.34375 29.296875 32.078125 29.296875 
L 19.671875 29.296875 
L 19.671875 0 
L 9.8125 0 
z
" id="DejaVuSans-80"/>
       <path d="M 56.203125 29.59375 
L 56.203125 25.203125 
L 14.890625 25.203125 
Q 15.484375 15.921875 20.484375 11.0625 
Q 25.484375 6.203125 34.421875 6.203125 
Q 39.59375 6.203125 44.453125 7.46875 
Q 49.3125 8.734375 54.109375 11.28125 
L 54.109375 2.78125 
Q 49.265625 0.734375 44.1875 -0.34375 
Q 39.109375 -1.421875 33.890625 -1.421875 
Q 20.796875 -1.421875 13.15625 6.1875 
Q 5.515625 13.8125 5.515625 26.8125 
Q 5.515625 40.234375 12.765625 48.109375 
Q 20.015625 56 32.328125 56 
Q 43.359375 56 49.78125 48.890625 
Q 56.203125 41.796875 56.203125 29.59375 
z
M 47.21875 32.234375 
Q 47.125 39.59375 43.09375 43.984375 
Q 39.0625 48.390625 32.421875 48.390625 
Q 24.90625 48.390625 20.390625 44.140625 
Q 15.875 39.890625 15.1875 32.171875 
z
" id="DejaVuSans-101"/>
       <path d="M 41.109375 46.296875 
Q 39.59375 47.171875 37.8125 47.578125 
Q 36.03125 48 33.890625 48 
Q 26.265625 48 22.1875 43.046875 
Q 18.109375 38.09375 18.109375 28.8125 
L 18.109375 0 
L 9.078125 0 
L 9.078125 54.6875 
L 18.109375 54.6875 
L 18.109375 46.1875 
Q 20.953125 51.171875 25.484375 53.578125 
Q 30.03125 56 36.53125 56 
Q 37.453125 56 38.578125 55.875 
Q 39.703125 55.765625 41.0625 55.515625 
z
" id="DejaVuSans-114"/>
       <path d="M 45.40625 46.390625 
L 45.40625 75.984375 
L 54.390625 75.984375 
L 54.390625 0 
L 45.40625 0 
L 45.40625 8.203125 
Q 42.578125 3.328125 38.25 0.953125 
Q 33.9375 -1.421875 27.875 -1.421875 
Q 17.96875 -1.421875 11.734375 6.484375 
Q 5.515625 14.40625 5.515625 27.296875 
Q 5.515625 40.1875 11.734375 48.09375 
Q 17.96875 56 27.875 56 
Q 33.9375 56 38.25 53.625 
Q 42.578125 51.265625 45.40625 46.390625 
z
M 14.796875 27.296875 
Q 14.796875 17.390625 18.875 11.75 
Q 22.953125 6.109375 30.078125 6.109375 
Q 37.203125 6.109375 41.296875 11.75 
Q 45.40625 17.390625 45.40625 27.296875 
Q 45.40625 37.203125 41.296875 42.84375 
Q 37.203125 48.484375 30.078125 48.484375 
Q 22.953125 48.484375 18.875 42.84375 
Q 14.796875 37.203125 14.796875 27.296875 
z
" id="DejaVuSans-100"/>
       <path d="M 8.59375 75.984375 
L 29.296875 75.984375 
L 29.296875 69 
L 17.578125 69 
L 17.578125 -6.203125 
L 29.296875 -6.203125 
L 29.296875 -13.1875 
L 8.59375 -13.1875 
z
" id="DejaVuSans-91"/>
       <path d="M 32.171875 -5.078125 
Q 28.375 -14.84375 24.75 -17.8125 
Q 21.140625 -20.796875 15.09375 -20.796875 
L 7.90625 -20.796875 
L 7.90625 -13.28125 
L 13.1875 -13.28125 
Q 16.890625 -13.28125 18.9375 -11.515625 
Q 21 -9.765625 23.484375 -3.21875 
L 25.09375 0.875 
L 2.984375 54.6875 
L 12.5 54.6875 
L 29.59375 11.921875 
L 46.6875 54.6875 
L 56.203125 54.6875 
z
" id="DejaVuSans-121"/>
       <path d="M 30.421875 75.984375 
L 30.421875 -13.1875 
L 9.71875 -13.1875 
L 9.71875 -6.203125 
L 21.390625 -6.203125 
L 21.390625 69 
L 9.71875 69 
L 9.71875 75.984375 
z
" id="DejaVuSans-93"/>
      </defs>
      <use xlink:href="#DejaVuSans-83"/>
      <use x="63.476562" xlink:href="#DejaVuSans-111"/>
      <use x="124.658203" xlink:href="#DejaVuSans-99"/>
      <use x="179.638672" xlink:href="#DejaVuSans-105"/>
      <use x="207.421875" xlink:href="#DejaVuSans-97"/>
      <use x="268.701172" xlink:href="#DejaVuSans-108"/>
      <use x="296.484375" xlink:href="#DejaVuSans-32"/>
      <use x="328.271484" xlink:href="#DejaVuSans-68"/>
      <use x="405.273438" xlink:href="#DejaVuSans-105"/>
      <use x="433.056641" xlink:href="#DejaVuSans-115"/>
      <use x="485.15625" xlink:href="#DejaVuSans-116"/>
      <use x="524.365234" xlink:href="#DejaVuSans-97"/>
      <use x="585.644531" xlink:href="#DejaVuSans-110"/>
      <use x="649.023438" xlink:href="#DejaVuSans-99"/>
      <use x="704.003906" xlink:href="#DejaVuSans-105"/>
      <use x="731.787109" xlink:href="#DejaVuSans-110"/>
      <use x="795.166016" xlink:href="#DejaVuSans-103"/>
      <use x="858.642578" xlink:href="#DejaVuSans-32"/>
      <use x="890.429688" xlink:href="#DejaVuSans-80"/>
      <use x="947.107422" xlink:href="#DejaVuSans-101"/>
      <use x="1008.630859" xlink:href="#DejaVuSans-114"/>
      <use x="1049.744141" xlink:href="#DejaVuSans-105"/>
      <use x="1077.527344" xlink:href="#DejaVuSans-111"/>
      <use x="1138.708984" xlink:href="#DejaVuSans-100"/>
      <use x="1202.185547" xlink:href="#DejaVuSans-32"/>
      <use x="1233.972656" xlink:href="#DejaVuSans-91"/>
      <use x="1272.986328" xlink:href="#DejaVuSans-100"/>
      <use x="1336.462891" xlink:href="#DejaVuSans-97"/>
      <use x="1397.742188" xlink:href="#DejaVuSans-121"/>
      <use x="1456.921875" xlink:href="#DejaVuSans-115"/>
      <use x="1509.021484" xlink:href="#DejaVuSans-93"/>
     </g>
    </g>
   </g>
   <g id="matplotlib.axis_2">
    <g id="ytick_1">
     <g id="line2d_9">
      <path clip-path="url(#pafe676f35c)" d="M 59.906697 234.782835 
L 409.322835 234.782835 
" style="fill:none;stroke:#000000;stroke-linecap:square;stroke-opacity:0.1;stroke-width:0.5;"/>
     </g>
     <g id="line2d_10">
      <defs>
       <path d="M 0 0 
L 2.5 0 
" id="m195039e65a" style="stroke:#000000;stroke-width:0.5;"/>
      </defs>
      <g>
       <use style="stroke:#000000;stroke-width:0.5;" x="59.906697" xlink:href="#m195039e65a" y="234.782835"/>
      </g>
     </g>
     <g id="text_6">
      <!-- $\mathregular{0}$ -->
      <g transform="translate(50.406697 238.896585)scale(0.12 -0.12)">
       <use transform="translate(0 0.8125)" xlink:href="#Times-Roman-48"/>
      </g>
     </g>
    </g>
    <g id="ytick_2">
     <g id="line2d_11">
      <path clip-path="url(#pafe676f35c)" d="M 59.906697 195.685701 
L 409.322835 195.685701 
" style="fill:none;stroke:#000000;stroke-linecap:square;stroke-opacity:0.1;stroke-width:0.5;"/>
     </g>
     <g id="line2d_12">
      <g>
       <use style="stroke:#000000;stroke-width:0.5;" x="59.906697" xlink:href="#m195039e65a" y="195.685701"/>
      </g>
     </g>
     <g id="text_7">
      <!-- $\mathregular{20}$ -->
      <g transform="translate(44.406697 199.799451)scale(0.12 -0.12)">
       <use transform="translate(0 0.609375)" xlink:href="#Times-Roman-50"/>
       <use transform="translate(50 0.609375)" xlink:href="#Times-Roman-48"/>
      </g>
     </g>
    </g>
    <g id="ytick_3">
     <g id="line2d_13">
      <path clip-path="url(#pafe676f35c)" d="M 59.906697 156.588567 
L 409.322835 156.588567 
" style="fill:none;stroke:#000000;stroke-linecap:square;stroke-opacity:0.1;stroke-width:0.5;"/>
     </g>
     <g id="line2d_14">
      <g>
       <use style="stroke:#000000;stroke-width:0.5;" x="59.906697" xlink:href="#m195039e65a" y="156.588567"/>
      </g>
     </g>
     <g id="text_8">
      <!-- $\mathregular{40}$ -->
      <g transform="translate(44.406697 160.702317)scale(0.12 -0.12)">
       <defs>
        <path d="M 29.15625 57.03125 
L 5.171875 23.140625 
L 29.15625 23.140625 
z
M 32.375 67.09375 
L 37.015625 67.09375 
L 37.015625 23.140625 
L 47.21875 23.140625 
L 47.21875 16.65625 
L 37.015625 16.65625 
L 37.015625 0 
L 29.25 0 
L 29.25 16.65625 
L 1.125 16.65625 
L 1.125 23.140625 
z
" id="Times-Roman-52"/>
       </defs>
       <use transform="translate(0 0.8125)" xlink:href="#Times-Roman-52"/>
       <use transform="translate(50 0.8125)" xlink:href="#Times-Roman-48"/>
      </g>
     </g>
    </g>
    <g id="ytick_4">
     <g id="line2d_15">
      <path clip-path="url(#pafe676f35c)" d="M 59.906697 117.491433 
L 409.322835 117.491433 
" style="fill:none;stroke:#000000;stroke-linecap:square;stroke-opacity:0.1;stroke-width:0.5;"/>
     </g>
     <g id="line2d_16">
      <g>
       <use style="stroke:#000000;stroke-width:0.5;" x="59.906697" xlink:href="#m195039e65a" y="117.491433"/>
      </g>
     </g>
     <g id="text_9">
      <!-- $\mathregular{60}$ -->
      <g transform="translate(44.406697 121.605183)scale(0.12 -0.12)">
       <defs>
        <path d="M 46.78125 22.21875 
Q 46.78125 13.28125 41.03125 6.09375 
Q 35.296875 -1.078125 26.125 -1.078125 
Q 17.53125 -1.078125 10.46875 6.984375 
Q 3.421875 15.046875 3.421875 28.421875 
Q 3.421875 45.65625 17.09375 58.015625 
Q 29.296875 68.359375 44.53125 68.359375 
L 44.78125 66.75 
Q 38.671875 65.625 34.25 63.6875 
Q 29.828125 61.765625 26.375 58.296875 
Q 22.796875 54.78125 19.671875 49.359375 
Q 16.546875 43.953125 15.375 38.625 
Q 18.40625 40.484375 20.609375 41.359375 
Q 24.515625 42.921875 28.46875 42.921875 
Q 36.234375 42.921875 41.5 37.546875 
Q 46.78125 32.171875 46.78125 22.21875 
z
M 37.84375 18.453125 
Q 37.84375 24.953125 35.796875 29.984375 
Q 32.375 38.375 24.171875 38.375 
Q 16.609375 38.375 14.109375 33.890625 
Q 12.640625 31.25 12.640625 25.09375 
Q 12.640625 17.140625 16.03125 9.515625 
Q 19.4375 1.90625 26.765625 1.90625 
Q 32.5625 1.90625 35.203125 6.859375 
Q 37.84375 11.8125 37.84375 18.453125 
z
" id="Times-Roman-54"/>
       </defs>
       <use transform="translate(0 0.640625)" xlink:href="#Times-Roman-54"/>
       <use transform="translate(50 0.640625)" xlink:href="#Times-Roman-48"/>
      </g>
     </g>
    </g>
    <g id="ytick_5">
     <g id="line2d_17">
      <path clip-path="url(#pafe676f35c)" d="M 59.906697 78.394299 
L 409.322835 78.394299 
" style="fill:none;stroke:#000000;stroke-linecap:square;stroke-opacity:0.1;stroke-width:0.5;"/>
     </g>
     <g id="line2d_18">
      <g>
       <use style="stroke:#000000;stroke-width:0.5;" x="59.906697" xlink:href="#m195039e65a" y="78.394299"/>
      </g>
     </g>
     <g id="text_10">
      <!-- $\mathregular{80}$ -->
      <g transform="translate(44.406697 82.508049)scale(0.12 -0.12)">
       <defs>
        <path d="M 25.140625 1.65625 
Q 30.765625 1.65625 33.640625 4.78125 
Q 36.53125 7.90625 36.53125 12.59375 
Q 36.53125 17.921875 33.46875 21.21875 
Q 30.421875 24.515625 20.953125 31.203125 
Q 16.75 28.5625 14.84375 24.359375 
Q 12.9375 20.171875 12.9375 16.265625 
Q 12.9375 9.578125 16.375 5.609375 
Q 19.828125 1.65625 25.140625 1.65625 
z
M 25.78125 38.96875 
Q 30.375 42.1875 32.125 44.390625 
Q 35.15625 48.140625 35.15625 53.46875 
Q 35.15625 58.109375 32.296875 61.34375 
Q 29.4375 64.59375 23.640625 64.59375 
Q 19.140625 64.59375 16.203125 61.765625 
Q 13.28125 58.9375 13.28125 54.890625 
Q 13.28125 50.296875 16.71875 46.359375 
Q 20.171875 42.4375 25.78125 38.96875 
z
M 18.265625 33.296875 
Q 11.8125 38.484375 9.46875 41.546875 
Q 5.859375 46.234375 5.859375 51.90625 
Q 5.859375 58.34375 11.203125 62.828125 
Q 16.546875 67.328125 25.09375 67.328125 
Q 32.953125 67.328125 37.59375 63.078125 
Q 42.234375 58.84375 42.234375 53.21875 
Q 42.234375 47.515625 37.5 42.96875 
Q 34.765625 40.375 28.65625 37.015625 
Q 36.96875 30.859375 40.546875 26.296875 
Q 44.140625 21.734375 44.140625 15.53125 
Q 44.140625 8.5 38.84375 3.703125 
Q 33.546875 -1.078125 24.65625 -1.078125 
Q 16.703125 -1.078125 11.015625 3.34375 
Q 5.328125 7.765625 5.328125 14.984375 
Q 5.328125 21.1875 9.28125 25.921875 
Q 11.859375 29 18.265625 33.296875 
z
" id="Times-Roman-56"/>
       </defs>
       <use transform="translate(0 0.671875)" xlink:href="#Times-Roman-56"/>
       <use transform="translate(50 0.671875)" xlink:href="#Times-Roman-48"/>
      </g>
     </g>
    </g>
    <g id="ytick_6">
     <g id="line2d_19">
      <path clip-path="url(#pafe676f35c)" d="M 59.906697 39.297165 
L 409.322835 39.297165 
" style="fill:none;stroke:#000000;stroke-linecap:square;stroke-opacity:0.1;stroke-width:0.5;"/>
     </g>
     <g id="line2d_20">
      <g>
       <use style="stroke:#000000;stroke-width:0.5;" x="59.906697" xlink:href="#m195039e65a" y="39.297165"/>
      </g>
     </g>
     <g id="text_11">
      <!-- $\mathregular{100}$ -->
      <g transform="translate(38.406697 43.410915)scale(0.12 -0.12)">
       <use transform="translate(0 0.8125)" xlink:href="#Times-Roman-49"/>
       <use transform="translate(50 0.8125)" xlink:href="#Times-Roman-48"/>
       <use transform="translate(100 0.8125)" xlink:href="#Times-Roman-48"/>
      </g>
     </g>
    </g>
    <g id="text_12">
     <!-- Social Distancing Rate [%] -->
     <g transform="translate(31.911072 216.51)rotate(-90)scale(0.12 -0.12)">
      <defs>
       <path d="M 44.390625 34.1875 
Q 47.5625 33.109375 50.5625 29.59375 
Q 53.5625 26.078125 56.59375 19.921875 
L 66.609375 0 
L 56 0 
L 46.6875 18.703125 
Q 43.0625 26.03125 39.671875 28.421875 
Q 36.28125 30.8125 30.421875 30.8125 
L 19.671875 30.8125 
L 19.671875 0 
L 9.8125 0 
L 9.8125 72.90625 
L 32.078125 72.90625 
Q 44.578125 72.90625 50.734375 67.671875 
Q 56.890625 62.453125 56.890625 51.90625 
Q 56.890625 45.015625 53.6875 40.46875 
Q 50.484375 35.9375 44.390625 34.1875 
z
M 19.671875 64.796875 
L 19.671875 38.921875 
L 32.078125 38.921875 
Q 39.203125 38.921875 42.84375 42.21875 
Q 46.484375 45.515625 46.484375 51.90625 
Q 46.484375 58.296875 42.84375 61.546875 
Q 39.203125 64.796875 32.078125 64.796875 
z
" id="DejaVuSans-82"/>
       <path d="M 72.703125 32.078125 
Q 68.453125 32.078125 66.03125 28.46875 
Q 63.625 24.859375 63.625 18.40625 
Q 63.625 12.0625 66.03125 8.421875 
Q 68.453125 4.78125 72.703125 4.78125 
Q 76.859375 4.78125 79.265625 8.421875 
Q 81.6875 12.0625 81.6875 18.40625 
Q 81.6875 24.8125 79.265625 28.4375 
Q 76.859375 32.078125 72.703125 32.078125 
z
M 72.703125 38.28125 
Q 80.421875 38.28125 84.953125 32.90625 
Q 89.5 27.546875 89.5 18.40625 
Q 89.5 9.28125 84.9375 3.921875 
Q 80.375 -1.421875 72.703125 -1.421875 
Q 64.890625 -1.421875 60.34375 3.921875 
Q 55.8125 9.28125 55.8125 18.40625 
Q 55.8125 27.59375 60.375 32.9375 
Q 64.9375 38.28125 72.703125 38.28125 
z
M 22.3125 68.015625 
Q 18.109375 68.015625 15.6875 64.375 
Q 13.28125 60.75 13.28125 54.390625 
Q 13.28125 47.953125 15.671875 44.328125 
Q 18.0625 40.71875 22.3125 40.71875 
Q 26.5625 40.71875 28.96875 44.328125 
Q 31.390625 47.953125 31.390625 54.390625 
Q 31.390625 60.6875 28.953125 64.34375 
Q 26.515625 68.015625 22.3125 68.015625 
z
M 66.40625 74.21875 
L 74.21875 74.21875 
L 28.609375 -1.421875 
L 20.796875 -1.421875 
z
M 22.3125 74.21875 
Q 30.03125 74.21875 34.609375 68.875 
Q 39.203125 63.53125 39.203125 54.390625 
Q 39.203125 45.171875 34.640625 39.84375 
Q 30.078125 34.515625 22.3125 34.515625 
Q 14.546875 34.515625 10.03125 39.859375 
Q 5.515625 45.21875 5.515625 54.390625 
Q 5.515625 63.484375 10.046875 68.84375 
Q 14.59375 74.21875 22.3125 74.21875 
z
" id="DejaVuSans-37"/>
      </defs>
      <use xlink:href="#DejaVuSans-83"/>
      <use x="63.476562" xlink:href="#DejaVuSans-111"/>
      <use x="124.658203" xlink:href="#DejaVuSans-99"/>
      <use x="179.638672" xlink:href="#DejaVuSans-105"/>
      <use x="207.421875" xlink:href="#DejaVuSans-97"/>
      <use x="268.701172" xlink:href="#DejaVuSans-108"/>
      <use x="296.484375" xlink:href="#DejaVuSans-32"/>
      <use x="328.271484" xlink:href="#DejaVuSans-68"/>
      <use x="405.273438" xlink:href="#DejaVuSans-105"/>
      <use x="433.056641" xlink:href="#DejaVuSans-115"/>
      <use x="485.15625" xlink:href="#DejaVuSans-116"/>
      <use x="524.365234" xlink:href="#DejaVuSans-97"/>
      <use x="585.644531" xlink:href="#DejaVuSans-110"/>
      <use x="649.023438" xlink:href="#DejaVuSans-99"/>
      <use x="704.003906" xlink:href="#DejaVuSans-105"/>
      <use x="731.787109" xlink:href="#DejaVuSans-110"/>
      <use x="795.166016" xlink:href="#DejaVuSans-103"/>
      <use x="858.642578" xlink:href="#DejaVuSans-32"/>
      <use x="890.429688" xlink:href="#DejaVuSans-82"/>
      <use x="957.662109" xlink:href="#DejaVuSans-97"/>
      <use x="1018.941406" xlink:href="#DejaVuSans-116"/>
      <use x="1058.150391" xlink:href="#DejaVuSans-101"/>
      <use x="1119.673828" xlink:href="#DejaVuSans-32"/>
      <use x="1151.460938" xlink:href="#DejaVuSans-91"/>
      <use x="1190.474609" xlink:href="#DejaVuSans-37"/>
      <use x="1285.494141" xlink:href="#DejaVuSans-93"/>
     </g>
    </g>
   </g>
   <g id="LineCollection_1"/>
   <g id="LineCollection_2">
    <path clip-path="url(#pafe676f35c)" d="M 409.322835 40.667504 
L 406.386565 40.697677 
L 403.450295 40.729731 
L 400.514024 40.763949 
L 397.577754 40.800645 
L 394.641484 40.839317 
L 391.705214 40.880703 
L 388.768944 40.924753 
L 385.832674 40.971726 
L 382.896404 41.021402 
L 379.960134 41.074705 
L 377.023864 41.130528 
L 374.087594 41.190348 
L 371.234314 41.252022 
L 371.151324 41.253778 
L 368.570657 41.310046 
" style="fill:none;stroke:#000000;"/>
    <path clip-path="url(#pafe676f35c)" d="M 338.503191 42.241418 
L 335.916083 42.352047 
L 332.979813 42.485611 
L 330.043543 42.626856 
L 327.107273 42.777735 
L 324.171003 42.938737 
L 321.234733 43.108818 
L 319.617933 43.206879 
L 318.298463 43.286912 
L 315.362192 43.471555 
L 312.425922 43.668613 
L 309.489652 43.879002 
L 306.553382 44.102605 
L 303.617112 44.340234 
L 300.680842 44.594633 
L 297.744572 44.865956 
L 294.808302 45.155946 
L 294.75033 45.161735 
L 291.872032 45.451665 
L 288.935762 45.768334 
L 285.999492 46.104536 
L 283.063222 46.46498 
L 280.126952 46.850772 
L 278.204826 47.116592 
L 277.190682 47.25849 
L 274.254412 47.679248 
L 271.318141 48.077272 
L 270.70706 47.116592 
L 268.725227 45.161735 
L 268.381871 44.980622 
L 265.445601 43.336509 
L 265.129307 43.206879 
L 262.509331 42.353206 
L 259.573061 41.732503 
L 256.636791 41.38238 
L 253.800811 41.252022 
L 253.700521 41.247941 
L 253.187117 41.252022 
L 250.764251 41.270942 
L 247.827981 41.319444 
L 244.891711 41.375264 
L 241.955441 41.438666 
L 239.019171 41.509947 
L 236.082901 41.590841 
L 233.146631 41.682272 
L 230.210361 41.78498 
L 227.27409 41.900746 
L 224.33782 42.030406 
L 221.40155 42.176307 
L 218.46528 42.340453 
L 215.52901 42.525468 
L 212.59274 42.731598 
L 209.65647 42.964144 
L 206.918273 43.206879 
L 206.7202 43.224349 
L 203.78393 43.496428 
L 200.84766 43.802122 
L 197.91139 44.146067 
L 194.97512 44.185354 
L 193.651257 43.206879 
L 192.03885 42.399316 
L 189.10258 41.722968 
L 186.16631 41.63081 
L 183.230039 41.732081 
L 180.293769 41.863239 
L 177.357499 42.017072 
L 174.421229 42.196859 
L 171.484959 42.406966 
L 168.548689 42.654744 
L 165.612419 42.945367 
L 163.32326 43.206879 
L 162.676149 43.281632 
L 159.739879 43.654161 
L 158.984568 43.206879 
L 156.803609 42.174486 
L 153.867339 41.838672 
L 150.931069 41.99956 
L 147.994799 42.225099 
L 145.058529 42.499163 
L 142.122258 42.83618 
L 139.459039 43.206879 
L 139.185988 43.246012 
L 139.088227 43.206879 
L 136.249718 42.165415 
L 133.313448 42.04453 
L 130.377178 42.334624 
L 127.440908 42.704391 
L 124.504638 43.17738 
L 121.568368 42.088893 
L 118.632098 42.390265 
L 115.695828 42.852317 
L 112.759558 42.199491 
L 109.823288 42.584567 
L 106.887018 42.856253 
L 103.950748 42.413913 
L 101.014478 42.525968 
L 98.078207 42.609645 
L 95.141937 42.477892 
L 92.205667 42.518468 
L 89.269397 42.524958 
L 86.333127 42.584834 
L 83.396857 43.055 
L 80.460587 42.995232 
L 77.524317 42.975591 
L 76.33547 43.206879 
L 74.588047 43.497495 
L 71.651777 43.341276 
L 68.715507 43.864342 
L 65.779237 44.067275 
L 63.884899 45.161735 
L 62.842967 45.73298 
L 61.208352 47.116592 
L 59.906697 48.230215 
" style="fill:none;stroke:#000000;"/>
   </g>
   <g id="LineCollection_3">
    <path clip-path="url(#pafe676f35c)" d="M 409.322835 44.852119 
L 391.705214 45.651302 
L 377.023864 46.571485 
L 365.278784 47.519375 
L 353.533703 48.695901 
L 341.788623 50.144469 
L 332.979813 51.455012 
L 324.171003 52.985548 
L 318.298463 54.122056 
L 309.489652 56.07179 
L 300.680842 58.327179 
L 292.27711 60.800589 
L 285.999492 62.865454 
L 280.126952 64.983519 
L 274.254412 67.295202 
L 266.738877 70.574872 
L 262.509331 72.589632 
L 262.028466 72.529729 
L 261.052448 70.574872 
L 261.122135 68.620016 
L 262.178741 64.710302 
L 262.522173 62.755446 
L 262.696957 60.800589 
L 262.66905 58.845732 
L 262.376876 56.890876 
L 261.712829 54.936019 
L 260.54731 52.981162 
L 259.573061 51.905973 
L 258.554351 51.026306 
L 256.636791 49.847364 
L 253.700521 48.697533 
L 250.764251 48.061219 
L 247.827981 47.741354 
L 244.891711 47.667945 
L 239.019171 48.001062 
L 230.210361 48.88812 
L 221.40155 50.100132 
L 215.52901 51.157 
L 209.65647 52.416094 
L 203.78393 53.938448 
L 197.91139 55.761168 
L 192.03885 57.926293 
L 189.783253 56.890876 
L 189.10258 55.535505 
L 188.957418 54.936019 
L 188.047685 52.981162 
L 186.16631 50.881149 
L 183.230039 49.653941 
L 180.293769 49.376753 
L 177.357499 49.667825 
L 171.484959 50.811813 
L 165.612419 52.310133 
L 159.739879 54.258082 
L 156.803609 55.433462 
L 155.441072 54.936019 
L 153.867339 53.464301 
L 153.593343 52.981162 
L 151.559393 51.026306 
L 150.931069 50.662312 
L 147.994799 50.381871 
L 145.058529 51.033508 
L 143.568279 51.498747 
L 143.568279 51.498747 
" style="fill:none;stroke:#000000;"/>
    <path clip-path="url(#pafe676f35c)" d="M 117.825474 51.740059 
L 115.695828 51.932828 
L 113.709435 52.981162 
L 112.759558 53.503993 
L 111.352663 52.981162 
L 109.823288 52.14263 
L 106.887018 52.431341 
L 105.015051 52.981162 
L 103.950748 53.741458 
L 102.863859 52.981162 
L 101.014478 52.434797 
L 98.078207 52.843531 
L 97.523786 52.981162 
L 95.141937 53.352109 
L 93.281528 52.981162 
L 92.205667 52.756618 
L 89.269397 52.736742 
L 86.333127 52.980443 
L 86.329184 52.981162 
L 83.396857 53.589611 
L 80.460587 53.239279 
L 77.524317 53.546367 
L 74.588047 53.510694 
L 71.651777 53.651139 
L 68.715507 53.79505 
L 65.779237 53.958029 
L 62.842967 54.289252 
L 62.217051 54.936019 
L 59.906697 55.976789 
" style="fill:none;stroke:#000000;"/>
   </g>
   <g id="LineCollection_4">
    <path clip-path="url(#pafe676f35c)" d="M 409.322835 48.5654 
L 406.386565 48.75149 
L 403.450295 48.950078 
L 401.748223 49.071449 
L 400.514024 49.156799 
L 397.577754 49.370279 
L 394.641484 49.597711 
L 391.705214 49.84023 
L 388.768944 50.097952 
L 385.832674 50.372691 
L 382.896404 50.664628 
L 379.960134 50.975543 
L 379.497164 51.026306 
L 377.023864 51.291541 
L 374.087594 51.624415 
L 371.151324 51.978506 
L 368.215054 52.35514 
L 365.278784 52.755977 
L 363.701059 52.981162 
L 362.342514 53.171733 
L 359.406243 53.600928 
L 356.469973 54.057761 
L 353.533703 54.544162 
L 351.286617 54.936019 
L 350.597433 55.054547 
L 347.661163 55.576762 
L 344.724893 56.132102 
L 341.788623 56.723288 
L 340.982331 56.890876 
L 338.852353 57.329174 
L 335.916083 57.965417 
L 332.979813 58.643362 
L 332.130475 58.845732 
L 330.043543 59.339311 
L 327.107273 60.06972 
L 324.347861 60.800589 
L 324.171003 60.847184 
L 321.234733 61.636675 
L 318.298463 62.47916 
L 317.36635 62.755446 
L 315.362192 63.347709 
L 312.425922 64.26044 
L 311.036477 64.710302 
L 309.489652 65.210149 
L 306.553382 66.200629 
L 305.229562 66.665159 
L 303.617112 67.231531 
L 300.680842 68.310196 
L 299.862584 68.620016 
L 297.744572 69.424074 
L 294.872931 70.574872 
L 294.808302 70.600885 
L 291.872032 71.801322 
L 290.320283 72.4665 
" style="fill:none;stroke:#000000;"/>
    <path clip-path="url(#pafe676f35c)" d="M 264.629592 85.56724 
L 259.573061 88.687468 
L 253.700521 92.570988 
L 247.827981 96.745604 
L 245.829 95.988009 
L 245.860883 94.033153 
L 246.102552 92.078296 
L 247.827981 86.073678 
L 250.328868 78.394299 
L 251.654182 74.484586 
L 252.674297 70.574872 
L 253.009006 68.620016 
L 253.187828 66.665159 
L 253.166318 64.710302 
L 252.881527 62.755446 
L 252.240752 60.800589 
L 250.764251 58.446973 
L 249.013154 56.890876 
L 247.827981 56.157542 
L 244.750924 54.936019 
L 241.955441 54.397883 
L 239.019171 54.176276 
L 236.082901 54.221113 
L 233.146631 54.476362 
L 227.27409 55.390744 
L 221.40155 56.559581 
L 215.52901 57.975223 
L 209.65647 59.682765 
L 203.78393 61.716181 
L 197.91139 64.12131 
L 192.588494 66.665159 
L 188.946816 68.620016 
L 185.608953 70.574872 
L 183.230039 72.073574 
L 181.834148 70.574872 
L 181.679173 68.620016 
L 181.758156 66.665159 
L 181.659906 64.710302 
L 181.307166 62.755446 
L 180.293769 60.337322 
L 178.765931 58.845732 
L 177.357499 58.014565 
L 174.421229 57.488867 
L 171.484959 57.772311 
L 167.713906 58.845732 
L 165.612419 59.601487 
L 162.676149 60.807245 
L 158.536189 62.755446 
L 154.962421 64.710302 
L 151.822577 66.665159 
L 150.931069 67.257334 
L 149.725411 66.665159 
L 148.534684 64.710302 
L 147.994799 62.595823 
L 146.79282 60.800589 
L 145.058529 59.489517 
L 142.122258 59.443918 
L 138.681512 60.800589 
L 135.335508 62.755446 
L 132.47008 64.710302 
L 130.377178 66.317688 
L 128.960062 64.710302 
L 128.361954 62.755446 
L 127.440908 61.133037 
L 126.002734 60.800589 
L 124.504638 60.603464 
L 124.172141 60.800589 
L 121.568368 62.12155 
L 118.632098 64.465571 
L 115.695828 62.620167 
L 112.759558 61.506889 
L 111.141421 62.755446 
L 109.823288 63.567501 
L 106.887018 63.053211 
L 105.982299 62.755446 
L 103.950748 62.45747 
L 103.257986 62.755446 
L 101.014478 65.033289 
L 100.617231 64.710302 
L 98.078207 62.832358 
L 95.141937 63.362351 
L 92.205667 64.509798 
L 89.269397 63.980149 
L 86.333127 64.172183 
L 83.396857 64.875751 
L 80.460587 64.167363 
L 74.915375 64.710302 
L 71.651777 65.220387 
L 68.715507 65.23555 
L 62.842967 65.858138 
L 59.906697 66.169042 
L 59.906697 66.169042 
" style="fill:none;stroke:#000000;"/>
    <path clip-path="url(#pafe676f35c)" d="M 244.891711 98.656775 
L 244.611655 97.942866 
L 244.891711 96.772823 
L 245.792201 97.942866 
L 244.891711 98.656775 
" style="fill:none;stroke:#000000;"/>
   </g>
   <g id="LineCollection_5">
    <path clip-path="url(#pafe676f35c)" d="M 409.322835 51.922831 
L 397.577754 52.984497 
L 388.768944 53.925645 
L 379.960134 55.052349 
L 371.151324 56.343713 
L 359.406243 58.398539 
L 350.597433 60.206837 
L 341.788623 62.278191 
L 332.737792 64.710302 
L 326.191718 66.665159 
L 320.188933 68.620016 
L 314.636459 70.574872 
L 309.46808 72.529729 
L 303.617112 74.893914 
L 295.703781 78.394299 
L 291.60284 80.349156 
L 285.999492 83.168378 
L 280.126952 86.352022 
L 273.64023 90.123439 
L 267.400248 94.033153 
L 261.589294 97.942866 
L 256.154768 101.85258 
L 250.764251 105.985547 
L 244.891711 110.788561 
L 241.664319 113.58172 
L 236.082901 118.667786 
L 234.813518 117.491433 
L 234.37659 115.536576 
L 235.264556 109.672006 
L 236.38082 103.807436 
L 237.708505 97.942866 
L 239.214335 92.078296 
L 241.492063 84.258869 
L 243.249416 78.394299 
L 243.688287 76.439443 
L 244.006213 74.484586 
L 244.170882 72.529729 
L 244.135939 70.574872 
L 243.834078 68.620016 
L 243.164449 66.665159 
L 241.955441 64.692757 
L 239.586656 62.755446 
L 239.019171 62.434883 
L 236.082901 61.390957 
L 233.146631 60.925156 
L 230.210361 60.862373 
L 227.27409 61.09485 
L 224.33782 61.554922 
L 219.276661 62.755446 
L 215.52901 63.823679 
L 209.65647 65.797466 
L 203.78393 68.14426 
L 198.575805 70.574872 
L 194.845909 72.529729 
L 191.438931 74.484586 
L 186.16631 77.859661 
L 182.684671 80.349156 
L 177.74439 84.258869 
L 174.421229 87.15613 
L 173.489503 86.213726 
L 173.214204 84.258869 
L 173.984007 80.349156 
L 174.469205 76.439443 
L 174.527261 74.484586 
L 174.421229 72.520048 
L 173.996279 70.574872 
L 173.061221 68.620016 
L 171.484959 66.914907 
L 170.849779 66.665159 
L 168.548689 66.078257 
L 165.612419 66.362502 
L 162.676149 67.322746 
L 159.739879 68.743158 
L 156.612918 70.574872 
L 153.640587 72.529729 
L 150.931069 74.510457 
L 147.994799 76.886125 
L 145.058529 79.531168 
L 143.520589 78.394299 
L 142.862531 76.439443 
L 142.743125 74.484586 
L 142.427563 72.529729 
L 142.122258 71.493924 
L 141.540307 70.574872 
L 139.185988 68.816935 
L 136.249718 69.295799 
L 133.313448 70.96474 
L 129.219522 74.484586 
L 127.440908 76.262619 
L 124.504638 75.826973 
L 124.285367 74.484586 
L 123.522563 72.529729 
L 121.502318 70.574872 
L 118.632098 71.64126 
L 117.77674 72.529729 
L 115.695828 74.393259 
L 115.274829 74.484586 
L 113.417581 76.13863 
L 113.417581 76.13863 
" style="fill:none;stroke:#000000;"/>
    <path clip-path="url(#pafe676f35c)" d="M 94.909223 74.085252 
L 92.205667 74.193398 
L 91.605787 74.484586 
L 89.269397 76.358358 
L 88.844296 76.439443 
L 86.333127 76.624403 
L 85.267524 76.439443 
L 83.396857 75.80209 
L 80.460587 75.683941 
L 77.524317 75.97067 
L 76.101142 76.439443 
L 74.588047 76.869572 
L 71.651777 76.856004 
L 68.715507 77.261181 
L 65.779237 77.781333 
L 62.842967 78.177003 
L 61.297037 78.394299 
L 59.906697 78.588937 
" style="fill:none;stroke:#000000;"/>
   </g>
   <g id="LineCollection_6">
    <path clip-path="url(#pafe676f35c)" d="M 409.322835 55.017811 
L 400.514024 55.924152 
L 388.768944 57.405129 
L 379.29274 58.845732 
L 371.151324 60.257761 
L 362.342514 62.013599 
L 353.533703 64.021575 
L 343.450081 66.665159 
L 335.916083 68.885916 
L 330.043543 70.782884 
L 324.171003 72.828457 
L 318.298463 75.030378 
L 310.102847 78.394299 
L 303.617112 81.289866 
L 297.478747 84.258869 
L 289.978205 88.168583 
L 285.999492 90.388235 
L 279.827229 94.033153 
L 273.644083 97.942866 
L 267.867334 101.85258 
L 262.450701 105.762293 
L 256.636791 110.219989 
L 250.764251 115.039115 
L 245.711537 119.44629 
L 239.433085 125.31086 
L 233.582362 131.17543 
L 228.112213 137.04 
L 227.27409 137.986519 
L 226.374904 137.04 
L 225.971508 135.085143 
L 226.109699 129.220573 
L 226.548045 123.356003 
L 227.27409 117.236787 
L 228.154491 111.626863 
L 229.261227 105.762293 
L 231.009595 97.942866 
L 233.03885 90.123439 
L 234.638879 84.258869 
L 235.046055 82.304013 
L 235.331375 80.349156 
L 235.457507 78.394299 
L 235.372537 76.439443 
L 234.995449 74.484586 
L 234.202255 72.529729 
L 232.703109 70.574872 
L 230.210361 68.961716 
L 229.211889 68.620016 
L 227.27409 68.129858 
L 224.33782 67.901793 
L 221.40155 68.062978 
L 218.033244 68.620016 
L 215.52901 69.225856 
L 211.404123 70.574872 
L 209.65647 71.217778 
L 203.78393 73.757147 
L 198.503688 76.439443 
L 194.97512 78.443005 
L 191.893626 80.349156 
L 188.962631 82.304013 
L 183.660223 86.213726 
L 180.293769 88.963384 
L 176.787201 92.078296 
L 172.750135 95.988009 
L 167.072892 101.85258 
L 165.612419 103.899999 
L 165.50403 103.807436 
L 164.668226 101.85258 
L 165.757689 95.988009 
L 166.883065 90.123439 
L 167.388233 86.213726 
L 167.50461 84.258869 
L 167.478908 82.304013 
L 167.240847 80.349156 
L 166.665718 78.394299 
L 165.424318 76.439443 
L 162.676149 75.302698 
L 159.739879 75.642354 
L 156.803609 76.805727 
L 153.867339 78.551878 
L 149.153589 82.304013 
L 146.994896 84.258869 
L 143.025032 88.304761 
L 143.025032 88.304761 
" style="fill:none;stroke:#000000;"/>
    <path clip-path="url(#pafe676f35c)" d="M 129.393999 81.138999 
L 128.061058 82.304013 
L 127.440908 82.75983 
L 126.19421 84.258869 
L 124.504638 86.121128 
L 124.377266 86.213726 
L 122.977746 88.168583 
L 121.571567 90.123439 
L 121.568368 90.12768 
L 121.562304 90.123439 
L 120.060171 88.168583 
L 119.819959 86.213726 
L 119.483214 84.258869 
L 118.818831 82.304013 
L 118.632098 81.954049 
L 115.695828 81.95786 
L 115.404472 82.304013 
L 113.441138 84.258869 
L 112.759558 84.790695 
L 111.469036 86.213726 
L 110.583164 88.168583 
L 109.823288 89.155749 
L 108.899933 88.168583 
L 108.28763 86.213726 
L 107.627903 84.258869 
L 106.887018 83.090017 
L 105.468747 84.258869 
L 103.950748 85.065987 
L 101.983775 86.213726 
L 101.154804 88.168583 
L 101.014478 88.850415 
L 100.854981 88.168583 
L 100.029551 86.213726 
L 98.078207 84.863072 
L 96.233311 86.213726 
L 95.288124 88.168583 
L 95.141937 88.491095 
L 94.904239 88.168583 
L 92.205667 86.419932 
L 90.658543 86.213726 
L 89.269397 85.989908 
L 88.127007 86.213726 
L 86.333127 86.67917 
L 83.396857 87.09431 
L 80.460587 88.004075 
L 77.524317 88.137308 
L 77.417024 88.168583 
L 74.588047 88.928768 
L 71.651777 89.648645 
L 68.715507 89.919584 
L 67.542154 90.123439 
L 65.779237 90.476602 
L 62.842967 91.078445 
L 59.906697 91.680438 
" style="fill:none;stroke:#000000;"/>
   </g>
   <g id="LineCollection_7">
    <path clip-path="url(#pafe676f35c)" d="M 409.322835 57.988266 
L 400.514024 58.943386 
L 391.705214 60.154846 
L 382.896404 61.582755 
L 374.087594 63.231043 
L 365.278784 65.116388 
L 356.469973 67.258269 
L 347.661163 69.682222 
L 338.522524 72.529729 
L 332.802003 74.484586 
L 327.107273 76.572389 
L 321.234733 78.880212 
L 313.237833 82.304013 
L 306.553382 85.411423 
L 300.680842 88.354095 
L 293.742588 92.078296 
L 286.993251 95.988009 
L 280.7108 99.897723 
L 274.828421 103.807436 
L 269.296081 107.71715 
L 264.080281 111.626863 
L 259.158418 115.536576 
L 252.223923 121.401146 
L 245.801019 127.265717 
L 239.817175 133.130287 
L 234.219662 138.994857 
L 228.973128 144.859427 
L 222.465028 152.678854 
L 221.40155 154.036004 
L 219.924448 152.678854 
L 219.432502 150.723997 
L 219.021212 146.814283 
L 218.800027 142.90457 
L 218.763742 137.04 
L 219.022374 131.17543 
L 219.525493 125.31086 
L 220.240831 119.44629 
L 221.40155 112.105749 
L 222.607028 105.762293 
L 224.34128 97.942866 
L 226.58645 88.168583 
L 226.807079 86.213726 
L 226.847936 84.258869 
L 226.637894 82.304013 
L 226.063951 80.349156 
L 224.936657 78.394299 
L 224.33782 77.739824 
L 222.340921 76.439443 
L 221.40155 76.030038 
L 218.46528 75.49157 
L 215.52901 75.538111 
L 212.59274 75.979773 
L 209.65647 76.730572 
L 206.7202 77.744229 
L 203.78393 78.972654 
L 200.84766 80.394402 
L 197.422892 82.304013 
L 194.241289 84.258869 
L 191.29822 86.213726 
L 187.561491 88.924152 
L 187.561491 88.924152 
" style="fill:none;stroke:#000000;"/>
    <path clip-path="url(#pafe676f35c)" d="M 167.828118 107.911963 
L 166.381966 109.672006 
L 165.612419 110.64464 
L 164.833712 111.626863 
L 163.342475 113.58172 
L 162.676149 114.487096 
L 161.787744 115.536576 
L 160.50121 117.491433 
L 159.739879 118.601548 
L 158.297939 117.491433 
L 157.872947 115.536576 
L 158.091999 113.58172 
L 158.335107 111.626863 
L 158.602501 109.672006 
L 158.892921 107.71715 
L 159.203292 105.762293 
L 159.531417 103.807436 
L 159.739879 102.691004 
L 159.892332 101.85258 
L 160.200744 99.897723 
L 160.459205 97.942866 
L 160.657008 95.988009 
L 160.767416 94.033153 
L 160.755669 92.078296 
L 160.564496 90.123439 
L 160.096197 88.168583 
L 159.739879 87.329881 
L 158.564718 86.213726 
L 156.803609 85.341291 
L 153.867339 85.77521 
L 153.076277 86.213726 
L 150.931069 87.254832 
L 149.770588 88.168583 
L 147.994799 89.416122 
L 147.280793 90.123439 
L 145.115072 92.078296 
L 145.058529 92.126006 
L 143.374444 94.033153 
L 142.122258 95.35024 
L 141.592358 95.988009 
L 140.038269 97.942866 
L 139.185988 98.995578 
L 138.50503 99.897723 
L 137.085089 101.85258 
L 136.249718 103.037492 
L 135.525872 103.807436 
L 134.420101 105.762293 
L 133.313448 107.51416 
L 131.949984 105.762293 
L 131.765603 103.807436 
L 131.923462 101.85258 
L 132.032464 99.897723 
L 132.066047 97.942866 
L 131.987319 95.988009 
L 131.731297 94.033153 
L 131.171573 92.078296 
L 130.377178 90.614531 
L 127.440908 90.604049 
L 125.714083 92.078296 
L 124.504638 92.887944 
L 123.660909 94.033153 
L 121.993404 95.988009 
L 121.568368 96.428098 
L 120.656161 97.942866 
L 119.407193 99.897723 
L 118.632098 100.978051 
L 116.275526 99.897723 
L 115.806441 97.942866 
L 115.695828 97.088486 
L 115.406648 95.988009 
L 113.990078 94.033153 
L 112.759558 93.341856 
L 112.193914 94.033153 
L 110.008654 95.988009 
L 109.823288 96.113538 
L 108.82069 97.942866 
L 107.693294 99.897723 
L 106.887018 101.020665 
L 105.702337 99.897723 
L 104.727356 97.942866 
L 104.204051 95.988009 
L 103.950748 95.39462 
L 103.339873 95.988009 
L 101.014478 97.312528 
L 99.813707 97.942866 
L 98.565821 99.897723 
L 98.230079 101.85258 
L 98.078207 102.229968 
L 97.892394 101.85258 
L 97.472046 99.897723 
L 95.81689 97.942866 
L 95.141937 97.639277 
L 94.176748 97.942866 
L 92.205667 99.451243 
L 91.418466 99.897723 
L 89.269397 100.365885 
L 87.414216 99.897723 
L 86.333127 99.594779 
L 84.531348 99.897723 
L 83.396857 100.11181 
L 80.460587 101.682646 
L 77.524317 101.061806 
L 74.588047 101.834668 
L 74.499363 101.85258 
L 71.651777 102.510072 
L 68.715507 103.676657 
L 67.254394 103.807436 
L 65.779237 103.934076 
L 62.842967 104.724726 
L 59.906697 105.432586 
" style="fill:none;stroke:#000000;"/>
   </g>
   <g id="LineCollection_8">
    <path clip-path="url(#pafe676f35c)" d="M 409.322835 61.0685 
L 406.386565 61.341082 
L 403.450295 61.645509 
L 400.514024 61.981226 
L 397.577754 62.347919 
L 394.641484 62.745438 
L 394.573477 62.755446 
L 391.705214 63.188219 
L 388.768944 63.660099 
L 385.832674 64.160343 
L 382.896404 64.690455 
L 382.79412 64.710302 
L 379.960134 65.265029 
L 377.023864 65.856133 
L 374.087594 66.488713 
L 373.30081 66.665159 
L 371.151324 67.143526 
L 368.215054 67.827124 
L 365.278784 68.551148 
L 365.006937 68.620016 
L 362.342514 69.290377 
L 359.406243 70.06914 
L 357.580468 70.574872 
L 356.469973 70.880878 
L 353.533703 71.718613 
L 350.838818 72.529729 
L 350.597433 72.602104 
L 347.661163 73.503327 
L 344.724893 74.456971 
L 344.641609 74.484586 
L 341.788623 75.428608 
L 338.896049 76.439443 
L 338.852353 76.454702 
L 335.916083 77.500348 
L 333.52688 78.394299 
L 332.979813 78.599183 
L 330.043543 79.727032 
L 328.484677 80.349156 
L 327.107273 80.899821 
L 324.171003 82.117452 
L 323.731297 82.304013 
L 321.234733 83.366726 
L 319.219023 84.258869 
L 318.298463 84.668175 
L 315.362192 86.012794 
L 314.933159 86.213726 
L 312.425922 87.394773 
L 310.835978 88.168583 
L 309.489652 88.828562 
L 306.927659 90.123439 
L 306.553382 90.314135 
L 303.617112 91.84197 
L 303.172887 92.078296 
L 300.680842 93.416539 
L 299.561645 94.033153 
L 297.744572 95.044888 
L 296.090393 95.988009 
L 294.808302 96.727394 
L 292.745166 97.942866 
L 291.872032 98.463845 
L 289.516789 99.897723 
L 288.935762 100.256301 
L 286.395396 101.85258 
L 285.999492 102.105036 
L 283.373988 103.807436 
L 283.063222 104.012076 
L 280.444562 105.762293 
L 280.126952 105.978212 
L 277.603658 107.71715 
L 277.190682 108.006769 
L 274.843899 109.672006 
L 274.254412 110.098191 
L 272.162816 111.626863 
L 271.318141 112.256729 
L 269.556873 113.58172 
L 268.381871 114.484516 
L 267.023295 115.536576 
L 265.445601 116.785407 
L 264.559007 117.491433 
L 262.509331 119.162747 
L 262.163111 119.44629 
L 259.824492 121.401146 
L 259.573061 121.614965 
L 257.532174 123.356003 
L 256.636791 124.140415 
L 255.302563 125.31086 
L 253.700521 126.754864 
L 253.133805 127.265717 
L 251.016028 129.220573 
L 250.764251 129.457009 
L 248.93207 131.17543 
L 247.827981 132.241957 
L 246.905801 133.130287 
L 245.02939 134.99421 
" style="fill:none;stroke:#000000;"/>
    <path clip-path="url(#pafe676f35c)" d="M 226.88359 155.121104 
L 222.619312 160.49828 
L 218.46528 166.061835 
L 217.764479 166.36285 
L 215.941814 168.317707 
L 215.52901 169.485277 
L 214.442921 166.36285 
L 213.398784 162.453137 
L 212.59274 158.244903 
L 212.115185 154.63371 
L 211.777524 150.723997 
L 211.564157 144.859427 
L 211.639346 138.994857 
L 211.9576 133.130287 
L 212.59274 126.305697 
L 213.190264 121.401146 
L 214.37976 113.58172 
L 215.8326 105.762293 
L 218.110269 94.033153 
L 218.19432 92.078296 
L 218.034412 90.123439 
L 217.50781 88.168583 
L 216.393421 86.213726 
L 215.52901 85.320638 
L 213.460408 84.258869 
L 212.59274 83.96621 
L 209.65647 83.754786 
L 206.221006 84.258869 
L 203.78393 84.918015 
L 200.434639 86.213726 
L 197.91139 87.398092 
L 193.228079 90.123439 
L 192.03885 90.852769 
L 187.65906 94.033153 
L 185.181376 95.988009 
L 182.869418 97.942866 
L 178.647608 101.85258 
L 174.421229 106.176382 
L 171.286129 109.672006 
L 168.020823 113.58172 
L 164.987452 117.491433 
L 160.800179 123.356003 
L 155.659182 131.17543 
L 153.867339 134.458403 
L 152.002264 133.130287 
L 151.635826 131.17543 
L 151.964142 125.31086 
L 152.512013 119.44629 
L 153.51394 111.626863 
L 154.039437 107.71715 
L 154.239323 103.807436 
L 154.170866 101.85258 
L 153.867339 99.689734 
L 152.90314 97.942866 
L 150.931069 96.441115 
L 147.994799 97.054171 
L 146.725254 97.942866 
L 145.058529 98.928244 
L 144.091151 99.897723 
L 141.931124 101.85258 
L 138.641004 105.762293 
L 135.782534 109.672006 
L 132.121271 115.536576 
L 130.377178 118.577694 
L 129.259509 119.44629 
L 128.507805 121.401146 
L 127.902351 123.356003 
L 127.440908 124.255167 
L 126.705576 123.356003 
L 126.379842 121.401146 
L 127.062031 109.672006 
L 126.96067 107.71715 
L 126.624924 105.762293 
L 125.787461 103.807436 
L 124.504638 102.463465 
L 121.568368 104.069901 
L 120.378868 105.762293 
L 118.617658 107.71715 
L 117.587781 109.672006 
L 115.695828 112.661848 
L 114.656828 113.58172 
L 113.96119 115.536576 
L 113.453433 117.491433 
L 112.759558 118.78119 
L 111.890948 117.491433 
L 111.629927 115.536576 
L 111.540435 111.626863 
L 111.294707 109.672006 
L 110.759652 107.71715 
L 109.823288 106.062873 
L 108.25922 107.71715 
L 106.887018 108.612804 
L 105.494116 111.626863 
L 103.950748 114.12393 
L 103.172789 113.58172 
L 101.816408 111.626863 
L 101.014478 108.903668 
L 100.295366 109.672006 
L 96.59189 111.626863 
L 95.445538 113.58172 
L 95.141937 115.877844 
L 95.122696 115.536576 
L 94.658697 113.58172 
L 92.205667 111.924626 
L 89.269397 111.763407 
L 87.922274 113.58172 
L 87.140629 115.536576 
L 86.333127 116.298768 
L 80.460587 115.646852 
L 80.233503 115.536576 
L 77.524317 115.018095 
L 74.588047 115.731153 
L 65.779237 118.256154 
L 62.00979 119.44629 
L 59.906697 119.978782 
L 59.906697 119.978782 
" style="fill:none;stroke:#000000;"/>
   </g>
   <g id="LineCollection_9">
    <path clip-path="url(#pafe676f35c)" d="M 409.322835 64.395124 
L 406.386565 64.624366 
L 405.447662 64.710302 
L 403.450295 64.901765 
L 400.514024 65.220155 
L 397.577754 65.57205 
L 394.641484 65.956545 
L 391.705214 66.372965 
L 389.800565 66.665159 
L 388.768944 66.829671 
L 385.832674 67.332682 
L 382.896404 67.863921 
L 379.960134 68.42356 
L 378.988929 68.620016 
L 377.023864 69.031064 
L 374.087594 69.673907 
L 371.151324 70.342432 
L 370.17827 70.574872 
L 368.215054 71.05846 
L 365.278784 71.808322 
L 362.54465 72.529729 
L 362.342514 72.584705 
L 359.406243 73.415723 
L 356.469973 74.264993 
L 355.74804 74.484586 
L 353.533703 75.166632 
L 350.597433 76.091214 
L 349.540535 76.439443 
L 347.661163 77.062205 
L 344.724893 78.065771 
L 343.79644 78.394299 
L 341.788623 79.105309 
L 338.852353 80.189834 
L 338.431159 80.349156 
L 335.916083 81.302099 
L 333.385978 82.304013 
L 332.979813 82.465309 
L 330.043543 83.658363 
L 328.616449 84.258869 
L 327.107273 84.896499 
L 324.171003 86.183586 
L 324.103456 86.213726 
L 321.234733 87.500116 
L 319.794011 88.168583 
L 318.298463 88.867012 
L 315.692235 90.123439 
L 315.362192 90.283695 
L 312.425922 91.739346 
L 311.758988 92.078296 
L 309.489652 93.241227 
L 307.985404 94.033153 
L 306.553382 94.794178 
L 304.362615 95.988009 
L 303.617112 96.398426 
L 303.394228 96.524049 
" style="fill:none;stroke:#000000;"/>
    <path clip-path="url(#pafe676f35c)" d="M 279.369382 111.700291 
L 274.148928 115.536576 
L 268.381871 120.017464 
L 262.509331 124.876031 
L 257.545477 129.220573 
L 251.253672 135.085143 
L 245.367161 140.949713 
L 239.840253 146.814283 
L 234.645458 152.678854 
L 228.182568 160.49828 
L 222.186923 168.317707 
L 216.6027 176.137134 
L 215.52901 177.726653 
L 215.11685 178.091991 
L 213.726578 180.046847 
L 212.59274 182.133326 
L 212.315934 182.001704 
L 210.433496 180.046847 
L 209.458949 178.091991 
L 207.903754 174.182277 
L 206.71799 170.272564 
L 205.833072 166.36285 
L 205.179764 162.453137 
L 204.719195 158.543424 
L 204.321918 152.678854 
L 204.21795 146.814283 
L 204.350176 140.949713 
L 204.686254 135.085143 
L 205.40746 127.265717 
L 206.408221 119.44629 
L 207.636128 111.626863 
L 209.0069 103.807436 
L 209.21093 101.85258 
L 209.222639 99.897723 
L 208.939305 97.942866 
L 208.174022 95.988009 
L 206.7202 94.203679 
L 206.396705 94.033153 
L 203.78393 93.190184 
L 200.84766 93.301382 
L 197.871132 94.033153 
L 194.97512 95.210602 
L 192.03885 96.726274 
L 189.10258 98.536355 
L 184.648276 101.85258 
L 182.282513 103.807436 
L 180.054417 105.762293 
L 176.125471 109.672006 
L 174.240636 111.626863 
L 168.548689 118.335783 
L 164.759053 123.356003 
L 160.732484 129.220573 
L 158.225937 133.130287 
L 153.867339 140.569252 
L 151.529955 144.859427 
L 150.931069 146.017506 
L 150.080507 146.814283 
L 149.147991 148.76914 
L 148.54472 150.723997 
L 147.994799 151.87101 
L 146.601353 150.723997 
L 146.19022 148.76914 
L 146.018169 142.90457 
L 146.120922 137.04 
L 146.444316 131.17543 
L 147.13964 123.356003 
L 147.679589 117.491433 
L 147.721259 115.536576 
L 147.586151 113.58172 
L 147.117277 111.626863 
L 145.903403 109.672006 
L 145.058529 108.98804 
L 142.122258 109.779488 
L 139.185988 112.19223 
L 138.09394 113.58172 
L 136.249718 115.553553 
L 134.99303 117.491433 
L 133.313448 119.729012 
L 131.207328 123.356003 
L 130.039195 125.31086 
L 128.01462 129.220573 
L 126.885497 131.17543 
L 126.151489 133.130287 
L 124.504638 136.578747 
L 121.94847 135.085143 
L 121.818693 133.130287 
L 122.058595 121.401146 
L 121.88604 119.44629 
L 121.568368 117.654009 
L 121.348229 117.491433 
L 118.632098 116.750333 
L 118.143798 117.491433 
L 116.534439 119.44629 
L 115.695828 120.211439 
L 114.146841 123.356003 
L 112.759558 125.563532 
L 111.923631 127.265717 
L 111.328411 129.220573 
L 109.823288 132.418575 
L 108.671173 131.17543 
L 107.934648 129.220573 
L 107.464579 123.356003 
L 106.887018 120.706263 
L 106.151781 121.401146 
L 103.950748 122.50254 
L 102.880977 125.31086 
L 101.934485 127.265717 
L 101.014478 128.766024 
L 99.297662 127.265717 
L 98.466456 125.31086 
L 98.078207 123.696667 
L 96.70587 125.31086 
L 95.141937 126.09167 
L 92.195685 127.265717 
L 89.269397 128.259735 
L 87.140322 127.265717 
L 86.333127 126.760434 
L 84.524762 127.265717 
L 83.396857 127.698437 
L 80.460587 128.562772 
L 79.750508 129.220573 
L 77.524317 130.723781 
L 74.588047 130.798015 
L 73.262472 131.17543 
L 68.715507 133.241186 
L 65.779237 133.439067 
L 59.906697 135.44568 
L 59.906697 135.44568 
" style="fill:none;stroke:#000000;"/>
   </g>
   <g id="LineCollection_10">
    <path clip-path="url(#pafe676f35c)" d="M 409.322835 68.195538 
L 402.876379 68.620016 
L 397.577754 69.157644 
L 388.768944 70.327926 
L 382.896404 71.328632 
L 376.713605 72.529729 
L 368.212015 74.484586 
L 359.406243 76.870067 
L 350.597433 79.604987 
L 344.724893 81.626925 
L 337.699794 84.258869 
L 330.043543 87.412265 
L 323.946139 90.123439 
L 315.362192 94.28944 
L 308.441608 97.942866 
L 301.560235 101.85258 
L 294.808302 105.96724 
L 288.935762 109.788277 
L 283.063222 113.847902 
L 277.190682 118.156566 
L 270.549175 123.356003 
L 263.575891 129.220573 
L 259.199628 133.130287 
L 252.989526 138.994857 
L 247.175864 144.859427 
L 241.720305 150.723997 
L 236.576014 156.588567 
L 231.713065 162.453137 
L 225.646691 170.272564 
L 219.997742 178.091991 
L 214.72528 185.911417 
L 212.59274 189.24406 
L 212.045951 189.821131 
L 210.792251 191.775987 
L 209.65647 193.965655 
L 209.005025 193.730844 
L 206.617285 191.775987 
L 205.187364 189.821131 
L 203.78393 187.592996 
L 201.945385 183.956561 
L 200.413997 180.046847 
L 199.235804 176.137134 
L 198.332482 172.22742 
L 197.645756 168.317707 
L 197.13686 164.407994 
L 196.653372 158.543424 
L 196.44404 152.678854 
L 196.463676 146.814283 
L 196.676212 140.949713 
L 197.218068 133.130287 
L 198.021703 125.31086 
L 199.024206 117.491433 
L 199.547753 113.58172 
L 199.713639 111.626863 
L 199.681509 109.672006 
L 199.322734 107.71715 
L 198.391103 105.762293 
L 197.91139 105.206637 
L 194.97512 104.162081 
L 192.03885 104.57868 
L 188.952973 105.762293 
L 185.577166 107.71715 
L 182.769122 109.672006 
L 180.272362 111.626863 
L 176.128233 115.536576 
L 174.16024 117.491433 
L 169.063179 123.356003 
L 168.548689 123.94875 
L 162.676149 131.90487 
L 156.803609 141.163352 
L 150.5505 152.678854 
L 147.994799 157.900588 
L 147.592842 158.543424 
L 145.943207 162.453137 
L 145.058529 164.348171 
L 144.834021 164.407994 
L 142.662252 166.36285 
L 142.122258 169.059679 
L 141.610424 166.36285 
L 141.060464 162.453137 
L 140.6929 158.543424 
L 140.41264 152.678854 
L 140.391718 146.814283 
L 140.576325 140.949713 
L 141.055511 131.17543 
L 141.047072 129.220573 
L 140.863069 127.265717 
L 140.348509 125.31086 
L 139.185988 123.451537 
L 136.249718 124.489827 
L 135.589948 125.31086 
L 133.313448 127.526713 
L 132.281367 129.220573 
L 130.377178 131.777521 
L 128.625267 135.085143 
L 127.409896 137.04 
L 125.623319 140.949713 
L 124.504638 143.067489 
L 123.020282 146.814283 
L 121.568368 150.068709 
L 120.825641 150.723997 
L 119.864259 152.678854 
L 119.457528 154.63371 
L 119.205501 156.588567 
L 118.632098 158.01019 
L 117.561239 156.588567 
L 117.360804 152.678854 
L 117.277651 146.814283 
L 117.253784 140.949713 
L 117.089063 137.04 
L 116.861639 135.085143 
L 116.364919 133.130287 
L 115.695828 131.777225 
L 114.521213 133.130287 
L 112.759558 134.324411 
L 111.585923 137.04 
L 109.454721 140.949713 
L 108.86445 142.90457 
L 107.293462 146.814283 
L 106.887018 147.669751 
L 105.078391 146.814283 
L 104.425957 144.859427 
L 104.112773 140.949713 
L 103.950748 138.732026 
L 101.014478 138.117729 
L 100.13708 140.949713 
L 99.370314 142.90457 
L 98.078207 145.305067 
L 97.352479 144.859427 
L 95.930199 142.90457 
L 95.141937 139.957813 
L 94.73096 140.949713 
L 93.111404 142.90457 
L 92.205667 143.391822 
L 90.743928 142.90457 
L 89.269397 141.825405 
L 88.394007 144.859427 
L 87.093368 146.814283 
L 86.333127 147.396468 
L 85.400495 146.814283 
L 83.396857 145.323125 
L 80.460587 146.021118 
L 79.257111 146.814283 
L 77.524317 149.100022 
L 77.152286 148.924974 
L 77.152286 148.924974 
" style="fill:none;stroke:#000000;"/>
   </g>
   <g id="LineCollection_11">
    <path clip-path="url(#pafe676f35c)" d="M 409.322835 73.05011 
L 403.450295 73.13324 
L 397.577754 73.492422 
L 391.705214 74.070187 
L 385.832674 74.868546 
L 376.898271 76.439443 
L 368.171252 78.394299 
L 359.406243 80.761332 
L 353.533703 82.547657 
L 344.724893 85.566943 
L 337.886907 88.168583 
L 330.043543 91.464353 
L 324.171003 94.130489 
L 316.459527 97.942866 
L 309.156131 101.85258 
L 302.411061 105.762293 
L 296.103476 109.672006 
L 290.183921 113.58172 
L 284.607066 117.491433 
L 279.328209 121.401146 
L 274.254412 125.354828 
L 267.285451 131.17543 
L 262.509331 135.389987 
L 256.571303 140.949713 
L 250.698217 146.814283 
L 244.891711 152.998809 
L 238.332628 160.49828 
L 233.146631 166.809607 
L 227.27409 174.455521 
L 220.536917 183.956561 
L 215.354109 191.775987 
L 209.65647 201.023202 
L 209.105641 201.550271 
L 207.650832 203.505128 
L 206.7202 205.320986 
L 203.78393 203.261475 
L 200.84766 200.61452 
L 199.891958 199.595414 
L 197.91139 197.149682 
L 196.89099 195.685701 
L 194.97512 192.409041 
L 193.720344 189.821131 
L 192.197343 185.911417 
L 190.992615 182.001704 
L 190.052846 178.091991 
L 189.326594 174.182277 
L 188.530683 168.317707 
L 188.039273 162.453137 
L 187.792812 156.588567 
L 187.750318 150.723997 
L 187.959689 142.90457 
L 188.431127 135.085143 
L 189.133971 127.265717 
L 189.327215 125.31086 
L 189.401279 123.356003 
L 189.268129 121.401146 
L 189.10258 120.66233 
L 188.483798 119.44629 
L 186.16631 117.837986 
L 183.230039 118.309983 
L 180.293769 119.741567 
L 177.357499 121.809803 
L 171.484959 127.276067 
L 165.612419 134.288257 
L 163.661348 137.04 
L 162.249288 138.994857 
L 156.803609 147.499292 
L 155.020524 150.723997 
L 153.859851 152.676293 
L 153.859851 152.676293 
" style="fill:none;stroke:#000000;"/>
    <path clip-path="url(#pafe676f35c)" d="M 142.870977 176.168271 
L 142.122258 177.882202 
L 141.888139 178.091991 
L 140.606964 180.046847 
L 139.988435 182.001704 
L 139.606296 183.956561 
L 139.185988 185.332225 
L 137.928009 183.956561 
L 136.76408 180.046847 
L 135.925986 176.137134 
L 135.32662 172.22742 
L 134.903127 168.317707 
L 134.525065 162.453137 
L 134.391398 156.588567 
L 134.28768 144.859427 
L 134.012037 142.90457 
L 133.313448 140.802344 
L 133.025604 140.949713 
L 130.377178 141.77891 
L 129.689357 142.90457 
L 128.185679 144.859427 
L 127.440908 145.616758 
L 125.884148 148.76914 
L 124.504638 150.950697 
L 122.998746 154.63371 
L 121.215528 158.543424 
L 119.789587 162.453137 
L 118.632098 165.175017 
L 117.944757 166.36285 
L 117.284484 168.317707 
L 116.881159 170.272564 
L 116.361799 172.22742 
L 115.695828 173.999033 
L 113.841744 172.22742 
L 113.362323 170.272564 
L 112.91922 164.407994 
L 112.541344 154.63371 
L 112.121988 152.678854 
L 109.823288 150.661464 
L 109.069213 152.678854 
L 108.1062 154.63371 
L 106.816216 156.588567 
L 105.693844 160.49828 
L 105.007844 162.453137 
L 103.950748 164.925419 
L 101.700731 166.36285 
L 101.180645 168.317707 
L 101.014478 169.686551 
L 100.234099 160.49828 
L 99.855463 158.543424 
L 98.918758 156.588567 
L 98.078207 155.877996 
L 96.843693 160.49828 
L 96.084169 162.453137 
L 95.141937 164.208107 
L 93.483881 162.453137 
L 92.746733 160.49828 
L 92.205667 157.89962 
L 92.057831 158.543424 
L 91.492867 160.49828 
L 90.405501 162.453137 
L 89.269397 163.423471 
L 88.145758 162.453137 
L 86.749707 160.49828 
L 86.333127 159.678076 
L 85.3861 160.49828 
L 84.114347 162.453137 
L 83.396857 165.009966 
L 81.333917 168.317707 
L 80.460587 168.540402 
L 80.189825 168.317707 
L 79.67608 166.36285 
L 78.713622 164.407994 
L 77.524317 163.298927 
L 76.904662 164.407994 
L 74.588047 166.528247 
L 68.715507 166.301854 
L 68.555733 166.36285 
L 65.779237 167.888054 
L 62.842967 168.413452 
L 59.906697 169.435081 
L 59.906697 169.435081 
" style="fill:none;stroke:#000000;"/>
   </g>
   <g id="LineCollection_12">
    <path clip-path="url(#pafe676f35c)" d="M 409.322835 83.038735 
L 406.386565 81.784172 
L 403.450295 80.758833 
L 400.514024 80.181149 
L 397.577754 79.936705 
L 394.641484 79.852938 
L 388.768944 80.04187 
L 385.111315 80.349156 
L 379.960134 81.03308 
L 372.573796 82.304013 
L 368.215054 83.262518 
L 362.342514 84.701824 
L 356.469973 86.343122 
L 347.661163 89.218875 
L 341.788623 91.36178 
L 335.0901 94.033153 
L 326.292559 97.942866 
L 318.298463 101.86977 
L 311.097891 105.762293 
L 303.617112 110.125677 
L 297.744572 113.802988 
L 291.872032 117.723218 
L 285.999492 121.897838 
L 278.945032 127.265717 
L 274.080332 131.17543 
L 267.275513 137.04 
L 262.509331 141.369676 
L 254.940512 148.76914 
L 250.764251 153.077238 
L 244.053388 160.49828 
L 239.019171 166.387869 
L 231.359691 176.137134 
L 228.458723 180.046847 
L 225.657286 183.956561 
L 222.947484 187.866274 
L 220.321186 191.775987 
L 215.52901 199.204263 
L 208.383345 211.324554 
L 206.7202 214.22816 
L 203.78393 214.916443 
L 200.13223 213.279411 
L 196.756064 211.324554 
L 194.078486 209.369698 
L 191.880845 207.414841 
L 189.10258 204.321146 
L 188.460736 203.505128 
L 187.097489 201.550271 
L 185.914071 199.595414 
L 184.860247 197.640557 
L 183.126496 193.730844 
L 181.725758 189.821131 
L 180.626807 185.911417 
L 179.348451 180.046847 
L 178.711054 176.137134 
L 178.016924 170.272564 
L 177.576354 164.407994 
L 177.332839 158.543424 
L 177.255725 150.723997 
L 177.434858 142.90457 
L 177.505546 140.949713 
L 177.357499 138.607853 
L 176.417745 137.04 
L 174.421229 136.113422 
L 171.484959 137.427879 
L 169.727643 138.994857 
L 168.548689 139.8423 
L 167.604267 140.949713 
L 165.610261 142.90457 
L 164.162701 144.859427 
L 162.50422 146.814283 
L 161.20295 148.76914 
L 159.70505 150.723997 
L 158.549969 152.678854 
L 156.803609 155.267957 
L 154.979982 158.543424 
L 153.773783 160.49828 
L 151.757933 164.407994 
L 150.693274 166.36285 
L 148.831058 170.272564 
L 147.83699 172.22742 
L 146.141998 176.137134 
L 145.058529 178.390307 
L 142.810646 183.956561 
L 141.971963 185.911417 
L 139.774135 191.775987 
L 139.185988 193.199349 
L 138.813121 193.730844 
L 137.863003 195.685701 
L 137.247972 197.640557 
L 136.249718 201.557809 
L 136.233229 201.550271 
L 134.176002 199.595414 
L 133.113017 197.640557 
L 132.253636 195.685701 
L 130.889442 191.775987 
L 129.885356 187.866274 
L 129.136138 183.956561 
L 128.581735 180.046847 
L 128.027338 174.182277 
L 127.721844 168.317707 
L 127.528257 164.407994 
L 127.440908 163.733773 
L 124.504638 162.656754 
L 123.688382 164.407994 
L 122.451733 166.36285 
L 121.568368 167.389708 
L 120.517476 170.272564 
L 119.65614 172.22742 
L 118.611638 174.182277 
L 117.402106 178.091991 
L 115.884415 182.001704 
L 115.063994 183.956561 
L 114.514472 185.911417 
L 114.117304 187.866274 
L 113.598812 189.821131 
L 112.759558 192.204117 
L 111.431373 191.775987 
L 109.819296 189.821131 
L 109.086295 185.911417 
L 108.540775 182.001704 
L 107.646321 174.182277 
L 107.261888 172.22742 
L 106.887018 170.917779 
L 106.396581 172.22742 
L 105.243147 174.182277 
L 103.950748 175.33055 
L 102.781043 180.046847 
L 102.155619 182.001704 
L 101.014478 184.728899 
L 99.245617 185.911417 
L 98.324745 187.866274 
L 98.078207 188.860389 
L 96.61375 180.046847 
L 96.029857 178.091991 
L 95.141937 176.332791 
L 94.719944 178.091991 
L 93.932681 182.001704 
L 93.281231 183.956561 
L 92.205667 186.117056 
L 91.980348 185.911417 
L 90.653124 183.956561 
L 89.997703 182.001704 
L 89.269397 178.169756 
L 88.493967 182.001704 
L 88.136815 183.956561 
L 87.269587 185.911417 
L 86.333127 187.065278 
L 85.467562 185.911417 
L 84.328417 183.956561 
L 83.396857 181.853301 
L 80.460587 181.626197 
L 79.870832 182.001704 
L 76.490648 183.956561 
L 75.020706 185.997258 
L 75.020706 185.997258 
" style="fill:none;stroke:#000000;"/>
   </g>
   <g id="LineCollection_13">
    <path clip-path="url(#pafe676f35c)" d="M 409.322835 105.496041 
L 397.577754 101.042474 
L 385.197521 95.988009 
L 376.156512 92.078296 
L 374.087594 91.525395 
L 371.151324 91.278704 
L 368.215054 91.370494 
L 365.278784 91.657608 
L 362.295327 92.078296 
L 356.469973 93.367966 
L 353.533703 94.079463 
L 344.724893 96.837053 
L 341.505255 97.942866 
L 332.979813 101.342433 
L 327.107273 103.933756 
L 319.421685 107.71715 
L 312.144938 111.626863 
L 305.512246 115.536576 
L 299.326064 119.44629 
L 293.532489 123.356003 
L 288.073696 127.265717 
L 282.891575 131.17543 
L 277.190682 135.773903 
L 268.960896 142.90457 
L 265.445601 146.13319 
L 258.740902 152.678854 
L 253.700521 157.877291 
L 244.891711 167.725351 
L 236.082901 178.600819 
L 226.536824 191.775987 
L 221.293093 199.595414 
L 211.85051 215.234268 
L 206.7202 224.444375 
L 203.78393 224.669184 
L 197.91139 223.47848 
L 194.97512 222.69177 
L 190.357632 221.098838 
L 189.10258 220.566479 
L 186.157066 219.143981 
L 182.926658 217.189124 
L 180.293769 215.194923 
L 177.357499 212.411109 
L 176.352993 211.324554 
L 174.421229 208.828347 
L 173.426473 207.414841 
L 171.484959 204.059076 
L 170.216992 201.550271 
L 168.635622 197.640557 
L 166.73451 191.775987 
L 165.612419 187.050884 
L 164.956858 183.956561 
L 163.99034 178.091991 
L 163.298088 172.22742 
L 162.676149 165.388736 
L 160.824379 164.407994 
L 159.668208 164.407994 
L 158.028086 166.36285 
L 156.803609 167.320503 
L 156.227934 168.317707 
L 154.897741 170.272564 
L 153.867339 171.454221 
L 152.427632 174.182277 
L 150.931069 176.385665 
L 149.183245 180.046847 
L 147.994799 182.016185 
L 146.330503 185.911417 
L 145.058529 188.332197 
L 143.738973 191.775987 
L 141.986842 195.685701 
L 140.595554 199.595414 
L 139.007388 203.505128 
L 137.73535 207.414841 
L 136.222176 211.324554 
L 135.044217 213.279411 
L 134.148544 215.234268 
L 133.313448 217.356371 
L 133.046606 217.189124 
L 130.372291 215.234268 
L 128.439473 213.279411 
L 126.914369 211.324554 
L 125.690264 209.369698 
L 124.504638 207.021994 
L 123.089792 203.505128 
L 121.932501 199.595414 
L 120.047247 191.775987 
L 119.190363 189.821131 
L 118.632098 189.068887 
L 118.379157 189.821131 
L 117.589053 191.775987 
L 116.299559 193.730844 
L 115.695828 194.343124 
L 114.811618 197.640557 
L 114.17191 199.595414 
L 111.859951 205.459984 
L 110.929532 209.369698 
L 110.530913 211.324554 
L 109.823288 213.43539 
L 109.514212 213.279411 
L 107.355742 211.324554 
L 106.333811 209.369698 
L 105.50503 207.414841 
L 104.234341 203.505128 
L 103.637473 201.550271 
L 102.653662 199.595414 
L 101.014478 198.01644 
L 99.839726 203.505128 
L 99.213995 205.459984 
L 98.078207 207.856614 
L 95.141937 208.457885 
L 92.823856 201.550271 
L 92.205667 200.323955 
L 91.294368 203.505128 
L 89.926769 209.369698 
L 89.269397 211.510474 
L 89.161045 211.324554 
L 87.942702 207.414841 
L 86.866772 203.505128 
L 86.427582 202.187687 
L 86.427582 202.187687 
" style="fill:none;stroke:#000000;"/>
    <path clip-path="url(#pafe676f35c)" d="M 66.229628 207.82859 
L 65.779237 207.971931 
L 62.842967 208.407568 
L 59.906697 208.598117 
" style="fill:none;stroke:#000000;"/>
   </g>
   <g id="LineCollection_14">
    <path clip-path="url(#pafe676f35c)" d="M 409.322835 165.299603 
L 406.386565 164.730254 
L 404.862145 164.407994 
L 403.450295 164.115442 
L 400.514024 163.528603 
L 397.577754 162.91659 
L 395.472628 162.453137 
L 394.641484 162.275844 
L 391.705214 161.647366 
L 388.768944 161.002233 
L 386.589883 160.49828 
L 385.832674 160.32764 
L 382.896404 159.681356 
L 379.960134 158.983476 
L 379.713137 158.924081 
" style="fill:none;stroke:#000000;"/>
    <path clip-path="url(#pafe676f35c)" d="M 350.958821 151.498555 
L 341.566099 148.76914 
L 327.107273 144.146077 
L 321.234733 142.134351 
L 312.425922 138.924039 
L 303.617112 135.533829 
L 302.523717 135.085143 
L 300.680842 134.609424 
L 297.722153 135.085143 
L 294.22831 137.04 
L 291.054346 138.994857 
L 288.105587 140.949713 
L 285.314882 142.90457 
L 282.636901 144.859427 
L 280.039559 146.814283 
L 270.88883 154.63371 
L 268.381871 156.879989 
L 266.751802 158.543424 
L 264.679288 160.49828 
L 262.509331 162.507246 
L 260.791547 164.407994 
L 258.856833 166.36285 
L 256.636791 168.605702 
L 255.237465 170.272564 
L 253.360353 172.22742 
L 248.264706 178.091991 
L 247.827981 178.55029 
L 246.704886 180.046847 
L 244.891711 182.062722 
L 243.530281 183.956561 
L 241.836084 185.911417 
L 240.462923 187.866274 
L 238.837292 189.821131 
L 237.503151 191.775987 
L 235.921979 193.730844 
L 234.644705 195.685701 
L 233.08917 197.640557 
L 231.878802 199.595414 
L 230.210361 201.785914 
L 229.191963 203.505128 
L 226.573339 207.414841 
L 225.337877 209.369698 
L 224.004829 211.324554 
L 222.889955 213.279411 
L 221.40155 215.413925 
L 220.470973 217.189124 
L 215.52901 225.389766 
L 213.715369 228.918265 
L 211.216844 232.827978 
L 209.65647 233.389033 
L 197.91139 233.136773 
L 189.10258 232.78912 
L 180.293769 232.192824 
L 174.421229 231.588749 
L 168.548689 230.730365 
L 162.676149 229.480932 
L 159.739879 228.660147 
L 155.021537 226.963408 
L 151.053804 225.008551 
L 147.952923 223.053694 
L 145.058529 220.775138 
L 143.257445 219.143981 
L 142.122258 217.872801 
L 141.53371 219.143981 
L 139.185988 220.759757 
L 138.550242 223.053694 
L 137.844506 225.008551 
L 136.735588 226.963408 
L 136.249718 227.566972 
L 135.771965 228.918265 
L 134.771962 230.873121 
L 133.313448 232.272377 
L 127.440908 231.74344 
L 122.180049 230.873121 
L 121.568368 230.730626 
L 118.632098 229.8865 
L 115.695828 228.69364 
L 112.759558 226.971359 
L 110.536144 228.918265 
L 109.823288 229.274197 
L 108.006298 230.873121 
L 106.887018 231.549287 
L 103.774589 230.873121 
L 101.014478 229.917239 
L 98.992168 228.918265 
L 98.078207 228.294084 
L 97.745656 228.918265 
L 95.952102 230.873121 
L 95.141937 231.374097 
L 93.437787 230.873121 
L 92.205667 230.392044 
L 89.269397 228.942258 
L 86.333127 230.661717 
L 83.396857 230.532791 
L 80.460587 229.743212 
L 77.524317 229.920589 
L 74.588047 230.831107 
L 71.651777 230.026453 
L 65.779237 230.763171 
L 62.842967 230.153641 
L 59.906697 228.436971 
L 59.906697 228.436971 
" style="fill:none;stroke:#000000;"/>
   </g>
   <g id="LineCollection_15"/>
   <g id="patch_3">
    <path d="M 59.906697 234.782835 
L 59.906697 39.297165 
" style="fill:none;stroke:#000000;stroke-linecap:square;stroke-linejoin:miter;"/>
   </g>
   <g id="patch_4">
    <path d="M 59.906697 234.782835 
L 409.322835 234.782835 
" style="fill:none;stroke:#000000;stroke-linecap:square;stroke-linejoin:miter;"/>
   </g>
   <g id="text_13">
    <g clip-path="url(#pafe676f35c)">
     <!-- 0.160 -->
     <g transform="translate(339.330468 44.985585)rotate(-2.10174)scale(0.1 -0.1)">
      <defs>
       <path d="M 31.78125 66.40625 
Q 24.171875 66.40625 20.328125 58.90625 
Q 16.5 51.421875 16.5 36.375 
Q 16.5 21.390625 20.328125 13.890625 
Q 24.171875 6.390625 31.78125 6.390625 
Q 39.453125 6.390625 43.28125 13.890625 
Q 47.125 21.390625 47.125 36.375 
Q 47.125 51.421875 43.28125 58.90625 
Q 39.453125 66.40625 31.78125 66.40625 
z
M 31.78125 74.21875 
Q 44.046875 74.21875 50.515625 64.515625 
Q 56.984375 54.828125 56.984375 36.375 
Q 56.984375 17.96875 50.515625 8.265625 
Q 44.046875 -1.421875 31.78125 -1.421875 
Q 19.53125 -1.421875 13.0625 8.265625 
Q 6.59375 17.96875 6.59375 36.375 
Q 6.59375 54.828125 13.0625 64.515625 
Q 19.53125 74.21875 31.78125 74.21875 
z
" id="DejaVuSans-48"/>
       <path d="M 10.6875 12.40625 
L 21 12.40625 
L 21 0 
L 10.6875 0 
z
" id="DejaVuSans-46"/>
       <path d="M 12.40625 8.296875 
L 28.515625 8.296875 
L 28.515625 63.921875 
L 10.984375 60.40625 
L 10.984375 69.390625 
L 28.421875 72.90625 
L 38.28125 72.90625 
L 38.28125 8.296875 
L 54.390625 8.296875 
L 54.390625 0 
L 12.40625 0 
z
" id="DejaVuSans-49"/>
       <path d="M 33.015625 40.375 
Q 26.375 40.375 22.484375 35.828125 
Q 18.609375 31.296875 18.609375 23.390625 
Q 18.609375 15.53125 22.484375 10.953125 
Q 26.375 6.390625 33.015625 6.390625 
Q 39.65625 6.390625 43.53125 10.953125 
Q 47.40625 15.53125 47.40625 23.390625 
Q 47.40625 31.296875 43.53125 35.828125 
Q 39.65625 40.375 33.015625 40.375 
z
M 52.59375 71.296875 
L 52.59375 62.3125 
Q 48.875 64.0625 45.09375 64.984375 
Q 41.3125 65.921875 37.59375 65.921875 
Q 27.828125 65.921875 22.671875 59.328125 
Q 17.53125 52.734375 16.796875 39.40625 
Q 19.671875 43.65625 24.015625 45.921875 
Q 28.375 48.1875 33.59375 48.1875 
Q 44.578125 48.1875 50.953125 41.515625 
Q 57.328125 34.859375 57.328125 23.390625 
Q 57.328125 12.15625 50.6875 5.359375 
Q 44.046875 -1.421875 33.015625 -1.421875 
Q 20.359375 -1.421875 13.671875 8.265625 
Q 6.984375 17.96875 6.984375 36.375 
Q 6.984375 53.65625 15.1875 63.9375 
Q 23.390625 74.21875 37.203125 74.21875 
Q 40.921875 74.21875 44.703125 73.484375 
Q 48.484375 72.75 52.59375 71.296875 
z
" id="DejaVuSans-54"/>
      </defs>
      <use xlink:href="#DejaVuSans-48"/>
      <use x="63.623047" xlink:href="#DejaVuSans-46"/>
      <use x="95.410156" xlink:href="#DejaVuSans-49"/>
      <use x="159.033203" xlink:href="#DejaVuSans-54"/>
      <use x="222.65625" xlink:href="#DejaVuSans-48"/>
     </g>
    </g>
   </g>
   <g id="text_14">
    <g clip-path="url(#pafe676f35c)">
     <!-- 0.180 -->
     <g transform="translate(116.304972 54.286799)rotate(-2.013088)scale(0.1 -0.1)">
      <defs>
       <path d="M 31.78125 34.625 
Q 24.75 34.625 20.71875 30.859375 
Q 16.703125 27.09375 16.703125 20.515625 
Q 16.703125 13.921875 20.71875 10.15625 
Q 24.75 6.390625 31.78125 6.390625 
Q 38.8125 6.390625 42.859375 10.171875 
Q 46.921875 13.96875 46.921875 20.515625 
Q 46.921875 27.09375 42.890625 30.859375 
Q 38.875 34.625 31.78125 34.625 
z
M 21.921875 38.8125 
Q 15.578125 40.375 12.03125 44.71875 
Q 8.5 49.078125 8.5 55.328125 
Q 8.5 64.0625 14.71875 69.140625 
Q 20.953125 74.21875 31.78125 74.21875 
Q 42.671875 74.21875 48.875 69.140625 
Q 55.078125 64.0625 55.078125 55.328125 
Q 55.078125 49.078125 51.53125 44.71875 
Q 48 40.375 41.703125 38.8125 
Q 48.828125 37.15625 52.796875 32.3125 
Q 56.78125 27.484375 56.78125 20.515625 
Q 56.78125 9.90625 50.3125 4.234375 
Q 43.84375 -1.421875 31.78125 -1.421875 
Q 19.734375 -1.421875 13.25 4.234375 
Q 6.78125 9.90625 6.78125 20.515625 
Q 6.78125 27.484375 10.78125 32.3125 
Q 14.796875 37.15625 21.921875 38.8125 
z
M 18.3125 54.390625 
Q 18.3125 48.734375 21.84375 45.5625 
Q 25.390625 42.390625 31.78125 42.390625 
Q 38.140625 42.390625 41.71875 45.5625 
Q 45.3125 48.734375 45.3125 54.390625 
Q 45.3125 60.0625 41.71875 63.234375 
Q 38.140625 66.40625 31.78125 66.40625 
Q 25.390625 66.40625 21.84375 63.234375 
Q 18.3125 60.0625 18.3125 54.390625 
z
" id="DejaVuSans-56"/>
      </defs>
      <use xlink:href="#DejaVuSans-48"/>
      <use x="63.623047" xlink:href="#DejaVuSans-46"/>
      <use x="95.410156" xlink:href="#DejaVuSans-49"/>
      <use x="159.033203" xlink:href="#DejaVuSans-56"/>
      <use x="222.65625" xlink:href="#DejaVuSans-48"/>
     </g>
    </g>
   </g>
   <g id="text_15">
    <g clip-path="url(#pafe676f35c)">
     <!-- 0.200 -->
     <g transform="translate(266.387428 88.411874)rotate(-31.264743)scale(0.1 -0.1)">
      <defs>
       <path d="M 19.1875 8.296875 
L 53.609375 8.296875 
L 53.609375 0 
L 7.328125 0 
L 7.328125 8.296875 
Q 12.9375 14.109375 22.625 23.890625 
Q 32.328125 33.6875 34.8125 36.53125 
Q 39.546875 41.84375 41.421875 45.53125 
Q 43.3125 49.21875 43.3125 52.78125 
Q 43.3125 58.59375 39.234375 62.25 
Q 35.15625 65.921875 28.609375 65.921875 
Q 23.96875 65.921875 18.8125 64.3125 
Q 13.671875 62.703125 7.8125 59.421875 
L 7.8125 69.390625 
Q 13.765625 71.78125 18.9375 73 
Q 24.125 74.21875 28.421875 74.21875 
Q 39.75 74.21875 46.484375 68.546875 
Q 53.21875 62.890625 53.21875 53.421875 
Q 53.21875 48.921875 51.53125 44.890625 
Q 49.859375 40.875 45.40625 35.40625 
Q 44.1875 33.984375 37.640625 27.21875 
Q 31.109375 20.453125 19.1875 8.296875 
z
" id="DejaVuSans-50"/>
      </defs>
      <use xlink:href="#DejaVuSans-48"/>
      <use x="63.623047" xlink:href="#DejaVuSans-46"/>
      <use x="95.410156" xlink:href="#DejaVuSans-50"/>
      <use x="159.033203" xlink:href="#DejaVuSans-48"/>
      <use x="222.65625" xlink:href="#DejaVuSans-48"/>
     </g>
    </g>
   </g>
   <g id="text_16">
    <g clip-path="url(#pafe676f35c)">
     <!-- 0.220 -->
     <g transform="translate(90.288193 76.547189)rotate(-357.222872)scale(0.1 -0.1)">
      <use xlink:href="#DejaVuSans-48"/>
      <use x="63.623047" xlink:href="#DejaVuSans-46"/>
      <use x="95.410156" xlink:href="#DejaVuSans-50"/>
      <use x="159.033203" xlink:href="#DejaVuSans-50"/>
      <use x="222.65625" xlink:href="#DejaVuSans-48"/>
     </g>
    </g>
   </g>
   <g id="text_17">
    <g clip-path="url(#pafe676f35c)">
     <!-- 0.240 -->
     <g transform="translate(126.461428 76.50178)rotate(-307.312449)scale(0.1 -0.1)">
      <defs>
       <path d="M 37.796875 64.3125 
L 12.890625 25.390625 
L 37.796875 25.390625 
z
M 35.203125 72.90625 
L 47.609375 72.90625 
L 47.609375 25.390625 
L 58.015625 25.390625 
L 58.015625 17.1875 
L 47.609375 17.1875 
L 47.609375 0 
L 37.796875 0 
L 37.796875 17.1875 
L 4.890625 17.1875 
L 4.890625 26.703125 
z
" id="DejaVuSans-52"/>
      </defs>
      <use xlink:href="#DejaVuSans-48"/>
      <use x="63.623047" xlink:href="#DejaVuSans-46"/>
      <use x="95.410156" xlink:href="#DejaVuSans-50"/>
      <use x="159.033203" xlink:href="#DejaVuSans-52"/>
      <use x="222.65625" xlink:href="#DejaVuSans-48"/>
     </g>
    </g>
   </g>
   <g id="text_18">
    <g clip-path="url(#pafe676f35c)">
     <!-- 0.260 -->
     <g transform="translate(169.732656 110.551936)rotate(-48.967066)scale(0.1 -0.1)">
      <use xlink:href="#DejaVuSans-48"/>
      <use x="63.623047" xlink:href="#DejaVuSans-46"/>
      <use x="95.410156" xlink:href="#DejaVuSans-50"/>
      <use x="159.033203" xlink:href="#DejaVuSans-54"/>
      <use x="222.65625" xlink:href="#DejaVuSans-48"/>
     </g>
    </g>
   </g>
   <g id="text_19">
    <g clip-path="url(#pafe676f35c)">
     <!-- 0.280 -->
     <g transform="translate(229.211205 157.94072)rotate(-52.901339)scale(0.1 -0.1)">
      <use xlink:href="#DejaVuSans-48"/>
      <use x="63.623047" xlink:href="#DejaVuSans-46"/>
      <use x="95.410156" xlink:href="#DejaVuSans-50"/>
      <use x="159.033203" xlink:href="#DejaVuSans-56"/>
      <use x="222.65625" xlink:href="#DejaVuSans-48"/>
     </g>
    </g>
   </g>
   <g id="text_20">
    <g clip-path="url(#pafe676f35c)">
     <!-- 0.300 -->
     <g transform="translate(281.33201 114.620779)rotate(-36.971802)scale(0.1 -0.1)">
      <defs>
       <path d="M 40.578125 39.3125 
Q 47.65625 37.796875 51.625 33 
Q 55.609375 28.21875 55.609375 21.1875 
Q 55.609375 10.40625 48.1875 4.484375 
Q 40.765625 -1.421875 27.09375 -1.421875 
Q 22.515625 -1.421875 17.65625 -0.515625 
Q 12.796875 0.390625 7.625 2.203125 
L 7.625 11.71875 
Q 11.71875 9.328125 16.59375 8.109375 
Q 21.484375 6.890625 26.8125 6.890625 
Q 36.078125 6.890625 40.9375 10.546875 
Q 45.796875 14.203125 45.796875 21.1875 
Q 45.796875 27.640625 41.28125 31.265625 
Q 36.765625 34.90625 28.71875 34.90625 
L 20.21875 34.90625 
L 20.21875 43.015625 
L 29.109375 43.015625 
Q 36.375 43.015625 40.234375 45.921875 
Q 44.09375 48.828125 44.09375 54.296875 
Q 44.09375 59.90625 40.109375 62.90625 
Q 36.140625 65.921875 28.71875 65.921875 
Q 24.65625 65.921875 20.015625 65.03125 
Q 15.375 64.15625 9.8125 62.3125 
L 9.8125 71.09375 
Q 15.4375 72.65625 20.34375 73.4375 
Q 25.25 74.21875 29.59375 74.21875 
Q 40.828125 74.21875 47.359375 69.109375 
Q 53.90625 64.015625 53.90625 55.328125 
Q 53.90625 49.265625 50.4375 45.09375 
Q 46.96875 40.921875 40.578125 39.3125 
z
" id="DejaVuSans-51"/>
      </defs>
      <use xlink:href="#DejaVuSans-48"/>
      <use x="63.623047" xlink:href="#DejaVuSans-46"/>
      <use x="95.410156" xlink:href="#DejaVuSans-51"/>
      <use x="159.033203" xlink:href="#DejaVuSans-48"/>
      <use x="222.65625" xlink:href="#DejaVuSans-48"/>
     </g>
    </g>
   </g>
   <g id="text_21">
    <g clip-path="url(#pafe676f35c)">
     <!-- 0.320 -->
     <g transform="translate(50.680244 158.013678)rotate(-19.092718)scale(0.1 -0.1)">
      <use xlink:href="#DejaVuSans-48"/>
      <use x="63.623047" xlink:href="#DejaVuSans-46"/>
      <use x="95.410156" xlink:href="#DejaVuSans-51"/>
      <use x="159.033203" xlink:href="#DejaVuSans-50"/>
      <use x="222.65625" xlink:href="#DejaVuSans-48"/>
     </g>
    </g>
   </g>
   <g id="text_22">
    <g clip-path="url(#pafe676f35c)">
     <!-- 0.340 -->
     <g transform="translate(145.31649 178.629432)rotate(-68.501768)scale(0.1 -0.1)">
      <use xlink:href="#DejaVuSans-48"/>
      <use x="63.623047" xlink:href="#DejaVuSans-46"/>
      <use x="95.410156" xlink:href="#DejaVuSans-51"/>
      <use x="159.033203" xlink:href="#DejaVuSans-52"/>
      <use x="222.65625" xlink:href="#DejaVuSans-48"/>
     </g>
    </g>
   </g>
   <g id="text_23">
    <g clip-path="url(#pafe676f35c)">
     <!-- 0.360 -->
     <g transform="translate(48.623231 192.944635)rotate(-9.476213)scale(0.1 -0.1)">
      <use xlink:href="#DejaVuSans-48"/>
      <use x="63.623047" xlink:href="#DejaVuSans-46"/>
      <use x="95.410156" xlink:href="#DejaVuSans-51"/>
      <use x="159.033203" xlink:href="#DejaVuSans-54"/>
      <use x="222.65625" xlink:href="#DejaVuSans-48"/>
     </g>
    </g>
   </g>
   <g id="text_24">
    <g clip-path="url(#pafe676f35c)">
     <!-- 0.380 -->
     <g transform="translate(64.188166 215.67472)rotate(-12.905947)scale(0.1 -0.1)">
      <use xlink:href="#DejaVuSans-48"/>
      <use x="63.623047" xlink:href="#DejaVuSans-46"/>
      <use x="95.410156" xlink:href="#DejaVuSans-51"/>
      <use x="159.033203" xlink:href="#DejaVuSans-56"/>
      <use x="222.65625" xlink:href="#DejaVuSans-48"/>
     </g>
    </g>
   </g>
   <g id="text_25">
    <g clip-path="url(#pafe676f35c)">
     <!-- 0.400 -->
     <g transform="translate(350.785365 153.802271)rotate(-342.928158)scale(0.1 -0.1)">
      <use xlink:href="#DejaVuSans-48"/>
      <use x="63.623047" xlink:href="#DejaVuSans-46"/>
      <use x="95.410156" xlink:href="#DejaVuSans-52"/>
      <use x="159.033203" xlink:href="#DejaVuSans-48"/>
      <use x="222.65625" xlink:href="#DejaVuSans-48"/>
     </g>
    </g>
   </g>
   <g id="text_26">
    <!-- Max(I) -->
    <g transform="translate(211.958516 33.297165)scale(0.16 -0.16)">
     <defs>
      <path d="M 1.125 1.8125 
Q 7.328125 2.4375 9.078125 4.609375 
Q 10.84375 6.78125 10.84375 14.703125 
L 10.84375 55.328125 
Q 10.84375 60.75 9.125 62.375 
Q 7.421875 64.015625 1.375 64.3125 
L 1.375 66.15625 
L 21.140625 66.15625 
L 44.28125 15.71875 
L 66.40625 66.15625 
L 86.328125 66.15625 
L 86.328125 64.3125 
Q 80.765625 63.921875 79.15625 62.28125 
Q 77.546875 60.640625 77.546875 55.328125 
L 77.546875 10.84375 
Q 77.546875 5.375 79.15625 3.828125 
Q 80.765625 2.296875 86.328125 1.8125 
L 86.328125 0 
L 58.296875 0 
L 58.296875 1.8125 
Q 64.359375 2.296875 65.84375 3.984375 
Q 67.328125 5.671875 67.328125 12.015625 
L 67.328125 56.9375 
L 41.75 0 
L 40.375 0 
L 15.234375 54.59375 
L 15.234375 14.703125 
Q 15.234375 6.5 17.625 4 
Q 19.1875 2.390625 24.609375 1.8125 
L 24.609375 0 
L 1.125 0 
z
" id="Times-Roman-77"/>
      <path d="M 28.65625 27.046875 
Q 23.046875 25.203125 19.390625 22.953125 
Q 12.359375 18.609375 12.359375 13.09375 
Q 12.359375 8.640625 15.28125 6.546875 
Q 17.1875 5.171875 19.53125 5.171875 
Q 22.75 5.171875 25.703125 6.984375 
Q 28.65625 8.796875 28.65625 11.578125 
z
M 3.65625 9.71875 
Q 3.65625 16.796875 10.75 21.53125 
Q 15.234375 24.46875 28.65625 29.5 
L 28.65625 33.640625 
Q 28.65625 38.625 27.6875 40.578125 
Q 26.03125 43.84375 20.796875 43.84375 
Q 18.3125 43.84375 16.0625 42.578125 
Q 13.8125 41.265625 13.8125 38.96875 
Q 13.8125 38.375 14.0625 36.984375 
Q 14.3125 35.59375 14.3125 35.203125 
Q 14.3125 32.46875 12.5 31.390625 
Q 11.46875 30.765625 10.0625 30.765625 
Q 7.859375 30.765625 6.6875 32.203125 
Q 5.515625 33.640625 5.515625 35.40625 
Q 5.515625 38.8125 9.734375 42.546875 
Q 13.96875 46.296875 22.125 46.296875 
Q 31.59375 46.296875 34.96875 40.140625 
Q 36.765625 36.765625 36.765625 30.328125 
L 36.765625 10.75 
Q 36.765625 7.90625 37.15625 6.84375 
Q 37.796875 4.9375 39.796875 4.9375 
Q 40.921875 4.9375 41.65625 5.265625 
Q 42.390625 5.609375 44.1875 6.9375 
L 44.1875 4.390625 
Q 42.625 2.484375 40.828125 1.265625 
Q 38.09375 -0.59375 35.25 -0.59375 
Q 31.9375 -0.59375 30.4375 1.5625 
Q 28.953125 3.71875 28.8125 6.6875 
Q 25.09375 3.46875 22.46875 1.90625 
Q 18.015625 -0.734375 14.015625 -0.734375 
Q 9.8125 -0.734375 6.734375 2.21875 
Q 3.65625 5.171875 3.65625 9.71875 
z
M 22.265625 46.296875 
z
" id="Times-Roman-97"/>
      <path d="M 23.140625 44.875 
L 23.140625 43.5 
Q 21.296875 43.453125 20 42.984375 
Q 18.703125 42.53125 18.703125 41.0625 
Q 18.703125 40.140625 21.296875 35.84375 
Q 22.65625 33.59375 24.75 30.328125 
Q 27.640625 34.28125 29.046875 36.53125 
Q 31.453125 40.140625 31.453125 41.21875 
Q 31.453125 42.484375 30.421875 42.921875 
Q 29.390625 43.359375 27.546875 43.5 
L 27.546875 44.875 
L 43.265625 44.875 
L 43.265625 43.5 
Q 40.765625 43.3125 38.609375 42.15625 
Q 36.46875 41.015625 35.15625 39.109375 
L 26.8125 27.046875 
L 39.703125 7.515625 
Q 42.1875 3.71875 43.921875 2.59375 
Q 45.65625 1.46875 47.90625 1.375 
L 47.90625 0 
L 27.734375 0 
L 27.734375 1.375 
L 29.15625 1.46875 
Q 30.28125 1.5625 31.03125 2.140625 
Q 31.78125 2.734375 31.78125 3.609375 
Q 31.78125 4.546875 29.9375 7.71875 
Q 29.046875 9.28125 27.296875 11.96875 
Q 26.46875 13.28125 24.828125 15.625 
Q 23.1875 17.96875 22.078125 19.625 
L 14.203125 7.375 
Q 12.796875 5.171875 12.453125 4.4375 
Q 12.109375 3.71875 12.109375 3.21875 
Q 12.109375 2.296875 12.859375 2 
Q 13.625 1.703125 16.15625 1.375 
L 16.15625 0 
L 1.703125 0 
L 1.703125 1.375 
Q 4.34375 1.90625 5.609375 2.734375 
Q 6.890625 3.5625 8.984375 6.59375 
L 20.359375 23.140625 
L 10.984375 37.359375 
Q 8.15625 41.609375 7.078125 42.390625 
Q 6 43.171875 2.390625 43.5 
L 2.390625 44.875 
z
" id="Times-Roman-120"/>
      <path d="M 4.59375 25.09375 
Q 4.59375 42.09375 14.75 54.9375 
Q 21 62.796875 29.5 67.578125 
L 30.421875 65.96875 
Q 22.5625 59.71875 19.1875 53.8125 
Q 13.28125 43.5 13.28125 26.375 
Q 13.28125 13.671875 15.53125 5.421875 
Q 19.484375 -9.03125 30.421875 -16.21875 
L 29.15625 -17.828125 
Q 23.140625 -14.9375 16.15625 -6.546875 
Q 4.59375 7.375 4.59375 25.09375 
z
" id="Times-Roman-40"/>
      <path d="M 1.609375 1.8125 
Q 7.71875 2.25 9.515625 3.640625 
Q 11.328125 5.03125 11.328125 10.84375 
L 11.328125 55.328125 
Q 11.328125 60.84375 9.515625 62.421875 
Q 7.71875 64.015625 1.609375 64.3125 
L 1.609375 66.15625 
L 31.203125 66.15625 
L 31.203125 64.3125 
Q 25.09375 64.015625 23.28125 62.421875 
Q 21.484375 60.84375 21.484375 55.328125 
L 21.484375 10.84375 
Q 21.484375 5.03125 23.28125 3.640625 
Q 25.09375 2.25 31.203125 1.8125 
L 31.203125 0 
L 1.609375 0 
z
M 16.40625 66.15625 
z
" id="Times-Roman-73"/>
      <path d="M 28.46875 24.609375 
Q 28.46875 17.328125 26.5625 10.828125 
Q 24.65625 4.34375 21 -1.421875 
Q 17.140625 -7.5625 10.6875 -12.890625 
Q 6.453125 -16.40625 3.5625 -17.828125 
L 2.640625 -16.21875 
Q 10.15625 -10.5 13.625 -4.546875 
Q 19.78125 6 19.78125 23.34375 
Q 19.78125 37.359375 16.9375 46.234375 
Q 12.984375 58.796875 2.640625 65.96875 
L 3.90625 67.578125 
Q 11.625 63.28125 18.265625 54.59375 
Q 28.46875 41.21875 28.46875 24.609375 
z
" id="Times-Roman-41"/>
     </defs>
     <use xlink:href="#Times-Roman-77"/>
     <use x="88.916016" xlink:href="#Times-Roman-97"/>
     <use x="133.300781" xlink:href="#Times-Roman-120"/>
     <use x="183.300781" xlink:href="#Times-Roman-40"/>
     <use x="216.601562" xlink:href="#Times-Roman-73"/>
     <use x="249.902344" xlink:href="#Times-Roman-41"/>
    </g>
   </g>
  </g>
 </g>
 <defs>
  <clipPath id="pafe676f35c">
   <rect height="195.485669" width="349.416138" x="59.906697" y="39.297165"/>
  </clipPath>
 </defs>
</svg>
