<?xml version="1.0" encoding="utf-8" standalone="no"?>
<!DOCTYPE svg PUBLIC "-//W3C//DTD SVG 1.1//EN"
  "http://www.w3.org/Graphics/SVG/1.1/DTD/svg11.dtd">
<!-- Created with matplotlib (https://matplotlib.org/) -->
<svg height="288pt" version="1.1" viewBox="0 0 432 288" width="432pt" xmlns="http://www.w3.org/2000/svg" xmlns:xlink="http://www.w3.org/1999/xlink">
 <metadata>
  <rdf:RDF xmlns:cc="http://creativecommons.org/ns#" xmlns:dc="http://purl.org/dc/elements/1.1/" xmlns:rdf="http://www.w3.org/1999/02/22-rdf-syntax-ns#">
   <cc:Work>
    <dc:type rdf:resource="http://purl.org/dc/dcmitype/StillImage"/>
    <dc:date>2021-03-17T12:27:46.561250</dc:date>
    <dc:format>image/svg+xml</dc:format>
    <dc:creator>
     <cc:Agent>
      <dc:title>Matplotlib v3.3.4, https://matplotlib.org/</dc:title>
     </cc:Agent>
    </dc:creator>
   </cc:Work>
  </rdf:RDF>
 </metadata>
 <defs>
  <style type="text/css">*{stroke-linecap:butt;stroke-linejoin:round;}</style>
 </defs>
 <g id="figure_1">
  <g id="patch_1">
   <path d="M 0 288 
L 432 288 
L 432 0 
L 0 0 
z
" style="fill:#ffffff;"/>
  </g>
  <g id="axes_1">
   <g id="patch_2">
    <path d="M 59.906697 234.782835 
L 409.322835 234.782835 
L 409.322835 39.297165 
L 59.906697 39.297165 
z
" style="fill:#ffffff;"/>
   </g>
   <g id="matplotlib.axis_1">
    <g id="xtick_1">
     <g id="line2d_1">
      <path clip-path="url(#p740b0693ae)" d="M 130.377178 234.782835 
L 130.377178 39.297165 
" style="fill:none;stroke:#000000;stroke-linecap:square;stroke-opacity:0.1;stroke-width:0.5;"/>
     </g>
     <g id="line2d_2">
      <defs>
       <path d="M 0 0 
L 0 -2.5 
" id="md10a4f6b31" style="stroke:#000000;stroke-width:0.5;"/>
      </defs>
      <g>
       <use style="stroke:#000000;stroke-width:0.5;" x="130.377178" xlink:href="#md10a4f6b31" y="234.782835"/>
      </g>
     </g>
     <g id="text_1">
      <!-- $\mathregular{25}$ -->
      <g transform="translate(124.377178 246.510335)scale(0.12 -0.12)">
       <defs>
        <path d="M 2.984375 1.125 
Q 20.84375 19.671875 27.234375 28.359375 
Q 33.640625 37.0625 33.640625 45.3125 
Q 33.640625 52.546875 29.734375 56.328125 
Q 25.828125 60.109375 20.40625 60.109375 
Q 13.71875 60.109375 9.578125 55.21875 
Q 7.28125 52.546875 5.171875 46.96875 
L 3.078125 47.40625 
Q 5.515625 58.640625 11.34375 63.015625 
Q 17.1875 67.390625 23.875 67.390625 
Q 32.125 67.390625 37.21875 62.1875 
Q 42.328125 56.984375 42.328125 49.46875 
Q 42.328125 41.453125 36.8125 34.03125 
Q 31.296875 26.609375 12.84375 7.625 
L 35.25 7.625 
Q 39.9375 7.625 41.84375 8.734375 
Q 43.75 9.859375 46.140625 14.203125 
L 47.40625 13.625 
L 42 0 
L 2.984375 0 
z
" id="Times-Roman-50"/>
        <path d="M 7.46875 8.9375 
Q 10.25 8.9375 14.765625 5.78125 
Q 19.28125 2.640625 21.734375 2.640625 
Q 27.34375 2.640625 31.546875 7.59375 
Q 35.75 12.546875 35.75 19.78125 
Q 35.75 32.421875 22.265625 37.984375 
Q 14.796875 41.0625 8.34375 41.0625 
Q 7.28125 41.0625 7 41.140625 
Q 6.734375 41.21875 6.34375 41.65625 
Q 6.453125 42.046875 6.515625 42.3125 
Q 6.59375 42.578125 6.6875 42.828125 
L 17.328125 66.15625 
L 38.28125 66.15625 
Q 39.84375 66.15625 40.6875 66.6875 
Q 41.546875 67.234375 42.921875 68.703125 
L 43.703125 68.015625 
L 39.890625 58.984375 
Q 39.703125 58.546875 38.8125 58.421875 
Q 37.9375 58.296875 36.921875 58.296875 
L 18.015625 58.296875 
L 13.875 49.75 
Q 21.875 48.390625 25.59375 47.171875 
Q 31.6875 45.125 35.796875 41.109375 
Q 39.3125 37.640625 41.109375 33.3125 
Q 42.921875 29 42.921875 24.171875 
Q 42.921875 13.375 35.234375 6.140625 
Q 27.546875 -1.078125 15.765625 -1.078125 
Q 10.984375 -1.078125 8.0625 -0.140625 
Q 3.171875 1.375 3.171875 5.28125 
Q 3.171875 6.734375 4.21875 7.828125 
Q 5.28125 8.9375 7.46875 8.9375 
z
" id="Times-Roman-53"/>
       </defs>
       <use transform="translate(0 0.296875)" xlink:href="#Times-Roman-50"/>
       <use transform="translate(50 0.296875)" xlink:href="#Times-Roman-53"/>
      </g>
     </g>
    </g>
    <g id="xtick_2">
     <g id="line2d_3">
      <path clip-path="url(#p740b0693ae)" d="M 203.78393 234.782835 
L 203.78393 39.297165 
" style="fill:none;stroke:#000000;stroke-linecap:square;stroke-opacity:0.1;stroke-width:0.5;"/>
     </g>
     <g id="line2d_4">
      <g>
       <use style="stroke:#000000;stroke-width:0.5;" x="203.78393" xlink:href="#md10a4f6b31" y="234.782835"/>
      </g>
     </g>
     <g id="text_2">
      <!-- $\mathregular{50}$ -->
      <g transform="translate(197.78393 246.510335)scale(0.12 -0.12)">
       <defs>
        <path d="M 23.921875 1.8125 
Q 31.109375 1.8125 33.78125 9.671875 
Q 36.46875 17.53125 36.46875 32.421875 
Q 36.46875 44.28125 34.859375 51.375 
Q 31.84375 64.546875 23.53125 64.546875 
Q 15.234375 64.546875 12.15625 50.984375 
Q 10.546875 43.75 10.546875 31.9375 
Q 10.546875 20.84375 12.203125 14.203125 
Q 15.328125 1.8125 23.921875 1.8125 
z
M 23.78125 67.1875 
Q 35.015625 67.1875 41.21875 55.421875 
Q 46.140625 45.90625 46.140625 33.546875 
Q 46.140625 23.828125 43.109375 15.234375 
Q 37.40625 -0.921875 23.34375 -0.921875 
Q 13.71875 -0.921875 7.515625 7.8125 
Q 0.875 17.140625 0.875 33.15625 
Q 0.875 45.75 5.328125 54.828125 
Q 11.328125 67.1875 23.78125 67.1875 
z
" id="Times-Roman-48"/>
       </defs>
       <use transform="translate(0 0.296875)" xlink:href="#Times-Roman-53"/>
       <use transform="translate(50 0.296875)" xlink:href="#Times-Roman-48"/>
      </g>
     </g>
    </g>
    <g id="xtick_3">
     <g id="line2d_5">
      <path clip-path="url(#p740b0693ae)" d="M 277.190682 234.782835 
L 277.190682 39.297165 
" style="fill:none;stroke:#000000;stroke-linecap:square;stroke-opacity:0.1;stroke-width:0.5;"/>
     </g>
     <g id="line2d_6">
      <g>
       <use style="stroke:#000000;stroke-width:0.5;" x="277.190682" xlink:href="#md10a4f6b31" y="234.782835"/>
      </g>
     </g>
     <g id="text_3">
      <!-- $\mathregular{75}$ -->
      <g transform="translate(271.190682 246.510335)scale(0.12 -0.12)">
       <defs>
        <path d="M 44.875 66.15625 
L 44.875 64.546875 
L 23.6875 -0.921875 
L 17.234375 -0.921875 
L 37.015625 58.796875 
L 15.71875 58.796875 
Q 10.984375 58.796875 8.90625 57.234375 
Q 6.84375 55.671875 3.65625 50.6875 
L 1.953125 51.46875 
Q 5.125 59.28125 5.875 61.109375 
Q 6.640625 62.9375 7.859375 66.15625 
z
" id="Times-Roman-55"/>
       </defs>
       <use transform="translate(0 0.296875)" xlink:href="#Times-Roman-55"/>
       <use transform="translate(50 0.296875)" xlink:href="#Times-Roman-53"/>
      </g>
     </g>
    </g>
    <g id="xtick_4">
     <g id="line2d_7">
      <path clip-path="url(#p740b0693ae)" d="M 350.597433 234.782835 
L 350.597433 39.297165 
" style="fill:none;stroke:#000000;stroke-linecap:square;stroke-opacity:0.1;stroke-width:0.5;"/>
     </g>
     <g id="line2d_8">
      <g>
       <use style="stroke:#000000;stroke-width:0.5;" x="350.597433" xlink:href="#md10a4f6b31" y="234.782835"/>
      </g>
     </g>
     <g id="text_4">
      <!-- $\mathregular{100}$ -->
      <g transform="translate(341.597433 246.510335)scale(0.12 -0.12)">
       <defs>
        <path d="M 29.59375 67.09375 
Q 29.78125 66.84375 29.796875 66.71875 
Q 29.828125 66.609375 29.828125 66.15625 
L 29.828125 7.375 
Q 29.828125 3.609375 31.828125 2.578125 
Q 33.84375 1.5625 39.3125 1.375 
L 39.3125 0 
L 11.765625 0 
L 11.765625 1.46875 
Q 17.671875 1.765625 19.484375 3.078125 
Q 21.296875 4.390625 21.296875 8.796875 
L 21.296875 54 
Q 21.296875 56.34375 20.703125 57.5625 
Q 20.125 58.796875 18.171875 58.796875 
Q 16.890625 58.796875 14.859375 58.078125 
Q 12.84375 57.375 11.078125 56.59375 
L 11.078125 57.953125 
L 29 67.09375 
L 29.59375 67.09375 
z
" id="Times-Roman-49"/>
       </defs>
       <use transform="translate(0 0.8125)" xlink:href="#Times-Roman-49"/>
       <use transform="translate(50 0.8125)" xlink:href="#Times-Roman-48"/>
       <use transform="translate(100 0.8125)" xlink:href="#Times-Roman-48"/>
      </g>
     </g>
    </g>
    <g id="text_5">
     <!-- Social Distancing Period [days] -->
     <g transform="translate(141.731953 262.24221)scale(0.12 -0.12)">
      <defs>
       <path d="M 53.515625 70.515625 
L 53.515625 60.890625 
Q 47.90625 63.578125 42.921875 64.890625 
Q 37.9375 66.21875 33.296875 66.21875 
Q 25.25 66.21875 20.875 63.09375 
Q 16.5 59.96875 16.5 54.203125 
Q 16.5 49.359375 19.40625 46.890625 
Q 22.3125 44.4375 30.421875 42.921875 
L 36.375 41.703125 
Q 47.40625 39.59375 52.65625 34.296875 
Q 57.90625 29 57.90625 20.125 
Q 57.90625 9.515625 50.796875 4.046875 
Q 43.703125 -1.421875 29.984375 -1.421875 
Q 24.8125 -1.421875 18.96875 -0.25 
Q 13.140625 0.921875 6.890625 3.21875 
L 6.890625 13.375 
Q 12.890625 10.015625 18.65625 8.296875 
Q 24.421875 6.59375 29.984375 6.59375 
Q 38.421875 6.59375 43.015625 9.90625 
Q 47.609375 13.234375 47.609375 19.390625 
Q 47.609375 24.75 44.3125 27.78125 
Q 41.015625 30.8125 33.5 32.328125 
L 27.484375 33.5 
Q 16.453125 35.6875 11.515625 40.375 
Q 6.59375 45.0625 6.59375 53.421875 
Q 6.59375 63.09375 13.40625 68.65625 
Q 20.21875 74.21875 32.171875 74.21875 
Q 37.3125 74.21875 42.625 73.28125 
Q 47.953125 72.359375 53.515625 70.515625 
z
" id="DejaVuSans-83"/>
       <path d="M 30.609375 48.390625 
Q 23.390625 48.390625 19.1875 42.75 
Q 14.984375 37.109375 14.984375 27.296875 
Q 14.984375 17.484375 19.15625 11.84375 
Q 23.34375 6.203125 30.609375 6.203125 
Q 37.796875 6.203125 41.984375 11.859375 
Q 46.1875 17.53125 46.1875 27.296875 
Q 46.1875 37.015625 41.984375 42.703125 
Q 37.796875 48.390625 30.609375 48.390625 
z
M 30.609375 56 
Q 42.328125 56 49.015625 48.375 
Q 55.71875 40.765625 55.71875 27.296875 
Q 55.71875 13.875 49.015625 6.21875 
Q 42.328125 -1.421875 30.609375 -1.421875 
Q 18.84375 -1.421875 12.171875 6.21875 
Q 5.515625 13.875 5.515625 27.296875 
Q 5.515625 40.765625 12.171875 48.375 
Q 18.84375 56 30.609375 56 
z
" id="DejaVuSans-111"/>
       <path d="M 48.78125 52.59375 
L 48.78125 44.1875 
Q 44.96875 46.296875 41.140625 47.34375 
Q 37.3125 48.390625 33.40625 48.390625 
Q 24.65625 48.390625 19.8125 42.84375 
Q 14.984375 37.3125 14.984375 27.296875 
Q 14.984375 17.28125 19.8125 11.734375 
Q 24.65625 6.203125 33.40625 6.203125 
Q 37.3125 6.203125 41.140625 7.25 
Q 44.96875 8.296875 48.78125 10.40625 
L 48.78125 2.09375 
Q 45.015625 0.34375 40.984375 -0.53125 
Q 36.96875 -1.421875 32.421875 -1.421875 
Q 20.0625 -1.421875 12.78125 6.34375 
Q 5.515625 14.109375 5.515625 27.296875 
Q 5.515625 40.671875 12.859375 48.328125 
Q 20.21875 56 33.015625 56 
Q 37.15625 56 41.109375 55.140625 
Q 45.0625 54.296875 48.78125 52.59375 
z
" id="DejaVuSans-99"/>
       <path d="M 9.421875 54.6875 
L 18.40625 54.6875 
L 18.40625 0 
L 9.421875 0 
z
M 9.421875 75.984375 
L 18.40625 75.984375 
L 18.40625 64.59375 
L 9.421875 64.59375 
z
" id="DejaVuSans-105"/>
       <path d="M 34.28125 27.484375 
Q 23.390625 27.484375 19.1875 25 
Q 14.984375 22.515625 14.984375 16.5 
Q 14.984375 11.71875 18.140625 8.90625 
Q 21.296875 6.109375 26.703125 6.109375 
Q 34.1875 6.109375 38.703125 11.40625 
Q 43.21875 16.703125 43.21875 25.484375 
L 43.21875 27.484375 
z
M 52.203125 31.203125 
L 52.203125 0 
L 43.21875 0 
L 43.21875 8.296875 
Q 40.140625 3.328125 35.546875 0.953125 
Q 30.953125 -1.421875 24.3125 -1.421875 
Q 15.921875 -1.421875 10.953125 3.296875 
Q 6 8.015625 6 15.921875 
Q 6 25.140625 12.171875 29.828125 
Q 18.359375 34.515625 30.609375 34.515625 
L 43.21875 34.515625 
L 43.21875 35.40625 
Q 43.21875 41.609375 39.140625 45 
Q 35.0625 48.390625 27.6875 48.390625 
Q 23 48.390625 18.546875 47.265625 
Q 14.109375 46.140625 10.015625 43.890625 
L 10.015625 52.203125 
Q 14.9375 54.109375 19.578125 55.046875 
Q 24.21875 56 28.609375 56 
Q 40.484375 56 46.34375 49.84375 
Q 52.203125 43.703125 52.203125 31.203125 
z
" id="DejaVuSans-97"/>
       <path d="M 9.421875 75.984375 
L 18.40625 75.984375 
L 18.40625 0 
L 9.421875 0 
z
" id="DejaVuSans-108"/>
       <path id="DejaVuSans-32"/>
       <path d="M 19.671875 64.796875 
L 19.671875 8.109375 
L 31.59375 8.109375 
Q 46.6875 8.109375 53.6875 14.9375 
Q 60.6875 21.78125 60.6875 36.53125 
Q 60.6875 51.171875 53.6875 57.984375 
Q 46.6875 64.796875 31.59375 64.796875 
z
M 9.8125 72.90625 
L 30.078125 72.90625 
Q 51.265625 72.90625 61.171875 64.09375 
Q 71.09375 55.28125 71.09375 36.53125 
Q 71.09375 17.671875 61.125 8.828125 
Q 51.171875 0 30.078125 0 
L 9.8125 0 
z
" id="DejaVuSans-68"/>
       <path d="M 44.28125 53.078125 
L 44.28125 44.578125 
Q 40.484375 46.53125 36.375 47.5 
Q 32.28125 48.484375 27.875 48.484375 
Q 21.1875 48.484375 17.84375 46.4375 
Q 14.5 44.390625 14.5 40.28125 
Q 14.5 37.15625 16.890625 35.375 
Q 19.28125 33.59375 26.515625 31.984375 
L 29.59375 31.296875 
Q 39.15625 29.25 43.1875 25.515625 
Q 47.21875 21.78125 47.21875 15.09375 
Q 47.21875 7.46875 41.1875 3.015625 
Q 35.15625 -1.421875 24.609375 -1.421875 
Q 20.21875 -1.421875 15.453125 -0.5625 
Q 10.6875 0.296875 5.421875 2 
L 5.421875 11.28125 
Q 10.40625 8.6875 15.234375 7.390625 
Q 20.0625 6.109375 24.8125 6.109375 
Q 31.15625 6.109375 34.5625 8.28125 
Q 37.984375 10.453125 37.984375 14.40625 
Q 37.984375 18.0625 35.515625 20.015625 
Q 33.0625 21.96875 24.703125 23.78125 
L 21.578125 24.515625 
Q 13.234375 26.265625 9.515625 29.90625 
Q 5.8125 33.546875 5.8125 39.890625 
Q 5.8125 47.609375 11.28125 51.796875 
Q 16.75 56 26.8125 56 
Q 31.78125 56 36.171875 55.265625 
Q 40.578125 54.546875 44.28125 53.078125 
z
" id="DejaVuSans-115"/>
       <path d="M 18.3125 70.21875 
L 18.3125 54.6875 
L 36.8125 54.6875 
L 36.8125 47.703125 
L 18.3125 47.703125 
L 18.3125 18.015625 
Q 18.3125 11.328125 20.140625 9.421875 
Q 21.96875 7.515625 27.59375 7.515625 
L 36.8125 7.515625 
L 36.8125 0 
L 27.59375 0 
Q 17.1875 0 13.234375 3.875 
Q 9.28125 7.765625 9.28125 18.015625 
L 9.28125 47.703125 
L 2.6875 47.703125 
L 2.6875 54.6875 
L 9.28125 54.6875 
L 9.28125 70.21875 
z
" id="DejaVuSans-116"/>
       <path d="M 54.890625 33.015625 
L 54.890625 0 
L 45.90625 0 
L 45.90625 32.71875 
Q 45.90625 40.484375 42.875 44.328125 
Q 39.84375 48.1875 33.796875 48.1875 
Q 26.515625 48.1875 22.3125 43.546875 
Q 18.109375 38.921875 18.109375 30.90625 
L 18.109375 0 
L 9.078125 0 
L 9.078125 54.6875 
L 18.109375 54.6875 
L 18.109375 46.1875 
Q 21.34375 51.125 25.703125 53.5625 
Q 30.078125 56 35.796875 56 
Q 45.21875 56 50.046875 50.171875 
Q 54.890625 44.34375 54.890625 33.015625 
z
" id="DejaVuSans-110"/>
       <path d="M 45.40625 27.984375 
Q 45.40625 37.75 41.375 43.109375 
Q 37.359375 48.484375 30.078125 48.484375 
Q 22.859375 48.484375 18.828125 43.109375 
Q 14.796875 37.75 14.796875 27.984375 
Q 14.796875 18.265625 18.828125 12.890625 
Q 22.859375 7.515625 30.078125 7.515625 
Q 37.359375 7.515625 41.375 12.890625 
Q 45.40625 18.265625 45.40625 27.984375 
z
M 54.390625 6.78125 
Q 54.390625 -7.171875 48.1875 -13.984375 
Q 42 -20.796875 29.203125 -20.796875 
Q 24.46875 -20.796875 20.265625 -20.09375 
Q 16.0625 -19.390625 12.109375 -17.921875 
L 12.109375 -9.1875 
Q 16.0625 -11.328125 19.921875 -12.34375 
Q 23.78125 -13.375 27.78125 -13.375 
Q 36.625 -13.375 41.015625 -8.765625 
Q 45.40625 -4.15625 45.40625 5.171875 
L 45.40625 9.625 
Q 42.625 4.78125 38.28125 2.390625 
Q 33.9375 0 27.875 0 
Q 17.828125 0 11.671875 7.65625 
Q 5.515625 15.328125 5.515625 27.984375 
Q 5.515625 40.671875 11.671875 48.328125 
Q 17.828125 56 27.875 56 
Q 33.9375 56 38.28125 53.609375 
Q 42.625 51.21875 45.40625 46.390625 
L 45.40625 54.6875 
L 54.390625 54.6875 
z
" id="DejaVuSans-103"/>
       <path d="M 19.671875 64.796875 
L 19.671875 37.40625 
L 32.078125 37.40625 
Q 38.96875 37.40625 42.71875 40.96875 
Q 46.484375 44.53125 46.484375 51.125 
Q 46.484375 57.671875 42.71875 61.234375 
Q 38.96875 64.796875 32.078125 64.796875 
z
M 9.8125 72.90625 
L 32.078125 72.90625 
Q 44.34375 72.90625 50.609375 67.359375 
Q 56.890625 61.8125 56.890625 51.125 
Q 56.890625 40.328125 50.609375 34.8125 
Q 44.34375 29.296875 32.078125 29.296875 
L 19.671875 29.296875 
L 19.671875 0 
L 9.8125 0 
z
" id="DejaVuSans-80"/>
       <path d="M 56.203125 29.59375 
L 56.203125 25.203125 
L 14.890625 25.203125 
Q 15.484375 15.921875 20.484375 11.0625 
Q 25.484375 6.203125 34.421875 6.203125 
Q 39.59375 6.203125 44.453125 7.46875 
Q 49.3125 8.734375 54.109375 11.28125 
L 54.109375 2.78125 
Q 49.265625 0.734375 44.1875 -0.34375 
Q 39.109375 -1.421875 33.890625 -1.421875 
Q 20.796875 -1.421875 13.15625 6.1875 
Q 5.515625 13.8125 5.515625 26.8125 
Q 5.515625 40.234375 12.765625 48.109375 
Q 20.015625 56 32.328125 56 
Q 43.359375 56 49.78125 48.890625 
Q 56.203125 41.796875 56.203125 29.59375 
z
M 47.21875 32.234375 
Q 47.125 39.59375 43.09375 43.984375 
Q 39.0625 48.390625 32.421875 48.390625 
Q 24.90625 48.390625 20.390625 44.140625 
Q 15.875 39.890625 15.1875 32.171875 
z
" id="DejaVuSans-101"/>
       <path d="M 41.109375 46.296875 
Q 39.59375 47.171875 37.8125 47.578125 
Q 36.03125 48 33.890625 48 
Q 26.265625 48 22.1875 43.046875 
Q 18.109375 38.09375 18.109375 28.8125 
L 18.109375 0 
L 9.078125 0 
L 9.078125 54.6875 
L 18.109375 54.6875 
L 18.109375 46.1875 
Q 20.953125 51.171875 25.484375 53.578125 
Q 30.03125 56 36.53125 56 
Q 37.453125 56 38.578125 55.875 
Q 39.703125 55.765625 41.0625 55.515625 
z
" id="DejaVuSans-114"/>
       <path d="M 45.40625 46.390625 
L 45.40625 75.984375 
L 54.390625 75.984375 
L 54.390625 0 
L 45.40625 0 
L 45.40625 8.203125 
Q 42.578125 3.328125 38.25 0.953125 
Q 33.9375 -1.421875 27.875 -1.421875 
Q 17.96875 -1.421875 11.734375 6.484375 
Q 5.515625 14.40625 5.515625 27.296875 
Q 5.515625 40.1875 11.734375 48.09375 
Q 17.96875 56 27.875 56 
Q 33.9375 56 38.25 53.625 
Q 42.578125 51.265625 45.40625 46.390625 
z
M 14.796875 27.296875 
Q 14.796875 17.390625 18.875 11.75 
Q 22.953125 6.109375 30.078125 6.109375 
Q 37.203125 6.109375 41.296875 11.75 
Q 45.40625 17.390625 45.40625 27.296875 
Q 45.40625 37.203125 41.296875 42.84375 
Q 37.203125 48.484375 30.078125 48.484375 
Q 22.953125 48.484375 18.875 42.84375 
Q 14.796875 37.203125 14.796875 27.296875 
z
" id="DejaVuSans-100"/>
       <path d="M 8.59375 75.984375 
L 29.296875 75.984375 
L 29.296875 69 
L 17.578125 69 
L 17.578125 -6.203125 
L 29.296875 -6.203125 
L 29.296875 -13.1875 
L 8.59375 -13.1875 
z
" id="DejaVuSans-91"/>
       <path d="M 32.171875 -5.078125 
Q 28.375 -14.84375 24.75 -17.8125 
Q 21.140625 -20.796875 15.09375 -20.796875 
L 7.90625 -20.796875 
L 7.90625 -13.28125 
L 13.1875 -13.28125 
Q 16.890625 -13.28125 18.9375 -11.515625 
Q 21 -9.765625 23.484375 -3.21875 
L 25.09375 0.875 
L 2.984375 54.6875 
L 12.5 54.6875 
L 29.59375 11.921875 
L 46.6875 54.6875 
L 56.203125 54.6875 
z
" id="DejaVuSans-121"/>
       <path d="M 30.421875 75.984375 
L 30.421875 -13.1875 
L 9.71875 -13.1875 
L 9.71875 -6.203125 
L 21.390625 -6.203125 
L 21.390625 69 
L 9.71875 69 
L 9.71875 75.984375 
z
" id="DejaVuSans-93"/>
      </defs>
      <use xlink:href="#DejaVuSans-83"/>
      <use x="63.476562" xlink:href="#DejaVuSans-111"/>
      <use x="124.658203" xlink:href="#DejaVuSans-99"/>
      <use x="179.638672" xlink:href="#DejaVuSans-105"/>
      <use x="207.421875" xlink:href="#DejaVuSans-97"/>
      <use x="268.701172" xlink:href="#DejaVuSans-108"/>
      <use x="296.484375" xlink:href="#DejaVuSans-32"/>
      <use x="328.271484" xlink:href="#DejaVuSans-68"/>
      <use x="405.273438" xlink:href="#DejaVuSans-105"/>
      <use x="433.056641" xlink:href="#DejaVuSans-115"/>
      <use x="485.15625" xlink:href="#DejaVuSans-116"/>
      <use x="524.365234" xlink:href="#DejaVuSans-97"/>
      <use x="585.644531" xlink:href="#DejaVuSans-110"/>
      <use x="649.023438" xlink:href="#DejaVuSans-99"/>
      <use x="704.003906" xlink:href="#DejaVuSans-105"/>
      <use x="731.787109" xlink:href="#DejaVuSans-110"/>
      <use x="795.166016" xlink:href="#DejaVuSans-103"/>
      <use x="858.642578" xlink:href="#DejaVuSans-32"/>
      <use x="890.429688" xlink:href="#DejaVuSans-80"/>
      <use x="947.107422" xlink:href="#DejaVuSans-101"/>
      <use x="1008.630859" xlink:href="#DejaVuSans-114"/>
      <use x="1049.744141" xlink:href="#DejaVuSans-105"/>
      <use x="1077.527344" xlink:href="#DejaVuSans-111"/>
      <use x="1138.708984" xlink:href="#DejaVuSans-100"/>
      <use x="1202.185547" xlink:href="#DejaVuSans-32"/>
      <use x="1233.972656" xlink:href="#DejaVuSans-91"/>
      <use x="1272.986328" xlink:href="#DejaVuSans-100"/>
      <use x="1336.462891" xlink:href="#DejaVuSans-97"/>
      <use x="1397.742188" xlink:href="#DejaVuSans-121"/>
      <use x="1456.921875" xlink:href="#DejaVuSans-115"/>
      <use x="1509.021484" xlink:href="#DejaVuSans-93"/>
     </g>
    </g>
   </g>
   <g id="matplotlib.axis_2">
    <g id="ytick_1">
     <g id="line2d_9">
      <path clip-path="url(#p740b0693ae)" d="M 59.906697 234.782835 
L 409.322835 234.782835 
" style="fill:none;stroke:#000000;stroke-linecap:square;stroke-opacity:0.1;stroke-width:0.5;"/>
     </g>
     <g id="line2d_10">
      <defs>
       <path d="M 0 0 
L 2.5 0 
" id="m2153370a69" style="stroke:#000000;stroke-width:0.5;"/>
      </defs>
      <g>
       <use style="stroke:#000000;stroke-width:0.5;" x="59.906697" xlink:href="#m2153370a69" y="234.782835"/>
      </g>
     </g>
     <g id="text_6">
      <!-- $\mathregular{0}$ -->
      <g transform="translate(50.406697 238.896585)scale(0.12 -0.12)">
       <use transform="translate(0 0.8125)" xlink:href="#Times-Roman-48"/>
      </g>
     </g>
    </g>
    <g id="ytick_2">
     <g id="line2d_11">
      <path clip-path="url(#p740b0693ae)" d="M 59.906697 195.685701 
L 409.322835 195.685701 
" style="fill:none;stroke:#000000;stroke-linecap:square;stroke-opacity:0.1;stroke-width:0.5;"/>
     </g>
     <g id="line2d_12">
      <g>
       <use style="stroke:#000000;stroke-width:0.5;" x="59.906697" xlink:href="#m2153370a69" y="195.685701"/>
      </g>
     </g>
     <g id="text_7">
      <!-- $\mathregular{20}$ -->
      <g transform="translate(44.406697 199.799451)scale(0.12 -0.12)">
       <use transform="translate(0 0.609375)" xlink:href="#Times-Roman-50"/>
       <use transform="translate(50 0.609375)" xlink:href="#Times-Roman-48"/>
      </g>
     </g>
    </g>
    <g id="ytick_3">
     <g id="line2d_13">
      <path clip-path="url(#p740b0693ae)" d="M 59.906697 156.588567 
L 409.322835 156.588567 
" style="fill:none;stroke:#000000;stroke-linecap:square;stroke-opacity:0.1;stroke-width:0.5;"/>
     </g>
     <g id="line2d_14">
      <g>
       <use style="stroke:#000000;stroke-width:0.5;" x="59.906697" xlink:href="#m2153370a69" y="156.588567"/>
      </g>
     </g>
     <g id="text_8">
      <!-- $\mathregular{40}$ -->
      <g transform="translate(44.406697 160.702317)scale(0.12 -0.12)">
       <defs>
        <path d="M 29.15625 57.03125 
L 5.171875 23.140625 
L 29.15625 23.140625 
z
M 32.375 67.09375 
L 37.015625 67.09375 
L 37.015625 23.140625 
L 47.21875 23.140625 
L 47.21875 16.65625 
L 37.015625 16.65625 
L 37.015625 0 
L 29.25 0 
L 29.25 16.65625 
L 1.125 16.65625 
L 1.125 23.140625 
z
" id="Times-Roman-52"/>
       </defs>
       <use transform="translate(0 0.8125)" xlink:href="#Times-Roman-52"/>
       <use transform="translate(50 0.8125)" xlink:href="#Times-Roman-48"/>
      </g>
     </g>
    </g>
    <g id="ytick_4">
     <g id="line2d_15">
      <path clip-path="url(#p740b0693ae)" d="M 59.906697 117.491433 
L 409.322835 117.491433 
" style="fill:none;stroke:#000000;stroke-linecap:square;stroke-opacity:0.1;stroke-width:0.5;"/>
     </g>
     <g id="line2d_16">
      <g>
       <use style="stroke:#000000;stroke-width:0.5;" x="59.906697" xlink:href="#m2153370a69" y="117.491433"/>
      </g>
     </g>
     <g id="text_9">
      <!-- $\mathregular{60}$ -->
      <g transform="translate(44.406697 121.605183)scale(0.12 -0.12)">
       <defs>
        <path d="M 46.78125 22.21875 
Q 46.78125 13.28125 41.03125 6.09375 
Q 35.296875 -1.078125 26.125 -1.078125 
Q 17.53125 -1.078125 10.46875 6.984375 
Q 3.421875 15.046875 3.421875 28.421875 
Q 3.421875 45.65625 17.09375 58.015625 
Q 29.296875 68.359375 44.53125 68.359375 
L 44.78125 66.75 
Q 38.671875 65.625 34.25 63.6875 
Q 29.828125 61.765625 26.375 58.296875 
Q 22.796875 54.78125 19.671875 49.359375 
Q 16.546875 43.953125 15.375 38.625 
Q 18.40625 40.484375 20.609375 41.359375 
Q 24.515625 42.921875 28.46875 42.921875 
Q 36.234375 42.921875 41.5 37.546875 
Q 46.78125 32.171875 46.78125 22.21875 
z
M 37.84375 18.453125 
Q 37.84375 24.953125 35.796875 29.984375 
Q 32.375 38.375 24.171875 38.375 
Q 16.609375 38.375 14.109375 33.890625 
Q 12.640625 31.25 12.640625 25.09375 
Q 12.640625 17.140625 16.03125 9.515625 
Q 19.4375 1.90625 26.765625 1.90625 
Q 32.5625 1.90625 35.203125 6.859375 
Q 37.84375 11.8125 37.84375 18.453125 
z
" id="Times-Roman-54"/>
       </defs>
       <use transform="translate(0 0.640625)" xlink:href="#Times-Roman-54"/>
       <use transform="translate(50 0.640625)" xlink:href="#Times-Roman-48"/>
      </g>
     </g>
    </g>
    <g id="ytick_5">
     <g id="line2d_17">
      <path clip-path="url(#p740b0693ae)" d="M 59.906697 78.394299 
L 409.322835 78.394299 
" style="fill:none;stroke:#000000;stroke-linecap:square;stroke-opacity:0.1;stroke-width:0.5;"/>
     </g>
     <g id="line2d_18">
      <g>
       <use style="stroke:#000000;stroke-width:0.5;" x="59.906697" xlink:href="#m2153370a69" y="78.394299"/>
      </g>
     </g>
     <g id="text_10">
      <!-- $\mathregular{80}$ -->
      <g transform="translate(44.406697 82.508049)scale(0.12 -0.12)">
       <defs>
        <path d="M 25.140625 1.65625 
Q 30.765625 1.65625 33.640625 4.78125 
Q 36.53125 7.90625 36.53125 12.59375 
Q 36.53125 17.921875 33.46875 21.21875 
Q 30.421875 24.515625 20.953125 31.203125 
Q 16.75 28.5625 14.84375 24.359375 
Q 12.9375 20.171875 12.9375 16.265625 
Q 12.9375 9.578125 16.375 5.609375 
Q 19.828125 1.65625 25.140625 1.65625 
z
M 25.78125 38.96875 
Q 30.375 42.1875 32.125 44.390625 
Q 35.15625 48.140625 35.15625 53.46875 
Q 35.15625 58.109375 32.296875 61.34375 
Q 29.4375 64.59375 23.640625 64.59375 
Q 19.140625 64.59375 16.203125 61.765625 
Q 13.28125 58.9375 13.28125 54.890625 
Q 13.28125 50.296875 16.71875 46.359375 
Q 20.171875 42.4375 25.78125 38.96875 
z
M 18.265625 33.296875 
Q 11.8125 38.484375 9.46875 41.546875 
Q 5.859375 46.234375 5.859375 51.90625 
Q 5.859375 58.34375 11.203125 62.828125 
Q 16.546875 67.328125 25.09375 67.328125 
Q 32.953125 67.328125 37.59375 63.078125 
Q 42.234375 58.84375 42.234375 53.21875 
Q 42.234375 47.515625 37.5 42.96875 
Q 34.765625 40.375 28.65625 37.015625 
Q 36.96875 30.859375 40.546875 26.296875 
Q 44.140625 21.734375 44.140625 15.53125 
Q 44.140625 8.5 38.84375 3.703125 
Q 33.546875 -1.078125 24.65625 -1.078125 
Q 16.703125 -1.078125 11.015625 3.34375 
Q 5.328125 7.765625 5.328125 14.984375 
Q 5.328125 21.1875 9.28125 25.921875 
Q 11.859375 29 18.265625 33.296875 
z
" id="Times-Roman-56"/>
       </defs>
       <use transform="translate(0 0.671875)" xlink:href="#Times-Roman-56"/>
       <use transform="translate(50 0.671875)" xlink:href="#Times-Roman-48"/>
      </g>
     </g>
    </g>
    <g id="ytick_6">
     <g id="line2d_19">
      <path clip-path="url(#p740b0693ae)" d="M 59.906697 39.297165 
L 409.322835 39.297165 
" style="fill:none;stroke:#000000;stroke-linecap:square;stroke-opacity:0.1;stroke-width:0.5;"/>
     </g>
     <g id="line2d_20">
      <g>
       <use style="stroke:#000000;stroke-width:0.5;" x="59.906697" xlink:href="#m2153370a69" y="39.297165"/>
      </g>
     </g>
     <g id="text_11">
      <!-- $\mathregular{100}$ -->
      <g transform="translate(38.406697 43.410915)scale(0.12 -0.12)">
       <use transform="translate(0 0.8125)" xlink:href="#Times-Roman-49"/>
       <use transform="translate(50 0.8125)" xlink:href="#Times-Roman-48"/>
       <use transform="translate(100 0.8125)" xlink:href="#Times-Roman-48"/>
      </g>
     </g>
    </g>
    <g id="text_12">
     <!-- Social Distancing Rate [%] -->
     <g transform="translate(31.911072 216.51)rotate(-90)scale(0.12 -0.12)">
      <defs>
       <path d="M 44.390625 34.1875 
Q 47.5625 33.109375 50.5625 29.59375 
Q 53.5625 26.078125 56.59375 19.921875 
L 66.609375 0 
L 56 0 
L 46.6875 18.703125 
Q 43.0625 26.03125 39.671875 28.421875 
Q 36.28125 30.8125 30.421875 30.8125 
L 19.671875 30.8125 
L 19.671875 0 
L 9.8125 0 
L 9.8125 72.90625 
L 32.078125 72.90625 
Q 44.578125 72.90625 50.734375 67.671875 
Q 56.890625 62.453125 56.890625 51.90625 
Q 56.890625 45.015625 53.6875 40.46875 
Q 50.484375 35.9375 44.390625 34.1875 
z
M 19.671875 64.796875 
L 19.671875 38.921875 
L 32.078125 38.921875 
Q 39.203125 38.921875 42.84375 42.21875 
Q 46.484375 45.515625 46.484375 51.90625 
Q 46.484375 58.296875 42.84375 61.546875 
Q 39.203125 64.796875 32.078125 64.796875 
z
" id="DejaVuSans-82"/>
       <path d="M 72.703125 32.078125 
Q 68.453125 32.078125 66.03125 28.46875 
Q 63.625 24.859375 63.625 18.40625 
Q 63.625 12.0625 66.03125 8.421875 
Q 68.453125 4.78125 72.703125 4.78125 
Q 76.859375 4.78125 79.265625 8.421875 
Q 81.6875 12.0625 81.6875 18.40625 
Q 81.6875 24.8125 79.265625 28.4375 
Q 76.859375 32.078125 72.703125 32.078125 
z
M 72.703125 38.28125 
Q 80.421875 38.28125 84.953125 32.90625 
Q 89.5 27.546875 89.5 18.40625 
Q 89.5 9.28125 84.9375 3.921875 
Q 80.375 -1.421875 72.703125 -1.421875 
Q 64.890625 -1.421875 60.34375 3.921875 
Q 55.8125 9.28125 55.8125 18.40625 
Q 55.8125 27.59375 60.375 32.9375 
Q 64.9375 38.28125 72.703125 38.28125 
z
M 22.3125 68.015625 
Q 18.109375 68.015625 15.6875 64.375 
Q 13.28125 60.75 13.28125 54.390625 
Q 13.28125 47.953125 15.671875 44.328125 
Q 18.0625 40.71875 22.3125 40.71875 
Q 26.5625 40.71875 28.96875 44.328125 
Q 31.390625 47.953125 31.390625 54.390625 
Q 31.390625 60.6875 28.953125 64.34375 
Q 26.515625 68.015625 22.3125 68.015625 
z
M 66.40625 74.21875 
L 74.21875 74.21875 
L 28.609375 -1.421875 
L 20.796875 -1.421875 
z
M 22.3125 74.21875 
Q 30.03125 74.21875 34.609375 68.875 
Q 39.203125 63.53125 39.203125 54.390625 
Q 39.203125 45.171875 34.640625 39.84375 
Q 30.078125 34.515625 22.3125 34.515625 
Q 14.546875 34.515625 10.03125 39.859375 
Q 5.515625 45.21875 5.515625 54.390625 
Q 5.515625 63.484375 10.046875 68.84375 
Q 14.59375 74.21875 22.3125 74.21875 
z
" id="DejaVuSans-37"/>
      </defs>
      <use xlink:href="#DejaVuSans-83"/>
      <use x="63.476562" xlink:href="#DejaVuSans-111"/>
      <use x="124.658203" xlink:href="#DejaVuSans-99"/>
      <use x="179.638672" xlink:href="#DejaVuSans-105"/>
      <use x="207.421875" xlink:href="#DejaVuSans-97"/>
      <use x="268.701172" xlink:href="#DejaVuSans-108"/>
      <use x="296.484375" xlink:href="#DejaVuSans-32"/>
      <use x="328.271484" xlink:href="#DejaVuSans-68"/>
      <use x="405.273438" xlink:href="#DejaVuSans-105"/>
      <use x="433.056641" xlink:href="#DejaVuSans-115"/>
      <use x="485.15625" xlink:href="#DejaVuSans-116"/>
      <use x="524.365234" xlink:href="#DejaVuSans-97"/>
      <use x="585.644531" xlink:href="#DejaVuSans-110"/>
      <use x="649.023438" xlink:href="#DejaVuSans-99"/>
      <use x="704.003906" xlink:href="#DejaVuSans-105"/>
      <use x="731.787109" xlink:href="#DejaVuSans-110"/>
      <use x="795.166016" xlink:href="#DejaVuSans-103"/>
      <use x="858.642578" xlink:href="#DejaVuSans-32"/>
      <use x="890.429688" xlink:href="#DejaVuSans-82"/>
      <use x="957.662109" xlink:href="#DejaVuSans-97"/>
      <use x="1018.941406" xlink:href="#DejaVuSans-116"/>
      <use x="1058.150391" xlink:href="#DejaVuSans-101"/>
      <use x="1119.673828" xlink:href="#DejaVuSans-32"/>
      <use x="1151.460938" xlink:href="#DejaVuSans-91"/>
      <use x="1190.474609" xlink:href="#DejaVuSans-37"/>
      <use x="1285.494141" xlink:href="#DejaVuSans-93"/>
     </g>
    </g>
   </g>
   <g id="LineCollection_1"/>
   <g id="LineCollection_2">
    <path clip-path="url(#p740b0693ae)" d="M 409.322835 40.667442 
L 406.386565 40.697555 
L 403.450295 40.72969 
L 400.514024 40.763924 
L 397.577754 40.800434 
L 394.641484 40.839288 
L 391.705214 40.880682 
L 388.768944 40.924743 
L 385.832674 40.971546 
L 382.896404 41.021339 
L 379.960134 41.074239 
L 377.023864 41.130479 
L 374.087594 41.190292 
L 371.229684 41.252022 
L 371.151324 41.253679 
L 368.570659 41.309877 
" style="fill:none;stroke:#000000;"/>
    <path clip-path="url(#p740b0693ae)" d="M 338.503179 42.241016 
L 335.916083 42.351453 
L 332.979813 42.484761 
L 330.043543 42.626516 
L 327.107273 42.777461 
L 324.171003 42.937997 
L 321.234733 43.108769 
L 319.616457 43.206879 
L 318.298463 43.286765 
L 315.362192 43.471492 
L 312.425922 43.668189 
L 309.489652 43.877953 
L 306.553382 44.101578 
L 303.617112 44.340094 
L 300.680842 44.594499 
L 297.744572 44.865969 
L 294.808302 45.155532 
L 294.746162 45.161735 
L 291.872032 45.451114 
L 288.935762 45.766739 
L 285.999492 46.104093 
L 283.063222 46.464705 
L 280.126952 46.850319 
L 278.194039 47.116592 
L 277.190682 47.256591 
L 274.254412 47.678874 
L 271.318141 48.077148 
L 270.707149 47.116592 
L 268.725222 45.161735 
L 268.381871 44.98062 
L 265.445601 43.336511 
L 265.129301 43.206879 
L 262.509331 42.353207 
L 259.573061 41.732527 
L 256.636791 41.382382 
L 253.800381 41.252022 
L 253.700521 41.247959 
L 253.184334 41.252022 
L 250.764251 41.270737 
L 247.827981 41.319259 
L 244.891711 41.374889 
L 241.955441 41.438105 
L 239.019171 41.50973 
L 236.082901 41.590609 
L 233.146631 41.681841 
L 230.210361 41.784633 
L 227.27409 41.90029 
L 224.33782 42.030225 
L 221.40155 42.176293 
L 218.46528 42.340321 
L 215.52901 42.524574 
L 212.59274 42.731549 
L 209.65647 42.964075 
L 206.915453 43.206879 
L 206.7202 43.224086 
L 203.78393 43.496145 
L 200.84766 43.801821 
L 197.91139 44.14544 
L 194.97512 44.185359 
L 193.651251 43.206879 
L 192.03885 42.399339 
L 189.10258 41.722986 
L 186.16631 41.63082 
L 183.230039 41.731645 
L 180.293769 41.863196 
L 177.357499 42.016838 
L 174.421229 42.196394 
L 171.484959 42.406772 
L 168.548689 42.653943 
L 165.612419 42.944963 
L 163.322586 43.206879 
L 162.676149 43.281651 
L 159.739879 43.654172 
L 158.984541 43.206879 
L 156.803609 42.174501 
L 153.867339 41.838663 
L 150.931069 41.999266 
L 147.994799 42.224623 
L 145.058529 42.499155 
L 142.122258 42.835357 
L 139.456589 43.206879 
L 139.185988 43.245723 
L 139.088923 43.206879 
L 136.249718 42.165423 
L 133.313448 42.044278 
L 130.377178 42.334478 
L 127.440908 42.703685 
L 124.504638 43.177364 
L 121.568368 42.0889 
L 118.632098 42.390088 
L 115.695828 42.852262 
L 112.759558 42.199527 
L 109.823288 42.584299 
L 106.887018 42.856271 
L 103.950748 42.413768 
L 101.014478 42.526009 
L 98.078207 42.609264 
L 95.141937 42.477768 
L 92.205667 42.518487 
L 89.269397 42.524975 
L 86.333127 42.584741 
L 83.396857 43.055015 
L 80.460587 42.994985 
L 77.524317 42.97549 
L 76.335237 43.206879 
L 74.588047 43.497513 
L 71.651777 43.341314 
L 68.715507 43.864221 
L 65.779237 44.067249 
L 63.884927 45.161735 
L 62.842967 45.732998 
L 61.208338 47.116592 
L 59.906697 48.230209 
" style="fill:none;stroke:#000000;"/>
   </g>
   <g id="LineCollection_3">
    <path clip-path="url(#p740b0693ae)" d="M 409.322835 44.852012 
L 391.705214 45.651178 
L 377.023864 46.571279 
L 365.278784 47.519312 
L 353.533703 48.695654 
L 341.788623 50.144214 
L 332.979813 51.454517 
L 324.171003 52.985402 
L 318.298463 54.121873 
L 309.489652 56.071534 
L 300.680842 58.32661 
L 292.275706 60.800589 
L 285.999492 62.865289 
L 280.126952 64.98273 
L 274.254412 67.295283 
L 266.735788 70.574872 
L 262.509331 72.588841 
L 262.033921 72.529729 
L 261.052398 70.574872 
L 261.122101 68.620016 
L 262.178742 64.710302 
L 262.522189 62.755446 
L 262.696969 60.800589 
L 262.669081 58.845732 
L 262.376892 56.890876 
L 261.712855 54.936019 
L 260.547332 52.981162 
L 259.573061 51.905957 
L 258.554356 51.026306 
L 256.636791 49.847363 
L 253.700521 48.697551 
L 250.764251 48.061225 
L 247.827981 47.741362 
L 244.891711 47.667956 
L 239.019171 48.001016 
L 230.210361 48.887558 
L 221.40155 50.099766 
L 215.52901 51.156394 
L 209.65647 52.416011 
L 203.78393 53.938237 
L 197.91139 55.760961 
L 192.03885 57.925863 
L 189.78378 56.890876 
L 189.10258 55.535428 
L 188.957427 54.936019 
L 188.04769 52.981162 
L 186.16631 50.881149 
L 183.230039 49.653948 
L 180.293769 49.376765 
L 177.357499 49.667836 
L 171.484959 50.811778 
L 165.612419 52.309899 
L 162.676149 53.228695 
L 158.027109 54.936019 
L 156.803609 55.433254 
L 155.441408 54.936019 
L 153.867339 53.464297 
L 153.593339 52.981162 
L 151.559378 51.026306 
L 150.931069 50.662327 
L 147.994799 50.381897 
L 145.058529 51.033173 
L 143.568228 51.498541 
L 143.568228 51.498541 
" style="fill:none;stroke:#000000;"/>
    <path clip-path="url(#p740b0693ae)" d="M 117.824889 51.740109 
L 115.695828 51.932793 
L 113.709042 52.981162 
L 112.759558 53.503748 
L 111.353141 52.981162 
L 109.823288 52.142635 
L 106.887018 52.431303 
L 105.015081 52.981162 
L 103.950748 53.741466 
L 102.863828 52.981162 
L 101.014478 52.434786 
L 98.078207 52.843538 
L 97.523137 52.981162 
L 95.141937 53.351659 
L 93.282466 52.981162 
L 92.205667 52.756637 
L 89.269397 52.736784 
L 86.333127 52.980456 
L 86.329252 52.981162 
L 83.396857 53.58963 
L 80.460587 53.239291 
L 77.524317 53.546382 
L 74.588047 53.510732 
L 71.651777 53.651163 
L 68.715507 53.795078 
L 65.779237 53.958059 
L 62.842967 54.289267 
L 62.217064 54.936019 
L 59.906697 55.976803 
" style="fill:none;stroke:#000000;"/>
   </g>
   <g id="LineCollection_4">
    <path clip-path="url(#p740b0693ae)" d="M 409.322835 48.565261 
L 406.386565 48.751252 
L 403.450295 48.949728 
L 401.744355 49.071449 
L 400.514024 49.15659 
L 397.577754 49.370154 
L 394.641484 49.597671 
L 391.705214 49.839986 
L 388.768944 50.097906 
L 385.832674 50.372483 
L 382.896404 50.664642 
L 379.960134 50.975409 
L 379.495694 51.026306 
L 377.023864 51.29124 
L 374.087594 51.62424 
L 371.151324 51.978434 
L 368.215054 52.355132 
L 365.278784 52.755822 
L 363.699298 52.981162 
L 362.342514 53.171406 
L 359.406243 53.600831 
L 356.469973 54.057665 
L 353.533703 54.543773 
L 351.286071 54.936019 
L 350.597433 55.054568 
L 347.661163 55.576285 
L 344.724893 56.13166 
L 341.788623 56.723154 
L 340.981729 56.890876 
L 338.852353 57.32901 
L 335.916083 57.965065 
L 332.979813 58.643169 
L 332.129512 58.845732 
L 330.043543 59.338922 
L 327.107273 60.069721 
L 324.34813 60.800589 
L 324.171003 60.847237 
L 321.234733 61.636239 
L 318.298463 62.479096 
L 317.365805 62.755446 
L 315.362192 63.347279 
L 312.425922 64.260109 
L 311.034396 64.710302 
L 309.489652 65.209453 
L 306.553382 66.200515 
L 305.229043 66.665159 
L 303.617112 67.231152 
L 300.680842 68.310012 
L 299.861891 68.620016 
L 297.744572 69.423781 
L 294.872056 70.574872 
L 294.808302 70.600523 
L 291.872032 71.80109 
L 290.32031 72.466371 
" style="fill:none;stroke:#000000;"/>
    <path clip-path="url(#p740b0693ae)" d="M 264.629446 85.566862 
L 259.573061 88.687087 
L 253.700521 92.569787 
L 247.827981 96.745217 
L 245.830267 95.988009 
L 245.861363 94.033153 
L 246.103327 92.078296 
L 247.827981 86.075592 
L 250.328876 78.394299 
L 251.654127 74.484586 
L 252.674288 70.574872 
L 253.00901 68.620016 
L 253.187844 66.665159 
L 253.166344 64.710302 
L 252.88154 62.755446 
L 252.240768 60.800589 
L 250.764251 58.446963 
L 249.013167 56.890876 
L 247.827981 56.157535 
L 244.75094 54.936019 
L 241.955441 54.397891 
L 239.019171 54.176301 
L 236.082901 54.221128 
L 233.146631 54.476363 
L 227.27409 55.39076 
L 221.40155 56.559472 
L 215.52901 57.974899 
L 209.65647 59.682751 
L 203.78393 61.716107 
L 197.91139 64.12091 
L 192.588277 66.665159 
L 188.946854 68.620016 
L 185.608928 70.574872 
L 183.230039 72.073547 
L 181.834155 70.574872 
L 181.679185 68.620016 
L 181.758179 66.665159 
L 181.659932 64.710302 
L 181.307178 62.755446 
L 180.293769 60.337306 
L 178.765938 58.845732 
L 177.357499 58.014573 
L 174.421229 57.488898 
L 171.484959 57.772331 
L 167.71354 58.845732 
L 165.612419 59.601118 
L 162.676149 60.806741 
L 158.535686 62.755446 
L 154.962278 64.710302 
L 151.822412 66.665159 
L 150.931069 67.257222 
L 149.725569 66.665159 
L 148.534694 64.710302 
L 147.994799 62.595804 
L 146.792821 60.800589 
L 145.058529 59.489541 
L 142.122258 59.443919 
L 138.681484 60.800589 
L 135.335561 62.755446 
L 132.469357 64.710302 
L 130.377178 66.317706 
L 128.960041 64.710302 
L 128.361958 62.755446 
L 127.440908 61.133039 
L 126.002684 60.800589 
L 124.504638 60.603476 
L 124.17208 60.800589 
L 121.568368 62.121452 
L 118.632098 64.465281 
L 115.695828 62.620159 
L 112.759558 61.506911 
L 111.141043 62.755446 
L 109.823288 63.567256 
L 106.887018 63.053208 
L 105.982268 62.755446 
L 103.950748 62.457489 
L 103.258014 62.755446 
L 101.014478 65.03324 
L 100.617235 64.710302 
L 98.078207 62.832355 
L 95.141937 63.362345 
L 92.205667 64.509835 
L 89.269397 63.980161 
L 86.333127 64.17218 
L 83.396857 64.875755 
L 80.460587 64.16737 
L 74.915333 64.710302 
L 71.651777 65.220387 
L 68.715507 65.235589 
L 62.842967 65.858153 
L 59.906697 66.169051 
L 59.906697 66.169051 
" style="fill:none;stroke:#000000;"/>
    <path clip-path="url(#p740b0693ae)" d="M 244.891711 98.655321 
L 244.612447 97.942866 
L 244.891711 96.774956 
L 245.790088 97.942866 
L 244.891711 98.655321 
" style="fill:none;stroke:#000000;"/>
   </g>
   <g id="LineCollection_5">
    <path clip-path="url(#p740b0693ae)" d="M 409.322835 51.922851 
L 397.577754 52.984407 
L 388.768944 53.925584 
L 379.960134 55.051917 
L 371.151324 56.343701 
L 359.406243 58.398058 
L 350.597433 60.206827 
L 341.788623 62.27797 
L 332.736892 64.710302 
L 326.190222 66.665159 
L 320.187987 68.620016 
L 314.635718 70.574872 
L 309.467775 72.529729 
L 303.617112 74.893371 
L 295.702305 78.394299 
L 291.601472 80.349156 
L 285.999492 83.167966 
L 280.126952 86.35196 
L 273.63878 90.123439 
L 267.399097 94.033153 
L 261.588372 97.942866 
L 256.153615 101.85258 
L 250.764251 105.985449 
L 244.891711 110.788036 
L 241.664406 113.58172 
L 236.082901 118.667593 
L 234.813838 117.491433 
L 234.377054 115.536576 
L 235.264724 109.672006 
L 236.381744 103.807436 
L 237.708572 97.942866 
L 239.21517 92.078296 
L 241.493023 84.258869 
L 243.249388 78.394299 
L 243.688258 76.439443 
L 244.006214 74.484586 
L 244.170881 72.529729 
L 244.135948 70.574872 
L 243.834113 68.620016 
L 243.164481 66.665159 
L 241.955441 64.692707 
L 239.586661 62.755446 
L 239.019171 62.434882 
L 236.082901 61.390965 
L 233.146631 60.925161 
L 230.210361 60.862377 
L 227.27409 61.09486 
L 224.33782 61.554948 
L 219.276006 62.755446 
L 215.52901 63.823542 
L 209.65647 65.797124 
L 203.78393 68.143615 
L 198.57554 70.574872 
L 194.844862 72.529729 
L 191.438141 74.484586 
L 186.16631 77.859531 
L 182.684111 80.349156 
L 177.743479 84.258869 
L 174.421229 87.155772 
L 173.489631 86.213726 
L 173.214194 84.258869 
L 173.984004 80.349156 
L 174.469203 76.439443 
L 174.527279 74.484586 
L 174.421229 72.519946 
L 173.996306 70.574872 
L 173.061237 68.620016 
L 171.484959 66.914909 
L 170.849765 66.665159 
L 168.548689 66.078268 
L 165.612419 66.362512 
L 162.676149 67.322764 
L 159.739879 68.743047 
L 156.612136 70.574872 
L 153.640425 72.529729 
L 150.931069 74.510437 
L 147.994799 76.886093 
L 145.058529 79.530973 
L 143.520779 78.394299 
L 142.86255 76.439443 
L 142.743145 74.484586 
L 142.427583 72.529729 
L 142.122258 71.493879 
L 141.540321 70.574872 
L 139.185988 68.816933 
L 136.249718 69.295811 
L 133.313448 70.964754 
L 129.2195 74.484586 
L 127.440908 76.26227 
L 124.504638 75.826869 
L 124.285383 74.484586 
L 123.522582 72.529729 
L 121.502327 70.574872 
L 118.632098 71.641269 
L 117.776695 72.529729 
L 115.695828 74.393266 
L 115.274886 74.484586 
L 113.417447 76.138754 
L 113.417447 76.138754 
" style="fill:none;stroke:#000000;"/>
    <path clip-path="url(#p740b0693ae)" d="M 94.909087 74.085285 
L 92.205667 74.193397 
L 91.605775 74.484586 
L 89.269397 76.358335 
L 88.844232 76.439443 
L 86.333127 76.624424 
L 85.26747 76.439443 
L 83.396857 75.802082 
L 80.460587 75.683953 
L 77.524317 75.97067 
L 76.101201 76.439443 
L 74.588047 76.869602 
L 71.651777 76.856006 
L 68.715507 77.261186 
L 65.779237 77.781328 
L 62.842967 78.177008 
L 61.297106 78.394299 
L 59.906697 78.58895 
" style="fill:none;stroke:#000000;"/>
   </g>
   <g id="LineCollection_6">
    <path clip-path="url(#p740b0693ae)" d="M 409.322835 55.017752 
L 400.514024 55.924172 
L 388.768944 57.404874 
L 379.292086 58.845732 
L 371.151324 60.257685 
L 362.342514 62.013503 
L 353.533703 64.021424 
L 343.448961 66.665159 
L 335.916083 68.885505 
L 330.043543 70.782844 
L 324.171003 72.828022 
L 318.298463 75.0301 
L 310.102202 78.394299 
L 303.617112 81.28976 
L 297.478679 84.258869 
L 289.978255 88.168583 
L 285.999492 90.387901 
L 279.82717 94.033153 
L 273.643099 97.942866 
L 267.866675 101.85258 
L 262.450208 105.762293 
L 256.636791 110.219541 
L 250.764251 115.038989 
L 245.71159 119.44629 
L 239.432604 125.31086 
L 233.582011 131.17543 
L 228.111738 137.04 
L 227.27409 137.986129 
L 226.375637 137.04 
L 225.972093 135.085143 
L 226.027782 131.17543 
L 226.371918 125.31086 
L 226.98231 119.44629 
L 227.827004 113.58172 
L 228.872355 107.71715 
L 230.210361 101.35981 
L 231.990588 94.033153 
L 235.046037 82.304013 
L 235.331375 80.349156 
L 235.457522 78.394299 
L 235.372542 76.439443 
L 234.995498 74.484586 
L 234.202301 72.529729 
L 232.703125 70.574872 
L 230.210361 68.961707 
L 229.2119 68.620016 
L 227.27409 68.129863 
L 224.33782 67.901803 
L 221.40155 68.062983 
L 218.033285 68.620016 
L 215.52901 69.225877 
L 211.404081 70.574872 
L 209.65647 71.217735 
L 203.78393 73.757076 
L 198.503416 76.439443 
L 194.97512 78.442771 
L 191.893494 80.349156 
L 188.961699 82.304013 
L 183.659998 86.213726 
L 180.293769 88.96337 
L 176.787141 92.078296 
L 172.75011 95.988009 
L 167.072394 101.85258 
L 165.612419 103.899998 
L 165.504041 103.807436 
L 164.66855 101.85258 
L 165.75812 95.988009 
L 166.883055 90.123439 
L 167.388234 86.213726 
L 167.504628 84.258869 
L 167.478924 82.304013 
L 167.240864 80.349156 
L 166.665734 78.394299 
L 165.424343 76.439443 
L 162.676149 75.302716 
L 159.739879 75.642358 
L 156.803609 76.805737 
L 153.867339 78.551891 
L 149.153601 82.304013 
L 146.994631 84.258869 
L 143.025628 88.303924 
L 143.025628 88.303924 
" style="fill:none;stroke:#000000;"/>
    <path clip-path="url(#p740b0693ae)" d="M 129.394013 81.138996 
L 128.061069 82.304013 
L 127.440908 82.759841 
L 126.194179 84.258869 
L 124.504638 86.121164 
L 124.377321 86.213726 
L 122.977746 88.168583 
L 121.571425 90.123439 
L 121.568368 90.127491 
L 121.562573 90.123439 
L 120.060192 88.168583 
L 119.819964 86.213726 
L 119.483231 84.258869 
L 118.818836 82.304013 
L 118.632098 81.95404 
L 115.695828 81.957864 
L 115.404478 82.304013 
L 113.441177 84.258869 
L 112.759558 84.790729 
L 111.469049 86.213726 
L 110.583117 88.168583 
L 109.823288 89.155722 
L 108.89999 88.168583 
L 108.287632 86.213726 
L 107.627909 84.258869 
L 106.887018 83.090007 
L 105.468756 84.258869 
L 103.950748 85.065992 
L 101.983738 86.213726 
L 101.154784 88.168583 
L 101.014478 88.850368 
L 100.855004 88.168583 
L 100.029584 86.213726 
L 98.078207 84.863078 
L 96.233287 86.213726 
L 95.288104 88.168583 
L 95.141937 88.491065 
L 94.90427 88.168583 
L 92.205667 86.419939 
L 90.658503 86.213726 
L 89.269397 85.98991 
L 88.127033 86.213726 
L 86.333127 86.679174 
L 83.396857 87.094306 
L 80.460587 88.004078 
L 77.524317 88.137308 
L 77.417024 88.168583 
L 74.588047 88.928764 
L 71.651777 89.648648 
L 68.715507 89.919579 
L 67.542133 90.123439 
L 65.779237 90.476601 
L 62.842967 91.078433 
L 59.906697 91.680433 
" style="fill:none;stroke:#000000;"/>
   </g>
   <g id="LineCollection_7">
    <path clip-path="url(#p740b0693ae)" d="M 409.322835 57.988277 
L 400.514024 58.94339 
L 391.705214 60.154854 
L 382.896404 61.582604 
L 374.087594 63.231044 
L 365.278784 65.116229 
L 356.469973 67.258257 
L 347.661163 69.682229 
L 338.522302 72.529729 
L 332.802157 74.484586 
L 327.107273 76.572335 
L 321.234733 78.879948 
L 313.237801 82.304013 
L 306.553382 85.411036 
L 300.680842 88.354043 
L 293.741915 92.078296 
L 286.992434 95.988009 
L 280.710568 99.897723 
L 274.828142 103.807436 
L 269.296079 107.71715 
L 264.080223 111.626863 
L 259.15799 115.536576 
L 252.223949 121.401146 
L 245.80095 127.265717 
L 239.817191 133.130287 
L 234.219624 138.994857 
L 228.972907 144.859427 
L 222.464969 152.678854 
L 221.40155 154.0359 
L 219.924782 152.678854 
L 219.43265 150.723997 
L 219.02112 146.814283 
L 218.79989 142.90457 
L 218.763729 137.04 
L 219.022777 131.17543 
L 219.526125 125.31086 
L 220.241165 119.44629 
L 221.40155 112.108005 
L 222.607027 105.762293 
L 224.341095 97.942866 
L 226.586446 88.168583 
L 226.807078 86.213726 
L 226.847939 84.258869 
L 226.637907 82.304013 
L 226.064006 80.349156 
L 224.936711 78.394299 
L 224.33782 77.739776 
L 222.340945 76.439443 
L 221.40155 76.03003 
L 218.46528 75.491567 
L 215.52901 75.538114 
L 212.59274 75.979791 
L 209.65647 76.730595 
L 206.7202 77.744241 
L 203.78393 78.972675 
L 200.84766 80.394404 
L 197.422829 82.304013 
L 194.241267 84.258869 
L 191.298197 86.213726 
L 187.561246 88.923977 
L 187.561246 88.923977 
" style="fill:none;stroke:#000000;"/>
    <path clip-path="url(#p740b0693ae)" d="M 167.827904 107.911823 
L 166.381649 109.672006 
L 165.612419 110.644501 
L 164.833675 111.626863 
L 163.342417 113.58172 
L 162.676149 114.486896 
L 161.787548 115.536576 
L 160.501016 117.491433 
L 159.739879 118.601195 
L 158.298405 117.491433 
L 157.873337 115.536576 
L 158.092087 113.58172 
L 158.335552 111.626863 
L 158.602768 109.672006 
L 158.892844 107.71715 
L 159.203287 105.762293 
L 159.531381 103.807436 
L 159.739879 102.690918 
L 159.892355 101.85258 
L 160.200847 99.897723 
L 160.459187 97.942866 
L 160.65701 95.988009 
L 160.767418 94.033153 
L 160.75567 92.078296 
L 160.564512 90.123439 
L 160.096209 88.168583 
L 159.739879 87.329857 
L 158.564736 86.213726 
L 156.803609 85.341285 
L 153.867339 85.775215 
L 153.076279 86.213726 
L 150.931069 87.254841 
L 149.770602 88.168583 
L 147.994799 89.416135 
L 147.280804 90.123439 
L 145.115071 92.078296 
L 145.058529 92.126006 
L 143.374477 94.033153 
L 142.122258 95.350272 
L 141.592302 95.988009 
L 140.037984 97.942866 
L 139.185988 98.995391 
L 138.505059 99.897723 
L 137.085054 101.85258 
L 136.249718 103.03735 
L 135.525626 103.807436 
L 134.420047 105.762293 
L 133.313448 107.514159 
L 131.950041 105.762293 
L 131.765754 103.807436 
L 131.923446 101.85258 
L 132.03246 99.897723 
L 132.066055 97.942866 
L 131.987335 95.988009 
L 131.731313 94.033153 
L 131.171583 92.078296 
L 130.377178 90.614523 
L 127.440908 90.60405 
L 125.714091 92.078296 
L 124.504638 92.887952 
L 123.660915 94.033153 
L 121.99343 95.988009 
L 121.568368 96.428123 
L 120.656085 97.942866 
L 119.407232 99.897723 
L 118.632098 100.978094 
L 116.275508 99.897723 
L 115.806479 97.942866 
L 115.695828 97.088276 
L 115.406703 95.988009 
L 113.990105 94.033153 
L 112.759558 93.341853 
L 112.193911 94.033153 
L 110.008679 95.988009 
L 109.823288 96.113555 
L 108.820689 97.942866 
L 107.693303 99.897723 
L 106.887018 101.02067 
L 105.702329 99.897723 
L 104.72737 97.942866 
L 104.204061 95.988009 
L 103.950748 95.394602 
L 103.339857 95.988009 
L 101.014478 97.312531 
L 99.813695 97.942866 
L 98.565787 99.897723 
L 98.230073 101.85258 
L 98.078207 102.229966 
L 97.892401 101.85258 
L 97.472087 99.897723 
L 95.8169 97.942866 
L 95.141937 97.639277 
L 94.17674 97.942866 
L 92.205667 99.451198 
L 91.418412 99.897723 
L 89.269397 100.365895 
L 87.414209 99.897723 
L 86.333127 99.594777 
L 84.531347 99.897723 
L 83.396857 100.111812 
L 80.460587 101.682648 
L 77.524317 101.061787 
L 74.588047 101.83465 
L 74.499272 101.85258 
L 71.651777 102.510066 
L 68.715507 103.676665 
L 67.254372 103.807436 
L 65.779237 103.934062 
L 62.842967 104.724717 
L 59.906697 105.432574 
" style="fill:none;stroke:#000000;"/>
   </g>
   <g id="LineCollection_8">
    <path clip-path="url(#p740b0693ae)" d="M 409.322835 61.068504 
L 406.386565 61.341081 
L 403.450295 61.645514 
L 400.514024 61.981232 
L 397.577754 62.347923 
L 394.641484 62.745443 
L 394.573517 62.755446 
L 391.705214 63.188232 
L 388.768944 63.660103 
L 385.832674 64.160355 
L 382.896404 64.690463 
L 382.794162 64.710302 
L 379.960134 65.265028 
L 377.023864 65.856098 
L 374.087594 66.488665 
L 373.300417 66.665159 
L 371.151324 67.143394 
L 368.215054 67.827141 
L 365.278784 68.551123 
L 365.006857 68.620016 
L 362.342514 69.290336 
L 359.406243 70.069019 
L 357.579888 70.574872 
L 356.469973 70.880694 
L 353.533703 71.71852 
L 350.837761 72.529729 
L 350.597433 72.601784 
L 347.661163 73.503294 
L 344.724893 74.456922 
L 344.641449 74.484586 
L 341.788623 75.428491 
L 338.895813 76.439443 
L 338.852353 76.45462 
L 335.916083 77.500379 
L 333.526899 78.394299 
L 332.979813 78.599131 
L 330.043543 79.726721 
L 328.483827 80.349156 
L 327.107273 80.899624 
L 324.171003 82.11723 
L 323.730789 82.304013 
L 321.234733 83.366593 
L 319.218594 84.258869 
L 318.298463 84.667955 
L 315.362192 86.012789 
L 314.933056 86.213726 
L 312.425922 87.394535 
L 310.835646 88.168583 
L 309.489652 88.828396 
L 306.927019 90.123439 
L 306.553382 90.31375 
L 303.617112 91.841783 
L 303.172457 92.078296 
L 300.680842 93.416268 
L 299.561206 94.033153 
L 297.744572 95.044574 
L 296.089588 95.988009 
L 294.808302 96.726791 
L 292.744676 97.942866 
L 291.872032 98.463624 
L 289.516166 99.897723 
L 288.935762 100.255845 
L 286.394741 101.85258 
L 285.999492 102.104643 
L 283.373241 103.807436 
L 283.063222 104.011602 
L 280.444514 105.762293 
L 280.126952 105.978157 
L 277.602843 107.71715 
L 277.190682 108.006211 
L 274.843781 109.672006 
L 274.254412 110.098175 
L 272.162217 111.626863 
L 271.318141 112.256304 
L 269.556705 113.58172 
L 268.381871 114.484371 
L 267.022851 115.536576 
L 265.445601 116.785157 
L 264.558915 117.491433 
L 262.509331 119.162617 
L 262.162973 119.44629 
L 259.823635 121.401146 
L 259.573061 121.614275 
L 257.531953 123.356003 
L 256.636791 124.140259 
L 255.302297 125.31086 
L 253.700521 126.754733 
L 253.133668 127.265717 
L 251.015952 129.220573 
L 250.764251 129.456943 
L 248.9317 131.17543 
L 247.827981 132.241589 
L 246.905458 133.130287 
L 245.028995 134.993992 
" style="fill:none;stroke:#000000;"/>
    <path clip-path="url(#p740b0693ae)" d="M 226.883235 155.120932 
L 222.619123 160.49828 
L 218.46528 166.061733 
L 217.764221 166.36285 
L 215.941968 168.317707 
L 215.52901 169.484744 
L 214.443428 166.36285 
L 213.399222 162.453137 
L 212.59274 158.237697 
L 212.115616 154.63371 
L 211.777832 150.723997 
L 211.564423 144.859427 
L 211.639878 138.994857 
L 211.958245 133.130287 
L 212.59274 126.311981 
L 213.190453 121.401146 
L 214.380227 113.58172 
L 215.83324 105.762293 
L 218.110257 94.033153 
L 218.194319 92.078296 
L 218.034411 90.123439 
L 217.50783 88.168583 
L 216.393488 86.213726 
L 215.52901 85.320589 
L 213.460443 84.258869 
L 212.59274 83.966201 
L 209.65647 83.754779 
L 206.221027 84.258869 
L 203.78393 84.918023 
L 200.434644 86.213726 
L 197.91139 87.398102 
L 193.228089 90.123439 
L 192.03885 90.852779 
L 187.659017 94.033153 
L 185.181362 95.988009 
L 182.869409 97.942866 
L 178.647594 101.85258 
L 174.421229 106.176387 
L 171.285617 109.672006 
L 168.020771 113.58172 
L 164.987411 117.491433 
L 160.800051 123.356003 
L 155.659004 131.17543 
L 153.867339 134.458325 
L 152.002284 133.130287 
L 151.636226 131.17543 
L 151.964132 125.31086 
L 152.512261 119.44629 
L 153.513939 111.626863 
L 154.039427 107.71715 
L 154.239323 103.807436 
L 154.170867 101.85258 
L 153.867339 99.689727 
L 152.903186 97.942866 
L 150.931069 96.441102 
L 147.994799 97.054169 
L 146.725259 97.942866 
L 145.058529 98.928244 
L 144.091147 99.897723 
L 141.931128 101.85258 
L 138.641008 105.762293 
L 135.782538 109.672006 
L 132.121186 115.536576 
L 130.377178 118.577712 
L 129.259377 119.44629 
L 128.507605 121.401146 
L 127.90236 123.356003 
L 127.440908 124.255177 
L 126.705536 123.356003 
L 126.380038 121.401146 
L 127.062035 109.672006 
L 126.960676 107.71715 
L 126.624936 105.762293 
L 125.787494 103.807436 
L 124.504638 102.463442 
L 121.568368 104.069899 
L 120.378874 105.762293 
L 118.617671 107.71715 
L 117.587793 109.672006 
L 115.695828 112.66186 
L 114.656839 113.58172 
L 113.961212 115.536576 
L 113.453441 117.491433 
L 112.759558 118.781211 
L 111.890938 117.491433 
L 111.629906 115.536576 
L 111.540437 111.626863 
L 111.294715 109.672006 
L 110.759663 107.71715 
L 109.823288 106.062834 
L 108.259205 107.71715 
L 106.887018 108.612801 
L 105.494125 111.626863 
L 103.950748 114.123943 
L 103.172781 113.58172 
L 101.816405 111.626863 
L 101.014478 108.903622 
L 100.295318 109.672006 
L 96.591847 111.626863 
L 95.445526 113.58172 
L 95.141937 115.877825 
L 95.122697 115.536576 
L 94.658715 113.58172 
L 92.205667 111.92463 
L 89.269397 111.763375 
L 87.922244 113.58172 
L 87.140607 115.536576 
L 86.333127 116.298758 
L 80.460587 115.646747 
L 80.233716 115.536576 
L 77.524317 115.018075 
L 74.588047 115.731146 
L 65.779237 118.256135 
L 62.009698 119.44629 
L 59.906697 119.978762 
L 59.906697 119.978762 
" style="fill:none;stroke:#000000;"/>
   </g>
   <g id="LineCollection_9">
    <path clip-path="url(#p740b0693ae)" d="M 409.322835 64.395122 
L 406.386565 64.624368 
L 405.447701 64.710302 
L 403.450295 64.901772 
L 400.514024 65.220156 
L 397.577754 65.572051 
L 394.641484 65.956547 
L 391.705214 66.372968 
L 389.80059 66.665159 
L 388.768944 66.829675 
L 385.832674 67.33269 
L 382.896404 67.863924 
L 379.960134 68.423574 
L 378.988988 68.620016 
L 377.023864 69.031071 
L 374.087594 69.673913 
L 371.151324 70.342438 
L 370.178312 70.574872 
L 368.215054 71.058477 
L 365.278784 71.808328 
L 362.54468 72.529729 
L 362.342514 72.584713 
L 359.406243 73.41575 
L 356.469973 74.264968 
L 355.748099 74.484586 
L 353.533703 75.166671 
L 350.597433 76.091218 
L 349.540472 76.439443 
L 347.661163 77.062147 
L 344.724893 78.065777 
L 343.796295 78.394299 
L 341.788623 79.105169 
L 338.852353 80.189674 
L 338.430782 80.349156 
L 335.916083 81.302098 
L 333.385704 82.304013 
L 332.979813 82.465206 
L 330.043543 83.658157 
L 328.616177 84.258869 
L 327.107273 84.896532 
L 324.171003 86.183505 
L 324.103249 86.213726 
L 321.234733 87.5 
L 319.79406 88.168583 
L 318.298463 88.866926 
L 315.692083 90.123439 
L 315.362192 90.283638 
L 312.425922 91.739176 
L 311.758518 92.078296 
L 309.489652 93.2409 
L 307.984678 94.033153 
L 306.553382 94.793776 
L 304.362319 95.988009 
L 303.617112 96.398331 
L 303.394008 96.52409 
" style="fill:none;stroke:#000000;"/>
    <path clip-path="url(#p740b0693ae)" d="M 279.369055 111.700225 
L 274.148289 115.536576 
L 268.381871 120.017276 
L 262.509331 124.875867 
L 257.545107 129.220573 
L 251.253406 135.085143 
L 245.366638 140.949713 
L 239.840303 146.814283 
L 234.645095 152.678854 
L 228.18209 160.49828 
L 222.186609 168.317707 
L 216.602761 176.137134 
L 215.52901 177.726675 
L 215.116864 178.091991 
L 213.726576 180.046847 
L 212.59274 182.133296 
L 212.316008 182.001704 
L 210.433314 180.046847 
L 209.458465 178.091991 
L 207.904017 174.182277 
L 206.717978 170.272564 
L 205.833491 166.36285 
L 205.180377 162.453137 
L 204.718951 158.543424 
L 204.322525 152.678854 
L 204.21817 146.814283 
L 204.35078 140.949713 
L 204.686079 135.085143 
L 205.407595 127.265717 
L 206.408949 119.44629 
L 207.636905 111.626863 
L 209.00687 103.807436 
L 209.210921 101.85258 
L 209.22263 99.897723 
L 208.939318 97.942866 
L 208.174052 95.988009 
L 206.7202 94.203668 
L 206.396723 94.033153 
L 203.78393 93.190171 
L 200.84766 93.301375 
L 197.871111 94.033153 
L 194.97512 95.210605 
L 192.03885 96.726278 
L 189.10258 98.536365 
L 184.648292 101.85258 
L 182.282525 103.807436 
L 180.054425 105.762293 
L 176.125478 109.672006 
L 174.240626 111.626863 
L 168.548689 118.335865 
L 164.759064 123.356003 
L 160.732283 129.220573 
L 158.225955 133.130287 
L 153.867339 140.568865 
L 151.529821 144.859427 
L 150.931069 146.017247 
L 150.080361 146.814283 
L 149.147975 148.76914 
L 148.54447 150.723997 
L 147.994799 151.870648 
L 146.602099 150.723997 
L 146.190357 148.76914 
L 146.018468 142.90457 
L 146.121499 137.04 
L 146.444441 131.17543 
L 147.139628 123.356003 
L 147.679586 117.491433 
L 147.721255 115.536576 
L 147.586156 113.58172 
L 147.117275 111.626863 
L 145.903467 109.672006 
L 145.058529 108.987999 
L 142.122258 109.779488 
L 139.185988 112.192233 
L 138.093941 113.58172 
L 136.249718 115.553557 
L 134.993035 117.491433 
L 133.313448 119.729025 
L 131.207331 123.356003 
L 130.039198 125.31086 
L 128.014632 129.220573 
L 126.885492 131.17543 
L 126.151425 133.130287 
L 124.504638 136.578771 
L 121.949185 135.085143 
L 121.818673 133.130287 
L 122.058592 121.401146 
L 121.886052 119.44629 
L 121.568368 117.653871 
L 121.348415 117.491433 
L 118.632098 116.750313 
L 118.143785 117.491433 
L 116.534433 119.44629 
L 115.695828 120.211442 
L 114.14685 123.356003 
L 112.759558 125.563536 
L 111.923441 127.265717 
L 111.328416 129.220573 
L 109.823288 132.418598 
L 108.671157 131.17543 
L 107.934644 129.220573 
L 107.464577 123.356003 
L 106.887018 120.706189 
L 106.151713 121.401146 
L 103.950748 122.502536 
L 102.880973 125.31086 
L 101.934477 127.265717 
L 101.014478 128.766038 
L 99.297678 127.265717 
L 98.466473 125.31086 
L 98.078207 123.696605 
L 96.705829 125.31086 
L 95.141937 126.091665 
L 92.195631 127.265717 
L 89.269397 128.259728 
L 87.140344 127.265717 
L 86.333127 126.760418 
L 84.52461 127.265717 
L 83.396857 127.698349 
L 80.460587 128.562725 
L 79.750465 129.220573 
L 77.524317 130.723771 
L 74.588047 130.797999 
L 73.262317 131.17543 
L 68.715507 133.24115 
L 65.779237 133.43902 
L 59.906697 135.445622 
L 59.906697 135.445622 
" style="fill:none;stroke:#000000;"/>
   </g>
   <g id="LineCollection_10">
    <path clip-path="url(#p740b0693ae)" d="M 409.322835 68.195529 
L 402.876355 68.620016 
L 397.577754 69.157643 
L 388.768944 70.327924 
L 382.896404 71.328632 
L 376.713637 72.529729 
L 368.212056 74.484586 
L 359.406243 76.870074 
L 350.597433 79.604998 
L 344.724893 81.626928 
L 337.699809 84.258869 
L 330.043543 87.412277 
L 323.946173 90.123439 
L 315.362192 94.289461 
L 308.441535 97.942866 
L 301.560251 101.85258 
L 294.808302 105.967285 
L 288.935762 109.788311 
L 283.063222 113.847764 
L 277.190682 118.15653 
L 270.54911 123.356003 
L 263.575898 129.220573 
L 259.199538 133.130287 
L 252.989369 138.994857 
L 247.175997 144.859427 
L 241.720282 150.723997 
L 236.576045 156.588567 
L 231.712905 162.453137 
L 225.64669 170.272564 
L 219.997582 178.091991 
L 214.72529 185.911417 
L 212.59274 189.243885 
L 212.045658 189.821131 
L 210.79179 191.775987 
L 209.65647 193.965649 
L 209.004947 193.730844 
L 206.61732 191.775987 
L 205.187548 189.821131 
L 203.78393 187.590622 
L 201.946003 183.956561 
L 200.414278 180.046847 
L 199.236468 176.137134 
L 198.33286 172.22742 
L 197.646428 168.317707 
L 197.137548 164.407994 
L 196.653296 158.543424 
L 196.444699 152.678854 
L 196.464448 146.814283 
L 196.676142 140.949713 
L 197.217993 133.130287 
L 198.021606 125.31086 
L 199.024103 117.491433 
L 199.547769 113.58172 
L 199.713592 111.626863 
L 199.681485 109.672006 
L 199.322736 107.71715 
L 198.391137 105.762293 
L 197.91139 105.206586 
L 194.97512 104.162055 
L 192.03885 104.578666 
L 188.952964 105.762293 
L 185.577171 107.71715 
L 182.769125 109.672006 
L 180.272361 111.626863 
L 176.128243 115.536576 
L 174.160247 117.491433 
L 169.063193 123.356003 
L 168.548689 123.948764 
L 162.676149 131.904887 
L 156.803609 141.163358 
L 150.550494 152.678854 
L 147.994799 157.900611 
L 147.592842 158.543424 
L 145.943236 162.453137 
L 145.058529 164.348212 
L 144.834181 164.407994 
L 142.66229 166.36285 
L 142.122258 169.056712 
L 141.610555 166.36285 
L 141.060662 162.453137 
L 140.69286 158.543424 
L 140.412976 152.678854 
L 140.391703 146.814283 
L 140.576593 140.949713 
L 141.055488 131.17543 
L 141.047053 129.220573 
L 140.863071 127.265717 
L 140.348524 125.31086 
L 139.185988 123.451497 
L 136.249718 124.489804 
L 135.589929 125.31086 
L 133.313448 127.526707 
L 132.281363 129.220573 
L 130.377178 131.777524 
L 128.625267 135.085143 
L 127.409896 137.04 
L 125.623322 140.949713 
L 124.504638 143.0675 
L 123.020286 146.814283 
L 121.568368 150.068715 
L 120.825645 150.723997 
L 119.864266 152.678854 
L 119.457499 154.63371 
L 119.205503 156.588567 
L 118.632098 158.010198 
L 117.561233 156.588567 
L 117.361029 152.678854 
L 117.278106 146.814283 
L 117.254011 140.949713 
L 117.089015 137.04 
L 116.861628 135.085143 
L 116.364942 133.130287 
L 115.695828 131.777172 
L 114.521169 133.130287 
L 112.759558 134.324388 
L 111.585923 137.04 
L 109.454693 140.949713 
L 108.864451 142.90457 
L 107.293464 146.814283 
L 106.887018 147.669755 
L 105.078321 146.814283 
L 104.425908 144.859427 
L 104.11278 140.949713 
L 103.950748 138.732015 
L 101.014478 138.117717 
L 100.137076 140.949713 
L 99.370306 142.90457 
L 98.078207 145.305065 
L 97.352472 144.859427 
L 95.930203 142.90457 
L 95.141937 139.957786 
L 94.730954 140.949713 
L 93.111394 142.90457 
L 92.205667 143.391812 
L 90.743975 142.90457 
L 89.269397 141.825325 
L 88.394011 144.859427 
L 87.093366 146.814283 
L 86.333127 147.396461 
L 85.400505 146.814283 
L 83.396857 145.323109 
L 80.460587 146.021106 
L 79.257103 146.814283 
L 77.524317 149.100016 
L 77.152098 148.924879 
L 77.152098 148.924879 
" style="fill:none;stroke:#000000;"/>
   </g>
   <g id="LineCollection_11">
    <path clip-path="url(#p740b0693ae)" d="M 409.322835 73.050104 
L 403.450295 73.133216 
L 397.577754 73.492403 
L 391.705214 74.070184 
L 385.832674 74.86854 
L 376.898243 76.439443 
L 368.171244 78.394299 
L 359.406243 80.761334 
L 353.533703 82.54766 
L 344.724893 85.566955 
L 337.88691 88.168583 
L 330.043543 91.464362 
L 324.171003 94.130487 
L 316.459532 97.942866 
L 309.156163 101.85258 
L 302.411084 105.762293 
L 296.103497 109.672006 
L 290.183948 113.58172 
L 284.607088 117.491433 
L 279.32822 121.401146 
L 274.254412 125.35485 
L 267.28546 131.17543 
L 262.509331 135.390009 
L 256.571309 140.949713 
L 250.698225 146.814283 
L 244.891711 152.998812 
L 238.332646 160.49828 
L 233.146631 166.809622 
L 227.27409 174.455546 
L 220.536925 183.956561 
L 215.354126 191.775987 
L 209.65647 201.023213 
L 209.105664 201.550271 
L 207.651117 203.505128 
L 206.7202 205.320092 
L 203.78393 203.259799 
L 200.84766 200.613913 
L 199.891835 199.595414 
L 197.91139 197.149501 
L 196.890646 195.685701 
L 194.97512 192.410246 
L 193.720938 189.821131 
L 192.198767 185.911417 
L 190.993024 182.001704 
L 190.052904 178.091991 
L 189.32691 174.182277 
L 188.531426 168.317707 
L 188.039449 162.453137 
L 187.79302 156.588567 
L 187.750212 150.723997 
L 187.959348 142.90457 
L 188.430637 135.085143 
L 189.134328 127.265717 
L 189.327175 125.31086 
L 189.401226 123.356003 
L 189.268121 121.401146 
L 189.10258 120.662343 
L 188.483813 119.44629 
L 186.16631 117.837931 
L 183.230039 118.309936 
L 180.293769 119.74155 
L 177.357499 121.809786 
L 171.484959 127.276066 
L 165.612419 134.288259 
L 163.661352 137.04 
L 162.249289 138.994857 
L 156.803609 147.499302 
L 155.020527 150.723997 
L 153.859854 152.676299 
L 153.859854 152.676299 
" style="fill:none;stroke:#000000;"/>
    <path clip-path="url(#p740b0693ae)" d="M 142.870983 176.168277 
L 142.122258 177.882218 
L 141.88811 178.091991 
L 140.606845 180.046847 
L 139.988415 182.001704 
L 139.605976 183.956561 
L 139.185988 185.331868 
L 137.928574 183.956561 
L 136.764946 180.046847 
L 135.926033 176.137134 
L 135.326966 172.22742 
L 134.903298 168.317707 
L 134.525578 162.453137 
L 134.391622 156.588567 
L 134.287833 144.859427 
L 134.012036 142.90457 
L 133.313448 140.802264 
L 133.025449 140.949713 
L 130.377178 141.778879 
L 129.689329 142.90457 
L 128.185656 144.859427 
L 127.440908 145.61673 
L 125.884145 148.76914 
L 124.504638 150.950683 
L 122.998742 154.63371 
L 121.215529 158.543424 
L 119.78959 162.453137 
L 118.632098 165.175025 
L 117.944792 166.36285 
L 117.284383 168.317707 
L 116.880927 170.272564 
L 116.3618 172.22742 
L 115.695828 173.999037 
L 113.841642 172.22742 
L 113.362394 170.272564 
L 112.919412 164.407994 
L 112.541326 154.63371 
L 112.121981 152.678854 
L 109.823288 150.661408 
L 109.069204 152.678854 
L 108.106185 154.63371 
L 106.816202 156.588567 
L 105.693838 160.49828 
L 105.007841 162.453137 
L 103.950748 164.925417 
L 101.70129 166.36285 
L 101.180514 168.317707 
L 101.014478 169.688399 
L 100.234065 160.49828 
L 99.855611 158.543424 
L 98.918792 156.588567 
L 98.078207 155.877951 
L 96.843683 160.49828 
L 96.084168 162.453137 
L 95.141937 164.208103 
L 93.483875 162.453137 
L 92.746729 160.49828 
L 92.205667 157.899608 
L 92.057831 158.543424 
L 91.492871 160.49828 
L 90.4055 162.453137 
L 89.269397 163.423451 
L 88.145774 162.453137 
L 86.749726 160.49828 
L 86.333127 159.678036 
L 85.386069 160.49828 
L 84.114347 162.453137 
L 83.396857 165.010544 
L 81.333885 168.317707 
L 80.460587 168.540384 
L 80.189846 168.317707 
L 79.676067 166.36285 
L 78.713591 164.407994 
L 77.524317 163.298908 
L 76.904651 164.407994 
L 74.588047 166.528225 
L 68.715507 166.301826 
L 68.555664 166.36285 
L 65.779237 167.888049 
L 62.842967 168.41343 
L 59.906697 169.435041 
L 59.906697 169.435041 
" style="fill:none;stroke:#000000;"/>
   </g>
   <g id="LineCollection_12">
    <path clip-path="url(#p740b0693ae)" d="M 409.322835 83.037646 
L 406.386565 81.783726 
L 403.450295 80.758856 
L 400.514024 80.181166 
L 397.577754 79.936705 
L 394.641484 79.852931 
L 388.768944 80.041844 
L 385.111273 80.349156 
L 379.960134 81.03306 
L 372.573683 82.304013 
L 368.215054 83.26251 
L 362.342514 84.701808 
L 356.469973 86.34311 
L 347.661163 89.218875 
L 341.788623 91.36178 
L 335.090094 94.033153 
L 326.292559 97.942866 
L 318.298463 101.869765 
L 311.097888 105.762293 
L 303.617112 110.125676 
L 297.744572 113.802992 
L 291.872032 117.723225 
L 285.999492 121.89784 
L 278.945032 127.265717 
L 274.080334 131.17543 
L 267.27551 137.04 
L 262.509331 141.369683 
L 254.940512 148.76914 
L 250.764251 153.077254 
L 244.053394 160.49828 
L 239.019171 166.38787 
L 231.359694 176.137134 
L 228.458733 180.046847 
L 225.65729 183.956561 
L 222.947493 187.866274 
L 220.321183 191.775987 
L 215.52901 199.204256 
L 208.383349 211.324554 
L 206.7202 214.228176 
L 203.78393 214.916759 
L 200.1328 213.279411 
L 196.758404 211.324554 
L 194.07893 209.369698 
L 191.880084 207.414841 
L 189.10258 204.320176 
L 188.46103 203.505128 
L 187.097563 201.550271 
L 185.914359 199.595414 
L 184.86129 197.640557 
L 183.127905 193.730844 
L 181.726172 189.821131 
L 180.628074 185.911417 
L 179.348412 180.046847 
L 178.710611 176.137134 
L 178.017115 170.272564 
L 177.576334 164.407994 
L 177.332583 158.543424 
L 177.257369 150.723997 
L 177.434237 142.90457 
L 177.505618 140.949713 
L 177.357499 138.608223 
L 176.417729 137.04 
L 174.421229 136.113386 
L 171.484959 137.427842 
L 169.72762 138.994857 
L 168.548689 139.842258 
L 167.604221 140.949713 
L 165.610243 142.90457 
L 164.162684 144.859427 
L 162.504202 146.814283 
L 161.202939 148.76914 
L 159.705036 150.723997 
L 158.549964 152.678854 
L 156.803609 155.267955 
L 154.979979 158.543424 
L 153.773778 160.49828 
L 151.757932 164.407994 
L 150.693272 166.36285 
L 148.831052 170.272564 
L 147.836989 172.22742 
L 146.142 176.137134 
L 145.058529 178.390296 
L 142.810646 183.956561 
L 141.971959 185.911417 
L 139.774134 191.775987 
L 139.185988 193.199349 
L 138.813064 193.730844 
L 137.862974 195.685701 
L 137.247989 197.640557 
L 136.249718 201.557805 
L 136.233243 201.550271 
L 134.176266 199.595414 
L 133.11306 197.640557 
L 132.253468 195.685701 
L 130.889145 191.775987 
L 129.885379 187.866274 
L 129.136362 183.956561 
L 128.581427 180.046847 
L 128.027429 174.182277 
L 127.722285 168.317707 
L 127.528275 164.407994 
L 127.440908 163.733881 
L 124.504638 162.6567 
L 123.688365 164.407994 
L 122.451713 166.36285 
L 121.568368 167.389692 
L 120.517465 170.272564 
L 119.656126 172.22742 
L 118.61163 174.182277 
L 117.402103 178.091991 
L 115.884408 182.001704 
L 115.063981 183.956561 
L 114.514397 185.911417 
L 114.117265 187.866274 
L 113.59881 189.821131 
L 112.759558 192.204118 
L 111.431373 191.775987 
L 109.819457 189.821131 
L 109.086543 185.911417 
L 108.541191 182.001704 
L 107.6463 174.182277 
L 107.262059 172.22742 
L 106.887018 170.917788 
L 106.396582 172.22742 
L 105.243135 174.182277 
L 103.950748 175.330509 
L 102.781037 180.046847 
L 102.155612 182.001704 
L 101.014478 184.728888 
L 99.245605 185.911417 
L 98.323998 187.866274 
L 98.078207 188.856559 
L 96.613786 180.046847 
L 96.02997 178.091991 
L 95.141937 176.332791 
L 94.719862 178.091991 
L 93.932679 182.001704 
L 93.281228 183.956561 
L 92.205667 186.117043 
L 91.980495 185.911417 
L 90.653128 183.956561 
L 89.9977 182.001704 
L 89.269397 178.169731 
L 88.493716 182.001704 
L 88.136811 183.956561 
L 87.269165 185.911417 
L 86.333127 187.06526 
L 85.46758 185.911417 
L 84.328429 183.956561 
L 83.396857 181.85324 
L 80.460587 181.626183 
L 79.870818 182.001704 
L 76.490647 183.956561 
L 75.02194 185.993736 
L 75.02194 185.993736 
" style="fill:none;stroke:#000000;"/>
   </g>
   <g id="LineCollection_13">
    <path clip-path="url(#p740b0693ae)" d="M 409.322835 105.493199 
L 399.67478 101.85258 
L 391.705214 98.693027 
L 379.960134 93.73872 
L 376.161582 92.078296 
L 374.087594 91.525421 
L 371.151324 91.278739 
L 368.215054 91.3705 
L 365.278784 91.657603 
L 362.295297 92.078296 
L 356.469973 93.367935 
L 353.533703 94.079416 
L 344.724893 96.837028 
L 341.505148 97.942866 
L 332.979813 101.3424 
L 327.107273 103.933724 
L 319.421661 107.71715 
L 312.144895 111.626863 
L 305.512224 115.536576 
L 299.326042 119.44629 
L 293.532472 123.356003 
L 288.073681 127.265717 
L 282.891552 131.17543 
L 277.190682 135.773894 
L 268.960884 142.90457 
L 265.445601 146.133172 
L 258.740894 152.678854 
L 253.700521 157.877282 
L 244.891711 167.725346 
L 236.082901 178.600804 
L 226.536818 191.775987 
L 221.293087 199.595414 
L 211.850499 215.234268 
L 206.7202 224.444363 
L 203.78393 224.669442 
L 197.91139 223.47837 
L 194.97512 222.690944 
L 190.3575 221.098838 
L 189.10258 220.56649 
L 186.156523 219.143981 
L 182.927682 217.189124 
L 180.293769 215.194979 
L 177.357499 212.410033 
L 176.354439 211.324554 
L 174.421229 208.827077 
L 173.42688 207.414841 
L 171.484959 204.05789 
L 170.217148 201.550271 
L 168.635752 197.640557 
L 166.734885 191.775987 
L 165.612419 187.047564 
L 164.957275 183.956561 
L 163.991162 178.091991 
L 163.298311 172.22742 
L 162.676149 165.389878 
L 160.824098 164.407994 
L 159.66821 164.407994 
L 158.028024 166.36285 
L 156.803609 167.32043 
L 156.227906 168.317707 
L 154.897709 170.272564 
L 153.867339 171.454173 
L 152.427622 174.182277 
L 150.931069 176.385605 
L 149.183221 180.046847 
L 147.994799 182.016159 
L 146.330486 185.911417 
L 145.058529 188.332176 
L 143.738954 191.775987 
L 141.986835 195.685701 
L 140.595543 199.595414 
L 139.007378 203.505128 
L 137.735339 207.414841 
L 136.222156 211.324554 
L 135.043959 213.279411 
L 134.148631 215.234268 
L 133.313448 217.356162 
L 133.047076 217.189124 
L 130.372407 215.234268 
L 128.440702 213.279411 
L 126.914451 211.324554 
L 125.691814 209.369698 
L 124.504638 207.01753 
L 123.822627 205.459984 
L 122.465873 201.550271 
L 121.465095 197.640557 
L 120.047953 191.775987 
L 119.190769 189.821131 
L 118.632098 189.068895 
L 118.379156 189.821131 
L 117.589049 191.775987 
L 116.299562 193.730844 
L 115.695828 194.3431 
L 114.811614 197.640557 
L 114.171901 199.595414 
L 111.859835 205.459984 
L 110.929569 209.369698 
L 110.530894 211.324554 
L 109.823288 213.435367 
L 109.514288 213.279411 
L 107.355223 211.324554 
L 106.33552 209.369698 
L 105.505277 207.414841 
L 104.235321 203.505128 
L 103.637258 201.550271 
L 102.653672 199.595414 
L 101.014478 198.016414 
L 99.839721 203.505128 
L 99.21399 205.459984 
L 98.078207 207.856573 
L 95.141937 208.457516 
L 92.823852 201.550271 
L 92.205667 200.323932 
L 91.294378 203.505128 
L 89.926496 209.369698 
L 89.269397 211.50871 
L 89.162119 211.324554 
L 87.942897 207.414841 
L 86.866755 203.505128 
L 86.427777 202.188287 
L 86.427777 202.188287 
" style="fill:none;stroke:#000000;"/>
    <path clip-path="url(#p740b0693ae)" d="M 66.230292 207.828497 
L 65.779237 207.972019 
L 62.842967 208.407576 
L 59.906697 208.598219 
" style="fill:none;stroke:#000000;"/>
   </g>
   <g id="LineCollection_14">
    <path clip-path="url(#p740b0693ae)" d="M 409.322835 165.299313 
L 406.386565 164.717917 
L 404.905807 164.407994 
L 403.450295 164.112029 
L 400.514024 163.529021 
L 397.577754 162.895864 
L 395.484871 162.453137 
L 394.641484 162.279196 
L 391.705214 161.64049 
L 388.768944 160.991447 
L 386.574404 160.49828 
L 385.832674 160.336031 
L 382.896404 159.667781 
L 379.960134 158.97666 
L 379.715757 158.917817 
" style="fill:none;stroke:#000000;"/>
    <path clip-path="url(#p740b0693ae)" d="M 350.95603 151.506945 
L 344.724893 149.700785 
L 332.979813 146.073371 
L 321.234733 142.129381 
L 312.425922 138.922195 
L 306.553382 136.672544 
L 302.561639 135.085143 
L 300.680842 134.606076 
L 297.722316 135.085143 
L 294.228576 137.04 
L 291.054435 138.994857 
L 288.105685 140.949713 
L 285.314905 142.90457 
L 282.636912 144.859427 
L 280.039561 146.814283 
L 270.88883 154.63371 
L 268.381871 156.880025 
L 266.751804 158.543424 
L 264.679287 160.49828 
L 262.509331 162.507243 
L 260.791534 164.407994 
L 258.856825 166.36285 
L 256.636791 168.605695 
L 255.237493 170.272564 
L 253.360338 172.22742 
L 248.2647 178.091991 
L 247.827981 178.550295 
L 246.704908 180.046847 
L 244.891711 182.06272 
L 243.530284 183.956561 
L 241.836077 185.911417 
L 240.462912 187.866274 
L 238.837275 189.821131 
L 237.503154 191.775987 
L 235.921985 193.730844 
L 234.644692 195.685701 
L 233.089153 197.640557 
L 231.878773 199.595414 
L 230.210361 201.78588 
L 229.191965 203.505128 
L 226.573304 207.414841 
L 225.337876 209.369698 
L 224.004812 211.324554 
L 222.889932 213.279411 
L 221.40155 215.413928 
L 220.470973 217.189124 
L 215.52901 225.389745 
L 213.715378 228.918265 
L 211.217301 232.827978 
L 209.65647 233.389203 
L 197.91139 233.137122 
L 189.10258 232.78911 
L 180.293769 232.192599 
L 174.421229 231.588802 
L 168.548689 230.730401 
L 162.676149 229.479757 
L 159.739879 228.655644 
L 155.018726 226.963408 
L 151.049736 225.008551 
L 147.953011 223.053694 
L 145.058529 220.773144 
L 143.269047 219.143981 
L 142.122258 217.871538 
L 141.528347 219.143981 
L 139.185988 220.75978 
L 138.550289 223.053694 
L 137.844525 225.008551 
L 136.735684 226.963408 
L 136.249718 227.566962 
L 135.771971 228.918265 
L 134.771965 230.873121 
L 133.313448 232.271534 
L 127.440908 231.743217 
L 124.504638 231.320732 
L 121.568368 230.729504 
L 118.632098 229.883931 
L 115.695828 228.694091 
L 112.759558 226.970159 
L 110.535182 228.918265 
L 109.823288 229.274196 
L 108.005962 230.873121 
L 106.887018 231.5489 
L 103.775185 230.873121 
L 101.014478 229.91834 
L 98.996342 228.918265 
L 98.078207 228.29082 
L 97.743427 228.918265 
L 95.951474 230.873121 
L 95.141937 231.374556 
L 93.43524 230.873121 
L 92.205667 230.393576 
L 89.269397 228.942312 
L 86.333127 230.659416 
L 83.396857 230.532828 
L 80.460587 229.742345 
L 77.524317 229.920175 
L 74.588047 230.831138 
L 71.651777 230.026559 
L 65.779237 230.762499 
L 62.842967 230.153959 
L 59.906697 228.436758 
L 59.906697 228.436758 
" style="fill:none;stroke:#000000;"/>
   </g>
   <g id="LineCollection_15"/>
   <g id="patch_3">
    <path d="M 59.906697 234.782835 
L 59.906697 39.297165 
" style="fill:none;stroke:#000000;stroke-linecap:square;stroke-linejoin:miter;"/>
   </g>
   <g id="patch_4">
    <path d="M 59.906697 234.782835 
L 409.322835 234.782835 
" style="fill:none;stroke:#000000;stroke-linecap:square;stroke-linejoin:miter;"/>
   </g>
   <g id="text_13">
    <g clip-path="url(#p740b0693ae)">
     <!-- 0.160 -->
     <g transform="translate(339.330453 44.985322)rotate(-2.101481)scale(0.1 -0.1)">
      <defs>
       <path d="M 31.78125 66.40625 
Q 24.171875 66.40625 20.328125 58.90625 
Q 16.5 51.421875 16.5 36.375 
Q 16.5 21.390625 20.328125 13.890625 
Q 24.171875 6.390625 31.78125 6.390625 
Q 39.453125 6.390625 43.28125 13.890625 
Q 47.125 21.390625 47.125 36.375 
Q 47.125 51.421875 43.28125 58.90625 
Q 39.453125 66.40625 31.78125 66.40625 
z
M 31.78125 74.21875 
Q 44.046875 74.21875 50.515625 64.515625 
Q 56.984375 54.828125 56.984375 36.375 
Q 56.984375 17.96875 50.515625 8.265625 
Q 44.046875 -1.421875 31.78125 -1.421875 
Q 19.53125 -1.421875 13.0625 8.265625 
Q 6.59375 17.96875 6.59375 36.375 
Q 6.59375 54.828125 13.0625 64.515625 
Q 19.53125 74.21875 31.78125 74.21875 
z
" id="DejaVuSans-48"/>
       <path d="M 10.6875 12.40625 
L 21 12.40625 
L 21 0 
L 10.6875 0 
z
" id="DejaVuSans-46"/>
       <path d="M 12.40625 8.296875 
L 28.515625 8.296875 
L 28.515625 63.921875 
L 10.984375 60.40625 
L 10.984375 69.390625 
L 28.421875 72.90625 
L 38.28125 72.90625 
L 38.28125 8.296875 
L 54.390625 8.296875 
L 54.390625 0 
L 12.40625 0 
z
" id="DejaVuSans-49"/>
       <path d="M 33.015625 40.375 
Q 26.375 40.375 22.484375 35.828125 
Q 18.609375 31.296875 18.609375 23.390625 
Q 18.609375 15.53125 22.484375 10.953125 
Q 26.375 6.390625 33.015625 6.390625 
Q 39.65625 6.390625 43.53125 10.953125 
Q 47.40625 15.53125 47.40625 23.390625 
Q 47.40625 31.296875 43.53125 35.828125 
Q 39.65625 40.375 33.015625 40.375 
z
M 52.59375 71.296875 
L 52.59375 62.3125 
Q 48.875 64.0625 45.09375 64.984375 
Q 41.3125 65.921875 37.59375 65.921875 
Q 27.828125 65.921875 22.671875 59.328125 
Q 17.53125 52.734375 16.796875 39.40625 
Q 19.671875 43.65625 24.015625 45.921875 
Q 28.375 48.1875 33.59375 48.1875 
Q 44.578125 48.1875 50.953125 41.515625 
Q 57.328125 34.859375 57.328125 23.390625 
Q 57.328125 12.15625 50.6875 5.359375 
Q 44.046875 -1.421875 33.015625 -1.421875 
Q 20.359375 -1.421875 13.671875 8.265625 
Q 6.984375 17.96875 6.984375 36.375 
Q 6.984375 53.65625 15.1875 63.9375 
Q 23.390625 74.21875 37.203125 74.21875 
Q 40.921875 74.21875 44.703125 73.484375 
Q 48.484375 72.75 52.59375 71.296875 
z
" id="DejaVuSans-54"/>
      </defs>
      <use xlink:href="#DejaVuSans-48"/>
      <use x="63.623047" xlink:href="#DejaVuSans-46"/>
      <use x="95.410156" xlink:href="#DejaVuSans-49"/>
      <use x="159.033203" xlink:href="#DejaVuSans-54"/>
      <use x="222.65625" xlink:href="#DejaVuSans-48"/>
     </g>
    </g>
   </g>
   <g id="text_14">
    <g clip-path="url(#p740b0693ae)">
     <!-- 0.180 -->
     <g transform="translate(116.304935 54.286583)rotate(-2.012217)scale(0.1 -0.1)">
      <defs>
       <path d="M 31.78125 34.625 
Q 24.75 34.625 20.71875 30.859375 
Q 16.703125 27.09375 16.703125 20.515625 
Q 16.703125 13.921875 20.71875 10.15625 
Q 24.75 6.390625 31.78125 6.390625 
Q 38.8125 6.390625 42.859375 10.171875 
Q 46.921875 13.96875 46.921875 20.515625 
Q 46.921875 27.09375 42.890625 30.859375 
Q 38.875 34.625 31.78125 34.625 
z
M 21.921875 38.8125 
Q 15.578125 40.375 12.03125 44.71875 
Q 8.5 49.078125 8.5 55.328125 
Q 8.5 64.0625 14.71875 69.140625 
Q 20.953125 74.21875 31.78125 74.21875 
Q 42.671875 74.21875 48.875 69.140625 
Q 55.078125 64.0625 55.078125 55.328125 
Q 55.078125 49.078125 51.53125 44.71875 
Q 48 40.375 41.703125 38.8125 
Q 48.828125 37.15625 52.796875 32.3125 
Q 56.78125 27.484375 56.78125 20.515625 
Q 56.78125 9.90625 50.3125 4.234375 
Q 43.84375 -1.421875 31.78125 -1.421875 
Q 19.734375 -1.421875 13.25 4.234375 
Q 6.78125 9.90625 6.78125 20.515625 
Q 6.78125 27.484375 10.78125 32.3125 
Q 14.796875 37.15625 21.921875 38.8125 
z
M 18.3125 54.390625 
Q 18.3125 48.734375 21.84375 45.5625 
Q 25.390625 42.390625 31.78125 42.390625 
Q 38.140625 42.390625 41.71875 45.5625 
Q 45.3125 48.734375 45.3125 54.390625 
Q 45.3125 60.0625 41.71875 63.234375 
Q 38.140625 66.40625 31.78125 66.40625 
Q 25.390625 66.40625 21.84375 63.234375 
Q 18.3125 60.0625 18.3125 54.390625 
z
" id="DejaVuSans-56"/>
      </defs>
      <use xlink:href="#DejaVuSans-48"/>
      <use x="63.623047" xlink:href="#DejaVuSans-46"/>
      <use x="95.410156" xlink:href="#DejaVuSans-49"/>
      <use x="159.033203" xlink:href="#DejaVuSans-56"/>
      <use x="222.65625" xlink:href="#DejaVuSans-48"/>
     </g>
    </g>
   </g>
   <g id="text_15">
    <g clip-path="url(#p740b0693ae)">
     <!-- 0.200 -->
     <g transform="translate(266.387256 88.411483)rotate(-31.263737)scale(0.1 -0.1)">
      <defs>
       <path d="M 19.1875 8.296875 
L 53.609375 8.296875 
L 53.609375 0 
L 7.328125 0 
L 7.328125 8.296875 
Q 12.9375 14.109375 22.625 23.890625 
Q 32.328125 33.6875 34.8125 36.53125 
Q 39.546875 41.84375 41.421875 45.53125 
Q 43.3125 49.21875 43.3125 52.78125 
Q 43.3125 58.59375 39.234375 62.25 
Q 35.15625 65.921875 28.609375 65.921875 
Q 23.96875 65.921875 18.8125 64.3125 
Q 13.671875 62.703125 7.8125 59.421875 
L 7.8125 69.390625 
Q 13.765625 71.78125 18.9375 73 
Q 24.125 74.21875 28.421875 74.21875 
Q 39.75 74.21875 46.484375 68.546875 
Q 53.21875 62.890625 53.21875 53.421875 
Q 53.21875 48.921875 51.53125 44.890625 
Q 49.859375 40.875 45.40625 35.40625 
Q 44.1875 33.984375 37.640625 27.21875 
Q 31.109375 20.453125 19.1875 8.296875 
z
" id="DejaVuSans-50"/>
      </defs>
      <use xlink:href="#DejaVuSans-48"/>
      <use x="63.623047" xlink:href="#DejaVuSans-46"/>
      <use x="95.410156" xlink:href="#DejaVuSans-50"/>
      <use x="159.033203" xlink:href="#DejaVuSans-48"/>
      <use x="222.65625" xlink:href="#DejaVuSans-48"/>
     </g>
    </g>
   </g>
   <g id="text_16">
    <g clip-path="url(#p740b0693ae)">
     <!-- 0.220 -->
     <g transform="translate(90.288176 76.547098)rotate(-357.222513)scale(0.1 -0.1)">
      <use xlink:href="#DejaVuSans-48"/>
      <use x="63.623047" xlink:href="#DejaVuSans-46"/>
      <use x="95.410156" xlink:href="#DejaVuSans-50"/>
      <use x="159.033203" xlink:href="#DejaVuSans-50"/>
      <use x="222.65625" xlink:href="#DejaVuSans-48"/>
     </g>
    </g>
   </g>
   <g id="text_17">
    <g clip-path="url(#p740b0693ae)">
     <!-- 0.240 -->
     <g transform="translate(126.460804 76.502501)rotate(-307.316249)scale(0.1 -0.1)">
      <defs>
       <path d="M 37.796875 64.3125 
L 12.890625 25.390625 
L 37.796875 25.390625 
z
M 35.203125 72.90625 
L 47.609375 72.90625 
L 47.609375 25.390625 
L 58.015625 25.390625 
L 58.015625 17.1875 
L 47.609375 17.1875 
L 47.609375 0 
L 37.796875 0 
L 37.796875 17.1875 
L 4.890625 17.1875 
L 4.890625 26.703125 
z
" id="DejaVuSans-52"/>
      </defs>
      <use xlink:href="#DejaVuSans-48"/>
      <use x="63.623047" xlink:href="#DejaVuSans-46"/>
      <use x="95.410156" xlink:href="#DejaVuSans-50"/>
      <use x="159.033203" xlink:href="#DejaVuSans-52"/>
      <use x="222.65625" xlink:href="#DejaVuSans-48"/>
     </g>
    </g>
   </g>
   <g id="text_18">
    <g clip-path="url(#p740b0693ae)">
     <!-- 0.260 -->
     <g transform="translate(169.732694 110.551966)rotate(-48.967298)scale(0.1 -0.1)">
      <use xlink:href="#DejaVuSans-48"/>
      <use x="63.623047" xlink:href="#DejaVuSans-46"/>
      <use x="95.410156" xlink:href="#DejaVuSans-50"/>
      <use x="159.033203" xlink:href="#DejaVuSans-54"/>
      <use x="222.65625" xlink:href="#DejaVuSans-48"/>
     </g>
    </g>
   </g>
   <g id="text_19">
    <g clip-path="url(#p740b0693ae)">
     <!-- 0.280 -->
     <g transform="translate(229.211009 157.940656)rotate(-52.90077)scale(0.1 -0.1)">
      <use xlink:href="#DejaVuSans-48"/>
      <use x="63.623047" xlink:href="#DejaVuSans-46"/>
      <use x="95.410156" xlink:href="#DejaVuSans-50"/>
      <use x="159.033203" xlink:href="#DejaVuSans-56"/>
      <use x="222.65625" xlink:href="#DejaVuSans-48"/>
     </g>
    </g>
   </g>
   <g id="text_20">
    <g clip-path="url(#p740b0693ae)">
     <!-- 0.300 -->
     <g transform="translate(281.331701 114.620736)rotate(-36.971552)scale(0.1 -0.1)">
      <defs>
       <path d="M 40.578125 39.3125 
Q 47.65625 37.796875 51.625 33 
Q 55.609375 28.21875 55.609375 21.1875 
Q 55.609375 10.40625 48.1875 4.484375 
Q 40.765625 -1.421875 27.09375 -1.421875 
Q 22.515625 -1.421875 17.65625 -0.515625 
Q 12.796875 0.390625 7.625 2.203125 
L 7.625 11.71875 
Q 11.71875 9.328125 16.59375 8.109375 
Q 21.484375 6.890625 26.8125 6.890625 
Q 36.078125 6.890625 40.9375 10.546875 
Q 45.796875 14.203125 45.796875 21.1875 
Q 45.796875 27.640625 41.28125 31.265625 
Q 36.765625 34.90625 28.71875 34.90625 
L 20.21875 34.90625 
L 20.21875 43.015625 
L 29.109375 43.015625 
Q 36.375 43.015625 40.234375 45.921875 
Q 44.09375 48.828125 44.09375 54.296875 
Q 44.09375 59.90625 40.109375 62.90625 
Q 36.140625 65.921875 28.71875 65.921875 
Q 24.65625 65.921875 20.015625 65.03125 
Q 15.375 64.15625 9.8125 62.3125 
L 9.8125 71.09375 
Q 15.4375 72.65625 20.34375 73.4375 
Q 25.25 74.21875 29.59375 74.21875 
Q 40.828125 74.21875 47.359375 69.109375 
Q 53.90625 64.015625 53.90625 55.328125 
Q 53.90625 49.265625 50.4375 45.09375 
Q 46.96875 40.921875 40.578125 39.3125 
z
" id="DejaVuSans-51"/>
      </defs>
      <use xlink:href="#DejaVuSans-48"/>
      <use x="63.623047" xlink:href="#DejaVuSans-46"/>
      <use x="95.410156" xlink:href="#DejaVuSans-51"/>
      <use x="159.033203" xlink:href="#DejaVuSans-48"/>
      <use x="222.65625" xlink:href="#DejaVuSans-48"/>
     </g>
    </g>
   </g>
   <g id="text_21">
    <g clip-path="url(#p740b0693ae)">
     <!-- 0.320 -->
     <g transform="translate(50.680128 158.013793)rotate(-19.093238)scale(0.1 -0.1)">
      <use xlink:href="#DejaVuSans-48"/>
      <use x="63.623047" xlink:href="#DejaVuSans-46"/>
      <use x="95.410156" xlink:href="#DejaVuSans-51"/>
      <use x="159.033203" xlink:href="#DejaVuSans-50"/>
      <use x="222.65625" xlink:href="#DejaVuSans-48"/>
     </g>
    </g>
   </g>
   <g id="text_22">
    <g clip-path="url(#p740b0693ae)">
     <!-- 0.340 -->
     <g transform="translate(145.316488 178.629435)rotate(-68.501758)scale(0.1 -0.1)">
      <use xlink:href="#DejaVuSans-48"/>
      <use x="63.623047" xlink:href="#DejaVuSans-46"/>
      <use x="95.410156" xlink:href="#DejaVuSans-51"/>
      <use x="159.033203" xlink:href="#DejaVuSans-52"/>
      <use x="222.65625" xlink:href="#DejaVuSans-48"/>
     </g>
    </g>
   </g>
   <g id="text_23">
    <g clip-path="url(#p740b0693ae)">
     <!-- 0.360 -->
     <g transform="translate(48.623525 192.945059)rotate(-9.477989)scale(0.1 -0.1)">
      <use xlink:href="#DejaVuSans-48"/>
      <use x="63.623047" xlink:href="#DejaVuSans-46"/>
      <use x="95.410156" xlink:href="#DejaVuSans-51"/>
      <use x="159.033203" xlink:href="#DejaVuSans-54"/>
      <use x="222.65625" xlink:href="#DejaVuSans-48"/>
     </g>
    </g>
   </g>
   <g id="text_24">
    <g clip-path="url(#p740b0693ae)">
     <!-- 0.380 -->
     <g transform="translate(64.188428 215.676003)rotate(-12.908492)scale(0.1 -0.1)">
      <use xlink:href="#DejaVuSans-48"/>
      <use x="63.623047" xlink:href="#DejaVuSans-46"/>
      <use x="95.410156" xlink:href="#DejaVuSans-51"/>
      <use x="159.033203" xlink:href="#DejaVuSans-56"/>
      <use x="222.65625" xlink:href="#DejaVuSans-48"/>
     </g>
    </g>
   </g>
   <g id="text_25">
    <g clip-path="url(#p740b0693ae)">
     <!-- 0.400 -->
     <g transform="translate(350.784878 153.808671)rotate(-342.946018)scale(0.1 -0.1)">
      <use xlink:href="#DejaVuSans-48"/>
      <use x="63.623047" xlink:href="#DejaVuSans-46"/>
      <use x="95.410156" xlink:href="#DejaVuSans-52"/>
      <use x="159.033203" xlink:href="#DejaVuSans-48"/>
      <use x="222.65625" xlink:href="#DejaVuSans-48"/>
     </g>
    </g>
   </g>
   <g id="text_26">
    <!-- Max(I) -->
    <g transform="translate(211.958516 33.297165)scale(0.16 -0.16)">
     <defs>
      <path d="M 1.125 1.8125 
Q 7.328125 2.4375 9.078125 4.609375 
Q 10.84375 6.78125 10.84375 14.703125 
L 10.84375 55.328125 
Q 10.84375 60.75 9.125 62.375 
Q 7.421875 64.015625 1.375 64.3125 
L 1.375 66.15625 
L 21.140625 66.15625 
L 44.28125 15.71875 
L 66.40625 66.15625 
L 86.328125 66.15625 
L 86.328125 64.3125 
Q 80.765625 63.921875 79.15625 62.28125 
Q 77.546875 60.640625 77.546875 55.328125 
L 77.546875 10.84375 
Q 77.546875 5.375 79.15625 3.828125 
Q 80.765625 2.296875 86.328125 1.8125 
L 86.328125 0 
L 58.296875 0 
L 58.296875 1.8125 
Q 64.359375 2.296875 65.84375 3.984375 
Q 67.328125 5.671875 67.328125 12.015625 
L 67.328125 56.9375 
L 41.75 0 
L 40.375 0 
L 15.234375 54.59375 
L 15.234375 14.703125 
Q 15.234375 6.5 17.625 4 
Q 19.1875 2.390625 24.609375 1.8125 
L 24.609375 0 
L 1.125 0 
z
" id="Times-Roman-77"/>
      <path d="M 28.65625 27.046875 
Q 23.046875 25.203125 19.390625 22.953125 
Q 12.359375 18.609375 12.359375 13.09375 
Q 12.359375 8.640625 15.28125 6.546875 
Q 17.1875 5.171875 19.53125 5.171875 
Q 22.75 5.171875 25.703125 6.984375 
Q 28.65625 8.796875 28.65625 11.578125 
z
M 3.65625 9.71875 
Q 3.65625 16.796875 10.75 21.53125 
Q 15.234375 24.46875 28.65625 29.5 
L 28.65625 33.640625 
Q 28.65625 38.625 27.6875 40.578125 
Q 26.03125 43.84375 20.796875 43.84375 
Q 18.3125 43.84375 16.0625 42.578125 
Q 13.8125 41.265625 13.8125 38.96875 
Q 13.8125 38.375 14.0625 36.984375 
Q 14.3125 35.59375 14.3125 35.203125 
Q 14.3125 32.46875 12.5 31.390625 
Q 11.46875 30.765625 10.0625 30.765625 
Q 7.859375 30.765625 6.6875 32.203125 
Q 5.515625 33.640625 5.515625 35.40625 
Q 5.515625 38.8125 9.734375 42.546875 
Q 13.96875 46.296875 22.125 46.296875 
Q 31.59375 46.296875 34.96875 40.140625 
Q 36.765625 36.765625 36.765625 30.328125 
L 36.765625 10.75 
Q 36.765625 7.90625 37.15625 6.84375 
Q 37.796875 4.9375 39.796875 4.9375 
Q 40.921875 4.9375 41.65625 5.265625 
Q 42.390625 5.609375 44.1875 6.9375 
L 44.1875 4.390625 
Q 42.625 2.484375 40.828125 1.265625 
Q 38.09375 -0.59375 35.25 -0.59375 
Q 31.9375 -0.59375 30.4375 1.5625 
Q 28.953125 3.71875 28.8125 6.6875 
Q 25.09375 3.46875 22.46875 1.90625 
Q 18.015625 -0.734375 14.015625 -0.734375 
Q 9.8125 -0.734375 6.734375 2.21875 
Q 3.65625 5.171875 3.65625 9.71875 
z
M 22.265625 46.296875 
z
" id="Times-Roman-97"/>
      <path d="M 23.140625 44.875 
L 23.140625 43.5 
Q 21.296875 43.453125 20 42.984375 
Q 18.703125 42.53125 18.703125 41.0625 
Q 18.703125 40.140625 21.296875 35.84375 
Q 22.65625 33.59375 24.75 30.328125 
Q 27.640625 34.28125 29.046875 36.53125 
Q 31.453125 40.140625 31.453125 41.21875 
Q 31.453125 42.484375 30.421875 42.921875 
Q 29.390625 43.359375 27.546875 43.5 
L 27.546875 44.875 
L 43.265625 44.875 
L 43.265625 43.5 
Q 40.765625 43.3125 38.609375 42.15625 
Q 36.46875 41.015625 35.15625 39.109375 
L 26.8125 27.046875 
L 39.703125 7.515625 
Q 42.1875 3.71875 43.921875 2.59375 
Q 45.65625 1.46875 47.90625 1.375 
L 47.90625 0 
L 27.734375 0 
L 27.734375 1.375 
L 29.15625 1.46875 
Q 30.28125 1.5625 31.03125 2.140625 
Q 31.78125 2.734375 31.78125 3.609375 
Q 31.78125 4.546875 29.9375 7.71875 
Q 29.046875 9.28125 27.296875 11.96875 
Q 26.46875 13.28125 24.828125 15.625 
Q 23.1875 17.96875 22.078125 19.625 
L 14.203125 7.375 
Q 12.796875 5.171875 12.453125 4.4375 
Q 12.109375 3.71875 12.109375 3.21875 
Q 12.109375 2.296875 12.859375 2 
Q 13.625 1.703125 16.15625 1.375 
L 16.15625 0 
L 1.703125 0 
L 1.703125 1.375 
Q 4.34375 1.90625 5.609375 2.734375 
Q 6.890625 3.5625 8.984375 6.59375 
L 20.359375 23.140625 
L 10.984375 37.359375 
Q 8.15625 41.609375 7.078125 42.390625 
Q 6 43.171875 2.390625 43.5 
L 2.390625 44.875 
z
" id="Times-Roman-120"/>
      <path d="M 4.59375 25.09375 
Q 4.59375 42.09375 14.75 54.9375 
Q 21 62.796875 29.5 67.578125 
L 30.421875 65.96875 
Q 22.5625 59.71875 19.1875 53.8125 
Q 13.28125 43.5 13.28125 26.375 
Q 13.28125 13.671875 15.53125 5.421875 
Q 19.484375 -9.03125 30.421875 -16.21875 
L 29.15625 -17.828125 
Q 23.140625 -14.9375 16.15625 -6.546875 
Q 4.59375 7.375 4.59375 25.09375 
z
" id="Times-Roman-40"/>
      <path d="M 1.609375 1.8125 
Q 7.71875 2.25 9.515625 3.640625 
Q 11.328125 5.03125 11.328125 10.84375 
L 11.328125 55.328125 
Q 11.328125 60.84375 9.515625 62.421875 
Q 7.71875 64.015625 1.609375 64.3125 
L 1.609375 66.15625 
L 31.203125 66.15625 
L 31.203125 64.3125 
Q 25.09375 64.015625 23.28125 62.421875 
Q 21.484375 60.84375 21.484375 55.328125 
L 21.484375 10.84375 
Q 21.484375 5.03125 23.28125 3.640625 
Q 25.09375 2.25 31.203125 1.8125 
L 31.203125 0 
L 1.609375 0 
z
M 16.40625 66.15625 
z
" id="Times-Roman-73"/>
      <path d="M 28.46875 24.609375 
Q 28.46875 17.328125 26.5625 10.828125 
Q 24.65625 4.34375 21 -1.421875 
Q 17.140625 -7.5625 10.6875 -12.890625 
Q 6.453125 -16.40625 3.5625 -17.828125 
L 2.640625 -16.21875 
Q 10.15625 -10.5 13.625 -4.546875 
Q 19.78125 6 19.78125 23.34375 
Q 19.78125 37.359375 16.9375 46.234375 
Q 12.984375 58.796875 2.640625 65.96875 
L 3.90625 67.578125 
Q 11.625 63.28125 18.265625 54.59375 
Q 28.46875 41.21875 28.46875 24.609375 
z
" id="Times-Roman-41"/>
     </defs>
     <use xlink:href="#Times-Roman-77"/>
     <use x="88.916016" xlink:href="#Times-Roman-97"/>
     <use x="133.300781" xlink:href="#Times-Roman-120"/>
     <use x="183.300781" xlink:href="#Times-Roman-40"/>
     <use x="216.601562" xlink:href="#Times-Roman-73"/>
     <use x="249.902344" xlink:href="#Times-Roman-41"/>
    </g>
   </g>
  </g>
 </g>
 <defs>
  <clipPath id="p740b0693ae">
   <rect height="195.485669" width="349.416138" x="59.906697" y="39.297165"/>
  </clipPath>
 </defs>
</svg>
